<?xml version="1.0" encoding="UTF-8" standalone="no"?>
<!DOCTYPE svg PUBLIC "-//W3C//DTD SVG 1.1//EN"
 "http://www.w3.org/Graphics/SVG/1.1/DTD/svg11.dtd">
<!-- Generated by graphviz version 14.1.2 (20260124.0452)
 -->
<!-- Title: _get_async_event Pages: 1 -->
<svg width="677pt" height="104pt"
 viewBox="0.00 0.00 677.00 104.00" xmlns="http://www.w3.org/2000/svg" xmlns:xlink="http://www.w3.org/1999/xlink">
<g id="graph0" class="graph" transform="scale(1 1) rotate(0) translate(4 100)">
<title>_get_async_event</title>
<!-- Node1 -->
<g id="Node000001" class="node">
<title>Node1</title>
<g id="a_Node000001"><a xlink:title=" ">
<polygon fill="#999999" stroke="#666666" points="668.75,-58 573.25,-58 573.25,-38 668.75,-38 668.75,-58"/>
<text xml:space="preserve" text-anchor="middle" x="621" y="-44.5" font-family="Helvetica,sans-Serif" font-size="10.00">_get_async_event</text>
</a>
</g>
</g>
<!-- Node1&#45;&gt;Node1 -->
<g id="edge7_Node000001_Node000001" class="edge">
<title>Node1&#45;&gt;Node1</title>
<g id="a_edge7_Node000001_Node000001"><a xlink:title=" ">
<path fill="none" stroke="#63b8ff" d="M645.37,-69.44C642.23,-73.3 634.11,-76 621,-76 597.03,-76 589.73,-66.98 599.09,-58.34"/>
<polygon fill="#63b8ff" stroke="#63b8ff" points="648.82,-68.82 643.23,-59.82 641.98,-70.34 648.82,-68.82"/>
</a>
</g>
</g>
<!-- Node2 -->
<g id="Node000002" class="node">
<title>Node2</title>
<g id="a_Node000002"><a xlink:href="_async_t_c_p_8cpp.html#a87baf4ac2987dd94502c4586a97e552f" target="_top" xlink:title=" ">
<polygon fill="white" stroke="#666666" points="537.25,-58 429,-58 429,-38 537.25,-38 537.25,-58"/>
<text xml:space="preserve" text-anchor="middle" x="483.12" y="-44.5" font-family="Helvetica,sans-Serif" font-size="10.00">_async_service_task</text>
</a>
</g>
</g>
<!-- Node1&#45;&gt;Node2 -->
<g id="edge1_Node000001_Node000002" class="edge">
<title>Node1&#45;&gt;Node2</title>
<g id="a_edge1_Node000001_Node000002"><a xlink:title=" ">
<path fill="none" stroke="#63b8ff" d="M561.47,-48C553.57,-48 545.5,-48 537.7,-48"/>
<polygon fill="#63b8ff" stroke="#63b8ff" points="561.35,-51.5 571.35,-48 561.35,-44.5 561.35,-51.5"/>
</a>
</g>
</g>
<!-- Node3 -->
<g id="Node000003" class="node">
<title>Node3</title>
<g id="a_Node000003"><a xlink:href="_async_t_c_p_8cpp.html#a4d0de407bcfcc96b61af40aca3156708" target="_top" xlink:title=" ">
<polygon fill="white" stroke="#666666" points="393,-58 296.75,-58 296.75,-38 393,-38 393,-58"/>
<text xml:space="preserve" text-anchor="middle" x="344.88" y="-44.5" font-family="Helvetica,sans-Serif" font-size="10.00">_start_async_task</text>
</a>
</g>
</g>
<!-- Node2&#45;&gt;Node3 -->
<g id="edge2_Node000002_Node000003" class="edge">
<title>Node2&#45;&gt;Node3</title>
<g id="a_edge2_Node000002_Node000003"><a xlink:title=" ">
<path fill="none" stroke="#63b8ff" d="M417.35,-48C409.29,-48 401.16,-48 393.42,-48"/>
<polygon fill="#63b8ff" stroke="#63b8ff" points="417.15,-51.5 427.15,-48 417.15,-44.5 417.15,-51.5"/>
</a>
</g>
</g>
<!-- Node4 -->
<g id="Node000004" class="node">
<title>Node4</title>
<g id="a_Node000004"><a xlink:href="class_async_client.html#a758eaca983e03027c99003a5808883f8" target="_top" xlink:title=" ">
<polygon fill="#fff0f0" stroke="red" points="260.75,-96 145.75,-96 145.75,-76 260.75,-76 260.75,-96"/>
<text xml:space="preserve" text-anchor="middle" x="203.25" y="-82.5" font-family="Helvetica,sans-Serif" font-size="10.00">AsyncClient::_connect</text>
</a>
</g>
</g>
<!-- Node3&#45;&gt;Node4 -->
<g id="edge3_Node000003_Node000004" class="edge">
<title>Node3&#45;&gt;Node4</title>
<g id="a_edge3_Node000003_Node000004"><a xlink:title=" ">
<path fill="none" stroke="#63b8ff" d="M294.47,-61.45C277.45,-66.08 258.66,-71.19 242.65,-75.55"/>
<polygon fill="#63b8ff" stroke="#63b8ff" points="295.16,-64.89 303.89,-58.88 293.32,-58.13 295.16,-64.89"/>
</a>
</g>
</g>
<!-- Node5 -->
<g id="Node000005" class="node">
<title>Node5</title>
<g id="a_Node000005"><a xlink:href="class_async_client.html#a260e075caca9a58241f2fad754cc412b" target="_top" xlink:title=" ">
<polygon fill="white" stroke="#666666" points="109.75,-77 0,-77 0,-57 109.75,-57 109.75,-77"/>
<text xml:space="preserve" text-anchor="middle" x="54.88" y="-63.5" font-family="Helvetica,sans-Serif" font-size="10.00">AsyncClient::connect</text>
</a>
</g>
</g>
<!-- Node3&#45;&gt;Node5 -->
<g id="edge6_Node000003_Node000005" class="edge">
<title>Node3&#45;&gt;Node5</title>
<g id="a_edge6_Node000003_Node000005"><a xlink:title=" ">
<path fill="none" stroke="#63b8ff" d="M285.09,-51.88C233.81,-55.26 160.02,-60.13 110.13,-63.42"/>
<polygon fill="#63b8ff" stroke="#63b8ff" points="285.06,-55.39 294.81,-51.24 284.6,-48.4 285.06,-55.39"/>
</a>
</g>
</g>
<!-- Node10 -->
<g id="Node000010" class="node">
<title>Node10</title>
<g id="a_Node000010"><a xlink:href="class_async_server.html#a7e9ce55e4e1d0fab5531bac98ebfb3f9" target="_top" xlink:title=" ">
<polygon fill="white" stroke="#666666" points="254,-20 152.5,-20 152.5,0 254,0 254,-20"/>
<text xml:space="preserve" text-anchor="middle" x="203.25" y="-6.5" font-family="Helvetica,sans-Serif" font-size="10.00">AsyncServer::begin</text>
</a>
</g>
</g>
<!-- Node3&#45;&gt;Node10 -->
<g id="edge5_Node000003_Node000010" class="edge">
<title>Node3&#45;&gt;Node10</title>
<g id="a_edge5_Node000003_Node000010"><a xlink:title=" ">
<path fill="none" stroke="#63b8ff" d="M294.47,-34.55C277.45,-29.92 258.66,-24.81 242.65,-20.45"/>
<polygon fill="#63b8ff" stroke="#63b8ff" points="293.32,-37.87 303.89,-37.12 295.16,-31.11 293.32,-37.87"/>
</a>
</g>
</g>
<!-- Node4&#45;&gt;Node5 -->
<g id="edge4_Node000004_Node000005" class="edge">
<title>Node4&#45;&gt;Node5</title>
<g id="a_edge4_Node000004_Node000005"><a xlink:title=" ">
<path fill="none" stroke="#63b8ff" d="M134.51,-77.21C126.26,-76.14 117.92,-75.05 109.91,-74.01"/>
<polygon fill="#63b8ff" stroke="#63b8ff" points="133.79,-80.64 144.16,-78.46 134.69,-73.7 133.79,-80.64"/>
</a>
</g>
</g>
</g>
</svg>
