<?xml version="1.0" encoding="UTF-8" standalone="no"?>
<!DOCTYPE svg PUBLIC "-//W3C//DTD SVG 1.1//EN"
 "http://www.w3.org/Graphics/SVG/1.1/DTD/svg11.dtd">
<!-- Generated by graphviz version 14.1.2 (20260124.0452)
 -->
<!-- Title: AsyncTelnet.h Pages: 1 -->
<svg width="223pt" height="140pt"
 viewBox="0.00 0.00 223.00 140.00" xmlns="http://www.w3.org/2000/svg" xmlns:xlink="http://www.w3.org/1999/xlink">
<g id="graph0" class="graph" transform="scale(1 1) rotate(0) translate(4 136)">
<title>AsyncTelnet.h</title>
<!-- Node1 -->
<g id="Node000001" class="node">
<title>Node1</title>
<g id="a_Node000001"><a xlink:title=" ">
<polygon fill="#999999" stroke="#666666" points="140.5,-132 62.25,-132 62.25,-112 140.5,-112 140.5,-132"/>
<text xml:space="preserve" text-anchor="middle" x="101.38" y="-118.5" font-family="Helvetica,sans-Serif" font-size="10.00">AsyncTelnet.h</text>
</a>
</g>
</g>
<!-- Node2 -->
<g id="Node000002" class="node">
<title>Node2</title>
<g id="a_Node000002"><a xlink:href="_async_telnet_8cpp.html" target="_top" xlink:title=" ">
<polygon fill="white" stroke="#666666" points="88.75,-76 0,-76 0,-56 88.75,-56 88.75,-76"/>
<text xml:space="preserve" text-anchor="middle" x="44.38" y="-62.5" font-family="Helvetica,sans-Serif" font-size="10.00">AsyncTelnet.cpp</text>
</a>
</g>
</g>
<!-- Node1&#45;&gt;Node2 -->
<g id="edge1_Node000001_Node000002" class="edge">
<title>Node1&#45;&gt;Node2</title>
<g id="a_edge1_Node000001_Node000002"><a xlink:title=" ">
<path fill="none" stroke="#63b8ff" d="M83.27,-103.85C73.64,-94.72 62.17,-83.86 54.19,-76.3"/>
<polygon fill="#63b8ff" stroke="#63b8ff" points="80.68,-106.22 90.35,-110.55 85.5,-101.13 80.68,-106.22"/>
</a>
</g>
</g>
<!-- Node3 -->
<g id="Node000003" class="node">
<title>Node3</title>
<g id="a_Node000003"><a xlink:href="_async_telnet_serial_8h.html" target="_top" xlink:title=" ">
<polygon fill="white" stroke="#666666" points="209.88,-76 106.88,-76 106.88,-56 209.88,-56 209.88,-76"/>
<text xml:space="preserve" text-anchor="middle" x="158.38" y="-62.5" font-family="Helvetica,sans-Serif" font-size="10.00">AsyncTelnetSerial.h</text>
</a>
</g>
</g>
<!-- Node1&#45;&gt;Node3 -->
<g id="edge2_Node000001_Node000003" class="edge">
<title>Node1&#45;&gt;Node3</title>
<g id="a_edge2_Node000001_Node000003"><a xlink:title=" ">
<path fill="none" stroke="#63b8ff" d="M119.48,-103.85C129.11,-94.72 140.58,-83.86 148.56,-76.3"/>
<polygon fill="#63b8ff" stroke="#63b8ff" points="117.25,-101.13 112.4,-110.55 122.07,-106.22 117.25,-101.13"/>
</a>
</g>
</g>
<!-- Node4 -->
<g id="Node000004" class="node">
<title>Node4</title>
<g id="a_Node000004"><a xlink:href="_async_telnet_serial_8cpp.html" target="_top" xlink:title=" ">
<polygon fill="white" stroke="#666666" points="215.12,-20 101.62,-20 101.62,0 215.12,0 215.12,-20"/>
<text xml:space="preserve" text-anchor="middle" x="158.38" y="-6.5" font-family="Helvetica,sans-Serif" font-size="10.00">AsyncTelnetSerial.cpp</text>
</a>
</g>
</g>
<!-- Node3&#45;&gt;Node4 -->
<g id="edge3_Node000003_Node000004" class="edge">
<title>Node3&#45;&gt;Node4</title>
<g id="a_edge3_Node000003_Node000004"><a xlink:title=" ">
<path fill="none" stroke="#63b8ff" d="M158.38,-44.13C158.38,-35.9 158.38,-26.85 158.38,-20.3"/>
<polygon fill="#63b8ff" stroke="#63b8ff" points="154.88,-44.08 158.38,-54.08 161.88,-44.08 154.88,-44.08"/>
</a>
</g>
</g>
</g>
</svg>
