<?xml version="1.0" encoding="UTF-8" standalone="no"?>
<!DOCTYPE svg PUBLIC "-//W3C//DTD SVG 1.1//EN"
 "http://www.w3.org/Graphics/SVG/1.1/DTD/svg11.dtd">
<!-- Generated by graphviz version 14.1.2 (20260124.0452)
 -->
<!-- Title: AsyncTCP.h Pages: 1 -->
<svg width="721pt" height="84pt"
 viewBox="0.00 0.00 721.00 84.00" xmlns="http://www.w3.org/2000/svg" xmlns:xlink="http://www.w3.org/1999/xlink">
<g id="graph0" class="graph" transform="scale(1 1) rotate(0) translate(4 80)">
<title>AsyncTCP.h</title>
<!-- Node1 -->
<g id="Node000001" class="node">
<title>Node1</title>
<g id="a_Node000001"><a xlink:title=" ">
<polygon fill="#999999" stroke="#666666" points="401,-76 330.25,-76 330.25,-56 401,-56 401,-76"/>
<text xml:space="preserve" text-anchor="middle" x="365.62" y="-62.5" font-family="Helvetica,sans-Serif" font-size="10.00">AsyncTCP.h</text>
</a>
</g>
</g>
<!-- Node2 -->
<g id="Node000002" class="node">
<title>Node2</title>
<g id="a_Node000002"><a xlink:title=" ">
<polygon fill="#e0e0e0" stroke="#999999" points="69.25,-20 0,-20 0,0 69.25,0 69.25,-20"/>
<text xml:space="preserve" text-anchor="middle" x="34.62" y="-6.5" font-family="Helvetica,sans-Serif" font-size="10.00">IPAddress.h</text>
</a>
</g>
</g>
<!-- Node1&#45;&gt;Node2 -->
<g id="edge1_Node000001_Node000002" class="edge">
<title>Node1&#45;&gt;Node2</title>
<g id="a_edge1_Node000001_Node000002"><a xlink:title=" ">
<path fill="none" stroke="#63b8ff" d="M330.19,-59.98C277.92,-52.46 176.82,-37.48 80.74,-20.31"/>
<polygon fill="#63b8ff" stroke="#63b8ff" points="81.61,-16.91 71.15,-18.59 80.37,-23.8 81.61,-16.91"/>
</a>
</g>
</g>
<!-- Node3 -->
<g id="Node000003" class="node">
<title>Node3</title>
<g id="a_Node000003"><a xlink:title=" ">
<polygon fill="#e0e0e0" stroke="#999999" points="167.88,-20 87.38,-20 87.38,0 167.88,0 167.88,-20"/>
<text xml:space="preserve" text-anchor="middle" x="127.62" y="-6.5" font-family="Helvetica,sans-Serif" font-size="10.00">IPv6Address.h</text>
</a>
</g>
</g>
<!-- Node1&#45;&gt;Node3 -->
<g id="edge2_Node000001_Node000003" class="edge">
<title>Node1&#45;&gt;Node3</title>
<g id="a_edge2_Node000001_Node000003"><a xlink:title=" ">
<path fill="none" stroke="#63b8ff" d="M329.99,-56.92C290.07,-47.86 224.97,-33.09 179.42,-22.75"/>
<polygon fill="#63b8ff" stroke="#63b8ff" points="180.29,-19.36 169.77,-20.56 178.75,-26.19 180.29,-19.36"/>
</a>
</g>
</g>
<!-- Node4 -->
<g id="Node000004" class="node">
<title>Node4</title>
<g id="a_Node000004"><a xlink:title=" ">
<polygon fill="#e0e0e0" stroke="#999999" points="267.25,-20 186,-20 186,0 267.25,0 267.25,-20"/>
<text xml:space="preserve" text-anchor="middle" x="226.62" y="-6.5" font-family="Helvetica,sans-Serif" font-size="10.00">lwip/ip6_addr.h</text>
</a>
</g>
</g>
<!-- Node1&#45;&gt;Node4 -->
<g id="edge3_Node000001_Node000004" class="edge">
<title>Node1&#45;&gt;Node4</title>
<g id="a_edge3_Node000001_Node000004"><a xlink:title=" ">
<path fill="none" stroke="#63b8ff" d="M341.41,-55.59C319.32,-47.01 286.43,-34.23 261.5,-24.55"/>
<polygon fill="#63b8ff" stroke="#63b8ff" points="263.03,-21.39 252.44,-21.03 260.49,-27.91 263.03,-21.39"/>
</a>
</g>
</g>
<!-- Node5 -->
<g id="Node000005" class="node">
<title>Node5</title>
<g id="a_Node000005"><a xlink:title=" ">
<polygon fill="#e0e0e0" stroke="#999999" points="361.62,-20 285.62,-20 285.62,0 361.62,0 361.62,-20"/>
<text xml:space="preserve" text-anchor="middle" x="323.62" y="-6.5" font-family="Helvetica,sans-Serif" font-size="10.00">lwip/ip_addr.h</text>
</a>
</g>
</g>
<!-- Node1&#45;&gt;Node5 -->
<g id="edge4_Node000001_Node000005" class="edge">
<title>Node1&#45;&gt;Node5</title>
<g id="a_edge4_Node000001_Node000005"><a xlink:title=" ">
<path fill="none" stroke="#63b8ff" d="M358.31,-55.59C352.65,-48.32 344.64,-38.02 337.74,-29.15"/>
<polygon fill="#63b8ff" stroke="#63b8ff" points="340.69,-27.24 331.79,-21.49 335.16,-31.54 340.69,-27.24"/>
</a>
</g>
</g>
<!-- Node6 -->
<g id="Node000006" class="node">
<title>Node6</title>
<g id="a_Node000006"><a xlink:title=" ">
<polygon fill="#e0e0e0" stroke="#999999" points="437.62,-20 379.62,-20 379.62,0 437.62,0 437.62,-20"/>
<text xml:space="preserve" text-anchor="middle" x="408.62" y="-6.5" font-family="Helvetica,sans-Serif" font-size="10.00">functional</text>
</a>
</g>
</g>
<!-- Node1&#45;&gt;Node6 -->
<g id="edge5_Node000001_Node000006" class="edge">
<title>Node1&#45;&gt;Node6</title>
<g id="a_edge5_Node000001_Node000006"><a xlink:title=" ">
<path fill="none" stroke="#63b8ff" d="M373.12,-55.59C378.91,-48.32 387.11,-38.02 394.17,-29.15"/>
<polygon fill="#63b8ff" stroke="#63b8ff" points="396.79,-31.49 400.28,-21.48 391.31,-27.12 396.79,-31.49"/>
</a>
</g>
</g>
<!-- Node7 -->
<g id="Node000007" class="node">
<title>Node7</title>
<g id="a_Node000007"><a xlink:title=" ">
<polygon fill="#e0e0e0" stroke="#999999" points="521.75,-20 455.5,-20 455.5,0 521.75,0 521.75,-20"/>
<text xml:space="preserve" text-anchor="middle" x="488.62" y="-6.5" font-family="Helvetica,sans-Serif" font-size="10.00">sdkconfig.h</text>
</a>
</g>
</g>
<!-- Node1&#45;&gt;Node7 -->
<g id="edge6_Node000001_Node000007" class="edge">
<title>Node1&#45;&gt;Node7</title>
<g id="a_edge6_Node000001_Node000007"><a xlink:title=" ">
<path fill="none" stroke="#63b8ff" d="M387.05,-55.59C406.25,-47.17 434.67,-34.69 456.57,-25.07"/>
<polygon fill="#63b8ff" stroke="#63b8ff" points="457.9,-28.31 465.65,-21.09 455.08,-21.9 457.9,-28.31"/>
</a>
</g>
</g>
<!-- Node8 -->
<g id="Node000008" class="node">
<title>Node8</title>
<g id="a_Node000008"><a xlink:title=" ">
<polygon fill="#e0e0e0" stroke="#999999" points="631.88,-20 539.38,-20 539.38,0 631.88,0 631.88,-20"/>
<text xml:space="preserve" text-anchor="middle" x="585.62" y="-6.5" font-family="Helvetica,sans-Serif" font-size="10.00">freertos/semphr.h</text>
</a>
</g>
</g>
<!-- Node1&#45;&gt;Node8 -->
<g id="edge7_Node000001_Node000008" class="edge">
<title>Node1&#45;&gt;Node8</title>
<g id="a_edge7_Node000001_Node000008"><a xlink:title=" ">
<path fill="none" stroke="#63b8ff" d="M401.46,-56.2C438.08,-47.22 495.21,-33.19 536.13,-23.15"/>
<polygon fill="#63b8ff" stroke="#63b8ff" points="536.87,-26.57 545.74,-20.79 535.2,-19.77 536.87,-26.57"/>
</a>
</g>
</g>
<!-- Node9 -->
<g id="Node000009" class="node">
<title>Node9</title>
<g id="a_Node000009"><a xlink:title=" ">
<polygon fill="#e0e0e0" stroke="#999999" points="713.25,-20 650,-20 650,0 713.25,0 713.25,-20"/>
<text xml:space="preserve" text-anchor="middle" x="681.62" y="-6.5" font-family="Helvetica,sans-Serif" font-size="10.00">lwip/pbuf.h</text>
</a>
</g>
</g>
<!-- Node1&#45;&gt;Node9 -->
<g id="edge8_Node000001_Node000009" class="edge">
<title>Node1&#45;&gt;Node9</title>
<g id="a_edge8_Node000001_Node000009"><a xlink:title=" ">
<path fill="none" stroke="#63b8ff" d="M401.33,-59.79C451.83,-52.27 547.26,-37.58 638.74,-20.27"/>
<polygon fill="#63b8ff" stroke="#63b8ff" points="639.22,-23.74 648.39,-18.43 637.91,-16.87 639.22,-23.74"/>
</a>
</g>
</g>
</g>
</svg>
