<?xml version="1.0" encoding="UTF-8" standalone="no"?>
<!DOCTYPE svg PUBLIC "-//W3C//DTD SVG 1.1//EN"
 "http://www.w3.org/Graphics/SVG/1.1/DTD/svg11.dtd">
<!-- Generated by graphviz version 14.1.2 (20260124.0452)
 -->
<!-- Title: _tcp_recved Pages: 1 -->
<svg width="527pt" height="180pt"
 viewBox="0.00 0.00 527.00 180.00" xmlns="http://www.w3.org/2000/svg" xmlns:xlink="http://www.w3.org/1999/xlink">
<g id="graph0" class="graph" transform="scale(1 1) rotate(0) translate(4 176)">
<title>_tcp_recved</title>
<!-- Node1 -->
<g id="Node000001" class="node">
<title>Node1</title>
<g id="a_Node000001"><a xlink:title=" ">
<polygon fill="#999999" stroke="#666666" points="519.25,-115 450,-115 450,-95 519.25,-95 519.25,-115"/>
<text xml:space="preserve" text-anchor="middle" x="484.62" y="-101.5" font-family="Helvetica,sans-Serif" font-size="10.00">_tcp_recved</text>
</a>
</g>
</g>
<!-- Node2 -->
<g id="Node000002" class="node">
<title>Node2</title>
<g id="a_Node000002"><a xlink:href="class_async_client.html#af9a0368be4f98f49f252b1989b84b5a3" target="_top" xlink:title=" ">
<polygon fill="white" stroke="#666666" points="402.75,-172 303.5,-172 303.5,-152 402.75,-152 402.75,-172"/>
<text xml:space="preserve" text-anchor="middle" x="353.12" y="-158.5" font-family="Helvetica,sans-Serif" font-size="10.00">AsyncClient::_recv</text>
</a>
</g>
</g>
<!-- Node1&#45;&gt;Node2 -->
<g id="edge1_Node000001_Node000002" class="edge">
<title>Node1&#45;&gt;Node2</title>
<g id="a_edge1_Node000001_Node000002"><a xlink:title=" ">
<path fill="none" stroke="#63b8ff" d="M456.73,-121.26C444.05,-128.51 428.55,-136.79 414,-143 406.68,-146.13 398.66,-149.01 390.95,-151.55"/>
<polygon fill="#63b8ff" stroke="#63b8ff" points="458.45,-124.3 465.33,-116.24 454.92,-118.26 458.45,-124.3"/>
</a>
</g>
</g>
<!-- Node13 -->
<g id="Node000013" class="node">
<title>Node13</title>
<g id="a_Node000013"><a xlink:href="class_async_client.html#ac2c939c5af9cb1fb2c693ddb98725ecf" target="_top" xlink:title=" ">
<polygon fill="white" stroke="#666666" points="398.62,-134 307.62,-134 307.62,-114 398.62,-114 398.62,-134"/>
<text xml:space="preserve" text-anchor="middle" x="353.12" y="-120.5" font-family="Helvetica,sans-Serif" font-size="10.00">AsyncClient::ack</text>
</a>
</g>
</g>
<!-- Node1&#45;&gt;Node13 -->
<g id="edge4_Node000001_Node000013" class="edge">
<title>Node1&#45;&gt;Node13</title>
<g id="a_edge4_Node000001_Node000013"><a xlink:title=" ">
<path fill="none" stroke="#63b8ff" d="M438.59,-111.61C425.65,-113.51 411.55,-115.57 398.65,-117.47"/>
<polygon fill="#63b8ff" stroke="#63b8ff" points="438.72,-115.13 448.1,-110.21 437.7,-108.2 438.72,-115.13"/>
</a>
</g>
</g>
<!-- Node14 -->
<g id="Node000014" class="node">
<title>Node14</title>
<g id="a_Node000014"><a xlink:href="class_async_client.html#aba43fb75a7a60b08f3d3f943e0d1c332" target="_top" xlink:title=" ">
<polygon fill="white" stroke="#666666" points="414,-96 292.25,-96 292.25,-76 414,-76 414,-96"/>
<text xml:space="preserve" text-anchor="middle" x="353.12" y="-82.5" font-family="Helvetica,sans-Serif" font-size="10.00">AsyncClient::ackPacket</text>
</a>
</g>
</g>
<!-- Node1&#45;&gt;Node14 -->
<g id="edge5_Node000001_Node000014" class="edge">
<title>Node1&#45;&gt;Node14</title>
<g id="a_edge5_Node000001_Node000014"><a xlink:title=" ">
<path fill="none" stroke="#63b8ff" d="M438.29,-98.35C430.59,-97.22 422.48,-96.03 414.47,-94.85"/>
<polygon fill="#63b8ff" stroke="#63b8ff" points="437.7,-101.8 448.1,-99.79 438.72,-94.87 437.7,-101.8"/>
</a>
</g>
</g>
<!-- Node15 -->
<g id="Node000015" class="node">
<title>Node15</title>
<g id="a_Node000015"><a xlink:href="class_async_client.html#a0305fe0b036257c03829ceaa5cc43361" target="_top" xlink:title="close connection">
<polygon fill="white" stroke="#666666" points="402.38,-58 303.88,-58 303.88,-38 402.38,-38 402.38,-58"/>
<text xml:space="preserve" text-anchor="middle" x="353.12" y="-44.5" font-family="Helvetica,sans-Serif" font-size="10.00">AsyncClient::close</text>
</a>
</g>
</g>
<!-- Node1&#45;&gt;Node15 -->
<g id="edge6_Node000001_Node000015" class="edge">
<title>Node1&#45;&gt;Node15</title>
<g id="a_edge6_Node000001_Node000015"><a xlink:title=" ">
<path fill="none" stroke="#63b8ff" d="M456.73,-88.74C444.05,-81.49 428.55,-73.21 414,-67 406.68,-63.87 398.66,-60.99 390.95,-58.45"/>
<polygon fill="#63b8ff" stroke="#63b8ff" points="454.92,-91.74 465.33,-93.76 458.45,-85.7 454.92,-91.74"/>
</a>
</g>
</g>
<!-- Node3 -->
<g id="Node000003" class="node">
<title>Node3</title>
<g id="a_Node000003"><a xlink:href="class_async_client.html#af8136d3085c8948078a131bfb9430ec6" target="_top" xlink:title=" ">
<polygon fill="white" stroke="#666666" points="256.25,-172 146.5,-172 146.5,-152 256.25,-152 256.25,-172"/>
<text xml:space="preserve" text-anchor="middle" x="201.38" y="-158.5" font-family="Helvetica,sans-Serif" font-size="10.00">AsyncClient::_s_recv</text>
</a>
</g>
</g>
<!-- Node2&#45;&gt;Node3 -->
<g id="edge2_Node000002_Node000003" class="edge">
<title>Node2&#45;&gt;Node3</title>
<g id="a_edge2_Node000002_Node000003"><a xlink:title=" ">
<path fill="none" stroke="#63b8ff" d="M291.71,-162C280.13,-162 268.07,-162 256.7,-162"/>
<polygon fill="#63b8ff" stroke="#63b8ff" points="291.58,-165.5 301.58,-162 291.58,-158.5 291.58,-165.5"/>
</a>
</g>
</g>
<!-- Node4 -->
<g id="Node000004" class="node">
<title>Node4</title>
<g id="a_Node000004"><a xlink:href="_async_t_c_p_8cpp.html#ac4030e968c0e4c0fcbe7a9b4502854c1" target="_top" xlink:title=" ">
<polygon fill="#fff0f0" stroke="red" points="110.5,-172 0,-172 0,-152 110.5,-152 110.5,-172"/>
<text xml:space="preserve" text-anchor="middle" x="55.25" y="-158.5" font-family="Helvetica,sans-Serif" font-size="10.00">_handle_async_event</text>
</a>
</g>
</g>
<!-- Node3&#45;&gt;Node4 -->
<g id="edge3_Node000003_Node000004" class="edge">
<title>Node3&#45;&gt;Node4</title>
<g id="a_edge3_Node000003_Node000004"><a xlink:title=" ">
<path fill="none" stroke="#63b8ff" d="M134.93,-162C126.8,-162 118.56,-162 110.63,-162"/>
<polygon fill="#63b8ff" stroke="#63b8ff" points="134.78,-165.5 144.78,-162 134.78,-158.5 134.78,-165.5"/>
</a>
</g>
</g>
<!-- Node16 -->
<g id="Node000016" class="node">
<title>Node16</title>
<g id="a_Node000016"><a xlink:href="class_async_telnet.html#a77dcd8e31b8bfb8b3082de385c5e7792" target="_top" xlink:title=" ">
<polygon fill="white" stroke="#666666" points="251,-96 151.75,-96 151.75,-76 251,-76 251,-96"/>
<text xml:space="preserve" text-anchor="middle" x="201.38" y="-82.5" font-family="Helvetica,sans-Serif" font-size="10.00">AsyncTelnet::begin</text>
</a>
</g>
</g>
<!-- Node15&#45;&gt;Node16 -->
<g id="edge7_Node000015_Node000016" class="edge">
<title>Node15&#45;&gt;Node16</title>
<g id="a_edge7_Node000015_Node000016"><a xlink:title=" ">
<path fill="none" stroke="#63b8ff" d="M299.66,-61.31C281.27,-65.98 260.89,-71.15 243.56,-75.55"/>
<polygon fill="#63b8ff" stroke="#63b8ff" points="300.51,-64.71 309.34,-58.86 298.79,-57.92 300.51,-64.71"/>
</a>
</g>
</g>
<!-- Node17 -->
<g id="Node000017" class="node">
<title>Node17</title>
<g id="a_Node000017"><a xlink:href="class_async_telnet_serial.html#a6cf9d6cc49602ff5ac0ec2af846a0d7a" target="_top" xlink:title=" ">
<polygon fill="white" stroke="#666666" points="105.62,-83 4.88,-83 4.88,-51 105.62,-51 105.62,-83"/>
<text xml:space="preserve" text-anchor="start" x="12.88" y="-69.5" font-family="Helvetica,sans-Serif" font-size="10.00">AsyncTelnetSerial::</text>
<text xml:space="preserve" text-anchor="middle" x="55.25" y="-57.5" font-family="Helvetica,sans-Serif" font-size="10.00">begin</text>
</a>
</g>
</g>
<!-- Node15&#45;&gt;Node17 -->
<g id="edge9_Node000015_Node000017" class="edge">
<title>Node15&#45;&gt;Node17</title>
<g id="a_edge9_Node000015_Node000017"><a xlink:title=" ">
<path fill="none" stroke="#63b8ff" d="M292.3,-51.84C237.44,-55.36 157.14,-60.52 105.79,-63.82"/>
<polygon fill="#63b8ff" stroke="#63b8ff" points="292.33,-55.35 302.09,-51.21 291.88,-48.36 292.33,-55.35"/>
</a>
</g>
</g>
<!-- Node18 -->
<g id="Node000018" class="node">
<title>Node18</title>
<g id="a_Node000018"><a xlink:href="class_async_client.html#a4bed4e925817d1b918af2ce43fb0859e" target="_top" xlink:title=" ">
<polygon fill="white" stroke="#666666" points="248.38,-20 154.38,-20 154.38,0 248.38,0 248.38,-20"/>
<text xml:space="preserve" text-anchor="middle" x="201.38" y="-6.5" font-family="Helvetica,sans-Serif" font-size="10.00">AsyncClient::stop</text>
</a>
</g>
</g>
<!-- Node15&#45;&gt;Node18 -->
<g id="edge10_Node000015_Node000018" class="edge">
<title>Node15&#45;&gt;Node18</title>
<g id="a_edge10_Node000015_Node000018"><a xlink:title=" ">
<path fill="none" stroke="#63b8ff" d="M299.66,-34.69C281.27,-30.02 260.89,-24.85 243.56,-20.45"/>
<polygon fill="#63b8ff" stroke="#63b8ff" points="298.79,-38.08 309.34,-37.14 300.51,-31.29 298.79,-38.08"/>
</a>
</g>
</g>
<!-- Node16&#45;&gt;Node17 -->
<g id="edge8_Node000016_Node000017" class="edge">
<title>Node16&#45;&gt;Node17</title>
<g id="a_edge8_Node000016_Node000017"><a xlink:title=" ">
<path fill="none" stroke="#63b8ff" d="M140.33,-78.08C128.89,-76.58 117.05,-75.01 105.98,-73.56"/>
<polygon fill="#63b8ff" stroke="#63b8ff" points="139.71,-81.53 150.08,-79.37 140.62,-74.59 139.71,-81.53"/>
</a>
</g>
</g>
</g>
</svg>
