<?xml version="1.0" encoding="UTF-8" standalone="no"?>
<!DOCTYPE svg PUBLIC "-//W3C//DTD SVG 1.1//EN"
 "http://www.w3.org/Graphics/SVG/1.1/DTD/svg11.dtd">
<!-- Generated by graphviz version 14.1.2 (20260124.0452)
 -->
<!-- Title: _tcp_recv Pages: 1 -->
<svg width="509pt" height="72pt"
 viewBox="0.00 0.00 509.00 72.00" xmlns="http://www.w3.org/2000/svg" xmlns:xlink="http://www.w3.org/1999/xlink">
<g id="graph0" class="graph" transform="scale(1 1) rotate(0) translate(4 68)">
<title>_tcp_recv</title>
<!-- Node1 -->
<g id="Node000001" class="node">
<title>Node1</title>
<g id="a_Node000001"><a xlink:title=" ">
<polygon fill="#999999" stroke="#666666" points="58.75,-39 0,-39 0,-19 58.75,-19 58.75,-39"/>
<text xml:space="preserve" text-anchor="middle" x="29.38" y="-25.5" font-family="Helvetica,sans-Serif" font-size="10.00">_tcp_recv</text>
</a>
</g>
</g>
<!-- Node2 -->
<g id="Node000002" class="node">
<title>Node2</title>
<g id="a_Node000002"><a xlink:href="class_async_client.html#a485b2be0c01d3172928c0ed9655edc2f" target="_top" xlink:title=" ">
<polygon fill="white" stroke="#666666" points="218.75,-58 94.75,-58 94.75,-38 218.75,-38 218.75,-58"/>
<text xml:space="preserve" text-anchor="middle" x="156.75" y="-44.5" font-family="Helvetica,sans-Serif" font-size="10.00">AsyncClient::_s_lwip_fin</text>
</a>
</g>
</g>
<!-- Node1&#45;&gt;Node2 -->
<g id="edge1_Node000001_Node000002" class="edge">
<title>Node1&#45;&gt;Node2</title>
<g id="a_edge1_Node000001_Node000002"><a xlink:title=" ">
<path fill="none" stroke="#63b8ff" d="M59.14,-33.36C66.48,-34.47 74.7,-35.72 83.18,-37"/>
<polygon fill="#63b8ff" stroke="#63b8ff" points="82.5,-40.44 92.91,-38.48 83.55,-33.52 82.5,-40.44"/>
</a>
</g>
</g>
<!-- Node5 -->
<g id="Node000005" class="node">
<title>Node5</title>
<g id="a_Node000005"><a xlink:href="_async_t_c_p_8cpp.html#a796c13746a84a6b2e7370ddbec97ad5b" target="_top" xlink:title=" ">
<polygon fill="white" stroke="#666666" points="208.25,-20 105.25,-20 105.25,0 208.25,0 208.25,-20"/>
<text xml:space="preserve" text-anchor="middle" x="156.75" y="-6.5" font-family="Helvetica,sans-Serif" font-size="10.00">_send_async_event</text>
</a>
</g>
</g>
<!-- Node1&#45;&gt;Node5 -->
<g id="edge4_Node000001_Node000005" class="edge">
<title>Node1&#45;&gt;Node5</title>
<g id="a_edge4_Node000001_Node000005"><a xlink:title=" ">
<path fill="none" stroke="#63b8ff" d="M59.14,-24.64C69.54,-23.06 81.74,-21.22 93.88,-19.38"/>
<polygon fill="#63b8ff" stroke="#63b8ff" points="94.12,-22.88 103.48,-17.92 93.07,-15.96 94.12,-22.88"/>
</a>
</g>
</g>
<!-- Node3 -->
<g id="Node000003" class="node">
<title>Node3</title>
<g id="a_Node000003"><a xlink:href="class_async_client.html#a32dfd5b9ec97903e2f59871f17b85ff4" target="_top" xlink:title=" ">
<polygon fill="white" stroke="#666666" points="368.25,-58 254.75,-58 254.75,-38 368.25,-38 368.25,-58"/>
<text xml:space="preserve" text-anchor="middle" x="311.5" y="-44.5" font-family="Helvetica,sans-Serif" font-size="10.00">AsyncClient::_lwip_fin</text>
</a>
</g>
</g>
<!-- Node2&#45;&gt;Node3 -->
<g id="edge2_Node000002_Node000003" class="edge">
<title>Node2&#45;&gt;Node3</title>
<g id="a_edge2_Node000002_Node000003"><a xlink:title=" ">
<path fill="none" stroke="#63b8ff" d="M219,-48C227.01,-48 235.25,-48 243.35,-48"/>
<polygon fill="#63b8ff" stroke="#63b8ff" points="243.16,-51.5 253.16,-48 243.16,-44.5 243.16,-51.5"/>
</a>
</g>
</g>
<!-- Node4 -->
<g id="Node000004" class="node">
<title>Node4</title>
<g id="a_Node000004"><a xlink:href="class_async_client.html#aff6a2fbf261b25e1fcd35c11cce348a5" target="_top" xlink:title=" ">
<polygon fill="white" stroke="#666666" points="501.25,-64 404.25,-64 404.25,-32 501.25,-32 501.25,-64"/>
<text xml:space="preserve" text-anchor="start" x="412.25" y="-50.5" font-family="Helvetica,sans-Serif" font-size="10.00">AsyncClient::_free</text>
<text xml:space="preserve" text-anchor="middle" x="452.75" y="-38.5" font-family="Helvetica,sans-Serif" font-size="10.00">_closed_slot</text>
</a>
</g>
</g>
<!-- Node3&#45;&gt;Node4 -->
<g id="edge3_Node000003_Node000004" class="edge">
<title>Node3&#45;&gt;Node4</title>
<g id="a_edge3_Node000003_Node000004"><a xlink:title=" ">
<path fill="none" stroke="#63b8ff" d="M368.74,-48C376.55,-48 384.59,-48 392.45,-48"/>
<polygon fill="#63b8ff" stroke="#63b8ff" points="392.29,-51.5 402.29,-48 392.29,-44.5 392.29,-51.5"/>
</a>
</g>
</g>
</g>
</svg>
