<?xml version="1.0" encoding="UTF-8" standalone="no"?>
<!DOCTYPE svg PUBLIC "-//W3C//DTD SVG 1.1//EN"
 "http://www.w3.org/Graphics/SVG/1.1/DTD/svg11.dtd">
<!-- Generated by graphviz version 14.1.2 (20260124.0452)
 -->
<!-- Title: _tcp_write_api Pages: 1 -->
<svg width="444pt" height="66pt"
 viewBox="0.00 0.00 444.00 66.00" xmlns="http://www.w3.org/2000/svg" xmlns:xlink="http://www.w3.org/1999/xlink">
<g id="graph0" class="graph" transform="scale(1 1) rotate(0) translate(4 62)">
<title>_tcp_write_api</title>
<!-- Node1 -->
<g id="Node000001" class="node">
<title>Node1</title>
<g id="a_Node000001"><a xlink:title=" ">
<polygon fill="#999999" stroke="#666666" points="436,-39 357,-39 357,-19 436,-19 436,-39"/>
<text xml:space="preserve" text-anchor="middle" x="396.5" y="-25.5" font-family="Helvetica,sans-Serif" font-size="10.00">_tcp_write_api</text>
</a>
</g>
</g>
<!-- Node2 -->
<g id="Node000002" class="node">
<title>Node2</title>
<g id="a_Node000002"><a xlink:href="_async_t_c_p_8cpp.html#a139d659560ae3b41b186955258551e53" target="_top" xlink:title=" ">
<polygon fill="white" stroke="#666666" points="321,-39 260,-39 260,-19 321,-19 321,-39"/>
<text xml:space="preserve" text-anchor="middle" x="290.5" y="-25.5" font-family="Helvetica,sans-Serif" font-size="10.00">_tcp_write</text>
</a>
</g>
</g>
<!-- Node1&#45;&gt;Node2 -->
<g id="edge1_Node000001_Node000002" class="edge">
<title>Node1&#45;&gt;Node2</title>
<g id="a_edge1_Node000001_Node000002"><a xlink:title=" ">
<path fill="none" stroke="#63b8ff" d="M345.35,-29C337.19,-29 328.96,-29 321.48,-29"/>
<polygon fill="#63b8ff" stroke="#63b8ff" points="345.26,-32.5 355.26,-29 345.26,-25.5 345.26,-32.5"/>
</a>
</g>
</g>
<!-- Node3 -->
<g id="Node000003" class="node">
<title>Node3</title>
<g id="a_Node000003"><a xlink:href="class_async_client.html#af4b403851a81a5bf272a0e4a46796044" target="_top" xlink:title="add data to be send (but do not send yet)">
<polygon fill="white" stroke="#666666" points="224,-39 133,-39 133,-19 224,-19 224,-39"/>
<text xml:space="preserve" text-anchor="middle" x="178.5" y="-25.5" font-family="Helvetica,sans-Serif" font-size="10.00">AsyncClient::add</text>
</a>
</g>
</g>
<!-- Node2&#45;&gt;Node3 -->
<g id="edge2_Node000002_Node000003" class="edge">
<title>Node2&#45;&gt;Node3</title>
<g id="a_edge2_Node000002_Node000003"><a xlink:title=" ">
<path fill="none" stroke="#63b8ff" d="M248.49,-29C240.56,-29 232.22,-29 224.17,-29"/>
<polygon fill="#63b8ff" stroke="#63b8ff" points="248.22,-32.5 258.22,-29 248.22,-25.5 248.22,-32.5"/>
</a>
</g>
</g>
<!-- Node4 -->
<g id="Node000004" class="node">
<title>Node4</title>
<g id="a_Node000004"><a xlink:href="class_async_client.html#a287fe3b09d815afc3351674a11843ce9" target="_top" xlink:title="add and enqueue data for sending">
<polygon fill="#fff0f0" stroke="red" points="96.62,-58 0.38,-58 0.38,-38 96.62,-38 96.62,-58"/>
<text xml:space="preserve" text-anchor="middle" x="48.5" y="-44.5" font-family="Helvetica,sans-Serif" font-size="10.00">AsyncClient::write</text>
</a>
</g>
</g>
<!-- Node3&#45;&gt;Node4 -->
<g id="edge3_Node000003_Node000004" class="edge">
<title>Node3&#45;&gt;Node4</title>
<g id="a_edge3_Node000003_Node000004"><a xlink:title=" ">
<path fill="none" stroke="#63b8ff" d="M121.42,-37.32C113.3,-38.53 105,-39.76 97.07,-40.94"/>
<polygon fill="#63b8ff" stroke="#63b8ff" points="121.86,-40.8 131.23,-35.87 120.83,-33.87 121.86,-40.8"/>
</a>
</g>
</g>
<!-- Node7 -->
<g id="Node000007" class="node">
<title>Node7</title>
<g id="a_Node000007"><a xlink:href="class_async_telnet.html#a21f1c9c4bb3b162eff4786c77aea5ef1" target="_top" xlink:title=" ">
<polygon fill="white" stroke="#666666" points="97,-20 0,-20 0,0 97,0 97,-20"/>
<text xml:space="preserve" text-anchor="middle" x="48.5" y="-6.5" font-family="Helvetica,sans-Serif" font-size="10.00">AsyncTelnet::write</text>
</a>
</g>
</g>
<!-- Node3&#45;&gt;Node7 -->
<g id="edge4_Node000003_Node000007" class="edge">
<title>Node3&#45;&gt;Node7</title>
<g id="a_edge4_Node000003_Node000007"><a xlink:title=" ">
<path fill="none" stroke="#63b8ff" d="M121.42,-20.68C113.3,-19.47 105,-18.24 97.07,-17.06"/>
<polygon fill="#63b8ff" stroke="#63b8ff" points="120.83,-24.13 131.23,-22.13 121.86,-17.2 120.83,-24.13"/>
</a>
</g>
</g>
</g>
</svg>
