<?xml version="1.0" encoding="UTF-8" standalone="no"?>
<!DOCTYPE svg PUBLIC "-//W3C//DTD SVG 1.1//EN"
 "http://www.w3.org/Graphics/SVG/1.1/DTD/svg11.dtd">
<!-- Generated by graphviz version 14.1.2 (20260124.0452)
 -->
<!-- Title: AsyncTelnetSerial.cpp Pages: 1 -->
<svg width="196pt" height="140pt"
 viewBox="0.00 0.00 196.00 140.00" xmlns="http://www.w3.org/2000/svg" xmlns:xlink="http://www.w3.org/1999/xlink">

<svg id="main" version="1.1" xmlns="http://www.w3.org/2000/svg" xmlns:xlink="http://www.w3.org/1999/xlink" xml:space="preserve">

<style type="text/css"><![CDATA[
.node, .edge {opacity: 0.7;}
.node.selected, .edge.selected {opacity: 1;}
.edge:hover path { stroke: red; }
.edge:hover polygon { stroke: red; fill: red; }
]]></style>
<script type="application/ecmascript" xlink:href="svg.min.js"/>
<svg id="graph" class="graph">
<g id="graph0" class="graph" transform="scale(1 1) rotate(0) translate(4 136)">
<title>AsyncTelnetSerial.cpp</title>
<!-- Node1 -->
<g id="Node000001" class="node">
<title>Node1</title>
<g id="a_Node000001"><a xlink:title=" ">
<polygon fill="#999999" stroke="#666666" points="153.25,-132 39.75,-132 39.75,-112 153.25,-112 153.25,-132"/>
<text xml:space="preserve" text-anchor="middle" x="96.5" y="-118.5" font-family="Helvetica,sans-Serif" font-size="10.00">AsyncTelnetSerial.cpp</text>
</a>
</g>
</g>
<!-- Node2 -->
<g id="Node000002" class="node">
<title>Node2</title>
<g id="a_Node000002"><a xlink:href="_async_telnet_serial_8h.html" target="_top" xlink:title=" ">
<polygon fill="white" stroke="#666666" points="148,-76 45,-76 45,-56 148,-56 148,-76"/>
<text xml:space="preserve" text-anchor="middle" x="96.5" y="-62.5" font-family="Helvetica,sans-Serif" font-size="10.00">AsyncTelnetSerial.h</text>
</a>
</g>
</g>
<!-- Node1&#45;&gt;Node2 -->
<g id="edge1_Node000001_Node000002" class="edge">
<title>Node1&#45;&gt;Node2</title>
<g id="a_edge1_Node000001_Node000002"><a xlink:title=" ">
<path fill="none" stroke="#63b8ff" d="M96.5,-111.59C96.5,-105.01 96.5,-95.96 96.5,-87.73"/>
<polygon fill="#63b8ff" stroke="#63b8ff" points="100,-87.81 96.5,-77.81 93,-87.81 100,-87.81"/>
</a>
</g>
</g>
<!-- Node3 -->
<g id="Node000003" class="node">
<title>Node3</title>
<g id="a_Node000003"><a xlink:title=" ">
<polygon fill="#e0e0e0" stroke="#999999" points="91,-20 0,-20 0,0 91,0 91,-20"/>
<text xml:space="preserve" text-anchor="middle" x="45.5" y="-6.5" font-family="Helvetica,sans-Serif" font-size="10.00">HardwareSerial.h</text>
</a>
</g>
</g>
<!-- Node2&#45;&gt;Node3 -->
<g id="edge2_Node000002_Node000003" class="edge">
<title>Node2&#45;&gt;Node3</title>
<g id="a_edge2_Node000002_Node000003"><a xlink:title=" ">
<path fill="none" stroke="#63b8ff" d="M87.62,-55.59C80.6,-48.16 70.6,-37.58 62.11,-28.58"/>
<polygon fill="#63b8ff" stroke="#63b8ff" points="64.73,-26.27 55.32,-21.4 59.64,-31.07 64.73,-26.27"/>
</a>
</g>
</g>
<!-- Node4 -->
<g id="Node000004" class="node">
<title>Node4</title>
<g id="a_Node000004"><a xlink:href="_async_telnet_8h.html" target="_top" xlink:title=" ">
<polygon fill="white" stroke="#666666" points="187.62,-20 109.38,-20 109.38,0 187.62,0 187.62,-20"/>
<text xml:space="preserve" text-anchor="middle" x="148.5" y="-6.5" font-family="Helvetica,sans-Serif" font-size="10.00">AsyncTelnet.h</text>
</a>
</g>
</g>
<!-- Node2&#45;&gt;Node4 -->
<g id="edge3_Node000002_Node000004" class="edge">
<title>Node2&#45;&gt;Node4</title>
<g id="a_edge3_Node000002_Node000004"><a xlink:title=" ">
<path fill="none" stroke="#63b8ff" d="M105.56,-55.59C112.72,-48.16 122.91,-37.58 131.57,-28.58"/>
<polygon fill="#63b8ff" stroke="#63b8ff" points="134.08,-31.02 138.5,-21.39 129.04,-26.16 134.08,-31.02"/>
</a>
</g>
</g>
</g>
</svg>
</svg>

<style type='text/css'>
<![CDATA[
[data-mouse-over-selected='false'] { opacity: 0.7; }
[data-mouse-over-selected='true']  { opacity: 1.0; }
]]>
</style>
<script type="application/ecmascript"><![CDATA[
document.addEventListener('DOMContentLoaded', (event) => {
  highlightEdges();
  highlightAdjacentNodes();
});
]]></script>
</svg>
