<?xml version="1.0" encoding="UTF-8" standalone="no"?>
<!DOCTYPE svg PUBLIC "-//W3C//DTD SVG 1.1//EN"
 "http://www.w3.org/Graphics/SVG/1.1/DTD/svg11.dtd">
<!-- Generated by graphviz version 14.1.2 (20260124.0452)
 -->
<!-- Title: _tcp_abort Pages: 1 -->
<svg width="702pt" height="180pt"
 viewBox="0.00 0.00 702.00 180.00" xmlns="http://www.w3.org/2000/svg" xmlns:xlink="http://www.w3.org/1999/xlink">
<g id="graph0" class="graph" transform="scale(1 1) rotate(0) translate(4 176)">
<title>_tcp_abort</title>
<!-- Node1 -->
<g id="Node000001" class="node">
<title>Node1</title>
<g id="a_Node000001"><a xlink:title=" ">
<polygon fill="#999999" stroke="#666666" points="694.25,-77 632.5,-77 632.5,-57 694.25,-57 694.25,-77"/>
<text xml:space="preserve" text-anchor="middle" x="663.38" y="-63.5" font-family="Helvetica,sans-Serif" font-size="10.00">_tcp_abort</text>
</a>
</g>
</g>
<!-- Node2 -->
<g id="Node000002" class="node">
<title>Node2</title>
<g id="a_Node000002"><a xlink:href="class_async_client.html#a09e777ff005d8e0f81166e704dc14979" target="_top" xlink:title=" ">
<polygon fill="white" stroke="#666666" points="596.5,-96 499.5,-96 499.5,-76 596.5,-76 596.5,-96"/>
<text xml:space="preserve" text-anchor="middle" x="548" y="-82.5" font-family="Helvetica,sans-Serif" font-size="10.00">AsyncClient::abort</text>
</a>
</g>
</g>
<!-- Node1&#45;&gt;Node2 -->
<g id="edge1_Node000001_Node000002" class="edge">
<title>Node1&#45;&gt;Node2</title>
<g id="a_edge1_Node000001_Node000002"><a xlink:title=" ">
<path fill="none" stroke="#63b8ff" d="M621.1,-73.92C613.2,-75.24 604.87,-76.64 596.78,-77.99"/>
<polygon fill="#63b8ff" stroke="#63b8ff" points="621.51,-77.4 630.8,-72.29 620.36,-70.49 621.51,-77.4"/>
</a>
</g>
</g>
<!-- Node32 -->
<g id="Node000032" class="node">
<title>Node32</title>
<g id="a_Node000032"><a xlink:href="class_async_server.html#ab4e3997502c28dca6ca0703fea8b2122" target="_top" xlink:title=" ">
<polygon fill="white" stroke="#666666" points="595,-58 501,-58 501,-38 595,-38 595,-58"/>
<text xml:space="preserve" text-anchor="middle" x="548" y="-44.5" font-family="Helvetica,sans-Serif" font-size="10.00">AsyncServer::end</text>
</a>
</g>
</g>
<!-- Node1&#45;&gt;Node32 -->
<g id="edge9_Node000001_Node000032" class="edge">
<title>Node1&#45;&gt;Node32</title>
<g id="a_edge9_Node000001_Node000032"><a xlink:title=" ">
<path fill="none" stroke="#63b8ff" d="M620.97,-60.06C612.68,-58.67 603.92,-57.2 595.48,-55.79"/>
<polygon fill="#63b8ff" stroke="#63b8ff" points="620.36,-63.51 630.8,-61.71 621.51,-56.6 620.36,-63.51"/>
</a>
</g>
</g>
<!-- Node3 -->
<g id="Node000003" class="node">
<title>Node3</title>
<g id="a_Node000003"><a xlink:href="class_async_client.html#a98ff872bc84919f006f3bb8a249ed36d" target="_top" xlink:title=" ">
<polygon fill="white" stroke="#666666" points="445.12,-96 341.38,-96 341.38,-76 445.12,-76 445.12,-96"/>
<text xml:space="preserve" text-anchor="middle" x="393.25" y="-82.5" font-family="Helvetica,sans-Serif" font-size="10.00">AsyncClient::_close</text>
</a>
</g>
</g>
<!-- Node2&#45;&gt;Node3 -->
<g id="edge2_Node000002_Node000003" class="edge">
<title>Node2&#45;&gt;Node3</title>
<g id="a_edge2_Node000002_Node000003"><a xlink:title=" ">
<path fill="none" stroke="#63b8ff" d="M487.62,-86C473.69,-86 458.96,-86 445.43,-86"/>
<polygon fill="#63b8ff" stroke="#63b8ff" points="487.57,-89.5 497.57,-86 487.57,-82.5 487.57,-89.5"/>
</a>
</g>
</g>
<!-- Node4 -->
<g id="Node000004" class="node">
<title>Node4</title>
<g id="a_Node000004"><a xlink:href="class_async_client.html#a383d1cb7d684d328362caa5eafc92ca2" target="_top" xlink:title=" ">
<polygon fill="#fff0f0" stroke="red" points="267.5,-172 172,-172 172,-152 267.5,-152 267.5,-172"/>
<text xml:space="preserve" text-anchor="middle" x="219.75" y="-158.5" font-family="Helvetica,sans-Serif" font-size="10.00">AsyncClient::_poll</text>
</a>
</g>
</g>
<!-- Node3&#45;&gt;Node4 -->
<g id="edge3_Node000003_Node000004" class="edge">
<title>Node3&#45;&gt;Node4</title>
<g id="a_edge3_Node000003_Node000004"><a xlink:title=" ">
<path fill="none" stroke="#63b8ff" d="M365.96,-102.32C345.13,-114.73 314.98,-131.57 287,-143 279.25,-146.17 270.78,-149.02 262.57,-151.5"/>
<polygon fill="#63b8ff" stroke="#63b8ff" points="367.63,-105.4 374.37,-97.24 364,-99.41 367.63,-105.4"/>
</a>
</g>
</g>
<!-- Node15 -->
<g id="Node000015" class="node">
<title>Node15</title>
<g id="a_Node000015"><a xlink:href="class_async_client.html#aefecfa0c75c8c1b32104115e93739087" target="_top" xlink:title=" ">
<polygon fill="#fff0f0" stroke="red" points="284,-134 155.5,-134 155.5,-114 284,-114 284,-134"/>
<text xml:space="preserve" text-anchor="middle" x="219.75" y="-120.5" font-family="Helvetica,sans-Serif" font-size="10.00">AsyncClient::AsyncClient</text>
</a>
</g>
</g>
<!-- Node3&#45;&gt;Node15 -->
<g id="edge4_Node000003_Node000015" class="edge">
<title>Node3&#45;&gt;Node15</title>
<g id="a_edge4_Node000003_Node000015"><a xlink:title=" ">
<path fill="none" stroke="#63b8ff" d="M333.95,-98.92C312.43,-103.69 288.33,-109.03 267.91,-113.55"/>
<polygon fill="#63b8ff" stroke="#63b8ff" points="334.45,-102.39 343.46,-96.81 332.93,-95.56 334.45,-102.39"/>
</a>
</g>
</g>
<!-- Node21 -->
<g id="Node000021" class="node">
<title>Node21</title>
<g id="a_Node000021"><a xlink:href="class_async_client.html#a575c12664279634155259e007c6a104f" target="_top" xlink:title=" ">
<polygon fill="white" stroke="#666666" points="116.5,-115 0,-115 0,-95 116.5,-95 116.5,-115"/>
<text xml:space="preserve" text-anchor="middle" x="58.25" y="-101.5" font-family="Helvetica,sans-Serif" font-size="10.00">AsyncClient::operator=</text>
</a>
</g>
</g>
<!-- Node3&#45;&gt;Node21 -->
<g id="edge7_Node000003_Node000021" class="edge">
<title>Node3&#45;&gt;Node21</title>
<g id="a_edge7_Node000003_Node000021"><a xlink:title=" ">
<path fill="none" stroke="#63b8ff" d="M329.52,-89.58C268.35,-93.07 176.09,-98.33 116.76,-101.72"/>
<polygon fill="#63b8ff" stroke="#63b8ff" points="329.65,-93.08 339.44,-89.01 329.25,-86.09 329.65,-93.08"/>
</a>
</g>
</g>
<!-- Node27 -->
<g id="Node000027" class="node">
<title>Node27</title>
<g id="a_Node000027"><a xlink:href="class_async_client.html#a0305fe0b036257c03829ceaa5cc43361" target="_top" xlink:title="close connection">
<polygon fill="#fff0f0" stroke="red" points="269,-58 170.5,-58 170.5,-38 269,-38 269,-58"/>
<text xml:space="preserve" text-anchor="middle" x="219.75" y="-44.5" font-family="Helvetica,sans-Serif" font-size="10.00">AsyncClient::close</text>
</a>
</g>
</g>
<!-- Node3&#45;&gt;Node27 -->
<g id="edge6_Node000003_Node000027" class="edge">
<title>Node3&#45;&gt;Node27</title>
<g id="a_edge6_Node000003_Node000027"><a xlink:title=" ">
<path fill="none" stroke="#63b8ff" d="M333.95,-73.08C312.43,-68.31 288.33,-62.97 267.91,-58.45"/>
<polygon fill="#63b8ff" stroke="#63b8ff" points="332.93,-76.44 343.46,-75.19 334.45,-69.61 332.93,-76.44"/>
</a>
</g>
</g>
<!-- Node31 -->
<g id="Node000031" class="node">
<title>Node31</title>
<g id="a_Node000031"><a xlink:href="class_async_client.html#a4044bdcfd2ca6197f75200644685c5f0" target="_top" xlink:title=" ">
<polygon fill="white" stroke="#666666" points="287,-20 152.5,-20 152.5,0 287,0 287,-20"/>
<text xml:space="preserve" text-anchor="middle" x="219.75" y="-6.5" font-family="Helvetica,sans-Serif" font-size="10.00">AsyncClient::~AsyncClient</text>
</a>
</g>
</g>
<!-- Node3&#45;&gt;Node31 -->
<g id="edge8_Node000003_Node000031" class="edge">
<title>Node3&#45;&gt;Node31</title>
<g id="a_edge8_Node000003_Node000031"><a xlink:title=" ">
<path fill="none" stroke="#63b8ff" d="M330.75,-71.13C328.08,-69.86 325.48,-68.49 323,-67 303.05,-55.04 306.88,-41.08 287,-29 281.38,-25.58 275.11,-22.76 268.74,-20.43"/>
<polygon fill="#63b8ff" stroke="#63b8ff" points="329.39,-74.35 339.97,-74.94 332.06,-67.88 329.39,-74.35"/>
</a>
</g>
</g>
<!-- Node15&#45;&gt;Node21 -->
<g id="edge5_Node000015_Node000021" class="edge">
<title>Node15&#45;&gt;Node21</title>
<g id="a_edge5_Node000015_Node000021"><a xlink:title=" ">
<path fill="none" stroke="#63b8ff" d="M143.84,-115.08C134.77,-114 125.61,-112.91 116.84,-111.86"/>
<polygon fill="#63b8ff" stroke="#63b8ff" points="143.41,-118.55 153.75,-116.26 144.23,-111.6 143.41,-118.55"/>
</a>
</g>
</g>
<!-- Node33 -->
<g id="Node000033" class="node">
<title>Node33</title>
<g id="a_Node000033"><a xlink:href="class_async_server.html#a615b3df090db6c2d451601bf9c295bc8" target="_top" xlink:title=" ">
<polygon fill="white" stroke="#666666" points="463.5,-58 323,-58 323,-38 463.5,-38 463.5,-58"/>
<text xml:space="preserve" text-anchor="middle" x="393.25" y="-44.5" font-family="Helvetica,sans-Serif" font-size="10.00">AsyncServer::~AsyncServer</text>
</a>
</g>
</g>
<!-- Node32&#45;&gt;Node33 -->
<g id="edge10_Node000032_Node000033" class="edge">
<title>Node32&#45;&gt;Node33</title>
<g id="a_edge10_Node000032_Node000033"><a xlink:title=" ">
<path fill="none" stroke="#63b8ff" d="M489.52,-48C481.1,-48 472.36,-48 463.73,-48"/>
<polygon fill="#63b8ff" stroke="#63b8ff" points="489.24,-51.5 499.24,-48 489.24,-44.5 489.24,-51.5"/>
</a>
</g>
</g>
</g>
</svg>
