<?xml version="1.0" encoding="UTF-8" standalone="no"?>
<!DOCTYPE svg PUBLIC "-//W3C//DTD SVG 1.1//EN"
 "http://www.w3.org/Graphics/SVG/1.1/DTD/svg11.dtd">
<!-- Generated by graphviz version 14.1.2 (20260124.0452)
 -->
<!-- Title: _tcp_clear_events Pages: 1 -->
<!--zoomable 212 -->

<svg id="main" version="1.1" xmlns="http://www.w3.org/2000/svg" xmlns:xlink="http://www.w3.org/1999/xlink" xml:space="preserve" onload="init(evt)">

<style type="text/css"><![CDATA[
.node, .edge {opacity: 0.7;}
.node.selected, .edge.selected {opacity: 1;}
.edge:hover path { stroke: red; }
.edge:hover polygon { stroke: red; fill: red; }
]]></style>

<defs>
  <circle id="rim" cx="0" cy="0" r="7"/>
  <circle id="rim2" cx="0" cy="0" r="3.5"/>
  <g id="zoomPlus">
    <use xlink:href="#rim" fill="#404040"><set attributeName="fill" to="#808080" begin="zoomplus.mouseover" end="zoomplus.mouseout"/></use>
    <path d="M-4,0h8M0,-4v8" fill="none" stroke="white" stroke-width="1.5" pointer-events="none"/>
  </g>
  <g id="zoomMin">
    <use xlink:href="#rim" fill="#404040"><set attributeName="fill" to="#808080" begin="zoomminus.mouseover" end="zoomminus.mouseout"/></use>
    <path d="M-4,0h8" fill="none" stroke="white" stroke-width="1.5" pointer-events="none"/>
  </g>
  <g id="arrowUp" transform="translate(30 24)">
    <use xlink:href="#rim"/>
    <path pointer-events="none" fill="none" stroke="white" stroke-width="1.5" d="M0,-3.0v7 M-2.5,-0.5L0,-3.0L2.5,-0.5"/>
  </g>
  <g id="arrowRight" transform="rotate(90) translate(36 -43)">
    <use xlink:href="#rim"/>
    <path pointer-events="none" fill="none" stroke="white" stroke-width="1.5" d="M0,-3.0v7 M-2.5,-0.5L0,-3.0L2.5,-0.5"/>
  </g>
  <g id="arrowDown" transform="rotate(180) translate(-30 -48)">
    <use xlink:href="#rim"/>
    <path pointer-events="none" fill="none" stroke="white" stroke-width="1.5" d="M0,-3.0v7 M-2.5,-0.5L0,-3.0L2.5,-0.5"/>
  </g>
  <g id="arrowLeft" transform="rotate(270) translate(-36 17)">
    <use xlink:href="#rim"/>
    <path pointer-events="none" fill="none" stroke="white" stroke-width="1.5" d="M0,-3.0v7 M-2.5,-0.5L0,-3.0L2.5,-0.5"/>
  </g>
  <g id="resetDef">
    <use xlink:href="#rim2" fill="#404040"><set attributeName="fill" to="#808080" begin="reset.mouseover" end="reset.mouseout"/></use>
  </g>
</defs>
<script type="application/ecmascript">
var viewWidth = 709;
var viewHeight = 212;
var sectionId = 'dynsection-22';
</script>
<script type="application/ecmascript" xlink:href="svg.min.js"/>
<svg id="graph" class="graph">
<g id="viewport">
<title>_tcp_clear_events</title>
<!-- Node1 -->
<g id="Node000001" class="node">
<title>Node1</title>
<g id="a_Node000001"><a xlink:title=" ">
<polygon fill="#999999" stroke="#666666" points="701,-52.74 605.5,-52.74 605.5,-32.74 701,-32.74 701,-52.74"/>
<text xml:space="preserve" text-anchor="middle" x="653.25" y="-39.24" font-family="Helvetica,sans-Serif" font-size="10.00">_tcp_clear_events</text>
</a>
</g>
</g>
<!-- Node2 -->
<g id="Node000002" class="node">
<title>Node2</title>
<g id="a_Node000002"><a xlink:href="class_async_client.html#a98ff872bc84919f006f3bb8a249ed36d" target="_top" xlink:title=" ">
<polygon fill="white" stroke="#666666" points="569.5,-90.74 465.75,-90.74 465.75,-70.74 569.5,-70.74 569.5,-90.74"/>
<text xml:space="preserve" text-anchor="middle" x="517.62" y="-77.24" font-family="Helvetica,sans-Serif" font-size="10.00">AsyncClient::_close</text>
</a>
</g>
</g>
<!-- Node1&#45;&gt;Node2 -->
<g id="edge1_Node000001_Node000002" class="edge">
<title>Node1&#45;&gt;Node2</title>
<g id="a_edge1_Node000001_Node000002"><a xlink:title=" ">
<path fill="none" stroke="#63b8ff" d="M604.5,-56.32C588.34,-60.92 570.55,-65.98 555.37,-70.29"/>
<polygon fill="#63b8ff" stroke="#63b8ff" points="605.27,-59.74 613.93,-53.64 603.35,-53.01 605.27,-59.74"/>
</a>
</g>
</g>
<!-- Node22 -->
<g id="Node000022" class="node">
<title>Node22</title>
<g id="a_Node000022"><a xlink:href="class_async_client.html#afe295b6c577021c8946eb266ac41df51" target="_top" xlink:title=" ">
<polygon fill="white" stroke="#666666" points="563.12,-33.74 472.12,-33.74 472.12,-13.74 563.12,-13.74 563.12,-33.74"/>
<text xml:space="preserve" text-anchor="middle" x="517.62" y="-20.24" font-family="Helvetica,sans-Serif" font-size="10.00">AsyncClient::_fin</text>
</a>
</g>
</g>
<!-- Node1&#45;&gt;Node22 -->
<g id="edge12_Node000001_Node000022" class="edge">
<title>Node1&#45;&gt;Node22</title>
<g id="a_edge12_Node000001_Node000022"><a xlink:title=" ">
<path fill="none" stroke="#63b8ff" d="M593.83,-34.43C583.67,-32.99 573.24,-31.51 563.52,-30.12"/>
<polygon fill="#63b8ff" stroke="#63b8ff" points="593.25,-37.89 603.64,-35.83 594.23,-30.96 593.25,-37.89"/>
</a>
</g>
</g>
<!-- Node3 -->
<g id="Node000003" class="node">
<title>Node3</title>
<g id="a_Node000003"><a xlink:href="class_async_client.html#a383d1cb7d684d328362caa5eafc92ca2" target="_top" xlink:title=" ">
<polygon fill="white" stroke="#666666" points="410.25,-203.74 314.75,-203.74 314.75,-183.74 410.25,-183.74 410.25,-203.74"/>
<text xml:space="preserve" text-anchor="middle" x="362.5" y="-190.24" font-family="Helvetica,sans-Serif" font-size="10.00">AsyncClient::_poll</text>
</a>
</g>
</g>
<!-- Node2&#45;&gt;Node3 -->
<g id="edge2_Node000002_Node000003" class="edge">
<title>Node2&#45;&gt;Node3</title>
<g id="a_edge2_Node000002_Node000003"><a xlink:title=" ">
<path fill="none" stroke="#63b8ff" d="M503.33,-100.64C488.03,-122.02 460.97,-155.51 429.75,-174.74 423.84,-178.38 417.21,-181.35 410.48,-183.76"/>
<polygon fill="#63b8ff" stroke="#63b8ff" points="506.17,-102.69 509,-92.48 500.42,-98.7 506.17,-102.69"/>
</a>
</g>
</g>
<!-- Node14 -->
<g id="Node000014" class="node">
<title>Node14</title>
<g id="a_Node000014"><a xlink:href="class_async_client.html#aefecfa0c75c8c1b32104115e93739087" target="_top" xlink:title=" ">
<polygon fill="white" stroke="#666666" points="426.75,-147.74 298.25,-147.74 298.25,-127.74 426.75,-127.74 426.75,-147.74"/>
<text xml:space="preserve" text-anchor="middle" x="362.5" y="-134.24" font-family="Helvetica,sans-Serif" font-size="10.00">AsyncClient::AsyncClient</text>
</a>
</g>
</g>
<!-- Node2&#45;&gt;Node14 -->
<g id="edge5_Node000002_Node000014" class="edge">
<title>Node2&#45;&gt;Node14</title>
<g id="a_edge5_Node000002_Node000014"><a xlink:title=" ">
<path fill="none" stroke="#63b8ff" d="M485.09,-95.74C468.78,-103.19 448.43,-112.01 429.75,-118.74 421.19,-121.82 411.88,-124.75 403.01,-127.34"/>
<polygon fill="#63b8ff" stroke="#63b8ff" points="486.19,-99.09 493.8,-91.72 483.25,-92.74 486.19,-99.09"/>
</a>
</g>
</g>
<!-- Node17 -->
<g id="Node000017" class="node">
<title>Node17</title>
<g id="a_Node000017"><a xlink:href="class_async_client.html#a0305fe0b036257c03829ceaa5cc43361" target="_top" xlink:title="close connection">
<polygon fill="white" stroke="#666666" points="411.75,-109.74 313.25,-109.74 313.25,-89.74 411.75,-89.74 411.75,-109.74"/>
<text xml:space="preserve" text-anchor="middle" x="362.5" y="-96.24" font-family="Helvetica,sans-Serif" font-size="10.00">AsyncClient::close</text>
</a>
</g>
</g>
<!-- Node2&#45;&gt;Node17 -->
<g id="edge8_Node000002_Node000017" class="edge">
<title>Node2&#45;&gt;Node17</title>
<g id="a_edge8_Node000002_Node000017"><a xlink:title=" ">
<path fill="none" stroke="#63b8ff" d="M454.51,-88.45C440.42,-90.2 425.64,-92.03 412.19,-93.7"/>
<polygon fill="#63b8ff" stroke="#63b8ff" points="454.64,-91.96 464.13,-87.25 453.78,-85.01 454.64,-91.96"/>
</a>
</g>
</g>
<!-- Node20 -->
<g id="Node000020" class="node">
<title>Node20</title>
<g id="a_Node000020"><a xlink:href="class_async_client.html#a575c12664279634155259e007c6a104f" target="_top" xlink:title=" ">
<polygon fill="white" stroke="#666666" points="420.75,-71.74 304.25,-71.74 304.25,-51.74 420.75,-51.74 420.75,-71.74"/>
<text xml:space="preserve" text-anchor="middle" x="362.5" y="-58.24" font-family="Helvetica,sans-Serif" font-size="10.00">AsyncClient::operator=</text>
</a>
</g>
</g>
<!-- Node2&#45;&gt;Node20 -->
<g id="edge10_Node000002_Node000020" class="edge">
<title>Node2&#45;&gt;Node20</title>
<g id="a_edge10_Node000002_Node000020"><a xlink:title=" ">
<path fill="none" stroke="#63b8ff" d="M454.37,-73.02C443.39,-71.65 431.99,-70.24 421.14,-68.89"/>
<polygon fill="#63b8ff" stroke="#63b8ff" points="453.78,-76.47 464.13,-74.23 454.64,-69.52 453.78,-76.47"/>
</a>
</g>
</g>
<!-- Node21 -->
<g id="Node000021" class="node">
<title>Node21</title>
<g id="a_Node000021"><a xlink:href="class_async_client.html#a4044bdcfd2ca6197f75200644685c5f0" target="_top" xlink:title=" ">
<polygon fill="white" stroke="#666666" points="429.75,-33.74 295.25,-33.74 295.25,-13.74 429.75,-13.74 429.75,-33.74"/>
<text xml:space="preserve" text-anchor="middle" x="362.5" y="-20.24" font-family="Helvetica,sans-Serif" font-size="10.00">AsyncClient::~AsyncClient</text>
</a>
</g>
</g>
<!-- Node2&#45;&gt;Node21 -->
<g id="edge11_Node000002_Node000021" class="edge">
<title>Node2&#45;&gt;Node21</title>
<g id="a_edge11_Node000002_Node000021"><a xlink:title=" ">
<path fill="none" stroke="#63b8ff" d="M485.09,-65.74C468.78,-58.29 448.43,-49.47 429.75,-42.74 421.19,-39.66 411.88,-36.73 403.01,-34.14"/>
<polygon fill="#63b8ff" stroke="#63b8ff" points="483.25,-68.74 493.8,-69.77 486.19,-62.39 483.25,-68.74"/>
</a>
</g>
</g>
<!-- Node4 -->
<g id="Node000004" class="node">
<title>Node4</title>
<g id="a_Node000004"><a xlink:href="class_async_client.html#abe187c005c73fe6c0c94e1b3b20b55de" target="_top" xlink:title=" ">
<polygon fill="white" stroke="#666666" points="255.88,-194.74 149.88,-194.74 149.88,-174.74 255.88,-174.74 255.88,-194.74"/>
<text xml:space="preserve" text-anchor="middle" x="202.88" y="-181.24" font-family="Helvetica,sans-Serif" font-size="10.00">AsyncClient::_s_poll</text>
</a>
</g>
</g>
<!-- Node3&#45;&gt;Node4 -->
<g id="edge3_Node000003_Node000004" class="edge">
<title>Node3&#45;&gt;Node4</title>
<g id="a_edge3_Node000003_Node000004"><a xlink:title=" ">
<path fill="none" stroke="#63b8ff" d="M303.16,-190.41C287.82,-189.53 271.37,-188.59 256.36,-187.74"/>
<polygon fill="#63b8ff" stroke="#63b8ff" points="302.94,-193.9 313.12,-190.98 303.34,-186.91 302.94,-193.9"/>
</a>
</g>
</g>
<!-- Node5 -->
<g id="Node000005" class="node">
<title>Node5</title>
<g id="a_Node000005"><a xlink:href="_async_t_c_p_8cpp.html#ac4030e968c0e4c0fcbe7a9b4502854c1" target="_top" xlink:title=" ">
<polygon fill="#fff0f0" stroke="red" points="110.5,-128.74 0,-128.74 0,-108.74 110.5,-108.74 110.5,-128.74"/>
<text xml:space="preserve" text-anchor="middle" x="55.25" y="-115.24" font-family="Helvetica,sans-Serif" font-size="10.00">_handle_async_event</text>
</a>
</g>
</g>
<!-- Node4&#45;&gt;Node5 -->
<g id="edge4_Node000004_Node000005" class="edge">
<title>Node4&#45;&gt;Node5</title>
<g id="a_edge4_Node000004_Node000005"><a xlink:title=" ">
<path fill="none" stroke="#63b8ff" d="M168.54,-169.63C141.21,-157.25 103.25,-140.04 79.22,-129.15"/>
<polygon fill="#63b8ff" stroke="#63b8ff" points="166.87,-172.72 177.42,-173.66 169.76,-166.34 166.87,-172.72"/>
</a>
</g>
</g>
<!-- Node14&#45;&gt;Node14 -->
<g id="edge7_Node000014_Node000014" class="edge">
<title>Node14&#45;&gt;Node14</title>
<g id="a_edge7_Node000014_Node000014"><a xlink:title=" ">
<path fill="none" stroke="#63b8ff" d="M389.92,-159.18C386.39,-163.04 377.25,-165.74 362.5,-165.74 335.53,-165.74 327.32,-156.72 337.85,-148.08"/>
<polygon fill="#63b8ff" stroke="#63b8ff" points="393.33,-158.4 387.51,-149.55 386.54,-160.1 393.33,-158.4"/>
</a>
</g>
</g>
<!-- Node15 -->
<g id="Node000015" class="node">
<title>Node15</title>
<g id="a_Node000015"><a xlink:href="class_async_server.html#a51e55999b79eec50bd68e899b8ddd4e4" target="_top" xlink:title=" ">
<polygon fill="#fff0f0" stroke="red" points="259.25,-147.74 146.5,-147.74 146.5,-127.74 259.25,-127.74 259.25,-147.74"/>
<text xml:space="preserve" text-anchor="middle" x="202.88" y="-134.24" font-family="Helvetica,sans-Serif" font-size="10.00">AsyncServer::_accept</text>
</a>
</g>
</g>
<!-- Node14&#45;&gt;Node15 -->
<g id="edge6_Node000014_Node000015" class="edge">
<title>Node14&#45;&gt;Node15</title>
<g id="a_edge6_Node000014_Node000015"><a xlink:title=" ">
<path fill="none" stroke="#63b8ff" d="M286.47,-137.74C277.44,-137.74 268.34,-137.74 259.65,-137.74"/>
<polygon fill="#63b8ff" stroke="#63b8ff" points="286.33,-141.24 296.33,-137.74 286.33,-134.24 286.33,-141.24"/>
</a>
</g>
</g>
<!-- Node18 -->
<g id="Node000018" class="node">
<title>Node18</title>
<g id="a_Node000018"><a xlink:href="class_async_client.html#a4bed4e925817d1b918af2ce43fb0859e" target="_top" xlink:title=" ">
<polygon fill="#fff0f0" stroke="red" points="249.88,-109.74 155.88,-109.74 155.88,-89.74 249.88,-89.74 249.88,-109.74"/>
<text xml:space="preserve" text-anchor="middle" x="202.88" y="-96.24" font-family="Helvetica,sans-Serif" font-size="10.00">AsyncClient::stop</text>
</a>
</g>
</g>
<!-- Node17&#45;&gt;Node18 -->
<g id="edge9_Node000017_Node000018" class="edge">
<title>Node17&#45;&gt;Node18</title>
<g id="a_edge9_Node000017_Node000018"><a xlink:title=" ">
<path fill="none" stroke="#63b8ff" d="M301.89,-99.74C284.75,-99.74 266.33,-99.74 250.14,-99.74"/>
<polygon fill="#63b8ff" stroke="#63b8ff" points="301.41,-103.24 311.41,-99.74 301.41,-96.24 301.41,-103.24"/>
</a>
</g>
</g>
<!-- Node23 -->
<g id="Node000023" class="node">
<title>Node23</title>
<g id="a_Node000023"><a xlink:href="class_async_client.html#a6a69c67e1a22660766affb64700c2276" target="_top" xlink:title=" ">
<polygon fill="white" stroke="#666666" points="253.62,-33.74 152.12,-33.74 152.12,-13.74 253.62,-13.74 253.62,-33.74"/>
<text xml:space="preserve" text-anchor="middle" x="202.88" y="-20.24" font-family="Helvetica,sans-Serif" font-size="10.00">AsyncClient::_s_fin</text>
</a>
</g>
</g>
<!-- Node22&#45;&gt;Node23 -->
<g id="edge13_Node000022_Node000023" class="edge">
<title>Node22&#45;&gt;Node23</title>
<g id="a_edge13_Node000022_Node000023"><a xlink:title=" ">
<path fill="none" stroke="#63b8ff" d="M466.42,-10.84C454.48,-8.31 441.73,-6.04 429.75,-4.74 370.32,1.68 354.71,1.38 295.25,-4.74 278.65,-6.45 260.61,-9.86 244.99,-13.32"/>
<polygon fill="#63b8ff" stroke="#63b8ff" points="465.57,-14.23 476.09,-12.99 467.09,-7.4 465.57,-14.23"/>
</a>
</g>
</g>
<!-- Node23&#45;&gt;Node5 -->
<g id="edge14_Node000023_Node000005" class="edge">
<title>Node23&#45;&gt;Node5</title>
<g id="a_edge14_Node000023_Node000005"><a xlink:title=" ">
<path fill="none" stroke="#63b8ff" d="M176.62,-40.22C146.55,-59.83 97.25,-92 72.09,-108.41"/>
<polygon fill="#63b8ff" stroke="#63b8ff" points="178.28,-43.31 184.75,-34.92 174.46,-37.45 178.28,-43.31"/>
</a>
</g>
</g>
</g>
</svg>

<g id="navigator" transform="translate(0 0)" fill="#404254">
  <rect fill="#f2f5e9" fill-opacity="0.5" stroke="#606060" stroke-width=".5" x="0" y="0" width="60" height="60"/>
  <use id="zoomplus" xlink:href="#zoomPlus" x="17" y="9" onmousedown="handleZoom(evt,'in')"/>
  <use id="zoomminus" xlink:href="#zoomMin" x="42" y="9" onmousedown="handleZoom(evt,'out')"/>
  <use id="reset" xlink:href="#resetDef" x="30" y="36" onmousedown="handleReset()"/>
   <use id="arrowup" xlink:href="#arrowUp" x="0" y="0" onmousedown="handlePan(0,-1)"/>
  <use id="arrowright" xlink:href="#arrowRight" x="0" y="0" onmousedown="handlePan(1,0)"/>
  <use id="arrowdown" xlink:href="#arrowDown" x="0" y="0" onmousedown="handlePan(0,1)"/>
  <use id="arrowleft" xlink:href="#arrowLeft" x="0" y="0" onmousedown="handlePan(-1,0)"/>
</g>
<svg viewBox="0 0 15 15" width="100%" height="30px" preserveAspectRatio="xMaxYMin meet">
 <g id="arrow_out" transform="scale(0.3 0.3)">
  <a xlink:href="_async_t_c_p_8cpp_ab053d5adb5be879f37181af512213bb6_icgraph_org.svg" target="_base">
   <rect id="button" ry="5" rx="5" y="6" x="6" height="38" width="38"
        fill="#f2f5e9" fill-opacity="0.5" stroke="#606060" stroke-width="1.0"/>
   <path id="arrow"
     d="M 11.500037,31.436501 C 11.940474,20.09759 22.043105,11.32322 32.158766,21.979434 L 37.068811,17.246167 C 37.068811,17.246167 37.088388,32 37.088388,32 L 22.160133,31.978069 C 22.160133,31.978069 26.997745,27.140456 26.997745,27.140456 C 18.528582,18.264221 13.291696,25.230495 11.500037,31.436501 z"
     style="fill:#404040;"/>
  </a>
 </g>
</svg>

<style type='text/css'>
<![CDATA[
[data-mouse-over-selected='false'] { opacity: 0.7; }
[data-mouse-over-selected='true']  { opacity: 1.0; }
]]>
</style>
<script type="application/ecmascript"><![CDATA[
document.addEventListener('DOMContentLoaded', (event) => {
  highlightEdges();
  highlightAdjacentNodes();
});
]]></script>
</svg>
