<?xml version="1.0" encoding="UTF-8" standalone="no"?>
<!DOCTYPE svg PUBLIC "-//W3C//DTD SVG 1.1//EN"
 "http://www.w3.org/Graphics/SVG/1.1/DTD/svg11.dtd">
<!-- Generated by graphviz version 14.1.2 (20260124.0452)
 -->
<!-- Title: _tcp_connect_api Pages: 1 -->
<svg width="508pt" height="66pt"
 viewBox="0.00 0.00 508.00 66.00" xmlns="http://www.w3.org/2000/svg" xmlns:xlink="http://www.w3.org/1999/xlink">
<g id="graph0" class="graph" transform="scale(1 1) rotate(0) translate(4 62)">
<title>_tcp_connect_api</title>
<!-- Node1 -->
<g id="Node000001" class="node">
<title>Node1</title>
<g id="a_Node000001"><a xlink:title=" ">
<polygon fill="#999999" stroke="#666666" points="499.75,-39 407.25,-39 407.25,-19 499.75,-19 499.75,-39"/>
<text xml:space="preserve" text-anchor="middle" x="453.5" y="-25.5" font-family="Helvetica,sans-Serif" font-size="10.00">_tcp_connect_api</text>
</a>
</g>
</g>
<!-- Node2 -->
<g id="Node000002" class="node">
<title>Node2</title>
<g id="a_Node000002"><a xlink:href="_async_t_c_p_8cpp.html#a02f7e9cd68d729395c7794e07dfc1375" target="_top" xlink:title=" ">
<polygon fill="white" stroke="#666666" points="371.25,-39 296.75,-39 296.75,-19 371.25,-19 371.25,-39"/>
<text xml:space="preserve" text-anchor="middle" x="334" y="-25.5" font-family="Helvetica,sans-Serif" font-size="10.00">_tcp_connect</text>
</a>
</g>
</g>
<!-- Node1&#45;&gt;Node2 -->
<g id="edge1_Node000001_Node000002" class="edge">
<title>Node1&#45;&gt;Node2</title>
<g id="a_edge1_Node000001_Node000002"><a xlink:title=" ">
<path fill="none" stroke="#63b8ff" d="M395.61,-29C387.44,-29 379.21,-29 371.58,-29"/>
<polygon fill="#63b8ff" stroke="#63b8ff" points="395.56,-32.5 405.56,-29 395.56,-25.5 395.56,-32.5"/>
</a>
</g>
</g>
<!-- Node3 -->
<g id="Node000003" class="node">
<title>Node3</title>
<g id="a_Node000003"><a xlink:href="class_async_client.html#a758eaca983e03027c99003a5808883f8" target="_top" xlink:title=" ">
<polygon fill="white" stroke="#666666" points="260.75,-39 145.75,-39 145.75,-19 260.75,-19 260.75,-39"/>
<text xml:space="preserve" text-anchor="middle" x="203.25" y="-25.5" font-family="Helvetica,sans-Serif" font-size="10.00">AsyncClient::_connect</text>
</a>
</g>
</g>
<!-- Node2&#45;&gt;Node3 -->
<g id="edge2_Node000002_Node000003" class="edge">
<title>Node2&#45;&gt;Node3</title>
<g id="a_edge2_Node000002_Node000003"><a xlink:title=" ">
<path fill="none" stroke="#63b8ff" d="M284.97,-29C277.19,-29 269.07,-29 261.11,-29"/>
<polygon fill="#63b8ff" stroke="#63b8ff" points="284.94,-32.5 294.94,-29 284.94,-25.5 284.94,-32.5"/>
</a>
</g>
</g>
<!-- Node4 -->
<g id="Node000004" class="node">
<title>Node4</title>
<g id="a_Node000004"><a xlink:href="class_async_client.html#a260e075caca9a58241f2fad754cc412b" target="_top" xlink:title=" ">
<polygon fill="white" stroke="#666666" points="109.75,-58 0,-58 0,-38 109.75,-38 109.75,-58"/>
<text xml:space="preserve" text-anchor="middle" x="54.88" y="-44.5" font-family="Helvetica,sans-Serif" font-size="10.00">AsyncClient::connect</text>
</a>
</g>
</g>
<!-- Node3&#45;&gt;Node4 -->
<g id="edge3_Node000003_Node000004" class="edge">
<title>Node3&#45;&gt;Node4</title>
<g id="a_edge3_Node000003_Node000004"><a xlink:title=" ">
<path fill="none" stroke="#63b8ff" d="M134.51,-37.79C126.26,-38.86 117.92,-39.95 109.91,-40.99"/>
<polygon fill="#63b8ff" stroke="#63b8ff" points="134.69,-41.3 144.16,-36.54 133.79,-34.36 134.69,-41.3"/>
</a>
</g>
</g>
<!-- Node5 -->
<g id="Node000005" class="node">
<title>Node5</title>
<g id="a_Node000005"><a xlink:href="class_async_client.html#aaa5b952568c85d25c32d0dff8ec74794" target="_top" xlink:title=" ">
<polygon fill="#fff0f0" stroke="red" points="109.75,-20 0,-20 0,0 109.75,0 109.75,-20"/>
<text xml:space="preserve" text-anchor="middle" x="54.88" y="-6.5" font-family="Helvetica,sans-Serif" font-size="10.00">AsyncClient::connect</text>
</a>
</g>
</g>
<!-- Node3&#45;&gt;Node5 -->
<g id="edge4_Node000003_Node000005" class="edge">
<title>Node3&#45;&gt;Node5</title>
<g id="a_edge4_Node000003_Node000005"><a xlink:title=" ">
<path fill="none" stroke="#63b8ff" d="M134.51,-20.21C126.26,-19.14 117.92,-18.05 109.91,-17.01"/>
<polygon fill="#63b8ff" stroke="#63b8ff" points="133.79,-23.64 144.16,-21.46 134.69,-16.7 133.79,-23.64"/>
</a>
</g>
</g>
</g>
</svg>
