<?xml version="1.0" encoding="UTF-8" standalone="no"?>
<!DOCTYPE svg PUBLIC "-//W3C//DTD SVG 1.1//EN"
 "http://www.w3.org/Graphics/SVG/1.1/DTD/svg11.dtd">
<!-- Generated by graphviz version 14.1.2 (20260124.0452)
 -->
<!-- Title: _tcp_recved_api Pages: 1 -->
<svg width="504pt" height="142pt"
 viewBox="0.00 0.00 504.00 142.00" xmlns="http://www.w3.org/2000/svg" xmlns:xlink="http://www.w3.org/1999/xlink">
<g id="graph0" class="graph" transform="scale(1 1) rotate(0) translate(4 138)">
<title>_tcp_recved_api</title>
<!-- Node1 -->
<g id="Node000001" class="node">
<title>Node1</title>
<g id="a_Node000001"><a xlink:title=" ">
<polygon fill="#999999" stroke="#666666" points="496,-77 408.75,-77 408.75,-57 496,-57 496,-77"/>
<text xml:space="preserve" text-anchor="middle" x="452.38" y="-63.5" font-family="Helvetica,sans-Serif" font-size="10.00">_tcp_recved_api</text>
</a>
</g>
</g>
<!-- Node2 -->
<g id="Node000002" class="node">
<title>Node2</title>
<g id="a_Node000002"><a xlink:href="_async_t_c_p_8cpp.html#acfb3f5bacaaabd2c616896510fd1f10b" target="_top" xlink:title=" ">
<polygon fill="white" stroke="#666666" points="372.75,-77 303.5,-77 303.5,-57 372.75,-57 372.75,-77"/>
<text xml:space="preserve" text-anchor="middle" x="338.12" y="-63.5" font-family="Helvetica,sans-Serif" font-size="10.00">_tcp_recved</text>
</a>
</g>
</g>
<!-- Node1&#45;&gt;Node2 -->
<g id="edge1_Node000001_Node000002" class="edge">
<title>Node1&#45;&gt;Node2</title>
<g id="a_edge1_Node000001_Node000002"><a xlink:title=" ">
<path fill="none" stroke="#63b8ff" d="M396.96,-67C388.86,-67 380.72,-67 373.2,-67"/>
<polygon fill="#63b8ff" stroke="#63b8ff" points="396.78,-70.5 406.78,-67 396.78,-63.5 396.78,-70.5"/>
</a>
</g>
</g>
<!-- Node3 -->
<g id="Node000003" class="node">
<title>Node3</title>
<g id="a_Node000003"><a xlink:href="class_async_client.html#af9a0368be4f98f49f252b1989b84b5a3" target="_top" xlink:title=" ">
<polygon fill="white" stroke="#666666" points="256.25,-134 157,-134 157,-114 256.25,-114 256.25,-134"/>
<text xml:space="preserve" text-anchor="middle" x="206.62" y="-120.5" font-family="Helvetica,sans-Serif" font-size="10.00">AsyncClient::_recv</text>
</a>
</g>
</g>
<!-- Node2&#45;&gt;Node3 -->
<g id="edge2_Node000002_Node000003" class="edge">
<title>Node2&#45;&gt;Node3</title>
<g id="a_edge2_Node000002_Node000003"><a xlink:title=" ">
<path fill="none" stroke="#63b8ff" d="M310.23,-83.26C297.55,-90.51 282.05,-98.79 267.5,-105 260.18,-108.13 252.16,-111.01 244.45,-113.55"/>
<polygon fill="#63b8ff" stroke="#63b8ff" points="311.95,-86.3 318.83,-78.24 308.42,-80.26 311.95,-86.3"/>
</a>
</g>
</g>
<!-- Node14 -->
<g id="Node000014" class="node">
<title>Node14</title>
<g id="a_Node000014"><a xlink:href="class_async_client.html#ac2c939c5af9cb1fb2c693ddb98725ecf" target="_top" xlink:title=" ">
<polygon fill="white" stroke="#666666" points="252.12,-96 161.12,-96 161.12,-76 252.12,-76 252.12,-96"/>
<text xml:space="preserve" text-anchor="middle" x="206.62" y="-82.5" font-family="Helvetica,sans-Serif" font-size="10.00">AsyncClient::ack</text>
</a>
</g>
</g>
<!-- Node2&#45;&gt;Node14 -->
<g id="edge4_Node000002_Node000014" class="edge">
<title>Node2&#45;&gt;Node14</title>
<g id="a_edge4_Node000002_Node000014"><a xlink:title=" ">
<path fill="none" stroke="#63b8ff" d="M292.09,-73.61C279.15,-75.51 265.05,-77.57 252.15,-79.47"/>
<polygon fill="#63b8ff" stroke="#63b8ff" points="292.22,-77.13 301.6,-72.21 291.2,-70.2 292.22,-77.13"/>
</a>
</g>
</g>
<!-- Node15 -->
<g id="Node000015" class="node">
<title>Node15</title>
<g id="a_Node000015"><a xlink:href="class_async_client.html#aba43fb75a7a60b08f3d3f943e0d1c332" target="_top" xlink:title=" ">
<polygon fill="white" stroke="#666666" points="267.5,-58 145.75,-58 145.75,-38 267.5,-38 267.5,-58"/>
<text xml:space="preserve" text-anchor="middle" x="206.62" y="-44.5" font-family="Helvetica,sans-Serif" font-size="10.00">AsyncClient::ackPacket</text>
</a>
</g>
</g>
<!-- Node2&#45;&gt;Node15 -->
<g id="edge5_Node000002_Node000015" class="edge">
<title>Node2&#45;&gt;Node15</title>
<g id="a_edge5_Node000002_Node000015"><a xlink:title=" ">
<path fill="none" stroke="#63b8ff" d="M291.79,-60.35C284.09,-59.22 275.98,-58.03 267.97,-56.85"/>
<polygon fill="#63b8ff" stroke="#63b8ff" points="291.2,-63.8 301.6,-61.79 292.22,-56.87 291.2,-63.8"/>
</a>
</g>
</g>
<!-- Node16 -->
<g id="Node000016" class="node">
<title>Node16</title>
<g id="a_Node000016"><a xlink:href="class_async_client.html#a0305fe0b036257c03829ceaa5cc43361" target="_top" xlink:title="close connection">
<polygon fill="white" stroke="#666666" points="255.88,-20 157.38,-20 157.38,0 255.88,0 255.88,-20"/>
<text xml:space="preserve" text-anchor="middle" x="206.62" y="-6.5" font-family="Helvetica,sans-Serif" font-size="10.00">AsyncClient::close</text>
</a>
</g>
</g>
<!-- Node2&#45;&gt;Node16 -->
<g id="edge6_Node000002_Node000016" class="edge">
<title>Node2&#45;&gt;Node16</title>
<g id="a_edge6_Node000002_Node000016"><a xlink:title=" ">
<path fill="none" stroke="#63b8ff" d="M310.23,-50.74C297.55,-43.49 282.05,-35.21 267.5,-29 260.18,-25.87 252.16,-22.99 244.45,-20.45"/>
<polygon fill="#63b8ff" stroke="#63b8ff" points="308.42,-53.74 318.83,-55.76 311.95,-47.7 308.42,-53.74"/>
</a>
</g>
</g>
<!-- Node4 -->
<g id="Node000004" class="node">
<title>Node4</title>
<g id="a_Node000004"><a xlink:href="class_async_client.html#af8136d3085c8948078a131bfb9430ec6" target="_top" xlink:title=" ">
<polygon fill="#fff0f0" stroke="red" points="109.75,-134 0,-134 0,-114 109.75,-114 109.75,-134"/>
<text xml:space="preserve" text-anchor="middle" x="54.88" y="-120.5" font-family="Helvetica,sans-Serif" font-size="10.00">AsyncClient::_s_recv</text>
</a>
</g>
</g>
<!-- Node3&#45;&gt;Node4 -->
<g id="edge3_Node000003_Node000004" class="edge">
<title>Node3&#45;&gt;Node4</title>
<g id="a_edge3_Node000003_Node000004"><a xlink:title=" ">
<path fill="none" stroke="#63b8ff" d="M145.21,-124C133.63,-124 121.57,-124 110.2,-124"/>
<polygon fill="#63b8ff" stroke="#63b8ff" points="145.08,-127.5 155.08,-124 145.08,-120.5 145.08,-127.5"/>
</a>
</g>
</g>
<!-- Node17 -->
<g id="Node000017" class="node">
<title>Node17</title>
<g id="a_Node000017"><a xlink:href="class_async_client.html#a4bed4e925817d1b918af2ce43fb0859e" target="_top" xlink:title=" ">
<polygon fill="#fff0f0" stroke="red" points="101.88,-20 7.87,-20 7.87,0 101.88,0 101.88,-20"/>
<text xml:space="preserve" text-anchor="middle" x="54.88" y="-6.5" font-family="Helvetica,sans-Serif" font-size="10.00">AsyncClient::stop</text>
</a>
</g>
</g>
<!-- Node16&#45;&gt;Node17 -->
<g id="edge7_Node000016_Node000017" class="edge">
<title>Node16&#45;&gt;Node17</title>
<g id="a_edge7_Node000016_Node000017"><a xlink:title=" ">
<path fill="none" stroke="#63b8ff" d="M145.62,-10C131.16,-10 115.94,-10 102.21,-10"/>
<polygon fill="#63b8ff" stroke="#63b8ff" points="145.49,-13.5 155.49,-10 145.49,-6.5 145.49,-13.5"/>
</a>
</g>
</g>
</g>
</svg>
