<?xml version="1.0" encoding="UTF-8" standalone="no"?>
<!DOCTYPE svg PUBLIC "-//W3C//DTD SVG 1.1//EN"
 "http://www.w3.org/Graphics/SVG/1.1/DTD/svg11.dtd">
<!-- Generated by graphviz version 14.1.2 (20260124.0452)
 -->
<!-- Title: _tcp_sent Pages: 1 -->
<svg width="542pt" height="151pt"
 viewBox="0.00 0.00 542.00 151.00" xmlns="http://www.w3.org/2000/svg" xmlns:xlink="http://www.w3.org/1999/xlink">
<g id="graph0" class="graph" transform="scale(1 1) rotate(0) translate(4 147)">
<title>_tcp_sent</title>
<!-- Node1 -->
<g id="Node000001" class="node">
<title>Node1</title>
<g id="a_Node000001"><a xlink:title=" ">
<polygon fill="#999999" stroke="#666666" points="533.5,-58 474.75,-58 474.75,-38 533.5,-38 533.5,-58"/>
<text xml:space="preserve" text-anchor="middle" x="504.12" y="-44.5" font-family="Helvetica,sans-Serif" font-size="10.00">_tcp_sent</text>
</a>
</g>
</g>
<!-- Node2 -->
<g id="Node000002" class="node">
<title>Node2</title>
<g id="a_Node000002"><a xlink:href="class_async_client.html#a758eaca983e03027c99003a5808883f8" target="_top" xlink:title=" ">
<polygon fill="white" stroke="#666666" points="432,-114 317,-114 317,-94 432,-94 432,-114"/>
<text xml:space="preserve" text-anchor="middle" x="374.5" y="-100.5" font-family="Helvetica,sans-Serif" font-size="10.00">AsyncClient::_connect</text>
</a>
</g>
</g>
<!-- Node1&#45;&gt;Node2 -->
<g id="edge1_Node000001_Node000002" class="edge">
<title>Node1&#45;&gt;Node2</title>
<g id="a_edge1_Node000001_Node000002"><a xlink:title=" ">
<path fill="none" stroke="#63b8ff" d="M477.8,-64.36C466.22,-71.36 452.12,-79.24 438.75,-85 431.38,-88.18 423.31,-91.03 415.48,-93.51"/>
<polygon fill="#63b8ff" stroke="#63b8ff" points="479.31,-67.54 485.97,-59.3 475.63,-61.59 479.31,-67.54"/>
</a>
</g>
</g>
<!-- Node11 -->
<g id="Node000011" class="node">
<title>Node11</title>
<g id="a_Node000011"><a xlink:href="class_async_client.html#aefecfa0c75c8c1b32104115e93739087" target="_top" xlink:title=" ">
<polygon fill="white" stroke="#666666" points="438.75,-58 310.25,-58 310.25,-38 438.75,-38 438.75,-58"/>
<text xml:space="preserve" text-anchor="middle" x="374.5" y="-44.5" font-family="Helvetica,sans-Serif" font-size="10.00">AsyncClient::AsyncClient</text>
</a>
</g>
</g>
<!-- Node1&#45;&gt;Node11 -->
<g id="edge5_Node000001_Node000011" class="edge">
<title>Node1&#45;&gt;Node11</title>
<g id="a_edge5_Node000001_Node000011"><a xlink:title=" ">
<path fill="none" stroke="#63b8ff" d="M462.98,-48C455.34,-48 447.16,-48 439,-48"/>
<polygon fill="#63b8ff" stroke="#63b8ff" points="462.97,-51.5 472.97,-48 462.97,-44.5 462.97,-51.5"/>
</a>
</g>
</g>
<!-- Node14 -->
<g id="Node000014" class="node">
<title>Node14</title>
<g id="a_Node000014"><a xlink:href="class_async_client.html#a575c12664279634155259e007c6a104f" target="_top" xlink:title=" ">
<polygon fill="white" stroke="#666666" points="432.75,-20 316.25,-20 316.25,0 432.75,0 432.75,-20"/>
<text xml:space="preserve" text-anchor="middle" x="374.5" y="-6.5" font-family="Helvetica,sans-Serif" font-size="10.00">AsyncClient::operator=</text>
</a>
</g>
</g>
<!-- Node1&#45;&gt;Node14 -->
<g id="edge9_Node000001_Node000014" class="edge">
<title>Node1&#45;&gt;Node14</title>
<g id="a_edge9_Node000001_Node000014"><a xlink:title=" ">
<path fill="none" stroke="#63b8ff" d="M463.74,-36.27C446.7,-31.2 426.92,-25.31 410.41,-20.4"/>
<polygon fill="#63b8ff" stroke="#63b8ff" points="462.45,-39.54 473.03,-39.04 464.45,-32.83 462.45,-39.54"/>
</a>
</g>
</g>
<!-- Node3 -->
<g id="Node000003" class="node">
<title>Node3</title>
<g id="a_Node000003"><a xlink:href="class_async_client.html#a260e075caca9a58241f2fad754cc412b" target="_top" xlink:title=" ">
<polygon fill="white" stroke="#666666" points="272.75,-143 163,-143 163,-123 272.75,-123 272.75,-143"/>
<text xml:space="preserve" text-anchor="middle" x="217.88" y="-129.5" font-family="Helvetica,sans-Serif" font-size="10.00">AsyncClient::connect</text>
</a>
</g>
</g>
<!-- Node2&#45;&gt;Node3 -->
<g id="edge2_Node000002_Node000003" class="edge">
<title>Node2&#45;&gt;Node3</title>
<g id="a_edge2_Node000002_Node000003"><a xlink:title=" ">
<path fill="none" stroke="#63b8ff" d="M306.61,-116.55C295.4,-118.65 283.9,-120.8 273.06,-122.84"/>
<polygon fill="#63b8ff" stroke="#63b8ff" points="307.01,-120.03 316.19,-114.75 305.72,-113.15 307.01,-120.03"/>
</a>
</g>
</g>
<!-- Node4 -->
<g id="Node000004" class="node">
<title>Node4</title>
<g id="a_Node000004"><a xlink:href="class_async_client.html#aaa5b952568c85d25c32d0dff8ec74794" target="_top" xlink:title=" ">
<polygon fill="white" stroke="#666666" points="272.75,-105 163,-105 163,-85 272.75,-85 272.75,-105"/>
<text xml:space="preserve" text-anchor="middle" x="217.88" y="-91.5" font-family="Helvetica,sans-Serif" font-size="10.00">AsyncClient::connect</text>
</a>
</g>
</g>
<!-- Node2&#45;&gt;Node4 -->
<g id="edge3_Node000002_Node000004" class="edge">
<title>Node2&#45;&gt;Node4</title>
<g id="a_edge3_Node000002_Node000004"><a xlink:title=" ">
<path fill="none" stroke="#63b8ff" d="M305.64,-100.05C294.8,-99.42 283.72,-98.77 273.25,-98.16"/>
<polygon fill="#63b8ff" stroke="#63b8ff" points="305.1,-103.52 315.29,-100.61 305.51,-96.54 305.1,-103.52"/>
</a>
</g>
</g>
<!-- Node5 -->
<g id="Node000005" class="node">
<title>Node5</title>
<g id="a_Node000005"><a xlink:href="class_async_client.html#a19dc40652b5b003288e10529ee169b65" target="_top" xlink:title=" ">
<polygon fill="#fff0f0" stroke="red" points="125.5,-105 0,-105 0,-85 125.5,-85 125.5,-105"/>
<text xml:space="preserve" text-anchor="middle" x="62.75" y="-91.5" font-family="Helvetica,sans-Serif" font-size="10.00">AsyncClient::_dns_found</text>
</a>
</g>
</g>
<!-- Node4&#45;&gt;Node5 -->
<g id="edge4_Node000004_Node000005" class="edge">
<title>Node4&#45;&gt;Node5</title>
<g id="a_edge4_Node000004_Node000005"><a xlink:title=" ">
<path fill="none" stroke="#63b8ff" d="M151.47,-95C142.98,-95 134.31,-95 125.88,-95"/>
<polygon fill="#63b8ff" stroke="#63b8ff" points="151.38,-98.5 161.38,-95 151.38,-91.5 151.38,-98.5"/>
</a>
</g>
</g>
<!-- Node11&#45;&gt;Node11 -->
<g id="edge8_Node000011_Node000011" class="edge">
<title>Node11&#45;&gt;Node11</title>
<g id="a_edge8_Node000011_Node000011"><a xlink:title=" ">
<path fill="none" stroke="#63b8ff" d="M397.41,-69.44C394.46,-73.3 386.82,-76 374.5,-76 351.97,-76 345.1,-66.98 353.9,-58.34"/>
<polygon fill="#63b8ff" stroke="#63b8ff" points="400.87,-68.9 395.4,-59.82 394.02,-70.32 400.87,-68.9"/>
</a>
</g>
</g>
<!-- Node12 -->
<g id="Node000012" class="node">
<title>Node12</title>
<g id="a_Node000012"><a xlink:href="class_async_server.html#a51e55999b79eec50bd68e899b8ddd4e4" target="_top" xlink:title=" ">
<polygon fill="white" stroke="#666666" points="274.25,-58 161.5,-58 161.5,-38 274.25,-38 274.25,-58"/>
<text xml:space="preserve" text-anchor="middle" x="217.88" y="-44.5" font-family="Helvetica,sans-Serif" font-size="10.00">AsyncServer::_accept</text>
</a>
</g>
</g>
<!-- Node11&#45;&gt;Node12 -->
<g id="edge6_Node000011_Node000012" class="edge">
<title>Node11&#45;&gt;Node12</title>
<g id="a_edge6_Node000011_Node000012"><a xlink:title=" ">
<path fill="none" stroke="#63b8ff" d="M298.68,-48C290.51,-48 282.31,-48 274.44,-48"/>
<polygon fill="#63b8ff" stroke="#63b8ff" points="298.65,-51.5 308.65,-48 298.65,-44.5 298.65,-51.5"/>
</a>
</g>
</g>
<!-- Node13 -->
<g id="Node000013" class="node">
<title>Node13</title>
<g id="a_Node000013"><a xlink:href="class_async_server.html#a9cfd997e84bd4ba394f3225863536d5e" target="_top" xlink:title=" ">
<polygon fill="#fff0f0" stroke="red" points="124.38,-58 1.12,-58 1.12,-38 124.38,-38 124.38,-58"/>
<text xml:space="preserve" text-anchor="middle" x="62.75" y="-44.5" font-family="Helvetica,sans-Serif" font-size="10.00">AsyncServer::_s_accept</text>
</a>
</g>
</g>
<!-- Node12&#45;&gt;Node13 -->
<g id="edge7_Node000012_Node000013" class="edge">
<title>Node12&#45;&gt;Node13</title>
<g id="a_edge7_Node000012_Node000013"><a xlink:title=" ">
<path fill="none" stroke="#63b8ff" d="M149.93,-48C141.59,-48 133.1,-48 124.86,-48"/>
<polygon fill="#63b8ff" stroke="#63b8ff" points="149.65,-51.5 159.65,-48 149.65,-44.5 149.65,-51.5"/>
</a>
</g>
</g>
</g>
</svg>
