<?xml version="1.0" encoding="UTF-8" standalone="no"?>
<!DOCTYPE svg PUBLIC "-//W3C//DTD SVG 1.1//EN"
 "http://www.w3.org/Graphics/SVG/1.1/DTD/svg11.dtd">
<!-- Generated by graphviz version 14.1.2 (20260124.0452)
 -->
<!-- Title: _send_async_event Pages: 1 -->
<svg width="520pt" height="180pt"
 viewBox="0.00 0.00 520.00 180.00" xmlns="http://www.w3.org/2000/svg" xmlns:xlink="http://www.w3.org/1999/xlink">
<g id="graph0" class="graph" transform="scale(1 1) rotate(0) translate(4 176)">
<title>_send_async_event</title>
<!-- Node1 -->
<g id="Node000001" class="node">
<title>Node1</title>
<g id="a_Node000001"><a xlink:title=" ">
<polygon fill="#999999" stroke="#666666" points="511.75,-96 408.75,-96 408.75,-76 511.75,-76 511.75,-96"/>
<text xml:space="preserve" text-anchor="middle" x="460.25" y="-82.5" font-family="Helvetica,sans-Serif" font-size="10.00">_send_async_event</text>
</a>
</g>
</g>
<!-- Node2 -->
<g id="Node000002" class="node">
<title>Node2</title>
<g id="a_Node000002"><a xlink:href="_async_t_c_p_8cpp.html#a2dec6cedf1649c5b63519ccfd6f3a3fd" target="_top" xlink:title=" ">
<polygon fill="white" stroke="#666666" points="255.5,-172 170.5,-172 170.5,-152 255.5,-152 255.5,-172"/>
<text xml:space="preserve" text-anchor="middle" x="213" y="-158.5" font-family="Helvetica,sans-Serif" font-size="10.00">_tcp_dns_found</text>
</a>
</g>
</g>
<!-- Node1&#45;&gt;Node2 -->
<g id="edge1_Node000001_Node000002" class="edge">
<title>Node1&#45;&gt;Node2</title>
<g id="a_edge1_Node000001_Node000002"><a xlink:title=" ">
<path fill="none" stroke="#63b8ff" d="M438.53,-103.68C421.89,-116.83 397.32,-134.01 372.75,-143 334.82,-156.88 288.73,-161.12 256,-162.2"/>
<polygon fill="#63b8ff" stroke="#63b8ff" points="440.64,-106.47 446.18,-97.44 436.22,-101.05 440.64,-106.47"/>
</a>
</g>
</g>
<!-- Node4 -->
<g id="Node000004" class="node">
<title>Node4</title>
<g id="a_Node000004"><a xlink:href="_async_t_c_p_8cpp.html#a61ff9f7f886bbbbcdc1daca453828934" target="_top" xlink:title=" ">
<polygon fill="white" stroke="#666666" points="372.75,-96 313.25,-96 313.25,-76 372.75,-76 372.75,-96"/>
<text xml:space="preserve" text-anchor="middle" x="343" y="-82.5" font-family="Helvetica,sans-Serif" font-size="10.00">_tcp_error</text>
</a>
</g>
</g>
<!-- Node1&#45;&gt;Node4 -->
<g id="edge3_Node000001_Node000004" class="edge">
<title>Node1&#45;&gt;Node4</title>
<g id="a_edge3_Node000001_Node000004"><a xlink:title=" ">
<path fill="none" stroke="#63b8ff" d="M397.01,-86C388.69,-86 380.5,-86 373.14,-86"/>
<polygon fill="#63b8ff" stroke="#63b8ff" points="396.85,-89.5 406.85,-86 396.85,-82.5 396.85,-89.5"/>
</a>
</g>
</g>
<!-- Node17 -->
<g id="Node000017" class="node">
<title>Node17</title>
<g id="a_Node000017"><a xlink:href="_async_t_c_p_8cpp.html#ad4b2c6c935c211eef5884f25a950e445" target="_top" xlink:title=" ">
<polygon fill="white" stroke="#666666" points="370.5,-58 315.5,-58 315.5,-38 370.5,-38 370.5,-58"/>
<text xml:space="preserve" text-anchor="middle" x="343" y="-44.5" font-family="Helvetica,sans-Serif" font-size="10.00">_tcp_poll</text>
</a>
</g>
</g>
<!-- Node1&#45;&gt;Node17 -->
<g id="edge11_Node000001_Node000017" class="edge">
<title>Node1&#45;&gt;Node17</title>
<g id="a_edge11_Node000001_Node000017"><a xlink:title=" ">
<path fill="none" stroke="#63b8ff" d="M416.58,-71.93C401.19,-66.86 384.26,-61.27 370.63,-56.78"/>
<polygon fill="#63b8ff" stroke="#63b8ff" points="415.42,-75.23 426.01,-75.04 417.61,-68.59 415.42,-75.23"/>
</a>
</g>
</g>
<!-- Node18 -->
<g id="Node000018" class="node">
<title>Node18</title>
<g id="a_Node000018"><a xlink:href="_async_t_c_p_8cpp.html#adf7826424bf5b1035c4850f6b3307686" target="_top" xlink:title=" ">
<polygon fill="white" stroke="#666666" points="372.38,-20 313.62,-20 313.62,0 372.38,0 372.38,-20"/>
<text xml:space="preserve" text-anchor="middle" x="343" y="-6.5" font-family="Helvetica,sans-Serif" font-size="10.00">_tcp_recv</text>
</a>
</g>
</g>
<!-- Node1&#45;&gt;Node18 -->
<g id="edge15_Node000001_Node000018" class="edge">
<title>Node1&#45;&gt;Node18</title>
<g id="a_edge15_Node000001_Node000018"><a xlink:title=" ">
<path fill="none" stroke="#63b8ff" d="M434.38,-69.6C411.7,-54.64 378.88,-33 359.66,-20.33"/>
<polygon fill="#63b8ff" stroke="#63b8ff" points="432.17,-72.33 442.44,-74.92 436.02,-66.49 432.17,-72.33"/>
</a>
</g>
</g>
<!-- Node19 -->
<g id="Node000019" class="node">
<title>Node19</title>
<g id="a_Node000019"><a xlink:href="_async_t_c_p_8cpp.html#a0b47280aff638ec9b80f7a87dfe54ea6" target="_top" xlink:title=" ">
<polygon fill="white" stroke="#666666" points="372.38,-134 313.62,-134 313.62,-114 372.38,-114 372.38,-134"/>
<text xml:space="preserve" text-anchor="middle" x="343" y="-120.5" font-family="Helvetica,sans-Serif" font-size="10.00">_tcp_sent</text>
</a>
</g>
</g>
<!-- Node1&#45;&gt;Node19 -->
<g id="edge19_Node000001_Node000019" class="edge">
<title>Node1&#45;&gt;Node19</title>
<g id="a_edge19_Node000001_Node000019"><a xlink:title=" ">
<path fill="none" stroke="#63b8ff" d="M416.57,-100.07C401.89,-104.91 385.82,-110.21 372.55,-114.59"/>
<polygon fill="#63b8ff" stroke="#63b8ff" points="417.61,-103.41 426.01,-96.96 415.42,-96.77 417.61,-103.41"/>
</a>
</g>
</g>
<!-- Node3 -->
<g id="Node000003" class="node">
<title>Node3</title>
<g id="a_Node000003"><a xlink:href="class_async_client.html#a260e075caca9a58241f2fad754cc412b" target="_top" xlink:title=" ">
<polygon fill="white" stroke="#666666" points="111.25,-172 1.5,-172 1.5,-152 111.25,-152 111.25,-172"/>
<text xml:space="preserve" text-anchor="middle" x="56.38" y="-158.5" font-family="Helvetica,sans-Serif" font-size="10.00">AsyncClient::connect</text>
</a>
</g>
</g>
<!-- Node2&#45;&gt;Node3 -->
<g id="edge2_Node000002_Node000003" class="edge">
<title>Node2&#45;&gt;Node3</title>
<g id="a_edge2_Node000002_Node000003"><a xlink:title=" ">
<path fill="none" stroke="#63b8ff" d="M158.78,-162C143.5,-162 126.81,-162 111.47,-162"/>
<polygon fill="#63b8ff" stroke="#63b8ff" points="158.64,-165.5 168.64,-162 158.64,-158.5 158.64,-165.5"/>
</a>
</g>
</g>
<!-- Node5 -->
<g id="Node000005" class="node">
<title>Node5</title>
<g id="a_Node000005"><a xlink:href="class_async_client.html#a758eaca983e03027c99003a5808883f8" target="_top" xlink:title=" ">
<polygon fill="white" stroke="#666666" points="270.5,-134 155.5,-134 155.5,-114 270.5,-114 270.5,-134"/>
<text xml:space="preserve" text-anchor="middle" x="213" y="-120.5" font-family="Helvetica,sans-Serif" font-size="10.00">AsyncClient::_connect</text>
</a>
</g>
</g>
<!-- Node4&#45;&gt;Node5 -->
<g id="edge4_Node000004_Node000005" class="edge">
<title>Node4&#45;&gt;Node5</title>
<g id="a_edge4_Node000004_Node000005"><a xlink:title=" ">
<path fill="none" stroke="#63b8ff" d="M302.27,-97.79C285.33,-102.82 265.74,-108.64 249.32,-113.52"/>
<polygon fill="#63b8ff" stroke="#63b8ff" points="302.91,-101.25 311.5,-95.05 300.92,-94.54 302.91,-101.25"/>
</a>
</g>
</g>
<!-- Node13 -->
<g id="Node000013" class="node">
<title>Node13</title>
<g id="a_Node000013"><a xlink:href="class_async_client.html#aefecfa0c75c8c1b32104115e93739087" target="_top" xlink:title=" ">
<polygon fill="white" stroke="#666666" points="277.25,-78 148.75,-78 148.75,-58 277.25,-58 277.25,-78"/>
<text xml:space="preserve" text-anchor="middle" x="213" y="-64.5" font-family="Helvetica,sans-Serif" font-size="10.00">AsyncClient::AsyncClient</text>
</a>
</g>
</g>
<!-- Node4&#45;&gt;Node13 -->
<g id="edge7_Node000004_Node000013" class="edge">
<title>Node4&#45;&gt;Node13</title>
<g id="a_edge7_Node000004_Node000013"><a xlink:title=" ">
<path fill="none" stroke="#63b8ff" d="M301.78,-80.34C294.09,-79.26 285.88,-78.11 277.67,-76.95"/>
<polygon fill="#63b8ff" stroke="#63b8ff" points="301.07,-83.78 311.46,-81.7 302.04,-76.85 301.07,-83.78"/>
</a>
</g>
</g>
<!-- Node16 -->
<g id="Node000016" class="node">
<title>Node16</title>
<g id="a_Node000016"><a xlink:href="class_async_client.html#a575c12664279634155259e007c6a104f" target="_top" xlink:title=" ">
<polygon fill="white" stroke="#666666" points="271.25,-40 154.75,-40 154.75,-20 271.25,-20 271.25,-40"/>
<text xml:space="preserve" text-anchor="middle" x="213" y="-26.5" font-family="Helvetica,sans-Serif" font-size="10.00">AsyncClient::operator=</text>
</a>
</g>
</g>
<!-- Node4&#45;&gt;Node16 -->
<g id="edge10_Node000004_Node000016" class="edge">
<title>Node4&#45;&gt;Node16</title>
<g id="a_edge10_Node000004_Node000016"><a xlink:title=" ">
<path fill="none" stroke="#63b8ff" d="M316.52,-69.65C304.87,-62.65 290.68,-54.77 277.25,-49 269.77,-45.79 261.57,-42.9 253.63,-40.4"/>
<polygon fill="#63b8ff" stroke="#63b8ff" points="314.39,-72.45 324.74,-74.71 318.06,-66.49 314.39,-72.45"/>
</a>
</g>
</g>
<!-- Node5&#45;&gt;Node3 -->
<g id="edge5_Node000005_Node000003" class="edge">
<title>Node5&#45;&gt;Node3</title>
<g id="a_edge5_Node000005_Node000003"><a xlink:title=" ">
<path fill="none" stroke="#63b8ff" d="M158.36,-137.18C139.23,-141.88 117.96,-147.11 99.9,-151.55"/>
<polygon fill="#63b8ff" stroke="#63b8ff" points="158.99,-140.63 167.87,-134.85 157.32,-133.83 158.99,-140.63"/>
</a>
</g>
</g>
<!-- Node6 -->
<g id="Node000006" class="node">
<title>Node6</title>
<g id="a_Node000006"><a xlink:href="class_async_client.html#aaa5b952568c85d25c32d0dff8ec74794" target="_top" xlink:title=" ">
<polygon fill="#fff0f0" stroke="red" points="111.25,-134 1.5,-134 1.5,-114 111.25,-114 111.25,-134"/>
<text xml:space="preserve" text-anchor="middle" x="56.38" y="-120.5" font-family="Helvetica,sans-Serif" font-size="10.00">AsyncClient::connect</text>
</a>
</g>
</g>
<!-- Node5&#45;&gt;Node6 -->
<g id="edge6_Node000005_Node000006" class="edge">
<title>Node5&#45;&gt;Node6</title>
<g id="a_edge6_Node000005_Node000006"><a xlink:title=" ">
<path fill="none" stroke="#63b8ff" d="M143.8,-124C133.07,-124 122.11,-124 111.75,-124"/>
<polygon fill="#63b8ff" stroke="#63b8ff" points="143.79,-127.5 153.79,-124 143.79,-120.5 143.79,-127.5"/>
</a>
</g>
</g>
<!-- Node13&#45;&gt;Node13 -->
<g id="edge9_Node000013_Node000013" class="edge">
<title>Node13&#45;&gt;Node13</title>
<g id="a_edge9_Node000013_Node000013"><a xlink:title=" ">
<path fill="none" stroke="#63b8ff" d="M235.98,-89.44C233.02,-93.3 225.36,-96 213,-96 190.4,-96 183.52,-86.98 192.34,-78.34"/>
<polygon fill="#63b8ff" stroke="#63b8ff" points="239.44,-88.89 233.97,-79.82 232.59,-90.32 239.44,-88.89"/>
</a>
</g>
</g>
<!-- Node14 -->
<g id="Node000014" class="node">
<title>Node14</title>
<g id="a_Node000014"><a xlink:href="class_async_server.html#a51e55999b79eec50bd68e899b8ddd4e4" target="_top" xlink:title=" ">
<polygon fill="#fff0f0" stroke="red" points="112.75,-78 0,-78 0,-58 112.75,-58 112.75,-78"/>
<text xml:space="preserve" text-anchor="middle" x="56.38" y="-64.5" font-family="Helvetica,sans-Serif" font-size="10.00">AsyncServer::_accept</text>
</a>
</g>
</g>
<!-- Node13&#45;&gt;Node14 -->
<g id="edge8_Node000013_Node000014" class="edge">
<title>Node13&#45;&gt;Node14</title>
<g id="a_edge8_Node000013_Node000014"><a xlink:title=" ">
<path fill="none" stroke="#63b8ff" d="M137.18,-68C129.01,-68 120.81,-68 112.94,-68"/>
<polygon fill="#63b8ff" stroke="#63b8ff" points="137.15,-71.5 147.15,-68 137.15,-64.5 137.15,-71.5"/>
</a>
</g>
</g>
<!-- Node17&#45;&gt;Node5 -->
<g id="edge12_Node000017_Node000005" class="edge">
<title>Node17&#45;&gt;Node5</title>
<g id="a_edge12_Node000017_Node000005"><a xlink:title=" ">
<path fill="none" stroke="#63b8ff" d="M315.66,-65.04C314.84,-65.69 314.03,-66.34 313.25,-67 295.43,-81.96 297.06,-92.8 277.25,-105 271.69,-108.43 265.46,-111.27 259.15,-113.62"/>
<polygon fill="#63b8ff" stroke="#63b8ff" points="317.53,-68.01 323.59,-59.32 313.43,-62.33 317.53,-68.01"/>
</a>
</g>
</g>
<!-- Node17&#45;&gt;Node13 -->
<g id="edge13_Node000017_Node000013" class="edge">
<title>Node17&#45;&gt;Node13</title>
<g id="a_edge13_Node000017_Node000013"><a xlink:title=" ">
<path fill="none" stroke="#63b8ff" d="M303.98,-53.94C295.69,-55.24 286.7,-56.64 277.71,-58.04"/>
<polygon fill="#63b8ff" stroke="#63b8ff" points="304.33,-57.43 313.67,-52.43 303.25,-50.51 304.33,-57.43"/>
</a>
</g>
</g>
<!-- Node17&#45;&gt;Node16 -->
<g id="edge14_Node000017_Node000016" class="edge">
<title>Node17&#45;&gt;Node16</title>
<g id="a_edge14_Node000017_Node000016"><a xlink:title=" ">
<path fill="none" stroke="#63b8ff" d="M303.84,-42.63C293.71,-41.21 282.55,-39.64 271.64,-38.11"/>
<polygon fill="#63b8ff" stroke="#63b8ff" points="303.28,-46.09 313.67,-44.02 304.25,-39.16 303.28,-46.09"/>
</a>
</g>
</g>
<!-- Node18&#45;&gt;Node5 -->
<g id="edge16_Node000018_Node000005" class="edge">
<title>Node18&#45;&gt;Node5</title>
<g id="a_edge16_Node000018_Node000005"><a xlink:title=" ">
<path fill="none" stroke="#63b8ff" d="M314.62,-27.5C314.15,-27.99 313.69,-28.49 313.25,-29 288.76,-57.23 305.59,-80.63 277.25,-105 273.25,-108.44 268.65,-111.25 263.78,-113.56"/>
<polygon fill="#63b8ff" stroke="#63b8ff" points="316.62,-30.39 322.01,-21.27 312.11,-25.04 316.62,-30.39"/>
</a>
</g>
</g>
<!-- Node18&#45;&gt;Node13 -->
<g id="edge17_Node000018_Node000013" class="edge">
<title>Node18&#45;&gt;Node13</title>
<g id="a_edge17_Node000018_Node000013"><a xlink:title=" ">
<path fill="none" stroke="#63b8ff" d="M316.32,-26.36C301.83,-35.42 285.1,-45.52 277.25,-49 270.02,-52.2 262.09,-55.06 254.36,-57.53"/>
<polygon fill="#63b8ff" stroke="#63b8ff" points="317.98,-29.46 324.58,-21.17 314.25,-23.53 317.98,-29.46"/>
</a>
</g>
</g>
<!-- Node18&#45;&gt;Node16 -->
<g id="edge18_Node000018_Node000016" class="edge">
<title>Node18&#45;&gt;Node16</title>
<g id="a_edge18_Node000018_Node000016"><a xlink:title=" ">
<path fill="none" stroke="#63b8ff" d="M302.04,-16.24C292.42,-17.75 281.96,-19.38 271.71,-20.98"/>
<polygon fill="#63b8ff" stroke="#63b8ff" points="302.44,-19.72 311.78,-14.72 301.36,-12.81 302.44,-19.72"/>
</a>
</g>
</g>
<!-- Node19&#45;&gt;Node5 -->
<g id="edge20_Node000019_Node000005" class="edge">
<title>Node19&#45;&gt;Node5</title>
<g id="a_edge20_Node000019_Node000005"><a xlink:title=" ">
<path fill="none" stroke="#63b8ff" d="M301.83,-124C292.02,-124 281.35,-124 270.94,-124"/>
<polygon fill="#63b8ff" stroke="#63b8ff" points="301.76,-127.5 311.76,-124 301.76,-120.5 301.76,-127.5"/>
</a>
</g>
</g>
<!-- Node19&#45;&gt;Node13 -->
<g id="edge21_Node000019_Node000013" class="edge">
<title>Node19&#45;&gt;Node13</title>
<g id="a_edge21_Node000019_Node000013"><a xlink:title=" ">
<path fill="none" stroke="#63b8ff" d="M307.9,-109.08C285.72,-99.38 257.37,-86.97 237.65,-78.35"/>
<polygon fill="#63b8ff" stroke="#63b8ff" points="306.27,-112.19 316.84,-112.99 309.08,-105.78 306.27,-112.19"/>
</a>
</g>
</g>
<!-- Node19&#45;&gt;Node16 -->
<g id="edge22_Node000019_Node000016" class="edge">
<title>Node19&#45;&gt;Node16</title>
<g id="a_edge22_Node000019_Node000016"><a xlink:title=" ">
<path fill="none" stroke="#63b8ff" d="M315.06,-106.75C314.44,-106.17 313.83,-105.59 313.25,-105 292.46,-83.95 300.88,-66.8 277.25,-49 272.67,-45.55 267.47,-42.72 262.06,-40.41"/>
<polygon fill="#63b8ff" stroke="#63b8ff" points="312.58,-109.24 322.6,-112.68 316.91,-103.75 312.58,-109.24"/>
</a>
</g>
</g>
</g>
</svg>
