<?xml version="1.0" encoding="UTF-8" standalone="no"?>
<!DOCTYPE svg PUBLIC "-//W3C//DTD SVG 1.1//EN"
 "http://www.w3.org/Graphics/SVG/1.1/DTD/svg11.dtd">
<!-- Generated by graphviz version 14.1.2 (20260124.0452)
 -->
<!-- Title: _handle_async_event Pages: 1 -->
<!--zoomable 626 -->

<svg id="main" version="1.1" xmlns="http://www.w3.org/2000/svg" xmlns:xlink="http://www.w3.org/1999/xlink" xml:space="preserve" onload="init(evt)">

<style type="text/css"><![CDATA[
.node, .edge {opacity: 0.7;}
.node.selected, .edge.selected {opacity: 1;}
.edge:hover path { stroke: red; }
.edge:hover polygon { stroke: red; fill: red; }
]]></style>

<defs>
  <circle id="rim" cx="0" cy="0" r="7"/>
  <circle id="rim2" cx="0" cy="0" r="3.5"/>
  <g id="zoomPlus">
    <use xlink:href="#rim" fill="#404040"><set attributeName="fill" to="#808080" begin="zoomplus.mouseover" end="zoomplus.mouseout"/></use>
    <path d="M-4,0h8M0,-4v8" fill="none" stroke="white" stroke-width="1.5" pointer-events="none"/>
  </g>
  <g id="zoomMin">
    <use xlink:href="#rim" fill="#404040"><set attributeName="fill" to="#808080" begin="zoomminus.mouseover" end="zoomminus.mouseout"/></use>
    <path d="M-4,0h8" fill="none" stroke="white" stroke-width="1.5" pointer-events="none"/>
  </g>
  <g id="arrowUp" transform="translate(30 24)">
    <use xlink:href="#rim"/>
    <path pointer-events="none" fill="none" stroke="white" stroke-width="1.5" d="M0,-3.0v7 M-2.5,-0.5L0,-3.0L2.5,-0.5"/>
  </g>
  <g id="arrowRight" transform="rotate(90) translate(36 -43)">
    <use xlink:href="#rim"/>
    <path pointer-events="none" fill="none" stroke="white" stroke-width="1.5" d="M0,-3.0v7 M-2.5,-0.5L0,-3.0L2.5,-0.5"/>
  </g>
  <g id="arrowDown" transform="rotate(180) translate(-30 -48)">
    <use xlink:href="#rim"/>
    <path pointer-events="none" fill="none" stroke="white" stroke-width="1.5" d="M0,-3.0v7 M-2.5,-0.5L0,-3.0L2.5,-0.5"/>
  </g>
  <g id="arrowLeft" transform="rotate(270) translate(-36 17)">
    <use xlink:href="#rim"/>
    <path pointer-events="none" fill="none" stroke="white" stroke-width="1.5" d="M0,-3.0v7 M-2.5,-0.5L0,-3.0L2.5,-0.5"/>
  </g>
  <g id="resetDef">
    <use xlink:href="#rim2" fill="#404040"><set attributeName="fill" to="#808080" begin="reset.mouseover" end="reset.mouseout"/></use>
  </g>
</defs>
<script type="application/ecmascript">
var viewWidth = 744;
var viewHeight = 626;
var sectionId = 'dynsection-5';
</script>
<script type="application/ecmascript" xlink:href="svg.min.js"/>
<svg id="graph" class="graph">
<g id="viewport">
<title>_handle_async_event</title>
<!-- Node1 -->
<g id="Node000001" class="node">
<title>Node1</title>
<g id="a_Node000001"><a xlink:title=" ">
<polygon fill="#999999" stroke="#666666" points="110.5,-352 0,-352 0,-332 110.5,-332 110.5,-352"/>
<text xml:space="preserve" text-anchor="middle" x="55.25" y="-338.5" font-family="Helvetica,sans-Serif" font-size="10.00">_handle_async_event</text>
</a>
</g>
</g>
<!-- Node2 -->
<g id="Node000002" class="node">
<title>Node2</title>
<g id="a_Node000002"><a xlink:href="_async_t_c_p_8cpp.html#aa1f9a74c3df252a9b6159bd188b81ef2" target="_top" xlink:title=" ">
<polygon fill="white" stroke="#666666" points="279.5,-584 149.5,-584 149.5,-564 279.5,-564 279.5,-584"/>
<text xml:space="preserve" text-anchor="middle" x="214.5" y="-570.5" font-family="Helvetica,sans-Serif" font-size="10.00">_remove_events_with_arg</text>
</a>
</g>
</g>
<!-- Node1&#45;&gt;Node2 -->
<g id="edge1_Node000001_Node000002" class="edge">
<title>Node1&#45;&gt;Node2</title>
<g id="a_edge1_Node000001_Node000002"><a xlink:title=" ">
<path fill="none" stroke="#63b8ff" d="M57.47,-352.24C62.11,-386.46 81.76,-497.86 146.5,-555 147.6,-555.97 148.74,-556.89 149.92,-557.76"/>
<polygon fill="#63b8ff" stroke="#63b8ff" points="147.95,-560.66 158.33,-562.8 151.55,-554.66 147.95,-560.66"/>
</a>
</g>
</g>
<!-- Node3 -->
<g id="Node000003" class="node">
<title>Node3</title>
<g id="a_Node000003"><a xlink:href="class_async_server.html#a68b4c50c0bf8f5109b9981a87d5d34e5" target="_top" xlink:title=" ">
<polygon fill="white" stroke="#666666" points="281.38,-546 147.62,-546 147.62,-526 281.38,-526 281.38,-546"/>
<text xml:space="preserve" text-anchor="middle" x="214.5" y="-532.5" font-family="Helvetica,sans-Serif" font-size="10.00">AsyncServer::_s_accepted</text>
</a>
</g>
</g>
<!-- Node1&#45;&gt;Node3 -->
<g id="edge2_Node000001_Node000003" class="edge">
<title>Node1&#45;&gt;Node3</title>
<g id="a_edge2_Node000001_Node000003"><a xlink:title=" ">
<path fill="none" stroke="#63b8ff" d="M61.3,-352.46C73.55,-377.18 106.78,-440.37 146.5,-484 158.7,-497.41 174.67,-509.94 187.95,-519.35"/>
<polygon fill="#63b8ff" stroke="#63b8ff" points="185.58,-521.97 195.81,-524.75 189.55,-516.2 185.58,-521.97"/>
</a>
</g>
</g>
<!-- Node6 -->
<g id="Node000006" class="node">
<title>Node6</title>
<g id="a_Node000006"><a xlink:href="class_async_client.html#ac4cdb0990fa85f03da98d1c98b1f8611" target="_top" xlink:title=" ">
<polygon fill="white" stroke="#666666" points="282.5,-409 146.5,-409 146.5,-389 282.5,-389 282.5,-409"/>
<text xml:space="preserve" text-anchor="middle" x="214.5" y="-395.5" font-family="Helvetica,sans-Serif" font-size="10.00">AsyncClient::_s_connected</text>
</a>
</g>
</g>
<!-- Node1&#45;&gt;Node6 -->
<g id="edge5_Node000001_Node000006" class="edge">
<title>Node1&#45;&gt;Node6</title>
<g id="a_edge5_Node000001_Node000006"><a xlink:title=" ">
<path fill="none" stroke="#63b8ff" d="M85.09,-352.45C110.06,-361.51 146.41,-374.68 174.07,-384.71"/>
<polygon fill="#63b8ff" stroke="#63b8ff" points="172.56,-387.88 183.15,-388 174.94,-381.3 172.56,-387.88"/>
</a>
</g>
</g>
<!-- Node27 -->
<g id="Node000027" class="node">
<title>Node27</title>
<g id="a_Node000027"><a xlink:href="class_async_client.html#a3f629c9072da183879a9c67878b374cc" target="_top" xlink:title=" ">
<polygon fill="white" stroke="#666666" points="267.88,-162 161.12,-162 161.12,-130 267.88,-130 267.88,-162"/>
<text xml:space="preserve" text-anchor="start" x="169.12" y="-148.5" font-family="Helvetica,sans-Serif" font-size="10.00">AsyncClient::_s_dns</text>
<text xml:space="preserve" text-anchor="middle" x="214.5" y="-136.5" font-family="Helvetica,sans-Serif" font-size="10.00">_found</text>
</a>
</g>
</g>
<!-- Node1&#45;&gt;Node27 -->
<g id="edge19_Node000001_Node000027" class="edge">
<title>Node1&#45;&gt;Node27</title>
<g id="a_edge19_Node000001_Node000027"><a xlink:title=" ">
<path fill="none" stroke="#63b8ff" d="M58.93,-331.51C67,-301.98 93.81,-217.32 146.5,-171 147.97,-169.7 149.52,-168.47 151.13,-167.3"/>
<polygon fill="#63b8ff" stroke="#63b8ff" points="152.93,-170.3 159.59,-162.05 149.24,-164.35 152.93,-170.3"/>
</a>
</g>
</g>
<!-- Node39 -->
<g id="Node000039" class="node">
<title>Node39</title>
<g id="a_Node000039"><a xlink:href="class_async_client.html#a9ff634e3b1237eab65178b007326367e" target="_top" xlink:title=" ">
<polygon fill="white" stroke="#666666" points="269.75,-200 159.25,-200 159.25,-180 269.75,-180 269.75,-200"/>
<text xml:space="preserve" text-anchor="middle" x="214.5" y="-186.5" font-family="Helvetica,sans-Serif" font-size="10.00">AsyncClient::_s_error</text>
</a>
</g>
</g>
<!-- Node1&#45;&gt;Node39 -->
<g id="edge23_Node000001_Node000039" class="edge">
<title>Node1&#45;&gt;Node39</title>
<g id="a_edge23_Node000001_Node000039"><a xlink:title=" ">
<path fill="none" stroke="#63b8ff" d="M60.35,-331.52C70.74,-306.36 100.58,-242.16 146.5,-209 148.3,-207.7 150.19,-206.49 152.14,-205.36"/>
<polygon fill="#63b8ff" stroke="#63b8ff" points="153.54,-208.57 160.98,-201.04 150.46,-202.28 153.54,-208.57"/>
</a>
</g>
</g>
<!-- Node41 -->
<g id="Node000041" class="node">
<title>Node41</title>
<g id="a_Node000041"><a xlink:href="class_async_client.html#a6a69c67e1a22660766affb64700c2276" target="_top" xlink:title=" ">
<polygon fill="white" stroke="#666666" points="265.25,-475 163.75,-475 163.75,-455 265.25,-455 265.25,-475"/>
<text xml:space="preserve" text-anchor="middle" x="214.5" y="-461.5" font-family="Helvetica,sans-Serif" font-size="10.00">AsyncClient::_s_fin</text>
</a>
</g>
</g>
<!-- Node1&#45;&gt;Node41 -->
<g id="edge27_Node000001_Node000041" class="edge">
<title>Node1&#45;&gt;Node41</title>
<g id="a_edge27_Node000001_Node000041"><a xlink:title=" ">
<path fill="none" stroke="#63b8ff" d="M67.95,-352.42C84.89,-367.39 117.44,-395.64 146.5,-418 160.01,-428.39 175.56,-439.36 188.28,-448.09"/>
<polygon fill="#63b8ff" stroke="#63b8ff" points="186.3,-450.97 196.53,-453.7 190.24,-445.18 186.3,-450.97"/>
</a>
</g>
</g>
<!-- Node43 -->
<g id="Node000043" class="node">
<title>Node43</title>
<g id="a_Node000043"><a xlink:href="class_async_client.html#abe187c005c73fe6c0c94e1b3b20b55de" target="_top" xlink:title=" ">
<polygon fill="white" stroke="#666666" points="267.5,-295 161.5,-295 161.5,-275 267.5,-275 267.5,-295"/>
<text xml:space="preserve" text-anchor="middle" x="214.5" y="-281.5" font-family="Helvetica,sans-Serif" font-size="10.00">AsyncClient::_s_poll</text>
</a>
</g>
</g>
<!-- Node1&#45;&gt;Node43 -->
<g id="edge33_Node000001_Node000043" class="edge">
<title>Node1&#45;&gt;Node43</title>
<g id="a_edge33_Node000001_Node000043"><a xlink:title=" ">
<path fill="none" stroke="#63b8ff" d="M85.09,-331.55C110.06,-322.49 146.41,-309.32 174.07,-299.29"/>
<polygon fill="#63b8ff" stroke="#63b8ff" points="174.94,-302.7 183.15,-296 172.56,-296.12 174.94,-302.7"/>
</a>
</g>
</g>
<!-- Node45 -->
<g id="Node000045" class="node">
<title>Node45</title>
<g id="a_Node000045"><a xlink:href="class_async_client.html#af8136d3085c8948078a131bfb9430ec6" target="_top" xlink:title=" ">
<polygon fill="white" stroke="#666666" points="269.38,-238 159.62,-238 159.62,-218 269.38,-218 269.38,-238"/>
<text xml:space="preserve" text-anchor="middle" x="214.5" y="-224.5" font-family="Helvetica,sans-Serif" font-size="10.00">AsyncClient::_s_recv</text>
</a>
</g>
</g>
<!-- Node1&#45;&gt;Node45 -->
<g id="edge39_Node000001_Node000045" class="edge">
<title>Node1&#45;&gt;Node45</title>
<g id="a_edge39_Node000001_Node000045"><a xlink:title=" ">
<path fill="none" stroke="#63b8ff" d="M67.11,-331.71C83.55,-316.4 116.07,-287.18 146.5,-266 158.05,-257.97 171.42,-250.12 183.16,-243.66"/>
<polygon fill="#63b8ff" stroke="#63b8ff" points="184.5,-246.91 191.64,-239.09 181.18,-240.75 184.5,-246.91"/>
</a>
</g>
</g>
<!-- Node49 -->
<g id="Node000049" class="node">
<title>Node49</title>
<g id="a_Node000049"><a xlink:href="class_async_client.html#a8e507d50b4cc3ae8e90f2e1c1ebf5f61" target="_top" xlink:title=" ">
<polygon fill="white" stroke="#666666" points="269.38,-352 159.62,-352 159.62,-332 269.38,-332 269.38,-352"/>
<text xml:space="preserve" text-anchor="middle" x="214.5" y="-338.5" font-family="Helvetica,sans-Serif" font-size="10.00">AsyncClient::_s_sent</text>
</a>
</g>
</g>
<!-- Node1&#45;&gt;Node49 -->
<g id="edge45_Node000001_Node000049" class="edge">
<title>Node1&#45;&gt;Node49</title>
<g id="a_edge45_Node000001_Node000049"><a xlink:title=" ">
<path fill="none" stroke="#63b8ff" d="M110.81,-342C122.83,-342 135.68,-342 148.08,-342"/>
<polygon fill="#63b8ff" stroke="#63b8ff" points="147.79,-345.5 157.79,-342 147.79,-338.5 147.79,-345.5"/>
</a>
</g>
</g>
<!-- Node4 -->
<g id="Node000004" class="node">
<title>Node4</title>
<g id="a_Node000004"><a xlink:href="class_async_server.html#ae12ee87206611e09ed5e644c6baf1c96" target="_top" xlink:title=" ">
<polygon fill="white" stroke="#666666" points="447.38,-580 324.12,-580 324.12,-560 447.38,-560 447.38,-580"/>
<text xml:space="preserve" text-anchor="middle" x="385.75" y="-566.5" font-family="Helvetica,sans-Serif" font-size="10.00">AsyncServer::_accepted</text>
</a>
</g>
</g>
<!-- Node3&#45;&gt;Node4 -->
<g id="edge3_Node000003_Node000004" class="edge">
<title>Node3&#45;&gt;Node4</title>
<g id="a_edge3_Node000003_Node000004"><a xlink:title=" ">
<path fill="none" stroke="#63b8ff" d="M267.66,-546.48C284.71,-549.9 303.84,-553.75 321.61,-557.32"/>
<polygon fill="#63b8ff" stroke="#63b8ff" points="320.78,-560.72 331.28,-559.26 322.16,-553.86 320.78,-560.72"/>
</a>
</g>
</g>
<!-- Node5 -->
<g id="Node000005" class="node">
<title>Node5</title>
<g id="a_Node000005"><a xlink:href="class_async_server.html#aa6357ae6df41ef23d53d2a73759f5016" target="_top" xlink:title=" ">
<polygon fill="white" stroke="#666666" points="453,-618 318.5,-618 318.5,-598 453,-598 453,-618"/>
<text xml:space="preserve" text-anchor="middle" x="385.75" y="-604.5" font-family="Helvetica,sans-Serif" font-size="10.00">AsyncServer::AsyncServer</text>
</a>
</g>
</g>
<!-- Node3&#45;&gt;Node5 -->
<g id="edge4_Node000003_Node000005" class="edge">
<title>Node3&#45;&gt;Node5</title>
<g id="a_edge4_Node000003_Node000005"><a xlink:title=" ">
<path fill="none" stroke="#63b8ff" d="M263.15,-546.42C269.86,-548.77 276.51,-551.6 282.5,-555 301.64,-565.87 299.38,-578.1 318.5,-589 321.28,-590.58 324.2,-592.04 327.2,-593.39"/>
<polygon fill="#63b8ff" stroke="#63b8ff" points="325.64,-596.53 336.23,-596.97 328.22,-590.03 325.64,-596.53"/>
</a>
</g>
</g>
<!-- Node7 -->
<g id="Node000007" class="node">
<title>Node7</title>
<g id="a_Node000007"><a xlink:href="class_async_client.html#a045a3529852917ea1d4dfff5d9c3ba90" target="_top" xlink:title=" ">
<polygon fill="white" stroke="#666666" points="448.5,-466 323,-466 323,-446 448.5,-446 448.5,-466"/>
<text xml:space="preserve" text-anchor="middle" x="385.75" y="-452.5" font-family="Helvetica,sans-Serif" font-size="10.00">AsyncClient::_connected</text>
</a>
</g>
</g>
<!-- Node6&#45;&gt;Node7 -->
<g id="edge6_Node000006_Node000007" class="edge">
<title>Node6&#45;&gt;Node7</title>
<g id="a_edge6_Node000006_Node000007"><a xlink:title=" ">
<path fill="none" stroke="#63b8ff" d="M246.54,-409.45C273.66,-418.59 313.24,-431.92 343.1,-441.97"/>
<polygon fill="#63b8ff" stroke="#63b8ff" points="341.59,-445.16 352.18,-445.03 343.82,-438.52 341.59,-445.16"/>
</a>
</g>
</g>
<!-- Node8 -->
<g id="Node000008" class="node">
<title>Node8</title>
<g id="a_Node000008"><a xlink:href="class_async_client.html#ac0c28dd08517243bc6d64d32f982a3cc" target="_top" xlink:title=" ">
<polygon fill="white" stroke="#666666" points="591.62,-374 500.62,-374 500.62,-354 591.62,-354 591.62,-374"/>
<text xml:space="preserve" text-anchor="middle" x="546.12" y="-360.5" font-family="Helvetica,sans-Serif" font-size="10.00">AsyncClient::pcb</text>
</a>
</g>
</g>
<!-- Node6&#45;&gt;Node8 -->
<g id="edge18_Node000006_Node000008" class="edge">
<title>Node6&#45;&gt;Node8</title>
<g id="a_edge18_Node000006_Node000008"><a xlink:title=" ">
<path fill="none" stroke="#63b8ff" d="M282.93,-394.17C330.53,-390.48 395.77,-384.87 453,-378 464.69,-376.6 477.17,-374.86 489.05,-373.09"/>
<polygon fill="#63b8ff" stroke="#63b8ff" points="489.36,-376.59 498.72,-371.63 488.31,-369.67 489.36,-376.59"/>
</a>
</g>
</g>
<!-- Node9 -->
<g id="Node000009" class="node">
<title>Node9</title>
<g id="a_Node000009"><a xlink:href="class_async_client.html#aefecfa0c75c8c1b32104115e93739087" target="_top" xlink:title=" ">
<polygon fill="white" stroke="#666666" points="450,-200 321.5,-200 321.5,-180 450,-180 450,-200"/>
<text xml:space="preserve" text-anchor="middle" x="385.75" y="-186.5" font-family="Helvetica,sans-Serif" font-size="10.00">AsyncClient::AsyncClient</text>
</a>
</g>
</g>
<!-- Node6&#45;&gt;Node9 -->
<g id="edge8_Node000006_Node000009" class="edge">
<title>Node6&#45;&gt;Node9</title>
<g id="a_edge8_Node000006_Node000009"><a xlink:title=" ">
<path fill="none" stroke="#63b8ff" d="M243.93,-388.63C257.31,-382.45 272.49,-373.37 282.5,-361 315.93,-319.7 289.24,-291.35 318.5,-247 329.02,-231.05 345.22,-217 358.97,-206.84"/>
<polygon fill="#63b8ff" stroke="#63b8ff" points="360.62,-209.96 366.76,-201.32 356.58,-204.24 360.62,-209.96"/>
</a>
</g>
</g>
<!-- Node7&#45;&gt;Node8 -->
<g id="edge7_Node000007_Node000008" class="edge">
<title>Node7&#45;&gt;Node8</title>
<g id="a_edge7_Node000007_Node000008"><a xlink:title=" ">
<path fill="none" stroke="#63b8ff" d="M421.27,-445.61C431.73,-441.91 443.08,-437.31 453,-432 479.56,-417.77 506.97,-396.55 524.9,-381.61"/>
<polygon fill="#63b8ff" stroke="#63b8ff" points="526.85,-384.55 532.21,-375.42 522.32,-379.21 526.85,-384.55"/>
</a>
</g>
</g>
<!-- Node9&#45;&gt;Node8 -->
<g id="edge17_Node000009_Node000008" class="edge">
<title>Node9&#45;&gt;Node8</title>
<g id="a_edge17_Node000009_Node000008"><a xlink:title=" ">
<path fill="none" stroke="#63b8ff" d="M433.35,-200.39C440.68,-203.74 447.6,-208.16 453,-214 493.97,-258.36 447.57,-301.08 489,-345 489.71,-345.75 490.45,-346.48 491.22,-347.17"/>
<polygon fill="#63b8ff" stroke="#63b8ff" points="488.9,-349.82 499.1,-352.7 492.92,-344.09 488.9,-349.82"/>
</a>
</g>
</g>
<!-- Node10 -->
<g id="Node000010" class="node">
<title>Node10</title>
<g id="a_Node000010"><a xlink:href="class_async_client.html#ab0422e5254ea4fbac9f87188a018ebc4" target="_top" xlink:title=" ">
<polygon fill="white" stroke="#666666" points="603.25,-222 489,-222 489,-190 603.25,-190 603.25,-222"/>
<text xml:space="preserve" text-anchor="start" x="497" y="-208.5" font-family="Helvetica,sans-Serif" font-size="10.00">AsyncClient::_allocate</text>
<text xml:space="preserve" text-anchor="middle" x="546.12" y="-196.5" font-family="Helvetica,sans-Serif" font-size="10.00">_closed_slot</text>
</a>
</g>
</g>
<!-- Node9&#45;&gt;Node10 -->
<g id="edge9_Node000009_Node000010" class="edge">
<title>Node9&#45;&gt;Node10</title>
<g id="a_edge9_Node000009_Node000010"><a xlink:title=" ">
<path fill="none" stroke="#63b8ff" d="M450.25,-196.42C459.15,-197.31 468.32,-198.24 477.29,-199.15"/>
<polygon fill="#63b8ff" stroke="#63b8ff" points="476.71,-202.61 487.01,-200.13 477.41,-195.64 476.71,-202.61"/>
</a>
</g>
</g>
<!-- Node11 -->
<g id="Node000011" class="node">
<title>Node11</title>
<g id="a_Node000011"><a xlink:href="class_async_client.html#a98ff872bc84919f006f3bb8a249ed36d" target="_top" xlink:title=" ">
<polygon fill="#fff0f0" stroke="red" points="598,-336 494.25,-336 494.25,-316 598,-316 598,-336"/>
<text xml:space="preserve" text-anchor="middle" x="546.12" y="-322.5" font-family="Helvetica,sans-Serif" font-size="10.00">AsyncClient::_close</text>
</a>
</g>
</g>
<!-- Node9&#45;&gt;Node11 -->
<g id="edge10_Node000009_Node000011" class="edge">
<title>Node9&#45;&gt;Node11</title>
<g id="a_edge10_Node000009_Node000011"><a xlink:title=" ">
<path fill="none" stroke="#63b8ff" d="M431.84,-200.41C439.59,-203.76 447.05,-208.18 453,-214 484.68,-245 456.99,-276.34 489,-307 489.89,-307.85 490.82,-308.67 491.79,-309.45"/>
<polygon fill="#63b8ff" stroke="#63b8ff" points="489.66,-312.24 499.97,-314.7 493.44,-306.35 489.66,-312.24"/>
</a>
</g>
</g>
<!-- Node20 -->
<g id="Node000020" class="node">
<title>Node20</title>
<g id="a_Node000020"><a xlink:href="_async_t_c_p_8cpp.html#a61ff9f7f886bbbbcdc1daca453828934" target="_top" xlink:title=" ">
<polygon fill="#fff0f0" stroke="red" points="575.88,-172 516.38,-172 516.38,-152 575.88,-152 575.88,-172"/>
<text xml:space="preserve" text-anchor="middle" x="546.12" y="-158.5" font-family="Helvetica,sans-Serif" font-size="10.00">_tcp_error</text>
</a>
</g>
</g>
<!-- Node9&#45;&gt;Node20 -->
<g id="edge13_Node000009_Node000020" class="edge">
<title>Node9&#45;&gt;Node20</title>
<g id="a_edge13_Node000009_Node000020"><a xlink:title=" ">
<path fill="none" stroke="#63b8ff" d="M445.72,-179.57C465.49,-176.08 487.06,-172.27 505.04,-169.09"/>
<polygon fill="#63b8ff" stroke="#63b8ff" points="505.55,-172.55 514.79,-167.36 504.33,-165.66 505.55,-172.55"/>
</a>
</g>
</g>
<!-- Node22 -->
<g id="Node000022" class="node">
<title>Node22</title>
<g id="a_Node000022"><a xlink:href="_async_t_c_p_8cpp.html#ad4b2c6c935c211eef5884f25a950e445" target="_top" xlink:title=" ">
<polygon fill="#fff0f0" stroke="red" points="573.62,-298 518.62,-298 518.62,-278 573.62,-278 573.62,-298"/>
<text xml:space="preserve" text-anchor="middle" x="546.12" y="-284.5" font-family="Helvetica,sans-Serif" font-size="10.00">_tcp_poll</text>
</a>
</g>
</g>
<!-- Node9&#45;&gt;Node22 -->
<g id="edge14_Node000009_Node000022" class="edge">
<title>Node9&#45;&gt;Node22</title>
<g id="a_edge14_Node000009_Node000022"><a xlink:title=" ">
<path fill="none" stroke="#63b8ff" d="M428.48,-200.49C437.14,-203.89 445.81,-208.31 453,-214 475.91,-232.13 465.9,-251.11 489,-269 494.42,-273.2 500.82,-276.49 507.32,-279.08"/>
<polygon fill="#63b8ff" stroke="#63b8ff" points="506.18,-282.39 516.78,-282.3 508.44,-275.76 506.18,-282.39"/>
</a>
</g>
</g>
<!-- Node23 -->
<g id="Node000023" class="node">
<title>Node23</title>
<g id="a_Node000023"><a xlink:href="_async_t_c_p_8cpp.html#adf7826424bf5b1035c4850f6b3307686" target="_top" xlink:title=" ">
<polygon fill="#fff0f0" stroke="red" points="575.5,-260 516.75,-260 516.75,-240 575.5,-240 575.5,-260"/>
<text xml:space="preserve" text-anchor="middle" x="546.12" y="-246.5" font-family="Helvetica,sans-Serif" font-size="10.00">_tcp_recv</text>
</a>
</g>
</g>
<!-- Node9&#45;&gt;Node23 -->
<g id="edge15_Node000009_Node000023" class="edge">
<title>Node9&#45;&gt;Node23</title>
<g id="a_edge15_Node000009_Node000023"><a xlink:title=" ">
<path fill="none" stroke="#63b8ff" d="M417.32,-200.4C428.62,-204.42 441.48,-209.21 453,-214 469.34,-220.8 472.59,-224.37 489,-231 494.35,-233.16 500.04,-235.28 505.68,-237.29"/>
<polygon fill="#63b8ff" stroke="#63b8ff" points="504.31,-240.52 514.91,-240.47 506.6,-233.9 504.31,-240.52"/>
</a>
</g>
</g>
<!-- Node26 -->
<g id="Node000026" class="node">
<title>Node26</title>
<g id="a_Node000026"><a xlink:href="_async_t_c_p_8cpp.html#a0b47280aff638ec9b80f7a87dfe54ea6" target="_top" xlink:title=" ">
<polygon fill="#fff0f0" stroke="red" points="575.5,-134 516.75,-134 516.75,-114 575.5,-114 575.5,-134"/>
<text xml:space="preserve" text-anchor="middle" x="546.12" y="-120.5" font-family="Helvetica,sans-Serif" font-size="10.00">_tcp_sent</text>
</a>
</g>
</g>
<!-- Node9&#45;&gt;Node26 -->
<g id="edge16_Node000009_Node000026" class="edge">
<title>Node9&#45;&gt;Node26</title>
<g id="a_edge16_Node000009_Node000026"><a xlink:title=" ">
<path fill="none" stroke="#63b8ff" d="M431.83,-179.59C439.09,-177.21 446.39,-174.36 453,-171 471.07,-161.82 471.15,-152.61 489,-143 494.19,-140.21 499.87,-137.71 505.55,-135.52"/>
<polygon fill="#63b8ff" stroke="#63b8ff" points="506.69,-138.83 514.95,-132.2 504.35,-132.24 506.69,-138.83"/>
</a>
</g>
</g>
<!-- Node12 -->
<g id="Node000012" class="node">
<title>Node12</title>
<g id="a_Node000012"><a xlink:href="class_async_client.html#aff6a2fbf261b25e1fcd35c11cce348a5" target="_top" xlink:title=" ">
<polygon fill="white" stroke="#666666" points="736.25,-181 639.25,-181 639.25,-149 736.25,-149 736.25,-181"/>
<text xml:space="preserve" text-anchor="start" x="647.25" y="-167.5" font-family="Helvetica,sans-Serif" font-size="10.00">AsyncClient::_free</text>
<text xml:space="preserve" text-anchor="middle" x="687.75" y="-155.5" font-family="Helvetica,sans-Serif" font-size="10.00">_closed_slot</text>
</a>
</g>
</g>
<!-- Node11&#45;&gt;Node12 -->
<g id="edge11_Node000011_Node000012" class="edge">
<title>Node11&#45;&gt;Node12</title>
<g id="a_edge11_Node000011_Node000012"><a xlink:title=" ">
<path fill="none" stroke="#63b8ff" d="M589.05,-315.6C594.14,-313.27 599.02,-310.44 603.25,-307 640.99,-276.3 665.44,-223.7 677.6,-191.86"/>
<polygon fill="#63b8ff" stroke="#63b8ff" points="680.85,-193.16 681.01,-182.57 674.28,-190.75 680.85,-193.16"/>
</a>
</g>
</g>
<!-- Node13 -->
<g id="Node000013" class="node">
<title>Node13</title>
<g id="a_Node000013"><a xlink:href="_async_t_c_p_8cpp.html#ab053d5adb5be879f37181af512213bb6" target="_top" xlink:title=" ">
<polygon fill="#fff0f0" stroke="red" points="735.5,-402 640,-402 640,-382 735.5,-382 735.5,-402"/>
<text xml:space="preserve" text-anchor="middle" x="687.75" y="-388.5" font-family="Helvetica,sans-Serif" font-size="10.00">_tcp_clear_events</text>
</a>
</g>
</g>
<!-- Node11&#45;&gt;Node13 -->
<g id="edge12_Node000011_Node000013" class="edge">
<title>Node11&#45;&gt;Node13</title>
<g id="a_edge12_Node000011_Node000013"><a xlink:title=" ">
<path fill="none" stroke="#63b8ff" d="M581.35,-336.45C588.68,-339 596.3,-341.9 603.25,-345 623.07,-353.84 644.36,-365.87 660.49,-375.55"/>
<polygon fill="#63b8ff" stroke="#63b8ff" points="658.62,-378.51 668.98,-380.72 662.26,-372.53 658.62,-378.51"/>
</a>
</g>
</g>
<!-- Node27&#45;&gt;Node9 -->
<g id="edge22_Node000027_Node000009" class="edge">
<title>Node27&#45;&gt;Node9</title>
<g id="a_edge22_Node000027_Node000009"><a xlink:title=" ">
<path fill="none" stroke="#63b8ff" d="M268.12,-159.68C288.92,-165.09 312.74,-171.28 333.41,-176.65"/>
<polygon fill="#63b8ff" stroke="#63b8ff" points="332.51,-180.03 343.06,-179.16 334.27,-173.26 332.51,-180.03"/>
</a>
</g>
</g>
<!-- Node28 -->
<g id="Node000028" class="node">
<title>Node28</title>
<g id="a_Node000028"><a xlink:href="class_async_client.html#a19dc40652b5b003288e10529ee169b65" target="_top" xlink:title=" ">
<polygon fill="white" stroke="#666666" points="448.5,-32 323,-32 323,-12 448.5,-12 448.5,-32"/>
<text xml:space="preserve" text-anchor="middle" x="385.75" y="-18.5" font-family="Helvetica,sans-Serif" font-size="10.00">AsyncClient::_dns_found</text>
</a>
</g>
</g>
<!-- Node27&#45;&gt;Node28 -->
<g id="edge20_Node000027_Node000028" class="edge">
<title>Node27&#45;&gt;Node28</title>
<g id="a_edge20_Node000027_Node000028"><a xlink:title=" ">
<path fill="none" stroke="#63b8ff" d="M237.98,-129.53C270.08,-106.01 328.79,-63 361.38,-39.12"/>
<polygon fill="#63b8ff" stroke="#63b8ff" points="363.38,-41.99 369.38,-33.26 359.24,-36.35 363.38,-41.99"/>
</a>
</g>
</g>
<!-- Node29 -->
<g id="Node000029" class="node">
<title>Node29</title>
<g id="a_Node000029"><a xlink:href="class_async_client.html#aaa5b952568c85d25c32d0dff8ec74794" target="_top" xlink:title=" ">
<polygon fill="#fff0f0" stroke="red" points="601,-20 491.25,-20 491.25,0 601,0 601,-20"/>
<text xml:space="preserve" text-anchor="middle" x="546.12" y="-6.5" font-family="Helvetica,sans-Serif" font-size="10.00">AsyncClient::connect</text>
</a>
</g>
</g>
<!-- Node28&#45;&gt;Node29 -->
<g id="edge21_Node000028_Node000029" class="edge">
<title>Node28&#45;&gt;Node29</title>
<g id="a_edge21_Node000028_Node000029"><a xlink:title=" ">
<path fill="none" stroke="#63b8ff" d="M448.89,-17.29C458.96,-16.53 469.42,-15.74 479.58,-14.97"/>
<polygon fill="#63b8ff" stroke="#63b8ff" points="479.65,-18.47 489.36,-14.23 479.13,-11.49 479.65,-18.47"/>
</a>
</g>
</g>
<!-- Node39&#45;&gt;Node9 -->
<g id="edge26_Node000039_Node000009" class="edge">
<title>Node39&#45;&gt;Node9</title>
<g id="a_edge26_Node000039_Node000009"><a xlink:title=" ">
<path fill="none" stroke="#63b8ff" d="M269.98,-190C282.74,-190 296.55,-190 310.02,-190"/>
<polygon fill="#63b8ff" stroke="#63b8ff" points="309.72,-193.5 319.72,-190 309.72,-186.5 309.72,-193.5"/>
</a>
</g>
</g>
<!-- Node40 -->
<g id="Node000040" class="node">
<title>Node40</title>
<g id="a_Node000040"><a xlink:href="class_async_client.html#a5145b1cfe1a49ba9a066eee404013835" target="_top" xlink:title=" ">
<polygon fill="white" stroke="#666666" points="596.12,-58 496.12,-58 496.12,-38 596.12,-38 596.12,-58"/>
<text xml:space="preserve" text-anchor="middle" x="546.12" y="-44.5" font-family="Helvetica,sans-Serif" font-size="10.00">AsyncClient::_error</text>
</a>
</g>
</g>
<!-- Node39&#45;&gt;Node40 -->
<g id="edge24_Node000039_Node000040" class="edge">
<title>Node39&#45;&gt;Node40</title>
<g id="a_edge24_Node000039_Node000040"><a xlink:title=" ">
<path fill="none" stroke="#63b8ff" d="M264.03,-179.62C270.47,-177.28 276.81,-174.44 282.5,-171 302.4,-158.95 299.18,-145.96 318.5,-133 385.98,-87.73 412.61,-94.7 489,-67 493.46,-65.38 498.14,-63.73 502.8,-62.11"/>
<polygon fill="#63b8ff" stroke="#63b8ff" points="503.82,-65.46 512.15,-58.91 501.55,-58.84 503.82,-65.46"/>
</a>
</g>
</g>
<!-- Node40&#45;&gt;Node12 -->
<g id="edge25_Node000040_Node000012" class="edge">
<title>Node40&#45;&gt;Node12</title>
<g id="a_edge25_Node000040_Node000012"><a xlink:title=" ">
<path fill="none" stroke="#63b8ff" d="M586.76,-58.39C592.54,-60.75 598.23,-63.59 603.25,-67 631.49,-86.14 655.73,-117.29 670.71,-139.33"/>
<polygon fill="#63b8ff" stroke="#63b8ff" points="667.66,-141.06 676.09,-147.47 673.5,-137.2 667.66,-141.06"/>
</a>
</g>
</g>
<!-- Node41&#45;&gt;Node8 -->
<g id="edge32_Node000041_Node000008" class="edge">
<title>Node41&#45;&gt;Node8</title>
<g id="a_edge32_Node000041_Node000008"><a xlink:title=" ">
<path fill="none" stroke="#63b8ff" d="M248.09,-475.47C295.66,-488.8 385.76,-506.58 453,-475 473.78,-465.24 512.06,-412.51 532.11,-383.37"/>
<polygon fill="#63b8ff" stroke="#63b8ff" points="534.79,-385.65 537.53,-375.41 529.01,-381.71 534.79,-385.65"/>
</a>
</g>
</g>
<!-- Node41&#45;&gt;Node9 -->
<g id="edge31_Node000041_Node000009" class="edge">
<title>Node41&#45;&gt;Node9</title>
<g id="a_edge31_Node000041_Node000009"><a xlink:title=" ">
<path fill="none" stroke="#63b8ff" d="M238.52,-454.51C253.34,-446.57 271.78,-434.25 282.5,-418 325.28,-353.18 278.98,-313.86 318.5,-247 328.16,-230.66 344.21,-216.67 358.08,-206.65"/>
<polygon fill="#63b8ff" stroke="#63b8ff" points="359.73,-209.76 365.99,-201.21 355.77,-203.99 359.73,-209.76"/>
</a>
</g>
</g>
<!-- Node42 -->
<g id="Node000042" class="node">
<title>Node42</title>
<g id="a_Node000042"><a xlink:href="class_async_client.html#afe295b6c577021c8946eb266ac41df51" target="_top" xlink:title=" ">
<polygon fill="white" stroke="#666666" points="431.25,-542 340.25,-542 340.25,-522 431.25,-522 431.25,-542"/>
<text xml:space="preserve" text-anchor="middle" x="385.75" y="-528.5" font-family="Helvetica,sans-Serif" font-size="10.00">AsyncClient::_fin</text>
</a>
</g>
</g>
<!-- Node41&#45;&gt;Node42 -->
<g id="edge28_Node000041_Node000042" class="edge">
<title>Node41&#45;&gt;Node42</title>
<g id="a_edge28_Node000041_Node000042"><a xlink:title=" ">
<path fill="none" stroke="#63b8ff" d="M239.51,-475.41C260.3,-484.33 291.24,-497.38 318.5,-508 326.84,-511.25 335.81,-514.6 344.39,-517.73"/>
<polygon fill="#63b8ff" stroke="#63b8ff" points="342.94,-520.92 353.53,-521.03 345.32,-514.34 342.94,-520.92"/>
</a>
</g>
</g>
<!-- Node42&#45;&gt;Node8 -->
<g id="edge30_Node000042_Node000008" class="edge">
<title>Node42&#45;&gt;Node8</title>
<g id="a_edge30_Node000042_Node000008"><a xlink:title=" ">
<path fill="none" stroke="#63b8ff" d="M429.44,-521.56C437.84,-518.17 446.17,-513.75 453,-508 477.67,-487.23 471.8,-472.28 489,-445 502.6,-423.43 519.39,-399.51 531.05,-383.3"/>
<polygon fill="#63b8ff" stroke="#63b8ff" points="533.65,-385.67 536.68,-375.52 527.98,-381.57 533.65,-385.67"/>
</a>
</g>
</g>
<!-- Node42&#45;&gt;Node13 -->
<g id="edge29_Node000042_Node000013" class="edge">
<title>Node42&#45;&gt;Node13</title>
<g id="a_edge29_Node000042_Node000013"><a xlink:title=" ">
<path fill="none" stroke="#63b8ff" d="M408.81,-521.71C461.02,-497.34 592.38,-436.04 653.95,-407.31"/>
<polygon fill="#63b8ff" stroke="#63b8ff" points="655.3,-410.54 662.88,-403.14 652.34,-404.2 655.3,-410.54"/>
</a>
</g>
</g>
<!-- Node43&#45;&gt;Node8 -->
<g id="edge38_Node000043_Node000008" class="edge">
<title>Node43&#45;&gt;Node8</title>
<g id="a_edge38_Node000043_Node000008"><a xlink:title=" ">
<path fill="none" stroke="#63b8ff" d="M267.93,-287.54C317.06,-291.27 391.89,-300.44 453,-323 470.59,-329.49 472.01,-337.06 489,-345 492.35,-346.57 495.88,-348.07 499.45,-349.5"/>
<polygon fill="#63b8ff" stroke="#63b8ff" points="498.21,-352.77 508.8,-353 500.66,-346.21 498.21,-352.77"/>
</a>
</g>
</g>
<!-- Node43&#45;&gt;Node9 -->
<g id="edge37_Node000043_Node000009" class="edge">
<title>Node43&#45;&gt;Node9</title>
<g id="a_edge37_Node000043_Node000009"><a xlink:title=" ">
<path fill="none" stroke="#63b8ff" d="M233.93,-274.65C263.36,-258.14 321.18,-225.68 356.05,-206.11"/>
<polygon fill="#63b8ff" stroke="#63b8ff" points="357.75,-209.17 364.76,-201.22 354.33,-203.06 357.75,-209.17"/>
</a>
</g>
</g>
<!-- Node44 -->
<g id="Node000044" class="node">
<title>Node44</title>
<g id="a_Node000044"><a xlink:href="class_async_client.html#a383d1cb7d684d328362caa5eafc92ca2" target="_top" xlink:title=" ">
<polygon fill="white" stroke="#666666" points="433.5,-276 338,-276 338,-256 433.5,-256 433.5,-276"/>
<text xml:space="preserve" text-anchor="middle" x="385.75" y="-262.5" font-family="Helvetica,sans-Serif" font-size="10.00">AsyncClient::_poll</text>
</a>
</g>
</g>
<!-- Node43&#45;&gt;Node44 -->
<g id="edge34_Node000043_Node000044" class="edge">
<title>Node43&#45;&gt;Node44</title>
<g id="a_edge34_Node000043_Node000044"><a xlink:title=" ">
<path fill="none" stroke="#63b8ff" d="M267.66,-279.14C286.25,-277.06 307.3,-274.69 326.37,-272.55"/>
<polygon fill="#63b8ff" stroke="#63b8ff" points="326.6,-276.05 336.14,-271.46 325.82,-269.09 326.6,-276.05"/>
</a>
</g>
</g>
<!-- Node44&#45;&gt;Node8 -->
<g id="edge36_Node000044_Node000008" class="edge">
<title>Node44&#45;&gt;Node8</title>
<g id="a_edge36_Node000044_Node000008"><a xlink:title=" ">
<path fill="none" stroke="#63b8ff" d="M428.48,-276.49C437.14,-279.89 445.81,-284.31 453,-290 475.91,-308.13 465.9,-327.11 489,-345 490.51,-346.17 492.1,-347.27 493.74,-348.3"/>
<polygon fill="#63b8ff" stroke="#63b8ff" points="491.83,-351.25 502.3,-352.82 495.1,-345.06 491.83,-351.25"/>
</a>
</g>
</g>
<!-- Node44&#45;&gt;Node11 -->
<g id="edge35_Node000044_Node000011" class="edge">
<title>Node44&#45;&gt;Node11</title>
<g id="a_edge35_Node000044_Node000011"><a xlink:title=" ">
<path fill="none" stroke="#63b8ff" d="M417.32,-276.4C428.62,-280.42 441.48,-285.21 453,-290 469.34,-296.8 472.59,-300.37 489,-307 493.07,-308.64 497.34,-310.27 501.63,-311.83"/>
<polygon fill="#63b8ff" stroke="#63b8ff" points="500.22,-315.04 510.82,-315.07 502.55,-308.44 500.22,-315.04"/>
</a>
</g>
</g>
<!-- Node45&#45;&gt;Node8 -->
<g id="edge44_Node000045_Node000008" class="edge">
<title>Node45&#45;&gt;Node8</title>
<g id="a_edge44_Node000045_Node000008"><a xlink:title=" ">
<path fill="none" stroke="#63b8ff" d="M265.5,-217.56C317.7,-209.68 399.3,-206.23 453,-247 489.96,-275.06 455.77,-312.61 489,-345 489.88,-345.86 490.81,-346.68 491.77,-347.47"/>
<polygon fill="#63b8ff" stroke="#63b8ff" points="489.62,-350.25 499.91,-352.76 493.43,-344.38 489.62,-350.25"/>
</a>
</g>
</g>
<!-- Node45&#45;&gt;Node9 -->
<g id="edge43_Node000045_Node000009" class="edge">
<title>Node45&#45;&gt;Node9</title>
<g id="a_edge43_Node000045_Node000009"><a xlink:title=" ">
<path fill="none" stroke="#63b8ff" d="M262.2,-217.52C282.27,-213.01 305.93,-207.7 327.08,-202.95"/>
<polygon fill="#63b8ff" stroke="#63b8ff" points="327.74,-206.39 336.73,-200.78 326.21,-199.56 327.74,-206.39"/>
</a>
</g>
</g>
<!-- Node46 -->
<g id="Node000046" class="node">
<title>Node46</title>
<g id="a_Node000046"><a xlink:href="class_async_client.html#af9a0368be4f98f49f252b1989b84b5a3" target="_top" xlink:title=" ">
<polygon fill="white" stroke="#666666" points="435.38,-162 336.12,-162 336.12,-142 435.38,-142 435.38,-162"/>
<text xml:space="preserve" text-anchor="middle" x="385.75" y="-148.5" font-family="Helvetica,sans-Serif" font-size="10.00">AsyncClient::_recv</text>
</a>
</g>
</g>
<!-- Node45&#45;&gt;Node46 -->
<g id="edge40_Node000045_Node000046" class="edge">
<title>Node45&#45;&gt;Node46</title>
<g id="a_edge40_Node000045_Node000046"><a xlink:title=" ">
<path fill="none" stroke="#63b8ff" d="M264.03,-217.62C270.47,-215.28 276.81,-212.44 282.5,-209 302.4,-196.95 298.62,-183.08 318.5,-171 320.96,-169.51 323.54,-168.12 326.21,-166.85"/>
<polygon fill="#63b8ff" stroke="#63b8ff" points="327.49,-170.1 335.37,-163.01 324.79,-163.65 327.49,-170.1"/>
</a>
</g>
</g>
<!-- Node46&#45;&gt;Node8 -->
<g id="edge42_Node000046_Node000008" class="edge">
<title>Node46&#45;&gt;Node8</title>
<g id="a_edge42_Node000046_Node000008"><a xlink:title=" ">
<path fill="none" stroke="#63b8ff" d="M435.87,-159.38C442.3,-162.15 448.28,-165.91 453,-171 506.7,-228.9 436.68,-285.85 489,-345 489.7,-345.79 490.44,-346.55 491.2,-347.28"/>
<polygon fill="#63b8ff" stroke="#63b8ff" points="489.01,-350.01 499.16,-353.04 493.11,-344.34 489.01,-350.01"/>
</a>
</g>
</g>
<!-- Node47 -->
<g id="Node000047" class="node">
<title>Node47</title>
<g id="a_Node000047"><a xlink:href="_async_t_c_p_8cpp.html#acfb3f5bacaaabd2c616896510fd1f10b" target="_top" xlink:title=" ">
<polygon fill="#fff0f0" stroke="red" points="580.75,-96 511.5,-96 511.5,-76 580.75,-76 580.75,-96"/>
<text xml:space="preserve" text-anchor="middle" x="546.12" y="-82.5" font-family="Helvetica,sans-Serif" font-size="10.00">_tcp_recved</text>
</a>
</g>
</g>
<!-- Node46&#45;&gt;Node47 -->
<g id="edge41_Node000046_Node000047" class="edge">
<title>Node46&#45;&gt;Node47</title>
<g id="a_edge41_Node000046_Node000047"><a xlink:title=" ">
<path fill="none" stroke="#63b8ff" d="M407.62,-141.63C428.09,-131.64 460.32,-116.41 489,-105 493.08,-103.38 497.35,-101.77 501.65,-100.21"/>
<polygon fill="#63b8ff" stroke="#63b8ff" points="502.57,-103.6 510.84,-96.98 500.25,-97 502.57,-103.6"/>
</a>
</g>
</g>
<!-- Node49&#45;&gt;Node8 -->
<g id="edge49_Node000049_Node000008" class="edge">
<title>Node49&#45;&gt;Node8</title>
<g id="a_edge49_Node000049_Node000008"><a xlink:title=" ">
<path fill="none" stroke="#63b8ff" d="M262.95,-352.49C280.33,-355.87 300.22,-359.21 318.5,-361 376.44,-366.69 443.11,-366.8 489.06,-365.89"/>
<polygon fill="#63b8ff" stroke="#63b8ff" points="488.85,-369.39 498.77,-365.67 488.69,-362.39 488.85,-369.39"/>
</a>
</g>
</g>
<!-- Node49&#45;&gt;Node9 -->
<g id="edge48_Node000049_Node000009" class="edge">
<title>Node49&#45;&gt;Node9</title>
<g id="a_edge48_Node000049_Node000009"><a xlink:title=" ">
<path fill="none" stroke="#63b8ff" d="M240.35,-331.55C253.89,-325.02 270.31,-315.63 282.5,-304 304.18,-283.32 298.93,-269.69 318.5,-247 331.18,-232.3 347.73,-218.06 361.12,-207.48"/>
<polygon fill="#63b8ff" stroke="#63b8ff" points="363.23,-210.28 369.01,-201.41 358.95,-204.74 363.23,-210.28"/>
</a>
</g>
</g>
<!-- Node50 -->
<g id="Node000050" class="node">
<title>Node50</title>
<g id="a_Node000050"><a xlink:href="class_async_client.html#a6a6efff5757dd06483709456e2f637b4" target="_top" xlink:title=" ">
<polygon fill="white" stroke="#666666" points="435.38,-352 336.12,-352 336.12,-332 435.38,-332 435.38,-352"/>
<text xml:space="preserve" text-anchor="middle" x="385.75" y="-338.5" font-family="Helvetica,sans-Serif" font-size="10.00">AsyncClient::_sent</text>
</a>
</g>
</g>
<!-- Node49&#45;&gt;Node50 -->
<g id="edge46_Node000049_Node000050" class="edge">
<title>Node49&#45;&gt;Node50</title>
<g id="a_edge46_Node000049_Node000050"><a xlink:title=" ">
<path fill="none" stroke="#63b8ff" d="M269.52,-342C286.98,-342 306.44,-342 324.34,-342"/>
<polygon fill="#63b8ff" stroke="#63b8ff" points="324.31,-345.5 334.31,-342 324.31,-338.5 324.31,-345.5"/>
</a>
</g>
</g>
<!-- Node50&#45;&gt;Node8 -->
<g id="edge47_Node000050_Node000008" class="edge">
<title>Node50&#45;&gt;Node8</title>
<g id="a_edge47_Node000050_Node000008"><a xlink:title=" ">
<path fill="none" stroke="#63b8ff" d="M435.56,-348.78C452.48,-351.13 471.59,-353.79 489.05,-356.21"/>
<polygon fill="#63b8ff" stroke="#63b8ff" points="488.37,-359.65 498.75,-357.56 489.33,-352.72 488.37,-359.65"/>
</a>
</g>
</g>
</g>
</svg>

<g id="navigator" transform="translate(0 0)" fill="#404254">
  <rect fill="#f2f5e9" fill-opacity="0.5" stroke="#606060" stroke-width=".5" x="0" y="0" width="60" height="60"/>
  <use id="zoomplus" xlink:href="#zoomPlus" x="17" y="9" onmousedown="handleZoom(evt,'in')"/>
  <use id="zoomminus" xlink:href="#zoomMin" x="42" y="9" onmousedown="handleZoom(evt,'out')"/>
  <use id="reset" xlink:href="#resetDef" x="30" y="36" onmousedown="handleReset()"/>
   <use id="arrowup" xlink:href="#arrowUp" x="0" y="0" onmousedown="handlePan(0,-1)"/>
  <use id="arrowright" xlink:href="#arrowRight" x="0" y="0" onmousedown="handlePan(1,0)"/>
  <use id="arrowdown" xlink:href="#arrowDown" x="0" y="0" onmousedown="handlePan(0,1)"/>
  <use id="arrowleft" xlink:href="#arrowLeft" x="0" y="0" onmousedown="handlePan(-1,0)"/>
</g>
<svg viewBox="0 0 15 15" width="100%" height="30px" preserveAspectRatio="xMaxYMin meet">
 <g id="arrow_out" transform="scale(0.3 0.3)">
  <a xlink:href="_async_t_c_p_8cpp_ac4030e968c0e4c0fcbe7a9b4502854c1_cgraph_org.svg" target="_base">
   <rect id="button" ry="5" rx="5" y="6" x="6" height="38" width="38"
        fill="#f2f5e9" fill-opacity="0.5" stroke="#606060" stroke-width="1.0"/>
   <path id="arrow"
     d="M 11.500037,31.436501 C 11.940474,20.09759 22.043105,11.32322 32.158766,21.979434 L 37.068811,17.246167 C 37.068811,17.246167 37.088388,32 37.088388,32 L 22.160133,31.978069 C 22.160133,31.978069 26.997745,27.140456 26.997745,27.140456 C 18.528582,18.264221 13.291696,25.230495 11.500037,31.436501 z"
     style="fill:#404040;"/>
  </a>
 </g>
</svg>

<style type='text/css'>
<![CDATA[
[data-mouse-over-selected='false'] { opacity: 0.7; }
[data-mouse-over-selected='true']  { opacity: 1.0; }
]]>
</style>
<script type="application/ecmascript"><![CDATA[
document.addEventListener('DOMContentLoaded', (event) => {
  highlightEdges();
  highlightAdjacentNodes();
});
]]></script>
</svg>
