<?xml version="1.0" encoding="UTF-8" standalone="no"?>
<!DOCTYPE svg PUBLIC "-//W3C//DTD SVG 1.1//EN"
 "http://www.w3.org/Graphics/SVG/1.1/DTD/svg11.dtd">
<!-- Generated by graphviz version 14.1.2 (20260124.0452)
 -->
<!-- Title: _async_service_task Pages: 1 -->
<!--zoomable 344 -->

<svg id="main" version="1.1" xmlns="http://www.w3.org/2000/svg" xmlns:xlink="http://www.w3.org/1999/xlink" xml:space="preserve" onload="init(evt)">

<style type="text/css"><![CDATA[
.node, .edge {opacity: 0.7;}
.node.selected, .edge.selected {opacity: 1;}
.edge:hover path { stroke: red; }
.edge:hover polygon { stroke: red; fill: red; }
]]></style>

<defs>
  <circle id="rim" cx="0" cy="0" r="7"/>
  <circle id="rim2" cx="0" cy="0" r="3.5"/>
  <g id="zoomPlus">
    <use xlink:href="#rim" fill="#404040"><set attributeName="fill" to="#808080" begin="zoomplus.mouseover" end="zoomplus.mouseout"/></use>
    <path d="M-4,0h8M0,-4v8" fill="none" stroke="white" stroke-width="1.5" pointer-events="none"/>
  </g>
  <g id="zoomMin">
    <use xlink:href="#rim" fill="#404040"><set attributeName="fill" to="#808080" begin="zoomminus.mouseover" end="zoomminus.mouseout"/></use>
    <path d="M-4,0h8" fill="none" stroke="white" stroke-width="1.5" pointer-events="none"/>
  </g>
  <g id="arrowUp" transform="translate(30 24)">
    <use xlink:href="#rim"/>
    <path pointer-events="none" fill="none" stroke="white" stroke-width="1.5" d="M0,-3.0v7 M-2.5,-0.5L0,-3.0L2.5,-0.5"/>
  </g>
  <g id="arrowRight" transform="rotate(90) translate(36 -43)">
    <use xlink:href="#rim"/>
    <path pointer-events="none" fill="none" stroke="white" stroke-width="1.5" d="M0,-3.0v7 M-2.5,-0.5L0,-3.0L2.5,-0.5"/>
  </g>
  <g id="arrowDown" transform="rotate(180) translate(-30 -48)">
    <use xlink:href="#rim"/>
    <path pointer-events="none" fill="none" stroke="white" stroke-width="1.5" d="M0,-3.0v7 M-2.5,-0.5L0,-3.0L2.5,-0.5"/>
  </g>
  <g id="arrowLeft" transform="rotate(270) translate(-36 17)">
    <use xlink:href="#rim"/>
    <path pointer-events="none" fill="none" stroke="white" stroke-width="1.5" d="M0,-3.0v7 M-2.5,-0.5L0,-3.0L2.5,-0.5"/>
  </g>
  <g id="resetDef">
    <use xlink:href="#rim2" fill="#404040"><set attributeName="fill" to="#808080" begin="reset.mouseover" end="reset.mouseout"/></use>
  </g>
</defs>
<script type="application/ecmascript">
var viewWidth = 596;
var viewHeight = 344;
var sectionId = 'dynsection-1';
</script>
<script type="application/ecmascript" xlink:href="svg.min.js"/>
<svg id="graph" class="graph">
<g id="viewport">
<title>_async_service_task</title>
<!-- Node1 -->
<g id="Node000001" class="node">
<title>Node1</title>
<g id="a_Node000001"><a xlink:title=" ">
<polygon fill="#999999" stroke="#666666" points="108.25,-191 0,-191 0,-171 108.25,-171 108.25,-191"/>
<text xml:space="preserve" text-anchor="middle" x="54.12" y="-177.5" font-family="Helvetica,sans-Serif" font-size="10.00">_async_service_task</text>
</a>
</g>
</g>
<!-- Node2 -->
<g id="Node000002" class="node">
<title>Node2</title>
<g id="a_Node000002"><a xlink:href="_async_t_c_p_8cpp.html#a8a4bbbc30b10628f96b77b68e1f66620" target="_top" xlink:title=" ">
<polygon fill="white" stroke="#666666" points="247.25,-210 151.75,-210 151.75,-190 247.25,-190 247.25,-210"/>
<text xml:space="preserve" text-anchor="middle" x="199.5" y="-196.5" font-family="Helvetica,sans-Serif" font-size="10.00">_get_async_event</text>
</a>
</g>
</g>
<!-- Node1&#45;&gt;Node2 -->
<g id="edge1_Node000001_Node000002" class="edge">
<title>Node1&#45;&gt;Node2</title>
<g id="a_edge1_Node000001_Node000002"><a xlink:title=" ">
<path fill="none" stroke="#63b8ff" d="M108.51,-188.07C118.92,-189.45 129.88,-190.91 140.43,-192.3"/>
<polygon fill="#63b8ff" stroke="#63b8ff" points="139.8,-195.75 150.17,-193.6 140.72,-188.81 139.8,-195.75"/>
</a>
</g>
</g>
<!-- Node3 -->
<g id="Node000003" class="node">
<title>Node3</title>
<g id="a_Node000003"><a xlink:href="_async_t_c_p_8cpp.html#ac4030e968c0e4c0fcbe7a9b4502854c1" target="_top" xlink:title=" ">
<polygon fill="white" stroke="#666666" points="254.75,-172 144.25,-172 144.25,-152 254.75,-152 254.75,-172"/>
<text xml:space="preserve" text-anchor="middle" x="199.5" y="-158.5" font-family="Helvetica,sans-Serif" font-size="10.00">_handle_async_event</text>
</a>
</g>
</g>
<!-- Node1&#45;&gt;Node3 -->
<g id="edge3_Node000001_Node000003" class="edge">
<title>Node1&#45;&gt;Node3</title>
<g id="a_edge3_Node000001_Node000003"><a xlink:title=" ">
<path fill="none" stroke="#63b8ff" d="M108.51,-173.93C116.41,-172.88 124.63,-171.79 132.75,-170.71"/>
<polygon fill="#63b8ff" stroke="#63b8ff" points="133.16,-174.19 142.61,-169.41 132.24,-167.25 133.16,-174.19"/>
</a>
</g>
</g>
<!-- Node2&#45;&gt;Node2 -->
<g id="edge2_Node000002_Node000002" class="edge">
<title>Node2&#45;&gt;Node2</title>
<g id="a_edge2_Node000002_Node000002"><a xlink:title=" ">
<path fill="none" stroke="#63b8ff" d="M176.4,-210.34C166.53,-218.98 174.23,-228 199.5,-228 213.32,-228 221.88,-225.3 225.19,-221.44"/>
<polygon fill="#63b8ff" stroke="#63b8ff" points="228.63,-220.75 222.94,-211.81 221.81,-222.35 228.63,-220.75"/>
</a>
</g>
</g>
<!-- Node4 -->
<g id="Node000004" class="node">
<title>Node4</title>
<g id="a_Node000004"><a xlink:href="_async_t_c_p_8cpp.html#aa1f9a74c3df252a9b6159bd188b81ef2" target="_top" xlink:title=" ">
<polygon fill="white" stroke="#666666" points="423.75,-336 293.75,-336 293.75,-316 423.75,-316 423.75,-336"/>
<text xml:space="preserve" text-anchor="middle" x="358.75" y="-322.5" font-family="Helvetica,sans-Serif" font-size="10.00">_remove_events_with_arg</text>
</a>
</g>
</g>
<!-- Node3&#45;&gt;Node4 -->
<g id="edge4_Node000003_Node000004" class="edge">
<title>Node3&#45;&gt;Node4</title>
<g id="a_edge4_Node000003_Node000004"><a xlink:title=" ">
<path fill="none" stroke="#63b8ff" d="M243.5,-172.49C247.67,-174.79 251.53,-177.59 254.75,-181 294.71,-223.37 249.53,-265.86 290.75,-307 291.5,-307.75 292.27,-308.47 293.07,-309.16"/>
<polygon fill="#63b8ff" stroke="#63b8ff" points="290.97,-311.96 301.21,-314.69 294.91,-306.17 290.97,-311.96"/>
</a>
</g>
</g>
<!-- Node5 -->
<g id="Node000005" class="node">
<title>Node5</title>
<g id="a_Node000005"><a xlink:href="class_async_server.html#a68b4c50c0bf8f5109b9981a87d5d34e5" target="_top" xlink:title=" ">
<polygon fill="white" stroke="#666666" points="425.62,-298 291.88,-298 291.88,-278 425.62,-278 425.62,-298"/>
<text xml:space="preserve" text-anchor="middle" x="358.75" y="-284.5" font-family="Helvetica,sans-Serif" font-size="10.00">AsyncServer::_s_accepted</text>
</a>
</g>
</g>
<!-- Node3&#45;&gt;Node5 -->
<g id="edge5_Node000003_Node000005" class="edge">
<title>Node3&#45;&gt;Node5</title>
<g id="a_edge5_Node000003_Node000005"><a xlink:title=" ">
<path fill="none" stroke="#63b8ff" d="M242.32,-172.43C246.86,-174.74 251.13,-177.56 254.75,-181 285.39,-210.1 259.24,-240.84 290.75,-269 291.84,-269.97 292.98,-270.9 294.15,-271.78"/>
<polygon fill="#63b8ff" stroke="#63b8ff" points="292.17,-274.67 302.54,-276.84 295.79,-268.68 292.17,-274.67"/>
</a>
</g>
</g>
<!-- Node7 -->
<g id="Node000007" class="node">
<title>Node7</title>
<g id="a_Node000007"><a xlink:href="class_async_client.html#ac4cdb0990fa85f03da98d1c98b1f8611" target="_top" xlink:title=" ">
<polygon fill="white" stroke="#666666" points="426.75,-260 290.75,-260 290.75,-240 426.75,-240 426.75,-260"/>
<text xml:space="preserve" text-anchor="middle" x="358.75" y="-246.5" font-family="Helvetica,sans-Serif" font-size="10.00">AsyncClient::_s_connected</text>
</a>
</g>
</g>
<!-- Node3&#45;&gt;Node7 -->
<g id="edge7_Node000003_Node000007" class="edge">
<title>Node3&#45;&gt;Node7</title>
<g id="a_edge7_Node000003_Node000007"><a xlink:title=" ">
<path fill="none" stroke="#63b8ff" d="M239.62,-172.42C244.98,-174.76 250.19,-177.59 254.75,-181 276.68,-197.39 268.33,-215.28 290.75,-231 292.68,-232.36 294.71,-233.62 296.81,-234.79"/>
<polygon fill="#63b8ff" stroke="#63b8ff" points="295.13,-237.86 305.67,-238.99 298.13,-231.54 295.13,-237.86"/>
</a>
</g>
</g>
<!-- Node9 -->
<g id="Node000009" class="node">
<title>Node9</title>
<g id="a_Node000009"><a xlink:href="class_async_client.html#a3f629c9072da183879a9c67878b374cc" target="_top" xlink:title=" ">
<polygon fill="white" stroke="#666666" points="412.12,-222 305.38,-222 305.38,-190 412.12,-190 412.12,-222"/>
<text xml:space="preserve" text-anchor="start" x="313.38" y="-208.5" font-family="Helvetica,sans-Serif" font-size="10.00">AsyncClient::_s_dns</text>
<text xml:space="preserve" text-anchor="middle" x="358.75" y="-196.5" font-family="Helvetica,sans-Serif" font-size="10.00">_found</text>
</a>
</g>
</g>
<!-- Node3&#45;&gt;Node9 -->
<g id="edge9_Node000003_Node000009" class="edge">
<title>Node3&#45;&gt;Node9</title>
<g id="a_edge9_Node000003_Node000009"><a xlink:title=" ">
<path fill="none" stroke="#63b8ff" d="M237.77,-172.43C254.54,-177.12 274.84,-182.8 293.92,-188.14"/>
<polygon fill="#63b8ff" stroke="#63b8ff" points="292.95,-191.5 303.53,-190.83 294.84,-184.76 292.95,-191.5"/>
</a>
</g>
</g>
<!-- Node29 -->
<g id="Node000029" class="node">
<title>Node29</title>
<g id="a_Node000029"><a xlink:href="class_async_client.html#a9ff634e3b1237eab65178b007326367e" target="_top" xlink:title=" ">
<polygon fill="white" stroke="#666666" points="414,-172 303.5,-172 303.5,-152 414,-152 414,-172"/>
<text xml:space="preserve" text-anchor="middle" x="358.75" y="-158.5" font-family="Helvetica,sans-Serif" font-size="10.00">AsyncClient::_s_error</text>
</a>
</g>
</g>
<!-- Node3&#45;&gt;Node29 -->
<g id="edge11_Node000003_Node000029" class="edge">
<title>Node3&#45;&gt;Node29</title>
<g id="a_edge11_Node000003_Node000029"><a xlink:title=" ">
<path fill="none" stroke="#63b8ff" d="M255.06,-162C266.82,-162 279.38,-162 291.53,-162"/>
<polygon fill="#63b8ff" stroke="#63b8ff" points="291.51,-165.5 301.51,-162 291.51,-158.5 291.51,-165.5"/>
</a>
</g>
</g>
<!-- Node31 -->
<g id="Node000031" class="node">
<title>Node31</title>
<g id="a_Node000031"><a xlink:href="class_async_client.html#a6a69c67e1a22660766affb64700c2276" target="_top" xlink:title=" ">
<polygon fill="white" stroke="#666666" points="409.5,-134 308,-134 308,-114 409.5,-114 409.5,-134"/>
<text xml:space="preserve" text-anchor="middle" x="358.75" y="-120.5" font-family="Helvetica,sans-Serif" font-size="10.00">AsyncClient::_s_fin</text>
</a>
</g>
</g>
<!-- Node3&#45;&gt;Node31 -->
<g id="edge13_Node000003_Node000031" class="edge">
<title>Node3&#45;&gt;Node31</title>
<g id="a_edge13_Node000003_Node000031"><a xlink:title=" ">
<path fill="none" stroke="#63b8ff" d="M243.89,-151.52C262.28,-147.07 283.91,-141.84 303.35,-137.15"/>
<polygon fill="#63b8ff" stroke="#63b8ff" points="304.14,-140.56 313.03,-134.81 302.49,-133.75 304.14,-140.56"/>
</a>
</g>
</g>
<!-- Node34 -->
<g id="Node000034" class="node">
<title>Node34</title>
<g id="a_Node000034"><a xlink:href="class_async_client.html#abe187c005c73fe6c0c94e1b3b20b55de" target="_top" xlink:title=" ">
<polygon fill="white" stroke="#666666" points="411.75,-96 305.75,-96 305.75,-76 411.75,-76 411.75,-96"/>
<text xml:space="preserve" text-anchor="middle" x="358.75" y="-82.5" font-family="Helvetica,sans-Serif" font-size="10.00">AsyncClient::_s_poll</text>
</a>
</g>
</g>
<!-- Node3&#45;&gt;Node34 -->
<g id="edge15_Node000003_Node000034" class="edge">
<title>Node3&#45;&gt;Node34</title>
<g id="a_edge15_Node000003_Node000034"><a xlink:title=" ">
<path fill="none" stroke="#63b8ff" d="M214.17,-151.59C231.27,-139.01 261.81,-117.92 290.75,-105 294.73,-103.22 298.93,-101.57 303.19,-100.04"/>
<polygon fill="#63b8ff" stroke="#63b8ff" points="304.04,-103.44 312.42,-96.97 301.83,-96.8 304.04,-103.44"/>
</a>
</g>
</g>
<!-- Node42 -->
<g id="Node000042" class="node">
<title>Node42</title>
<g id="a_Node000042"><a xlink:href="class_async_client.html#af8136d3085c8948078a131bfb9430ec6" target="_top" xlink:title=" ">
<polygon fill="white" stroke="#666666" points="413.62,-58 303.88,-58 303.88,-38 413.62,-38 413.62,-58"/>
<text xml:space="preserve" text-anchor="middle" x="358.75" y="-44.5" font-family="Helvetica,sans-Serif" font-size="10.00">AsyncClient::_s_recv</text>
</a>
</g>
</g>
<!-- Node3&#45;&gt;Node42 -->
<g id="edge17_Node000003_Node000042" class="edge">
<title>Node3&#45;&gt;Node42</title>
<g id="a_edge17_Node000003_Node000042"><a xlink:title=" ">
<path fill="none" stroke="#63b8ff" d="M207.38,-151.7C220.96,-132.17 253.18,-89.71 290.75,-67 293.33,-65.44 296.04,-64.01 298.83,-62.68"/>
<polygon fill="#63b8ff" stroke="#63b8ff" points="299.92,-66.02 307.83,-58.96 297.25,-59.55 299.92,-66.02"/>
</a>
</g>
</g>
<!-- Node46 -->
<g id="Node000046" class="node">
<title>Node46</title>
<g id="a_Node000046"><a xlink:href="class_async_client.html#a8e507d50b4cc3ae8e90f2e1c1ebf5f61" target="_top" xlink:title=" ">
<polygon fill="white" stroke="#666666" points="413.62,-20 303.88,-20 303.88,0 413.62,0 413.62,-20"/>
<text xml:space="preserve" text-anchor="middle" x="358.75" y="-6.5" font-family="Helvetica,sans-Serif" font-size="10.00">AsyncClient::_s_sent</text>
</a>
</g>
</g>
<!-- Node3&#45;&gt;Node46 -->
<g id="edge19_Node000003_Node000046" class="edge">
<title>Node3&#45;&gt;Node46</title>
<g id="a_edge19_Node000003_Node000046"><a xlink:title=" ">
<path fill="none" stroke="#63b8ff" d="M204.6,-151.52C214.99,-126.36 244.83,-62.16 290.75,-29 292.55,-27.7 294.44,-26.49 296.39,-25.36"/>
<polygon fill="#63b8ff" stroke="#63b8ff" points="297.79,-28.57 305.23,-21.04 294.71,-22.28 297.79,-28.57"/>
</a>
</g>
</g>
<!-- Node6 -->
<g id="Node000006" class="node">
<title>Node6</title>
<g id="a_Node000006"><a xlink:href="class_async_server.html#ae12ee87206611e09ed5e644c6baf1c96" target="_top" xlink:title=" ">
<polygon fill="white" stroke="#666666" points="587.12,-298 463.88,-298 463.88,-278 587.12,-278 587.12,-298"/>
<text xml:space="preserve" text-anchor="middle" x="525.5" y="-284.5" font-family="Helvetica,sans-Serif" font-size="10.00">AsyncServer::_accepted</text>
</a>
</g>
</g>
<!-- Node5&#45;&gt;Node6 -->
<g id="edge6_Node000005_Node000006" class="edge">
<title>Node5&#45;&gt;Node6</title>
<g id="a_edge6_Node000005_Node000006"><a xlink:title=" ">
<path fill="none" stroke="#63b8ff" d="M425.81,-288C434.46,-288 443.37,-288 452.11,-288"/>
<polygon fill="#63b8ff" stroke="#63b8ff" points="451.98,-291.5 461.98,-288 451.98,-284.5 451.98,-291.5"/>
</a>
</g>
</g>
<!-- Node8 -->
<g id="Node000008" class="node">
<title>Node8</title>
<g id="a_Node000008"><a xlink:href="class_async_client.html#a045a3529852917ea1d4dfff5d9c3ba90" target="_top" xlink:title=" ">
<polygon fill="white" stroke="#666666" points="588.25,-260 462.75,-260 462.75,-240 588.25,-240 588.25,-260"/>
<text xml:space="preserve" text-anchor="middle" x="525.5" y="-246.5" font-family="Helvetica,sans-Serif" font-size="10.00">AsyncClient::_connected</text>
</a>
</g>
</g>
<!-- Node7&#45;&gt;Node8 -->
<g id="edge8_Node000007_Node000008" class="edge">
<title>Node7&#45;&gt;Node8</title>
<g id="a_edge8_Node000007_Node000008"><a xlink:title=" ">
<path fill="none" stroke="#63b8ff" d="M427.24,-250C435.06,-250 443.06,-250 450.96,-250"/>
<polygon fill="#63b8ff" stroke="#63b8ff" points="450.9,-253.5 460.9,-250 450.9,-246.5 450.9,-253.5"/>
</a>
</g>
</g>
<!-- Node10 -->
<g id="Node000010" class="node">
<title>Node10</title>
<g id="a_Node000010"><a xlink:href="class_async_client.html#a19dc40652b5b003288e10529ee169b65" target="_top" xlink:title=" ">
<polygon fill="#fff0f0" stroke="red" points="588.25,-216 462.75,-216 462.75,-196 588.25,-196 588.25,-216"/>
<text xml:space="preserve" text-anchor="middle" x="525.5" y="-202.5" font-family="Helvetica,sans-Serif" font-size="10.00">AsyncClient::_dns_found</text>
</a>
</g>
</g>
<!-- Node9&#45;&gt;Node10 -->
<g id="edge10_Node000009_Node000010" class="edge">
<title>Node9&#45;&gt;Node10</title>
<g id="a_edge10_Node000009_Node000010"><a xlink:title=" ">
<path fill="none" stroke="#63b8ff" d="M412.33,-206C424.64,-206 437.97,-206 451.01,-206"/>
<polygon fill="#63b8ff" stroke="#63b8ff" points="450.84,-209.5 460.84,-206 450.84,-202.5 450.84,-209.5"/>
</a>
</g>
</g>
<!-- Node30 -->
<g id="Node000030" class="node">
<title>Node30</title>
<g id="a_Node000030"><a xlink:href="class_async_client.html#a5145b1cfe1a49ba9a066eee404013835" target="_top" xlink:title=" ">
<polygon fill="#fff0f0" stroke="red" points="575.5,-172 475.5,-172 475.5,-152 575.5,-152 575.5,-172"/>
<text xml:space="preserve" text-anchor="middle" x="525.5" y="-158.5" font-family="Helvetica,sans-Serif" font-size="10.00">AsyncClient::_error</text>
</a>
</g>
</g>
<!-- Node29&#45;&gt;Node30 -->
<g id="edge12_Node000029_Node000030" class="edge">
<title>Node29&#45;&gt;Node30</title>
<g id="a_edge12_Node000029_Node000030"><a xlink:title=" ">
<path fill="none" stroke="#63b8ff" d="M414.15,-162C430.14,-162 447.73,-162 464.08,-162"/>
<polygon fill="#63b8ff" stroke="#63b8ff" points="463.65,-165.5 473.64,-162 463.64,-158.5 463.65,-165.5"/>
</a>
</g>
</g>
<!-- Node32 -->
<g id="Node000032" class="node">
<title>Node32</title>
<g id="a_Node000032"><a xlink:href="class_async_client.html#afe295b6c577021c8946eb266ac41df51" target="_top" xlink:title=" ">
<polygon fill="#fff0f0" stroke="red" points="571,-134 480,-134 480,-114 571,-114 571,-134"/>
<text xml:space="preserve" text-anchor="middle" x="525.5" y="-120.5" font-family="Helvetica,sans-Serif" font-size="10.00">AsyncClient::_fin</text>
</a>
</g>
</g>
<!-- Node31&#45;&gt;Node32 -->
<g id="edge14_Node000031_Node000032" class="edge">
<title>Node31&#45;&gt;Node32</title>
<g id="a_edge14_Node000031_Node000032"><a xlink:title=" ">
<path fill="none" stroke="#63b8ff" d="M409.63,-124C428.06,-124 449.07,-124 468.05,-124"/>
<polygon fill="#63b8ff" stroke="#63b8ff" points="468.04,-127.5 478.04,-124 468.04,-120.5 468.04,-127.5"/>
</a>
</g>
</g>
<!-- Node35 -->
<g id="Node000035" class="node">
<title>Node35</title>
<g id="a_Node000035"><a xlink:href="class_async_client.html#a383d1cb7d684d328362caa5eafc92ca2" target="_top" xlink:title=" ">
<polygon fill="#fff0f0" stroke="red" points="573.25,-96 477.75,-96 477.75,-76 573.25,-76 573.25,-96"/>
<text xml:space="preserve" text-anchor="middle" x="525.5" y="-82.5" font-family="Helvetica,sans-Serif" font-size="10.00">AsyncClient::_poll</text>
</a>
</g>
</g>
<!-- Node34&#45;&gt;Node35 -->
<g id="edge16_Node000034_Node000035" class="edge">
<title>Node34&#45;&gt;Node35</title>
<g id="a_edge16_Node000034_Node000035"><a xlink:title=" ">
<path fill="none" stroke="#63b8ff" d="M411.88,-86C429.12,-86 448.42,-86 466.11,-86"/>
<polygon fill="#63b8ff" stroke="#63b8ff" points="465.94,-89.5 475.94,-86 465.94,-82.5 465.94,-89.5"/>
</a>
</g>
</g>
<!-- Node43 -->
<g id="Node000043" class="node">
<title>Node43</title>
<g id="a_Node000043"><a xlink:href="class_async_client.html#af9a0368be4f98f49f252b1989b84b5a3" target="_top" xlink:title=" ">
<polygon fill="#fff0f0" stroke="red" points="575.12,-58 475.88,-58 475.88,-38 575.12,-38 575.12,-58"/>
<text xml:space="preserve" text-anchor="middle" x="525.5" y="-44.5" font-family="Helvetica,sans-Serif" font-size="10.00">AsyncClient::_recv</text>
</a>
</g>
</g>
<!-- Node42&#45;&gt;Node43 -->
<g id="edge18_Node000042_Node000043" class="edge">
<title>Node42&#45;&gt;Node43</title>
<g id="a_edge18_Node000042_Node000043"><a xlink:title=" ">
<path fill="none" stroke="#63b8ff" d="M413.7,-48C429.86,-48 447.69,-48 464.23,-48"/>
<polygon fill="#63b8ff" stroke="#63b8ff" points="463.93,-51.5 473.93,-48 463.93,-44.5 463.93,-51.5"/>
</a>
</g>
</g>
<!-- Node47 -->
<g id="Node000047" class="node">
<title>Node47</title>
<g id="a_Node000047"><a xlink:href="class_async_client.html#a6a6efff5757dd06483709456e2f637b4" target="_top" xlink:title=" ">
<polygon fill="white" stroke="#666666" points="575.12,-20 475.88,-20 475.88,0 575.12,0 575.12,-20"/>
<text xml:space="preserve" text-anchor="middle" x="525.5" y="-6.5" font-family="Helvetica,sans-Serif" font-size="10.00">AsyncClient::_sent</text>
</a>
</g>
</g>
<!-- Node46&#45;&gt;Node47 -->
<g id="edge20_Node000046_Node000047" class="edge">
<title>Node46&#45;&gt;Node47</title>
<g id="a_edge20_Node000046_Node000047"><a xlink:title=" ">
<path fill="none" stroke="#63b8ff" d="M413.7,-10C429.86,-10 447.69,-10 464.23,-10"/>
<polygon fill="#63b8ff" stroke="#63b8ff" points="463.93,-13.5 473.93,-10 463.93,-6.5 463.93,-13.5"/>
</a>
</g>
</g>
</g>
</svg>

<g id="navigator" transform="translate(0 0)" fill="#404254">
  <rect fill="#f2f5e9" fill-opacity="0.5" stroke="#606060" stroke-width=".5" x="0" y="0" width="60" height="60"/>
  <use id="zoomplus" xlink:href="#zoomPlus" x="17" y="9" onmousedown="handleZoom(evt,'in')"/>
  <use id="zoomminus" xlink:href="#zoomMin" x="42" y="9" onmousedown="handleZoom(evt,'out')"/>
  <use id="reset" xlink:href="#resetDef" x="30" y="36" onmousedown="handleReset()"/>
   <use id="arrowup" xlink:href="#arrowUp" x="0" y="0" onmousedown="handlePan(0,-1)"/>
  <use id="arrowright" xlink:href="#arrowRight" x="0" y="0" onmousedown="handlePan(1,0)"/>
  <use id="arrowdown" xlink:href="#arrowDown" x="0" y="0" onmousedown="handlePan(0,1)"/>
  <use id="arrowleft" xlink:href="#arrowLeft" x="0" y="0" onmousedown="handlePan(-1,0)"/>
</g>
<svg viewBox="0 0 15 15" width="100%" height="30px" preserveAspectRatio="xMaxYMin meet">
 <g id="arrow_out" transform="scale(0.3 0.3)">
  <a xlink:href="_async_t_c_p_8cpp_a87baf4ac2987dd94502c4586a97e552f_cgraph_org.svg" target="_base">
   <rect id="button" ry="5" rx="5" y="6" x="6" height="38" width="38"
        fill="#f2f5e9" fill-opacity="0.5" stroke="#606060" stroke-width="1.0"/>
   <path id="arrow"
     d="M 11.500037,31.436501 C 11.940474,20.09759 22.043105,11.32322 32.158766,21.979434 L 37.068811,17.246167 C 37.068811,17.246167 37.088388,32 37.088388,32 L 22.160133,31.978069 C 22.160133,31.978069 26.997745,27.140456 26.997745,27.140456 C 18.528582,18.264221 13.291696,25.230495 11.500037,31.436501 z"
     style="fill:#404040;"/>
  </a>
 </g>
</svg>

<style type='text/css'>
<![CDATA[
[data-mouse-over-selected='false'] { opacity: 0.7; }
[data-mouse-over-selected='true']  { opacity: 1.0; }
]]>
</style>
<script type="application/ecmascript"><![CDATA[
document.addEventListener('DOMContentLoaded', (event) => {
  highlightEdges();
  highlightAdjacentNodes();
});
]]></script>
</svg>
