<?xml version="1.0" encoding="UTF-8" standalone="no"?>
<!DOCTYPE svg PUBLIC "-//W3C//DTD SVG 1.1//EN"
 "http://www.w3.org/Graphics/SVG/1.1/DTD/svg11.dtd">
<!-- Generated by graphviz version 14.1.2 (20260124.0452)
 -->
<!-- Title: _handle_async_event Pages: 1 -->
<!--zoomable 344 -->

<svg id="main" version="1.1" xmlns="http://www.w3.org/2000/svg" xmlns:xlink="http://www.w3.org/1999/xlink" xml:space="preserve" onload="init(evt)">

<style type="text/css"><![CDATA[
.node, .edge {opacity: 0.7;}
.node.selected, .edge.selected {opacity: 1;}
.edge:hover path { stroke: red; }
.edge:hover polygon { stroke: red; fill: red; }
]]></style>

<defs>
  <circle id="rim" cx="0" cy="0" r="7"/>
  <circle id="rim2" cx="0" cy="0" r="3.5"/>
  <g id="zoomPlus">
    <use xlink:href="#rim" fill="#404040"><set attributeName="fill" to="#808080" begin="zoomplus.mouseover" end="zoomplus.mouseout"/></use>
    <path d="M-4,0h8M0,-4v8" fill="none" stroke="white" stroke-width="1.5" pointer-events="none"/>
  </g>
  <g id="zoomMin">
    <use xlink:href="#rim" fill="#404040"><set attributeName="fill" to="#808080" begin="zoomminus.mouseover" end="zoomminus.mouseout"/></use>
    <path d="M-4,0h8" fill="none" stroke="white" stroke-width="1.5" pointer-events="none"/>
  </g>
  <g id="arrowUp" transform="translate(30 24)">
    <use xlink:href="#rim"/>
    <path pointer-events="none" fill="none" stroke="white" stroke-width="1.5" d="M0,-3.0v7 M-2.5,-0.5L0,-3.0L2.5,-0.5"/>
  </g>
  <g id="arrowRight" transform="rotate(90) translate(36 -43)">
    <use xlink:href="#rim"/>
    <path pointer-events="none" fill="none" stroke="white" stroke-width="1.5" d="M0,-3.0v7 M-2.5,-0.5L0,-3.0L2.5,-0.5"/>
  </g>
  <g id="arrowDown" transform="rotate(180) translate(-30 -48)">
    <use xlink:href="#rim"/>
    <path pointer-events="none" fill="none" stroke="white" stroke-width="1.5" d="M0,-3.0v7 M-2.5,-0.5L0,-3.0L2.5,-0.5"/>
  </g>
  <g id="arrowLeft" transform="rotate(270) translate(-36 17)">
    <use xlink:href="#rim"/>
    <path pointer-events="none" fill="none" stroke="white" stroke-width="1.5" d="M0,-3.0v7 M-2.5,-0.5L0,-3.0L2.5,-0.5"/>
  </g>
  <g id="resetDef">
    <use xlink:href="#rim2" fill="#404040"><set attributeName="fill" to="#808080" begin="reset.mouseover" end="reset.mouseout"/></use>
  </g>
</defs>
<script type="application/ecmascript">
var viewWidth = 731;
var viewHeight = 344;
var sectionId = 'dynsection-5';
</script>
<script type="application/ecmascript" xlink:href="svg.min.js"/>
<svg id="graph" class="graph">
<g id="viewport">
<title>_handle_async_event</title>
<!-- Node1 -->
<g id="Node000001" class="node">
<title>Node1</title>
<g id="a_Node000001"><a xlink:title=" ">
<polygon fill="#999999" stroke="#666666" points="110.5,-172 0,-172 0,-152 110.5,-152 110.5,-172"/>
<text xml:space="preserve" text-anchor="middle" x="55.25" y="-158.5" font-family="Helvetica,sans-Serif" font-size="10.00">_handle_async_event</text>
</a>
</g>
</g>
<!-- Node2 -->
<g id="Node000002" class="node">
<title>Node2</title>
<g id="a_Node000002"><a xlink:href="_async_t_c_p_8cpp.html#aa1f9a74c3df252a9b6159bd188b81ef2" target="_top" xlink:title=" ">
<polygon fill="white" stroke="#666666" points="279.5,-336 149.5,-336 149.5,-316 279.5,-316 279.5,-336"/>
<text xml:space="preserve" text-anchor="middle" x="214.5" y="-322.5" font-family="Helvetica,sans-Serif" font-size="10.00">_remove_events_with_arg</text>
</a>
</g>
</g>
<!-- Node1&#45;&gt;Node2 -->
<g id="edge1_Node000001_Node000002" class="edge">
<title>Node1&#45;&gt;Node2</title>
<g id="a_edge1_Node000001_Node000002"><a xlink:title=" ">
<path fill="none" stroke="#63b8ff" d="M59.65,-172.23C69,-198.76 97.7,-270.27 146.5,-307 148.06,-308.17 149.69,-309.28 151.38,-310.31"/>
<polygon fill="#63b8ff" stroke="#63b8ff" points="149.68,-313.38 160.18,-314.83 152.88,-307.15 149.68,-313.38"/>
</a>
</g>
</g>
<!-- Node3 -->
<g id="Node000003" class="node">
<title>Node3</title>
<g id="a_Node000003"><a xlink:href="class_async_server.html#a68b4c50c0bf8f5109b9981a87d5d34e5" target="_top" xlink:title=" ">
<polygon fill="white" stroke="#666666" points="281.38,-298 147.62,-298 147.62,-278 281.38,-278 281.38,-298"/>
<text xml:space="preserve" text-anchor="middle" x="214.5" y="-284.5" font-family="Helvetica,sans-Serif" font-size="10.00">AsyncServer::_s_accepted</text>
</a>
</g>
</g>
<!-- Node1&#45;&gt;Node3 -->
<g id="edge2_Node000001_Node000003" class="edge">
<title>Node1&#45;&gt;Node3</title>
<g id="a_edge2_Node000001_Node000003"><a xlink:title=" ">
<path fill="none" stroke="#63b8ff" d="M62.01,-172.29C74.52,-193.67 106.28,-243.04 146.5,-269 148.65,-270.39 150.89,-271.67 153.21,-272.86"/>
<polygon fill="#63b8ff" stroke="#63b8ff" points="151.79,-276.06 162.35,-276.92 154.63,-269.66 151.79,-276.06"/>
</a>
</g>
</g>
<!-- Node5 -->
<g id="Node000005" class="node">
<title>Node5</title>
<g id="a_Node000005"><a xlink:href="class_async_client.html#ac4cdb0990fa85f03da98d1c98b1f8611" target="_top" xlink:title=" ">
<polygon fill="white" stroke="#666666" points="282.5,-260 146.5,-260 146.5,-240 282.5,-240 282.5,-260"/>
<text xml:space="preserve" text-anchor="middle" x="214.5" y="-246.5" font-family="Helvetica,sans-Serif" font-size="10.00">AsyncClient::_s_connected</text>
</a>
</g>
</g>
<!-- Node1&#45;&gt;Node5 -->
<g id="edge4_Node000001_Node000005" class="edge">
<title>Node1&#45;&gt;Node5</title>
<g id="a_edge4_Node000001_Node000005"><a xlink:title=" ">
<path fill="none" stroke="#63b8ff" d="M67,-172.43C83.04,-187.44 114.76,-215.1 146.5,-231 149.96,-232.73 153.59,-234.33 157.31,-235.79"/>
<polygon fill="#63b8ff" stroke="#63b8ff" points="155.91,-239.01 166.51,-239.08 158.27,-232.42 155.91,-239.01"/>
</a>
</g>
</g>
<!-- Node7 -->
<g id="Node000007" class="node">
<title>Node7</title>
<g id="a_Node000007"><a xlink:href="class_async_client.html#a3f629c9072da183879a9c67878b374cc" target="_top" xlink:title=" ">
<polygon fill="white" stroke="#666666" points="267.88,-222 161.12,-222 161.12,-190 267.88,-190 267.88,-222"/>
<text xml:space="preserve" text-anchor="start" x="169.12" y="-208.5" font-family="Helvetica,sans-Serif" font-size="10.00">AsyncClient::_s_dns</text>
<text xml:space="preserve" text-anchor="middle" x="214.5" y="-196.5" font-family="Helvetica,sans-Serif" font-size="10.00">_found</text>
</a>
</g>
</g>
<!-- Node1&#45;&gt;Node7 -->
<g id="edge6_Node000001_Node000007" class="edge">
<title>Node1&#45;&gt;Node7</title>
<g id="a_edge6_Node000001_Node000007"><a xlink:title=" ">
<path fill="none" stroke="#63b8ff" d="M93.52,-172.43C110.29,-177.12 130.59,-182.8 149.67,-188.14"/>
<polygon fill="#63b8ff" stroke="#63b8ff" points="148.7,-191.5 159.28,-190.83 150.59,-184.76 148.7,-191.5"/>
</a>
</g>
</g>
<!-- Node29 -->
<g id="Node000029" class="node">
<title>Node29</title>
<g id="a_Node000029"><a xlink:href="class_async_client.html#a9ff634e3b1237eab65178b007326367e" target="_top" xlink:title=" ">
<polygon fill="white" stroke="#666666" points="269.75,-172 159.25,-172 159.25,-152 269.75,-152 269.75,-172"/>
<text xml:space="preserve" text-anchor="middle" x="214.5" y="-158.5" font-family="Helvetica,sans-Serif" font-size="10.00">AsyncClient::_s_error</text>
</a>
</g>
</g>
<!-- Node1&#45;&gt;Node29 -->
<g id="edge9_Node000001_Node000029" class="edge">
<title>Node1&#45;&gt;Node29</title>
<g id="a_edge9_Node000001_Node000029"><a xlink:title=" ">
<path fill="none" stroke="#63b8ff" d="M110.81,-162C122.57,-162 135.13,-162 147.28,-162"/>
<polygon fill="#63b8ff" stroke="#63b8ff" points="147.26,-165.5 157.26,-162 147.26,-158.5 147.26,-165.5"/>
</a>
</g>
</g>
<!-- Node31 -->
<g id="Node000031" class="node">
<title>Node31</title>
<g id="a_Node000031"><a xlink:href="class_async_client.html#a6a69c67e1a22660766affb64700c2276" target="_top" xlink:title=" ">
<polygon fill="white" stroke="#666666" points="265.25,-96 163.75,-96 163.75,-76 265.25,-76 265.25,-96"/>
<text xml:space="preserve" text-anchor="middle" x="214.5" y="-82.5" font-family="Helvetica,sans-Serif" font-size="10.00">AsyncClient::_s_fin</text>
</a>
</g>
</g>
<!-- Node1&#45;&gt;Node31 -->
<g id="edge12_Node000001_Node000031" class="edge">
<title>Node1&#45;&gt;Node31</title>
<g id="a_edge12_Node000001_Node000031"><a xlink:title=" ">
<path fill="none" stroke="#63b8ff" d="M69.92,-151.59C87.02,-139.01 117.56,-117.92 146.5,-105 150.48,-103.22 154.68,-101.57 158.94,-100.04"/>
<polygon fill="#63b8ff" stroke="#63b8ff" points="159.79,-103.44 168.17,-96.97 157.58,-96.8 159.79,-103.44"/>
</a>
</g>
</g>
<!-- Node34 -->
<g id="Node000034" class="node">
<title>Node34</title>
<g id="a_Node000034"><a xlink:href="class_async_client.html#abe187c005c73fe6c0c94e1b3b20b55de" target="_top" xlink:title=" ">
<polygon fill="white" stroke="#666666" points="267.5,-134 161.5,-134 161.5,-114 267.5,-114 267.5,-134"/>
<text xml:space="preserve" text-anchor="middle" x="214.5" y="-120.5" font-family="Helvetica,sans-Serif" font-size="10.00">AsyncClient::_s_poll</text>
</a>
</g>
</g>
<!-- Node1&#45;&gt;Node34 -->
<g id="edge15_Node000001_Node000034" class="edge">
<title>Node1&#45;&gt;Node34</title>
<g id="a_edge15_Node000001_Node000034"><a xlink:title=" ">
<path fill="none" stroke="#63b8ff" d="M99.64,-151.52C118.03,-147.07 139.66,-141.84 159.1,-137.15"/>
<polygon fill="#63b8ff" stroke="#63b8ff" points="159.89,-140.56 168.78,-134.81 158.24,-133.75 159.89,-140.56"/>
</a>
</g>
</g>
<!-- Node42 -->
<g id="Node000042" class="node">
<title>Node42</title>
<g id="a_Node000042"><a xlink:href="class_async_client.html#af8136d3085c8948078a131bfb9430ec6" target="_top" xlink:title=" ">
<polygon fill="white" stroke="#666666" points="269.38,-58 159.62,-58 159.62,-38 269.38,-38 269.38,-58"/>
<text xml:space="preserve" text-anchor="middle" x="214.5" y="-44.5" font-family="Helvetica,sans-Serif" font-size="10.00">AsyncClient::_s_recv</text>
</a>
</g>
</g>
<!-- Node1&#45;&gt;Node42 -->
<g id="edge20_Node000001_Node000042" class="edge">
<title>Node1&#45;&gt;Node42</title>
<g id="a_edge20_Node000001_Node000042"><a xlink:title=" ">
<path fill="none" stroke="#63b8ff" d="M63.13,-151.7C76.71,-132.17 108.93,-89.71 146.5,-67 149.08,-65.44 151.79,-64.01 154.58,-62.68"/>
<polygon fill="#63b8ff" stroke="#63b8ff" points="155.67,-66.02 163.58,-58.96 153,-59.55 155.67,-66.02"/>
</a>
</g>
</g>
<!-- Node46 -->
<g id="Node000046" class="node">
<title>Node46</title>
<g id="a_Node000046"><a xlink:href="class_async_client.html#a8e507d50b4cc3ae8e90f2e1c1ebf5f61" target="_top" xlink:title=" ">
<polygon fill="white" stroke="#666666" points="269.38,-20 159.62,-20 159.62,0 269.38,0 269.38,-20"/>
<text xml:space="preserve" text-anchor="middle" x="214.5" y="-6.5" font-family="Helvetica,sans-Serif" font-size="10.00">AsyncClient::_s_sent</text>
</a>
</g>
</g>
<!-- Node1&#45;&gt;Node46 -->
<g id="edge23_Node000001_Node000046" class="edge">
<title>Node1&#45;&gt;Node46</title>
<g id="a_edge23_Node000001_Node000046"><a xlink:title=" ">
<path fill="none" stroke="#63b8ff" d="M60.35,-151.52C70.74,-126.36 100.58,-62.16 146.5,-29 148.3,-27.7 150.19,-26.49 152.14,-25.36"/>
<polygon fill="#63b8ff" stroke="#63b8ff" points="153.54,-28.57 160.98,-21.04 150.46,-22.28 153.54,-28.57"/>
</a>
</g>
</g>
<!-- Node4 -->
<g id="Node000004" class="node">
<title>Node4</title>
<g id="a_Node000004"><a xlink:href="class_async_server.html#ae12ee87206611e09ed5e644c6baf1c96" target="_top" xlink:title=" ">
<polygon fill="white" stroke="#666666" points="442.88,-298 319.62,-298 319.62,-278 442.88,-278 442.88,-298"/>
<text xml:space="preserve" text-anchor="middle" x="381.25" y="-284.5" font-family="Helvetica,sans-Serif" font-size="10.00">AsyncServer::_accepted</text>
</a>
</g>
</g>
<!-- Node3&#45;&gt;Node4 -->
<g id="edge3_Node000003_Node000004" class="edge">
<title>Node3&#45;&gt;Node4</title>
<g id="a_edge3_Node000003_Node000004"><a xlink:title=" ">
<path fill="none" stroke="#63b8ff" d="M281.56,-288C290.21,-288 299.12,-288 307.86,-288"/>
<polygon fill="#63b8ff" stroke="#63b8ff" points="307.73,-291.5 317.73,-288 307.73,-284.5 307.73,-291.5"/>
</a>
</g>
</g>
<!-- Node6 -->
<g id="Node000006" class="node">
<title>Node6</title>
<g id="a_Node000006"><a xlink:href="class_async_client.html#a045a3529852917ea1d4dfff5d9c3ba90" target="_top" xlink:title=" ">
<polygon fill="white" stroke="#666666" points="444,-260 318.5,-260 318.5,-240 444,-240 444,-260"/>
<text xml:space="preserve" text-anchor="middle" x="381.25" y="-246.5" font-family="Helvetica,sans-Serif" font-size="10.00">AsyncClient::_connected</text>
</a>
</g>
</g>
<!-- Node5&#45;&gt;Node6 -->
<g id="edge5_Node000005_Node000006" class="edge">
<title>Node5&#45;&gt;Node6</title>
<g id="a_edge5_Node000005_Node000006"><a xlink:title=" ">
<path fill="none" stroke="#63b8ff" d="M282.99,-250C290.81,-250 298.81,-250 306.71,-250"/>
<polygon fill="#63b8ff" stroke="#63b8ff" points="306.65,-253.5 316.65,-250 306.65,-246.5 306.65,-253.5"/>
</a>
</g>
</g>
<!-- Node8 -->
<g id="Node000008" class="node">
<title>Node8</title>
<g id="a_Node000008"><a xlink:href="class_async_client.html#a19dc40652b5b003288e10529ee169b65" target="_top" xlink:title=" ">
<polygon fill="white" stroke="#666666" points="444,-216 318.5,-216 318.5,-196 444,-196 444,-216"/>
<text xml:space="preserve" text-anchor="middle" x="381.25" y="-202.5" font-family="Helvetica,sans-Serif" font-size="10.00">AsyncClient::_dns_found</text>
</a>
</g>
</g>
<!-- Node7&#45;&gt;Node8 -->
<g id="edge7_Node000007_Node000008" class="edge">
<title>Node7&#45;&gt;Node8</title>
<g id="a_edge7_Node000007_Node000008"><a xlink:title=" ">
<path fill="none" stroke="#63b8ff" d="M268.08,-206C280.39,-206 293.72,-206 306.76,-206"/>
<polygon fill="#63b8ff" stroke="#63b8ff" points="306.59,-209.5 316.59,-206 306.59,-202.5 306.59,-209.5"/>
</a>
</g>
</g>
<!-- Node9 -->
<g id="Node000009" class="node">
<title>Node9</title>
<g id="a_Node000009"><a xlink:href="class_async_client.html#aaa5b952568c85d25c32d0dff8ec74794" target="_top" xlink:title=" ">
<polygon fill="#fff0f0" stroke="red" points="589.75,-216 480,-216 480,-196 589.75,-196 589.75,-216"/>
<text xml:space="preserve" text-anchor="middle" x="534.88" y="-202.5" font-family="Helvetica,sans-Serif" font-size="10.00">AsyncClient::connect</text>
</a>
</g>
</g>
<!-- Node8&#45;&gt;Node9 -->
<g id="edge8_Node000008_Node000009" class="edge">
<title>Node8&#45;&gt;Node9</title>
<g id="a_edge8_Node000008_Node000009"><a xlink:title=" ">
<path fill="none" stroke="#63b8ff" d="M444.36,-206C452.36,-206 460.58,-206 468.63,-206"/>
<polygon fill="#63b8ff" stroke="#63b8ff" points="468.36,-209.5 478.36,-206 468.36,-202.5 468.36,-209.5"/>
</a>
</g>
</g>
<!-- Node30 -->
<g id="Node000030" class="node">
<title>Node30</title>
<g id="a_Node000030"><a xlink:href="class_async_client.html#a5145b1cfe1a49ba9a066eee404013835" target="_top" xlink:title=" ">
<polygon fill="white" stroke="#666666" points="584.88,-172 484.88,-172 484.88,-152 584.88,-152 584.88,-172"/>
<text xml:space="preserve" text-anchor="middle" x="534.88" y="-158.5" font-family="Helvetica,sans-Serif" font-size="10.00">AsyncClient::_error</text>
</a>
</g>
</g>
<!-- Node29&#45;&gt;Node30 -->
<g id="edge10_Node000029_Node000030" class="edge">
<title>Node29&#45;&gt;Node30</title>
<g id="a_edge10_Node000029_Node000030"><a xlink:title=" ">
<path fill="none" stroke="#63b8ff" d="M270.23,-162C326.73,-162 414.67,-162 473.25,-162"/>
<polygon fill="#63b8ff" stroke="#63b8ff" points="473.05,-165.5 483.05,-162 473.05,-158.5 473.05,-165.5"/>
</a>
</g>
</g>
<!-- Node27 -->
<g id="Node000027" class="node">
<title>Node27</title>
<g id="a_Node000027"><a xlink:href="class_async_client.html#aff6a2fbf261b25e1fcd35c11cce348a5" target="_top" xlink:title=" ">
<polygon fill="white" stroke="#666666" points="722.75,-170 625.75,-170 625.75,-138 722.75,-138 722.75,-170"/>
<text xml:space="preserve" text-anchor="start" x="633.75" y="-156.5" font-family="Helvetica,sans-Serif" font-size="10.00">AsyncClient::_free</text>
<text xml:space="preserve" text-anchor="middle" x="674.25" y="-144.5" font-family="Helvetica,sans-Serif" font-size="10.00">_closed_slot</text>
</a>
</g>
</g>
<!-- Node30&#45;&gt;Node27 -->
<g id="edge11_Node000030_Node000027" class="edge">
<title>Node30&#45;&gt;Node27</title>
<g id="a_edge11_Node000030_Node000027"><a xlink:title=" ">
<path fill="none" stroke="#63b8ff" d="M585.08,-159.13C594.49,-158.59 604.43,-158.01 614.11,-157.44"/>
<polygon fill="#63b8ff" stroke="#63b8ff" points="614.02,-160.96 623.8,-156.88 613.61,-153.97 614.02,-160.96"/>
</a>
</g>
</g>
<!-- Node32 -->
<g id="Node000032" class="node">
<title>Node32</title>
<g id="a_Node000032"><a xlink:href="class_async_client.html#afe295b6c577021c8946eb266ac41df51" target="_top" xlink:title=" ">
<polygon fill="white" stroke="#666666" points="580.38,-96 489.38,-96 489.38,-76 580.38,-76 580.38,-96"/>
<text xml:space="preserve" text-anchor="middle" x="534.88" y="-82.5" font-family="Helvetica,sans-Serif" font-size="10.00">AsyncClient::_fin</text>
</a>
</g>
</g>
<!-- Node31&#45;&gt;Node32 -->
<g id="edge13_Node000031_Node000032" class="edge">
<title>Node31&#45;&gt;Node32</title>
<g id="a_edge13_Node000031_Node000032"><a xlink:title=" ">
<path fill="none" stroke="#63b8ff" d="M265.6,-86C323.26,-86 417.71,-86 477.79,-86"/>
<polygon fill="#63b8ff" stroke="#63b8ff" points="477.44,-89.5 487.44,-86 477.44,-82.5 477.44,-89.5"/>
</a>
</g>
</g>
<!-- Node33 -->
<g id="Node000033" class="node">
<title>Node33</title>
<g id="a_Node000033"><a xlink:href="_async_t_c_p_8cpp.html#ab053d5adb5be879f37181af512213bb6" target="_top" xlink:title=" ">
<polygon fill="#fff0f0" stroke="red" points="722,-112 626.5,-112 626.5,-92 722,-92 722,-112"/>
<text xml:space="preserve" text-anchor="middle" x="674.25" y="-98.5" font-family="Helvetica,sans-Serif" font-size="10.00">_tcp_clear_events</text>
</a>
</g>
</g>
<!-- Node32&#45;&gt;Node33 -->
<g id="edge14_Node000032_Node000033" class="edge">
<title>Node32&#45;&gt;Node33</title>
<g id="a_edge14_Node000032_Node000033"><a xlink:title=" ">
<path fill="none" stroke="#63b8ff" d="M580.86,-91.24C591.77,-92.51 603.6,-93.89 615.03,-95.22"/>
<polygon fill="#63b8ff" stroke="#63b8ff" points="614.44,-98.67 624.78,-96.35 615.25,-91.72 614.44,-98.67"/>
</a>
</g>
</g>
<!-- Node35 -->
<g id="Node000035" class="node">
<title>Node35</title>
<g id="a_Node000035"><a xlink:href="class_async_client.html#a383d1cb7d684d328362caa5eafc92ca2" target="_top" xlink:title=" ">
<polygon fill="white" stroke="#666666" points="429,-134 333.5,-134 333.5,-114 429,-114 429,-134"/>
<text xml:space="preserve" text-anchor="middle" x="381.25" y="-120.5" font-family="Helvetica,sans-Serif" font-size="10.00">AsyncClient::_poll</text>
</a>
</g>
</g>
<!-- Node34&#45;&gt;Node35 -->
<g id="edge16_Node000034_Node000035" class="edge">
<title>Node34&#45;&gt;Node35</title>
<g id="a_edge16_Node000034_Node000035"><a xlink:title=" ">
<path fill="none" stroke="#63b8ff" d="M267.63,-124C284.87,-124 304.17,-124 321.86,-124"/>
<polygon fill="#63b8ff" stroke="#63b8ff" points="321.69,-127.5 331.69,-124 321.69,-120.5 321.69,-127.5"/>
</a>
</g>
</g>
<!-- Node36 -->
<g id="Node000036" class="node">
<title>Node36</title>
<g id="a_Node000036"><a xlink:href="class_async_client.html#a98ff872bc84919f006f3bb8a249ed36d" target="_top" xlink:title=" ">
<polygon fill="#fff0f0" stroke="red" points="586.75,-134 483,-134 483,-114 586.75,-114 586.75,-134"/>
<text xml:space="preserve" text-anchor="middle" x="534.88" y="-120.5" font-family="Helvetica,sans-Serif" font-size="10.00">AsyncClient::_close</text>
</a>
</g>
</g>
<!-- Node35&#45;&gt;Node36 -->
<g id="edge17_Node000035_Node000036" class="edge">
<title>Node35&#45;&gt;Node36</title>
<g id="a_edge17_Node000035_Node000036"><a xlink:title=" ">
<path fill="none" stroke="#63b8ff" d="M429.39,-124C442.7,-124 457.39,-124 471.45,-124"/>
<polygon fill="#63b8ff" stroke="#63b8ff" points="471.03,-127.5 481.03,-124 471.03,-120.5 471.03,-127.5"/>
</a>
</g>
</g>
<!-- Node36&#45;&gt;Node27 -->
<g id="edge18_Node000036_Node000027" class="edge">
<title>Node36&#45;&gt;Node27</title>
<g id="a_edge18_Node000036_Node000027"><a xlink:title=" ">
<path fill="none" stroke="#63b8ff" d="M583.92,-134.49C593.7,-136.63 604.1,-138.9 614.21,-141.11"/>
<polygon fill="#63b8ff" stroke="#63b8ff" points="613.47,-144.53 623.98,-143.24 614.96,-137.69 613.47,-144.53"/>
</a>
</g>
</g>
<!-- Node36&#45;&gt;Node33 -->
<g id="edge19_Node000036_Node000033" class="edge">
<title>Node36&#45;&gt;Node33</title>
<g id="a_edge19_Node000036_Node000033"><a xlink:title=" ">
<path fill="none" stroke="#63b8ff" d="M587.03,-115.81C596.14,-114.35 605.69,-112.82 614.98,-111.33"/>
<polygon fill="#63b8ff" stroke="#63b8ff" points="615.33,-114.82 624.65,-109.78 614.22,-107.91 615.33,-114.82"/>
</a>
</g>
</g>
<!-- Node43 -->
<g id="Node000043" class="node">
<title>Node43</title>
<g id="a_Node000043"><a xlink:href="class_async_client.html#af9a0368be4f98f49f252b1989b84b5a3" target="_top" xlink:title=" ">
<polygon fill="white" stroke="#666666" points="430.88,-58 331.62,-58 331.62,-38 430.88,-38 430.88,-58"/>
<text xml:space="preserve" text-anchor="middle" x="381.25" y="-44.5" font-family="Helvetica,sans-Serif" font-size="10.00">AsyncClient::_recv</text>
</a>
</g>
</g>
<!-- Node42&#45;&gt;Node43 -->
<g id="edge21_Node000042_Node000043" class="edge">
<title>Node42&#45;&gt;Node43</title>
<g id="a_edge21_Node000042_Node000043"><a xlink:title=" ">
<path fill="none" stroke="#63b8ff" d="M269.45,-48C285.61,-48 303.44,-48 319.98,-48"/>
<polygon fill="#63b8ff" stroke="#63b8ff" points="319.68,-51.5 329.68,-48 319.68,-44.5 319.68,-51.5"/>
</a>
</g>
</g>
<!-- Node44 -->
<g id="Node000044" class="node">
<title>Node44</title>
<g id="a_Node000044"><a xlink:href="_async_t_c_p_8cpp.html#acfb3f5bacaaabd2c616896510fd1f10b" target="_top" xlink:title=" ">
<polygon fill="#fff0f0" stroke="red" points="569.5,-58 500.25,-58 500.25,-38 569.5,-38 569.5,-58"/>
<text xml:space="preserve" text-anchor="middle" x="534.88" y="-44.5" font-family="Helvetica,sans-Serif" font-size="10.00">_tcp_recved</text>
</a>
</g>
</g>
<!-- Node43&#45;&gt;Node44 -->
<g id="edge22_Node000043_Node000044" class="edge">
<title>Node43&#45;&gt;Node44</title>
<g id="a_edge22_Node000043_Node000044"><a xlink:title=" ">
<path fill="none" stroke="#63b8ff" d="M431.06,-48C449.52,-48 470.45,-48 488.57,-48"/>
<polygon fill="#63b8ff" stroke="#63b8ff" points="488.52,-51.5 498.52,-48 488.52,-44.5 488.52,-51.5"/>
</a>
</g>
</g>
<!-- Node47 -->
<g id="Node000047" class="node">
<title>Node47</title>
<g id="a_Node000047"><a xlink:href="class_async_client.html#a6a6efff5757dd06483709456e2f637b4" target="_top" xlink:title=" ">
<polygon fill="white" stroke="#666666" points="430.88,-20 331.62,-20 331.62,0 430.88,0 430.88,-20"/>
<text xml:space="preserve" text-anchor="middle" x="381.25" y="-6.5" font-family="Helvetica,sans-Serif" font-size="10.00">AsyncClient::_sent</text>
</a>
</g>
</g>
<!-- Node46&#45;&gt;Node47 -->
<g id="edge24_Node000046_Node000047" class="edge">
<title>Node46&#45;&gt;Node47</title>
<g id="a_edge24_Node000046_Node000047"><a xlink:title=" ">
<path fill="none" stroke="#63b8ff" d="M269.45,-10C285.61,-10 303.44,-10 319.98,-10"/>
<polygon fill="#63b8ff" stroke="#63b8ff" points="319.68,-13.5 329.68,-10 319.68,-6.5 319.68,-13.5"/>
</a>
</g>
</g>
</g>
</svg>

<g id="navigator" transform="translate(0 0)" fill="#404254">
  <rect fill="#f2f5e9" fill-opacity="0.5" stroke="#606060" stroke-width=".5" x="0" y="0" width="60" height="60"/>
  <use id="zoomplus" xlink:href="#zoomPlus" x="17" y="9" onmousedown="handleZoom(evt,'in')"/>
  <use id="zoomminus" xlink:href="#zoomMin" x="42" y="9" onmousedown="handleZoom(evt,'out')"/>
  <use id="reset" xlink:href="#resetDef" x="30" y="36" onmousedown="handleReset()"/>
   <use id="arrowup" xlink:href="#arrowUp" x="0" y="0" onmousedown="handlePan(0,-1)"/>
  <use id="arrowright" xlink:href="#arrowRight" x="0" y="0" onmousedown="handlePan(1,0)"/>
  <use id="arrowdown" xlink:href="#arrowDown" x="0" y="0" onmousedown="handlePan(0,1)"/>
  <use id="arrowleft" xlink:href="#arrowLeft" x="0" y="0" onmousedown="handlePan(-1,0)"/>
</g>
<svg viewBox="0 0 15 15" width="100%" height="30px" preserveAspectRatio="xMaxYMin meet">
 <g id="arrow_out" transform="scale(0.3 0.3)">
  <a xlink:href="_async_t_c_p_8cpp_ac4030e968c0e4c0fcbe7a9b4502854c1_cgraph_org.svg" target="_base">
   <rect id="button" ry="5" rx="5" y="6" x="6" height="38" width="38"
        fill="#f2f5e9" fill-opacity="0.5" stroke="#606060" stroke-width="1.0"/>
   <path id="arrow"
     d="M 11.500037,31.436501 C 11.940474,20.09759 22.043105,11.32322 32.158766,21.979434 L 37.068811,17.246167 C 37.068811,17.246167 37.088388,32 37.088388,32 L 22.160133,31.978069 C 22.160133,31.978069 26.997745,27.140456 26.997745,27.140456 C 18.528582,18.264221 13.291696,25.230495 11.500037,31.436501 z"
     style="fill:#404040;"/>
  </a>
 </g>
</svg>

<style type='text/css'>
<![CDATA[
[data-mouse-over-selected='false'] { opacity: 0.7; }
[data-mouse-over-selected='true']  { opacity: 1.0; }
]]>
</style>
<script type="application/ecmascript"><![CDATA[
document.addEventListener('DOMContentLoaded', (event) => {
  highlightEdges();
  highlightAdjacentNodes();
});
]]></script>
</svg>
