<?xml version="1.0" encoding="UTF-8" standalone="no"?>
<!DOCTYPE svg PUBLIC "-//W3C//DTD SVG 1.1//EN"
 "http://www.w3.org/Graphics/SVG/1.1/DTD/svg11.dtd">
<!-- Generated by graphviz version 14.1.2 (20260124.0452)
 -->
<!-- Title: _tcp_abort Pages: 1 -->
<!--zoomable 198 -->

<svg id="main" version="1.1" xmlns="http://www.w3.org/2000/svg" xmlns:xlink="http://www.w3.org/1999/xlink" xml:space="preserve" onload="init(evt)">

<style type="text/css"><![CDATA[
.node, .edge {opacity: 0.7;}
.node.selected, .edge.selected {opacity: 1;}
.edge:hover path { stroke: red; }
.edge:hover polygon { stroke: red; fill: red; }
]]></style>

<defs>
  <circle id="rim" cx="0" cy="0" r="7"/>
  <circle id="rim2" cx="0" cy="0" r="3.5"/>
  <g id="zoomPlus">
    <use xlink:href="#rim" fill="#404040"><set attributeName="fill" to="#808080" begin="zoomplus.mouseover" end="zoomplus.mouseout"/></use>
    <path d="M-4,0h8M0,-4v8" fill="none" stroke="white" stroke-width="1.5" pointer-events="none"/>
  </g>
  <g id="zoomMin">
    <use xlink:href="#rim" fill="#404040"><set attributeName="fill" to="#808080" begin="zoomminus.mouseover" end="zoomminus.mouseout"/></use>
    <path d="M-4,0h8" fill="none" stroke="white" stroke-width="1.5" pointer-events="none"/>
  </g>
  <g id="arrowUp" transform="translate(30 24)">
    <use xlink:href="#rim"/>
    <path pointer-events="none" fill="none" stroke="white" stroke-width="1.5" d="M0,-3.0v7 M-2.5,-0.5L0,-3.0L2.5,-0.5"/>
  </g>
  <g id="arrowRight" transform="rotate(90) translate(36 -43)">
    <use xlink:href="#rim"/>
    <path pointer-events="none" fill="none" stroke="white" stroke-width="1.5" d="M0,-3.0v7 M-2.5,-0.5L0,-3.0L2.5,-0.5"/>
  </g>
  <g id="arrowDown" transform="rotate(180) translate(-30 -48)">
    <use xlink:href="#rim"/>
    <path pointer-events="none" fill="none" stroke="white" stroke-width="1.5" d="M0,-3.0v7 M-2.5,-0.5L0,-3.0L2.5,-0.5"/>
  </g>
  <g id="arrowLeft" transform="rotate(270) translate(-36 17)">
    <use xlink:href="#rim"/>
    <path pointer-events="none" fill="none" stroke="white" stroke-width="1.5" d="M0,-3.0v7 M-2.5,-0.5L0,-3.0L2.5,-0.5"/>
  </g>
  <g id="resetDef">
    <use xlink:href="#rim2" fill="#404040"><set attributeName="fill" to="#808080" begin="reset.mouseover" end="reset.mouseout"/></use>
  </g>
</defs>
<script type="application/ecmascript">
var viewWidth = 550;
var viewHeight = 198;
var sectionId = 'dynsection-14';
</script>
<script type="application/ecmascript" xlink:href="svg.min.js"/>
<svg id="graph" class="graph">
<g id="viewport">
<title>_tcp_abort</title>
<!-- Node1 -->
<g id="Node000001" class="node">
<title>Node1</title>
<g id="a_Node000001"><a xlink:title=" ">
<polygon fill="#999999" stroke="#666666" points="541.75,-77 480,-77 480,-57 541.75,-57 541.75,-77"/>
<text xml:space="preserve" text-anchor="middle" x="510.88" y="-63.5" font-family="Helvetica,sans-Serif" font-size="10.00">_tcp_abort</text>
</a>
</g>
</g>
<!-- Node2 -->
<g id="Node000002" class="node">
<title>Node2</title>
<g id="a_Node000002"><a xlink:href="class_async_client.html#a09e777ff005d8e0f81166e704dc14979" target="_top" xlink:title=" ">
<polygon fill="white" stroke="#666666" points="444,-96 347,-96 347,-76 444,-76 444,-96"/>
<text xml:space="preserve" text-anchor="middle" x="395.5" y="-82.5" font-family="Helvetica,sans-Serif" font-size="10.00">AsyncClient::abort</text>
</a>
</g>
</g>
<!-- Node1&#45;&gt;Node2 -->
<g id="edge1_Node000001_Node000002" class="edge">
<title>Node1&#45;&gt;Node2</title>
<g id="a_edge1_Node000001_Node000002"><a xlink:title=" ">
<path fill="none" stroke="#63b8ff" d="M468.6,-73.92C460.7,-75.24 452.37,-76.64 444.28,-77.99"/>
<polygon fill="#63b8ff" stroke="#63b8ff" points="469.01,-77.4 478.3,-72.29 467.86,-70.49 469.01,-77.4"/>
</a>
</g>
</g>
<!-- Node23 -->
<g id="Node000023" class="node">
<title>Node23</title>
<g id="a_Node000023"><a xlink:href="class_async_server.html#ab4e3997502c28dca6ca0703fea8b2122" target="_top" xlink:title=" ">
<polygon fill="white" stroke="#666666" points="442.5,-58 348.5,-58 348.5,-38 442.5,-38 442.5,-58"/>
<text xml:space="preserve" text-anchor="middle" x="395.5" y="-44.5" font-family="Helvetica,sans-Serif" font-size="10.00">AsyncServer::end</text>
</a>
</g>
</g>
<!-- Node1&#45;&gt;Node23 -->
<g id="edge9_Node000001_Node000023" class="edge">
<title>Node1&#45;&gt;Node23</title>
<g id="a_edge9_Node000001_Node000023"><a xlink:title=" ">
<path fill="none" stroke="#63b8ff" d="M468.47,-60.06C460.18,-58.67 451.42,-57.2 442.98,-55.79"/>
<polygon fill="#63b8ff" stroke="#63b8ff" points="467.86,-63.51 478.3,-61.71 469.01,-56.6 467.86,-63.51"/>
</a>
</g>
</g>
<!-- Node3 -->
<g id="Node000003" class="node">
<title>Node3</title>
<g id="a_Node000003"><a xlink:href="class_async_client.html#a98ff872bc84919f006f3bb8a249ed36d" target="_top" xlink:title=" ">
<polygon fill="white" stroke="#666666" points="292.62,-96 188.88,-96 188.88,-76 292.62,-76 292.62,-96"/>
<text xml:space="preserve" text-anchor="middle" x="240.75" y="-82.5" font-family="Helvetica,sans-Serif" font-size="10.00">AsyncClient::_close</text>
</a>
</g>
</g>
<!-- Node2&#45;&gt;Node3 -->
<g id="edge2_Node000002_Node000003" class="edge">
<title>Node2&#45;&gt;Node3</title>
<g id="a_edge2_Node000002_Node000003"><a xlink:title=" ">
<path fill="none" stroke="#63b8ff" d="M335.12,-86C321.19,-86 306.46,-86 292.93,-86"/>
<polygon fill="#63b8ff" stroke="#63b8ff" points="335.07,-89.5 345.07,-86 335.07,-82.5 335.07,-89.5"/>
</a>
</g>
</g>
<!-- Node4 -->
<g id="Node000004" class="node">
<title>Node4</title>
<g id="a_Node000004"><a xlink:href="class_async_client.html#a383d1cb7d684d328362caa5eafc92ca2" target="_top" xlink:title=" ">
<polygon fill="#fff0f0" stroke="red" points="115,-190 19.5,-190 19.5,-170 115,-170 115,-190"/>
<text xml:space="preserve" text-anchor="middle" x="67.25" y="-176.5" font-family="Helvetica,sans-Serif" font-size="10.00">AsyncClient::_poll</text>
</a>
</g>
</g>
<!-- Node3&#45;&gt;Node4 -->
<g id="edge3_Node000003_Node000004" class="edge">
<title>Node3&#45;&gt;Node4</title>
<g id="a_edge3_Node000003_Node000004"><a xlink:title=" ">
<path fill="none" stroke="#63b8ff" d="M219.32,-103.8C199.03,-120.65 166.43,-145.61 134.5,-161 127.6,-164.33 120.01,-167.18 112.51,-169.58"/>
<polygon fill="#63b8ff" stroke="#63b8ff" points="221.45,-106.58 226.82,-97.45 216.93,-101.23 221.45,-106.58"/>
</a>
</g>
</g>
<!-- Node15 -->
<g id="Node000015" class="node">
<title>Node15</title>
<g id="a_Node000015"><a xlink:href="class_async_client.html#aefecfa0c75c8c1b32104115e93739087" target="_top" xlink:title=" ">
<polygon fill="#fff0f0" stroke="red" points="131.5,-134 3,-134 3,-114 131.5,-114 131.5,-134"/>
<text xml:space="preserve" text-anchor="middle" x="67.25" y="-120.5" font-family="Helvetica,sans-Serif" font-size="10.00">AsyncClient::AsyncClient</text>
</a>
</g>
</g>
<!-- Node3&#45;&gt;Node15 -->
<g id="edge4_Node000003_Node000015" class="edge">
<title>Node3&#45;&gt;Node15</title>
<g id="a_edge4_Node000003_Node000015"><a xlink:title=" ">
<path fill="none" stroke="#63b8ff" d="M181.45,-98.92C159.93,-103.69 135.83,-109.03 115.41,-113.55"/>
<polygon fill="#63b8ff" stroke="#63b8ff" points="181.95,-102.39 190.96,-96.81 180.43,-95.56 181.95,-102.39"/>
</a>
</g>
</g>
<!-- Node18 -->
<g id="Node000018" class="node">
<title>Node18</title>
<g id="a_Node000018"><a xlink:href="class_async_client.html#a0305fe0b036257c03829ceaa5cc43361" target="_top" xlink:title="close connection">
<polygon fill="#fff0f0" stroke="red" points="116.5,-96 18,-96 18,-76 116.5,-76 116.5,-96"/>
<text xml:space="preserve" text-anchor="middle" x="67.25" y="-82.5" font-family="Helvetica,sans-Serif" font-size="10.00">AsyncClient::close</text>
</a>
</g>
</g>
<!-- Node3&#45;&gt;Node18 -->
<g id="edge6_Node000003_Node000018" class="edge">
<title>Node3&#45;&gt;Node18</title>
<g id="a_edge6_Node000003_Node000018"><a xlink:title=" ">
<path fill="none" stroke="#63b8ff" d="M177.3,-86C157.43,-86 135.74,-86 116.98,-86"/>
<polygon fill="#63b8ff" stroke="#63b8ff" points="177.25,-89.5 187.25,-86 177.25,-82.5 177.25,-89.5"/>
</a>
</g>
</g>
<!-- Node21 -->
<g id="Node000021" class="node">
<title>Node21</title>
<g id="a_Node000021"><a xlink:href="class_async_client.html#a575c12664279634155259e007c6a104f" target="_top" xlink:title=" ">
<polygon fill="white" stroke="#666666" points="125.5,-58 9,-58 9,-38 125.5,-38 125.5,-58"/>
<text xml:space="preserve" text-anchor="middle" x="67.25" y="-44.5" font-family="Helvetica,sans-Serif" font-size="10.00">AsyncClient::operator=</text>
</a>
</g>
</g>
<!-- Node3&#45;&gt;Node21 -->
<g id="edge7_Node000003_Node000021" class="edge">
<title>Node3&#45;&gt;Node21</title>
<g id="a_edge7_Node000003_Node000021"><a xlink:title=" ">
<path fill="none" stroke="#63b8ff" d="M181.45,-73.08C159.93,-68.31 135.83,-62.97 115.41,-58.45"/>
<polygon fill="#63b8ff" stroke="#63b8ff" points="180.43,-76.44 190.96,-75.19 181.95,-69.61 180.43,-76.44"/>
</a>
</g>
</g>
<!-- Node22 -->
<g id="Node000022" class="node">
<title>Node22</title>
<g id="a_Node000022"><a xlink:href="class_async_client.html#a4044bdcfd2ca6197f75200644685c5f0" target="_top" xlink:title=" ">
<polygon fill="white" stroke="#666666" points="134.5,-20 0,-20 0,0 134.5,0 134.5,-20"/>
<text xml:space="preserve" text-anchor="middle" x="67.25" y="-6.5" font-family="Helvetica,sans-Serif" font-size="10.00">AsyncClient::~AsyncClient</text>
</a>
</g>
</g>
<!-- Node3&#45;&gt;Node22 -->
<g id="edge8_Node000003_Node000022" class="edge">
<title>Node3&#45;&gt;Node22</title>
<g id="a_edge8_Node000003_Node000022"><a xlink:title=" ">
<path fill="none" stroke="#63b8ff" d="M178.25,-71.13C175.58,-69.86 172.98,-68.49 170.5,-67 150.55,-55.04 154.38,-41.08 134.5,-29 128.88,-25.58 122.61,-22.76 116.24,-20.43"/>
<polygon fill="#63b8ff" stroke="#63b8ff" points="176.89,-74.35 187.47,-74.94 179.56,-67.88 176.89,-74.35"/>
</a>
</g>
</g>
<!-- Node15&#45;&gt;Node15 -->
<g id="edge5_Node000015_Node000015" class="edge">
<title>Node15&#45;&gt;Node15</title>
<g id="a_edge5_Node000015_Node000015"><a xlink:title=" ">
<path fill="none" stroke="#63b8ff" d="M98.24,-145.11C94.54,-149.14 84.21,-152 67.25,-152 37.09,-152 27.9,-142.98 39.68,-134.34"/>
<polygon fill="#63b8ff" stroke="#63b8ff" points="101.64,-144.25 95.28,-135.78 94.97,-146.37 101.64,-144.25"/>
</a>
</g>
</g>
<!-- Node24 -->
<g id="Node000024" class="node">
<title>Node24</title>
<g id="a_Node000024"><a xlink:href="class_async_server.html#a615b3df090db6c2d451601bf9c295bc8" target="_top" xlink:title=" ">
<polygon fill="white" stroke="#666666" points="311,-58 170.5,-58 170.5,-38 311,-38 311,-58"/>
<text xml:space="preserve" text-anchor="middle" x="240.75" y="-44.5" font-family="Helvetica,sans-Serif" font-size="10.00">AsyncServer::~AsyncServer</text>
</a>
</g>
</g>
<!-- Node23&#45;&gt;Node24 -->
<g id="edge10_Node000023_Node000024" class="edge">
<title>Node23&#45;&gt;Node24</title>
<g id="a_edge10_Node000023_Node000024"><a xlink:title=" ">
<path fill="none" stroke="#63b8ff" d="M337.02,-48C328.6,-48 319.86,-48 311.23,-48"/>
<polygon fill="#63b8ff" stroke="#63b8ff" points="336.74,-51.5 346.74,-48 336.74,-44.5 336.74,-51.5"/>
</a>
</g>
</g>
</g>
</svg>

<g id="navigator" transform="translate(0 0)" fill="#404254">
  <rect fill="#f2f5e9" fill-opacity="0.5" stroke="#606060" stroke-width=".5" x="0" y="0" width="60" height="60"/>
  <use id="zoomplus" xlink:href="#zoomPlus" x="17" y="9" onmousedown="handleZoom(evt,'in')"/>
  <use id="zoomminus" xlink:href="#zoomMin" x="42" y="9" onmousedown="handleZoom(evt,'out')"/>
  <use id="reset" xlink:href="#resetDef" x="30" y="36" onmousedown="handleReset()"/>
   <use id="arrowup" xlink:href="#arrowUp" x="0" y="0" onmousedown="handlePan(0,-1)"/>
  <use id="arrowright" xlink:href="#arrowRight" x="0" y="0" onmousedown="handlePan(1,0)"/>
  <use id="arrowdown" xlink:href="#arrowDown" x="0" y="0" onmousedown="handlePan(0,1)"/>
  <use id="arrowleft" xlink:href="#arrowLeft" x="0" y="0" onmousedown="handlePan(-1,0)"/>
</g>
<svg viewBox="0 0 15 15" width="100%" height="30px" preserveAspectRatio="xMaxYMin meet">
 <g id="arrow_out" transform="scale(0.3 0.3)">
  <a xlink:href="_async_t_c_p_8cpp_a3e2474b46f6a3f01db216511d2bcfc4c_icgraph_org.svg" target="_base">
   <rect id="button" ry="5" rx="5" y="6" x="6" height="38" width="38"
        fill="#f2f5e9" fill-opacity="0.5" stroke="#606060" stroke-width="1.0"/>
   <path id="arrow"
     d="M 11.500037,31.436501 C 11.940474,20.09759 22.043105,11.32322 32.158766,21.979434 L 37.068811,17.246167 C 37.068811,17.246167 37.088388,32 37.088388,32 L 22.160133,31.978069 C 22.160133,31.978069 26.997745,27.140456 26.997745,27.140456 C 18.528582,18.264221 13.291696,25.230495 11.500037,31.436501 z"
     style="fill:#404040;"/>
  </a>
 </g>
</svg>

<style type='text/css'>
<![CDATA[
[data-mouse-over-selected='false'] { opacity: 0.7; }
[data-mouse-over-selected='true']  { opacity: 1.0; }
]]>
</style>
<script type="application/ecmascript"><![CDATA[
document.addEventListener('DOMContentLoaded', (event) => {
  highlightEdges();
  highlightAdjacentNodes();
});
]]></script>
</svg>
