<?xml version="1.0" encoding="UTF-8" standalone="no"?>
<!DOCTYPE svg PUBLIC "-//W3C//DTD SVG 1.1//EN"
 "http://www.w3.org/Graphics/SVG/1.1/DTD/svg11.dtd">
<!-- Generated by graphviz version 14.1.2 (20260124.0452)
 -->
<!-- Title: customTaskCreateUniversal Pages: 1 -->
<svg width="577pt" height="104pt"
 viewBox="0.00 0.00 577.00 104.00" xmlns="http://www.w3.org/2000/svg" xmlns:xlink="http://www.w3.org/1999/xlink">
<g id="graph0" class="graph" transform="scale(1 1) rotate(0) translate(4 100)">
<title>customTaskCreateUniversal</title>
<!-- Node1 -->
<g id="Node000001" class="node">
<title>Node1</title>
<g id="a_Node000001"><a xlink:title=" ">
<polygon fill="#999999" stroke="#666666" points="568.75,-58 429,-58 429,-38 568.75,-38 568.75,-58"/>
<text xml:space="preserve" text-anchor="middle" x="498.88" y="-44.5" font-family="Helvetica,sans-Serif" font-size="10.00">customTaskCreateUniversal</text>
</a>
</g>
</g>
<!-- Node2 -->
<g id="Node000002" class="node">
<title>Node2</title>
<g id="a_Node000002"><a xlink:href="_async_t_c_p_8cpp.html#a4d0de407bcfcc96b61af40aca3156708" target="_top" xlink:title=" ">
<polygon fill="white" stroke="#666666" points="393,-58 296.75,-58 296.75,-38 393,-38 393,-58"/>
<text xml:space="preserve" text-anchor="middle" x="344.88" y="-44.5" font-family="Helvetica,sans-Serif" font-size="10.00">_start_async_task</text>
</a>
</g>
</g>
<!-- Node1&#45;&gt;Node2 -->
<g id="edge1_Node000001_Node000002" class="edge">
<title>Node1&#45;&gt;Node2</title>
<g id="a_edge1_Node000001_Node000002"><a xlink:title=" ">
<path fill="none" stroke="#63b8ff" d="M417.08,-48C408.98,-48 400.95,-48 393.36,-48"/>
<polygon fill="#63b8ff" stroke="#63b8ff" points="417.03,-51.5 427.03,-48 417.03,-44.5 417.03,-51.5"/>
</a>
</g>
</g>
<!-- Node3 -->
<g id="Node000003" class="node">
<title>Node3</title>
<g id="a_Node000003"><a xlink:href="class_async_client.html#a758eaca983e03027c99003a5808883f8" target="_top" xlink:title=" ">
<polygon fill="white" stroke="#666666" points="260.75,-58 145.75,-58 145.75,-38 260.75,-38 260.75,-58"/>
<text xml:space="preserve" text-anchor="middle" x="203.25" y="-44.5" font-family="Helvetica,sans-Serif" font-size="10.00">AsyncClient::_connect</text>
</a>
</g>
</g>
<!-- Node2&#45;&gt;Node3 -->
<g id="edge2_Node000002_Node000003" class="edge">
<title>Node2&#45;&gt;Node3</title>
<g id="a_edge2_Node000002_Node000003"><a xlink:title=" ">
<path fill="none" stroke="#63b8ff" d="M285.15,-48C277.2,-48 269.06,-48 261.14,-48"/>
<polygon fill="#63b8ff" stroke="#63b8ff" points="285.09,-51.5 295.09,-48 285.09,-44.5 285.09,-51.5"/>
</a>
</g>
</g>
<!-- Node4 -->
<g id="Node000004" class="node">
<title>Node4</title>
<g id="a_Node000004"><a xlink:href="class_async_client.html#a260e075caca9a58241f2fad754cc412b" target="_top" xlink:title=" ">
<polygon fill="white" stroke="#666666" points="109.75,-96 0,-96 0,-76 109.75,-76 109.75,-96"/>
<text xml:space="preserve" text-anchor="middle" x="54.88" y="-82.5" font-family="Helvetica,sans-Serif" font-size="10.00">AsyncClient::connect</text>
</a>
</g>
</g>
<!-- Node2&#45;&gt;Node4 -->
<g id="edge6_Node000002_Node000004" class="edge">
<title>Node2&#45;&gt;Node4</title>
<g id="a_edge6_Node000002_Node000004"><a xlink:title=" ">
<path fill="none" stroke="#63b8ff" d="M292.1,-60.95C281.76,-63.22 270.95,-65.37 260.75,-67 209.96,-75.12 151.48,-80.12 110.04,-82.94"/>
<polygon fill="#63b8ff" stroke="#63b8ff" points="292.62,-64.42 301.6,-58.79 291.07,-57.59 292.62,-64.42"/>
</a>
</g>
</g>
<!-- Node10 -->
<g id="Node000010" class="node">
<title>Node10</title>
<g id="a_Node000010"><a xlink:href="class_async_server.html#a7e9ce55e4e1d0fab5531bac98ebfb3f9" target="_top" xlink:title=" ">
<polygon fill="white" stroke="#666666" points="254,-20 152.5,-20 152.5,0 254,0 254,-20"/>
<text xml:space="preserve" text-anchor="middle" x="203.25" y="-6.5" font-family="Helvetica,sans-Serif" font-size="10.00">AsyncServer::begin</text>
</a>
</g>
</g>
<!-- Node2&#45;&gt;Node10 -->
<g id="edge5_Node000002_Node000010" class="edge">
<title>Node2&#45;&gt;Node10</title>
<g id="a_edge5_Node000002_Node000010"><a xlink:title=" ">
<path fill="none" stroke="#63b8ff" d="M294.47,-34.55C277.45,-29.92 258.66,-24.81 242.65,-20.45"/>
<polygon fill="#63b8ff" stroke="#63b8ff" points="293.32,-37.87 303.89,-37.12 295.16,-31.11 293.32,-37.87"/>
</a>
</g>
</g>
<!-- Node3&#45;&gt;Node4 -->
<g id="edge3_Node000003_Node000004" class="edge">
<title>Node3&#45;&gt;Node4</title>
<g id="a_edge3_Node000003_Node000004"><a xlink:title=" ">
<path fill="none" stroke="#63b8ff" d="M150.97,-61.31C132.99,-65.98 113.07,-71.15 96.13,-75.55"/>
<polygon fill="#63b8ff" stroke="#63b8ff" points="151.6,-64.77 160.4,-58.86 149.84,-57.99 151.6,-64.77"/>
</a>
</g>
</g>
<!-- Node5 -->
<g id="Node000005" class="node">
<title>Node5</title>
<g id="a_Node000005"><a xlink:href="class_async_client.html#aaa5b952568c85d25c32d0dff8ec74794" target="_top" xlink:title=" ">
<polygon fill="#fff0f0" stroke="red" points="109.75,-58 0,-58 0,-38 109.75,-38 109.75,-58"/>
<text xml:space="preserve" text-anchor="middle" x="54.88" y="-44.5" font-family="Helvetica,sans-Serif" font-size="10.00">AsyncClient::connect</text>
</a>
</g>
</g>
<!-- Node3&#45;&gt;Node5 -->
<g id="edge4_Node000003_Node000005" class="edge">
<title>Node3&#45;&gt;Node5</title>
<g id="a_edge4_Node000003_Node000005"><a xlink:title=" ">
<path fill="none" stroke="#63b8ff" d="M134.23,-48C126.07,-48 117.83,-48 109.91,-48"/>
<polygon fill="#63b8ff" stroke="#63b8ff" points="134.14,-51.5 144.14,-48 134.14,-44.5 134.14,-51.5"/>
</a>
</g>
</g>
</g>
</svg>
