<?xml version="1.0" encoding="UTF-8" standalone="no"?>
<!DOCTYPE svg PUBLIC "-//W3C//DTD SVG 1.1//EN"
 "http://www.w3.org/Graphics/SVG/1.1/DTD/svg11.dtd">
<!-- Generated by graphviz version 14.1.2 (20260124.0452)
 -->
<!-- Title: _tcp_sent Pages: 1 -->
<svg width="1315pt" height="582pt"
 viewBox="0.00 0.00 1315.00 582.00" xmlns="http://www.w3.org/2000/svg" xmlns:xlink="http://www.w3.org/1999/xlink">
<g id="graph0" class="graph" transform="scale(1 1) rotate(0) translate(4 577.93)">
<title>_tcp_sent</title>
<!-- Node1 -->
<g id="Node000001" class="node">
<title>Node1</title>
<g id="a_Node000001"><a xlink:title=" ">
<polygon fill="#999999" stroke="#666666" points="1307.25,-279.93 1248.5,-279.93 1248.5,-259.93 1307.25,-259.93 1307.25,-279.93"/>
<text xml:space="preserve" text-anchor="middle" x="1277.88" y="-266.43" font-family="Helvetica,sans-Serif" font-size="10.00">_tcp_sent</text>
</a>
</g>
</g>
<!-- Node2 -->
<g id="Node000002" class="node">
<title>Node2</title>
<g id="a_Node000002"><a xlink:href="class_async_client.html#a758eaca983e03027c99003a5808883f8" target="_top" xlink:title=" ">
<polygon fill="white" stroke="#666666" points="741.5,-488.93 626.5,-488.93 626.5,-468.93 741.5,-468.93 741.5,-488.93"/>
<text xml:space="preserve" text-anchor="middle" x="684" y="-475.43" font-family="Helvetica,sans-Serif" font-size="10.00">AsyncClient::_connect</text>
</a>
</g>
</g>
<!-- Node1&#45;&gt;Node2 -->
<g id="edge1_Node000001_Node000002" class="edge">
<title>Node1&#45;&gt;Node2</title>
<g id="a_edge1_Node000001_Node000002"><a xlink:title=" ">
<path fill="none" stroke="#63b8ff" d="M1264.13,-289.64C1233.34,-335.39 1149.87,-448.62 1048,-497.93 939.82,-550.3 896.19,-540.04 778.25,-516.93 751.49,-511.68 722.71,-498.72 704.32,-489.39"/>
<polygon fill="#63b8ff" stroke="#63b8ff" points="1266.92,-291.77 1269.52,-281.5 1261.08,-287.91 1266.92,-291.77"/>
</a>
</g>
</g>
<!-- Node11 -->
<g id="Node000011" class="node">
<title>Node11</title>
<g id="a_Node000011"><a xlink:href="class_async_client.html#aefecfa0c75c8c1b32104115e93739087" target="_top" xlink:title=" ">
<polygon fill="white" stroke="#666666" points="1212.5,-279.93 1084,-279.93 1084,-259.93 1212.5,-259.93 1212.5,-279.93"/>
<text xml:space="preserve" text-anchor="middle" x="1148.25" y="-266.43" font-family="Helvetica,sans-Serif" font-size="10.00">AsyncClient::AsyncClient</text>
</a>
</g>
</g>
<!-- Node1&#45;&gt;Node11 -->
<g id="edge8_Node000001_Node000011" class="edge">
<title>Node1&#45;&gt;Node11</title>
<g id="a_edge8_Node000001_Node000011"><a xlink:title=" ">
<path fill="none" stroke="#63b8ff" d="M1236.73,-269.93C1229.09,-269.93 1220.91,-269.93 1212.75,-269.93"/>
<polygon fill="#63b8ff" stroke="#63b8ff" points="1236.72,-273.43 1246.72,-269.93 1236.72,-266.43 1236.72,-273.43"/>
</a>
</g>
</g>
<!-- Node17 -->
<g id="Node000017" class="node">
<title>Node17</title>
<g id="a_Node000017"><a xlink:href="class_async_client.html#a575c12664279634155259e007c6a104f" target="_top" xlink:title=" ">
<polygon fill="white" stroke="#666666" points="742.25,-89.93 625.75,-89.93 625.75,-69.93 742.25,-69.93 742.25,-89.93"/>
<text xml:space="preserve" text-anchor="middle" x="684" y="-76.43" font-family="Helvetica,sans-Serif" font-size="10.00">AsyncClient::operator=</text>
</a>
</g>
</g>
<!-- Node1&#45;&gt;Node17 -->
<g id="edge31_Node000001_Node000017" class="edge">
<title>Node1&#45;&gt;Node17</title>
<g id="a_edge31_Node000001_Node000017"><a xlink:title=" ">
<path fill="none" stroke="#63b8ff" d="M1263.57,-250.61C1232.14,-206.85 1148.33,-100.8 1048,-59.93 933.43,-13.26 781.51,-49.78 716.59,-69.46"/>
<polygon fill="#63b8ff" stroke="#63b8ff" points="1260.61,-252.47 1269.23,-258.63 1266.33,-248.44 1260.61,-252.47"/>
</a>
</g>
</g>
<!-- Node3 -->
<g id="Node000003" class="node">
<title>Node3</title>
<g id="a_Node000003"><a xlink:href="class_async_client.html#a260e075caca9a58241f2fad754cc412b" target="_top" xlink:title=" ">
<polygon fill="white" stroke="#666666" points="436.12,-507.93 326.38,-507.93 326.38,-487.93 436.12,-487.93 436.12,-507.93"/>
<text xml:space="preserve" text-anchor="middle" x="381.25" y="-494.43" font-family="Helvetica,sans-Serif" font-size="10.00">AsyncClient::connect</text>
</a>
</g>
</g>
<!-- Node2&#45;&gt;Node3 -->
<g id="edge2_Node000002_Node000003" class="edge">
<title>Node2&#45;&gt;Node3</title>
<g id="a_edge2_Node000002_Node000003"><a xlink:title=" ">
<path fill="none" stroke="#63b8ff" d="M614.88,-483.23C560.87,-486.64 486.41,-491.35 436.41,-494.51"/>
<polygon fill="#63b8ff" stroke="#63b8ff" points="614.81,-486.74 624.57,-482.62 614.37,-479.76 614.81,-486.74"/>
</a>
</g>
</g>
<!-- Node4 -->
<g id="Node000004" class="node">
<title>Node4</title>
<g id="a_Node000004"><a xlink:href="class_async_client.html#aaa5b952568c85d25c32d0dff8ec74794" target="_top" xlink:title=" ">
<polygon fill="white" stroke="#666666" points="589.75,-469.93 480,-469.93 480,-449.93 589.75,-449.93 589.75,-469.93"/>
<text xml:space="preserve" text-anchor="middle" x="534.88" y="-456.43" font-family="Helvetica,sans-Serif" font-size="10.00">AsyncClient::connect</text>
</a>
</g>
</g>
<!-- Node2&#45;&gt;Node4 -->
<g id="edge3_Node000002_Node000004" class="edge">
<title>Node2&#45;&gt;Node4</title>
<g id="a_edge3_Node000002_Node000004"><a xlink:title=" ">
<path fill="none" stroke="#63b8ff" d="M614.91,-470.13C606.62,-469.06 598.24,-467.98 590.19,-466.94"/>
<polygon fill="#63b8ff" stroke="#63b8ff" points="614.25,-473.58 624.62,-471.39 615.15,-466.64 614.25,-473.58"/>
</a>
</g>
</g>
<!-- Node4&#45;&gt;Node3 -->
<g id="edge7_Node000004_Node000003" class="edge">
<title>Node4&#45;&gt;Node3</title>
<g id="a_edge7_Node000004_Node000003"><a xlink:title=" ">
<path fill="none" stroke="#63b8ff" d="M481.02,-473.18C462.33,-477.86 441.58,-483.06 423.95,-487.48"/>
<polygon fill="#63b8ff" stroke="#63b8ff" points="481.72,-476.61 490.57,-470.78 480.02,-469.82 481.72,-476.61"/>
</a>
</g>
</g>
<!-- Node5 -->
<g id="Node000005" class="node">
<title>Node5</title>
<g id="a_Node000005"><a xlink:href="class_async_client.html#a19dc40652b5b003288e10529ee169b65" target="_top" xlink:title=" ">
<polygon fill="white" stroke="#666666" points="444,-469.93 318.5,-469.93 318.5,-449.93 444,-449.93 444,-469.93"/>
<text xml:space="preserve" text-anchor="middle" x="381.25" y="-456.43" font-family="Helvetica,sans-Serif" font-size="10.00">AsyncClient::_dns_found</text>
</a>
</g>
</g>
<!-- Node4&#45;&gt;Node5 -->
<g id="edge4_Node000004_Node000005" class="edge">
<title>Node4&#45;&gt;Node5</title>
<g id="a_edge4_Node000004_Node000005"><a xlink:title=" ">
<path fill="none" stroke="#63b8ff" d="M468.17,-459.93C460.29,-459.93 452.26,-459.93 444.44,-459.93"/>
<polygon fill="#63b8ff" stroke="#63b8ff" points="468.05,-463.43 478.05,-459.93 468.05,-456.43 468.05,-463.43"/>
</a>
</g>
</g>
<!-- Node6 -->
<g id="Node000006" class="node">
<title>Node6</title>
<g id="a_Node000006"><a xlink:href="class_async_client.html#a3f629c9072da183879a9c67878b374cc" target="_top" xlink:title=" ">
<polygon fill="white" stroke="#666666" points="267.88,-440.93 161.12,-440.93 161.12,-408.93 267.88,-408.93 267.88,-440.93"/>
<text xml:space="preserve" text-anchor="start" x="169.12" y="-427.43" font-family="Helvetica,sans-Serif" font-size="10.00">AsyncClient::_s_dns</text>
<text xml:space="preserve" text-anchor="middle" x="214.5" y="-415.43" font-family="Helvetica,sans-Serif" font-size="10.00">_found</text>
</a>
</g>
</g>
<!-- Node5&#45;&gt;Node6 -->
<g id="edge5_Node000005_Node000006" class="edge">
<title>Node5&#45;&gt;Node6</title>
<g id="a_edge5_Node000005_Node000006"><a xlink:title=" ">
<path fill="none" stroke="#63b8ff" d="M320.31,-447.19C303.29,-443.58 284.88,-439.67 268.32,-436.15"/>
<polygon fill="#63b8ff" stroke="#63b8ff" points="319.28,-450.55 329.79,-449.21 320.73,-443.71 319.28,-450.55"/>
</a>
</g>
</g>
<!-- Node7 -->
<g id="Node000007" class="node">
<title>Node7</title>
<g id="a_Node000007"><a xlink:href="_async_t_c_p_8cpp.html#ac4030e968c0e4c0fcbe7a9b4502854c1" target="_top" xlink:title=" ">
<polygon fill="#fff0f0" stroke="red" points="110.5,-390.93 0,-390.93 0,-370.93 110.5,-370.93 110.5,-390.93"/>
<text xml:space="preserve" text-anchor="middle" x="55.25" y="-377.43" font-family="Helvetica,sans-Serif" font-size="10.00">_handle_async_event</text>
</a>
</g>
</g>
<!-- Node6&#45;&gt;Node7 -->
<g id="edge6_Node000006_Node000007" class="edge">
<title>Node6&#45;&gt;Node7</title>
<g id="a_edge6_Node000006_Node000007"><a xlink:title=" ">
<path fill="none" stroke="#63b8ff" d="M149.69,-407.07C130.69,-401.76 110.5,-396.11 93.76,-391.42"/>
<polygon fill="#63b8ff" stroke="#63b8ff" points="148.67,-410.42 159.24,-409.75 150.56,-403.68 148.67,-410.42"/>
</a>
</g>
</g>
<!-- Node11&#45;&gt;Node6 -->
<g id="edge11_Node000011_Node000006" class="edge">
<title>Node11&#45;&gt;Node6</title>
<g id="a_edge11_Node000011_Node000006"><a xlink:title=" ">
<path fill="none" stroke="#63b8ff" d="M1133.66,-289.8C1112.01,-320.84 1069.9,-378.57 1048,-390.93 964.36,-438.14 930.17,-421.93 834.12,-421.93 834.12,-421.93 834.12,-421.93 533.88,-421.93 440.32,-421.93 331.31,-423.24 268.17,-424.13"/>
<polygon fill="#63b8ff" stroke="#63b8ff" points="1136.49,-291.86 1139.3,-281.64 1130.73,-287.88 1136.49,-291.86"/>
</a>
</g>
</g>
<!-- Node12 -->
<g id="Node000012" class="node">
<title>Node12</title>
<g id="a_Node000012"><a xlink:href="class_async_client.html#ac4cdb0990fa85f03da98d1c98b1f8611" target="_top" xlink:title=" ">
<polygon fill="white" stroke="#666666" points="282.5,-390.93 146.5,-390.93 146.5,-370.93 282.5,-370.93 282.5,-390.93"/>
<text xml:space="preserve" text-anchor="middle" x="214.5" y="-377.43" font-family="Helvetica,sans-Serif" font-size="10.00">AsyncClient::_s_connected</text>
</a>
</g>
</g>
<!-- Node11&#45;&gt;Node12 -->
<g id="edge9_Node000011_Node000012" class="edge">
<title>Node11&#45;&gt;Node12</title>
<g id="a_edge9_Node000011_Node000012"><a xlink:title=" ">
<path fill="none" stroke="#63b8ff" d="M1133.63,-289.27C1116.52,-311.83 1084.89,-348.18 1048,-364.93 961.1,-404.37 929.55,-383.93 834.12,-383.93 834.12,-383.93 834.12,-383.93 533.88,-383.93 447.23,-383.93 347.33,-382.8 282.89,-381.93"/>
<polygon fill="#63b8ff" stroke="#63b8ff" points="1136.25,-291.62 1139.35,-281.48 1130.61,-287.47 1136.25,-291.62"/>
</a>
</g>
</g>
<!-- Node13 -->
<g id="Node000013" class="node">
<title>Node13</title>
<g id="a_Node000013"><a xlink:href="class_async_client.html#a9ff634e3b1237eab65178b007326367e" target="_top" xlink:title=" ">
<polygon fill="white" stroke="#666666" points="739.25,-236.93 628.75,-236.93 628.75,-216.93 739.25,-216.93 739.25,-236.93"/>
<text xml:space="preserve" text-anchor="middle" x="684" y="-223.43" font-family="Helvetica,sans-Serif" font-size="10.00">AsyncClient::_s_error</text>
</a>
</g>
</g>
<!-- Node11&#45;&gt;Node13 -->
<g id="edge12_Node000011_Node000013" class="edge">
<title>Node11&#45;&gt;Node13</title>
<g id="a_edge12_Node000011_Node000013"><a xlink:title=" ">
<path fill="none" stroke="#63b8ff" d="M1134.13,-250.38C1117.32,-227.29 1085.79,-190.1 1048,-174.93 925.7,-125.83 763.84,-190.13 706.36,-216.55"/>
<polygon fill="#63b8ff" stroke="#63b8ff" points="1131.12,-252.18 1139.73,-258.35 1136.84,-248.16 1131.12,-252.18"/>
</a>
</g>
</g>
<!-- Node14 -->
<g id="Node000014" class="node">
<title>Node14</title>
<g id="a_Node000014"><a xlink:href="class_async_client.html#a6a69c67e1a22660766affb64700c2276" target="_top" xlink:title=" ">
<polygon fill="white" stroke="#666666" points="585.62,-174.93 484.12,-174.93 484.12,-154.93 585.62,-154.93 585.62,-174.93"/>
<text xml:space="preserve" text-anchor="middle" x="534.88" y="-161.43" font-family="Helvetica,sans-Serif" font-size="10.00">AsyncClient::_s_fin</text>
</a>
</g>
</g>
<!-- Node11&#45;&gt;Node14 -->
<g id="edge14_Node000011_Node000014" class="edge">
<title>Node11&#45;&gt;Node14</title>
<g id="a_edge14_Node000011_Node000014"><a xlink:title=" ">
<path fill="none" stroke="#63b8ff" d="M1137.29,-249.66C1122.32,-221.81 1091.1,-172.89 1048,-152.93 882.76,-76.41 654.24,-129.97 569.36,-154.48"/>
<polygon fill="#63b8ff" stroke="#63b8ff" points="1133.99,-250.9 1141.69,-258.18 1140.21,-247.69 1133.99,-250.9"/>
</a>
</g>
</g>
<!-- Node15 -->
<g id="Node000015" class="node">
<title>Node15</title>
<g id="a_Node000015"><a xlink:href="class_async_client.html#a485b2be0c01d3172928c0ed9655edc2f" target="_top" xlink:title=" ">
<polygon fill="white" stroke="#666666" points="1048,-203.93 924,-203.93 924,-183.93 1048,-183.93 1048,-203.93"/>
<text xml:space="preserve" text-anchor="middle" x="986" y="-190.43" font-family="Helvetica,sans-Serif" font-size="10.00">AsyncClient::_s_lwip_fin</text>
</a>
</g>
</g>
<!-- Node11&#45;&gt;Node15 -->
<g id="edge16_Node000011_Node000015" class="edge">
<title>Node11&#45;&gt;Node15</title>
<g id="a_edge16_Node000011_Node000015"><a xlink:title=" ">
<path fill="none" stroke="#63b8ff" d="M1121.98,-253.34C1102.39,-241 1074.24,-224.38 1048,-212.93 1040.78,-209.78 1032.88,-206.91 1025.22,-204.42"/>
<polygon fill="#63b8ff" stroke="#63b8ff" points="1120.07,-256.28 1130.38,-258.71 1123.84,-250.38 1120.07,-256.28"/>
</a>
</g>
</g>
<!-- Node11&#45;&gt;Node17 -->
<g id="edge29_Node000011_Node000017" class="edge">
<title>Node11&#45;&gt;Node17</title>
<g id="a_edge29_Node000011_Node000017"><a xlink:title=" ">
<path fill="none" stroke="#63b8ff" d="M1141.64,-248.91C1130.6,-212.19 1102.3,-137.14 1048,-103.93 950.75,-44.44 810.18,-56.91 735.72,-69.44"/>
<polygon fill="#63b8ff" stroke="#63b8ff" points="1138.21,-249.65 1144.32,-258.31 1144.95,-247.74 1138.21,-249.65"/>
</a>
</g>
</g>
<!-- Node18 -->
<g id="Node000018" class="node">
<title>Node18</title>
<g id="a_Node000018"><a xlink:href="class_async_client.html#abe187c005c73fe6c0c94e1b3b20b55de" target="_top" xlink:title=" ">
<polygon fill="white" stroke="#666666" points="587.88,-60.93 481.88,-60.93 481.88,-40.93 587.88,-40.93 587.88,-60.93"/>
<text xml:space="preserve" text-anchor="middle" x="534.88" y="-47.43" font-family="Helvetica,sans-Serif" font-size="10.00">AsyncClient::_s_poll</text>
</a>
</g>
</g>
<!-- Node11&#45;&gt;Node18 -->
<g id="edge21_Node000011_Node000018" class="edge">
<title>Node11&#45;&gt;Node18</title>
<g id="a_edge21_Node000011_Node000018"><a xlink:title=" ">
<path fill="none" stroke="#63b8ff" d="M1136.27,-249.58C1123.27,-225.2 1101.19,-183 1084,-145.93 1066.57,-108.33 1082.21,-83.31 1048,-59.93 895.86,44.08 654.41,-14.42 567.96,-40.47"/>
<polygon fill="#63b8ff" stroke="#63b8ff" points="1133.04,-250.95 1140.85,-258.11 1139.21,-247.64 1133.04,-250.95"/>
</a>
</g>
</g>
<!-- Node19 -->
<g id="Node000019" class="node">
<title>Node19</title>
<g id="a_Node000019"><a xlink:href="class_async_client.html#af8136d3085c8948078a131bfb9430ec6" target="_top" xlink:title=" ">
<polygon fill="white" stroke="#666666" points="888,-507.93 778.25,-507.93 778.25,-487.93 888,-487.93 888,-507.93"/>
<text xml:space="preserve" text-anchor="middle" x="833.12" y="-494.43" font-family="Helvetica,sans-Serif" font-size="10.00">AsyncClient::_s_recv</text>
</a>
</g>
</g>
<!-- Node11&#45;&gt;Node19 -->
<g id="edge23_Node000011_Node000019" class="edge">
<title>Node11&#45;&gt;Node19</title>
<g id="a_edge23_Node000011_Node000019"><a xlink:title=" ">
<path fill="none" stroke="#63b8ff" d="M1143.15,-291.27C1134.04,-332.45 1107.98,-422.63 1048,-465.93 1001.73,-499.33 935.01,-504.35 888.43,-502.91"/>
<polygon fill="#63b8ff" stroke="#63b8ff" points="1146.54,-292.15 1145.15,-281.65 1139.69,-290.73 1146.54,-292.15"/>
</a>
</g>
</g>
<!-- Node20 -->
<g id="Node000020" class="node">
<title>Node20</title>
<g id="a_Node000020"><a xlink:href="class_async_client.html#a8e507d50b4cc3ae8e90f2e1c1ebf5f61" target="_top" xlink:title=" ">
<polygon fill="white" stroke="#666666" points="888,-469.93 778.25,-469.93 778.25,-449.93 888,-449.93 888,-469.93"/>
<text xml:space="preserve" text-anchor="middle" x="833.12" y="-456.43" font-family="Helvetica,sans-Serif" font-size="10.00">AsyncClient::_s_sent</text>
</a>
</g>
</g>
<!-- Node11&#45;&gt;Node20 -->
<g id="edge25_Node000011_Node000020" class="edge">
<title>Node11&#45;&gt;Node20</title>
<g id="a_edge25_Node000011_Node000020"><a xlink:title=" ">
<path fill="none" stroke="#63b8ff" d="M1141.32,-291.22C1129.93,-327.73 1101.27,-401.64 1048,-435.93 1000.4,-466.56 934.23,-469.34 888.15,-466.51"/>
<polygon fill="#63b8ff" stroke="#63b8ff" points="1144.62,-292.42 1144.1,-281.84 1137.9,-290.43 1144.62,-292.42"/>
</a>
</g>
</g>
<!-- Node21 -->
<g id="Node000021" class="node">
<title>Node21</title>
<g id="a_Node000021"><a xlink:href="class_async_client.html#a44e3b77c5567dbfeb25c50cfddf61653" target="_top" xlink:title=" ">
<polygon fill="white" stroke="#666666" points="1045.75,-355.93 926.25,-355.93 926.25,-335.93 1045.75,-335.93 1045.75,-355.93"/>
<text xml:space="preserve" text-anchor="middle" x="986" y="-342.43" font-family="Helvetica,sans-Serif" font-size="10.00">AsyncClient::operator!=</text>
</a>
</g>
</g>
<!-- Node11&#45;&gt;Node21 -->
<g id="edge27_Node000011_Node000021" class="edge">
<title>Node11&#45;&gt;Node21</title>
<g id="a_edge27_Node000011_Node000021"><a xlink:title=" ">
<path fill="none" stroke="#63b8ff" d="M1119.06,-285.73C1099.41,-296.49 1072.44,-310.75 1048,-321.93 1037.55,-326.71 1025.85,-331.45 1015.51,-335.44"/>
<polygon fill="#63b8ff" stroke="#63b8ff" points="1120.5,-288.94 1127.56,-281.04 1117.12,-282.81 1120.5,-288.94"/>
</a>
</g>
</g>
<!-- Node22 -->
<g id="Node000022" class="node">
<title>Node22</title>
<g id="a_Node000022"><a xlink:href="class_async_client.html#afaedf716feb9b363fe9b1ee7d82fbe9f" target="_top" xlink:title=" ">
<polygon fill="white" stroke="#666666" points="1047.25,-279.93 924.75,-279.93 924.75,-259.93 1047.25,-259.93 1047.25,-279.93"/>
<text xml:space="preserve" text-anchor="middle" x="986" y="-266.43" font-family="Helvetica,sans-Serif" font-size="10.00">AsyncClient::operator+=</text>
</a>
</g>
</g>
<!-- Node11&#45;&gt;Node22 -->
<g id="edge28_Node000011_Node000022" class="edge">
<title>Node11&#45;&gt;Node22</title>
<g id="a_edge28_Node000011_Node000022"><a xlink:title=" ">
<path fill="none" stroke="#63b8ff" d="M1072.56,-269.93C1064.17,-269.93 1055.7,-269.93 1047.52,-269.93"/>
<polygon fill="#63b8ff" stroke="#63b8ff" points="1072.4,-273.43 1082.4,-269.93 1072.4,-266.43 1072.4,-273.43"/>
</a>
</g>
</g>
<!-- Node23 -->
<g id="Node000023" class="node">
<title>Node23</title>
<g id="a_Node000023"><a xlink:href="class_async_client.html#a40d147dfec9bbc2e8891273be25c5f39" target="_top" xlink:title=" ">
<polygon fill="white" stroke="#666666" points="1047.25,-241.93 924.75,-241.93 924.75,-221.93 1047.25,-221.93 1047.25,-241.93"/>
<text xml:space="preserve" text-anchor="middle" x="986" y="-228.43" font-family="Helvetica,sans-Serif" font-size="10.00">AsyncClient::operator==</text>
</a>
</g>
</g>
<!-- Node11&#45;&gt;Node23 -->
<g id="edge30_Node000011_Node000023" class="edge">
<title>Node11&#45;&gt;Node23</title>
<g id="a_edge30_Node000011_Node000023"><a xlink:title=" ">
<path fill="none" stroke="#63b8ff" d="M1091.94,-256.81C1072.04,-252.09 1049.88,-246.84 1031.07,-242.38"/>
<polygon fill="#63b8ff" stroke="#63b8ff" points="1091.03,-260.19 1101.56,-259.09 1092.64,-253.38 1091.03,-260.19"/>
</a>
</g>
</g>
<!-- Node12&#45;&gt;Node7 -->
<g id="edge10_Node000012_Node000007" class="edge">
<title>Node12&#45;&gt;Node7</title>
<g id="a_edge10_Node000012_Node000007"><a xlink:title=" ">
<path fill="none" stroke="#63b8ff" d="M134.89,-380.93C126.76,-380.93 118.62,-380.93 110.84,-380.93"/>
<polygon fill="#63b8ff" stroke="#63b8ff" points="134.84,-384.43 144.84,-380.93 134.84,-377.43 134.84,-384.43"/>
</a>
</g>
</g>
<!-- Node13&#45;&gt;Node7 -->
<g id="edge13_Node000013_Node000007" class="edge">
<title>Node13&#45;&gt;Node7</title>
<g id="a_edge13_Node000013_Node000007"><a xlink:title=" ">
<path fill="none" stroke="#63b8ff" d="M629.49,-240.07C507.32,-270.09 209.84,-343.19 98.89,-370.45"/>
<polygon fill="#63b8ff" stroke="#63b8ff" points="630.07,-243.54 638.94,-237.75 628.4,-236.74 630.07,-243.54"/>
</a>
</g>
</g>
<!-- Node14&#45;&gt;Node7 -->
<g id="edge15_Node000014_Node000007" class="edge">
<title>Node14&#45;&gt;Node7</title>
<g id="a_edge15_Node000014_Node000007"><a xlink:title=" ">
<path fill="none" stroke="#63b8ff" d="M472.29,-173.68C392.21,-187.25 250.34,-218.86 146.5,-283.93 108.88,-307.5 76.69,-350.66 63.12,-370.48"/>
<polygon fill="#63b8ff" stroke="#63b8ff" points="472.85,-177.14 482.15,-172.06 471.71,-170.23 472.85,-177.14"/>
</a>
</g>
</g>
<!-- Node16 -->
<g id="Node000016" class="node">
<title>Node16</title>
<g id="a_Node000016"><a xlink:href="_async_t_c_p_8cpp.html#adf7826424bf5b1035c4850f6b3307686" target="_top" xlink:title=" ">
<polygon fill="white" stroke="#666666" points="862.5,-260.93 803.75,-260.93 803.75,-240.93 862.5,-240.93 862.5,-260.93"/>
<text xml:space="preserve" text-anchor="middle" x="833.12" y="-247.43" font-family="Helvetica,sans-Serif" font-size="10.00">_tcp_recv</text>
</a>
</g>
</g>
<!-- Node15&#45;&gt;Node16 -->
<g id="edge17_Node000015_Node000016" class="edge">
<title>Node15&#45;&gt;Node16</title>
<g id="a_edge17_Node000015_Node000016"><a xlink:title=" ">
<path fill="none" stroke="#63b8ff" d="M938.58,-207.87C933.63,-209.5 928.7,-211.21 924,-212.93 900.93,-221.37 875.16,-232.44 857.15,-240.45"/>
<polygon fill="#63b8ff" stroke="#63b8ff" points="939.44,-211.26 947.88,-204.86 937.29,-204.6 939.44,-211.26"/>
</a>
</g>
</g>
<!-- Node16&#45;&gt;Node2 -->
<g id="edge18_Node000016_Node000002" class="edge">
<title>Node16&#45;&gt;Node2</title>
<g id="a_edge18_Node000016_Node000002"><a xlink:title=" ">
<path fill="none" stroke="#63b8ff" d="M819.21,-270.94C789,-317.76 714.54,-433.15 691.74,-468.48"/>
<polygon fill="#63b8ff" stroke="#63b8ff" points="822.12,-272.89 824.6,-262.59 816.24,-269.09 822.12,-272.89"/>
</a>
</g>
</g>
<!-- Node16&#45;&gt;Node11 -->
<g id="edge19_Node000016_Node000011" class="edge">
<title>Node16&#45;&gt;Node11</title>
<g id="a_edge19_Node000016_Node000011"><a xlink:title=" ">
<path fill="none" stroke="#63b8ff" d="M862.65,-266.46C879.86,-274.94 902.55,-284.58 924,-288.93 986.71,-301.64 1061.01,-290.17 1106.11,-280.35"/>
<polygon fill="#63b8ff" stroke="#63b8ff" points="864.54,-263.5 854.04,-262.08 861.36,-269.74 864.54,-263.5"/>
</a>
</g>
</g>
<!-- Node16&#45;&gt;Node17 -->
<g id="edge20_Node000016_Node000017" class="edge">
<title>Node16&#45;&gt;Node17</title>
<g id="a_edge20_Node000016_Node000017"><a xlink:title=" ">
<path fill="none" stroke="#63b8ff" d="M815.7,-231.84C784.56,-195.64 717.89,-118.16 693.86,-90.23"/>
<polygon fill="#63b8ff" stroke="#63b8ff" points="812.98,-234.04 822.16,-239.34 818.29,-229.48 812.98,-234.04"/>
</a>
</g>
</g>
<!-- Node18&#45;&gt;Node7 -->
<g id="edge22_Node000018_Node000007" class="edge">
<title>Node18&#45;&gt;Node7</title>
<g id="a_edge22_Node000018_Node000007"><a xlink:title=" ">
<path fill="none" stroke="#63b8ff" d="M474.38,-64.15C392.19,-85.01 243.14,-132.46 146.5,-219.93 97.08,-264.65 68.39,-342.99 59.37,-370.79"/>
<polygon fill="#63b8ff" stroke="#63b8ff" points="475.19,-67.56 484.05,-61.75 473.5,-60.76 475.19,-67.56"/>
</a>
</g>
</g>
<!-- Node19&#45;&gt;Node7 -->
<g id="edge24_Node000019_Node000007" class="edge">
<title>Node19&#45;&gt;Node7</title>
<g id="a_edge24_Node000019_Node000007"><a xlink:title=" ">
<path fill="none" stroke="#63b8ff" d="M798.04,-512.64C743.68,-534.74 633.49,-573.93 535.88,-573.93 535.88,-573.93 535.88,-573.93 380.25,-573.93 271.14,-573.93 235.67,-561.8 146.5,-498.93 104.34,-469.2 72.97,-413.9 61.26,-391.13"/>
<polygon fill="#63b8ff" stroke="#63b8ff" points="799.16,-515.97 807.06,-508.91 796.49,-509.5 799.16,-515.97"/>
</a>
</g>
</g>
<!-- Node20&#45;&gt;Node7 -->
<g id="edge26_Node000020_Node000007" class="edge">
<title>Node20&#45;&gt;Node7</title>
<g id="a_edge26_Node000020_Node000007"><a xlink:title=" ">
<path fill="none" stroke="#63b8ff" d="M789.31,-474.38C785.54,-475.84 781.81,-477.37 778.25,-478.93 761.67,-486.18 759.34,-492 742.25,-497.93 654.14,-528.49 629.14,-535.93 535.88,-535.93 535.88,-535.93 535.88,-535.93 380.25,-535.93 245.87,-535.93 108.14,-426.09 67.92,-391.34"/>
<polygon fill="#63b8ff" stroke="#63b8ff" points="790.36,-477.72 798.5,-470.95 787.91,-471.17 790.36,-477.72"/>
</a>
</g>
</g>
</g>
</svg>
