<?xml version="1.0" encoding="UTF-8" standalone="no"?>
<!DOCTYPE svg PUBLIC "-//W3C//DTD SVG 1.1//EN"
 "http://www.w3.org/Graphics/SVG/1.1/DTD/svg11.dtd">
<!-- Generated by graphviz version 14.1.2 (20260124.0452)
 -->
<!-- Title: _tcp_recved_api Pages: 1 -->
<!--zoomable 180 -->

<svg id="main" version="1.1" xmlns="http://www.w3.org/2000/svg" xmlns:xlink="http://www.w3.org/1999/xlink" xml:space="preserve" onload="init(evt)">

<style type="text/css"><![CDATA[
.node, .edge {opacity: 0.7;}
.node.selected, .edge.selected {opacity: 1;}
.edge:hover path { stroke: red; }
.edge:hover polygon { stroke: red; fill: red; }
]]></style>

<defs>
  <circle id="rim" cx="0" cy="0" r="7"/>
  <circle id="rim2" cx="0" cy="0" r="3.5"/>
  <g id="zoomPlus">
    <use xlink:href="#rim" fill="#404040"><set attributeName="fill" to="#808080" begin="zoomplus.mouseover" end="zoomplus.mouseout"/></use>
    <path d="M-4,0h8M0,-4v8" fill="none" stroke="white" stroke-width="1.5" pointer-events="none"/>
  </g>
  <g id="zoomMin">
    <use xlink:href="#rim" fill="#404040"><set attributeName="fill" to="#808080" begin="zoomminus.mouseover" end="zoomminus.mouseout"/></use>
    <path d="M-4,0h8" fill="none" stroke="white" stroke-width="1.5" pointer-events="none"/>
  </g>
  <g id="arrowUp" transform="translate(30 24)">
    <use xlink:href="#rim"/>
    <path pointer-events="none" fill="none" stroke="white" stroke-width="1.5" d="M0,-3.0v7 M-2.5,-0.5L0,-3.0L2.5,-0.5"/>
  </g>
  <g id="arrowRight" transform="rotate(90) translate(36 -43)">
    <use xlink:href="#rim"/>
    <path pointer-events="none" fill="none" stroke="white" stroke-width="1.5" d="M0,-3.0v7 M-2.5,-0.5L0,-3.0L2.5,-0.5"/>
  </g>
  <g id="arrowDown" transform="rotate(180) translate(-30 -48)">
    <use xlink:href="#rim"/>
    <path pointer-events="none" fill="none" stroke="white" stroke-width="1.5" d="M0,-3.0v7 M-2.5,-0.5L0,-3.0L2.5,-0.5"/>
  </g>
  <g id="arrowLeft" transform="rotate(270) translate(-36 17)">
    <use xlink:href="#rim"/>
    <path pointer-events="none" fill="none" stroke="white" stroke-width="1.5" d="M0,-3.0v7 M-2.5,-0.5L0,-3.0L2.5,-0.5"/>
  </g>
  <g id="resetDef">
    <use xlink:href="#rim2" fill="#404040"><set attributeName="fill" to="#808080" begin="reset.mouseover" end="reset.mouseout"/></use>
  </g>
</defs>
<script type="application/ecmascript">
var viewWidth = 641;
var viewHeight = 180;
var sectionId = 'dynsection-47';
</script>
<script type="application/ecmascript" xlink:href="svg.min.js"/>
<svg id="graph" class="graph">
<g id="viewport">
<title>_tcp_recved_api</title>
<!-- Node1 -->
<g id="Node000001" class="node">
<title>Node1</title>
<g id="a_Node000001"><a xlink:title=" ">
<polygon fill="#999999" stroke="#666666" points="632.75,-115 545.5,-115 545.5,-95 632.75,-95 632.75,-115"/>
<text xml:space="preserve" text-anchor="middle" x="589.12" y="-101.5" font-family="Helvetica,sans-Serif" font-size="10.00">_tcp_recved_api</text>
</a>
</g>
</g>
<!-- Node2 -->
<g id="Node000002" class="node">
<title>Node2</title>
<g id="a_Node000002"><a xlink:href="_async_t_c_p_8cpp.html#acfb3f5bacaaabd2c616896510fd1f10b" target="_top" xlink:title=" ">
<polygon fill="white" stroke="#666666" points="509.5,-115 440.25,-115 440.25,-95 509.5,-95 509.5,-115"/>
<text xml:space="preserve" text-anchor="middle" x="474.88" y="-101.5" font-family="Helvetica,sans-Serif" font-size="10.00">_tcp_recved</text>
</a>
</g>
</g>
<!-- Node1&#45;&gt;Node2 -->
<g id="edge1_Node000001_Node000002" class="edge">
<title>Node1&#45;&gt;Node2</title>
<g id="a_edge1_Node000001_Node000002"><a xlink:title=" ">
<path fill="none" stroke="#63b8ff" d="M533.71,-105C525.61,-105 517.47,-105 509.95,-105"/>
<polygon fill="#63b8ff" stroke="#63b8ff" points="533.53,-108.5 543.53,-105 533.53,-101.5 533.53,-108.5"/>
</a>
</g>
</g>
<!-- Node3 -->
<g id="Node000003" class="node">
<title>Node3</title>
<g id="a_Node000003"><a xlink:href="class_async_client.html#af9a0368be4f98f49f252b1989b84b5a3" target="_top" xlink:title=" ">
<polygon fill="white" stroke="#666666" points="393,-172 293.75,-172 293.75,-152 393,-152 393,-172"/>
<text xml:space="preserve" text-anchor="middle" x="343.38" y="-158.5" font-family="Helvetica,sans-Serif" font-size="10.00">AsyncClient::_recv</text>
</a>
</g>
</g>
<!-- Node2&#45;&gt;Node3 -->
<g id="edge2_Node000002_Node000003" class="edge">
<title>Node2&#45;&gt;Node3</title>
<g id="a_edge2_Node000002_Node000003"><a xlink:title=" ">
<path fill="none" stroke="#63b8ff" d="M446.98,-121.26C434.3,-128.51 418.8,-136.79 404.25,-143 396.93,-146.13 388.91,-149.01 381.2,-151.55"/>
<polygon fill="#63b8ff" stroke="#63b8ff" points="448.7,-124.3 455.58,-116.24 445.17,-118.26 448.7,-124.3"/>
</a>
</g>
</g>
<!-- Node14 -->
<g id="Node000014" class="node">
<title>Node14</title>
<g id="a_Node000014"><a xlink:href="class_async_client.html#ac2c939c5af9cb1fb2c693ddb98725ecf" target="_top" xlink:title=" ">
<polygon fill="white" stroke="#666666" points="388.88,-134 297.88,-134 297.88,-114 388.88,-114 388.88,-134"/>
<text xml:space="preserve" text-anchor="middle" x="343.38" y="-120.5" font-family="Helvetica,sans-Serif" font-size="10.00">AsyncClient::ack</text>
</a>
</g>
</g>
<!-- Node2&#45;&gt;Node14 -->
<g id="edge4_Node000002_Node000014" class="edge">
<title>Node2&#45;&gt;Node14</title>
<g id="a_edge4_Node000002_Node000014"><a xlink:title=" ">
<path fill="none" stroke="#63b8ff" d="M428.84,-111.61C415.9,-113.51 401.8,-115.57 388.9,-117.47"/>
<polygon fill="#63b8ff" stroke="#63b8ff" points="428.97,-115.13 438.35,-110.21 427.95,-108.2 428.97,-115.13"/>
</a>
</g>
</g>
<!-- Node15 -->
<g id="Node000015" class="node">
<title>Node15</title>
<g id="a_Node000015"><a xlink:href="class_async_client.html#aba43fb75a7a60b08f3d3f943e0d1c332" target="_top" xlink:title=" ">
<polygon fill="white" stroke="#666666" points="404.25,-96 282.5,-96 282.5,-76 404.25,-76 404.25,-96"/>
<text xml:space="preserve" text-anchor="middle" x="343.38" y="-82.5" font-family="Helvetica,sans-Serif" font-size="10.00">AsyncClient::ackPacket</text>
</a>
</g>
</g>
<!-- Node2&#45;&gt;Node15 -->
<g id="edge5_Node000002_Node000015" class="edge">
<title>Node2&#45;&gt;Node15</title>
<g id="a_edge5_Node000002_Node000015"><a xlink:title=" ">
<path fill="none" stroke="#63b8ff" d="M428.54,-98.35C420.84,-97.22 412.73,-96.03 404.72,-94.85"/>
<polygon fill="#63b8ff" stroke="#63b8ff" points="427.95,-101.8 438.35,-99.79 428.97,-94.87 427.95,-101.8"/>
</a>
</g>
</g>
<!-- Node16 -->
<g id="Node000016" class="node">
<title>Node16</title>
<g id="a_Node000016"><a xlink:href="class_async_client.html#a0305fe0b036257c03829ceaa5cc43361" target="_top" xlink:title="close connection">
<polygon fill="white" stroke="#666666" points="392.62,-58 294.12,-58 294.12,-38 392.62,-38 392.62,-58"/>
<text xml:space="preserve" text-anchor="middle" x="343.38" y="-44.5" font-family="Helvetica,sans-Serif" font-size="10.00">AsyncClient::close</text>
</a>
</g>
</g>
<!-- Node2&#45;&gt;Node16 -->
<g id="edge6_Node000002_Node000016" class="edge">
<title>Node2&#45;&gt;Node16</title>
<g id="a_edge6_Node000002_Node000016"><a xlink:title=" ">
<path fill="none" stroke="#63b8ff" d="M446.98,-88.74C434.3,-81.49 418.8,-73.21 404.25,-67 396.93,-63.87 388.91,-60.99 381.2,-58.45"/>
<polygon fill="#63b8ff" stroke="#63b8ff" points="445.17,-91.74 455.58,-93.76 448.7,-85.7 445.17,-91.74"/>
</a>
</g>
</g>
<!-- Node4 -->
<g id="Node000004" class="node">
<title>Node4</title>
<g id="a_Node000004"><a xlink:href="class_async_client.html#af8136d3085c8948078a131bfb9430ec6" target="_top" xlink:title=" ">
<polygon fill="#fff0f0" stroke="red" points="246.5,-172 136.75,-172 136.75,-152 246.5,-152 246.5,-172"/>
<text xml:space="preserve" text-anchor="middle" x="191.62" y="-158.5" font-family="Helvetica,sans-Serif" font-size="10.00">AsyncClient::_s_recv</text>
</a>
</g>
</g>
<!-- Node3&#45;&gt;Node4 -->
<g id="edge3_Node000003_Node000004" class="edge">
<title>Node3&#45;&gt;Node4</title>
<g id="a_edge3_Node000003_Node000004"><a xlink:title=" ">
<path fill="none" stroke="#63b8ff" d="M281.96,-162C270.38,-162 258.32,-162 246.95,-162"/>
<polygon fill="#63b8ff" stroke="#63b8ff" points="281.83,-165.5 291.83,-162 281.83,-158.5 281.83,-165.5"/>
</a>
</g>
</g>
<!-- Node17 -->
<g id="Node000017" class="node">
<title>Node17</title>
<g id="a_Node000017"><a xlink:href="class_async_telnet.html#a77dcd8e31b8bfb8b3082de385c5e7792" target="_top" xlink:title=" ">
<polygon fill="white" stroke="#666666" points="241.25,-96 142,-96 142,-76 241.25,-76 241.25,-96"/>
<text xml:space="preserve" text-anchor="middle" x="191.62" y="-82.5" font-family="Helvetica,sans-Serif" font-size="10.00">AsyncTelnet::begin</text>
</a>
</g>
</g>
<!-- Node16&#45;&gt;Node17 -->
<g id="edge7_Node000016_Node000017" class="edge">
<title>Node16&#45;&gt;Node17</title>
<g id="a_edge7_Node000016_Node000017"><a xlink:title=" ">
<path fill="none" stroke="#63b8ff" d="M289.91,-61.31C271.52,-65.98 251.14,-71.15 233.81,-75.55"/>
<polygon fill="#63b8ff" stroke="#63b8ff" points="290.76,-64.71 299.59,-58.86 289.04,-57.92 290.76,-64.71"/>
</a>
</g>
</g>
<!-- Node18 -->
<g id="Node000018" class="node">
<title>Node18</title>
<g id="a_Node000018"><a xlink:href="class_async_telnet_serial.html#a6cf9d6cc49602ff5ac0ec2af846a0d7a" target="_top" xlink:title=" ">
<polygon fill="white" stroke="#666666" points="100.75,-83 0,-83 0,-51 100.75,-51 100.75,-83"/>
<text xml:space="preserve" text-anchor="start" x="8" y="-69.5" font-family="Helvetica,sans-Serif" font-size="10.00">AsyncTelnetSerial::</text>
<text xml:space="preserve" text-anchor="middle" x="50.38" y="-57.5" font-family="Helvetica,sans-Serif" font-size="10.00">begin</text>
</a>
</g>
</g>
<!-- Node16&#45;&gt;Node18 -->
<g id="edge9_Node000016_Node000018" class="edge">
<title>Node16&#45;&gt;Node18</title>
<g id="a_edge9_Node000016_Node000018"><a xlink:title=" ">
<path fill="none" stroke="#63b8ff" d="M282.29,-51.92C228.77,-55.42 151.37,-60.47 101.22,-63.75"/>
<polygon fill="#63b8ff" stroke="#63b8ff" points="282.41,-55.42 292.16,-51.28 281.95,-48.44 282.41,-55.42"/>
</a>
</g>
</g>
<!-- Node19 -->
<g id="Node000019" class="node">
<title>Node19</title>
<g id="a_Node000019"><a xlink:href="class_async_client.html#a4bed4e925817d1b918af2ce43fb0859e" target="_top" xlink:title=" ">
<polygon fill="white" stroke="#666666" points="238.62,-20 144.62,-20 144.62,0 238.62,0 238.62,-20"/>
<text xml:space="preserve" text-anchor="middle" x="191.62" y="-6.5" font-family="Helvetica,sans-Serif" font-size="10.00">AsyncClient::stop</text>
</a>
</g>
</g>
<!-- Node16&#45;&gt;Node19 -->
<g id="edge10_Node000016_Node000019" class="edge">
<title>Node16&#45;&gt;Node19</title>
<g id="a_edge10_Node000016_Node000019"><a xlink:title=" ">
<path fill="none" stroke="#63b8ff" d="M289.91,-34.69C271.52,-30.02 251.14,-24.85 233.81,-20.45"/>
<polygon fill="#63b8ff" stroke="#63b8ff" points="289.04,-38.08 299.59,-37.14 290.76,-31.29 289.04,-38.08"/>
</a>
</g>
</g>
<!-- Node17&#45;&gt;Node18 -->
<g id="edge8_Node000017_Node000018" class="edge">
<title>Node17&#45;&gt;Node18</title>
<g id="a_edge8_Node000017_Node000018"><a xlink:title=" ">
<path fill="none" stroke="#63b8ff" d="M130.22,-77.76C120.46,-76.43 110.44,-75.06 100.97,-73.77"/>
<polygon fill="#63b8ff" stroke="#63b8ff" points="129.65,-81.21 140.03,-79.1 130.6,-74.28 129.65,-81.21"/>
</a>
</g>
</g>
</g>
</svg>

<g id="navigator" transform="translate(0 0)" fill="#404254">
  <rect fill="#f2f5e9" fill-opacity="0.5" stroke="#606060" stroke-width=".5" x="0" y="0" width="60" height="60"/>
  <use id="zoomplus" xlink:href="#zoomPlus" x="17" y="9" onmousedown="handleZoom(evt,'in')"/>
  <use id="zoomminus" xlink:href="#zoomMin" x="42" y="9" onmousedown="handleZoom(evt,'out')"/>
  <use id="reset" xlink:href="#resetDef" x="30" y="36" onmousedown="handleReset()"/>
   <use id="arrowup" xlink:href="#arrowUp" x="0" y="0" onmousedown="handlePan(0,-1)"/>
  <use id="arrowright" xlink:href="#arrowRight" x="0" y="0" onmousedown="handlePan(1,0)"/>
  <use id="arrowdown" xlink:href="#arrowDown" x="0" y="0" onmousedown="handlePan(0,1)"/>
  <use id="arrowleft" xlink:href="#arrowLeft" x="0" y="0" onmousedown="handlePan(-1,0)"/>
</g>
<svg viewBox="0 0 15 15" width="100%" height="30px" preserveAspectRatio="xMaxYMin meet">
 <g id="arrow_out" transform="scale(0.3 0.3)">
  <a xlink:href="_async_t_c_p_8cpp_ac6939df8a76eab232541be004e935be2_icgraph_org.svg" target="_base">
   <rect id="button" ry="5" rx="5" y="6" x="6" height="38" width="38"
        fill="#f2f5e9" fill-opacity="0.5" stroke="#606060" stroke-width="1.0"/>
   <path id="arrow"
     d="M 11.500037,31.436501 C 11.940474,20.09759 22.043105,11.32322 32.158766,21.979434 L 37.068811,17.246167 C 37.068811,17.246167 37.088388,32 37.088388,32 L 22.160133,31.978069 C 22.160133,31.978069 26.997745,27.140456 26.997745,27.140456 C 18.528582,18.264221 13.291696,25.230495 11.500037,31.436501 z"
     style="fill:#404040;"/>
  </a>
 </g>
</svg>

<style type='text/css'>
<![CDATA[
[data-mouse-over-selected='false'] { opacity: 0.7; }
[data-mouse-over-selected='true']  { opacity: 1.0; }
]]>
</style>
<script type="application/ecmascript"><![CDATA[
document.addEventListener('DOMContentLoaded', (event) => {
  highlightEdges();
  highlightAdjacentNodes();
});
]]></script>
</svg>
