<?xml version="1.0" encoding="UTF-8" standalone="no"?>
<!DOCTYPE svg PUBLIC "-//W3C//DTD SVG 1.1//EN"
 "http://www.w3.org/Graphics/SVG/1.1/DTD/svg11.dtd">
<!-- Generated by graphviz version 14.1.2 (20260124.0452)
 -->
<!-- Title: _send_async_event Pages: 1 -->
<svg width="1082pt" height="805pt"
 viewBox="0.00 0.00 1082.00 805.00" xmlns="http://www.w3.org/2000/svg" xmlns:xlink="http://www.w3.org/1999/xlink">
<g id="graph0" class="graph" transform="scale(1 1) rotate(0) translate(4 801.48)">
<title>_send_async_event</title>
<!-- Node1 -->
<g id="Node000001" class="node">
<title>Node1</title>
<g id="a_Node000001"><a xlink:title=" ">
<polygon fill="#999999" stroke="#666666" points="1073.75,-683.48 970.75,-683.48 970.75,-663.48 1073.75,-663.48 1073.75,-683.48"/>
<text xml:space="preserve" text-anchor="middle" x="1022.25" y="-669.98" font-family="Helvetica,sans-Serif" font-size="10.00">_send_async_event</text>
</a>
</g>
</g>
<!-- Node2 -->
<g id="Node000002" class="node">
<title>Node2</title>
<g id="a_Node000002"><a xlink:href="_async_t_c_p_8cpp.html#a2dec6cedf1649c5b63519ccfd6f3a3fd" target="_top" xlink:title=" ">
<polygon fill="white" stroke="#666666" points="817.5,-797.48 732.5,-797.48 732.5,-777.48 817.5,-777.48 817.5,-797.48"/>
<text xml:space="preserve" text-anchor="middle" x="775" y="-783.98" font-family="Helvetica,sans-Serif" font-size="10.00">_tcp_dns_found</text>
</a>
</g>
</g>
<!-- Node1&#45;&gt;Node2 -->
<g id="edge1_Node000001_Node000002" class="edge">
<title>Node1&#45;&gt;Node2</title>
<g id="a_edge1_Node000001_Node000002"><a xlink:title=" ">
<path fill="none" stroke="#63b8ff" d="M1008.27,-693.28C993.26,-714.4 966.51,-747.04 934.75,-763.48 898.24,-782.38 851.1,-787.47 817.7,-788.38"/>
<polygon fill="#63b8ff" stroke="#63b8ff" points="1011.04,-695.43 1013.81,-685.2 1005.26,-691.47 1011.04,-695.43"/>
</a>
</g>
</g>
<!-- Node4 -->
<g id="Node000004" class="node">
<title>Node4</title>
<g id="a_Node000004"><a xlink:href="_async_t_c_p_8cpp.html#a61ff9f7f886bbbbcdc1daca453828934" target="_top" xlink:title=" ">
<polygon fill="white" stroke="#666666" points="934.75,-683.48 875.25,-683.48 875.25,-663.48 934.75,-663.48 934.75,-683.48"/>
<text xml:space="preserve" text-anchor="middle" x="905" y="-669.98" font-family="Helvetica,sans-Serif" font-size="10.00">_tcp_error</text>
</a>
</g>
</g>
<!-- Node1&#45;&gt;Node4 -->
<g id="edge3_Node000001_Node000004" class="edge">
<title>Node1&#45;&gt;Node4</title>
<g id="a_edge3_Node000001_Node000004"><a xlink:title=" ">
<path fill="none" stroke="#63b8ff" d="M959.01,-673.48C950.69,-673.48 942.5,-673.48 935.14,-673.48"/>
<polygon fill="#63b8ff" stroke="#63b8ff" points="958.85,-676.98 968.85,-673.48 958.85,-669.98 958.85,-676.98"/>
</a>
</g>
</g>
<!-- Node18 -->
<g id="Node000018" class="node">
<title>Node18</title>
<g id="a_Node000018"><a xlink:href="_async_t_c_p_8cpp.html#adf7826424bf5b1035c4850f6b3307686" target="_top" xlink:title=" ">
<polygon fill="white" stroke="#666666" points="502.75,-417.48 444,-417.48 444,-397.48 502.75,-397.48 502.75,-417.48"/>
<text xml:space="preserve" text-anchor="middle" x="473.38" y="-403.98" font-family="Helvetica,sans-Serif" font-size="10.00">_tcp_recv</text>
</a>
</g>
</g>
<!-- Node1&#45;&gt;Node18 -->
<g id="edge30_Node000001_Node000018" class="edge">
<title>Node1&#45;&gt;Node18</title>
<g id="a_edge30_Node000001_Node000018"><a xlink:title=" ">
<path fill="none" stroke="#63b8ff" d="M971.26,-686.38C959.38,-688.91 946.68,-691.18 934.75,-692.48 908.46,-695.33 901.53,-695.41 875.25,-692.48 722.87,-675.48 651.24,-720.66 538.75,-616.48 478.86,-561.01 474.16,-451.3 474.19,-417.58"/>
<polygon fill="#63b8ff" stroke="#63b8ff" points="971.89,-689.83 980.88,-684.23 970.36,-683 971.89,-689.83"/>
</a>
</g>
</g>
<!-- Node26 -->
<g id="Node000026" class="node">
<title>Node26</title>
<g id="a_Node000026"><a xlink:href="_async_t_c_p_8cpp.html#ad4b2c6c935c211eef5884f25a950e445" target="_top" xlink:title=" ">
<polygon fill="white" stroke="#666666" points="932.5,-550.48 877.5,-550.48 877.5,-530.48 932.5,-530.48 932.5,-550.48"/>
<text xml:space="preserve" text-anchor="middle" x="905" y="-536.98" font-family="Helvetica,sans-Serif" font-size="10.00">_tcp_poll</text>
</a>
</g>
</g>
<!-- Node1&#45;&gt;Node26 -->
<g id="edge26_Node000001_Node000026" class="edge">
<title>Node1&#45;&gt;Node26</title>
<g id="a_edge26_Node000001_Node000026"><a xlink:title=" ">
<path fill="none" stroke="#63b8ff" d="M1004.7,-654.38C980,-625.87 934.32,-573.16 915,-550.87"/>
<polygon fill="#63b8ff" stroke="#63b8ff" points="1002.02,-656.63 1011.22,-661.9 1007.31,-652.05 1002.02,-656.63"/>
</a>
</g>
</g>
<!-- Node27 -->
<g id="Node000027" class="node">
<title>Node27</title>
<g id="a_Node000027"><a xlink:href="_async_t_c_p_8cpp.html#a0b47280aff638ec9b80f7a87dfe54ea6" target="_top" xlink:title=" ">
<polygon fill="white" stroke="#666666" points="934.38,-221.48 875.62,-221.48 875.62,-201.48 934.38,-201.48 934.38,-221.48"/>
<text xml:space="preserve" text-anchor="middle" x="905" y="-207.98" font-family="Helvetica,sans-Serif" font-size="10.00">_tcp_sent</text>
</a>
</g>
</g>
<!-- Node1&#45;&gt;Node27 -->
<g id="edge31_Node000001_Node000027" class="edge">
<title>Node1&#45;&gt;Node27</title>
<g id="a_edge31_Node000001_Node000027"><a xlink:title=" ">
<path fill="none" stroke="#63b8ff" d="M1016,-652.43C995.76,-571.31 923.21,-280.45 908.58,-221.82"/>
<polygon fill="#63b8ff" stroke="#63b8ff" points="1012.55,-653.08 1018.37,-661.93 1019.34,-651.38 1012.55,-653.08"/>
</a>
</g>
</g>
<!-- Node3 -->
<g id="Node000003" class="node">
<title>Node3</title>
<g id="a_Node000003"><a xlink:href="class_async_client.html#a260e075caca9a58241f2fad754cc412b" target="_top" xlink:title=" ">
<polygon fill="white" stroke="#666666" points="109.75,-683.48 0,-683.48 0,-663.48 109.75,-663.48 109.75,-683.48"/>
<text xml:space="preserve" text-anchor="middle" x="54.88" y="-669.98" font-family="Helvetica,sans-Serif" font-size="10.00">AsyncClient::connect</text>
</a>
</g>
</g>
<!-- Node2&#45;&gt;Node3 -->
<g id="edge2_Node000002_Node000003" class="edge">
<title>Node2&#45;&gt;Node3</title>
<g id="a_edge2_Node000002_Node000003"><a xlink:title=" ">
<path fill="none" stroke="#63b8ff" d="M720.89,-787.48C661,-787.48 560.69,-787.48 474.38,-787.48 474.38,-787.48 474.38,-787.48 348.75,-787.48 234.99,-787.48 112.26,-711.86 70.63,-683.8"/>
<polygon fill="#63b8ff" stroke="#63b8ff" points="720.8,-790.98 730.8,-787.48 720.8,-783.98 720.8,-790.98"/>
</a>
</g>
</g>
<!-- Node5 -->
<g id="Node000005" class="node">
<title>Node5</title>
<g id="a_Node000005"><a xlink:href="class_async_client.html#a758eaca983e03027c99003a5808883f8" target="_top" xlink:title=" ">
<polygon fill="white" stroke="#666666" points="407.25,-645.48 292.25,-645.48 292.25,-625.48 407.25,-625.48 407.25,-645.48"/>
<text xml:space="preserve" text-anchor="middle" x="349.75" y="-631.98" font-family="Helvetica,sans-Serif" font-size="10.00">AsyncClient::_connect</text>
</a>
</g>
</g>
<!-- Node4&#45;&gt;Node5 -->
<g id="edge4_Node000004_Node000005" class="edge">
<title>Node4&#45;&gt;Node5</title>
<g id="a_edge4_Node000004_Node000005"><a xlink:title=" ">
<path fill="none" stroke="#63b8ff" d="M863.81,-683.56C855.73,-685.19 847.26,-686.62 839.25,-687.48 706.45,-701.67 671.09,-705.44 538.75,-687.48 480.86,-679.62 415.63,-658.74 379.23,-645.96"/>
<polygon fill="#63b8ff" stroke="#63b8ff" points="864.37,-687.01 873.4,-681.47 862.89,-680.17 864.37,-687.01"/>
</a>
</g>
</g>
<!-- Node13 -->
<g id="Node000013" class="node">
<title>Node13</title>
<g id="a_Node000013"><a xlink:href="class_async_client.html#aefecfa0c75c8c1b32104115e93739087" target="_top" xlink:title=" ">
<polygon fill="white" stroke="#666666" points="839.25,-398.48 710.75,-398.48 710.75,-378.48 839.25,-378.48 839.25,-398.48"/>
<text xml:space="preserve" text-anchor="middle" x="775" y="-384.98" font-family="Helvetica,sans-Serif" font-size="10.00">AsyncClient::AsyncClient</text>
</a>
</g>
</g>
<!-- Node4&#45;&gt;Node13 -->
<g id="edge8_Node000004_Node000013" class="edge">
<title>Node4&#45;&gt;Node13</title>
<g id="a_edge8_Node000004_Node000013"><a xlink:title=" ">
<path fill="none" stroke="#63b8ff" d="M894.71,-652.78C869.29,-596.18 799.27,-440.28 780.62,-398.75"/>
<polygon fill="#63b8ff" stroke="#63b8ff" points="891.38,-653.93 898.67,-661.62 897.77,-651.06 891.38,-653.93"/>
</a>
</g>
</g>
<!-- Node19 -->
<g id="Node000019" class="node">
<title>Node19</title>
<g id="a_Node000019"><a xlink:href="class_async_client.html#a575c12664279634155259e007c6a104f" target="_top" xlink:title=" ">
<polygon fill="white" stroke="#666666" points="408,-139.48 291.5,-139.48 291.5,-119.48 408,-119.48 408,-139.48"/>
<text xml:space="preserve" text-anchor="middle" x="349.75" y="-125.98" font-family="Helvetica,sans-Serif" font-size="10.00">AsyncClient::operator=</text>
</a>
</g>
</g>
<!-- Node4&#45;&gt;Node19 -->
<g id="edge25_Node000004_Node000019" class="edge">
<title>Node4&#45;&gt;Node19</title>
<g id="a_edge25_Node000004_Node000019"><a xlink:title=" ">
<path fill="none" stroke="#63b8ff" d="M863.77,-678.38C791.34,-684.98 637.38,-688.62 538.75,-616.48 370.5,-493.42 352.82,-198.38 350.97,-139.72"/>
<polygon fill="#63b8ff" stroke="#63b8ff" points="863.97,-681.88 873.58,-677.41 863.28,-674.91 863.97,-681.88"/>
</a>
</g>
</g>
<!-- Node5&#45;&gt;Node3 -->
<g id="edge5_Node000005_Node000003" class="edge">
<title>Node5&#45;&gt;Node3</title>
<g id="a_edge5_Node000005_Node000003"><a xlink:title=" ">
<path fill="none" stroke="#63b8ff" d="M280.73,-639.88C241.2,-642.93 190.5,-647.68 145.75,-654.48 130.93,-656.73 114.87,-659.89 100.49,-662.99"/>
<polygon fill="#63b8ff" stroke="#63b8ff" points="280.88,-643.38 290.59,-639.14 280.35,-636.4 280.88,-643.38"/>
</a>
</g>
</g>
<!-- Node6 -->
<g id="Node000006" class="node">
<title>Node6</title>
<g id="a_Node000006"><a xlink:href="class_async_client.html#aaa5b952568c85d25c32d0dff8ec74794" target="_top" xlink:title=" ">
<polygon fill="#fff0f0" stroke="red" points="255.5,-683.48 145.75,-683.48 145.75,-663.48 255.5,-663.48 255.5,-683.48"/>
<text xml:space="preserve" text-anchor="middle" x="200.62" y="-669.98" font-family="Helvetica,sans-Serif" font-size="10.00">AsyncClient::connect</text>
</a>
</g>
</g>
<!-- Node5&#45;&gt;Node6 -->
<g id="edge6_Node000005_Node000006" class="edge">
<title>Node5&#45;&gt;Node6</title>
<g id="a_edge6_Node000005_Node000006"><a xlink:title=" ">
<path fill="none" stroke="#63b8ff" d="M297.2,-648.79C279.14,-653.46 259.11,-658.63 242.08,-663.03"/>
<polygon fill="#63b8ff" stroke="#63b8ff" points="297.89,-652.23 306.69,-646.34 296.13,-645.45 297.89,-652.23"/>
</a>
</g>
</g>
<!-- Node6&#45;&gt;Node3 -->
<g id="edge7_Node000006_Node000003" class="edge">
<title>Node6&#45;&gt;Node3</title>
<g id="a_edge7_Node000006_Node000003"><a xlink:title=" ">
<path fill="none" stroke="#63b8ff" d="M133.97,-673.48C125.89,-673.48 117.7,-673.48 109.82,-673.48"/>
<polygon fill="#63b8ff" stroke="#63b8ff" points="133.77,-676.98 143.77,-673.48 133.77,-669.98 133.77,-676.98"/>
</a>
</g>
</g>
<!-- Node14 -->
<g id="Node000014" class="node">
<title>Node14</title>
<g id="a_Node000014"><a xlink:href="class_async_client.html#ac4cdb0990fa85f03da98d1c98b1f8611" target="_top" xlink:title=" ">
<polygon fill="#fff0f0" stroke="red" points="674.75,-265.48 538.75,-265.48 538.75,-245.48 674.75,-245.48 674.75,-265.48"/>
<text xml:space="preserve" text-anchor="middle" x="606.75" y="-251.98" font-family="Helvetica,sans-Serif" font-size="10.00">AsyncClient::_s_connected</text>
</a>
</g>
</g>
<!-- Node13&#45;&gt;Node14 -->
<g id="edge9_Node000013_Node000014" class="edge">
<title>Node13&#45;&gt;Node14</title>
<g id="a_edge9_Node000013_Node000014"><a xlink:title=" ">
<path fill="none" stroke="#63b8ff" d="M761.88,-368.47C745.35,-342.88 713.33,-298.96 674.75,-274.48 669.34,-271.05 663.3,-268.22 657.12,-265.9"/>
<polygon fill="#63b8ff" stroke="#63b8ff" points="758.9,-370.31 767.18,-376.92 764.83,-366.59 758.9,-370.31"/>
</a>
</g>
</g>
<!-- Node8 -->
<g id="Node000008" class="node">
<title>Node8</title>
<g id="a_Node000008"><a xlink:href="class_async_client.html#a3f629c9072da183879a9c67878b374cc" target="_top" xlink:title=" ">
<polygon fill="#fff0f0" stroke="red" points="660.12,-227.48 553.38,-227.48 553.38,-195.48 660.12,-195.48 660.12,-227.48"/>
<text xml:space="preserve" text-anchor="start" x="561.38" y="-213.98" font-family="Helvetica,sans-Serif" font-size="10.00">AsyncClient::_s_dns</text>
<text xml:space="preserve" text-anchor="middle" x="606.75" y="-201.98" font-family="Helvetica,sans-Serif" font-size="10.00">_found</text>
</a>
</g>
</g>
<!-- Node13&#45;&gt;Node8 -->
<g id="edge10_Node000013_Node000008" class="edge">
<title>Node13&#45;&gt;Node8</title>
<g id="a_edge10_Node000013_Node000008"><a xlink:title=" ">
<path fill="none" stroke="#63b8ff" d="M765.49,-367.49C751.31,-335.02 719.9,-272.6 674.75,-236.48 670.39,-232.99 665.49,-229.95 660.38,-227.32"/>
<polygon fill="#63b8ff" stroke="#63b8ff" points="762.22,-368.74 769.33,-376.6 768.67,-366.02 762.22,-368.74"/>
</a>
</g>
</g>
<!-- Node15 -->
<g id="Node000015" class="node">
<title>Node15</title>
<g id="a_Node000015"><a xlink:href="class_async_client.html#a9ff634e3b1237eab65178b007326367e" target="_top" xlink:title=" ">
<polygon fill="#fff0f0" stroke="red" points="662,-607.48 551.5,-607.48 551.5,-587.48 662,-587.48 662,-607.48"/>
<text xml:space="preserve" text-anchor="middle" x="606.75" y="-593.98" font-family="Helvetica,sans-Serif" font-size="10.00">AsyncClient::_s_error</text>
</a>
</g>
</g>
<!-- Node13&#45;&gt;Node15 -->
<g id="edge11_Node000013_Node000015" class="edge">
<title>Node13&#45;&gt;Node15</title>
<g id="a_edge11_Node000013_Node000015"><a xlink:title=" ">
<path fill="none" stroke="#63b8ff" d="M768.84,-409.89C758.21,-449.31 730.1,-533.46 674.75,-578.48 670.53,-581.91 665.72,-584.72 660.67,-587.03"/>
<polygon fill="#63b8ff" stroke="#63b8ff" points="772.17,-411 771.26,-400.44 765.39,-409.26 772.17,-411"/>
</a>
</g>
</g>
<!-- Node16 -->
<g id="Node000016" class="node">
<title>Node16</title>
<g id="a_Node000016"><a xlink:href="class_async_client.html#a6a69c67e1a22660766affb64700c2276" target="_top" xlink:title=" ">
<polygon fill="#fff0f0" stroke="red" points="657.5,-569.48 556,-569.48 556,-549.48 657.5,-549.48 657.5,-569.48"/>
<text xml:space="preserve" text-anchor="middle" x="606.75" y="-555.98" font-family="Helvetica,sans-Serif" font-size="10.00">AsyncClient::_s_fin</text>
</a>
</g>
</g>
<!-- Node13&#45;&gt;Node16 -->
<g id="edge12_Node000013_Node000016" class="edge">
<title>Node13&#45;&gt;Node16</title>
<g id="a_edge12_Node000013_Node000016"><a xlink:title=" ">
<path fill="none" stroke="#63b8ff" d="M766.03,-409.44C752.42,-442.38 721.55,-506.04 674.75,-540.48 669.69,-544.2 663.91,-547.2 657.93,-549.61"/>
<polygon fill="#63b8ff" stroke="#63b8ff" points="769.25,-410.8 769.7,-400.21 762.75,-408.21 769.25,-410.8"/>
</a>
</g>
</g>
<!-- Node17 -->
<g id="Node000017" class="node">
<title>Node17</title>
<g id="a_Node000017"><a xlink:href="class_async_client.html#a485b2be0c01d3172928c0ed9655edc2f" target="_top" xlink:title=" ">
<polygon fill="white" stroke="#666666" points="668.75,-177.48 544.75,-177.48 544.75,-157.48 668.75,-157.48 668.75,-177.48"/>
<text xml:space="preserve" text-anchor="middle" x="606.75" y="-163.98" font-family="Helvetica,sans-Serif" font-size="10.00">AsyncClient::_s_lwip_fin</text>
</a>
</g>
</g>
<!-- Node13&#45;&gt;Node17 -->
<g id="edge13_Node000013_Node000017" class="edge">
<title>Node13&#45;&gt;Node17</title>
<g id="a_edge13_Node000013_Node000017"><a xlink:title=" ">
<path fill="none" stroke="#63b8ff" d="M769.59,-367.18C759.93,-325.94 732.94,-235.02 674.75,-186.48 670.66,-183.07 666,-180.27 661.09,-177.98"/>
<polygon fill="#63b8ff" stroke="#63b8ff" points="766.14,-367.79 771.72,-376.8 772.97,-366.28 766.14,-367.79"/>
</a>
</g>
</g>
<!-- Node13&#45;&gt;Node19 -->
<g id="edge23_Node000013_Node000019" class="edge">
<title>Node13&#45;&gt;Node19</title>
<g id="a_edge23_Node000013_Node000019"><a xlink:title=" ">
<path fill="none" stroke="#63b8ff" d="M772.42,-366.98C767.58,-318.52 748.43,-200.92 674.75,-148.48 590.06,-88.19 459.15,-104.93 392.63,-118.99"/>
<polygon fill="#63b8ff" stroke="#63b8ff" points="768.91,-367.05 773.27,-376.71 775.88,-366.44 768.91,-367.05"/>
</a>
</g>
</g>
<!-- Node20 -->
<g id="Node000020" class="node">
<title>Node20</title>
<g id="a_Node000020"><a xlink:href="class_async_client.html#abe187c005c73fe6c0c94e1b3b20b55de" target="_top" xlink:title=" ">
<polygon fill="#fff0f0" stroke="red" points="659.75,-531.48 553.75,-531.48 553.75,-511.48 659.75,-511.48 659.75,-531.48"/>
<text xml:space="preserve" text-anchor="middle" x="606.75" y="-517.98" font-family="Helvetica,sans-Serif" font-size="10.00">AsyncClient::_s_poll</text>
</a>
</g>
</g>
<!-- Node13&#45;&gt;Node20 -->
<g id="edge18_Node000013_Node000020" class="edge">
<title>Node13&#45;&gt;Node20</title>
<g id="a_edge18_Node000013_Node000020"><a xlink:title=" ">
<path fill="none" stroke="#63b8ff" d="M761.88,-408.49C745.35,-434.08 713.33,-478 674.75,-502.48 669.34,-505.91 663.3,-508.74 657.12,-511.06"/>
<polygon fill="#63b8ff" stroke="#63b8ff" points="764.83,-410.37 767.18,-400.04 758.9,-406.65 764.83,-410.37"/>
</a>
</g>
</g>
<!-- Node21 -->
<g id="Node000021" class="node">
<title>Node21</title>
<g id="a_Node000021"><a xlink:href="class_async_client.html#af8136d3085c8948078a131bfb9430ec6" target="_top" xlink:title=" ">
<polygon fill="#fff0f0" stroke="red" points="661.62,-493.48 551.88,-493.48 551.88,-473.48 661.62,-473.48 661.62,-493.48"/>
<text xml:space="preserve" text-anchor="middle" x="606.75" y="-479.98" font-family="Helvetica,sans-Serif" font-size="10.00">AsyncClient::_s_recv</text>
</a>
</g>
</g>
<!-- Node13&#45;&gt;Node21 -->
<g id="edge19_Node000013_Node000021" class="edge">
<title>Node13&#45;&gt;Node21</title>
<g id="a_edge19_Node000013_Node000021"><a xlink:title=" ">
<path fill="none" stroke="#63b8ff" d="M755.02,-406.56C736.07,-423.72 705.42,-449.09 674.75,-464.48 668.05,-467.84 660.66,-470.69 653.32,-473.07"/>
<polygon fill="#63b8ff" stroke="#63b8ff" points="757.25,-409.27 762.22,-399.91 752.5,-404.13 757.25,-409.27"/>
</a>
</g>
</g>
<!-- Node22 -->
<g id="Node000022" class="node">
<title>Node22</title>
<g id="a_Node000022"><a xlink:href="class_async_client.html#a8e507d50b4cc3ae8e90f2e1c1ebf5f61" target="_top" xlink:title=" ">
<polygon fill="#fff0f0" stroke="red" points="661.62,-455.48 551.88,-455.48 551.88,-435.48 661.62,-435.48 661.62,-455.48"/>
<text xml:space="preserve" text-anchor="middle" x="606.75" y="-441.98" font-family="Helvetica,sans-Serif" font-size="10.00">AsyncClient::_s_sent</text>
</a>
</g>
</g>
<!-- Node13&#45;&gt;Node22 -->
<g id="edge20_Node000013_Node000022" class="edge">
<title>Node13&#45;&gt;Node22</title>
<g id="a_edge20_Node000013_Node000022"><a xlink:title=" ">
<path fill="none" stroke="#63b8ff" d="M732.8,-402.61C703.53,-412.64 664.87,-425.89 638.33,-434.99"/>
<polygon fill="#63b8ff" stroke="#63b8ff" points="733.75,-405.98 742.08,-399.42 731.48,-399.36 733.75,-405.98"/>
</a>
</g>
</g>
<!-- Node23 -->
<g id="Node000023" class="node">
<title>Node23</title>
<g id="a_Node000023"><a xlink:href="class_async_client.html#a44e3b77c5567dbfeb25c50cfddf61653" target="_top" xlink:title=" ">
<polygon fill="white" stroke="#666666" points="666.5,-379.48 547,-379.48 547,-359.48 666.5,-359.48 666.5,-379.48"/>
<text xml:space="preserve" text-anchor="middle" x="606.75" y="-365.98" font-family="Helvetica,sans-Serif" font-size="10.00">AsyncClient::operator!=</text>
</a>
</g>
</g>
<!-- Node13&#45;&gt;Node23 -->
<g id="edge21_Node000013_Node000023" class="edge">
<title>Node13&#45;&gt;Node23</title>
<g id="a_edge21_Node000013_Node000023"><a xlink:title=" ">
<path fill="none" stroke="#63b8ff" d="M699.4,-379.95C688.47,-378.7 677.35,-377.43 666.8,-376.23"/>
<polygon fill="#63b8ff" stroke="#63b8ff" points="698.84,-383.41 709.17,-381.07 699.63,-376.46 698.84,-383.41"/>
</a>
</g>
</g>
<!-- Node24 -->
<g id="Node000024" class="node">
<title>Node24</title>
<g id="a_Node000024"><a xlink:href="class_async_client.html#afaedf716feb9b363fe9b1ee7d82fbe9f" target="_top" xlink:title=" ">
<polygon fill="white" stroke="#666666" points="668,-341.48 545.5,-341.48 545.5,-321.48 668,-321.48 668,-341.48"/>
<text xml:space="preserve" text-anchor="middle" x="606.75" y="-327.98" font-family="Helvetica,sans-Serif" font-size="10.00">AsyncClient::operator+=</text>
</a>
</g>
</g>
<!-- Node13&#45;&gt;Node24 -->
<g id="edge22_Node000013_Node000024" class="edge">
<title>Node13&#45;&gt;Node24</title>
<g id="a_edge22_Node000013_Node000024"><a xlink:title=" ">
<path fill="none" stroke="#63b8ff" d="M738.08,-373.84C719.35,-366.43 695.97,-357.53 674.75,-350.48 665.8,-347.5 656.09,-344.58 646.9,-341.95"/>
<polygon fill="#63b8ff" stroke="#63b8ff" points="736.53,-376.99 747.12,-377.44 739.12,-370.48 736.53,-376.99"/>
</a>
</g>
</g>
<!-- Node25 -->
<g id="Node000025" class="node">
<title>Node25</title>
<g id="a_Node000025"><a xlink:href="class_async_client.html#a40d147dfec9bbc2e8891273be25c5f39" target="_top" xlink:title=" ">
<polygon fill="white" stroke="#666666" points="668,-303.48 545.5,-303.48 545.5,-283.48 668,-283.48 668,-303.48"/>
<text xml:space="preserve" text-anchor="middle" x="606.75" y="-289.98" font-family="Helvetica,sans-Serif" font-size="10.00">AsyncClient::operator==</text>
</a>
</g>
</g>
<!-- Node13&#45;&gt;Node25 -->
<g id="edge24_Node000013_Node000025" class="edge">
<title>Node13&#45;&gt;Node25</title>
<g id="a_edge24_Node000013_Node000025"><a xlink:title=" ">
<path fill="none" stroke="#63b8ff" d="M755.02,-370.39C736.07,-353.24 705.42,-327.86 674.75,-312.48 668.05,-309.12 660.66,-306.27 653.32,-303.88"/>
<polygon fill="#63b8ff" stroke="#63b8ff" points="752.5,-372.83 762.22,-377.05 757.25,-367.69 752.5,-372.83"/>
</a>
</g>
</g>
<!-- Node17&#45;&gt;Node18 -->
<g id="edge14_Node000017_Node000018" class="edge">
<title>Node17&#45;&gt;Node18</title>
<g id="a_edge14_Node000017_Node000018"><a xlink:title=" ">
<path fill="none" stroke="#63b8ff" d="M541.08,-184.33C540.28,-185.02 539.5,-185.73 538.75,-186.48 477.5,-247.3 473.78,-362.82 474.11,-397.43"/>
<polygon fill="#63b8ff" stroke="#63b8ff" points="542.91,-187.31 549.22,-178.8 538.98,-181.52 542.91,-187.31"/>
</a>
</g>
</g>
<!-- Node18&#45;&gt;Node5 -->
<g id="edge15_Node000018_Node000005" class="edge">
<title>Node18&#45;&gt;Node5</title>
<g id="a_edge15_Node000018_Node000005"><a xlink:title=" ">
<path fill="none" stroke="#63b8ff" d="M461.54,-427.79C436.46,-474.8 375.13,-589.77 356.32,-625.03"/>
<polygon fill="#63b8ff" stroke="#63b8ff" points="464.5,-429.67 466.12,-419.2 458.33,-426.38 464.5,-429.67"/>
</a>
</g>
</g>
<!-- Node18&#45;&gt;Node13 -->
<g id="edge16_Node000018_Node000013" class="edge">
<title>Node18&#45;&gt;Node13</title>
<g id="a_edge16_Node000018_Node000013"><a xlink:title=" ">
<path fill="none" stroke="#63b8ff" d="M514.29,-404.95C564.45,-401.77 651.14,-396.27 710.46,-392.51"/>
<polygon fill="#63b8ff" stroke="#63b8ff" points="514.23,-401.44 504.47,-405.57 514.67,-408.43 514.23,-401.44"/>
</a>
</g>
</g>
<!-- Node18&#45;&gt;Node19 -->
<g id="edge17_Node000018_Node000019" class="edge">
<title>Node18&#45;&gt;Node19</title>
<g id="a_edge17_Node000018_Node000019"><a xlink:title=" ">
<path fill="none" stroke="#63b8ff" d="M463.4,-386.97C439.19,-331.63 373.14,-180.66 355.26,-139.8"/>
<polygon fill="#63b8ff" stroke="#63b8ff" points="460.08,-388.11 467.3,-395.87 466.49,-385.3 460.08,-388.11"/>
</a>
</g>
</g>
<!-- Node26&#45;&gt;Node5 -->
<g id="edge27_Node000026_Node000005" class="edge">
<title>Node26&#45;&gt;Node5</title>
<g id="a_edge27_Node000026_Node000005"><a xlink:title=" ">
<path fill="none" stroke="#63b8ff" d="M869.33,-555.15C825.08,-573.13 745.74,-602.87 674.75,-616.48 582.33,-634.19 472.61,-636.88 407.49,-636.61"/>
<polygon fill="#63b8ff" stroke="#63b8ff" points="870.48,-558.46 878.4,-551.42 867.82,-551.99 870.48,-558.46"/>
</a>
</g>
</g>
<!-- Node26&#45;&gt;Node13 -->
<g id="edge28_Node000026_Node000013" class="edge">
<title>Node26&#45;&gt;Node13</title>
<g id="a_edge28_Node000026_Node000013"><a xlink:title=" ">
<path fill="none" stroke="#63b8ff" d="M887.95,-521.42C860.53,-488.86 805.62,-423.65 784.52,-398.6"/>
<polygon fill="#63b8ff" stroke="#63b8ff" points="885.11,-523.48 894.23,-528.87 890.46,-518.97 885.11,-523.48"/>
</a>
</g>
</g>
<!-- Node26&#45;&gt;Node19 -->
<g id="edge29_Node000026_Node000019" class="edge">
<title>Node26&#45;&gt;Node19</title>
<g id="a_edge29_Node000026_Node000019"><a xlink:title=" ">
<path fill="none" stroke="#63b8ff" d="M900.85,-518.99C888.57,-444.22 836.32,-195.17 674.75,-105.48 575.63,-50.45 432.42,-96.63 375.46,-119.01"/>
<polygon fill="#63b8ff" stroke="#63b8ff" points="897.36,-519.31 902.36,-528.65 904.27,-518.23 897.36,-519.31"/>
</a>
</g>
</g>
<!-- Node27&#45;&gt;Node5 -->
<g id="edge32_Node000027_Node000005" class="edge">
<title>Node27&#45;&gt;Node5</title>
<g id="a_edge32_Node000027_Node000005"><a xlink:title=" ">
<path fill="none" stroke="#63b8ff" d="M878.03,-195.41C814.22,-158.21 647.1,-74.76 538.75,-148.48 366.4,-265.73 351.99,-565.4 350.84,-625.06"/>
<polygon fill="#63b8ff" stroke="#63b8ff" points="876.01,-198.28 886.4,-200.39 879.59,-192.27 876.01,-198.28"/>
</a>
</g>
</g>
<!-- Node27&#45;&gt;Node13 -->
<g id="edge33_Node000027_Node000013" class="edge">
<title>Node27&#45;&gt;Node13</title>
<g id="a_edge33_Node000027_Node000013"><a xlink:title=" ">
<path fill="none" stroke="#63b8ff" d="M890.13,-230.65C863.12,-268.01 804.25,-349.42 783.46,-378.17"/>
<polygon fill="#63b8ff" stroke="#63b8ff" points="892.65,-233.14 895.68,-222.99 886.98,-229.04 892.65,-233.14"/>
</a>
</g>
</g>
<!-- Node27&#45;&gt;Node19 -->
<g id="edge34_Node000027_Node000019" class="edge">
<title>Node27&#45;&gt;Node19</title>
<g id="a_edge34_Node000027_Node000019"><a xlink:title=" ">
<path fill="none" stroke="#63b8ff" d="M903.27,-190.24C900.68,-152.4 889.22,-74.06 839.25,-39.48 682.18,69.22 431.21,-77.56 366.42,-119.09"/>
<polygon fill="#63b8ff" stroke="#63b8ff" points="899.75,-190.08 903.77,-199.88 906.74,-189.71 899.75,-190.08"/>
</a>
</g>
</g>
</g>
</svg>
