<?xml version="1.0" encoding="UTF-8" standalone="no"?>
<!DOCTYPE svg PUBLIC "-//W3C//DTD SVG 1.1//EN"
 "http://www.w3.org/Graphics/SVG/1.1/DTD/svg11.dtd">
<!-- Generated by graphviz version 14.1.2 (20260124.0452)
 -->
<!-- Title: AsyncTCP.cpp Pages: 1 -->
<svg width="1018pt" height="140pt"
 viewBox="0.00 0.00 1018.00 140.00" xmlns="http://www.w3.org/2000/svg" xmlns:xlink="http://www.w3.org/1999/xlink">
<g id="graph0" class="graph" transform="scale(1 1) rotate(0) translate(4 136)">
<title>AsyncTCP.cpp</title>
<!-- Node1 -->
<g id="Node000001" class="node">
<title>Node1</title>
<g id="a_Node000001"><a xlink:title=" ">
<polygon fill="#999999" stroke="#666666" points="642.25,-132 561,-132 561,-112 642.25,-112 642.25,-132"/>
<text xml:space="preserve" text-anchor="middle" x="601.62" y="-118.5" font-family="Helvetica,sans-Serif" font-size="10.00">AsyncTCP.cpp</text>
</a>
</g>
</g>
<!-- Node2 -->
<g id="Node000002" class="node">
<title>Node2</title>
<g id="a_Node000002"><a xlink:title=" ">
<polygon fill="#e0e0e0" stroke="#999999" points="312.25,-76 255,-76 255,-56 312.25,-56 312.25,-76"/>
<text xml:space="preserve" text-anchor="middle" x="283.62" y="-62.5" font-family="Helvetica,sans-Serif" font-size="10.00">Arduino.h</text>
</a>
</g>
</g>
<!-- Node1&#45;&gt;Node2 -->
<g id="edge1_Node000001_Node000002" class="edge">
<title>Node1&#45;&gt;Node2</title>
<g id="a_edge1_Node000001_Node000002"><a xlink:title=" ">
<path fill="none" stroke="#63b8ff" d="M560.65,-115.37C508.14,-107.95 414.06,-93.95 323.88,-76.32"/>
<polygon fill="#63b8ff" stroke="#63b8ff" points="324.6,-72.9 314.11,-74.39 323.24,-79.76 324.6,-72.9"/>
</a>
</g>
</g>
<!-- Node3 -->
<g id="Node000003" class="node">
<title>Node3</title>
<g id="a_Node000003"><a xlink:href="_async_t_c_p_8h.html" target="_top" xlink:title=" ">
<polygon fill="white" stroke="#666666" points="401,-76 330.25,-76 330.25,-56 401,-56 401,-76"/>
<text xml:space="preserve" text-anchor="middle" x="365.62" y="-62.5" font-family="Helvetica,sans-Serif" font-size="10.00">AsyncTCP.h</text>
</a>
</g>
</g>
<!-- Node1&#45;&gt;Node3 -->
<g id="edge2_Node000001_Node000003" class="edge">
<title>Node1&#45;&gt;Node3</title>
<g id="a_edge2_Node000001_Node000003"><a xlink:title=" ">
<path fill="none" stroke="#63b8ff" d="M560.52,-111.59C519.18,-102.14 455.54,-87.57 412.32,-77.68"/>
<polygon fill="#63b8ff" stroke="#63b8ff" points="413.26,-74.31 402.73,-75.49 411.69,-81.13 413.26,-74.31"/>
</a>
</g>
</g>
<!-- Node12 -->
<g id="Node000012" class="node">
<title>Node12</title>
<g id="a_Node000012"><a xlink:title=" ">
<polygon fill="#e0e0e0" stroke="#999999" points="479.75,-76 419.5,-76 419.5,-56 479.75,-56 479.75,-76"/>
<text xml:space="preserve" text-anchor="middle" x="449.62" y="-62.5" font-family="Helvetica,sans-Serif" font-size="10.00">lwip/dns.h</text>
</a>
</g>
</g>
<!-- Node1&#45;&gt;Node12 -->
<g id="edge11_Node000001_Node000012" class="edge">
<title>Node1&#45;&gt;Node12</title>
<g id="a_edge11_Node000001_Node000012"><a xlink:title=" ">
<path fill="none" stroke="#63b8ff" d="M575.15,-111.59C550.78,-102.94 514.37,-90 487.04,-80.29"/>
<polygon fill="#63b8ff" stroke="#63b8ff" points="488.33,-77.04 477.73,-76.99 485.99,-83.63 488.33,-77.04"/>
</a>
</g>
</g>
<!-- Node13 -->
<g id="Node000013" class="node">
<title>Node13</title>
<g id="a_Node000013"><a xlink:title=" ">
<polygon fill="#e0e0e0" stroke="#999999" points="553.5,-76 497.75,-76 497.75,-56 553.5,-56 553.5,-76"/>
<text xml:space="preserve" text-anchor="middle" x="525.62" y="-62.5" font-family="Helvetica,sans-Serif" font-size="10.00">lwip/err.h</text>
</a>
</g>
</g>
<!-- Node1&#45;&gt;Node13 -->
<g id="edge12_Node000001_Node000013" class="edge">
<title>Node1&#45;&gt;Node13</title>
<g id="a_edge12_Node000001_Node000013"><a xlink:title=" ">
<path fill="none" stroke="#63b8ff" d="M588.39,-111.59C577.34,-103.74 561.34,-92.38 548.27,-83.09"/>
<polygon fill="#63b8ff" stroke="#63b8ff" points="550.38,-80.3 540.2,-77.36 546.32,-86 550.38,-80.3"/>
</a>
</g>
</g>
<!-- Node14 -->
<g id="Node000014" class="node">
<title>Node14</title>
<g id="a_Node000014"><a xlink:title=" ">
<polygon fill="#e0e0e0" stroke="#999999" points="631.75,-76 571.5,-76 571.5,-56 631.75,-56 631.75,-76"/>
<text xml:space="preserve" text-anchor="middle" x="601.62" y="-62.5" font-family="Helvetica,sans-Serif" font-size="10.00">lwip/inet.h</text>
</a>
</g>
</g>
<!-- Node1&#45;&gt;Node14 -->
<g id="edge13_Node000001_Node000014" class="edge">
<title>Node1&#45;&gt;Node14</title>
<g id="a_edge13_Node000001_Node000014"><a xlink:title=" ">
<path fill="none" stroke="#63b8ff" d="M601.62,-111.59C601.62,-105.01 601.62,-95.96 601.62,-87.73"/>
<polygon fill="#63b8ff" stroke="#63b8ff" points="605.13,-87.81 601.63,-77.81 598.13,-87.81 605.13,-87.81"/>
</a>
</g>
</g>
<!-- Node15 -->
<g id="Node000015" class="node">
<title>Node15</title>
<g id="a_Node000015"><a xlink:title=" ">
<polygon fill="#e0e0e0" stroke="#999999" points="707.62,-76 649.62,-76 649.62,-56 707.62,-56 707.62,-76"/>
<text xml:space="preserve" text-anchor="middle" x="678.62" y="-62.5" font-family="Helvetica,sans-Serif" font-size="10.00">lwip/opt.h</text>
</a>
</g>
</g>
<!-- Node1&#45;&gt;Node15 -->
<g id="edge14_Node000001_Node000015" class="edge">
<title>Node1&#45;&gt;Node15</title>
<g id="a_edge14_Node000001_Node000015"><a xlink:title=" ">
<path fill="none" stroke="#63b8ff" d="M615.04,-111.59C626.23,-103.74 642.44,-92.38 655.68,-83.09"/>
<polygon fill="#63b8ff" stroke="#63b8ff" points="657.69,-85.96 663.87,-77.35 653.67,-80.22 657.69,-85.96"/>
</a>
</g>
</g>
<!-- Node16 -->
<g id="Node000016" class="node">
<title>Node16</title>
<g id="a_Node000016"><a xlink:title=" ">
<polygon fill="#e0e0e0" stroke="#999999" points="783.62,-76 725.62,-76 725.62,-56 783.62,-56 783.62,-76"/>
<text xml:space="preserve" text-anchor="middle" x="754.62" y="-62.5" font-family="Helvetica,sans-Serif" font-size="10.00">lwip/tcp.h</text>
</a>
</g>
</g>
<!-- Node1&#45;&gt;Node16 -->
<g id="edge15_Node000001_Node000016" class="edge">
<title>Node1&#45;&gt;Node16</title>
<g id="a_edge15_Node000001_Node000016"><a xlink:title=" ">
<path fill="none" stroke="#63b8ff" d="M628.28,-111.59C652.81,-102.94 689.45,-90 716.97,-80.29"/>
<polygon fill="#63b8ff" stroke="#63b8ff" points="718.07,-83.61 726.34,-76.98 715.74,-77.01 718.07,-83.61"/>
</a>
</g>
</g>
<!-- Node17 -->
<g id="Node000017" class="node">
<title>Node17</title>
<g id="a_Node000017"><a xlink:title=" ">
<polygon fill="#e0e0e0" stroke="#999999" points="887.12,-76 802.12,-76 802.12,-56 887.12,-56 887.12,-76"/>
<text xml:space="preserve" text-anchor="middle" x="844.62" y="-62.5" font-family="Helvetica,sans-Serif" font-size="10.00">esp_task_wdt.h</text>
</a>
</g>
</g>
<!-- Node1&#45;&gt;Node17 -->
<g id="edge16_Node000001_Node000017" class="edge">
<title>Node1&#45;&gt;Node17</title>
<g id="a_edge16_Node000001_Node000017"><a xlink:title=" ">
<path fill="none" stroke="#63b8ff" d="M642.57,-111.9C683.47,-102.81 746.53,-88.8 791.32,-78.85"/>
<polygon fill="#63b8ff" stroke="#63b8ff" points="791.8,-82.32 800.81,-76.74 790.29,-75.49 791.8,-82.32"/>
</a>
</g>
</g>
<!-- Node18 -->
<g id="Node000018" class="node">
<title>Node18</title>
<g id="a_Node000018"><a xlink:title=" ">
<polygon fill="#e0e0e0" stroke="#999999" points="1009.88,-76 905.38,-76 905.38,-56 1009.88,-56 1009.88,-76"/>
<text xml:space="preserve" text-anchor="middle" x="957.62" y="-62.5" font-family="Helvetica,sans-Serif" font-size="10.00">lwip/priv/tcpip_priv.h</text>
</a>
</g>
</g>
<!-- Node1&#45;&gt;Node18 -->
<g id="edge17_Node000001_Node000018" class="edge">
<title>Node1&#45;&gt;Node18</title>
<g id="a_edge17_Node000001_Node000018"><a xlink:title=" ">
<path fill="none" stroke="#63b8ff" d="M642.46,-114.81C703.92,-105.48 820.73,-87.77 893.58,-76.71"/>
<polygon fill="#63b8ff" stroke="#63b8ff" points="894.03,-80.19 903.39,-75.23 892.98,-73.27 894.03,-80.19"/>
</a>
</g>
</g>
<!-- Node4 -->
<g id="Node000004" class="node">
<title>Node4</title>
<g id="a_Node000004"><a xlink:title=" ">
<polygon fill="#e0e0e0" stroke="#999999" points="69.25,-20 0,-20 0,0 69.25,0 69.25,-20"/>
<text xml:space="preserve" text-anchor="middle" x="34.62" y="-6.5" font-family="Helvetica,sans-Serif" font-size="10.00">IPAddress.h</text>
</a>
</g>
</g>
<!-- Node3&#45;&gt;Node4 -->
<g id="edge3_Node000003_Node000004" class="edge">
<title>Node3&#45;&gt;Node4</title>
<g id="a_edge3_Node000003_Node000004"><a xlink:title=" ">
<path fill="none" stroke="#63b8ff" d="M330.12,-57.56C327.25,-57.02 324.39,-56.49 321.62,-56 217.67,-37.68 188.09,-38.84 80.97,-20.32"/>
<polygon fill="#63b8ff" stroke="#63b8ff" points="81.6,-16.88 71.15,-18.61 80.39,-23.78 81.6,-16.88"/>
</a>
</g>
</g>
<!-- Node5 -->
<g id="Node000005" class="node">
<title>Node5</title>
<g id="a_Node000005"><a xlink:title=" ">
<polygon fill="#e0e0e0" stroke="#999999" points="167.88,-20 87.38,-20 87.38,0 167.88,0 167.88,-20"/>
<text xml:space="preserve" text-anchor="middle" x="127.62" y="-6.5" font-family="Helvetica,sans-Serif" font-size="10.00">IPv6Address.h</text>
</a>
</g>
</g>
<!-- Node3&#45;&gt;Node5 -->
<g id="edge4_Node000003_Node000005" class="edge">
<title>Node3&#45;&gt;Node5</title>
<g id="a_edge4_Node000003_Node000005"><a xlink:title=" ">
<path fill="none" stroke="#63b8ff" d="M329.99,-56.92C290.07,-47.86 224.97,-33.09 179.42,-22.75"/>
<polygon fill="#63b8ff" stroke="#63b8ff" points="180.29,-19.36 169.77,-20.56 178.75,-26.19 180.29,-19.36"/>
</a>
</g>
</g>
<!-- Node6 -->
<g id="Node000006" class="node">
<title>Node6</title>
<g id="a_Node000006"><a xlink:title=" ">
<polygon fill="#e0e0e0" stroke="#999999" points="267.25,-20 186,-20 186,0 267.25,0 267.25,-20"/>
<text xml:space="preserve" text-anchor="middle" x="226.62" y="-6.5" font-family="Helvetica,sans-Serif" font-size="10.00">lwip/ip6_addr.h</text>
</a>
</g>
</g>
<!-- Node3&#45;&gt;Node6 -->
<g id="edge5_Node000003_Node000006" class="edge">
<title>Node3&#45;&gt;Node6</title>
<g id="a_edge5_Node000003_Node000006"><a xlink:title=" ">
<path fill="none" stroke="#63b8ff" d="M341.41,-55.59C319.32,-47.01 286.43,-34.23 261.5,-24.55"/>
<polygon fill="#63b8ff" stroke="#63b8ff" points="263.03,-21.39 252.44,-21.03 260.49,-27.91 263.03,-21.39"/>
</a>
</g>
</g>
<!-- Node7 -->
<g id="Node000007" class="node">
<title>Node7</title>
<g id="a_Node000007"><a xlink:title=" ">
<polygon fill="#e0e0e0" stroke="#999999" points="361.62,-20 285.62,-20 285.62,0 361.62,0 361.62,-20"/>
<text xml:space="preserve" text-anchor="middle" x="323.62" y="-6.5" font-family="Helvetica,sans-Serif" font-size="10.00">lwip/ip_addr.h</text>
</a>
</g>
</g>
<!-- Node3&#45;&gt;Node7 -->
<g id="edge6_Node000003_Node000007" class="edge">
<title>Node3&#45;&gt;Node7</title>
<g id="a_edge6_Node000003_Node000007"><a xlink:title=" ">
<path fill="none" stroke="#63b8ff" d="M358.31,-55.59C352.65,-48.32 344.64,-38.02 337.74,-29.15"/>
<polygon fill="#63b8ff" stroke="#63b8ff" points="340.69,-27.24 331.79,-21.49 335.16,-31.54 340.69,-27.24"/>
</a>
</g>
</g>
<!-- Node8 -->
<g id="Node000008" class="node">
<title>Node8</title>
<g id="a_Node000008"><a xlink:title=" ">
<polygon fill="#e0e0e0" stroke="#999999" points="437.62,-20 379.62,-20 379.62,0 437.62,0 437.62,-20"/>
<text xml:space="preserve" text-anchor="middle" x="408.62" y="-6.5" font-family="Helvetica,sans-Serif" font-size="10.00">functional</text>
</a>
</g>
</g>
<!-- Node3&#45;&gt;Node8 -->
<g id="edge7_Node000003_Node000008" class="edge">
<title>Node3&#45;&gt;Node8</title>
<g id="a_edge7_Node000003_Node000008"><a xlink:title=" ">
<path fill="none" stroke="#63b8ff" d="M373.12,-55.59C378.91,-48.32 387.11,-38.02 394.17,-29.15"/>
<polygon fill="#63b8ff" stroke="#63b8ff" points="396.79,-31.49 400.28,-21.48 391.31,-27.12 396.79,-31.49"/>
</a>
</g>
</g>
<!-- Node9 -->
<g id="Node000009" class="node">
<title>Node9</title>
<g id="a_Node000009"><a xlink:title=" ">
<polygon fill="#e0e0e0" stroke="#999999" points="521.75,-20 455.5,-20 455.5,0 521.75,0 521.75,-20"/>
<text xml:space="preserve" text-anchor="middle" x="488.62" y="-6.5" font-family="Helvetica,sans-Serif" font-size="10.00">sdkconfig.h</text>
</a>
</g>
</g>
<!-- Node3&#45;&gt;Node9 -->
<g id="edge8_Node000003_Node000009" class="edge">
<title>Node3&#45;&gt;Node9</title>
<g id="a_edge8_Node000003_Node000009"><a xlink:title=" ">
<path fill="none" stroke="#63b8ff" d="M387.05,-55.59C406.25,-47.17 434.67,-34.69 456.57,-25.07"/>
<polygon fill="#63b8ff" stroke="#63b8ff" points="457.9,-28.31 465.65,-21.09 455.08,-21.9 457.9,-28.31"/>
</a>
</g>
</g>
<!-- Node10 -->
<g id="Node000010" class="node">
<title>Node10</title>
<g id="a_Node000010"><a xlink:title=" ">
<polygon fill="#e0e0e0" stroke="#999999" points="631.88,-20 539.38,-20 539.38,0 631.88,0 631.88,-20"/>
<text xml:space="preserve" text-anchor="middle" x="585.62" y="-6.5" font-family="Helvetica,sans-Serif" font-size="10.00">freertos/semphr.h</text>
</a>
</g>
</g>
<!-- Node3&#45;&gt;Node10 -->
<g id="edge9_Node000003_Node000010" class="edge">
<title>Node3&#45;&gt;Node10</title>
<g id="a_edge9_Node000003_Node000010"><a xlink:title=" ">
<path fill="none" stroke="#63b8ff" d="M401.46,-56.2C438.08,-47.22 495.21,-33.19 536.13,-23.15"/>
<polygon fill="#63b8ff" stroke="#63b8ff" points="536.87,-26.57 545.74,-20.79 535.2,-19.77 536.87,-26.57"/>
</a>
</g>
</g>
<!-- Node11 -->
<g id="Node000011" class="node">
<title>Node11</title>
<g id="a_Node000011"><a xlink:title=" ">
<polygon fill="#e0e0e0" stroke="#999999" points="713.25,-20 650,-20 650,0 713.25,0 713.25,-20"/>
<text xml:space="preserve" text-anchor="middle" x="681.62" y="-6.5" font-family="Helvetica,sans-Serif" font-size="10.00">lwip/pbuf.h</text>
</a>
</g>
</g>
<!-- Node3&#45;&gt;Node11 -->
<g id="edge10_Node000003_Node000011" class="edge">
<title>Node3&#45;&gt;Node11</title>
<g id="a_edge10_Node000003_Node000011"><a xlink:title=" ">
<path fill="none" stroke="#63b8ff" d="M401.46,-57.69C404.56,-57.1 407.64,-56.53 410.62,-56 509.01,-38.47 537.04,-39.04 638.79,-20.24"/>
<polygon fill="#63b8ff" stroke="#63b8ff" points="639.2,-23.72 648.39,-18.45 637.92,-16.84 639.2,-23.72"/>
</a>
</g>
</g>
</g>
</svg>
