<?xml version="1.0" encoding="UTF-8" standalone="no"?>
<!DOCTYPE svg PUBLIC "-//W3C//DTD SVG 1.1//EN"
 "http://www.w3.org/Graphics/SVG/1.1/DTD/svg11.dtd">
<!-- Generated by graphviz version 14.1.2 (20260124.0452)
 -->
<!-- Title: _tcp_recv Pages: 1 -->
<svg width="681pt" height="262pt"
 viewBox="0.00 0.00 681.00 262.00" xmlns="http://www.w3.org/2000/svg" xmlns:xlink="http://www.w3.org/1999/xlink">
<g id="graph0" class="graph" transform="scale(1 1) rotate(0) translate(4 258.13)">
<title>_tcp_recv</title>
<!-- Node1 -->
<g id="Node000001" class="node">
<title>Node1</title>
<g id="a_Node000001"><a xlink:title=" ">
<polygon fill="#999999" stroke="#666666" points="58.75,-150.17 0,-150.17 0,-130.17 58.75,-130.17 58.75,-150.17"/>
<text xml:space="preserve" text-anchor="middle" x="29.38" y="-136.67" font-family="Helvetica,sans-Serif" font-size="10.00">_tcp_recv</text>
</a>
</g>
</g>
<!-- Node2 -->
<g id="Node000002" class="node">
<title>Node2</title>
<g id="a_Node000002"><a xlink:href="class_async_client.html#a485b2be0c01d3172928c0ed9655edc2f" target="_top" xlink:title=" ">
<polygon fill="white" stroke="#666666" points="218.75,-191.17 94.75,-191.17 94.75,-171.17 218.75,-171.17 218.75,-191.17"/>
<text xml:space="preserve" text-anchor="middle" x="156.75" y="-177.67" font-family="Helvetica,sans-Serif" font-size="10.00">AsyncClient::_s_lwip_fin</text>
</a>
</g>
</g>
<!-- Node1&#45;&gt;Node2 -->
<g id="edge1_Node000001_Node000002" class="edge">
<title>Node1&#45;&gt;Node2</title>
<g id="a_edge1_Node000001_Node000002"><a xlink:title=" ">
<path fill="none" stroke="#63b8ff" d="M59.14,-149.57C75.18,-154.82 95.47,-161.46 113.31,-167.29"/>
<polygon fill="#63b8ff" stroke="#63b8ff" points="112.01,-170.55 122.6,-170.33 114.18,-163.89 112.01,-170.55"/>
</a>
</g>
</g>
<!-- Node17 -->
<g id="Node000017" class="node">
<title>Node17</title>
<g id="a_Node000017"><a xlink:href="_async_t_c_p_8cpp.html#a796c13746a84a6b2e7370ddbec97ad5b" target="_top" xlink:title=" ">
<polygon fill="white" stroke="#666666" points="672.5,-55.17 569.5,-55.17 569.5,-35.17 672.5,-35.17 672.5,-55.17"/>
<text xml:space="preserve" text-anchor="middle" x="621" y="-41.67" font-family="Helvetica,sans-Serif" font-size="10.00">_send_async_event</text>
</a>
</g>
</g>
<!-- Node1&#45;&gt;Node17 -->
<g id="edge18_Node000001_Node000017" class="edge">
<title>Node1&#45;&gt;Node17</title>
<g id="a_edge18_Node000001_Node000017"><a xlink:title=" ">
<path fill="none" stroke="#63b8ff" d="M52.49,-129.69C110.81,-102.71 274.25,-31.28 419.25,-7.17 469.34,1.16 483.81,3.27 533.5,-7.17 554.04,-11.48 575.66,-20.98 592.15,-29.4"/>
<polygon fill="#63b8ff" stroke="#63b8ff" points="590.37,-32.41 600.84,-34 593.64,-26.23 590.37,-32.41"/>
</a>
</g>
</g>
<!-- Node3 -->
<g id="Node000003" class="node">
<title>Node3</title>
<g id="a_Node000003"><a xlink:href="class_async_client.html#a32dfd5b9ec97903e2f59871f17b85ff4" target="_top" xlink:title=" ">
<polygon fill="white" stroke="#666666" points="375.75,-238.17 262.25,-238.17 262.25,-218.17 375.75,-218.17 375.75,-238.17"/>
<text xml:space="preserve" text-anchor="middle" x="319" y="-224.67" font-family="Helvetica,sans-Serif" font-size="10.00">AsyncClient::_lwip_fin</text>
</a>
</g>
</g>
<!-- Node2&#45;&gt;Node3 -->
<g id="edge2_Node000002_Node000003" class="edge">
<title>Node2&#45;&gt;Node3</title>
<g id="a_edge2_Node000002_Node000003"><a xlink:title=" ">
<path fill="none" stroke="#63b8ff" d="M193.31,-191.6C216.26,-198.33 246.36,-207.16 271.24,-214.45"/>
<polygon fill="#63b8ff" stroke="#63b8ff" points="270.22,-217.8 280.81,-217.26 272.19,-211.09 270.22,-217.8"/>
</a>
</g>
</g>
<!-- Node5 -->
<g id="Node000005" class="node">
<title>Node5</title>
<g id="a_Node000005"><a xlink:href="class_async_client.html#ac0c28dd08517243bc6d64d32f982a3cc" target="_top" xlink:title=" ">
<polygon fill="white" stroke="#666666" points="521.88,-238.17 430.88,-238.17 430.88,-218.17 521.88,-218.17 521.88,-238.17"/>
<text xml:space="preserve" text-anchor="middle" x="476.38" y="-224.67" font-family="Helvetica,sans-Serif" font-size="10.00">AsyncClient::pcb</text>
</a>
</g>
</g>
<!-- Node2&#45;&gt;Node5 -->
<g id="edge17_Node000002_Node000005" class="edge">
<title>Node2&#45;&gt;Node5</title>
<g id="a_edge17_Node000002_Node000005"><a xlink:title=" ">
<path fill="none" stroke="#63b8ff" d="M219.19,-187.46C264.64,-192.43 327.98,-200.05 383.25,-209.17 394.97,-211.1 407.47,-213.47 419.36,-215.87"/>
<polygon fill="#63b8ff" stroke="#63b8ff" points="418.54,-219.28 429.04,-217.86 419.95,-212.42 418.54,-219.28"/>
</a>
</g>
</g>
<!-- Node6 -->
<g id="Node000006" class="node">
<title>Node6</title>
<g id="a_Node000006"><a xlink:href="class_async_client.html#aefecfa0c75c8c1b32104115e93739087" target="_top" xlink:title=" ">
<polygon fill="white" stroke="#666666" points="383.25,-150.17 254.75,-150.17 254.75,-130.17 383.25,-130.17 383.25,-150.17"/>
<text xml:space="preserve" text-anchor="middle" x="319" y="-136.67" font-family="Helvetica,sans-Serif" font-size="10.00">AsyncClient::AsyncClient</text>
</a>
</g>
</g>
<!-- Node2&#45;&gt;Node6 -->
<g id="edge5_Node000002_Node000006" class="edge">
<title>Node2&#45;&gt;Node6</title>
<g id="a_edge5_Node000002_Node000006"><a xlink:title=" ">
<path fill="none" stroke="#63b8ff" d="M198.6,-170.72C219.13,-165.46 244.24,-159.04 266.12,-153.44"/>
<polygon fill="#63b8ff" stroke="#63b8ff" points="266.94,-156.85 275.76,-150.98 265.2,-150.06 266.94,-156.85"/>
</a>
</g>
</g>
<!-- Node4 -->
<g id="Node000004" class="node">
<title>Node4</title>
<g id="a_Node000004"><a xlink:href="class_async_client.html#aff6a2fbf261b25e1fcd35c11cce348a5" target="_top" xlink:title=" ">
<polygon fill="white" stroke="#666666" points="669.5,-219.17 572.5,-219.17 572.5,-187.17 669.5,-187.17 669.5,-219.17"/>
<text xml:space="preserve" text-anchor="start" x="580.5" y="-205.67" font-family="Helvetica,sans-Serif" font-size="10.00">AsyncClient::_free</text>
<text xml:space="preserve" text-anchor="middle" x="621" y="-193.67" font-family="Helvetica,sans-Serif" font-size="10.00">_closed_slot</text>
</a>
</g>
</g>
<!-- Node3&#45;&gt;Node4 -->
<g id="edge3_Node000003_Node000004" class="edge">
<title>Node3&#45;&gt;Node4</title>
<g id="a_edge3_Node000003_Node000004"><a xlink:title=" ">
<path fill="none" stroke="#63b8ff" d="M357.17,-238.62C400.19,-249.08 472.89,-261.7 533.5,-247.17 551.78,-242.79 570.55,-233.87 585.92,-225.2"/>
<polygon fill="#63b8ff" stroke="#63b8ff" points="587.33,-228.43 594.18,-220.35 583.79,-222.39 587.33,-228.43"/>
</a>
</g>
</g>
<!-- Node3&#45;&gt;Node5 -->
<g id="edge4_Node000003_Node000005" class="edge">
<title>Node3&#45;&gt;Node5</title>
<g id="a_edge4_Node000003_Node000005"><a xlink:title=" ">
<path fill="none" stroke="#63b8ff" d="M376.09,-228.17C390.08,-228.17 405.09,-228.17 419.09,-228.17"/>
<polygon fill="#63b8ff" stroke="#63b8ff" points="419.05,-231.67 429.05,-228.17 419.05,-224.67 419.05,-231.67"/>
</a>
</g>
</g>
<!-- Node6&#45;&gt;Node1 -->
<g id="edge13_Node000006_Node000001" class="edge">
<title>Node6&#45;&gt;Node1</title>
<g id="a_edge13_Node000006_Node000001"><a xlink:title=" ">
<path fill="none" stroke="#63b8ff" d="M254.38,-140.17C198.2,-140.17 118.02,-140.17 70.38,-140.17"/>
<polygon fill="#63b8ff" stroke="#63b8ff" points="70.52,-136.67 60.52,-140.17 70.52,-143.67 70.52,-136.67"/>
</a>
</g>
</g>
<!-- Node6&#45;&gt;Node5 -->
<g id="edge16_Node000006_Node000005" class="edge">
<title>Node6&#45;&gt;Node5</title>
<g id="a_edge16_Node000006_Node000005"><a xlink:title=" ">
<path fill="none" stroke="#63b8ff" d="M344.14,-150.62C356.38,-156.44 371.17,-164.3 383.25,-173.17 401.49,-186.56 400.03,-197.23 419.25,-209.17 421.54,-210.59 423.94,-211.92 426.42,-213.16"/>
<polygon fill="#63b8ff" stroke="#63b8ff" points="424.92,-216.32 435.48,-217.16 427.75,-209.92 424.92,-216.32"/>
</a>
</g>
</g>
<!-- Node7 -->
<g id="Node000007" class="node">
<title>Node7</title>
<g id="a_Node000007"><a xlink:href="class_async_client.html#ab0422e5254ea4fbac9f87188a018ebc4" target="_top" xlink:title=" ">
<polygon fill="white" stroke="#666666" points="533.5,-200.17 419.25,-200.17 419.25,-168.17 533.5,-168.17 533.5,-200.17"/>
<text xml:space="preserve" text-anchor="start" x="427.25" y="-186.67" font-family="Helvetica,sans-Serif" font-size="10.00">AsyncClient::_allocate</text>
<text xml:space="preserve" text-anchor="middle" x="476.38" y="-174.67" font-family="Helvetica,sans-Serif" font-size="10.00">_closed_slot</text>
</a>
</g>
</g>
<!-- Node6&#45;&gt;Node7 -->
<g id="edge6_Node000006_Node000007" class="edge">
<title>Node6&#45;&gt;Node7</title>
<g id="a_edge6_Node000006_Node000007"><a xlink:title=" ">
<path fill="none" stroke="#63b8ff" d="M356.82,-150.6C372.13,-154.93 390.4,-160.1 407.96,-165.08"/>
<polygon fill="#63b8ff" stroke="#63b8ff" points="406.73,-168.37 417.31,-167.72 408.64,-161.63 406.73,-168.37"/>
</a>
</g>
</g>
<!-- Node8 -->
<g id="Node000008" class="node">
<title>Node8</title>
<g id="a_Node000008"><a xlink:href="class_async_client.html#a98ff872bc84919f006f3bb8a249ed36d" target="_top" xlink:title=" ">
<polygon fill="#fff0f0" stroke="red" points="528.25,-150.17 424.5,-150.17 424.5,-130.17 528.25,-130.17 528.25,-150.17"/>
<text xml:space="preserve" text-anchor="middle" x="476.38" y="-136.67" font-family="Helvetica,sans-Serif" font-size="10.00">AsyncClient::_close</text>
</a>
</g>
</g>
<!-- Node6&#45;&gt;Node8 -->
<g id="edge7_Node000006_Node000008" class="edge">
<title>Node6&#45;&gt;Node8</title>
<g id="a_edge7_Node000006_Node000008"><a xlink:title=" ">
<path fill="none" stroke="#63b8ff" d="M383.65,-140.17C393.4,-140.17 403.47,-140.17 413.19,-140.17"/>
<polygon fill="#63b8ff" stroke="#63b8ff" points="412.9,-143.67 422.9,-140.17 412.9,-136.67 412.9,-143.67"/>
</a>
</g>
</g>
<!-- Node16 -->
<g id="Node000016" class="node">
<title>Node16</title>
<g id="a_Node000016"><a xlink:href="_async_t_c_p_8cpp.html#a61ff9f7f886bbbbcdc1daca453828934" target="_top" xlink:title=" ">
<polygon fill="white" stroke="#666666" points="506.12,-112.17 446.62,-112.17 446.62,-92.17 506.12,-92.17 506.12,-112.17"/>
<text xml:space="preserve" text-anchor="middle" x="476.38" y="-98.67" font-family="Helvetica,sans-Serif" font-size="10.00">_tcp_error</text>
</a>
</g>
</g>
<!-- Node6&#45;&gt;Node16 -->
<g id="edge9_Node000006_Node000016" class="edge">
<title>Node6&#45;&gt;Node16</title>
<g id="a_edge9_Node000006_Node000016"><a xlink:title=" ">
<path fill="none" stroke="#63b8ff" d="M362.87,-129.68C385.51,-124.15 413.13,-117.39 435.33,-111.96"/>
<polygon fill="#63b8ff" stroke="#63b8ff" points="436.04,-115.39 444.92,-109.61 434.38,-108.59 436.04,-115.39"/>
</a>
</g>
</g>
<!-- Node18 -->
<g id="Node000018" class="node">
<title>Node18</title>
<g id="a_Node000018"><a xlink:href="_async_t_c_p_8cpp.html#ad4b2c6c935c211eef5884f25a950e445" target="_top" xlink:title=" ">
<polygon fill="white" stroke="#666666" points="503.88,-74.17 448.88,-74.17 448.88,-54.17 503.88,-54.17 503.88,-74.17"/>
<text xml:space="preserve" text-anchor="middle" x="476.38" y="-60.67" font-family="Helvetica,sans-Serif" font-size="10.00">_tcp_poll</text>
</a>
</g>
</g>
<!-- Node6&#45;&gt;Node18 -->
<g id="edge11_Node000006_Node000018" class="edge">
<title>Node6&#45;&gt;Node18</title>
<g id="a_edge11_Node000006_Node000018"><a xlink:title=" ">
<path fill="none" stroke="#63b8ff" d="M335.99,-129.68C355.19,-117.4 388.64,-96.98 419.25,-83.17 425.2,-80.48 431.64,-77.96 437.97,-75.69"/>
<polygon fill="#63b8ff" stroke="#63b8ff" points="438.66,-79.16 446.98,-72.61 436.39,-72.54 438.66,-79.16"/>
</a>
</g>
</g>
<!-- Node19 -->
<g id="Node000019" class="node">
<title>Node19</title>
<g id="a_Node000019"><a xlink:href="_async_t_c_p_8cpp.html#a0b47280aff638ec9b80f7a87dfe54ea6" target="_top" xlink:title=" ">
<polygon fill="white" stroke="#666666" points="505.75,-36.17 447,-36.17 447,-16.17 505.75,-16.17 505.75,-36.17"/>
<text xml:space="preserve" text-anchor="middle" x="476.38" y="-22.67" font-family="Helvetica,sans-Serif" font-size="10.00">_tcp_sent</text>
</a>
</g>
</g>
<!-- Node6&#45;&gt;Node19 -->
<g id="edge14_Node000006_Node000019" class="edge">
<title>Node6&#45;&gt;Node19</title>
<g id="a_edge14_Node000006_Node000019"><a xlink:title=" ">
<path fill="none" stroke="#63b8ff" d="M328.16,-129.78C343.84,-110.48 380.09,-68.91 419.25,-45.17 424.47,-42 430.29,-39.28 436.15,-36.97"/>
<polygon fill="#63b8ff" stroke="#63b8ff" points="436.94,-40.41 445.19,-33.76 434.6,-33.81 436.94,-40.41"/>
</a>
</g>
</g>
<!-- Node8&#45;&gt;Node4 -->
<g id="edge8_Node000008_Node000004" class="edge">
<title>Node8&#45;&gt;Node4</title>
<g id="a_edge8_Node000008_Node000004"><a xlink:title=" ">
<path fill="none" stroke="#63b8ff" d="M510.91,-150.64C518.42,-153.23 526.29,-156.13 533.5,-159.17 549.12,-165.74 565.82,-173.94 580.34,-181.48"/>
<polygon fill="#63b8ff" stroke="#63b8ff" points="578.66,-184.55 589.14,-186.11 581.92,-178.36 578.66,-184.55"/>
</a>
</g>
</g>
<!-- Node16&#45;&gt;Node17 -->
<g id="edge10_Node000016_Node000017" class="edge">
<title>Node16&#45;&gt;Node17</title>
<g id="a_edge10_Node000016_Node000017"><a xlink:title=" ">
<path fill="none" stroke="#63b8ff" d="M506.39,-92.88C515.16,-89.93 524.77,-86.55 533.5,-83.17 551.52,-76.18 571.27,-67.57 587.35,-60.32"/>
<polygon fill="#63b8ff" stroke="#63b8ff" points="588.79,-63.51 596.44,-56.18 585.89,-57.14 588.79,-63.51"/>
</a>
</g>
</g>
<!-- Node18&#45;&gt;Node17 -->
<g id="edge12_Node000018_Node000017" class="edge">
<title>Node18&#45;&gt;Node17</title>
<g id="a_edge12_Node000018_Node000017"><a xlink:title=" ">
<path fill="none" stroke="#63b8ff" d="M504.2,-60.59C519.38,-58.57 539.02,-55.96 557.81,-53.45"/>
<polygon fill="#63b8ff" stroke="#63b8ff" points="558.09,-56.95 567.54,-52.16 557.17,-50.01 558.09,-56.95"/>
</a>
</g>
</g>
<!-- Node19&#45;&gt;Node17 -->
<g id="edge15_Node000019_Node000017" class="edge">
<title>Node19&#45;&gt;Node17</title>
<g id="a_edge15_Node000019_Node000017"><a xlink:title=" ">
<path fill="none" stroke="#63b8ff" d="M506.24,-30.01C521.13,-32 539.91,-34.5 557.89,-36.89"/>
<polygon fill="#63b8ff" stroke="#63b8ff" points="557.37,-40.36 567.74,-38.21 558.29,-33.42 557.37,-40.36"/>
</a>
</g>
</g>
</g>
</svg>
