<?xml version="1.0" encoding="UTF-8" standalone="no"?>
<!DOCTYPE svg PUBLIC "-//W3C//DTD SVG 1.1//EN"
 "http://www.w3.org/Graphics/SVG/1.1/DTD/svg11.dtd">
<!-- Generated by graphviz version 14.1.2 (20260124.0452)
 -->
<!-- Title: _tcp_abort_api Pages: 1 -->
<svg width="495pt" height="66pt"
 viewBox="0.00 0.00 495.00 66.00" xmlns="http://www.w3.org/2000/svg" xmlns:xlink="http://www.w3.org/1999/xlink">
<g id="graph0" class="graph" transform="scale(1 1) rotate(0) translate(4 62)">
<title>_tcp_abort_api</title>
<!-- Node1 -->
<g id="Node000001" class="node">
<title>Node1</title>
<g id="a_Node000001"><a xlink:title=" ">
<polygon fill="#999999" stroke="#666666" points="487,-39 407.25,-39 407.25,-19 487,-19 487,-39"/>
<text xml:space="preserve" text-anchor="middle" x="447.12" y="-25.5" font-family="Helvetica,sans-Serif" font-size="10.00">_tcp_abort_api</text>
</a>
</g>
</g>
<!-- Node2 -->
<g id="Node000002" class="node">
<title>Node2</title>
<g id="a_Node000002"><a xlink:href="_async_t_c_p_8cpp.html#a3e2474b46f6a3f01db216511d2bcfc4c" target="_top" xlink:title=" ">
<polygon fill="white" stroke="#666666" points="371.25,-39 309.5,-39 309.5,-19 371.25,-19 371.25,-39"/>
<text xml:space="preserve" text-anchor="middle" x="340.38" y="-25.5" font-family="Helvetica,sans-Serif" font-size="10.00">_tcp_abort</text>
</a>
</g>
</g>
<!-- Node1&#45;&gt;Node2 -->
<g id="edge1_Node000001_Node000002" class="edge">
<title>Node1&#45;&gt;Node2</title>
<g id="a_edge1_Node000001_Node000002"><a xlink:title=" ">
<path fill="none" stroke="#63b8ff" d="M395.46,-29C387.35,-29 379.18,-29 371.73,-29"/>
<polygon fill="#63b8ff" stroke="#63b8ff" points="395.31,-32.5 405.31,-29 395.31,-25.5 395.31,-32.5"/>
</a>
</g>
</g>
<!-- Node3 -->
<g id="Node000003" class="node">
<title>Node3</title>
<g id="a_Node000003"><a xlink:href="class_async_client.html#a09e777ff005d8e0f81166e704dc14979" target="_top" xlink:title=" ">
<polygon fill="white" stroke="#666666" points="273.5,-58 176.5,-58 176.5,-38 273.5,-38 273.5,-58"/>
<text xml:space="preserve" text-anchor="middle" x="225" y="-44.5" font-family="Helvetica,sans-Serif" font-size="10.00">AsyncClient::abort</text>
</a>
</g>
</g>
<!-- Node2&#45;&gt;Node3 -->
<g id="edge2_Node000002_Node000003" class="edge">
<title>Node2&#45;&gt;Node3</title>
<g id="a_edge2_Node000002_Node000003"><a xlink:title=" ">
<path fill="none" stroke="#63b8ff" d="M298.1,-35.92C290.2,-37.24 281.87,-38.64 273.78,-39.99"/>
<polygon fill="#63b8ff" stroke="#63b8ff" points="298.51,-39.4 307.8,-34.29 297.36,-32.49 298.51,-39.4"/>
</a>
</g>
</g>
<!-- Node33 -->
<g id="Node000033" class="node">
<title>Node33</title>
<g id="a_Node000033"><a xlink:href="class_async_server.html#ab4e3997502c28dca6ca0703fea8b2122" target="_top" xlink:title=" ">
<polygon fill="white" stroke="#666666" points="272,-20 178,-20 178,0 272,0 272,-20"/>
<text xml:space="preserve" text-anchor="middle" x="225" y="-6.5" font-family="Helvetica,sans-Serif" font-size="10.00">AsyncServer::end</text>
</a>
</g>
</g>
<!-- Node2&#45;&gt;Node33 -->
<g id="edge4_Node000002_Node000033" class="edge">
<title>Node2&#45;&gt;Node33</title>
<g id="a_edge4_Node000002_Node000033"><a xlink:title=" ">
<path fill="none" stroke="#63b8ff" d="M297.97,-22.06C289.68,-20.67 280.92,-19.2 272.48,-17.79"/>
<polygon fill="#63b8ff" stroke="#63b8ff" points="297.36,-25.51 307.8,-23.71 298.51,-18.6 297.36,-25.51"/>
</a>
</g>
</g>
<!-- Node4 -->
<g id="Node000004" class="node">
<title>Node4</title>
<g id="a_Node000004"><a xlink:href="class_async_client.html#a98ff872bc84919f006f3bb8a249ed36d" target="_top" xlink:title=" ">
<polygon fill="#fff0f0" stroke="red" points="122.12,-58 18.38,-58 18.38,-38 122.12,-38 122.12,-58"/>
<text xml:space="preserve" text-anchor="middle" x="70.25" y="-44.5" font-family="Helvetica,sans-Serif" font-size="10.00">AsyncClient::_close</text>
</a>
</g>
</g>
<!-- Node3&#45;&gt;Node4 -->
<g id="edge3_Node000003_Node000004" class="edge">
<title>Node3&#45;&gt;Node4</title>
<g id="a_edge3_Node000003_Node000004"><a xlink:title=" ">
<path fill="none" stroke="#63b8ff" d="M164.62,-48C150.69,-48 135.96,-48 122.43,-48"/>
<polygon fill="#63b8ff" stroke="#63b8ff" points="164.57,-51.5 174.57,-48 164.57,-44.5 164.57,-51.5"/>
</a>
</g>
</g>
<!-- Node34 -->
<g id="Node000034" class="node">
<title>Node34</title>
<g id="a_Node000034"><a xlink:href="class_async_server.html#a615b3df090db6c2d451601bf9c295bc8" target="_top" xlink:title=" ">
<polygon fill="white" stroke="#666666" points="140.5,-20 0,-20 0,0 140.5,0 140.5,-20"/>
<text xml:space="preserve" text-anchor="middle" x="70.25" y="-6.5" font-family="Helvetica,sans-Serif" font-size="10.00">AsyncServer::~AsyncServer</text>
</a>
</g>
</g>
<!-- Node33&#45;&gt;Node34 -->
<g id="edge5_Node000033_Node000034" class="edge">
<title>Node33&#45;&gt;Node34</title>
<g id="a_edge5_Node000033_Node000034"><a xlink:title=" ">
<path fill="none" stroke="#63b8ff" d="M166.52,-10C158.1,-10 149.36,-10 140.73,-10"/>
<polygon fill="#63b8ff" stroke="#63b8ff" points="166.24,-13.5 176.24,-10 166.24,-6.5 166.24,-13.5"/>
</a>
</g>
</g>
</g>
</svg>
