<?xml version="1.0" encoding="UTF-8" standalone="no"?>
<!DOCTYPE svg PUBLIC "-//W3C//DTD SVG 1.1//EN"
 "http://www.w3.org/Graphics/SVG/1.1/DTD/svg11.dtd">
<!-- Generated by graphviz version 14.1.2 (20260124.0452)
 -->
<!-- Title: _async_service_task Pages: 1 -->
<!--zoomable 560 -->

<svg id="main" version="1.1" xmlns="http://www.w3.org/2000/svg" xmlns:xlink="http://www.w3.org/1999/xlink" xml:space="preserve" onload="init(evt)">

<style type="text/css"><![CDATA[
.node, .edge {opacity: 0.7;}
.node.selected, .edge.selected {opacity: 1;}
.edge:hover path { stroke: red; }
.edge:hover polygon { stroke: red; fill: red; }
]]></style>

<defs>
  <circle id="rim" cx="0" cy="0" r="7"/>
  <circle id="rim2" cx="0" cy="0" r="3.5"/>
  <g id="zoomPlus">
    <use xlink:href="#rim" fill="#404040"><set attributeName="fill" to="#808080" begin="zoomplus.mouseover" end="zoomplus.mouseout"/></use>
    <path d="M-4,0h8M0,-4v8" fill="none" stroke="white" stroke-width="1.5" pointer-events="none"/>
  </g>
  <g id="zoomMin">
    <use xlink:href="#rim" fill="#404040"><set attributeName="fill" to="#808080" begin="zoomminus.mouseover" end="zoomminus.mouseout"/></use>
    <path d="M-4,0h8" fill="none" stroke="white" stroke-width="1.5" pointer-events="none"/>
  </g>
  <g id="arrowUp" transform="translate(30 24)">
    <use xlink:href="#rim"/>
    <path pointer-events="none" fill="none" stroke="white" stroke-width="1.5" d="M0,-3.0v7 M-2.5,-0.5L0,-3.0L2.5,-0.5"/>
  </g>
  <g id="arrowRight" transform="rotate(90) translate(36 -43)">
    <use xlink:href="#rim"/>
    <path pointer-events="none" fill="none" stroke="white" stroke-width="1.5" d="M0,-3.0v7 M-2.5,-0.5L0,-3.0L2.5,-0.5"/>
  </g>
  <g id="arrowDown" transform="rotate(180) translate(-30 -48)">
    <use xlink:href="#rim"/>
    <path pointer-events="none" fill="none" stroke="white" stroke-width="1.5" d="M0,-3.0v7 M-2.5,-0.5L0,-3.0L2.5,-0.5"/>
  </g>
  <g id="arrowLeft" transform="rotate(270) translate(-36 17)">
    <use xlink:href="#rim"/>
    <path pointer-events="none" fill="none" stroke="white" stroke-width="1.5" d="M0,-3.0v7 M-2.5,-0.5L0,-3.0L2.5,-0.5"/>
  </g>
  <g id="resetDef">
    <use xlink:href="#rim2" fill="#404040"><set attributeName="fill" to="#808080" begin="reset.mouseover" end="reset.mouseout"/></use>
  </g>
</defs>
<script type="application/ecmascript">
var viewWidth = 732;
var viewHeight = 560;
var sectionId = 'dynsection-1';
</script>
<script type="application/ecmascript" xlink:href="svg.min.js"/>
<svg id="graph" class="graph">
<g id="viewport">
<title>_async_service_task</title>
<!-- Node1 -->
<g id="Node000001" class="node">
<title>Node1</title>
<g id="a_Node000001"><a xlink:title=" ">
<polygon fill="#999999" stroke="#666666" points="108.25,-337 0,-337 0,-317 108.25,-317 108.25,-337"/>
<text xml:space="preserve" text-anchor="middle" x="54.12" y="-323.5" font-family="Helvetica,sans-Serif" font-size="10.00">_async_service_task</text>
</a>
</g>
</g>
<!-- Node2 -->
<g id="Node000002" class="node">
<title>Node2</title>
<g id="a_Node000002"><a xlink:href="_async_t_c_p_8cpp.html#a8a4bbbc30b10628f96b77b68e1f66620" target="_top" xlink:title=" ">
<polygon fill="white" stroke="#666666" points="247.25,-356 151.75,-356 151.75,-336 247.25,-336 247.25,-356"/>
<text xml:space="preserve" text-anchor="middle" x="199.5" y="-342.5" font-family="Helvetica,sans-Serif" font-size="10.00">_get_async_event</text>
</a>
</g>
</g>
<!-- Node1&#45;&gt;Node2 -->
<g id="edge1_Node000001_Node000002" class="edge">
<title>Node1&#45;&gt;Node2</title>
<g id="a_edge1_Node000001_Node000002"><a xlink:title=" ">
<path fill="none" stroke="#63b8ff" d="M108.51,-334.07C118.92,-335.45 129.88,-336.91 140.43,-338.3"/>
<polygon fill="#63b8ff" stroke="#63b8ff" points="139.8,-341.75 150.17,-339.6 140.72,-334.81 139.8,-341.75"/>
</a>
</g>
</g>
<!-- Node3 -->
<g id="Node000003" class="node">
<title>Node3</title>
<g id="a_Node000003"><a xlink:href="_async_t_c_p_8cpp.html#ac4030e968c0e4c0fcbe7a9b4502854c1" target="_top" xlink:title=" ">
<polygon fill="white" stroke="#666666" points="254.75,-318 144.25,-318 144.25,-298 254.75,-298 254.75,-318"/>
<text xml:space="preserve" text-anchor="middle" x="199.5" y="-304.5" font-family="Helvetica,sans-Serif" font-size="10.00">_handle_async_event</text>
</a>
</g>
</g>
<!-- Node1&#45;&gt;Node3 -->
<g id="edge3_Node000001_Node000003" class="edge">
<title>Node1&#45;&gt;Node3</title>
<g id="a_edge3_Node000001_Node000003"><a xlink:title=" ">
<path fill="none" stroke="#63b8ff" d="M108.51,-319.93C116.41,-318.88 124.63,-317.79 132.75,-316.71"/>
<polygon fill="#63b8ff" stroke="#63b8ff" points="133.16,-320.19 142.61,-315.41 132.24,-313.25 133.16,-320.19"/>
</a>
</g>
</g>
<!-- Node2&#45;&gt;Node2 -->
<g id="edge2_Node000002_Node000002" class="edge">
<title>Node2&#45;&gt;Node2</title>
<g id="a_edge2_Node000002_Node000002"><a xlink:title=" ">
<path fill="none" stroke="#63b8ff" d="M176.4,-356.34C166.53,-364.98 174.23,-374 199.5,-374 213.32,-374 221.88,-371.3 225.19,-367.44"/>
<polygon fill="#63b8ff" stroke="#63b8ff" points="228.63,-366.75 222.94,-357.81 221.81,-368.35 228.63,-366.75"/>
</a>
</g>
</g>
<!-- Node4 -->
<g id="Node000004" class="node">
<title>Node4</title>
<g id="a_Node000004"><a xlink:href="_async_t_c_p_8cpp.html#aa1f9a74c3df252a9b6159bd188b81ef2" target="_top" xlink:title=" ">
<polygon fill="white" stroke="#666666" points="423.75,-523 293.75,-523 293.75,-503 423.75,-503 423.75,-523"/>
<text xml:space="preserve" text-anchor="middle" x="358.75" y="-509.5" font-family="Helvetica,sans-Serif" font-size="10.00">_remove_events_with_arg</text>
</a>
</g>
</g>
<!-- Node3&#45;&gt;Node4 -->
<g id="edge4_Node000003_Node000004" class="edge">
<title>Node3&#45;&gt;Node4</title>
<g id="a_edge4_Node000003_Node000004"><a xlink:title=" ">
<path fill="none" stroke="#63b8ff" d="M243.99,-318.43C248.01,-320.74 251.71,-323.56 254.75,-327 304.99,-383.93 238.81,-438.62 290.75,-494 291.35,-494.64 291.98,-495.27 292.62,-495.87"/>
<polygon fill="#63b8ff" stroke="#63b8ff" points="290.52,-498.67 300.67,-501.71 294.63,-493.01 290.52,-498.67"/>
</a>
</g>
</g>
<!-- Node5 -->
<g id="Node000005" class="node">
<title>Node5</title>
<g id="a_Node000005"><a xlink:href="class_async_server.html#a68b4c50c0bf8f5109b9981a87d5d34e5" target="_top" xlink:title=" ">
<polygon fill="white" stroke="#666666" points="425.62,-485 291.88,-485 291.88,-465 425.62,-465 425.62,-485"/>
<text xml:space="preserve" text-anchor="middle" x="358.75" y="-471.5" font-family="Helvetica,sans-Serif" font-size="10.00">AsyncServer::_s_accepted</text>
</a>
</g>
</g>
<!-- Node3&#45;&gt;Node5 -->
<g id="edge5_Node000003_Node000005" class="edge">
<title>Node3&#45;&gt;Node5</title>
<g id="a_edge5_Node000003_Node000005"><a xlink:title=" ">
<path fill="none" stroke="#63b8ff" d="M242.75,-318.41C247.16,-320.73 251.28,-323.55 254.75,-327 288.54,-360.6 261.88,-390.08 290.75,-428 300.26,-440.49 314.04,-450.95 326.63,-458.81"/>
<polygon fill="#63b8ff" stroke="#63b8ff" points="324.67,-461.72 335.07,-463.78 328.22,-455.69 324.67,-461.72"/>
</a>
</g>
</g>
<!-- Node8 -->
<g id="Node000008" class="node">
<title>Node8</title>
<g id="a_Node000008"><a xlink:href="class_async_client.html#ac4cdb0990fa85f03da98d1c98b1f8611" target="_top" xlink:title=" ">
<polygon fill="white" stroke="#666666" points="426.75,-362 290.75,-362 290.75,-342 426.75,-342 426.75,-362"/>
<text xml:space="preserve" text-anchor="middle" x="358.75" y="-348.5" font-family="Helvetica,sans-Serif" font-size="10.00">AsyncClient::_s_connected</text>
</a>
</g>
</g>
<!-- Node3&#45;&gt;Node8 -->
<g id="edge8_Node000003_Node000008" class="edge">
<title>Node3&#45;&gt;Node8</title>
<g id="a_edge8_Node000003_Node000008"><a xlink:title=" ">
<path fill="none" stroke="#63b8ff" d="M237.77,-318.43C259.23,-324.43 286.44,-332.05 309.52,-338.51"/>
<polygon fill="#63b8ff" stroke="#63b8ff" points="308.45,-341.84 319.02,-341.16 310.33,-335.1 308.45,-341.84"/>
</a>
</g>
</g>
<!-- Node29 -->
<g id="Node000029" class="node">
<title>Node29</title>
<g id="a_Node000029"><a xlink:href="class_async_client.html#a3f629c9072da183879a9c67878b374cc" target="_top" xlink:title=" ">
<polygon fill="white" stroke="#666666" points="412.12,-324 305.38,-324 305.38,-292 412.12,-292 412.12,-324"/>
<text xml:space="preserve" text-anchor="start" x="313.38" y="-310.5" font-family="Helvetica,sans-Serif" font-size="10.00">AsyncClient::_s_dns</text>
<text xml:space="preserve" text-anchor="middle" x="358.75" y="-298.5" font-family="Helvetica,sans-Serif" font-size="10.00">_found</text>
</a>
</g>
</g>
<!-- Node3&#45;&gt;Node29 -->
<g id="edge14_Node000003_Node000029" class="edge">
<title>Node3&#45;&gt;Node29</title>
<g id="a_edge14_Node000003_Node000029"><a xlink:title=" ">
<path fill="none" stroke="#63b8ff" d="M255.06,-308C267.42,-308 280.66,-308 293.38,-308"/>
<polygon fill="#63b8ff" stroke="#63b8ff" points="293.37,-311.5 303.37,-308 293.37,-304.5 293.37,-311.5"/>
</a>
</g>
</g>
<!-- Node39 -->
<g id="Node000039" class="node">
<title>Node39</title>
<g id="a_Node000039"><a xlink:href="class_async_client.html#a9ff634e3b1237eab65178b007326367e" target="_top" xlink:title=" ">
<polygon fill="white" stroke="#666666" points="414,-236 303.5,-236 303.5,-216 414,-216 414,-236"/>
<text xml:space="preserve" text-anchor="middle" x="358.75" y="-222.5" font-family="Helvetica,sans-Serif" font-size="10.00">AsyncClient::_s_error</text>
</a>
</g>
</g>
<!-- Node3&#45;&gt;Node39 -->
<g id="edge17_Node000003_Node000039" class="edge">
<title>Node3&#45;&gt;Node39</title>
<g id="a_edge17_Node000003_Node000039"><a xlink:title=" ">
<path fill="none" stroke="#63b8ff" d="M212.53,-297.61C229.1,-283.78 260.36,-259.41 290.75,-245 294.46,-243.24 298.37,-241.61 302.36,-240.11"/>
<polygon fill="#63b8ff" stroke="#63b8ff" points="303.27,-243.5 311.59,-236.93 300.99,-236.88 303.27,-243.5"/>
</a>
</g>
</g>
<!-- Node41 -->
<g id="Node000041" class="node">
<title>Node41</title>
<g id="a_Node000041"><a xlink:href="class_async_client.html#a6a69c67e1a22660766affb64700c2276" target="_top" xlink:title=" ">
<polygon fill="white" stroke="#666666" points="409.5,-274 308,-274 308,-254 409.5,-254 409.5,-274"/>
<text xml:space="preserve" text-anchor="middle" x="358.75" y="-260.5" font-family="Helvetica,sans-Serif" font-size="10.00">AsyncClient::_s_fin</text>
</a>
</g>
</g>
<!-- Node3&#45;&gt;Node41 -->
<g id="edge20_Node000003_Node000041" class="edge">
<title>Node3&#45;&gt;Node41</title>
<g id="a_edge20_Node000003_Node000041"><a xlink:title=" ">
<path fill="none" stroke="#63b8ff" d="M237.77,-297.57C259.23,-291.57 286.44,-283.95 309.52,-277.49"/>
<polygon fill="#63b8ff" stroke="#63b8ff" points="310.33,-280.9 319.02,-274.84 308.45,-274.16 310.33,-280.9"/>
</a>
</g>
</g>
<!-- Node43 -->
<g id="Node000043" class="node">
<title>Node43</title>
<g id="a_Node000043"><a xlink:href="class_async_client.html#abe187c005c73fe6c0c94e1b3b20b55de" target="_top" xlink:title=" ">
<polygon fill="white" stroke="#666666" points="411.75,-173 305.75,-173 305.75,-153 411.75,-153 411.75,-173"/>
<text xml:space="preserve" text-anchor="middle" x="358.75" y="-159.5" font-family="Helvetica,sans-Serif" font-size="10.00">AsyncClient::_s_poll</text>
</a>
</g>
</g>
<!-- Node3&#45;&gt;Node43 -->
<g id="edge25_Node000003_Node000043" class="edge">
<title>Node3&#45;&gt;Node43</title>
<g id="a_edge25_Node000003_Node000043"><a xlink:title=" ">
<path fill="none" stroke="#63b8ff" d="M208.19,-297.75C222.88,-278.55 256.55,-236.47 290.75,-207 302.61,-196.78 316.98,-187.04 329.37,-179.34"/>
<polygon fill="#63b8ff" stroke="#63b8ff" points="331.18,-182.34 337.92,-174.17 327.55,-176.35 331.18,-182.34"/>
</a>
</g>
</g>
<!-- Node45 -->
<g id="Node000045" class="node">
<title>Node45</title>
<g id="a_Node000045"><a xlink:href="class_async_client.html#af8136d3085c8948078a131bfb9430ec6" target="_top" xlink:title=" ">
<polygon fill="white" stroke="#666666" points="413.62,-84 303.88,-84 303.88,-64 413.62,-64 413.62,-84"/>
<text xml:space="preserve" text-anchor="middle" x="358.75" y="-70.5" font-family="Helvetica,sans-Serif" font-size="10.00">AsyncClient::_s_recv</text>
</a>
</g>
</g>
<!-- Node3&#45;&gt;Node45 -->
<g id="edge30_Node000003_Node000045" class="edge">
<title>Node3&#45;&gt;Node45</title>
<g id="a_edge30_Node000003_Node000045"><a xlink:title=" ">
<path fill="none" stroke="#63b8ff" d="M204.95,-297.85C216.83,-271.27 251.13,-197.97 290.75,-144 304.93,-124.69 324.07,-105.19 338.27,-91.7"/>
<polygon fill="#63b8ff" stroke="#63b8ff" points="340.35,-94.55 345.27,-85.16 335.57,-89.43 340.35,-94.55"/>
</a>
</g>
</g>
<!-- Node49 -->
<g id="Node000049" class="node">
<title>Node49</title>
<g id="a_Node000049"><a xlink:href="class_async_client.html#a8e507d50b4cc3ae8e90f2e1c1ebf5f61" target="_top" xlink:title=" ">
<polygon fill="white" stroke="#666666" points="413.62,-419 303.88,-419 303.88,-399 413.62,-399 413.62,-419"/>
<text xml:space="preserve" text-anchor="middle" x="358.75" y="-405.5" font-family="Helvetica,sans-Serif" font-size="10.00">AsyncClient::_s_sent</text>
</a>
</g>
</g>
<!-- Node3&#45;&gt;Node49 -->
<g id="edge35_Node000003_Node000049" class="edge">
<title>Node3&#45;&gt;Node49</title>
<g id="a_edge35_Node000003_Node000049"><a xlink:title=" ">
<path fill="none" stroke="#63b8ff" d="M238.87,-318.44C244.45,-320.79 249.93,-323.62 254.75,-327 275.45,-341.49 271.43,-354.71 290.75,-371 300.93,-379.58 313.32,-387.23 324.66,-393.38"/>
<polygon fill="#63b8ff" stroke="#63b8ff" points="322.86,-396.39 333.35,-397.89 326.09,-390.18 322.86,-396.39"/>
</a>
</g>
</g>
<!-- Node6 -->
<g id="Node000006" class="node">
<title>Node6</title>
<g id="a_Node000006"><a xlink:href="class_async_server.html#ae12ee87206611e09ed5e644c6baf1c96" target="_top" xlink:title=" ">
<polygon fill="white" stroke="#666666" points="591.62,-514 468.38,-514 468.38,-494 591.62,-494 591.62,-514"/>
<text xml:space="preserve" text-anchor="middle" x="530" y="-500.5" font-family="Helvetica,sans-Serif" font-size="10.00">AsyncServer::_accepted</text>
</a>
</g>
</g>
<!-- Node5&#45;&gt;Node6 -->
<g id="edge6_Node000005_Node000006" class="edge">
<title>Node5&#45;&gt;Node6</title>
<g id="a_edge6_Node000005_Node000006"><a xlink:title=" ">
<path fill="none" stroke="#63b8ff" d="M420.85,-485.47C432.48,-487.46 444.74,-489.56 456.68,-491.61"/>
<polygon fill="#63b8ff" stroke="#63b8ff" points="456.05,-495.05 466.49,-493.29 457.23,-488.15 456.05,-495.05"/>
</a>
</g>
</g>
<!-- Node7 -->
<g id="Node000007" class="node">
<title>Node7</title>
<g id="a_Node000007"><a xlink:href="class_async_server.html#aa6357ae6df41ef23d53d2a73759f5016" target="_top" xlink:title=" ">
<polygon fill="white" stroke="#666666" points="597.25,-552 462.75,-552 462.75,-532 597.25,-532 597.25,-552"/>
<text xml:space="preserve" text-anchor="middle" x="530" y="-538.5" font-family="Helvetica,sans-Serif" font-size="10.00">AsyncServer::AsyncServer</text>
</a>
</g>
</g>
<!-- Node5&#45;&gt;Node7 -->
<g id="edge7_Node000005_Node000007" class="edge">
<title>Node5&#45;&gt;Node7</title>
<g id="a_edge7_Node000005_Node000007"><a xlink:title=" ">
<path fill="none" stroke="#63b8ff" d="M406.1,-485.5C413.2,-487.85 420.31,-490.67 426.75,-494 445,-503.44 444.51,-513.54 462.75,-523 465.99,-524.68 469.4,-526.23 472.89,-527.66"/>
<polygon fill="#63b8ff" stroke="#63b8ff" points="471.51,-530.88 482.1,-531.05 473.92,-524.31 471.51,-530.88"/>
</a>
</g>
</g>
<!-- Node9 -->
<g id="Node000009" class="node">
<title>Node9</title>
<g id="a_Node000009"><a xlink:href="class_async_client.html#a045a3529852917ea1d4dfff5d9c3ba90" target="_top" xlink:title=" ">
<polygon fill="white" stroke="#666666" points="592.75,-362 467.25,-362 467.25,-342 592.75,-342 592.75,-362"/>
<text xml:space="preserve" text-anchor="middle" x="530" y="-348.5" font-family="Helvetica,sans-Serif" font-size="10.00">AsyncClient::_connected</text>
</a>
</g>
</g>
<!-- Node8&#45;&gt;Node9 -->
<g id="edge9_Node000008_Node000009" class="edge">
<title>Node8&#45;&gt;Node9</title>
<g id="a_edge9_Node000008_Node000009"><a xlink:title=" ">
<path fill="none" stroke="#63b8ff" d="M427.13,-352C436.43,-352 446.03,-352 455.44,-352"/>
<polygon fill="#63b8ff" stroke="#63b8ff" points="455.28,-355.5 465.28,-352 455.28,-348.5 455.28,-355.5"/>
</a>
</g>
</g>
<!-- Node10 -->
<g id="Node000010" class="node">
<title>Node10</title>
<g id="a_Node000010"><a xlink:href="class_async_client.html#ac0c28dd08517243bc6d64d32f982a3cc" target="_top" xlink:title=" ">
<polygon fill="white" stroke="#666666" points="724.25,-248 633.25,-248 633.25,-228 724.25,-228 724.25,-248"/>
<text xml:space="preserve" text-anchor="middle" x="678.75" y="-234.5" font-family="Helvetica,sans-Serif" font-size="10.00">AsyncClient::pcb</text>
</a>
</g>
</g>
<!-- Node8&#45;&gt;Node10 -->
<g id="edge13_Node000008_Node000010" class="edge">
<title>Node8&#45;&gt;Node10</title>
<g id="a_edge13_Node000008_Node000010"><a xlink:title=" ">
<path fill="none" stroke="#63b8ff" d="M384.24,-362.42C429.58,-379.97 528.24,-409.89 597.25,-371 639.8,-347.02 662.42,-290.47 672.02,-259.39"/>
<polygon fill="#63b8ff" stroke="#63b8ff" points="675.34,-260.53 674.76,-249.95 668.62,-258.58 675.34,-260.53"/>
</a>
</g>
</g>
<!-- Node11 -->
<g id="Node000011" class="node">
<title>Node11</title>
<g id="a_Node000011"><a xlink:href="class_async_client.html#aefecfa0c75c8c1b32104115e93739087" target="_top" xlink:title=" ">
<polygon fill="#fff0f0" stroke="red" points="594.25,-248 465.75,-248 465.75,-228 594.25,-228 594.25,-248"/>
<text xml:space="preserve" text-anchor="middle" x="530" y="-234.5" font-family="Helvetica,sans-Serif" font-size="10.00">AsyncClient::AsyncClient</text>
</a>
</g>
</g>
<!-- Node8&#45;&gt;Node11 -->
<g id="edge11_Node000008_Node000011" class="edge">
<title>Node8&#45;&gt;Node11</title>
<g id="a_edge11_Node000008_Node000011"><a xlink:title=" ">
<path fill="none" stroke="#63b8ff" d="M413.14,-341.56C418.05,-339.25 422.69,-336.44 426.75,-333 455.28,-308.85 434.26,-281.19 462.75,-257 463.88,-256.04 465.05,-255.13 466.27,-254.27"/>
<polygon fill="#63b8ff" stroke="#63b8ff" points="468,-257.31 474.9,-249.26 464.49,-251.25 468,-257.31"/>
</a>
</g>
</g>
<!-- Node9&#45;&gt;Node10 -->
<g id="edge10_Node000009_Node000010" class="edge">
<title>Node9&#45;&gt;Node10</title>
<g id="a_edge10_Node000009_Node000010"><a xlink:title=" ">
<path fill="none" stroke="#63b8ff" d="M579.86,-341.6C585.96,-339.27 591.92,-336.44 597.25,-333 627.23,-313.63 652.02,-279.73 665.85,-258.1"/>
<polygon fill="#63b8ff" stroke="#63b8ff" points="668.82,-259.95 671.1,-249.6 662.86,-256.27 668.82,-259.95"/>
</a>
</g>
</g>
<!-- Node11&#45;&gt;Node10 -->
<g id="edge12_Node000011_Node000010" class="edge">
<title>Node11&#45;&gt;Node10</title>
<g id="a_edge12_Node000011_Node000010"><a xlink:title=" ">
<path fill="none" stroke="#63b8ff" d="M594.51,-238C603.56,-238 612.81,-238 621.71,-238"/>
<polygon fill="#63b8ff" stroke="#63b8ff" points="621.63,-241.5 631.63,-238 621.63,-234.5 621.63,-241.5"/>
</a>
</g>
</g>
<!-- Node29&#45;&gt;Node11 -->
<g id="edge16_Node000029_Node000011" class="edge">
<title>Node29&#45;&gt;Node11</title>
<g id="a_edge16_Node000029_Node000011"><a xlink:title=" ">
<path fill="none" stroke="#63b8ff" d="M408.38,-291.63C414.68,-288.99 420.95,-286.1 426.75,-283 444.15,-273.69 445,-265.63 462.75,-257 466.25,-255.3 469.92,-253.73 473.67,-252.27"/>
<polygon fill="#63b8ff" stroke="#63b8ff" points="474.68,-255.63 482.95,-249 472.35,-249.03 474.68,-255.63"/>
</a>
</g>
</g>
<!-- Node30 -->
<g id="Node000030" class="node">
<title>Node30</title>
<g id="a_Node000030"><a xlink:href="class_async_client.html#a19dc40652b5b003288e10529ee169b65" target="_top" xlink:title=" ">
<polygon fill="#fff0f0" stroke="red" points="592.75,-324 467.25,-324 467.25,-304 592.75,-304 592.75,-324"/>
<text xml:space="preserve" text-anchor="middle" x="530" y="-310.5" font-family="Helvetica,sans-Serif" font-size="10.00">AsyncClient::_dns_found</text>
</a>
</g>
</g>
<!-- Node29&#45;&gt;Node30 -->
<g id="edge15_Node000029_Node000030" class="edge">
<title>Node29&#45;&gt;Node30</title>
<g id="a_edge15_Node000029_Node000030"><a xlink:title=" ">
<path fill="none" stroke="#63b8ff" d="M412.37,-309.87C426,-310.35 440.93,-310.88 455.42,-311.39"/>
<polygon fill="#63b8ff" stroke="#63b8ff" points="455.28,-314.89 465.4,-311.75 455.53,-307.89 455.28,-314.89"/>
</a>
</g>
</g>
<!-- Node39&#45;&gt;Node11 -->
<g id="edge19_Node000039_Node000011" class="edge">
<title>Node39&#45;&gt;Node11</title>
<g id="a_edge19_Node000039_Node000011"><a xlink:title=" ">
<path fill="none" stroke="#63b8ff" d="M414.23,-229.86C426.99,-230.77 440.8,-231.75 454.27,-232.7"/>
<polygon fill="#63b8ff" stroke="#63b8ff" points="453.75,-236.17 463.97,-233.39 454.24,-229.19 453.75,-236.17"/>
</a>
</g>
</g>
<!-- Node40 -->
<g id="Node000040" class="node">
<title>Node40</title>
<g id="a_Node000040"><a xlink:href="class_async_client.html#a5145b1cfe1a49ba9a066eee404013835" target="_top" xlink:title=" ">
<polygon fill="#fff0f0" stroke="red" points="580,-172 480,-172 480,-152 580,-152 580,-172"/>
<text xml:space="preserve" text-anchor="middle" x="530" y="-158.5" font-family="Helvetica,sans-Serif" font-size="10.00">AsyncClient::_error</text>
</a>
</g>
</g>
<!-- Node39&#45;&gt;Node40 -->
<g id="edge18_Node000039_Node000040" class="edge">
<title>Node39&#45;&gt;Node40</title>
<g id="a_edge18_Node000039_Node000040"><a xlink:title=" ">
<path fill="none" stroke="#63b8ff" d="M385.93,-215.64C406.71,-207.47 436.53,-195.84 462.75,-186 471.21,-182.83 480.29,-179.49 488.95,-176.34"/>
<polygon fill="#63b8ff" stroke="#63b8ff" points="489.96,-179.7 498.17,-173 487.58,-173.12 489.96,-179.7"/>
</a>
</g>
</g>
<!-- Node41&#45;&gt;Node10 -->
<g id="edge24_Node000041_Node000010" class="edge">
<title>Node41&#45;&gt;Node10</title>
<g id="a_edge24_Node000041_Node000010"><a xlink:title=" ">
<path fill="none" stroke="#63b8ff" d="M404.88,-253.55C412.36,-251.16 419.89,-248.32 426.75,-245 444.51,-236.4 443.97,-225.07 462.75,-219 520.31,-200.39 590.78,-212.81 634.98,-224.52"/>
<polygon fill="#63b8ff" stroke="#63b8ff" points="633.87,-227.85 644.45,-227.14 635.74,-221.1 633.87,-227.85"/>
</a>
</g>
</g>
<!-- Node41&#45;&gt;Node11 -->
<g id="edge23_Node000041_Node000011" class="edge">
<title>Node41&#45;&gt;Node11</title>
<g id="a_edge23_Node000041_Node000011"><a xlink:title=" ">
<path fill="none" stroke="#63b8ff" d="M409.62,-256.34C423.52,-254.2 438.95,-251.83 453.97,-249.53"/>
<polygon fill="#63b8ff" stroke="#63b8ff" points="454.49,-252.99 463.84,-248.01 453.43,-246.07 454.49,-252.99"/>
</a>
</g>
</g>
<!-- Node42 -->
<g id="Node000042" class="node">
<title>Node42</title>
<g id="a_Node000042"><a xlink:href="class_async_client.html#afe295b6c577021c8946eb266ac41df51" target="_top" xlink:title=" ">
<polygon fill="#fff0f0" stroke="red" points="575.5,-286 484.5,-286 484.5,-266 575.5,-266 575.5,-286"/>
<text xml:space="preserve" text-anchor="middle" x="530" y="-272.5" font-family="Helvetica,sans-Serif" font-size="10.00">AsyncClient::_fin</text>
</a>
</g>
</g>
<!-- Node41&#45;&gt;Node42 -->
<g id="edge21_Node000041_Node000042" class="edge">
<title>Node41&#45;&gt;Node42</title>
<g id="a_edge21_Node000041_Node000042"><a xlink:title=" ">
<path fill="none" stroke="#63b8ff" d="M409.62,-267.54C429.43,-268.94 452.33,-270.56 472.74,-272.01"/>
<polygon fill="#63b8ff" stroke="#63b8ff" points="472.37,-275.49 482.59,-272.71 472.87,-268.51 472.37,-275.49"/>
</a>
</g>
</g>
<!-- Node42&#45;&gt;Node10 -->
<g id="edge22_Node000042_Node000010" class="edge">
<title>Node42&#45;&gt;Node10</title>
<g id="a_edge22_Node000042_Node000010"><a xlink:title=" ">
<path fill="none" stroke="#63b8ff" d="M571.49,-265.52C588.49,-261.11 608.46,-255.94 626.48,-251.28"/>
<polygon fill="#63b8ff" stroke="#63b8ff" points="627.13,-254.72 635.93,-248.83 625.37,-247.95 627.13,-254.72"/>
</a>
</g>
</g>
<!-- Node43&#45;&gt;Node10 -->
<g id="edge29_Node000043_Node000010" class="edge">
<title>Node43&#45;&gt;Node10</title>
<g id="a_edge29_Node000043_Node000010"><a xlink:title=" ">
<path fill="none" stroke="#63b8ff" d="M386.18,-152.59C431.67,-136.41 526.67,-110.29 597.25,-143 630.29,-158.31 654.7,-194.6 667.53,-217.63"/>
<polygon fill="#63b8ff" stroke="#63b8ff" points="664.4,-219.2 672.18,-226.39 670.59,-215.92 664.4,-219.2"/>
</a>
</g>
</g>
<!-- Node43&#45;&gt;Node11 -->
<g id="edge28_Node000043_Node000011" class="edge">
<title>Node43&#45;&gt;Node11</title>
<g id="a_edge28_Node000043_Node000011"><a xlink:title=" ">
<path fill="none" stroke="#63b8ff" d="M383.28,-173.43C412.38,-186.32 462.11,-208.36 495.26,-223.05"/>
<polygon fill="#63b8ff" stroke="#63b8ff" points="493.45,-226.07 504.01,-226.93 496.29,-219.68 493.45,-226.07"/>
</a>
</g>
</g>
<!-- Node44 -->
<g id="Node000044" class="node">
<title>Node44</title>
<g id="a_Node000044"><a xlink:href="class_async_client.html#a383d1cb7d684d328362caa5eafc92ca2" target="_top" xlink:title=" ">
<polygon fill="#fff0f0" stroke="red" points="577.75,-96 482.25,-96 482.25,-76 577.75,-76 577.75,-96"/>
<text xml:space="preserve" text-anchor="middle" x="530" y="-82.5" font-family="Helvetica,sans-Serif" font-size="10.00">AsyncClient::_poll</text>
</a>
</g>
</g>
<!-- Node43&#45;&gt;Node44 -->
<g id="edge26_Node000043_Node000044" class="edge">
<title>Node43&#45;&gt;Node44</title>
<g id="a_edge26_Node000043_Node000044"><a xlink:title=" ">
<path fill="none" stroke="#63b8ff" d="M378.01,-152.7C398.34,-141.45 432.34,-123.27 462.75,-110 470.46,-106.64 478.8,-103.35 486.89,-100.34"/>
<polygon fill="#63b8ff" stroke="#63b8ff" points="488.04,-103.64 496.25,-96.94 485.65,-97.06 488.04,-103.64"/>
</a>
</g>
</g>
<!-- Node44&#45;&gt;Node10 -->
<g id="edge27_Node000044_Node000010" class="edge">
<title>Node44&#45;&gt;Node10</title>
<g id="a_edge27_Node000044_Node000010"><a xlink:title=" ">
<path fill="none" stroke="#63b8ff" d="M572.81,-96.39C581.46,-99.8 590.11,-104.24 597.25,-110 633.37,-139.12 657.99,-189.05 669.77,-217.17"/>
<polygon fill="#63b8ff" stroke="#63b8ff" points="666.48,-218.38 673.46,-226.35 672.98,-215.77 666.48,-218.38"/>
</a>
</g>
</g>
<!-- Node45&#45;&gt;Node10 -->
<g id="edge34_Node000045_Node000010" class="edge">
<title>Node45&#45;&gt;Node10</title>
<g id="a_edge34_Node000045_Node000010"><a xlink:title=" ">
<path fill="none" stroke="#63b8ff" d="M388.4,-63.62C435.93,-48.34 532.29,-25.78 597.25,-67 650.02,-100.48 668.83,-178.8 675,-216.7"/>
<polygon fill="#63b8ff" stroke="#63b8ff" points="671.51,-217 676.42,-226.39 678.43,-215.99 671.51,-217"/>
</a>
</g>
</g>
<!-- Node45&#45;&gt;Node11 -->
<g id="edge33_Node000045_Node000011" class="edge">
<title>Node45&#45;&gt;Node11</title>
<g id="a_edge33_Node000045_Node000011"><a xlink:title=" ">
<path fill="none" stroke="#63b8ff" d="M369.45,-84.13C394.17,-109.93 457.93,-176.44 462.75,-181 477.3,-194.76 494.45,-209.48 507.66,-220.51"/>
<polygon fill="#63b8ff" stroke="#63b8ff" points="505.39,-223.18 515.32,-226.86 509.86,-217.79 505.39,-223.18"/>
</a>
</g>
</g>
<!-- Node46 -->
<g id="Node000046" class="node">
<title>Node46</title>
<g id="a_Node000046"><a xlink:href="class_async_client.html#af9a0368be4f98f49f252b1989b84b5a3" target="_top" xlink:title=" ">
<polygon fill="#fff0f0" stroke="red" points="579.62,-20 480.38,-20 480.38,0 579.62,0 579.62,-20"/>
<text xml:space="preserve" text-anchor="middle" x="530" y="-6.5" font-family="Helvetica,sans-Serif" font-size="10.00">AsyncClient::_recv</text>
</a>
</g>
</g>
<!-- Node45&#45;&gt;Node46 -->
<g id="edge31_Node000045_Node000046" class="edge">
<title>Node45&#45;&gt;Node46</title>
<g id="a_edge31_Node000045_Node000046"><a xlink:title=" ">
<path fill="none" stroke="#63b8ff" d="M385.93,-63.64C406.71,-55.47 436.53,-43.84 462.75,-34 471.21,-30.83 480.29,-27.49 488.95,-24.34"/>
<polygon fill="#63b8ff" stroke="#63b8ff" points="489.96,-27.7 498.17,-21 487.58,-21.12 489.96,-27.7"/>
</a>
</g>
</g>
<!-- Node46&#45;&gt;Node10 -->
<g id="edge32_Node000046_Node000010" class="edge">
<title>Node46&#45;&gt;Node10</title>
<g id="a_edge32_Node000046_Node000010"><a xlink:title=" ">
<path fill="none" stroke="#63b8ff" d="M576.06,-20.44C583.81,-23.79 591.29,-28.2 597.25,-34 650.08,-85.36 669.04,-175.64 675.15,-216.65"/>
<polygon fill="#63b8ff" stroke="#63b8ff" points="671.66,-216.98 676.47,-226.42 678.59,-216.03 671.66,-216.98"/>
</a>
</g>
</g>
<!-- Node49&#45;&gt;Node10 -->
<g id="edge39_Node000049_Node000010" class="edge">
<title>Node49&#45;&gt;Node10</title>
<g id="a_edge39_Node000049_Node000010"><a xlink:title=" ">
<path fill="none" stroke="#63b8ff" d="M409.15,-419.44C460.49,-427.43 541.03,-431.67 597.25,-395 645.22,-363.71 666.06,-294.39 673.81,-259.27"/>
<polygon fill="#63b8ff" stroke="#63b8ff" points="677.16,-260.38 675.73,-249.88 670.3,-258.98 677.16,-260.38"/>
</a>
</g>
</g>
<!-- Node49&#45;&gt;Node11 -->
<g id="edge38_Node000049_Node000011" class="edge">
<title>Node49&#45;&gt;Node11</title>
<g id="a_edge38_Node000049_Node000011"><a xlink:title=" ">
<path fill="none" stroke="#63b8ff" d="M388.18,-398.63C401.56,-392.45 416.74,-383.37 426.75,-371 460.18,-329.7 424.68,-294.07 462.75,-257 463.63,-256.14 464.54,-255.33 465.49,-254.55"/>
<polygon fill="#63b8ff" stroke="#63b8ff" points="467.05,-257.71 473.48,-249.28 463.2,-251.86 467.05,-257.71"/>
</a>
</g>
</g>
<!-- Node50 -->
<g id="Node000050" class="node">
<title>Node50</title>
<g id="a_Node000050"><a xlink:href="class_async_client.html#a6a6efff5757dd06483709456e2f637b4" target="_top" xlink:title=" ">
<polygon fill="white" stroke="#666666" points="579.62,-476 480.38,-476 480.38,-456 579.62,-456 579.62,-476"/>
<text xml:space="preserve" text-anchor="middle" x="530" y="-462.5" font-family="Helvetica,sans-Serif" font-size="10.00">AsyncClient::_sent</text>
</a>
</g>
</g>
<!-- Node49&#45;&gt;Node50 -->
<g id="edge36_Node000049_Node000050" class="edge">
<title>Node49&#45;&gt;Node50</title>
<g id="a_edge36_Node000049_Node000050"><a xlink:title=" ">
<path fill="none" stroke="#63b8ff" d="M390.79,-419.45C417.91,-428.59 457.49,-441.92 487.35,-451.97"/>
<polygon fill="#63b8ff" stroke="#63b8ff" points="485.84,-455.16 496.43,-455.03 488.07,-448.52 485.84,-455.16"/>
</a>
</g>
</g>
<!-- Node50&#45;&gt;Node10 -->
<g id="edge37_Node000050_Node000010" class="edge">
<title>Node50&#45;&gt;Node10</title>
<g id="a_edge37_Node000050_Node000010"><a xlink:title=" ">
<path fill="none" stroke="#63b8ff" d="M576.06,-455.56C583.81,-452.21 591.29,-447.8 597.25,-442 650.08,-390.64 669.04,-300.36 675.15,-259.35"/>
<polygon fill="#63b8ff" stroke="#63b8ff" points="678.59,-259.97 676.47,-249.58 671.66,-259.02 678.59,-259.97"/>
</a>
</g>
</g>
</g>
</svg>

<g id="navigator" transform="translate(0 0)" fill="#404254">
  <rect fill="#f2f5e9" fill-opacity="0.5" stroke="#606060" stroke-width=".5" x="0" y="0" width="60" height="60"/>
  <use id="zoomplus" xlink:href="#zoomPlus" x="17" y="9" onmousedown="handleZoom(evt,'in')"/>
  <use id="zoomminus" xlink:href="#zoomMin" x="42" y="9" onmousedown="handleZoom(evt,'out')"/>
  <use id="reset" xlink:href="#resetDef" x="30" y="36" onmousedown="handleReset()"/>
   <use id="arrowup" xlink:href="#arrowUp" x="0" y="0" onmousedown="handlePan(0,-1)"/>
  <use id="arrowright" xlink:href="#arrowRight" x="0" y="0" onmousedown="handlePan(1,0)"/>
  <use id="arrowdown" xlink:href="#arrowDown" x="0" y="0" onmousedown="handlePan(0,1)"/>
  <use id="arrowleft" xlink:href="#arrowLeft" x="0" y="0" onmousedown="handlePan(-1,0)"/>
</g>
<svg viewBox="0 0 15 15" width="100%" height="30px" preserveAspectRatio="xMaxYMin meet">
 <g id="arrow_out" transform="scale(0.3 0.3)">
  <a xlink:href="_async_t_c_p_8cpp_a87baf4ac2987dd94502c4586a97e552f_cgraph_org.svg" target="_base">
   <rect id="button" ry="5" rx="5" y="6" x="6" height="38" width="38"
        fill="#f2f5e9" fill-opacity="0.5" stroke="#606060" stroke-width="1.0"/>
   <path id="arrow"
     d="M 11.500037,31.436501 C 11.940474,20.09759 22.043105,11.32322 32.158766,21.979434 L 37.068811,17.246167 C 37.068811,17.246167 37.088388,32 37.088388,32 L 22.160133,31.978069 C 22.160133,31.978069 26.997745,27.140456 26.997745,27.140456 C 18.528582,18.264221 13.291696,25.230495 11.500037,31.436501 z"
     style="fill:#404040;"/>
  </a>
 </g>
</svg>

<style type='text/css'>
<![CDATA[
[data-mouse-over-selected='false'] { opacity: 0.7; }
[data-mouse-over-selected='true']  { opacity: 1.0; }
]]>
</style>
<script type="application/ecmascript"><![CDATA[
document.addEventListener('DOMContentLoaded', (event) => {
  highlightEdges();
  highlightAdjacentNodes();
});
]]></script>
</svg>
