<?xml version="1.0" encoding="UTF-8" standalone="no"?>
<!DOCTYPE svg PUBLIC "-//W3C//DTD SVG 1.1//EN"
 "http://www.w3.org/Graphics/SVG/1.1/DTD/svg11.dtd">
<!-- Generated by graphviz version 14.1.2 (20260124.0452)
 -->
<!-- Title: _tcp_recved Pages: 1 -->
<svg width="566pt" height="142pt"
 viewBox="0.00 0.00 566.00 142.00" xmlns="http://www.w3.org/2000/svg" xmlns:xlink="http://www.w3.org/1999/xlink">
<g id="graph0" class="graph" transform="scale(1 1) rotate(0) translate(4 138)">
<title>_tcp_recved</title>
<!-- Node1 -->
<g id="Node000001" class="node">
<title>Node1</title>
<g id="a_Node000001"><a xlink:title=" ">
<polygon fill="#999999" stroke="#666666" points="557.5,-77 488.25,-77 488.25,-57 557.5,-57 557.5,-77"/>
<text xml:space="preserve" text-anchor="middle" x="522.88" y="-63.5" font-family="Helvetica,sans-Serif" font-size="10.00">_tcp_recved</text>
</a>
</g>
</g>
<!-- Node2 -->
<g id="Node000002" class="node">
<title>Node2</title>
<g id="a_Node000002"><a xlink:href="class_async_client.html#af9a0368be4f98f49f252b1989b84b5a3" target="_top" xlink:title=" ">
<polygon fill="white" stroke="#666666" points="441,-134 341.75,-134 341.75,-114 441,-114 441,-134"/>
<text xml:space="preserve" text-anchor="middle" x="391.38" y="-120.5" font-family="Helvetica,sans-Serif" font-size="10.00">AsyncClient::_recv</text>
</a>
</g>
</g>
<!-- Node1&#45;&gt;Node2 -->
<g id="edge1_Node000001_Node000002" class="edge">
<title>Node1&#45;&gt;Node2</title>
<g id="a_edge1_Node000001_Node000002"><a xlink:title=" ">
<path fill="none" stroke="#63b8ff" d="M494.98,-83.26C482.3,-90.51 466.8,-98.79 452.25,-105 444.93,-108.13 436.91,-111.01 429.2,-113.55"/>
<polygon fill="#63b8ff" stroke="#63b8ff" points="496.7,-86.3 503.58,-78.24 493.17,-80.26 496.7,-86.3"/>
</a>
</g>
</g>
<!-- Node13 -->
<g id="Node000013" class="node">
<title>Node13</title>
<g id="a_Node000013"><a xlink:href="class_async_client.html#ac2c939c5af9cb1fb2c693ddb98725ecf" target="_top" xlink:title=" ">
<polygon fill="white" stroke="#666666" points="436.88,-96 345.88,-96 345.88,-76 436.88,-76 436.88,-96"/>
<text xml:space="preserve" text-anchor="middle" x="391.38" y="-82.5" font-family="Helvetica,sans-Serif" font-size="10.00">AsyncClient::ack</text>
</a>
</g>
</g>
<!-- Node1&#45;&gt;Node13 -->
<g id="edge4_Node000001_Node000013" class="edge">
<title>Node1&#45;&gt;Node13</title>
<g id="a_edge4_Node000001_Node000013"><a xlink:title=" ">
<path fill="none" stroke="#63b8ff" d="M476.84,-73.61C463.9,-75.51 449.8,-77.57 436.9,-79.47"/>
<polygon fill="#63b8ff" stroke="#63b8ff" points="476.97,-77.13 486.35,-72.21 475.95,-70.2 476.97,-77.13"/>
</a>
</g>
</g>
<!-- Node14 -->
<g id="Node000014" class="node">
<title>Node14</title>
<g id="a_Node000014"><a xlink:href="class_async_client.html#aba43fb75a7a60b08f3d3f943e0d1c332" target="_top" xlink:title=" ">
<polygon fill="white" stroke="#666666" points="452.25,-58 330.5,-58 330.5,-38 452.25,-38 452.25,-58"/>
<text xml:space="preserve" text-anchor="middle" x="391.38" y="-44.5" font-family="Helvetica,sans-Serif" font-size="10.00">AsyncClient::ackPacket</text>
</a>
</g>
</g>
<!-- Node1&#45;&gt;Node14 -->
<g id="edge5_Node000001_Node000014" class="edge">
<title>Node1&#45;&gt;Node14</title>
<g id="a_edge5_Node000001_Node000014"><a xlink:title=" ">
<path fill="none" stroke="#63b8ff" d="M476.54,-60.35C468.84,-59.22 460.73,-58.03 452.72,-56.85"/>
<polygon fill="#63b8ff" stroke="#63b8ff" points="475.95,-63.8 486.35,-61.79 476.97,-56.87 475.95,-63.8"/>
</a>
</g>
</g>
<!-- Node15 -->
<g id="Node000015" class="node">
<title>Node15</title>
<g id="a_Node000015"><a xlink:href="class_async_client.html#a0305fe0b036257c03829ceaa5cc43361" target="_top" xlink:title="close connection">
<polygon fill="white" stroke="#666666" points="440.62,-20 342.12,-20 342.12,0 440.62,0 440.62,-20"/>
<text xml:space="preserve" text-anchor="middle" x="391.38" y="-6.5" font-family="Helvetica,sans-Serif" font-size="10.00">AsyncClient::close</text>
</a>
</g>
</g>
<!-- Node1&#45;&gt;Node15 -->
<g id="edge6_Node000001_Node000015" class="edge">
<title>Node1&#45;&gt;Node15</title>
<g id="a_edge6_Node000001_Node000015"><a xlink:title=" ">
<path fill="none" stroke="#63b8ff" d="M494.98,-50.74C482.3,-43.49 466.8,-35.21 452.25,-29 444.93,-25.87 436.91,-22.99 429.2,-20.45"/>
<polygon fill="#63b8ff" stroke="#63b8ff" points="493.17,-53.74 503.58,-55.76 496.7,-47.7 493.17,-53.74"/>
</a>
</g>
</g>
<!-- Node3 -->
<g id="Node000003" class="node">
<title>Node3</title>
<g id="a_Node000003"><a xlink:href="class_async_client.html#af8136d3085c8948078a131bfb9430ec6" target="_top" xlink:title=" ">
<polygon fill="white" stroke="#666666" points="294.5,-134 184.75,-134 184.75,-114 294.5,-114 294.5,-134"/>
<text xml:space="preserve" text-anchor="middle" x="239.62" y="-120.5" font-family="Helvetica,sans-Serif" font-size="10.00">AsyncClient::_s_recv</text>
</a>
</g>
</g>
<!-- Node2&#45;&gt;Node3 -->
<g id="edge2_Node000002_Node000003" class="edge">
<title>Node2&#45;&gt;Node3</title>
<g id="a_edge2_Node000002_Node000003"><a xlink:title=" ">
<path fill="none" stroke="#63b8ff" d="M329.96,-124C318.38,-124 306.32,-124 294.95,-124"/>
<polygon fill="#63b8ff" stroke="#63b8ff" points="329.83,-127.5 339.83,-124 329.83,-120.5 329.83,-127.5"/>
</a>
</g>
</g>
<!-- Node4 -->
<g id="Node000004" class="node">
<title>Node4</title>
<g id="a_Node000004"><a xlink:href="_async_t_c_p_8cpp.html#ac4030e968c0e4c0fcbe7a9b4502854c1" target="_top" xlink:title=" ">
<polygon fill="#fff0f0" stroke="red" points="129.62,-134 19.12,-134 19.12,-114 129.62,-114 129.62,-134"/>
<text xml:space="preserve" text-anchor="middle" x="74.38" y="-120.5" font-family="Helvetica,sans-Serif" font-size="10.00">_handle_async_event</text>
</a>
</g>
</g>
<!-- Node3&#45;&gt;Node4 -->
<g id="edge3_Node000003_Node000004" class="edge">
<title>Node3&#45;&gt;Node4</title>
<g id="a_edge3_Node000003_Node000004"><a xlink:title=" ">
<path fill="none" stroke="#63b8ff" d="M173.02,-124C158.76,-124 143.83,-124 130.05,-124"/>
<polygon fill="#63b8ff" stroke="#63b8ff" points="172.75,-127.5 182.75,-124 172.75,-120.5 172.75,-127.5"/>
</a>
</g>
</g>
<!-- Node16 -->
<g id="Node000016" class="node">
<title>Node16</title>
<g id="a_Node000016"><a xlink:href="class_async_client.html#a4bed4e925817d1b918af2ce43fb0859e" target="_top" xlink:title=" ">
<polygon fill="white" stroke="#666666" points="286.62,-20 192.62,-20 192.62,0 286.62,0 286.62,-20"/>
<text xml:space="preserve" text-anchor="middle" x="239.62" y="-6.5" font-family="Helvetica,sans-Serif" font-size="10.00">AsyncClient::stop</text>
</a>
</g>
</g>
<!-- Node15&#45;&gt;Node16 -->
<g id="edge7_Node000015_Node000016" class="edge">
<title>Node15&#45;&gt;Node16</title>
<g id="a_edge7_Node000015_Node000016"><a xlink:title=" ">
<path fill="none" stroke="#63b8ff" d="M330.37,-10C315.91,-10 300.69,-10 286.96,-10"/>
<polygon fill="#63b8ff" stroke="#63b8ff" points="330.24,-13.5 340.24,-10 330.24,-6.5 330.24,-13.5"/>
</a>
</g>
</g>
<!-- Node17 -->
<g id="Node000017" class="node">
<title>Node17</title>
<g id="a_Node000017"><a xlink:href="class_async_telnet.html#a346009ece13de398b1e461f674bbd215" target="_top" xlink:title=" ">
<polygon fill="white" stroke="#666666" points="148.75,-20 0,-20 0,0 148.75,0 148.75,-20"/>
<text xml:space="preserve" text-anchor="middle" x="74.38" y="-6.5" font-family="Helvetica,sans-Serif" font-size="10.00">AsyncTelnet::disconnectClient</text>
</a>
</g>
</g>
<!-- Node16&#45;&gt;Node17 -->
<g id="edge8_Node000016_Node000017" class="edge">
<title>Node16&#45;&gt;Node17</title>
<g id="a_edge8_Node000016_Node000017"><a xlink:title=" ">
<path fill="none" stroke="#63b8ff" d="M180.91,-10C170.59,-10 159.71,-10 149.01,-10"/>
<polygon fill="#63b8ff" stroke="#63b8ff" points="180.77,-13.5 190.77,-10 180.77,-6.5 180.77,-13.5"/>
</a>
</g>
</g>
</g>
</svg>
