<?xml version="1.0" encoding="UTF-8" standalone="no"?>
<!DOCTYPE svg PUBLIC "-//W3C//DTD SVG 1.1//EN"
 "http://www.w3.org/Graphics/SVG/1.1/DTD/svg11.dtd">
<!-- Generated by graphviz version 14.1.2 (20260124.0452)
 -->
<!-- Title: _start_async_task Pages: 1 -->
<!--zoomable 344 -->

<svg id="main" version="1.1" xmlns="http://www.w3.org/2000/svg" xmlns:xlink="http://www.w3.org/1999/xlink" xml:space="preserve" onload="init(evt)">

<style type="text/css"><![CDATA[
.node, .edge {opacity: 0.7;}
.node.selected, .edge.selected {opacity: 1;}
.edge:hover path { stroke: red; }
.edge:hover polygon { stroke: red; fill: red; }
]]></style>

<defs>
  <circle id="rim" cx="0" cy="0" r="7"/>
  <circle id="rim2" cx="0" cy="0" r="3.5"/>
  <g id="zoomPlus">
    <use xlink:href="#rim" fill="#404040"><set attributeName="fill" to="#808080" begin="zoomplus.mouseover" end="zoomplus.mouseout"/></use>
    <path d="M-4,0h8M0,-4v8" fill="none" stroke="white" stroke-width="1.5" pointer-events="none"/>
  </g>
  <g id="zoomMin">
    <use xlink:href="#rim" fill="#404040"><set attributeName="fill" to="#808080" begin="zoomminus.mouseover" end="zoomminus.mouseout"/></use>
    <path d="M-4,0h8" fill="none" stroke="white" stroke-width="1.5" pointer-events="none"/>
  </g>
  <g id="arrowUp" transform="translate(30 24)">
    <use xlink:href="#rim"/>
    <path pointer-events="none" fill="none" stroke="white" stroke-width="1.5" d="M0,-3.0v7 M-2.5,-0.5L0,-3.0L2.5,-0.5"/>
  </g>
  <g id="arrowRight" transform="rotate(90) translate(36 -43)">
    <use xlink:href="#rim"/>
    <path pointer-events="none" fill="none" stroke="white" stroke-width="1.5" d="M0,-3.0v7 M-2.5,-0.5L0,-3.0L2.5,-0.5"/>
  </g>
  <g id="arrowDown" transform="rotate(180) translate(-30 -48)">
    <use xlink:href="#rim"/>
    <path pointer-events="none" fill="none" stroke="white" stroke-width="1.5" d="M0,-3.0v7 M-2.5,-0.5L0,-3.0L2.5,-0.5"/>
  </g>
  <g id="arrowLeft" transform="rotate(270) translate(-36 17)">
    <use xlink:href="#rim"/>
    <path pointer-events="none" fill="none" stroke="white" stroke-width="1.5" d="M0,-3.0v7 M-2.5,-0.5L0,-3.0L2.5,-0.5"/>
  </g>
  <g id="resetDef">
    <use xlink:href="#rim2" fill="#404040"><set attributeName="fill" to="#808080" begin="reset.mouseover" end="reset.mouseout"/></use>
  </g>
</defs>
<script type="application/ecmascript">
var viewWidth = 599;
var viewHeight = 344;
var sectionId = 'dynsection-11';
</script>
<script type="application/ecmascript" xlink:href="svg.min.js"/>
<svg id="graph" class="graph">
<g id="viewport">
<title>_start_async_task</title>
<!-- Node1 -->
<g id="Node000001" class="node">
<title>Node1</title>
<g id="a_Node000001"><a xlink:title=" ">
<polygon fill="#999999" stroke="#666666" points="96.25,-153 0,-153 0,-133 96.25,-133 96.25,-153"/>
<text xml:space="preserve" text-anchor="middle" x="48.12" y="-139.5" font-family="Helvetica,sans-Serif" font-size="10.00">_start_async_task</text>
</a>
</g>
</g>
<!-- Node2 -->
<g id="Node000002" class="node">
<title>Node2</title>
<g id="a_Node000002"><a xlink:href="_async_t_c_p_8cpp.html#a87baf4ac2987dd94502c4586a97e552f" target="_top" xlink:title=" ">
<polygon fill="white" stroke="#666666" points="256.25,-191 148,-191 148,-171 256.25,-171 256.25,-191"/>
<text xml:space="preserve" text-anchor="middle" x="202.12" y="-177.5" font-family="Helvetica,sans-Serif" font-size="10.00">_async_service_task</text>
</a>
</g>
</g>
<!-- Node1&#45;&gt;Node2 -->
<g id="edge1_Node000001_Node000002" class="edge">
<title>Node1&#45;&gt;Node2</title>
<g id="a_edge1_Node000001_Node000002"><a xlink:title=" ">
<path fill="none" stroke="#63b8ff" d="M91.06,-153.48C108.76,-157.91 129.55,-163.11 148.28,-167.79"/>
<polygon fill="#63b8ff" stroke="#63b8ff" points="147.31,-171.15 157.86,-170.18 149,-164.36 147.31,-171.15"/>
</a>
</g>
</g>
<!-- Node49 -->
<g id="Node000049" class="node">
<title>Node49</title>
<g id="a_Node000049"><a xlink:href="_async_t_c_p_8cpp.html#a3aed34b06f9d10bb1cc4ce3d74cb5565" target="_top" xlink:title=" ">
<polygon fill="white" stroke="#666666" points="265.25,-153 139,-153 139,-133 265.25,-133 265.25,-153"/>
<text xml:space="preserve" text-anchor="middle" x="202.12" y="-139.5" font-family="Helvetica,sans-Serif" font-size="10.00">_init_async_event_queue</text>
</a>
</g>
</g>
<!-- Node1&#45;&gt;Node49 -->
<g id="edge14_Node000001_Node000049" class="edge">
<title>Node1&#45;&gt;Node49</title>
<g id="a_edge14_Node000001_Node000049"><a xlink:title=" ">
<path fill="none" stroke="#63b8ff" d="M96.39,-143C106.18,-143 116.72,-143 127.2,-143"/>
<polygon fill="#63b8ff" stroke="#63b8ff" points="127.01,-146.5 137.01,-143 127.01,-139.5 127.01,-146.5"/>
</a>
</g>
</g>
<!-- Node50 -->
<g id="Node000050" class="node">
<title>Node50</title>
<g id="a_Node000050"><a xlink:href="_async_t_c_p_8cpp.html#a8fedef252807f247ae1b933ac0bcc234" target="_top" xlink:title=" ">
<polygon fill="white" stroke="#666666" points="272,-115 132.25,-115 132.25,-95 272,-95 272,-115"/>
<text xml:space="preserve" text-anchor="middle" x="202.12" y="-101.5" font-family="Helvetica,sans-Serif" font-size="10.00">customTaskCreateUniversal</text>
</a>
</g>
</g>
<!-- Node1&#45;&gt;Node50 -->
<g id="edge15_Node000001_Node000050" class="edge">
<title>Node1&#45;&gt;Node50</title>
<g id="a_edge15_Node000001_Node000050"><a xlink:title=" ">
<path fill="none" stroke="#63b8ff" d="M91.06,-132.52C108.76,-128.09 129.55,-122.89 148.28,-118.21"/>
<polygon fill="#63b8ff" stroke="#63b8ff" points="149,-121.64 157.86,-115.82 147.31,-114.85 149,-121.64"/>
</a>
</g>
</g>
<!-- Node3 -->
<g id="Node000003" class="node">
<title>Node3</title>
<g id="a_Node000003"><a xlink:href="_async_t_c_p_8cpp.html#a8a4bbbc30b10628f96b77b68e1f66620" target="_top" xlink:title=" ">
<polygon fill="white" stroke="#666666" points="411,-210 315.5,-210 315.5,-190 411,-190 411,-210"/>
<text xml:space="preserve" text-anchor="middle" x="363.25" y="-196.5" font-family="Helvetica,sans-Serif" font-size="10.00">_get_async_event</text>
</a>
</g>
</g>
<!-- Node2&#45;&gt;Node3 -->
<g id="edge2_Node000002_Node000003" class="edge">
<title>Node2&#45;&gt;Node3</title>
<g id="a_edge2_Node000002_Node000003"><a xlink:title=" ">
<path fill="none" stroke="#63b8ff" d="M256.55,-187.38C271.81,-189.2 288.51,-191.2 304.04,-193.05"/>
<polygon fill="#63b8ff" stroke="#63b8ff" points="303.25,-196.48 313.6,-194.19 304.08,-189.53 303.25,-196.48"/>
</a>
</g>
</g>
<!-- Node4 -->
<g id="Node000004" class="node">
<title>Node4</title>
<g id="a_Node000004"><a xlink:href="_async_t_c_p_8cpp.html#ac4030e968c0e4c0fcbe7a9b4502854c1" target="_top" xlink:title=" ">
<polygon fill="white" stroke="#666666" points="418.5,-172 308,-172 308,-152 418.5,-152 418.5,-172"/>
<text xml:space="preserve" text-anchor="middle" x="363.25" y="-158.5" font-family="Helvetica,sans-Serif" font-size="10.00">_handle_async_event</text>
</a>
</g>
</g>
<!-- Node2&#45;&gt;Node4 -->
<g id="edge4_Node000002_Node000004" class="edge">
<title>Node2&#45;&gt;Node4</title>
<g id="a_edge4_Node000002_Node000004"><a xlink:title=" ">
<path fill="none" stroke="#63b8ff" d="M256.55,-174.62C269.26,-173.1 282.97,-171.47 296.17,-169.89"/>
<polygon fill="#63b8ff" stroke="#63b8ff" points="296.59,-173.37 306.1,-168.7 295.76,-166.41 296.59,-173.37"/>
</a>
</g>
</g>
<!-- Node3&#45;&gt;Node3 -->
<g id="edge3_Node000003_Node000003" class="edge">
<title>Node3&#45;&gt;Node3</title>
<g id="a_edge3_Node000003_Node000003"><a xlink:title=" ">
<path fill="none" stroke="#63b8ff" d="M337.95,-210.34C327.13,-218.98 335.57,-228 363.25,-228 378.39,-228 387.77,-225.3 391.4,-221.44"/>
<polygon fill="#63b8ff" stroke="#63b8ff" points="394.8,-220.62 388.93,-211.8 388.02,-222.36 394.8,-220.62"/>
</a>
</g>
</g>
<!-- Node5 -->
<g id="Node000005" class="node">
<title>Node5</title>
<g id="a_Node000005"><a xlink:href="_async_t_c_p_8cpp.html#aa1f9a74c3df252a9b6159bd188b81ef2" target="_top" xlink:title=" ">
<polygon fill="white" stroke="#666666" points="587.5,-336 457.5,-336 457.5,-316 587.5,-316 587.5,-336"/>
<text xml:space="preserve" text-anchor="middle" x="522.5" y="-322.5" font-family="Helvetica,sans-Serif" font-size="10.00">_remove_events_with_arg</text>
</a>
</g>
</g>
<!-- Node4&#45;&gt;Node5 -->
<g id="edge5_Node000004_Node000005" class="edge">
<title>Node4&#45;&gt;Node5</title>
<g id="a_edge5_Node000004_Node000005"><a xlink:title=" ">
<path fill="none" stroke="#63b8ff" d="M407.25,-172.49C411.42,-174.79 415.28,-177.59 418.5,-181 458.46,-223.37 413.28,-265.86 454.5,-307 455.25,-307.75 456.02,-308.47 456.82,-309.16"/>
<polygon fill="#63b8ff" stroke="#63b8ff" points="454.72,-311.96 464.96,-314.69 458.66,-306.17 454.72,-311.96"/>
</a>
</g>
</g>
<!-- Node6 -->
<g id="Node000006" class="node">
<title>Node6</title>
<g id="a_Node000006"><a xlink:href="class_async_server.html#a68b4c50c0bf8f5109b9981a87d5d34e5" target="_top" xlink:title=" ">
<polygon fill="#fff0f0" stroke="red" points="589.38,-298 455.62,-298 455.62,-278 589.38,-278 589.38,-298"/>
<text xml:space="preserve" text-anchor="middle" x="522.5" y="-284.5" font-family="Helvetica,sans-Serif" font-size="10.00">AsyncServer::_s_accepted</text>
</a>
</g>
</g>
<!-- Node4&#45;&gt;Node6 -->
<g id="edge6_Node000004_Node000006" class="edge">
<title>Node4&#45;&gt;Node6</title>
<g id="a_edge6_Node000004_Node000006"><a xlink:title=" ">
<path fill="none" stroke="#63b8ff" d="M406.07,-172.43C410.61,-174.74 414.88,-177.56 418.5,-181 449.14,-210.1 422.99,-240.84 454.5,-269 455.59,-269.97 456.73,-270.9 457.9,-271.78"/>
<polygon fill="#63b8ff" stroke="#63b8ff" points="455.92,-274.67 466.29,-276.84 459.54,-268.68 455.92,-274.67"/>
</a>
</g>
</g>
<!-- Node9 -->
<g id="Node000009" class="node">
<title>Node9</title>
<g id="a_Node000009"><a xlink:href="class_async_client.html#ac4cdb0990fa85f03da98d1c98b1f8611" target="_top" xlink:title=" ">
<polygon fill="#fff0f0" stroke="red" points="590.5,-260 454.5,-260 454.5,-240 590.5,-240 590.5,-260"/>
<text xml:space="preserve" text-anchor="middle" x="522.5" y="-246.5" font-family="Helvetica,sans-Serif" font-size="10.00">AsyncClient::_s_connected</text>
</a>
</g>
</g>
<!-- Node4&#45;&gt;Node9 -->
<g id="edge7_Node000004_Node000009" class="edge">
<title>Node4&#45;&gt;Node9</title>
<g id="a_edge7_Node000004_Node000009"><a xlink:title=" ">
<path fill="none" stroke="#63b8ff" d="M403.37,-172.42C408.73,-174.76 413.94,-177.59 418.5,-181 440.43,-197.39 432.08,-215.28 454.5,-231 456.43,-232.36 458.46,-233.62 460.56,-234.79"/>
<polygon fill="#63b8ff" stroke="#63b8ff" points="458.88,-237.86 469.42,-238.99 461.88,-231.54 458.88,-237.86"/>
</a>
</g>
</g>
<!-- Node30 -->
<g id="Node000030" class="node">
<title>Node30</title>
<g id="a_Node000030"><a xlink:href="class_async_client.html#a3f629c9072da183879a9c67878b374cc" target="_top" xlink:title=" ">
<polygon fill="#fff0f0" stroke="red" points="575.88,-222 469.12,-222 469.12,-190 575.88,-190 575.88,-222"/>
<text xml:space="preserve" text-anchor="start" x="477.12" y="-208.5" font-family="Helvetica,sans-Serif" font-size="10.00">AsyncClient::_s_dns</text>
<text xml:space="preserve" text-anchor="middle" x="522.5" y="-196.5" font-family="Helvetica,sans-Serif" font-size="10.00">_found</text>
</a>
</g>
</g>
<!-- Node4&#45;&gt;Node30 -->
<g id="edge8_Node000004_Node000030" class="edge">
<title>Node4&#45;&gt;Node30</title>
<g id="a_edge8_Node000004_Node000030"><a xlink:title=" ">
<path fill="none" stroke="#63b8ff" d="M401.52,-172.43C418.29,-177.12 438.59,-182.8 457.67,-188.14"/>
<polygon fill="#63b8ff" stroke="#63b8ff" points="456.7,-191.5 467.28,-190.83 458.59,-184.76 456.7,-191.5"/>
</a>
</g>
</g>
<!-- Node37 -->
<g id="Node000037" class="node">
<title>Node37</title>
<g id="a_Node000037"><a xlink:href="class_async_client.html#a9ff634e3b1237eab65178b007326367e" target="_top" xlink:title=" ">
<polygon fill="#fff0f0" stroke="red" points="577.75,-172 467.25,-172 467.25,-152 577.75,-152 577.75,-172"/>
<text xml:space="preserve" text-anchor="middle" x="522.5" y="-158.5" font-family="Helvetica,sans-Serif" font-size="10.00">AsyncClient::_s_error</text>
</a>
</g>
</g>
<!-- Node4&#45;&gt;Node37 -->
<g id="edge9_Node000004_Node000037" class="edge">
<title>Node4&#45;&gt;Node37</title>
<g id="a_edge9_Node000004_Node000037"><a xlink:title=" ">
<path fill="none" stroke="#63b8ff" d="M418.81,-162C430.57,-162 443.13,-162 455.28,-162"/>
<polygon fill="#63b8ff" stroke="#63b8ff" points="455.26,-165.5 465.26,-162 455.26,-158.5 455.26,-165.5"/>
</a>
</g>
</g>
<!-- Node39 -->
<g id="Node000039" class="node">
<title>Node39</title>
<g id="a_Node000039"><a xlink:href="class_async_client.html#a6a69c67e1a22660766affb64700c2276" target="_top" xlink:title=" ">
<polygon fill="#fff0f0" stroke="red" points="573.25,-134 471.75,-134 471.75,-114 573.25,-114 573.25,-134"/>
<text xml:space="preserve" text-anchor="middle" x="522.5" y="-120.5" font-family="Helvetica,sans-Serif" font-size="10.00">AsyncClient::_s_fin</text>
</a>
</g>
</g>
<!-- Node4&#45;&gt;Node39 -->
<g id="edge10_Node000004_Node000039" class="edge">
<title>Node4&#45;&gt;Node39</title>
<g id="a_edge10_Node000004_Node000039"><a xlink:title=" ">
<path fill="none" stroke="#63b8ff" d="M407.64,-151.52C426.03,-147.07 447.66,-141.84 467.1,-137.15"/>
<polygon fill="#63b8ff" stroke="#63b8ff" points="467.89,-140.56 476.78,-134.81 466.24,-133.75 467.89,-140.56"/>
</a>
</g>
</g>
<!-- Node41 -->
<g id="Node000041" class="node">
<title>Node41</title>
<g id="a_Node000041"><a xlink:href="class_async_client.html#abe187c005c73fe6c0c94e1b3b20b55de" target="_top" xlink:title=" ">
<polygon fill="#fff0f0" stroke="red" points="575.5,-96 469.5,-96 469.5,-76 575.5,-76 575.5,-96"/>
<text xml:space="preserve" text-anchor="middle" x="522.5" y="-82.5" font-family="Helvetica,sans-Serif" font-size="10.00">AsyncClient::_s_poll</text>
</a>
</g>
</g>
<!-- Node4&#45;&gt;Node41 -->
<g id="edge11_Node000004_Node000041" class="edge">
<title>Node4&#45;&gt;Node41</title>
<g id="a_edge11_Node000004_Node000041"><a xlink:title=" ">
<path fill="none" stroke="#63b8ff" d="M377.92,-151.59C395.02,-139.01 425.56,-117.92 454.5,-105 458.48,-103.22 462.68,-101.57 466.94,-100.04"/>
<polygon fill="#63b8ff" stroke="#63b8ff" points="467.79,-103.44 476.17,-96.97 465.58,-96.8 467.79,-103.44"/>
</a>
</g>
</g>
<!-- Node43 -->
<g id="Node000043" class="node">
<title>Node43</title>
<g id="a_Node000043"><a xlink:href="class_async_client.html#af8136d3085c8948078a131bfb9430ec6" target="_top" xlink:title=" ">
<polygon fill="#fff0f0" stroke="red" points="577.38,-58 467.62,-58 467.62,-38 577.38,-38 577.38,-58"/>
<text xml:space="preserve" text-anchor="middle" x="522.5" y="-44.5" font-family="Helvetica,sans-Serif" font-size="10.00">AsyncClient::_s_recv</text>
</a>
</g>
</g>
<!-- Node4&#45;&gt;Node43 -->
<g id="edge12_Node000004_Node000043" class="edge">
<title>Node4&#45;&gt;Node43</title>
<g id="a_edge12_Node000004_Node000043"><a xlink:title=" ">
<path fill="none" stroke="#63b8ff" d="M371.13,-151.7C384.71,-132.17 416.93,-89.71 454.5,-67 457.08,-65.44 459.79,-64.01 462.58,-62.68"/>
<polygon fill="#63b8ff" stroke="#63b8ff" points="463.67,-66.02 471.58,-58.96 461,-59.55 463.67,-66.02"/>
</a>
</g>
</g>
<!-- Node47 -->
<g id="Node000047" class="node">
<title>Node47</title>
<g id="a_Node000047"><a xlink:href="class_async_client.html#a8e507d50b4cc3ae8e90f2e1c1ebf5f61" target="_top" xlink:title=" ">
<polygon fill="#fff0f0" stroke="red" points="577.38,-20 467.62,-20 467.62,0 577.38,0 577.38,-20"/>
<text xml:space="preserve" text-anchor="middle" x="522.5" y="-6.5" font-family="Helvetica,sans-Serif" font-size="10.00">AsyncClient::_s_sent</text>
</a>
</g>
</g>
<!-- Node4&#45;&gt;Node47 -->
<g id="edge13_Node000004_Node000047" class="edge">
<title>Node4&#45;&gt;Node47</title>
<g id="a_edge13_Node000004_Node000047"><a xlink:title=" ">
<path fill="none" stroke="#63b8ff" d="M368.35,-151.52C378.74,-126.36 408.58,-62.16 454.5,-29 456.3,-27.7 458.19,-26.49 460.14,-25.36"/>
<polygon fill="#63b8ff" stroke="#63b8ff" points="461.54,-28.57 468.98,-21.04 458.46,-22.28 461.54,-28.57"/>
</a>
</g>
</g>
</g>
</svg>

<g id="navigator" transform="translate(0 0)" fill="#404254">
  <rect fill="#f2f5e9" fill-opacity="0.5" stroke="#606060" stroke-width=".5" x="0" y="0" width="60" height="60"/>
  <use id="zoomplus" xlink:href="#zoomPlus" x="17" y="9" onmousedown="handleZoom(evt,'in')"/>
  <use id="zoomminus" xlink:href="#zoomMin" x="42" y="9" onmousedown="handleZoom(evt,'out')"/>
  <use id="reset" xlink:href="#resetDef" x="30" y="36" onmousedown="handleReset()"/>
   <use id="arrowup" xlink:href="#arrowUp" x="0" y="0" onmousedown="handlePan(0,-1)"/>
  <use id="arrowright" xlink:href="#arrowRight" x="0" y="0" onmousedown="handlePan(1,0)"/>
  <use id="arrowdown" xlink:href="#arrowDown" x="0" y="0" onmousedown="handlePan(0,1)"/>
  <use id="arrowleft" xlink:href="#arrowLeft" x="0" y="0" onmousedown="handlePan(-1,0)"/>
</g>
<svg viewBox="0 0 15 15" width="100%" height="30px" preserveAspectRatio="xMaxYMin meet">
 <g id="arrow_out" transform="scale(0.3 0.3)">
  <a xlink:href="_async_t_c_p_8cpp_a4d0de407bcfcc96b61af40aca3156708_cgraph_org.svg" target="_base">
   <rect id="button" ry="5" rx="5" y="6" x="6" height="38" width="38"
        fill="#f2f5e9" fill-opacity="0.5" stroke="#606060" stroke-width="1.0"/>
   <path id="arrow"
     d="M 11.500037,31.436501 C 11.940474,20.09759 22.043105,11.32322 32.158766,21.979434 L 37.068811,17.246167 C 37.068811,17.246167 37.088388,32 37.088388,32 L 22.160133,31.978069 C 22.160133,31.978069 26.997745,27.140456 26.997745,27.140456 C 18.528582,18.264221 13.291696,25.230495 11.500037,31.436501 z"
     style="fill:#404040;"/>
  </a>
 </g>
</svg>

<style type='text/css'>
<![CDATA[
[data-mouse-over-selected='false'] { opacity: 0.7; }
[data-mouse-over-selected='true']  { opacity: 1.0; }
]]>
</style>
<script type="application/ecmascript"><![CDATA[
document.addEventListener('DOMContentLoaded', (event) => {
  highlightEdges();
  highlightAdjacentNodes();
});
]]></script>
</svg>
