<?xml version="1.0" encoding="UTF-8" standalone="no"?>
<!DOCTYPE svg PUBLIC "-//W3C//DTD SVG 1.1//EN"
 "http://www.w3.org/Graphics/SVG/1.1/DTD/svg11.dtd">
<!-- Generated by graphviz version 14.1.2 (20260124.0452)
 -->
<!-- Title: _tcp_bind_api Pages: 1 -->
<svg width="316pt" height="28pt"
 viewBox="0.00 0.00 316.00 28.00" xmlns="http://www.w3.org/2000/svg" xmlns:xlink="http://www.w3.org/1999/xlink">
<g id="graph0" class="graph" transform="scale(1 1) rotate(0) translate(4 24)">
<title>_tcp_bind_api</title>
<!-- Node1 -->
<g id="Node000001" class="node">
<title>Node1</title>
<g id="a_Node000001"><a xlink:title=" ">
<polygon fill="#999999" stroke="#666666" points="307.5,-20 231.5,-20 231.5,0 307.5,0 307.5,-20"/>
<text xml:space="preserve" text-anchor="middle" x="269.5" y="-6.5" font-family="Helvetica,sans-Serif" font-size="10.00">_tcp_bind_api</text>
</a>
</g>
</g>
<!-- Node2 -->
<g id="Node000002" class="node">
<title>Node2</title>
<g id="a_Node000002"><a xlink:href="_async_t_c_p_8cpp.html#a1d69fe6616ae6044a10ab2df4a2bf2d8" target="_top" xlink:title=" ">
<polygon fill="white" stroke="#666666" points="195.5,-20 137.5,-20 137.5,0 195.5,0 195.5,-20"/>
<text xml:space="preserve" text-anchor="middle" x="166.5" y="-6.5" font-family="Helvetica,sans-Serif" font-size="10.00">_tcp_bind</text>
</a>
</g>
</g>
<!-- Node1&#45;&gt;Node2 -->
<g id="edge1_Node000001_Node000002" class="edge">
<title>Node1&#45;&gt;Node2</title>
<g id="a_edge1_Node000001_Node000002"><a xlink:title=" ">
<path fill="none" stroke="#63b8ff" d="M219.73,-10C211.53,-10 203.28,-10 195.83,-10"/>
<polygon fill="#63b8ff" stroke="#63b8ff" points="219.66,-13.5 229.66,-10 219.66,-6.5 219.66,-13.5"/>
</a>
</g>
</g>
<!-- Node3 -->
<g id="Node000003" class="node">
<title>Node3</title>
<g id="a_Node000003"><a xlink:href="class_async_server.html#a7e9ce55e4e1d0fab5531bac98ebfb3f9" target="_top" xlink:title=" ">
<polygon fill="white" stroke="#666666" points="101.5,-20 0,-20 0,0 101.5,0 101.5,-20"/>
<text xml:space="preserve" text-anchor="middle" x="50.75" y="-6.5" font-family="Helvetica,sans-Serif" font-size="10.00">AsyncServer::begin</text>
</a>
</g>
</g>
<!-- Node2&#45;&gt;Node3 -->
<g id="edge2_Node000002_Node000003" class="edge">
<title>Node2&#45;&gt;Node3</title>
<g id="a_edge2_Node000002_Node000003"><a xlink:title=" ">
<path fill="none" stroke="#63b8ff" d="M125.82,-10C118.1,-10 109.92,-10 101.92,-10"/>
<polygon fill="#63b8ff" stroke="#63b8ff" points="125.58,-13.5 135.58,-10 125.58,-6.5 125.58,-13.5"/>
</a>
</g>
</g>
</g>
</svg>
