<?xml version="1.0" encoding="UTF-8" standalone="no"?>
<!DOCTYPE svg PUBLIC "-//W3C//DTD SVG 1.1//EN"
 "http://www.w3.org/Graphics/SVG/1.1/DTD/svg11.dtd">
<!-- Generated by graphviz version 14.1.2 (20260124.0452)
 -->
<!-- Title: _tcp_clear_events Pages: 1 -->
<!--zoomable 572 -->

<svg id="main" version="1.1" xmlns="http://www.w3.org/2000/svg" xmlns:xlink="http://www.w3.org/1999/xlink" xml:space="preserve" onload="init(evt)">

<style type="text/css"><![CDATA[
.node, .edge {opacity: 0.7;}
.node.selected, .edge.selected {opacity: 1;}
.edge:hover path { stroke: red; }
.edge:hover polygon { stroke: red; fill: red; }
]]></style>

<defs>
  <circle id="rim" cx="0" cy="0" r="7"/>
  <circle id="rim2" cx="0" cy="0" r="3.5"/>
  <g id="zoomPlus">
    <use xlink:href="#rim" fill="#404040"><set attributeName="fill" to="#808080" begin="zoomplus.mouseover" end="zoomplus.mouseout"/></use>
    <path d="M-4,0h8M0,-4v8" fill="none" stroke="white" stroke-width="1.5" pointer-events="none"/>
  </g>
  <g id="zoomMin">
    <use xlink:href="#rim" fill="#404040"><set attributeName="fill" to="#808080" begin="zoomminus.mouseover" end="zoomminus.mouseout"/></use>
    <path d="M-4,0h8" fill="none" stroke="white" stroke-width="1.5" pointer-events="none"/>
  </g>
  <g id="arrowUp" transform="translate(30 24)">
    <use xlink:href="#rim"/>
    <path pointer-events="none" fill="none" stroke="white" stroke-width="1.5" d="M0,-3.0v7 M-2.5,-0.5L0,-3.0L2.5,-0.5"/>
  </g>
  <g id="arrowRight" transform="rotate(90) translate(36 -43)">
    <use xlink:href="#rim"/>
    <path pointer-events="none" fill="none" stroke="white" stroke-width="1.5" d="M0,-3.0v7 M-2.5,-0.5L0,-3.0L2.5,-0.5"/>
  </g>
  <g id="arrowDown" transform="rotate(180) translate(-30 -48)">
    <use xlink:href="#rim"/>
    <path pointer-events="none" fill="none" stroke="white" stroke-width="1.5" d="M0,-3.0v7 M-2.5,-0.5L0,-3.0L2.5,-0.5"/>
  </g>
  <g id="arrowLeft" transform="rotate(270) translate(-36 17)">
    <use xlink:href="#rim"/>
    <path pointer-events="none" fill="none" stroke="white" stroke-width="1.5" d="M0,-3.0v7 M-2.5,-0.5L0,-3.0L2.5,-0.5"/>
  </g>
  <g id="resetDef">
    <use xlink:href="#rim2" fill="#404040"><set attributeName="fill" to="#808080" begin="reset.mouseover" end="reset.mouseout"/></use>
  </g>
</defs>
<script type="application/ecmascript">
var viewWidth = 723;
var viewHeight = 572;
var sectionId = 'dynsection-22';
</script>
<script type="application/ecmascript" xlink:href="svg.min.js"/>
<svg id="graph" class="graph">
<g id="viewport">
<title>_tcp_clear_events</title>
<!-- Node1 -->
<g id="Node000001" class="node">
<title>Node1</title>
<g id="a_Node000001"><a xlink:title=" ">
<polygon fill="#999999" stroke="#666666" points="714.5,-393 619,-393 619,-373 714.5,-373 714.5,-393"/>
<text xml:space="preserve" text-anchor="middle" x="666.75" y="-379.5" font-family="Helvetica,sans-Serif" font-size="10.00">_tcp_clear_events</text>
</a>
</g>
</g>
<!-- Node2 -->
<g id="Node000002" class="node">
<title>Node2</title>
<g id="a_Node000002"><a xlink:href="class_async_client.html#a98ff872bc84919f006f3bb8a249ed36d" target="_top" xlink:title=" ">
<polygon fill="white" stroke="#666666" points="583,-374 479.25,-374 479.25,-354 583,-354 583,-374"/>
<text xml:space="preserve" text-anchor="middle" x="531.12" y="-360.5" font-family="Helvetica,sans-Serif" font-size="10.00">AsyncClient::_close</text>
</a>
</g>
</g>
<!-- Node1&#45;&gt;Node2 -->
<g id="edge1_Node000001_Node000002" class="edge">
<title>Node1&#45;&gt;Node2</title>
<g id="a_edge1_Node000001_Node000002"><a xlink:title=" ">
<path fill="none" stroke="#63b8ff" d="M607.45,-374.71C599.43,-373.57 591.24,-372.41 583.35,-371.28"/>
<polygon fill="#63b8ff" stroke="#63b8ff" points="606.75,-378.15 617.14,-376.09 607.73,-371.22 606.75,-378.15"/>
</a>
</g>
</g>
<!-- Node31 -->
<g id="Node000031" class="node">
<title>Node31</title>
<g id="a_Node000031"><a xlink:href="class_async_client.html#afe295b6c577021c8946eb266ac41df51" target="_top" xlink:title=" ">
<polygon fill="white" stroke="#666666" points="576.62,-440 485.62,-440 485.62,-420 576.62,-420 576.62,-440"/>
<text xml:space="preserve" text-anchor="middle" x="531.12" y="-426.5" font-family="Helvetica,sans-Serif" font-size="10.00">AsyncClient::_fin</text>
</a>
</g>
</g>
<!-- Node1&#45;&gt;Node31 -->
<g id="edge24_Node000001_Node000031" class="edge">
<title>Node1&#45;&gt;Node31</title>
<g id="a_edge24_Node000001_Node000031"><a xlink:title=" ">
<path fill="none" stroke="#63b8ff" d="M625.47,-397.17C604.96,-404.38 580.45,-413 561.7,-419.6"/>
<polygon fill="#63b8ff" stroke="#63b8ff" points="626.39,-400.55 634.67,-393.93 624.07,-393.95 626.39,-400.55"/>
</a>
</g>
</g>
<!-- Node3 -->
<g id="Node000003" class="node">
<title>Node3</title>
<g id="a_Node000003"><a xlink:href="class_async_client.html#a383d1cb7d684d328362caa5eafc92ca2" target="_top" xlink:title=" ">
<polygon fill="white" stroke="#666666" points="423.75,-478 328.25,-478 328.25,-458 423.75,-458 423.75,-478"/>
<text xml:space="preserve" text-anchor="middle" x="376" y="-464.5" font-family="Helvetica,sans-Serif" font-size="10.00">AsyncClient::_poll</text>
</a>
</g>
</g>
<!-- Node2&#45;&gt;Node3 -->
<g id="edge2_Node000002_Node000003" class="edge">
<title>Node2&#45;&gt;Node3</title>
<g id="a_edge2_Node000002_Node000003"><a xlink:title=" ">
<path fill="none" stroke="#63b8ff" d="M505.77,-380.54C473.83,-402.24 418.74,-439.65 392.18,-457.69"/>
<polygon fill="#63b8ff" stroke="#63b8ff" points="507.32,-383.72 513.63,-375.2 503.39,-377.93 507.32,-383.72"/>
</a>
</g>
</g>
<!-- Node14 -->
<g id="Node000014" class="node">
<title>Node14</title>
<g id="a_Node000014"><a xlink:href="class_async_client.html#aefecfa0c75c8c1b32104115e93739087" target="_top" xlink:title=" ">
<polygon fill="white" stroke="#666666" points="440.25,-355 311.75,-355 311.75,-335 440.25,-335 440.25,-355"/>
<text xml:space="preserve" text-anchor="middle" x="376" y="-341.5" font-family="Helvetica,sans-Serif" font-size="10.00">AsyncClient::AsyncClient</text>
</a>
</g>
</g>
<!-- Node2&#45;&gt;Node14 -->
<g id="edge4_Node000002_Node000014" class="edge">
<title>Node2&#45;&gt;Node14</title>
<g id="a_edge4_Node000002_Node000014"><a xlink:title=" ">
<path fill="none" stroke="#63b8ff" d="M467.91,-356.28C458.9,-355.16 449.61,-354.01 440.57,-352.89"/>
<polygon fill="#63b8ff" stroke="#63b8ff" points="467.28,-359.73 477.63,-357.49 468.14,-352.78 467.28,-359.73"/>
</a>
</g>
</g>
<!-- Node20 -->
<g id="Node000020" class="node">
<title>Node20</title>
<g id="a_Node000020"><a xlink:href="class_async_client.html#a575c12664279634155259e007c6a104f" target="_top" xlink:title=" ">
<polygon fill="white" stroke="#666666" points="263,-134 146.5,-134 146.5,-114 263,-114 263,-134"/>
<text xml:space="preserve" text-anchor="middle" x="204.75" y="-120.5" font-family="Helvetica,sans-Serif" font-size="10.00">AsyncClient::operator=</text>
</a>
</g>
</g>
<!-- Node2&#45;&gt;Node20 -->
<g id="edge22_Node000002_Node000020" class="edge">
<title>Node2&#45;&gt;Node20</title>
<g id="a_edge22_Node000002_Node000020"><a xlink:title=" ">
<path fill="none" stroke="#63b8ff" d="M513.93,-345.42C476.04,-303.12 376.94,-198.96 272.75,-143 266.47,-139.62 259.52,-136.8 252.55,-134.44"/>
<polygon fill="#63b8ff" stroke="#63b8ff" points="511.19,-347.61 520.44,-352.78 516.43,-342.97 511.19,-347.61"/>
</a>
</g>
</g>
<!-- Node26 -->
<g id="Node000026" class="node">
<title>Node26</title>
<g id="a_Node000026"><a xlink:href="class_async_client.html#a0305fe0b036257c03829ceaa5cc43361" target="_top" xlink:title="close connection">
<polygon fill="white" stroke="#666666" points="425.25,-77 326.75,-77 326.75,-57 425.25,-57 425.25,-77"/>
<text xml:space="preserve" text-anchor="middle" x="376" y="-63.5" font-family="Helvetica,sans-Serif" font-size="10.00">AsyncClient::close</text>
</a>
</g>
</g>
<!-- Node2&#45;&gt;Node26 -->
<g id="edge17_Node000002_Node000026" class="edge">
<title>Node2&#45;&gt;Node26</title>
<g id="a_edge17_Node000002_Node000026"><a xlink:title=" ">
<path fill="none" stroke="#63b8ff" d="M519.64,-343.67C489.73,-285.65 404.7,-120.73 382.41,-77.49"/>
<polygon fill="#63b8ff" stroke="#63b8ff" points="516.47,-345.15 524.16,-352.43 522.69,-341.94 516.47,-345.15"/>
</a>
</g>
</g>
<!-- Node30 -->
<g id="Node000030" class="node">
<title>Node30</title>
<g id="a_Node000030"><a xlink:href="class_async_client.html#a4044bdcfd2ca6197f75200644685c5f0" target="_top" xlink:title=" ">
<polygon fill="white" stroke="#666666" points="443.25,-393 308.75,-393 308.75,-373 443.25,-373 443.25,-393"/>
<text xml:space="preserve" text-anchor="middle" x="376" y="-379.5" font-family="Helvetica,sans-Serif" font-size="10.00">AsyncClient::~AsyncClient</text>
</a>
</g>
</g>
<!-- Node2&#45;&gt;Node30 -->
<g id="edge23_Node000002_Node000030" class="edge">
<title>Node2&#45;&gt;Node30</title>
<g id="a_edge23_Node000002_Node000030"><a xlink:title=" ">
<path fill="none" stroke="#63b8ff" d="M467.96,-371.71C459.92,-372.71 451.67,-373.73 443.57,-374.74"/>
<polygon fill="#63b8ff" stroke="#63b8ff" points="468.14,-375.22 477.63,-370.51 467.28,-368.27 468.14,-375.22"/>
</a>
</g>
</g>
<!-- Node4 -->
<g id="Node000004" class="node">
<title>Node4</title>
<g id="a_Node000004"><a xlink:href="class_async_client.html#abe187c005c73fe6c0c94e1b3b20b55de" target="_top" xlink:title=" ">
<polygon fill="#fff0f0" stroke="red" points="257.75,-526 151.75,-526 151.75,-506 257.75,-506 257.75,-526"/>
<text xml:space="preserve" text-anchor="middle" x="204.75" y="-512.5" font-family="Helvetica,sans-Serif" font-size="10.00">AsyncClient::_s_poll</text>
</a>
</g>
</g>
<!-- Node3&#45;&gt;Node4 -->
<g id="edge3_Node000003_Node000004" class="edge">
<title>Node3&#45;&gt;Node4</title>
<g id="a_edge3_Node000003_Node000004"><a xlink:title=" ">
<path fill="none" stroke="#63b8ff" d="M327.21,-481.55C300.41,-489.15 267.5,-498.49 242.69,-505.52"/>
<polygon fill="#63b8ff" stroke="#63b8ff" points="328.15,-484.92 336.82,-478.83 326.24,-478.19 328.15,-484.92"/>
</a>
</g>
</g>
<!-- Node14&#45;&gt;Node4 -->
<g id="edge10_Node000014_Node000004" class="edge">
<title>Node14&#45;&gt;Node4</title>
<g id="a_edge10_Node000014_Node000004"><a xlink:title=" ">
<path fill="none" stroke="#63b8ff" d="M311.03,-361.85C310.25,-362.54 309.48,-363.25 308.75,-364 265.77,-407.62 315.79,-453.44 272.75,-497 268.59,-501.21 263.56,-504.51 258.16,-507.09"/>
<polygon fill="#63b8ff" stroke="#63b8ff" points="312.78,-364.89 319.03,-356.33 308.81,-359.13 312.78,-364.89"/>
</a>
</g>
</g>
<!-- Node15 -->
<g id="Node000015" class="node">
<title>Node15</title>
<g id="a_Node000015"><a xlink:href="class_async_client.html#ac4cdb0990fa85f03da98d1c98b1f8611" target="_top" xlink:title=" ">
<polygon fill="#fff0f0" stroke="red" points="272.75,-260 136.75,-260 136.75,-240 272.75,-240 272.75,-260"/>
<text xml:space="preserve" text-anchor="middle" x="204.75" y="-246.5" font-family="Helvetica,sans-Serif" font-size="10.00">AsyncClient::_s_connected</text>
</a>
</g>
</g>
<!-- Node14&#45;&gt;Node15 -->
<g id="edge5_Node000014_Node000015" class="edge">
<title>Node14&#45;&gt;Node15</title>
<g id="a_edge5_Node000014_Node000015"><a xlink:title=" ">
<path fill="none" stroke="#63b8ff" d="M355.61,-327.18C336.04,-310.05 304.27,-284.53 272.75,-269 266.03,-265.69 258.63,-262.86 251.28,-260.49"/>
<polygon fill="#63b8ff" stroke="#63b8ff" points="353.03,-329.56 362.82,-333.61 357.69,-324.34 353.03,-329.56"/>
</a>
</g>
</g>
<!-- Node12 -->
<g id="Node000012" class="node">
<title>Node12</title>
<g id="a_Node000012"><a xlink:href="class_async_client.html#a3f629c9072da183879a9c67878b374cc" target="_top" xlink:title=" ">
<polygon fill="#fff0f0" stroke="red" points="258.12,-222 151.38,-222 151.38,-190 258.12,-190 258.12,-222"/>
<text xml:space="preserve" text-anchor="start" x="159.38" y="-208.5" font-family="Helvetica,sans-Serif" font-size="10.00">AsyncClient::_s_dns</text>
<text xml:space="preserve" text-anchor="middle" x="204.75" y="-196.5" font-family="Helvetica,sans-Serif" font-size="10.00">_found</text>
</a>
</g>
</g>
<!-- Node14&#45;&gt;Node12 -->
<g id="edge6_Node000014_Node000012" class="edge">
<title>Node14&#45;&gt;Node12</title>
<g id="a_edge6_Node000014_Node000012"><a xlink:title=" ">
<path fill="none" stroke="#63b8ff" d="M362.02,-325.44C344.48,-300.37 310.98,-257.06 272.75,-231 268.03,-227.78 262.85,-224.91 257.51,-222.37"/>
<polygon fill="#63b8ff" stroke="#63b8ff" points="358.94,-327.13 367.48,-333.41 364.72,-323.18 358.94,-327.13"/>
</a>
</g>
</g>
<!-- Node16 -->
<g id="Node000016" class="node">
<title>Node16</title>
<g id="a_Node000016"><a xlink:href="class_async_client.html#a9ff634e3b1237eab65178b007326367e" target="_top" xlink:title=" ">
<polygon fill="#fff0f0" stroke="red" points="260,-172 149.5,-172 149.5,-152 260,-152 260,-172"/>
<text xml:space="preserve" text-anchor="middle" x="204.75" y="-158.5" font-family="Helvetica,sans-Serif" font-size="10.00">AsyncClient::_s_error</text>
</a>
</g>
</g>
<!-- Node14&#45;&gt;Node16 -->
<g id="edge7_Node000014_Node000016" class="edge">
<title>Node14&#45;&gt;Node16</title>
<g id="a_edge7_Node000014_Node000016"><a xlink:title=" ">
<path fill="none" stroke="#63b8ff" d="M362.62,-325.24C349.3,-303.96 327.5,-269.1 308.75,-239 292.71,-213.25 296.98,-199.26 272.75,-181 268.21,-177.58 263.08,-174.78 257.73,-172.48"/>
<polygon fill="#63b8ff" stroke="#63b8ff" points="359.52,-326.87 367.79,-333.49 365.45,-323.16 359.52,-326.87"/>
</a>
</g>
</g>
<!-- Node17 -->
<g id="Node000017" class="node">
<title>Node17</title>
<g id="a_Node000017"><a xlink:href="class_async_client.html#a6a69c67e1a22660766affb64700c2276" target="_top" xlink:title=" ">
<polygon fill="#fff0f0" stroke="red" points="255.5,-564 154,-564 154,-544 255.5,-544 255.5,-564"/>
<text xml:space="preserve" text-anchor="middle" x="204.75" y="-550.5" font-family="Helvetica,sans-Serif" font-size="10.00">AsyncClient::_s_fin</text>
</a>
</g>
</g>
<!-- Node14&#45;&gt;Node17 -->
<g id="edge8_Node000014_Node000017" class="edge">
<title>Node14&#45;&gt;Node17</title>
<g id="a_edge8_Node000014_Node000017"><a xlink:title=" ">
<path fill="none" stroke="#63b8ff" d="M310.6,-362.14C309.96,-362.74 309.35,-363.36 308.75,-364 255.84,-420.85 325.75,-478.22 272.75,-535 268.05,-540.04 262.12,-543.77 255.74,-546.54"/>
<polygon fill="#63b8ff" stroke="#63b8ff" points="312.52,-365.07 318.53,-356.34 308.39,-359.42 312.52,-365.07"/>
</a>
</g>
</g>
<!-- Node18 -->
<g id="Node000018" class="node">
<title>Node18</title>
<g id="a_Node000018"><a xlink:href="class_async_client.html#a485b2be0c01d3172928c0ed9655edc2f" target="_top" xlink:title=" ">
<polygon fill="#fff0f0" stroke="red" points="266.75,-488 142.75,-488 142.75,-468 266.75,-468 266.75,-488"/>
<text xml:space="preserve" text-anchor="middle" x="204.75" y="-474.5" font-family="Helvetica,sans-Serif" font-size="10.00">AsyncClient::_s_lwip_fin</text>
</a>
</g>
</g>
<!-- Node14&#45;&gt;Node18 -->
<g id="edge9_Node000014_Node000018" class="edge">
<title>Node14&#45;&gt;Node18</title>
<g id="a_edge9_Node000014_Node000018"><a xlink:title=" ">
<path fill="none" stroke="#63b8ff" d="M311.63,-361.56C310.63,-362.34 309.67,-363.15 308.75,-364 275.53,-394.58 306.02,-428.47 272.75,-459 269.01,-462.43 264.69,-465.25 260.09,-467.56"/>
<polygon fill="#63b8ff" stroke="#63b8ff" points="313.38,-364.59 319.99,-356.3 309.66,-358.66 313.38,-364.59"/>
</a>
</g>
</g>
<!-- Node21 -->
<g id="Node000021" class="node">
<title>Node21</title>
<g id="a_Node000021"><a xlink:href="class_async_client.html#af8136d3085c8948078a131bfb9430ec6" target="_top" xlink:title=" ">
<polygon fill="#fff0f0" stroke="red" points="259.62,-450 149.88,-450 149.88,-430 259.62,-430 259.62,-450"/>
<text xml:space="preserve" text-anchor="middle" x="204.75" y="-436.5" font-family="Helvetica,sans-Serif" font-size="10.00">AsyncClient::_s_recv</text>
</a>
</g>
</g>
<!-- Node14&#45;&gt;Node21 -->
<g id="edge11_Node000014_Node000021" class="edge">
<title>Node14&#45;&gt;Node21</title>
<g id="a_edge11_Node000014_Node000021"><a xlink:title=" ">
<path fill="none" stroke="#63b8ff" d="M314.15,-360.38C312.28,-361.5 310.47,-362.71 308.75,-364 284.78,-381.98 296.75,-403.06 272.75,-421 268.1,-424.47 262.84,-427.31 257.36,-429.63"/>
<polygon fill="#63b8ff" stroke="#63b8ff" points="315.27,-363.74 322.61,-356.11 312.11,-357.49 315.27,-363.74"/>
</a>
</g>
</g>
<!-- Node22 -->
<g id="Node000022" class="node">
<title>Node22</title>
<g id="a_Node000022"><a xlink:href="class_async_client.html#a8e507d50b4cc3ae8e90f2e1c1ebf5f61" target="_top" xlink:title=" ">
<polygon fill="#fff0f0" stroke="red" points="259.62,-412 149.88,-412 149.88,-392 259.62,-392 259.62,-412"/>
<text xml:space="preserve" text-anchor="middle" x="204.75" y="-398.5" font-family="Helvetica,sans-Serif" font-size="10.00">AsyncClient::_s_sent</text>
</a>
</g>
</g>
<!-- Node14&#45;&gt;Node22 -->
<g id="edge12_Node000014_Node000022" class="edge">
<title>Node14&#45;&gt;Node22</title>
<g id="a_edge12_Node000014_Node000022"><a xlink:title=" ">
<path fill="none" stroke="#63b8ff" d="M322.95,-358.81C318.11,-360.43 313.31,-362.17 308.75,-364 291.97,-370.75 289.54,-376.27 272.75,-383 264.78,-386.19 256.08,-389.07 247.66,-391.57"/>
<polygon fill="#63b8ff" stroke="#63b8ff" points="323.64,-362.27 332.12,-355.92 321.53,-355.59 323.64,-362.27"/>
</a>
</g>
</g>
<!-- Node23 -->
<g id="Node000023" class="node">
<title>Node23</title>
<g id="a_Node000023"><a xlink:href="class_async_client.html#a44e3b77c5567dbfeb25c50cfddf61653" target="_top" xlink:title=" ">
<polygon fill="white" stroke="#666666" points="264.5,-374 145,-374 145,-354 264.5,-354 264.5,-374"/>
<text xml:space="preserve" text-anchor="middle" x="204.75" y="-360.5" font-family="Helvetica,sans-Serif" font-size="10.00">AsyncClient::operator!=</text>
</a>
</g>
</g>
<!-- Node14&#45;&gt;Node23 -->
<g id="edge13_Node000014_Node000023" class="edge">
<title>Node14&#45;&gt;Node23</title>
<g id="a_edge13_Node000014_Node000023"><a xlink:title=" ">
<path fill="none" stroke="#63b8ff" d="M300.25,-353.39C288.39,-354.72 276.28,-356.08 264.86,-357.36"/>
<polygon fill="#63b8ff" stroke="#63b8ff" points="300.44,-356.89 309.99,-352.3 299.66,-349.94 300.44,-356.89"/>
</a>
</g>
</g>
<!-- Node24 -->
<g id="Node000024" class="node">
<title>Node24</title>
<g id="a_Node000024"><a xlink:href="class_async_client.html#afaedf716feb9b363fe9b1ee7d82fbe9f" target="_top" xlink:title=" ">
<polygon fill="white" stroke="#666666" points="266,-336 143.5,-336 143.5,-316 266,-316 266,-336"/>
<text xml:space="preserve" text-anchor="middle" x="204.75" y="-322.5" font-family="Helvetica,sans-Serif" font-size="10.00">AsyncClient::operator+=</text>
</a>
</g>
</g>
<!-- Node14&#45;&gt;Node24 -->
<g id="edge14_Node000014_Node000024" class="edge">
<title>Node14&#45;&gt;Node24</title>
<g id="a_edge14_Node000014_Node000024"><a xlink:title=" ">
<path fill="none" stroke="#63b8ff" d="M300.24,-336.61C288.87,-335.33 277.26,-334.03 266.25,-332.79"/>
<polygon fill="#63b8ff" stroke="#63b8ff" points="299.66,-340.06 309.99,-337.7 300.44,-333.11 299.66,-340.06"/>
</a>
</g>
</g>
<!-- Node14&#45;&gt;Node20 -->
<g id="edge15_Node000014_Node000020" class="edge">
<title>Node14&#45;&gt;Node20</title>
<g id="a_edge15_Node000014_Node000020"><a xlink:title=" ">
<path fill="none" stroke="#63b8ff" d="M360.97,-325.25C346.62,-304.46 324.29,-270.46 308.75,-239 288.57,-198.14 306.27,-173.87 272.75,-143 269.01,-139.56 264.7,-136.74 260.1,-134.42"/>
<polygon fill="#63b8ff" stroke="#63b8ff" points="358.03,-327.14 366.63,-333.34 363.77,-323.13 358.03,-327.14"/>
</a>
</g>
</g>
<!-- Node25 -->
<g id="Node000025" class="node">
<title>Node25</title>
<g id="a_Node000025"><a xlink:href="class_async_client.html#a40d147dfec9bbc2e8891273be25c5f39" target="_top" xlink:title=" ">
<polygon fill="white" stroke="#666666" points="266,-298 143.5,-298 143.5,-278 266,-278 266,-298"/>
<text xml:space="preserve" text-anchor="middle" x="204.75" y="-284.5" font-family="Helvetica,sans-Serif" font-size="10.00">AsyncClient::operator==</text>
</a>
</g>
</g>
<!-- Node14&#45;&gt;Node25 -->
<g id="edge16_Node000014_Node000025" class="edge">
<title>Node14&#45;&gt;Node25</title>
<g id="a_edge16_Node000014_Node000025"><a xlink:title=" ">
<path fill="none" stroke="#63b8ff" d="M338.23,-330.53C318.87,-323.12 294.67,-314.17 272.75,-307 263.67,-304.03 253.82,-301.09 244.53,-298.43"/>
<polygon fill="#63b8ff" stroke="#63b8ff" points="336.72,-333.7 347.31,-334.03 339.24,-327.17 336.72,-333.7"/>
</a>
</g>
</g>
<!-- Node27 -->
<g id="Node000027" class="node">
<title>Node27</title>
<g id="a_Node000027"><a xlink:href="class_async_telnet.html#a77dcd8e31b8bfb8b3082de385c5e7792" target="_top" xlink:title=" ">
<polygon fill="white" stroke="#666666" points="254.38,-96 155.12,-96 155.12,-76 254.38,-76 254.38,-96"/>
<text xml:space="preserve" text-anchor="middle" x="204.75" y="-82.5" font-family="Helvetica,sans-Serif" font-size="10.00">AsyncTelnet::begin</text>
</a>
</g>
</g>
<!-- Node26&#45;&gt;Node27 -->
<g id="edge18_Node000026_Node000027" class="edge">
<title>Node26&#45;&gt;Node27</title>
<g id="a_edge18_Node000026_Node000027"><a xlink:title=" ">
<path fill="none" stroke="#63b8ff" d="M315.14,-73.72C295.4,-75.94 273.69,-78.37 254.84,-80.49"/>
<polygon fill="#63b8ff" stroke="#63b8ff" points="315.45,-77.21 325,-72.61 314.67,-70.25 315.45,-77.21"/>
</a>
</g>
</g>
<!-- Node28 -->
<g id="Node000028" class="node">
<title>Node28</title>
<g id="a_Node000028"><a xlink:href="class_async_telnet_serial.html#a6cf9d6cc49602ff5ac0ec2af846a0d7a" target="_top" xlink:title=" ">
<polygon fill="white" stroke="#666666" points="100.75,-83 0,-83 0,-51 100.75,-51 100.75,-83"/>
<text xml:space="preserve" text-anchor="start" x="8" y="-69.5" font-family="Helvetica,sans-Serif" font-size="10.00">AsyncTelnetSerial::</text>
<text xml:space="preserve" text-anchor="middle" x="50.38" y="-57.5" font-family="Helvetica,sans-Serif" font-size="10.00">begin</text>
</a>
</g>
</g>
<!-- Node26&#45;&gt;Node28 -->
<g id="edge20_Node000026_Node000028" class="edge">
<title>Node26&#45;&gt;Node28</title>
<g id="a_edge20_Node000026_Node000028"><a xlink:title=" ">
<path fill="none" stroke="#63b8ff" d="M315.08,-67C253.53,-67 158.81,-67 101.22,-67"/>
<polygon fill="#63b8ff" stroke="#63b8ff" points="315.04,-70.5 325.04,-67 315.04,-63.5 315.04,-70.5"/>
</a>
</g>
</g>
<!-- Node29 -->
<g id="Node000029" class="node">
<title>Node29</title>
<g id="a_Node000029"><a xlink:href="class_async_client.html#a4bed4e925817d1b918af2ce43fb0859e" target="_top" xlink:title=" ">
<polygon fill="white" stroke="#666666" points="251.75,-20 157.75,-20 157.75,0 251.75,0 251.75,-20"/>
<text xml:space="preserve" text-anchor="middle" x="204.75" y="-6.5" font-family="Helvetica,sans-Serif" font-size="10.00">AsyncClient::stop</text>
</a>
</g>
</g>
<!-- Node26&#45;&gt;Node29 -->
<g id="edge21_Node000026_Node000029" class="edge">
<title>Node26&#45;&gt;Node29</title>
<g id="a_edge21_Node000026_Node000029"><a xlink:title=" ">
<path fill="none" stroke="#63b8ff" d="M333.05,-52.87C303.26,-42.84 263.9,-29.59 236.88,-20.48"/>
<polygon fill="#63b8ff" stroke="#63b8ff" points="331.93,-56.19 342.52,-56.06 334.16,-49.55 331.93,-56.19"/>
</a>
</g>
</g>
<!-- Node27&#45;&gt;Node28 -->
<g id="edge19_Node000027_Node000028" class="edge">
<title>Node27&#45;&gt;Node28</title>
<g id="a_edge19_Node000027_Node000028"><a xlink:title=" ">
<path fill="none" stroke="#63b8ff" d="M143.61,-78.5C129.53,-76.75 114.69,-74.89 101.12,-73.2"/>
<polygon fill="#63b8ff" stroke="#63b8ff" points="142.84,-81.93 153.2,-79.7 143.71,-74.99 142.84,-81.93"/>
</a>
</g>
</g>
<!-- Node31&#45;&gt;Node17 -->
<g id="edge25_Node000031_Node000017" class="edge">
<title>Node31&#45;&gt;Node17</title>
<g id="a_edge25_Node000031_Node000017"><a xlink:title=" ">
<path fill="none" stroke="#63b8ff" d="M507.99,-447.27C491.06,-459.78 466.71,-476.3 443.25,-487 381.47,-515.17 305.15,-534.14 255.97,-544.51"/>
<polygon fill="#63b8ff" stroke="#63b8ff" points="509.95,-450.17 515.83,-441.36 505.74,-444.59 509.95,-450.17"/>
</a>
</g>
</g>
</g>
</svg>

<g id="navigator" transform="translate(0 0)" fill="#404254">
  <rect fill="#f2f5e9" fill-opacity="0.5" stroke="#606060" stroke-width=".5" x="0" y="0" width="60" height="60"/>
  <use id="zoomplus" xlink:href="#zoomPlus" x="17" y="9" onmousedown="handleZoom(evt,'in')"/>
  <use id="zoomminus" xlink:href="#zoomMin" x="42" y="9" onmousedown="handleZoom(evt,'out')"/>
  <use id="reset" xlink:href="#resetDef" x="30" y="36" onmousedown="handleReset()"/>
   <use id="arrowup" xlink:href="#arrowUp" x="0" y="0" onmousedown="handlePan(0,-1)"/>
  <use id="arrowright" xlink:href="#arrowRight" x="0" y="0" onmousedown="handlePan(1,0)"/>
  <use id="arrowdown" xlink:href="#arrowDown" x="0" y="0" onmousedown="handlePan(0,1)"/>
  <use id="arrowleft" xlink:href="#arrowLeft" x="0" y="0" onmousedown="handlePan(-1,0)"/>
</g>
<svg viewBox="0 0 15 15" width="100%" height="30px" preserveAspectRatio="xMaxYMin meet">
 <g id="arrow_out" transform="scale(0.3 0.3)">
  <a xlink:href="_async_t_c_p_8cpp_ab053d5adb5be879f37181af512213bb6_icgraph_org.svg" target="_base">
   <rect id="button" ry="5" rx="5" y="6" x="6" height="38" width="38"
        fill="#f2f5e9" fill-opacity="0.5" stroke="#606060" stroke-width="1.0"/>
   <path id="arrow"
     d="M 11.500037,31.436501 C 11.940474,20.09759 22.043105,11.32322 32.158766,21.979434 L 37.068811,17.246167 C 37.068811,17.246167 37.088388,32 37.088388,32 L 22.160133,31.978069 C 22.160133,31.978069 26.997745,27.140456 26.997745,27.140456 C 18.528582,18.264221 13.291696,25.230495 11.500037,31.436501 z"
     style="fill:#404040;"/>
  </a>
 </g>
</svg>

<style type='text/css'>
<![CDATA[
[data-mouse-over-selected='false'] { opacity: 0.7; }
[data-mouse-over-selected='true']  { opacity: 1.0; }
]]>
</style>
<script type="application/ecmascript"><![CDATA[
document.addEventListener('DOMContentLoaded', (event) => {
  highlightEdges();
  highlightAdjacentNodes();
});
]]></script>
</svg>
