<?xml version="1.0" encoding="UTF-8" standalone="no"?>
<!DOCTYPE svg PUBLIC "-//W3C//DTD SVG 1.1//EN"
 "http://www.w3.org/Graphics/SVG/1.1/DTD/svg11.dtd">
<!-- Generated by graphviz version 14.1.2 (20260124.0452)
 -->
<!-- Title: _tcp_output Pages: 1 -->
<svg width="340pt" height="28pt"
 viewBox="0.00 0.00 340.00 28.00" xmlns="http://www.w3.org/2000/svg" xmlns:xlink="http://www.w3.org/1999/xlink">
<g id="graph0" class="graph" transform="scale(1 1) rotate(0) translate(4 24)">
<title>_tcp_output</title>
<!-- Node1 -->
<g id="Node000001" class="node">
<title>Node1</title>
<g id="a_Node000001"><a xlink:title=" ">
<polygon fill="#999999" stroke="#666666" points="331.5,-20 264.5,-20 264.5,0 331.5,0 331.5,-20"/>
<text xml:space="preserve" text-anchor="middle" x="298" y="-6.5" font-family="Helvetica,sans-Serif" font-size="10.00">_tcp_output</text>
</a>
</g>
</g>
<!-- Node2 -->
<g id="Node000002" class="node">
<title>Node2</title>
<g id="a_Node000002"><a xlink:href="class_async_client.html#aa2d6f5a753f8928469e0fd1b01116e61" target="_top" xlink:title="send data previously add()&#39;ed">
<polygon fill="white" stroke="#666666" points="228.5,-20 132.25,-20 132.25,0 228.5,0 228.5,-20"/>
<text xml:space="preserve" text-anchor="middle" x="180.38" y="-6.5" font-family="Helvetica,sans-Serif" font-size="10.00">AsyncClient::send</text>
</a>
</g>
</g>
<!-- Node1&#45;&gt;Node2 -->
<g id="edge1_Node000001_Node000002" class="edge">
<title>Node1&#45;&gt;Node2</title>
<g id="a_edge1_Node000001_Node000002"><a xlink:title=" ">
<path fill="none" stroke="#63b8ff" d="M252.72,-10C244.94,-10 236.82,-10 228.96,-10"/>
<polygon fill="#63b8ff" stroke="#63b8ff" points="252.66,-13.5 262.66,-10 252.66,-6.5 252.66,-13.5"/>
</a>
</g>
</g>
<!-- Node3 -->
<g id="Node000003" class="node">
<title>Node3</title>
<g id="a_Node000003"><a xlink:href="class_async_client.html#a287fe3b09d815afc3351674a11843ce9" target="_top" xlink:title="add and enqueue data for sending">
<polygon fill="white" stroke="#666666" points="96.25,-20 0,-20 0,0 96.25,0 96.25,-20"/>
<text xml:space="preserve" text-anchor="middle" x="48.12" y="-6.5" font-family="Helvetica,sans-Serif" font-size="10.00">AsyncClient::write</text>
</a>
</g>
</g>
<!-- Node2&#45;&gt;Node3 -->
<g id="edge2_Node000002_Node000003" class="edge">
<title>Node2&#45;&gt;Node3</title>
<g id="a_edge2_Node000002_Node000003"><a xlink:title=" ">
<path fill="none" stroke="#63b8ff" d="M120.75,-10C112.7,-10 104.52,-10 96.7,-10"/>
<polygon fill="#63b8ff" stroke="#63b8ff" points="120.47,-13.5 130.47,-10 120.47,-6.5 120.47,-13.5"/>
</a>
</g>
</g>
</g>
</svg>
