<?xml version="1.0" encoding="UTF-8" standalone="no"?>
<!DOCTYPE svg PUBLIC "-//W3C//DTD SVG 1.1//EN"
 "http://www.w3.org/Graphics/SVG/1.1/DTD/svg11.dtd">
<!-- Generated by graphviz version 14.1.2 (20260124.0452)
 -->
<!-- Title: _tcp_close_api Pages: 1 -->
<svg width="499pt" height="198pt"
 viewBox="0.00 0.00 499.00 198.00" xmlns="http://www.w3.org/2000/svg" xmlns:xlink="http://www.w3.org/1999/xlink">

<svg id="main" version="1.1" xmlns="http://www.w3.org/2000/svg" xmlns:xlink="http://www.w3.org/1999/xlink" xml:space="preserve">

<style type="text/css"><![CDATA[
.node, .edge {opacity: 0.7;}
.node.selected, .edge.selected {opacity: 1;}
.edge:hover path { stroke: red; }
.edge:hover polygon { stroke: red; fill: red; }
]]></style>
<script type="application/ecmascript" xlink:href="svg.min.js"/>
<svg id="graph" class="graph">
<g id="graph0" class="graph" transform="scale(1 1) rotate(0) translate(4 194)">
<title>_tcp_close_api</title>
<!-- Node1 -->
<g id="Node000001" class="node">
<title>Node1</title>
<g id="a_Node000001"><a xlink:title=" ">
<polygon fill="#999999" stroke="#666666" points="490.75,-77 409.5,-77 409.5,-57 490.75,-57 490.75,-77"/>
<text xml:space="preserve" text-anchor="middle" x="450.12" y="-63.5" font-family="Helvetica,sans-Serif" font-size="10.00">_tcp_close_api</text>
</a>
</g>
</g>
<!-- Node2 -->
<g id="Node000002" class="node">
<title>Node2</title>
<g id="a_Node000002"><a xlink:href="_async_t_c_p_8cpp.html#a3602c1ebfae2fb2ff64a0e3d7b0568ce" target="_top" xlink:title=" ">
<polygon fill="white" stroke="#666666" points="373.5,-77 310.25,-77 310.25,-57 373.5,-57 373.5,-77"/>
<text xml:space="preserve" text-anchor="middle" x="341.88" y="-63.5" font-family="Helvetica,sans-Serif" font-size="10.00">_tcp_close</text>
</a>
</g>
</g>
<!-- Node1&#45;&gt;Node2 -->
<g id="edge1_Node000001_Node000002" class="edge">
<title>Node1&#45;&gt;Node2</title>
<g id="a_edge1_Node000001_Node000002"><a xlink:title=" ">
<path fill="none" stroke="#63b8ff" d="M397.86,-67C389.71,-67 381.5,-67 374,-67"/>
<polygon fill="#63b8ff" stroke="#63b8ff" points="397.75,-70.5 407.75,-67 397.75,-63.5 397.75,-70.5"/>
</a>
</g>
</g>
<!-- Node3 -->
<g id="Node000003" class="node">
<title>Node3</title>
<g id="a_Node000003"><a xlink:href="class_async_client.html#a98ff872bc84919f006f3bb8a249ed36d" target="_top" xlink:title=" ">
<polygon fill="white" stroke="#666666" points="274.25,-96 170.5,-96 170.5,-76 274.25,-76 274.25,-96"/>
<text xml:space="preserve" text-anchor="middle" x="222.38" y="-82.5" font-family="Helvetica,sans-Serif" font-size="10.00">AsyncClient::_close</text>
</a>
</g>
</g>
<!-- Node2&#45;&gt;Node3 -->
<g id="edge2_Node000002_Node000003" class="edge">
<title>Node2&#45;&gt;Node3</title>
<g id="a_edge2_Node000002_Node000003"><a xlink:title=" ">
<path fill="none" stroke="#63b8ff" d="M298.83,-73.8C290.94,-75.07 282.61,-76.42 274.48,-77.74"/>
<polygon fill="#63b8ff" stroke="#63b8ff" points="299.2,-77.29 308.51,-72.23 298.08,-70.37 299.2,-77.29"/>
</a>
</g>
</g>
<!-- Node14 -->
<g id="Node000014" class="node">
<title>Node14</title>
<g id="a_Node000014"><a xlink:href="class_async_server.html#a7e9ce55e4e1d0fab5531bac98ebfb3f9" target="_top" xlink:title=" ">
<polygon fill="white" stroke="#666666" points="273.12,-58 171.62,-58 171.62,-38 273.12,-38 273.12,-58"/>
<text xml:space="preserve" text-anchor="middle" x="222.38" y="-44.5" font-family="Helvetica,sans-Serif" font-size="10.00">AsyncServer::begin</text>
</a>
</g>
</g>
<!-- Node2&#45;&gt;Node14 -->
<g id="edge9_Node000002_Node000014" class="edge">
<title>Node2&#45;&gt;Node14</title>
<g id="a_edge9_Node000002_Node000014"><a xlink:title=" ">
<path fill="none" stroke="#63b8ff" d="M298.83,-60.2C290.64,-58.88 281.99,-57.48 273.58,-56.12"/>
<polygon fill="#63b8ff" stroke="#63b8ff" points="298.08,-63.63 308.51,-61.77 299.2,-56.71 298.08,-63.63"/>
</a>
</g>
</g>
<!-- Node4 -->
<g id="Node000004" class="node">
<title>Node4</title>
<g id="a_Node000004"><a xlink:href="class_async_client.html#a383d1cb7d684d328362caa5eafc92ca2" target="_top" xlink:title=" ">
<polygon fill="#fff0f0" stroke="red" points="115,-190 19.5,-190 19.5,-170 115,-170 115,-190"/>
<text xml:space="preserve" text-anchor="middle" x="67.25" y="-176.5" font-family="Helvetica,sans-Serif" font-size="10.00">AsyncClient::_poll</text>
</a>
</g>
</g>
<!-- Node3&#45;&gt;Node4 -->
<g id="edge3_Node000003_Node000004" class="edge">
<title>Node3&#45;&gt;Node4</title>
<g id="a_edge3_Node000003_Node000004"><a xlink:title=" ">
<path fill="none" stroke="#63b8ff" d="M204.69,-104.4C188.35,-121.38 161.96,-146.15 134.5,-161 128.29,-164.36 121.42,-167.18 114.53,-169.53"/>
<polygon fill="#63b8ff" stroke="#63b8ff" points="206.95,-107.11 211.24,-97.43 201.85,-102.32 206.95,-107.11"/>
</a>
</g>
</g>
<!-- Node15 -->
<g id="Node000015" class="node">
<title>Node15</title>
<g id="a_Node000015"><a xlink:href="class_async_client.html#aefecfa0c75c8c1b32104115e93739087" target="_top" xlink:title=" ">
<polygon fill="#fff0f0" stroke="red" points="131.5,-134 3,-134 3,-114 131.5,-114 131.5,-134"/>
<text xml:space="preserve" text-anchor="middle" x="67.25" y="-120.5" font-family="Helvetica,sans-Serif" font-size="10.00">AsyncClient::AsyncClient</text>
</a>
</g>
</g>
<!-- Node3&#45;&gt;Node15 -->
<g id="edge4_Node000003_Node000015" class="edge">
<title>Node3&#45;&gt;Node15</title>
<g id="a_edge4_Node000003_Node000015"><a xlink:title=" ">
<path fill="none" stroke="#63b8ff" d="M167.99,-99.25C149.12,-103.93 128.17,-109.13 110.36,-113.55"/>
<polygon fill="#63b8ff" stroke="#63b8ff" points="168.8,-102.65 177.66,-96.85 167.11,-95.86 168.8,-102.65"/>
</a>
</g>
</g>
<!-- Node18 -->
<g id="Node000018" class="node">
<title>Node18</title>
<g id="a_Node000018"><a xlink:href="class_async_client.html#a0305fe0b036257c03829ceaa5cc43361" target="_top" xlink:title="close connection">
<polygon fill="#fff0f0" stroke="red" points="116.5,-96 18,-96 18,-76 116.5,-76 116.5,-96"/>
<text xml:space="preserve" text-anchor="middle" x="67.25" y="-82.5" font-family="Helvetica,sans-Serif" font-size="10.00">AsyncClient::close</text>
</a>
</g>
</g>
<!-- Node3&#45;&gt;Node18 -->
<g id="edge6_Node000003_Node000018" class="edge">
<title>Node3&#45;&gt;Node18</title>
<g id="a_edge6_Node000003_Node000018"><a xlink:title=" ">
<path fill="none" stroke="#63b8ff" d="M159.26,-86C145.17,-86 130.39,-86 116.94,-86"/>
<polygon fill="#63b8ff" stroke="#63b8ff" points="158.87,-89.5 168.87,-86 158.87,-82.5 158.87,-89.5"/>
</a>
</g>
</g>
<!-- Node21 -->
<g id="Node000021" class="node">
<title>Node21</title>
<g id="a_Node000021"><a xlink:href="class_async_client.html#a575c12664279634155259e007c6a104f" target="_top" xlink:title=" ">
<polygon fill="white" stroke="#666666" points="125.5,-58 9,-58 9,-38 125.5,-38 125.5,-58"/>
<text xml:space="preserve" text-anchor="middle" x="67.25" y="-44.5" font-family="Helvetica,sans-Serif" font-size="10.00">AsyncClient::operator=</text>
</a>
</g>
</g>
<!-- Node3&#45;&gt;Node21 -->
<g id="edge7_Node000003_Node000021" class="edge">
<title>Node3&#45;&gt;Node21</title>
<g id="a_edge7_Node000003_Node000021"><a xlink:title=" ">
<path fill="none" stroke="#63b8ff" d="M167.99,-72.75C149.12,-68.07 128.17,-62.87 110.36,-58.45"/>
<polygon fill="#63b8ff" stroke="#63b8ff" points="167.11,-76.14 177.66,-75.15 168.8,-69.35 167.11,-76.14"/>
</a>
</g>
</g>
<!-- Node22 -->
<g id="Node000022" class="node">
<title>Node22</title>
<g id="a_Node000022"><a xlink:href="class_async_client.html#a4044bdcfd2ca6197f75200644685c5f0" target="_top" xlink:title=" ">
<polygon fill="white" stroke="#666666" points="134.5,-20 0,-20 0,0 134.5,0 134.5,-20"/>
<text xml:space="preserve" text-anchor="middle" x="67.25" y="-6.5" font-family="Helvetica,sans-Serif" font-size="10.00">AsyncClient::~AsyncClient</text>
</a>
</g>
</g>
<!-- Node3&#45;&gt;Node22 -->
<g id="edge8_Node000003_Node000022" class="edge">
<title>Node3&#45;&gt;Node22</title>
<g id="a_edge8_Node000003_Node000022"><a xlink:title=" ">
<path fill="none" stroke="#63b8ff" d="M176.66,-70.69C174.53,-69.53 172.47,-68.3 170.5,-67 151.1,-54.15 154.38,-41.08 134.5,-29 128.88,-25.58 122.61,-22.76 116.24,-20.43"/>
<polygon fill="#63b8ff" stroke="#63b8ff" points="175.04,-73.79 185.57,-74.94 178.05,-67.47 175.04,-73.79"/>
</a>
</g>
</g>
<!-- Node15&#45;&gt;Node15 -->
<g id="edge5_Node000015_Node000015" class="edge">
<title>Node15&#45;&gt;Node15</title>
<g id="a_edge5_Node000015_Node000015"><a xlink:title=" ">
<path fill="none" stroke="#63b8ff" d="M94.67,-145.44C91.14,-149.3 82,-152 67.25,-152 40.28,-152 32.07,-142.98 42.6,-134.34"/>
<polygon fill="#63b8ff" stroke="#63b8ff" points="98.08,-144.66 92.26,-135.81 91.29,-146.36 98.08,-144.66"/>
</a>
</g>
</g>
</g>
</svg>
</svg>

<style type='text/css'>
<![CDATA[
[data-mouse-over-selected='false'] { opacity: 0.7; }
[data-mouse-over-selected='true']  { opacity: 1.0; }
]]>
</style>
<script type="application/ecmascript"><![CDATA[
document.addEventListener('DOMContentLoaded', (event) => {
  highlightEdges();
  highlightAdjacentNodes();
});
]]></script>
</svg>
