<?xml version="1.0" encoding="UTF-8" standalone="no"?>
<!DOCTYPE svg PUBLIC "-//W3C//DTD SVG 1.1//EN"
 "http://www.w3.org/Graphics/SVG/1.1/DTD/svg11.dtd">
<!-- Generated by graphviz version 14.1.2 (20260124.0452)
 -->
<!-- Title: _tcp_close Pages: 1 -->
<svg width="690pt" height="572pt"
 viewBox="0.00 0.00 690.00 572.00" xmlns="http://www.w3.org/2000/svg" xmlns:xlink="http://www.w3.org/1999/xlink">
<g id="graph0" class="graph" transform="scale(1 1) rotate(0) translate(4 568)">
<title>_tcp_close</title>
<!-- Node1 -->
<g id="Node000001" class="node">
<title>Node1</title>
<g id="a_Node000001"><a xlink:title=" ">
<polygon fill="#999999" stroke="#666666" points="682.25,-115 619,-115 619,-95 682.25,-95 682.25,-115"/>
<text xml:space="preserve" text-anchor="middle" x="650.62" y="-101.5" font-family="Helvetica,sans-Serif" font-size="10.00">_tcp_close</text>
</a>
</g>
</g>
<!-- Node2 -->
<g id="Node000002" class="node">
<title>Node2</title>
<g id="a_Node000002"><a xlink:href="class_async_client.html#a98ff872bc84919f006f3bb8a249ed36d" target="_top" xlink:title=" ">
<polygon fill="white" stroke="#666666" points="583,-134 479.25,-134 479.25,-114 583,-114 583,-134"/>
<text xml:space="preserve" text-anchor="middle" x="531.12" y="-120.5" font-family="Helvetica,sans-Serif" font-size="10.00">AsyncClient::_close</text>
</a>
</g>
</g>
<!-- Node1&#45;&gt;Node2 -->
<g id="edge1_Node000001_Node000002" class="edge">
<title>Node1&#45;&gt;Node2</title>
<g id="a_edge1_Node000001_Node000002"><a xlink:title=" ">
<path fill="none" stroke="#63b8ff" d="M607.58,-111.8C599.69,-113.07 591.36,-114.42 583.23,-115.74"/>
<polygon fill="#63b8ff" stroke="#63b8ff" points="607.95,-115.29 617.26,-110.23 606.83,-108.37 607.95,-115.29"/>
</a>
</g>
</g>
<!-- Node13 -->
<g id="Node000013" class="node">
<title>Node13</title>
<g id="a_Node000013"><a xlink:href="class_async_server.html#a7e9ce55e4e1d0fab5531bac98ebfb3f9" target="_top" xlink:title=" ">
<polygon fill="white" stroke="#666666" points="581.88,-96 480.38,-96 480.38,-76 581.88,-76 581.88,-96"/>
<text xml:space="preserve" text-anchor="middle" x="531.12" y="-82.5" font-family="Helvetica,sans-Serif" font-size="10.00">AsyncServer::begin</text>
</a>
</g>
</g>
<!-- Node1&#45;&gt;Node13 -->
<g id="edge24_Node000001_Node000013" class="edge">
<title>Node1&#45;&gt;Node13</title>
<g id="a_edge24_Node000001_Node000013"><a xlink:title=" ">
<path fill="none" stroke="#63b8ff" d="M607.58,-98.2C599.39,-96.88 590.74,-95.48 582.33,-94.12"/>
<polygon fill="#63b8ff" stroke="#63b8ff" points="606.83,-101.63 617.26,-99.77 607.95,-94.71 606.83,-101.63"/>
</a>
</g>
</g>
<!-- Node3 -->
<g id="Node000003" class="node">
<title>Node3</title>
<g id="a_Node000003"><a xlink:href="class_async_client.html#a383d1cb7d684d328362caa5eafc92ca2" target="_top" xlink:title=" ">
<polygon fill="white" stroke="#666666" points="423.75,-463 328.25,-463 328.25,-443 423.75,-443 423.75,-463"/>
<text xml:space="preserve" text-anchor="middle" x="376" y="-449.5" font-family="Helvetica,sans-Serif" font-size="10.00">AsyncClient::_poll</text>
</a>
</g>
</g>
<!-- Node2&#45;&gt;Node3 -->
<g id="edge2_Node000002_Node000003" class="edge">
<title>Node2&#45;&gt;Node3</title>
<g id="a_edge2_Node000002_Node000003"><a xlink:title=" ">
<path fill="none" stroke="#63b8ff" d="M522.33,-144.86C507.95,-182.85 475.74,-265.61 443.25,-333 423.2,-374.59 395.49,-422.06 383.25,-442.61"/>
<polygon fill="#63b8ff" stroke="#63b8ff" points="525.57,-146.19 525.82,-135.6 519.02,-143.72 525.57,-146.19"/>
</a>
</g>
</g>
<!-- Node14 -->
<g id="Node000014" class="node">
<title>Node14</title>
<g id="a_Node000014"><a xlink:href="class_async_client.html#aefecfa0c75c8c1b32104115e93739087" target="_top" xlink:title=" ">
<polygon fill="white" stroke="#666666" points="440.25,-324 311.75,-324 311.75,-304 440.25,-304 440.25,-324"/>
<text xml:space="preserve" text-anchor="middle" x="376" y="-310.5" font-family="Helvetica,sans-Serif" font-size="10.00">AsyncClient::AsyncClient</text>
</a>
</g>
</g>
<!-- Node2&#45;&gt;Node14 -->
<g id="edge4_Node000002_Node000014" class="edge">
<title>Node2&#45;&gt;Node14</title>
<g id="a_edge4_Node000002_Node000014"><a xlink:title=" ">
<path fill="none" stroke="#63b8ff" d="M514.82,-143C482.82,-182.7 409.8,-273.3 385.24,-303.78"/>
<polygon fill="#63b8ff" stroke="#63b8ff" points="517.17,-145.65 520.72,-135.66 511.72,-141.25 517.17,-145.65"/>
</a>
</g>
</g>
<!-- Node20 -->
<g id="Node000020" class="node">
<title>Node20</title>
<g id="a_Node000020"><a xlink:href="class_async_client.html#a575c12664279634155259e007c6a104f" target="_top" xlink:title=" ">
<polygon fill="white" stroke="#666666" points="263,-134 146.5,-134 146.5,-114 263,-114 263,-134"/>
<text xml:space="preserve" text-anchor="middle" x="204.75" y="-120.5" font-family="Helvetica,sans-Serif" font-size="10.00">AsyncClient::operator=</text>
</a>
</g>
</g>
<!-- Node2&#45;&gt;Node20 -->
<g id="edge22_Node000002_Node000020" class="edge">
<title>Node2&#45;&gt;Node20</title>
<g id="a_edge22_Node000002_Node000020"><a xlink:title=" ">
<path fill="none" stroke="#63b8ff" d="M467.68,-124C408.62,-124 320.73,-124 263.33,-124"/>
<polygon fill="#63b8ff" stroke="#63b8ff" points="467.57,-127.5 477.57,-124 467.57,-120.5 467.57,-127.5"/>
</a>
</g>
</g>
<!-- Node26 -->
<g id="Node000026" class="node">
<title>Node26</title>
<g id="a_Node000026"><a xlink:href="class_async_client.html#a0305fe0b036257c03829ceaa5cc43361" target="_top" xlink:title="close connection">
<polygon fill="white" stroke="#666666" points="425.25,-96 326.75,-96 326.75,-76 425.25,-76 425.25,-96"/>
<text xml:space="preserve" text-anchor="middle" x="376" y="-82.5" font-family="Helvetica,sans-Serif" font-size="10.00">AsyncClient::close</text>
</a>
</g>
</g>
<!-- Node2&#45;&gt;Node26 -->
<g id="edge17_Node000002_Node000026" class="edge">
<title>Node2&#45;&gt;Node26</title>
<g id="a_edge17_Node000002_Node000026"><a xlink:title=" ">
<path fill="none" stroke="#63b8ff" d="M476.74,-110.75C457.87,-106.07 436.92,-100.87 419.11,-96.45"/>
<polygon fill="#63b8ff" stroke="#63b8ff" points="475.86,-114.14 486.41,-113.15 477.55,-107.35 475.86,-114.14"/>
</a>
</g>
</g>
<!-- Node30 -->
<g id="Node000030" class="node">
<title>Node30</title>
<g id="a_Node000030"><a xlink:href="class_async_client.html#a4044bdcfd2ca6197f75200644685c5f0" target="_top" xlink:title=" ">
<polygon fill="white" stroke="#666666" points="443.25,-58 308.75,-58 308.75,-38 443.25,-38 443.25,-58"/>
<text xml:space="preserve" text-anchor="middle" x="376" y="-44.5" font-family="Helvetica,sans-Serif" font-size="10.00">AsyncClient::~AsyncClient</text>
</a>
</g>
</g>
<!-- Node2&#45;&gt;Node30 -->
<g id="edge23_Node000002_Node000030" class="edge">
<title>Node2&#45;&gt;Node30</title>
<g id="a_edge23_Node000002_Node000030"><a xlink:title=" ">
<path fill="none" stroke="#63b8ff" d="M485.41,-108.69C483.28,-107.53 481.22,-106.3 479.25,-105 459.85,-92.15 463.13,-79.08 443.25,-67 437.63,-63.58 431.36,-60.76 424.99,-58.43"/>
<polygon fill="#63b8ff" stroke="#63b8ff" points="483.79,-111.79 494.32,-112.94 486.8,-105.47 483.79,-111.79"/>
</a>
</g>
</g>
<!-- Node4 -->
<g id="Node000004" class="node">
<title>Node4</title>
<g id="a_Node000004"><a xlink:href="class_async_client.html#abe187c005c73fe6c0c94e1b3b20b55de" target="_top" xlink:title=" ">
<polygon fill="#fff0f0" stroke="red" points="257.75,-564 151.75,-564 151.75,-544 257.75,-544 257.75,-564"/>
<text xml:space="preserve" text-anchor="middle" x="204.75" y="-550.5" font-family="Helvetica,sans-Serif" font-size="10.00">AsyncClient::_s_poll</text>
</a>
</g>
</g>
<!-- Node3&#45;&gt;Node4 -->
<g id="edge3_Node000003_Node000004" class="edge">
<title>Node3&#45;&gt;Node4</title>
<g id="a_edge3_Node000003_Node000004"><a xlink:title=" ">
<path fill="none" stroke="#63b8ff" d="M356.82,-471.41C337.53,-489.95 305.4,-518.16 272.75,-535 266.2,-538.38 258.96,-541.23 251.74,-543.61"/>
<polygon fill="#63b8ff" stroke="#63b8ff" points="359.2,-473.97 363.88,-464.47 354.29,-468.98 359.2,-473.97"/>
</a>
</g>
</g>
<!-- Node14&#45;&gt;Node4 -->
<g id="edge10_Node000014_Node000004" class="edge">
<title>Node14&#45;&gt;Node4</title>
<g id="a_edge10_Node000014_Node000004"><a xlink:title=" ">
<path fill="none" stroke="#63b8ff" d="M362.59,-334.09C348.43,-357.51 325.13,-397.66 308.75,-434 289.17,-477.45 307.54,-502.43 272.75,-535 268.51,-538.97 263.51,-542.11 258.18,-544.61"/>
<polygon fill="#63b8ff" stroke="#63b8ff" points="365.55,-335.95 367.77,-325.59 359.58,-332.3 365.55,-335.95"/>
</a>
</g>
</g>
<!-- Node15 -->
<g id="Node000015" class="node">
<title>Node15</title>
<g id="a_Node000015"><a xlink:href="class_async_client.html#ac4cdb0990fa85f03da98d1c98b1f8611" target="_top" xlink:title=" ">
<polygon fill="#fff0f0" stroke="red" points="272.75,-526 136.75,-526 136.75,-506 272.75,-506 272.75,-526"/>
<text xml:space="preserve" text-anchor="middle" x="204.75" y="-512.5" font-family="Helvetica,sans-Serif" font-size="10.00">AsyncClient::_s_connected</text>
</a>
</g>
</g>
<!-- Node14&#45;&gt;Node15 -->
<g id="edge5_Node000014_Node000015" class="edge">
<title>Node14&#45;&gt;Node15</title>
<g id="a_edge5_Node000014_Node000015"><a xlink:title=" ">
<path fill="none" stroke="#63b8ff" d="M363.8,-334.28C337.64,-381.62 274.56,-495.57 272.75,-497 268.39,-500.45 263.43,-503.27 258.23,-505.58"/>
<polygon fill="#63b8ff" stroke="#63b8ff" points="366.83,-336.04 368.6,-325.59 360.7,-332.65 366.83,-336.04"/>
</a>
</g>
</g>
<!-- Node12 -->
<g id="Node000012" class="node">
<title>Node12</title>
<g id="a_Node000012"><a xlink:href="class_async_client.html#a3f629c9072da183879a9c67878b374cc" target="_top" xlink:title=" ">
<polygon fill="#fff0f0" stroke="red" points="258.12,-488 151.38,-488 151.38,-456 258.12,-456 258.12,-488"/>
<text xml:space="preserve" text-anchor="start" x="159.38" y="-474.5" font-family="Helvetica,sans-Serif" font-size="10.00">AsyncClient::_s_dns</text>
<text xml:space="preserve" text-anchor="middle" x="204.75" y="-462.5" font-family="Helvetica,sans-Serif" font-size="10.00">_found</text>
</a>
</g>
</g>
<!-- Node14&#45;&gt;Node12 -->
<g id="edge6_Node000014_Node000012" class="edge">
<title>Node14&#45;&gt;Node12</title>
<g id="a_edge6_Node000014_Node000012"><a xlink:title=" ">
<path fill="none" stroke="#63b8ff" d="M364.47,-333.97C348.34,-362.75 314.92,-415.85 272.75,-447 268.36,-450.25 263.49,-453.11 258.45,-455.64"/>
<polygon fill="#63b8ff" stroke="#63b8ff" points="367.34,-336.01 369.06,-325.55 361.19,-332.65 367.34,-336.01"/>
</a>
</g>
</g>
<!-- Node16 -->
<g id="Node000016" class="node">
<title>Node16</title>
<g id="a_Node000016"><a xlink:href="class_async_client.html#a9ff634e3b1237eab65178b007326367e" target="_top" xlink:title=" ">
<polygon fill="#fff0f0" stroke="red" points="260,-438 149.5,-438 149.5,-418 260,-418 260,-438"/>
<text xml:space="preserve" text-anchor="middle" x="204.75" y="-424.5" font-family="Helvetica,sans-Serif" font-size="10.00">AsyncClient::_s_error</text>
</a>
</g>
</g>
<!-- Node14&#45;&gt;Node16 -->
<g id="edge7_Node000014_Node000016" class="edge">
<title>Node14&#45;&gt;Node16</title>
<g id="a_edge7_Node000014_Node000016"><a xlink:title=" ">
<path fill="none" stroke="#63b8ff" d="M359.68,-332.84C341.22,-354.31 308.25,-389.02 272.75,-409 266.74,-412.38 260.09,-415.2 253.38,-417.53"/>
<polygon fill="#63b8ff" stroke="#63b8ff" points="362.15,-335.33 365.9,-325.42 356.79,-330.83 362.15,-335.33"/>
</a>
</g>
</g>
<!-- Node17 -->
<g id="Node000017" class="node">
<title>Node17</title>
<g id="a_Node000017"><a xlink:href="class_async_client.html#a6a69c67e1a22660766affb64700c2276" target="_top" xlink:title=" ">
<polygon fill="#fff0f0" stroke="red" points="255.5,-400 154,-400 154,-380 255.5,-380 255.5,-400"/>
<text xml:space="preserve" text-anchor="middle" x="204.75" y="-386.5" font-family="Helvetica,sans-Serif" font-size="10.00">AsyncClient::_s_fin</text>
</a>
</g>
</g>
<!-- Node14&#45;&gt;Node17 -->
<g id="edge8_Node000014_Node000017" class="edge">
<title>Node14&#45;&gt;Node17</title>
<g id="a_edge8_Node000014_Node000017"><a xlink:title=" ">
<path fill="none" stroke="#63b8ff" d="M349.61,-330.34C329.41,-342.8 300.09,-359.68 272.75,-371 265.04,-374.19 256.62,-377.04 248.43,-379.5"/>
<polygon fill="#63b8ff" stroke="#63b8ff" points="351.39,-333.36 358.01,-325.09 347.67,-327.43 351.39,-333.36"/>
</a>
</g>
</g>
<!-- Node18 -->
<g id="Node000018" class="node">
<title>Node18</title>
<g id="a_Node000018"><a xlink:href="class_async_client.html#a485b2be0c01d3172928c0ed9655edc2f" target="_top" xlink:title=" ">
<polygon fill="#fff0f0" stroke="red" points="266.75,-362 142.75,-362 142.75,-342 266.75,-342 266.75,-362"/>
<text xml:space="preserve" text-anchor="middle" x="204.75" y="-348.5" font-family="Helvetica,sans-Serif" font-size="10.00">AsyncClient::_s_lwip_fin</text>
</a>
</g>
</g>
<!-- Node14&#45;&gt;Node18 -->
<g id="edge9_Node000014_Node000018" class="edge">
<title>Node14&#45;&gt;Node18</title>
<g id="a_edge9_Node000014_Node000018"><a xlink:title=" ">
<path fill="none" stroke="#63b8ff" d="M317.17,-326.98C296,-331.74 272.35,-337.05 252.29,-341.55"/>
<polygon fill="#63b8ff" stroke="#63b8ff" points="317.84,-330.42 326.83,-324.82 316.3,-323.59 317.84,-330.42"/>
</a>
</g>
</g>
<!-- Node21 -->
<g id="Node000021" class="node">
<title>Node21</title>
<g id="a_Node000021"><a xlink:href="class_async_client.html#af8136d3085c8948078a131bfb9430ec6" target="_top" xlink:title=" ">
<polygon fill="#fff0f0" stroke="red" points="259.62,-324 149.88,-324 149.88,-304 259.62,-304 259.62,-324"/>
<text xml:space="preserve" text-anchor="middle" x="204.75" y="-310.5" font-family="Helvetica,sans-Serif" font-size="10.00">AsyncClient::_s_recv</text>
</a>
</g>
</g>
<!-- Node14&#45;&gt;Node21 -->
<g id="edge11_Node000014_Node000021" class="edge">
<title>Node14&#45;&gt;Node21</title>
<g id="a_edge11_Node000014_Node000021"><a xlink:title=" ">
<path fill="none" stroke="#63b8ff" d="M300.21,-314C286.64,-314 272.74,-314 259.91,-314"/>
<polygon fill="#63b8ff" stroke="#63b8ff" points="299.98,-317.5 309.98,-314 299.98,-310.5 299.98,-317.5"/>
</a>
</g>
</g>
<!-- Node22 -->
<g id="Node000022" class="node">
<title>Node22</title>
<g id="a_Node000022"><a xlink:href="class_async_client.html#a8e507d50b4cc3ae8e90f2e1c1ebf5f61" target="_top" xlink:title=" ">
<polygon fill="#fff0f0" stroke="red" points="259.62,-286 149.88,-286 149.88,-266 259.62,-266 259.62,-286"/>
<text xml:space="preserve" text-anchor="middle" x="204.75" y="-272.5" font-family="Helvetica,sans-Serif" font-size="10.00">AsyncClient::_s_sent</text>
</a>
</g>
</g>
<!-- Node14&#45;&gt;Node22 -->
<g id="edge12_Node000014_Node000022" class="edge">
<title>Node14&#45;&gt;Node22</title>
<g id="a_edge12_Node000014_Node000022"><a xlink:title=" ">
<path fill="none" stroke="#63b8ff" d="M317.17,-301.02C296,-296.26 272.35,-290.95 252.29,-286.45"/>
<polygon fill="#63b8ff" stroke="#63b8ff" points="316.3,-304.41 326.83,-303.18 317.84,-297.58 316.3,-304.41"/>
</a>
</g>
</g>
<!-- Node23 -->
<g id="Node000023" class="node">
<title>Node23</title>
<g id="a_Node000023"><a xlink:href="class_async_client.html#a44e3b77c5567dbfeb25c50cfddf61653" target="_top" xlink:title=" ">
<polygon fill="white" stroke="#666666" points="264.5,-248 145,-248 145,-228 264.5,-228 264.5,-248"/>
<text xml:space="preserve" text-anchor="middle" x="204.75" y="-234.5" font-family="Helvetica,sans-Serif" font-size="10.00">AsyncClient::operator!=</text>
</a>
</g>
</g>
<!-- Node14&#45;&gt;Node23 -->
<g id="edge13_Node000014_Node000023" class="edge">
<title>Node14&#45;&gt;Node23</title>
<g id="a_edge13_Node000014_Node000023"><a xlink:title=" ">
<path fill="none" stroke="#63b8ff" d="M349.61,-297.66C329.41,-285.2 300.09,-268.32 272.75,-257 265.04,-253.81 256.62,-250.96 248.43,-248.5"/>
<polygon fill="#63b8ff" stroke="#63b8ff" points="347.67,-300.57 358.01,-302.91 351.39,-294.64 347.67,-300.57"/>
</a>
</g>
</g>
<!-- Node24 -->
<g id="Node000024" class="node">
<title>Node24</title>
<g id="a_Node000024"><a xlink:href="class_async_client.html#afaedf716feb9b363fe9b1ee7d82fbe9f" target="_top" xlink:title=" ">
<polygon fill="white" stroke="#666666" points="266,-210 143.5,-210 143.5,-190 266,-190 266,-210"/>
<text xml:space="preserve" text-anchor="middle" x="204.75" y="-196.5" font-family="Helvetica,sans-Serif" font-size="10.00">AsyncClient::operator+=</text>
</a>
</g>
</g>
<!-- Node14&#45;&gt;Node24 -->
<g id="edge14_Node000014_Node000024" class="edge">
<title>Node14&#45;&gt;Node24</title>
<g id="a_edge14_Node000014_Node000024"><a xlink:title=" ">
<path fill="none" stroke="#63b8ff" d="M359.68,-295.16C341.22,-273.69 308.25,-238.98 272.75,-219 266.74,-215.62 260.09,-212.8 253.38,-210.47"/>
<polygon fill="#63b8ff" stroke="#63b8ff" points="356.79,-297.17 365.9,-302.58 362.15,-292.67 356.79,-297.17"/>
</a>
</g>
</g>
<!-- Node14&#45;&gt;Node20 -->
<g id="edge15_Node000014_Node000020" class="edge">
<title>Node14&#45;&gt;Node20</title>
<g id="a_edge15_Node000014_Node000020"><a xlink:title=" ">
<path fill="none" stroke="#63b8ff" d="M368.25,-292.98C355.53,-256.77 324.54,-182.71 272.75,-143 268.24,-139.54 263.13,-136.71 257.79,-134.4"/>
<polygon fill="#63b8ff" stroke="#63b8ff" points="364.87,-293.91 371.38,-302.27 371.5,-291.67 364.87,-293.91"/>
</a>
</g>
</g>
<!-- Node25 -->
<g id="Node000025" class="node">
<title>Node25</title>
<g id="a_Node000025"><a xlink:href="class_async_client.html#a40d147dfec9bbc2e8891273be25c5f39" target="_top" xlink:title=" ">
<polygon fill="white" stroke="#666666" points="266,-172 143.5,-172 143.5,-152 266,-152 266,-172"/>
<text xml:space="preserve" text-anchor="middle" x="204.75" y="-158.5" font-family="Helvetica,sans-Serif" font-size="10.00">AsyncClient::operator==</text>
</a>
</g>
</g>
<!-- Node14&#45;&gt;Node25 -->
<g id="edge16_Node000014_Node000025" class="edge">
<title>Node14&#45;&gt;Node25</title>
<g id="a_edge16_Node000014_Node000025"><a xlink:title=" ">
<path fill="none" stroke="#63b8ff" d="M364.79,-293.58C349.07,-264.22 316.14,-210.42 272.75,-181 267.65,-177.54 261.92,-174.7 256.01,-172.38"/>
<polygon fill="#63b8ff" stroke="#63b8ff" points="361.54,-294.92 369.26,-302.18 367.76,-291.69 361.54,-294.92"/>
</a>
</g>
</g>
<!-- Node27 -->
<g id="Node000027" class="node">
<title>Node27</title>
<g id="a_Node000027"><a xlink:href="class_async_telnet.html#a77dcd8e31b8bfb8b3082de385c5e7792" target="_top" xlink:title=" ">
<polygon fill="white" stroke="#666666" points="254.38,-96 155.12,-96 155.12,-76 254.38,-76 254.38,-96"/>
<text xml:space="preserve" text-anchor="middle" x="204.75" y="-82.5" font-family="Helvetica,sans-Serif" font-size="10.00">AsyncTelnet::begin</text>
</a>
</g>
</g>
<!-- Node26&#45;&gt;Node27 -->
<g id="edge18_Node000026_Node000027" class="edge">
<title>Node26&#45;&gt;Node27</title>
<g id="a_edge18_Node000026_Node000027"><a xlink:title=" ">
<path fill="none" stroke="#63b8ff" d="M315.14,-86C295.4,-86 273.69,-86 254.84,-86"/>
<polygon fill="#63b8ff" stroke="#63b8ff" points="314.99,-89.5 324.99,-86 314.99,-82.5 314.99,-89.5"/>
</a>
</g>
</g>
<!-- Node28 -->
<g id="Node000028" class="node">
<title>Node28</title>
<g id="a_Node000028"><a xlink:href="class_async_telnet_serial.html#a6cf9d6cc49602ff5ac0ec2af846a0d7a" target="_top" xlink:title=" ">
<polygon fill="white" stroke="#666666" points="100.75,-83 0,-83 0,-51 100.75,-51 100.75,-83"/>
<text xml:space="preserve" text-anchor="start" x="8" y="-69.5" font-family="Helvetica,sans-Serif" font-size="10.00">AsyncTelnetSerial::</text>
<text xml:space="preserve" text-anchor="middle" x="50.38" y="-57.5" font-family="Helvetica,sans-Serif" font-size="10.00">begin</text>
</a>
</g>
</g>
<!-- Node26&#45;&gt;Node28 -->
<g id="edge20_Node000026_Node000028" class="edge">
<title>Node26&#45;&gt;Node28</title>
<g id="a_edge20_Node000026_Node000028"><a xlink:title=" ">
<path fill="none" stroke="#63b8ff" d="M317.76,-73.45C303.16,-70.78 287.44,-68.35 272.75,-67 214,-61.59 146.12,-62.67 101.17,-64.4"/>
<polygon fill="#63b8ff" stroke="#63b8ff" points="316.71,-76.81 327.19,-75.25 318.02,-69.94 316.71,-76.81"/>
</a>
</g>
</g>
<!-- Node29 -->
<g id="Node000029" class="node">
<title>Node29</title>
<g id="a_Node000029"><a xlink:href="class_async_client.html#a4bed4e925817d1b918af2ce43fb0859e" target="_top" xlink:title=" ">
<polygon fill="white" stroke="#666666" points="251.75,-20 157.75,-20 157.75,0 251.75,0 251.75,-20"/>
<text xml:space="preserve" text-anchor="middle" x="204.75" y="-6.5" font-family="Helvetica,sans-Serif" font-size="10.00">AsyncClient::stop</text>
</a>
</g>
</g>
<!-- Node26&#45;&gt;Node29 -->
<g id="edge21_Node000026_Node000029" class="edge">
<title>Node26&#45;&gt;Node29</title>
<g id="a_edge21_Node000026_Node000029"><a xlink:title=" ">
<path fill="none" stroke="#63b8ff" d="M317.63,-71.41C314.57,-70.06 311.59,-68.59 308.75,-67 289.81,-56.39 291.33,-45.21 272.75,-34 263.65,-28.51 253.11,-24 243.11,-20.43"/>
<polygon fill="#63b8ff" stroke="#63b8ff" points="316.28,-74.64 326.87,-75.02 318.83,-68.12 316.28,-74.64"/>
</a>
</g>
</g>
<!-- Node27&#45;&gt;Node28 -->
<g id="edge19_Node000027_Node000028" class="edge">
<title>Node27&#45;&gt;Node28</title>
<g id="a_edge19_Node000027_Node000028"><a xlink:title=" ">
<path fill="none" stroke="#63b8ff" d="M143.61,-78.5C129.53,-76.75 114.69,-74.89 101.12,-73.2"/>
<polygon fill="#63b8ff" stroke="#63b8ff" points="142.84,-81.93 153.2,-79.7 143.71,-74.99 142.84,-81.93"/>
</a>
</g>
</g>
</g>
</svg>
