<?xml version="1.0" encoding="UTF-8" standalone="no"?>
<!DOCTYPE svg PUBLIC "-//W3C//DTD SVG 1.1//EN"
 "http://www.w3.org/Graphics/SVG/1.1/DTD/svg11.dtd">
<!-- Generated by graphviz version 14.1.2 (20260124.0452)
 -->
<!-- Title: _init_async_event_queue Pages: 1 -->
<svg width="709pt" height="117pt"
 viewBox="0.00 0.00 709.00 117.00" xmlns="http://www.w3.org/2000/svg" xmlns:xlink="http://www.w3.org/1999/xlink">
<g id="graph0" class="graph" transform="scale(1 1) rotate(0) translate(4 112.77)">
<title>_init_async_event_queue</title>
<!-- Node1 -->
<g id="Node000001" class="node">
<title>Node1</title>
<g id="a_Node000001"><a xlink:title=" ">
<polygon fill="#999999" stroke="#666666" points="701,-58 574.75,-58 574.75,-38 701,-38 701,-58"/>
<text xml:space="preserve" text-anchor="middle" x="637.88" y="-44.5" font-family="Helvetica,sans-Serif" font-size="10.00">_init_async_event_queue</text>
</a>
</g>
</g>
<!-- Node2 -->
<g id="Node000002" class="node">
<title>Node2</title>
<g id="a_Node000002"><a xlink:href="_async_t_c_p_8cpp.html#a4d0de407bcfcc96b61af40aca3156708" target="_top" xlink:title=" ">
<polygon fill="white" stroke="#666666" points="538.75,-58 442.5,-58 442.5,-38 538.75,-38 538.75,-58"/>
<text xml:space="preserve" text-anchor="middle" x="490.62" y="-44.5" font-family="Helvetica,sans-Serif" font-size="10.00">_start_async_task</text>
</a>
</g>
</g>
<!-- Node1&#45;&gt;Node2 -->
<g id="edge1_Node000001_Node000002" class="edge">
<title>Node1&#45;&gt;Node2</title>
<g id="a_edge1_Node000001_Node000002"><a xlink:title=" ">
<path fill="none" stroke="#63b8ff" d="M562.98,-48C554.87,-48 546.77,-48 539.1,-48"/>
<polygon fill="#63b8ff" stroke="#63b8ff" points="562.92,-51.5 572.92,-48 562.92,-44.5 562.92,-51.5"/>
</a>
</g>
</g>
<!-- Node3 -->
<g id="Node000003" class="node">
<title>Node3</title>
<g id="a_Node000003"><a xlink:href="class_async_client.html#a758eaca983e03027c99003a5808883f8" target="_top" xlink:title=" ">
<polygon fill="white" stroke="#666666" points="406.5,-96 291.5,-96 291.5,-76 406.5,-76 406.5,-96"/>
<text xml:space="preserve" text-anchor="middle" x="349" y="-82.5" font-family="Helvetica,sans-Serif" font-size="10.00">AsyncClient::_connect</text>
</a>
</g>
</g>
<!-- Node2&#45;&gt;Node3 -->
<g id="edge2_Node000002_Node000003" class="edge">
<title>Node2&#45;&gt;Node3</title>
<g id="a_edge2_Node000002_Node000003"><a xlink:title=" ">
<path fill="none" stroke="#63b8ff" d="M440.22,-61.45C423.2,-66.08 404.41,-71.19 388.4,-75.55"/>
<polygon fill="#63b8ff" stroke="#63b8ff" points="440.91,-64.89 449.64,-58.88 439.07,-58.13 440.91,-64.89"/>
</a>
</g>
</g>
<!-- Node4 -->
<g id="Node000004" class="node">
<title>Node4</title>
<g id="a_Node000004"><a xlink:href="class_async_client.html#a260e075caca9a58241f2fad754cc412b" target="_top" xlink:title=" ">
<polygon fill="white" stroke="#666666" points="109.75,-96 0,-96 0,-76 109.75,-76 109.75,-96"/>
<text xml:space="preserve" text-anchor="middle" x="54.88" y="-82.5" font-family="Helvetica,sans-Serif" font-size="10.00">AsyncClient::connect</text>
</a>
</g>
</g>
<!-- Node2&#45;&gt;Node4 -->
<g id="edge7_Node000002_Node000004" class="edge">
<title>Node2&#45;&gt;Node4</title>
<g id="a_edge7_Node000002_Node000004"><a xlink:title=" ">
<path fill="none" stroke="#63b8ff" d="M430.71,-48.52C362.02,-49.75 245.21,-53.82 145.75,-67 130.26,-69.05 113.45,-72.32 98.62,-75.57"/>
<polygon fill="#63b8ff" stroke="#63b8ff" points="430.68,-52.02 440.62,-48.36 430.56,-45.02 430.68,-52.02"/>
</a>
</g>
</g>
<!-- Node10 -->
<g id="Node000010" class="node">
<title>Node10</title>
<g id="a_Node000010"><a xlink:href="class_async_server.html#a7e9ce55e4e1d0fab5531bac98ebfb3f9" target="_top" xlink:title=" ">
<polygon fill="white" stroke="#666666" points="399.75,-20 298.25,-20 298.25,0 399.75,0 399.75,-20"/>
<text xml:space="preserve" text-anchor="middle" x="349" y="-6.5" font-family="Helvetica,sans-Serif" font-size="10.00">AsyncServer::begin</text>
</a>
</g>
</g>
<!-- Node2&#45;&gt;Node10 -->
<g id="edge6_Node000002_Node000010" class="edge">
<title>Node2&#45;&gt;Node10</title>
<g id="a_edge6_Node000002_Node000010"><a xlink:title=" ">
<path fill="none" stroke="#63b8ff" d="M440.22,-34.55C423.2,-29.92 404.41,-24.81 388.4,-20.45"/>
<polygon fill="#63b8ff" stroke="#63b8ff" points="439.07,-37.87 449.64,-37.12 440.91,-31.11 439.07,-37.87"/>
</a>
</g>
</g>
<!-- Node3&#45;&gt;Node4 -->
<g id="edge3_Node000003_Node000004" class="edge">
<title>Node3&#45;&gt;Node4</title>
<g id="a_edge3_Node000003_Node000004"><a xlink:title=" ">
<path fill="none" stroke="#63b8ff" d="M295.29,-98.75C282.36,-101.34 268.49,-103.68 255.5,-105 206.97,-109.93 194.26,-110.07 145.75,-105 129.41,-103.29 111.67,-99.88 96.3,-96.42"/>
<polygon fill="#63b8ff" stroke="#63b8ff" points="295.83,-102.21 304.89,-96.73 294.39,-95.36 295.83,-102.21"/>
</a>
</g>
</g>
<!-- Node5 -->
<g id="Node000005" class="node">
<title>Node5</title>
<g id="a_Node000005"><a xlink:href="class_async_client.html#aaa5b952568c85d25c32d0dff8ec74794" target="_top" xlink:title=" ">
<polygon fill="#fff0f0" stroke="red" points="255.5,-96 145.75,-96 145.75,-76 255.5,-76 255.5,-96"/>
<text xml:space="preserve" text-anchor="middle" x="200.62" y="-82.5" font-family="Helvetica,sans-Serif" font-size="10.00">AsyncClient::connect</text>
</a>
</g>
</g>
<!-- Node3&#45;&gt;Node5 -->
<g id="edge4_Node000003_Node000005" class="edge">
<title>Node3&#45;&gt;Node5</title>
<g id="a_edge4_Node000003_Node000005"><a xlink:title=" ">
<path fill="none" stroke="#63b8ff" d="M279.98,-86C271.82,-86 263.58,-86 255.66,-86"/>
<polygon fill="#63b8ff" stroke="#63b8ff" points="279.89,-89.5 289.89,-86 279.89,-82.5 279.89,-89.5"/>
</a>
</g>
</g>
<!-- Node5&#45;&gt;Node4 -->
<g id="edge5_Node000005_Node000004" class="edge">
<title>Node5&#45;&gt;Node4</title>
<g id="a_edge5_Node000005_Node000004"><a xlink:title=" ">
<path fill="none" stroke="#63b8ff" d="M133.97,-86C125.89,-86 117.7,-86 109.82,-86"/>
<polygon fill="#63b8ff" stroke="#63b8ff" points="133.77,-89.5 143.77,-86 133.77,-82.5 133.77,-89.5"/>
</a>
</g>
</g>
</g>
</svg>
