<?xml version="1.0" encoding="UTF-8" standalone="no"?>
<!DOCTYPE svg PUBLIC "-//W3C//DTD SVG 1.1//EN"
 "http://www.w3.org/Graphics/SVG/1.1/DTD/svg11.dtd">
<!-- Generated by graphviz version 14.1.2 (20260124.0452)
 -->
<!-- Title: _prepend_async_event Pages: 1 -->
<svg width="886pt" height="251pt"
 viewBox="0.00 0.00 886.00 251.00" xmlns="http://www.w3.org/2000/svg" xmlns:xlink="http://www.w3.org/1999/xlink">
<g id="graph0" class="graph" transform="scale(1 1) rotate(0) translate(4 247.05)">
<title>_prepend_async_event</title>
<!-- Node1 -->
<g id="Node000001" class="node">
<title>Node1</title>
<g id="a_Node000001"><a xlink:title=" ">
<polygon fill="#999999" stroke="#666666" points="877.5,-124 761,-124 761,-104 877.5,-104 877.5,-124"/>
<text xml:space="preserve" text-anchor="middle" x="819.25" y="-110.5" font-family="Helvetica,sans-Serif" font-size="10.00">_prepend_async_event</text>
</a>
</g>
</g>
<!-- Node2 -->
<g id="Node000002" class="node">
<title>Node2</title>
<g id="a_Node000002"><a xlink:href="_async_t_c_p_8cpp.html#ab02a78d0cd56732252f0c2c27f286369" target="_top" xlink:title=" ">
<polygon fill="white" stroke="#666666" points="711.88,-214 642.62,-214 642.62,-194 711.88,-194 711.88,-214"/>
<text xml:space="preserve" text-anchor="middle" x="677.25" y="-200.5" font-family="Helvetica,sans-Serif" font-size="10.00">_tcp_accept</text>
</a>
</g>
</g>
<!-- Node1&#45;&gt;Node2 -->
<g id="edge1_Node000001_Node000002" class="edge">
<title>Node1&#45;&gt;Node2</title>
<g id="a_edge1_Node000001_Node000002"><a xlink:title=" ">
<path fill="none" stroke="#63b8ff" d="M792.86,-130.32C764.29,-148.69 718.73,-177.98 694.55,-193.52"/>
<polygon fill="#63b8ff" stroke="#63b8ff" points="794.4,-133.49 800.92,-125.14 790.61,-127.61 794.4,-133.49"/>
</a>
</g>
</g>
<!-- Node6 -->
<g id="Node000006" class="node">
<title>Node6</title>
<g id="a_Node000006"><a xlink:href="_async_t_c_p_8cpp.html#ab053d5adb5be879f37181af512213bb6" target="_top" xlink:title=" ">
<polygon fill="white" stroke="#666666" points="725,-124 629.5,-124 629.5,-104 725,-104 725,-124"/>
<text xml:space="preserve" text-anchor="middle" x="677.25" y="-110.5" font-family="Helvetica,sans-Serif" font-size="10.00">_tcp_clear_events</text>
</a>
</g>
</g>
<!-- Node1&#45;&gt;Node6 -->
<g id="edge4_Node000001_Node000006" class="edge">
<title>Node1&#45;&gt;Node6</title>
<g id="a_edge4_Node000001_Node000006"><a xlink:title=" ">
<path fill="none" stroke="#63b8ff" d="M749.48,-114C741.35,-114 733.2,-114 725.47,-114"/>
<polygon fill="#63b8ff" stroke="#63b8ff" points="749.39,-117.5 759.39,-114 749.39,-110.5 749.39,-117.5"/>
</a>
</g>
</g>
<!-- Node26 -->
<g id="Node000026" class="node">
<title>Node26</title>
<g id="a_Node000026"><a xlink:href="_async_t_c_p_8cpp.html#aceddc1345284b96d9d3618c7b01ecede" target="_top" xlink:title=" ">
<polygon fill="white" stroke="#666666" points="719.75,-77 634.75,-77 634.75,-57 719.75,-57 719.75,-77"/>
<text xml:space="preserve" text-anchor="middle" x="677.25" y="-63.5" font-family="Helvetica,sans-Serif" font-size="10.00">_tcp_connected</text>
</a>
</g>
</g>
<!-- Node1&#45;&gt;Node26 -->
<g id="edge15_Node000001_Node000026" class="edge">
<title>Node1&#45;&gt;Node26</title>
<g id="a_edge15_Node000001_Node000026"><a xlink:title=" ">
<path fill="none" stroke="#63b8ff" d="M776.35,-99.93C754.79,-92.7 728.97,-84.03 709.23,-77.4"/>
<polygon fill="#63b8ff" stroke="#63b8ff" points="775.15,-103.22 785.74,-103.09 777.38,-96.59 775.15,-103.22"/>
</a>
</g>
</g>
<!-- Node3 -->
<g id="Node000003" class="node">
<title>Node3</title>
<g id="a_Node000003"><a xlink:href="class_async_server.html#a51e55999b79eec50bd68e899b8ddd4e4" target="_top" xlink:title=" ">
<polygon fill="white" stroke="#666666" points="272,-219 159.25,-219 159.25,-199 272,-199 272,-219"/>
<text xml:space="preserve" text-anchor="middle" x="215.62" y="-205.5" font-family="Helvetica,sans-Serif" font-size="10.00">AsyncServer::_accept</text>
</a>
</g>
</g>
<!-- Node2&#45;&gt;Node3 -->
<g id="edge2_Node000002_Node000003" class="edge">
<title>Node2&#45;&gt;Node3</title>
<g id="a_edge2_Node000002_Node000003"><a xlink:title=" ">
<path fill="none" stroke="#63b8ff" d="M631.36,-214.87C561.8,-230.17 423.91,-254.36 308,-237 285.68,-233.66 261.29,-225.96 243.32,-219.49"/>
<polygon fill="#63b8ff" stroke="#63b8ff" points="631.86,-218.34 640.85,-212.74 630.33,-211.51 631.86,-218.34"/>
</a>
</g>
</g>
<!-- Node4 -->
<g id="Node000004" class="node">
<title>Node4</title>
<g id="a_Node000004"><a xlink:href="class_async_server.html#a9cfd997e84bd4ba394f3225863536d5e" target="_top" xlink:title=" ">
<polygon fill="#fff0f0" stroke="red" points="123.25,-219 0,-219 0,-199 123.25,-199 123.25,-219"/>
<text xml:space="preserve" text-anchor="middle" x="61.62" y="-205.5" font-family="Helvetica,sans-Serif" font-size="10.00">AsyncServer::_s_accept</text>
</a>
</g>
</g>
<!-- Node3&#45;&gt;Node4 -->
<g id="edge3_Node000003_Node000004" class="edge">
<title>Node3&#45;&gt;Node4</title>
<g id="a_edge3_Node000003_Node000004"><a xlink:title=" ">
<path fill="none" stroke="#63b8ff" d="M147.46,-209C139.56,-209 131.54,-209 123.74,-209"/>
<polygon fill="#63b8ff" stroke="#63b8ff" points="147.38,-212.5 157.38,-209 147.38,-205.5 147.38,-212.5"/>
</a>
</g>
</g>
<!-- Node7 -->
<g id="Node000007" class="node">
<title>Node7</title>
<g id="a_Node000007"><a xlink:href="class_async_client.html#a98ff872bc84919f006f3bb8a249ed36d" target="_top" xlink:title=" ">
<polygon fill="white" stroke="#666666" points="587.88,-134 484.12,-134 484.12,-114 587.88,-114 587.88,-134"/>
<text xml:space="preserve" text-anchor="middle" x="536" y="-120.5" font-family="Helvetica,sans-Serif" font-size="10.00">AsyncClient::_close</text>
</a>
</g>
</g>
<!-- Node6&#45;&gt;Node7 -->
<g id="edge5_Node000006_Node000007" class="edge">
<title>Node6&#45;&gt;Node7</title>
<g id="a_edge5_Node000006_Node000007"><a xlink:title=" ">
<path fill="none" stroke="#63b8ff" d="M617.68,-118.21C607.79,-118.92 597.59,-119.65 587.91,-120.34"/>
<polygon fill="#63b8ff" stroke="#63b8ff" points="617.87,-121.7 627.6,-117.49 617.37,-114.72 617.87,-121.7"/>
</a>
</g>
</g>
<!-- Node24 -->
<g id="Node000024" class="node">
<title>Node24</title>
<g id="a_Node000024"><a xlink:href="class_async_client.html#afe295b6c577021c8946eb266ac41df51" target="_top" xlink:title=" ">
<polygon fill="white" stroke="#666666" points="581.5,-96 490.5,-96 490.5,-76 581.5,-76 581.5,-96"/>
<text xml:space="preserve" text-anchor="middle" x="536" y="-82.5" font-family="Helvetica,sans-Serif" font-size="10.00">AsyncClient::_fin</text>
</a>
</g>
</g>
<!-- Node6&#45;&gt;Node24 -->
<g id="edge13_Node000006_Node000024" class="edge">
<title>Node6&#45;&gt;Node24</title>
<g id="a_edge13_Node000006_Node000024"><a xlink:title=" ">
<path fill="none" stroke="#63b8ff" d="M618.12,-102.31C605.96,-99.87 593.32,-97.33 581.74,-95"/>
<polygon fill="#63b8ff" stroke="#63b8ff" points="617.13,-105.68 627.62,-104.22 618.51,-98.82 617.13,-105.68"/>
</a>
</g>
</g>
<!-- Node8 -->
<g id="Node000008" class="node">
<title>Node8</title>
<g id="a_Node000008"><a xlink:href="class_async_client.html#a383d1cb7d684d328362caa5eafc92ca2" target="_top" xlink:title=" ">
<polygon fill="#fff0f0" stroke="red" points="423,-228 327.5,-228 327.5,-208 423,-208 423,-228"/>
<text xml:space="preserve" text-anchor="middle" x="375.25" y="-214.5" font-family="Helvetica,sans-Serif" font-size="10.00">AsyncClient::_poll</text>
</a>
</g>
</g>
<!-- Node7&#45;&gt;Node8 -->
<g id="edge6_Node000007_Node000008" class="edge">
<title>Node7&#45;&gt;Node8</title>
<g id="a_edge6_Node000007_Node000008"><a xlink:title=" ">
<path fill="none" stroke="#63b8ff" d="M517.01,-142.35C499.44,-159.29 471.23,-184.03 442.5,-199 436.03,-202.37 428.88,-205.22 421.74,-207.59"/>
<polygon fill="#63b8ff" stroke="#63b8ff" points="519.44,-144.87 524.09,-135.35 514.52,-139.89 519.44,-144.87"/>
</a>
</g>
</g>
<!-- Node18 -->
<g id="Node000018" class="node">
<title>Node18</title>
<g id="a_Node000018"><a xlink:href="class_async_client.html#aefecfa0c75c8c1b32104115e93739087" target="_top" xlink:title=" ">
<polygon fill="white" stroke="#666666" points="439.5,-172 311,-172 311,-152 439.5,-152 439.5,-172"/>
<text xml:space="preserve" text-anchor="middle" x="375.25" y="-158.5" font-family="Helvetica,sans-Serif" font-size="10.00">AsyncClient::AsyncClient</text>
</a>
</g>
</g>
<!-- Node7&#45;&gt;Node18 -->
<g id="edge7_Node000007_Node000018" class="edge">
<title>Node7&#45;&gt;Node18</title>
<g id="a_edge7_Node000007_Node000018"><a xlink:title=" ">
<path fill="none" stroke="#63b8ff" d="M480.21,-137.12C460.5,-141.83 438.54,-147.09 419.91,-151.55"/>
<polygon fill="#63b8ff" stroke="#63b8ff" points="480.82,-140.57 489.73,-134.84 479.19,-133.76 480.82,-140.57"/>
</a>
</g>
</g>
<!-- Node19 -->
<g id="Node000019" class="node">
<title>Node19</title>
<g id="a_Node000019"><a xlink:href="class_async_client.html#a0305fe0b036257c03829ceaa5cc43361" target="_top" xlink:title="close connection">
<polygon fill="#fff0f0" stroke="red" points="424.5,-134 326,-134 326,-114 424.5,-114 424.5,-134"/>
<text xml:space="preserve" text-anchor="middle" x="375.25" y="-120.5" font-family="Helvetica,sans-Serif" font-size="10.00">AsyncClient::close</text>
</a>
</g>
</g>
<!-- Node7&#45;&gt;Node19 -->
<g id="edge10_Node000007_Node000019" class="edge">
<title>Node7&#45;&gt;Node19</title>
<g id="a_edge10_Node000007_Node000019"><a xlink:title=" ">
<path fill="none" stroke="#63b8ff" d="M472.55,-124C456.69,-124 439.88,-124 424.83,-124"/>
<polygon fill="#63b8ff" stroke="#63b8ff" points="472.38,-127.5 482.38,-124 472.38,-120.5 472.38,-127.5"/>
</a>
</g>
</g>
<!-- Node22 -->
<g id="Node000022" class="node">
<title>Node22</title>
<g id="a_Node000022"><a xlink:href="class_async_client.html#a575c12664279634155259e007c6a104f" target="_top" xlink:title=" ">
<polygon fill="white" stroke="#666666" points="433.5,-96 317,-96 317,-76 433.5,-76 433.5,-96"/>
<text xml:space="preserve" text-anchor="middle" x="375.25" y="-82.5" font-family="Helvetica,sans-Serif" font-size="10.00">AsyncClient::operator=</text>
</a>
</g>
</g>
<!-- Node7&#45;&gt;Node22 -->
<g id="edge11_Node000007_Node000022" class="edge">
<title>Node7&#45;&gt;Node22</title>
<g id="a_edge11_Node000007_Node000022"><a xlink:title=" ">
<path fill="none" stroke="#63b8ff" d="M480.21,-110.88C460.5,-106.17 438.54,-100.91 419.91,-96.45"/>
<polygon fill="#63b8ff" stroke="#63b8ff" points="479.19,-114.24 489.73,-113.16 480.82,-107.43 479.19,-114.24"/>
</a>
</g>
</g>
<!-- Node23 -->
<g id="Node000023" class="node">
<title>Node23</title>
<g id="a_Node000023"><a xlink:href="class_async_client.html#a4044bdcfd2ca6197f75200644685c5f0" target="_top" xlink:title=" ">
<polygon fill="white" stroke="#666666" points="442.5,-58 308,-58 308,-38 442.5,-38 442.5,-58"/>
<text xml:space="preserve" text-anchor="middle" x="375.25" y="-44.5" font-family="Helvetica,sans-Serif" font-size="10.00">AsyncClient::~AsyncClient</text>
</a>
</g>
</g>
<!-- Node7&#45;&gt;Node23 -->
<g id="edge12_Node000007_Node000023" class="edge">
<title>Node7&#45;&gt;Node23</title>
<g id="a_edge12_Node000007_Node000023"><a xlink:title=" ">
<path fill="none" stroke="#63b8ff" d="M485.16,-108.82C482.86,-107.63 480.63,-106.36 478.5,-105 458.89,-92.48 462.38,-79.08 442.5,-67 436.88,-63.58 430.61,-60.76 424.24,-58.43"/>
<polygon fill="#63b8ff" stroke="#63b8ff" points="483.63,-111.97 494.18,-112.9 486.51,-105.59 483.63,-111.97"/>
</a>
</g>
</g>
<!-- Node18&#45;&gt;Node3 -->
<g id="edge8_Node000018_Node000003" class="edge">
<title>Node18&#45;&gt;Node3</title>
<g id="a_edge8_Node000018_Node000003"><a xlink:title=" ">
<path fill="none" stroke="#63b8ff" d="M328.45,-175.66C304,-182.95 274.39,-191.78 251.78,-198.52"/>
<polygon fill="#63b8ff" stroke="#63b8ff" points="329.23,-179.07 337.82,-172.86 327.23,-172.37 329.23,-179.07"/>
</a>
</g>
</g>
<!-- Node18&#45;&gt;Node18 -->
<g id="edge9_Node000018_Node000018" class="edge">
<title>Node18&#45;&gt;Node18</title>
<g id="a_edge9_Node000018_Node000018"><a xlink:title=" ">
<path fill="none" stroke="#63b8ff" d="M403.46,-183.44C399.83,-187.3 390.42,-190 375.25,-190 347.5,-190 339.05,-180.98 349.89,-172.34"/>
<polygon fill="#63b8ff" stroke="#63b8ff" points="406.87,-182.62 400.99,-173.8 400.09,-184.36 406.87,-182.62"/>
</a>
</g>
</g>
<!-- Node25 -->
<g id="Node000025" class="node">
<title>Node25</title>
<g id="a_Node000025"><a xlink:href="class_async_client.html#a6a69c67e1a22660766affb64700c2276" target="_top" xlink:title=" ">
<polygon fill="#fff0f0" stroke="red" points="426,-20 324.5,-20 324.5,0 426,0 426,-20"/>
<text xml:space="preserve" text-anchor="middle" x="375.25" y="-6.5" font-family="Helvetica,sans-Serif" font-size="10.00">AsyncClient::_s_fin</text>
</a>
</g>
</g>
<!-- Node24&#45;&gt;Node25 -->
<g id="edge14_Node000024_Node000025" class="edge">
<title>Node24&#45;&gt;Node25</title>
<g id="a_edge14_Node000024_Node000025"><a xlink:title=" ">
<path fill="none" stroke="#63b8ff" d="M485.16,-70.82C482.86,-69.63 480.63,-68.36 478.5,-67 458.89,-54.48 462.38,-41.08 442.5,-29 436.88,-25.58 430.61,-22.76 424.24,-20.43"/>
<polygon fill="#63b8ff" stroke="#63b8ff" points="483.63,-73.97 494.18,-74.9 486.51,-67.59 483.63,-73.97"/>
</a>
</g>
</g>
<!-- Node13 -->
<g id="Node000013" class="node">
<title>Node13</title>
<g id="a_Node000013"><a xlink:href="class_async_client.html#a758eaca983e03027c99003a5808883f8" target="_top" xlink:title=" ">
<polygon fill="#fff0f0" stroke="red" points="593.5,-58 478.5,-58 478.5,-38 593.5,-38 593.5,-58"/>
<text xml:space="preserve" text-anchor="middle" x="536" y="-44.5" font-family="Helvetica,sans-Serif" font-size="10.00">AsyncClient::_connect</text>
</a>
</g>
</g>
<!-- Node26&#45;&gt;Node13 -->
<g id="edge16_Node000026_Node000013" class="edge">
<title>Node26&#45;&gt;Node13</title>
<g id="a_edge16_Node000026_Node000013"><a xlink:title=" ">
<path fill="none" stroke="#63b8ff" d="M623.1,-59.75C613.56,-58.45 603.59,-57.09 593.94,-55.77"/>
<polygon fill="#63b8ff" stroke="#63b8ff" points="622.59,-63.21 632.97,-61.09 623.54,-56.27 622.59,-63.21"/>
</a>
</g>
</g>
</g>
</svg>
