<?xml version="1.0" encoding="UTF-8" standalone="no"?>
<!DOCTYPE svg PUBLIC "-//W3C//DTD SVG 1.1//EN"
 "http://www.w3.org/Graphics/SVG/1.1/DTD/svg11.dtd">
<!-- Generated by graphviz version 14.1.2 (20260124.0452)
 -->
<!-- Title: _tcp_recv Pages: 1 -->
<!--zoomable 458 -->

<svg id="main" version="1.1" xmlns="http://www.w3.org/2000/svg" xmlns:xlink="http://www.w3.org/1999/xlink" xml:space="preserve" onload="init(evt)">

<style type="text/css"><![CDATA[
.node, .edge {opacity: 0.7;}
.node.selected, .edge.selected {opacity: 1;}
.edge:hover path { stroke: red; }
.edge:hover polygon { stroke: red; fill: red; }
]]></style>

<defs>
  <circle id="rim" cx="0" cy="0" r="7"/>
  <circle id="rim2" cx="0" cy="0" r="3.5"/>
  <g id="zoomPlus">
    <use xlink:href="#rim" fill="#404040"><set attributeName="fill" to="#808080" begin="zoomplus.mouseover" end="zoomplus.mouseout"/></use>
    <path d="M-4,0h8M0,-4v8" fill="none" stroke="white" stroke-width="1.5" pointer-events="none"/>
  </g>
  <g id="zoomMin">
    <use xlink:href="#rim" fill="#404040"><set attributeName="fill" to="#808080" begin="zoomminus.mouseover" end="zoomminus.mouseout"/></use>
    <path d="M-4,0h8" fill="none" stroke="white" stroke-width="1.5" pointer-events="none"/>
  </g>
  <g id="arrowUp" transform="translate(30 24)">
    <use xlink:href="#rim"/>
    <path pointer-events="none" fill="none" stroke="white" stroke-width="1.5" d="M0,-3.0v7 M-2.5,-0.5L0,-3.0L2.5,-0.5"/>
  </g>
  <g id="arrowRight" transform="rotate(90) translate(36 -43)">
    <use xlink:href="#rim"/>
    <path pointer-events="none" fill="none" stroke="white" stroke-width="1.5" d="M0,-3.0v7 M-2.5,-0.5L0,-3.0L2.5,-0.5"/>
  </g>
  <g id="arrowDown" transform="rotate(180) translate(-30 -48)">
    <use xlink:href="#rim"/>
    <path pointer-events="none" fill="none" stroke="white" stroke-width="1.5" d="M0,-3.0v7 M-2.5,-0.5L0,-3.0L2.5,-0.5"/>
  </g>
  <g id="arrowLeft" transform="rotate(270) translate(-36 17)">
    <use xlink:href="#rim"/>
    <path pointer-events="none" fill="none" stroke="white" stroke-width="1.5" d="M0,-3.0v7 M-2.5,-0.5L0,-3.0L2.5,-0.5"/>
  </g>
  <g id="resetDef">
    <use xlink:href="#rim2" fill="#404040"><set attributeName="fill" to="#808080" begin="reset.mouseover" end="reset.mouseout"/></use>
  </g>
</defs>
<script type="application/ecmascript">
var viewWidth = 847;
var viewHeight = 458;
var sectionId = 'dynsection-44';
</script>
<script type="application/ecmascript" xlink:href="svg.min.js"/>
<svg id="graph" class="graph">
<g id="viewport">
<title>_tcp_recv</title>
<!-- Node1 -->
<g id="Node000001" class="node">
<title>Node1</title>
<g id="a_Node000001"><a xlink:title=" ">
<polygon fill="#999999" stroke="#666666" points="838.5,-149 779.75,-149 779.75,-129 838.5,-129 838.5,-149"/>
<text xml:space="preserve" text-anchor="middle" x="809.12" y="-135.5" font-family="Helvetica,sans-Serif" font-size="10.00">_tcp_recv</text>
</a>
</g>
</g>
<!-- Node2 -->
<g id="Node000002" class="node">
<title>Node2</title>
<g id="a_Node000002"><a xlink:href="class_async_client.html#a758eaca983e03027c99003a5808883f8" target="_top" xlink:title=" ">
<polygon fill="white" stroke="#666666" points="743.75,-327 628.75,-327 628.75,-307 743.75,-307 743.75,-327"/>
<text xml:space="preserve" text-anchor="middle" x="686.25" y="-313.5" font-family="Helvetica,sans-Serif" font-size="10.00">AsyncClient::_connect</text>
</a>
</g>
</g>
<!-- Node1&#45;&gt;Node2 -->
<g id="edge1_Node000001_Node000002" class="edge">
<title>Node1&#45;&gt;Node2</title>
<g id="a_edge1_Node000001_Node000002"><a xlink:title=" ">
<path fill="none" stroke="#63b8ff" d="M794.7,-158.76C769.04,-196.55 713.84,-277.84 694.29,-306.63"/>
<polygon fill="#63b8ff" stroke="#63b8ff" points="797.53,-160.83 800.25,-150.59 791.74,-156.9 797.53,-160.83"/>
</a>
</g>
</g>
<!-- Node11 -->
<g id="Node000011" class="node">
<title>Node11</title>
<g id="a_Node000011"><a xlink:href="class_async_client.html#aefecfa0c75c8c1b32104115e93739087" target="_top" xlink:title=" ">
<polygon fill="white" stroke="#666666" points="447,-210 318.5,-210 318.5,-190 447,-190 447,-210"/>
<text xml:space="preserve" text-anchor="middle" x="382.75" y="-196.5" font-family="Helvetica,sans-Serif" font-size="10.00">AsyncClient::AsyncClient</text>
</a>
</g>
</g>
<!-- Node1&#45;&gt;Node11 -->
<g id="edge8_Node000001_Node000011" class="edge">
<title>Node1&#45;&gt;Node11</title>
<g id="a_edge8_Node000001_Node000011"><a xlink:title=" ">
<path fill="none" stroke="#63b8ff" d="M768.19,-144.74C694.32,-155.36 535.84,-178.14 447.16,-190.89"/>
<polygon fill="#63b8ff" stroke="#63b8ff" points="768.39,-148.25 777.79,-143.36 767.4,-141.32 768.39,-148.25"/>
</a>
</g>
</g>
<!-- Node21 -->
<g id="Node000021" class="node">
<title>Node21</title>
<g id="a_Node000021"><a xlink:href="class_async_client.html#a575c12664279634155259e007c6a104f" target="_top" xlink:title=" ">
<polygon fill="white" stroke="#666666" points="272.75,-20 156.25,-20 156.25,0 272.75,0 272.75,-20"/>
<text xml:space="preserve" text-anchor="middle" x="214.5" y="-6.5" font-family="Helvetica,sans-Serif" font-size="10.00">AsyncClient::operator=</text>
</a>
</g>
</g>
<!-- Node1&#45;&gt;Node21 -->
<g id="edge28_Node000001_Node000021" class="edge">
<title>Node1&#45;&gt;Node21</title>
<g id="a_edge28_Node000001_Node000021"><a xlink:title=" ">
<path fill="none" stroke="#63b8ff" d="M779.02,-123.55C768.19,-118.31 755.64,-112.82 743.75,-109 577.18,-55.52 371.23,-27.27 272.95,-15.98"/>
<polygon fill="#63b8ff" stroke="#63b8ff" points="777.33,-126.62 787.84,-127.96 780.47,-120.36 777.33,-126.62"/>
</a>
</g>
</g>
<!-- Node3 -->
<g id="Node000003" class="node">
<title>Node3</title>
<g id="a_Node000003"><a xlink:href="class_async_client.html#a260e075caca9a58241f2fad754cc412b" target="_top" xlink:title=" ">
<polygon fill="white" stroke="#666666" points="437.62,-327 327.88,-327 327.88,-307 437.62,-307 437.62,-327"/>
<text xml:space="preserve" text-anchor="middle" x="382.75" y="-313.5" font-family="Helvetica,sans-Serif" font-size="10.00">AsyncClient::connect</text>
</a>
</g>
</g>
<!-- Node2&#45;&gt;Node3 -->
<g id="edge2_Node000002_Node000003" class="edge">
<title>Node2&#45;&gt;Node3</title>
<g id="a_edge2_Node000002_Node000003"><a xlink:title=" ">
<path fill="none" stroke="#63b8ff" d="M617.3,-317C563.08,-317 488.15,-317 437.92,-317"/>
<polygon fill="#63b8ff" stroke="#63b8ff" points="617.03,-320.5 627.03,-317 617.03,-313.5 617.03,-320.5"/>
</a>
</g>
</g>
<!-- Node4 -->
<g id="Node000004" class="node">
<title>Node4</title>
<g id="a_Node000004"><a xlink:href="class_async_client.html#aaa5b952568c85d25c32d0dff8ec74794" target="_top" xlink:title=" ">
<polygon fill="white" stroke="#666666" points="592.75,-365 483,-365 483,-345 592.75,-345 592.75,-365"/>
<text xml:space="preserve" text-anchor="middle" x="537.88" y="-351.5" font-family="Helvetica,sans-Serif" font-size="10.00">AsyncClient::connect</text>
</a>
</g>
</g>
<!-- Node2&#45;&gt;Node4 -->
<g id="edge3_Node000002_Node000004" class="edge">
<title>Node2&#45;&gt;Node4</title>
<g id="a_edge3_Node000002_Node000004"><a xlink:title=" ">
<path fill="none" stroke="#63b8ff" d="M633.97,-330.31C615.99,-334.98 596.07,-340.15 579.13,-344.55"/>
<polygon fill="#63b8ff" stroke="#63b8ff" points="634.6,-333.77 643.4,-327.86 632.84,-326.99 634.6,-333.77"/>
</a>
</g>
</g>
<!-- Node4&#45;&gt;Node3 -->
<g id="edge7_Node000004_Node000003" class="edge">
<title>Node4&#45;&gt;Node3</title>
<g id="a_edge7_Node000004_Node000003"><a xlink:title=" ">
<path fill="none" stroke="#63b8ff" d="M483.49,-341.75C464.62,-337.07 443.67,-331.87 425.86,-327.45"/>
<polygon fill="#63b8ff" stroke="#63b8ff" points="482.61,-345.14 493.16,-344.15 484.3,-338.35 482.61,-345.14"/>
</a>
</g>
</g>
<!-- Node5 -->
<g id="Node000005" class="node">
<title>Node5</title>
<g id="a_Node000005"><a xlink:href="class_async_client.html#a19dc40652b5b003288e10529ee169b65" target="_top" xlink:title=" ">
<polygon fill="white" stroke="#666666" points="445.5,-404 320,-404 320,-384 445.5,-384 445.5,-404"/>
<text xml:space="preserve" text-anchor="middle" x="382.75" y="-390.5" font-family="Helvetica,sans-Serif" font-size="10.00">AsyncClient::_dns_found</text>
</a>
</g>
</g>
<!-- Node4&#45;&gt;Node5 -->
<g id="edge4_Node000004_Node000005" class="edge">
<title>Node4&#45;&gt;Node5</title>
<g id="a_edge4_Node000004_Node000005"><a xlink:title=" ">
<path fill="none" stroke="#63b8ff" d="M484.94,-368.23C465.35,-373.22 443.36,-378.82 424.9,-383.52"/>
<polygon fill="#63b8ff" stroke="#63b8ff" points="485.55,-371.68 494.37,-365.82 483.82,-364.9 485.55,-371.68"/>
</a>
</g>
</g>
<!-- Node6 -->
<g id="Node000006" class="node">
<title>Node6</title>
<g id="a_Node000006"><a xlink:href="class_async_client.html#a3f629c9072da183879a9c67878b374cc" target="_top" xlink:title=" ">
<polygon fill="white" stroke="#666666" points="267.88,-450 161.12,-450 161.12,-418 267.88,-418 267.88,-450"/>
<text xml:space="preserve" text-anchor="start" x="169.12" y="-436.5" font-family="Helvetica,sans-Serif" font-size="10.00">AsyncClient::_s_dns</text>
<text xml:space="preserve" text-anchor="middle" x="214.5" y="-424.5" font-family="Helvetica,sans-Serif" font-size="10.00">_found</text>
</a>
</g>
</g>
<!-- Node5&#45;&gt;Node6 -->
<g id="edge5_Node000005_Node000006" class="edge">
<title>Node5&#45;&gt;Node6</title>
<g id="a_edge5_Node000005_Node000006"><a xlink:title=" ">
<path fill="none" stroke="#63b8ff" d="M327.34,-407.09C308.38,-411.65 287.15,-416.76 268.32,-421.29"/>
<polygon fill="#63b8ff" stroke="#63b8ff" points="328.13,-410.5 337.03,-404.76 326.49,-403.7 328.13,-410.5"/>
</a>
</g>
</g>
<!-- Node7 -->
<g id="Node000007" class="node">
<title>Node7</title>
<g id="a_Node000007"><a xlink:href="_async_t_c_p_8cpp.html#ac4030e968c0e4c0fcbe7a9b4502854c1" target="_top" xlink:title=" ">
<polygon fill="#fff0f0" stroke="red" points="110.5,-286 0,-286 0,-266 110.5,-266 110.5,-286"/>
<text xml:space="preserve" text-anchor="middle" x="55.25" y="-272.5" font-family="Helvetica,sans-Serif" font-size="10.00">_handle_async_event</text>
</a>
</g>
</g>
<!-- Node6&#45;&gt;Node7 -->
<g id="edge6_Node000006_Node000007" class="edge">
<title>Node6&#45;&gt;Node7</title>
<g id="a_edge6_Node000006_Node000007"><a xlink:title=" ">
<path fill="none" stroke="#63b8ff" d="M151.2,-412.4C149.58,-411.32 148.01,-410.19 146.5,-409 101.95,-374.01 71.31,-310.88 60.53,-286.24"/>
<polygon fill="#63b8ff" stroke="#63b8ff" points="149.23,-415.3 159.63,-417.32 152.75,-409.26 149.23,-415.3"/>
</a>
</g>
</g>
<!-- Node11&#45;&gt;Node6 -->
<g id="edge11_Node000011_Node000006" class="edge">
<title>Node11&#45;&gt;Node6</title>
<g id="a_edge11_Node000011_Node000006"><a xlink:title=" ">
<path fill="none" stroke="#63b8ff" d="M366.98,-219.51C353.01,-238.67 332.2,-269.16 318.5,-298 296.25,-344.85 318.37,-371.54 282.5,-409 278.38,-413.3 273.45,-416.87 268.15,-419.83"/>
<polygon fill="#63b8ff" stroke="#63b8ff" points="369.73,-221.68 372.87,-211.56 364.11,-217.51 369.73,-221.68"/>
</a>
</g>
</g>
<!-- Node12 -->
<g id="Node000012" class="node">
<title>Node12</title>
<g id="a_Node000012"><a xlink:href="class_async_client.html#ac4cdb0990fa85f03da98d1c98b1f8611" target="_top" xlink:title=" ">
<polygon fill="white" stroke="#666666" points="282.5,-210 146.5,-210 146.5,-190 282.5,-190 282.5,-210"/>
<text xml:space="preserve" text-anchor="middle" x="214.5" y="-196.5" font-family="Helvetica,sans-Serif" font-size="10.00">AsyncClient::_s_connected</text>
</a>
</g>
</g>
<!-- Node11&#45;&gt;Node12 -->
<g id="edge9_Node000011_Node000012" class="edge">
<title>Node11&#45;&gt;Node12</title>
<g id="a_edge9_Node000011_Node000012"><a xlink:title=" ">
<path fill="none" stroke="#63b8ff" d="M307.09,-200C299,-200 290.8,-200 282.8,-200"/>
<polygon fill="#63b8ff" stroke="#63b8ff" points="306.91,-203.5 316.91,-200 306.91,-196.5 306.91,-203.5"/>
</a>
</g>
</g>
<!-- Node13 -->
<g id="Node000013" class="node">
<title>Node13</title>
<g id="a_Node000013"><a xlink:href="class_async_client.html#a9ff634e3b1237eab65178b007326367e" target="_top" xlink:title=" ">
<polygon fill="white" stroke="#666666" points="269.75,-172 159.25,-172 159.25,-152 269.75,-152 269.75,-172"/>
<text xml:space="preserve" text-anchor="middle" x="214.5" y="-158.5" font-family="Helvetica,sans-Serif" font-size="10.00">AsyncClient::_s_error</text>
</a>
</g>
</g>
<!-- Node11&#45;&gt;Node13 -->
<g id="edge12_Node000011_Node000013" class="edge">
<title>Node11&#45;&gt;Node13</title>
<g id="a_edge12_Node000011_Node000013"><a xlink:title=" ">
<path fill="none" stroke="#63b8ff" d="M324.94,-187.02C304.16,-182.26 280.92,-176.95 261.22,-172.45"/>
<polygon fill="#63b8ff" stroke="#63b8ff" points="323.88,-190.36 334.41,-189.18 325.44,-183.54 323.88,-190.36"/>
</a>
</g>
</g>
<!-- Node14 -->
<g id="Node000014" class="node">
<title>Node14</title>
<g id="a_Node000014"><a xlink:href="class_async_client.html#a6a69c67e1a22660766affb64700c2276" target="_top" xlink:title=" ">
<polygon fill="white" stroke="#666666" points="265.25,-362 163.75,-362 163.75,-342 265.25,-342 265.25,-362"/>
<text xml:space="preserve" text-anchor="middle" x="214.5" y="-348.5" font-family="Helvetica,sans-Serif" font-size="10.00">AsyncClient::_s_fin</text>
</a>
</g>
</g>
<!-- Node11&#45;&gt;Node14 -->
<g id="edge14_Node000011_Node000014" class="edge">
<title>Node11&#45;&gt;Node14</title>
<g id="a_edge14_Node000011_Node000014"><a xlink:title=" ">
<path fill="none" stroke="#63b8ff" d="M369.08,-220.08C347.73,-253.33 304.77,-317.67 282.5,-333 277.32,-336.57 271.48,-339.47 265.47,-341.83"/>
<polygon fill="#63b8ff" stroke="#63b8ff" points="371.96,-222.07 374.38,-211.76 366.05,-218.31 371.96,-222.07"/>
</a>
</g>
</g>
<!-- Node15 -->
<g id="Node000015" class="node">
<title>Node15</title>
<g id="a_Node000015"><a xlink:href="class_async_client.html#a485b2be0c01d3172928c0ed9655edc2f" target="_top" xlink:title=" ">
<polygon fill="white" stroke="#666666" points="276.5,-58 152.5,-58 152.5,-38 276.5,-38 276.5,-58"/>
<text xml:space="preserve" text-anchor="middle" x="214.5" y="-44.5" font-family="Helvetica,sans-Serif" font-size="10.00">AsyncClient::_s_lwip_fin</text>
</a>
</g>
</g>
<!-- Node11&#45;&gt;Node15 -->
<g id="edge16_Node000011_Node000015" class="edge">
<title>Node11&#45;&gt;Node15</title>
<g id="a_edge16_Node000011_Node000015"><a xlink:title=" ">
<path fill="none" stroke="#63b8ff" d="M361.98,-182.1C348.7,-169.46 331.36,-151.69 318.5,-134 298.62,-106.66 308.85,-88.18 282.5,-67 278.26,-63.59 273.44,-60.79 268.37,-58.5"/>
<polygon fill="#63b8ff" stroke="#63b8ff" points="359.22,-184.31 368.92,-188.58 364,-179.2 359.22,-184.31"/>
</a>
</g>
</g>
<!-- Node16 -->
<g id="Node000016" class="node">
<title>Node16</title>
<g id="a_Node000016"><a xlink:href="class_async_client.html#abe187c005c73fe6c0c94e1b3b20b55de" target="_top" xlink:title=" ">
<polygon fill="white" stroke="#666666" points="267.5,-324 161.5,-324 161.5,-304 267.5,-304 267.5,-324"/>
<text xml:space="preserve" text-anchor="middle" x="214.5" y="-310.5" font-family="Helvetica,sans-Serif" font-size="10.00">AsyncClient::_s_poll</text>
</a>
</g>
</g>
<!-- Node11&#45;&gt;Node16 -->
<g id="edge18_Node000011_Node000016" class="edge">
<title>Node11&#45;&gt;Node16</title>
<g id="a_edge18_Node000011_Node000016"><a xlink:title=" ">
<path fill="none" stroke="#63b8ff" d="M366.76,-219.15C348.91,-240.66 317.15,-275.17 282.5,-295 276.52,-298.42 269.88,-301.26 263.17,-303.61"/>
<polygon fill="#63b8ff" stroke="#63b8ff" points="369.41,-221.43 372.98,-211.45 363.97,-217.02 369.41,-221.43"/>
</a>
</g>
</g>
<!-- Node17 -->
<g id="Node000017" class="node">
<title>Node17</title>
<g id="a_Node000017"><a xlink:href="class_async_client.html#af8136d3085c8948078a131bfb9430ec6" target="_top" xlink:title=" ">
<polygon fill="white" stroke="#666666" points="269.38,-286 159.62,-286 159.62,-266 269.38,-266 269.38,-286"/>
<text xml:space="preserve" text-anchor="middle" x="214.5" y="-272.5" font-family="Helvetica,sans-Serif" font-size="10.00">AsyncClient::_s_recv</text>
</a>
</g>
</g>
<!-- Node11&#45;&gt;Node17 -->
<g id="edge20_Node000011_Node000017" class="edge">
<title>Node11&#45;&gt;Node17</title>
<g id="a_edge20_Node000011_Node000017"><a xlink:title=" ">
<path fill="none" stroke="#63b8ff" d="M356.91,-216.56C337.35,-229.02 309.04,-245.82 282.5,-257 274.81,-260.24 266.4,-263.11 258.22,-265.58"/>
<polygon fill="#63b8ff" stroke="#63b8ff" points="358.79,-219.51 365.28,-211.14 354.98,-213.64 358.79,-219.51"/>
</a>
</g>
</g>
<!-- Node18 -->
<g id="Node000018" class="node">
<title>Node18</title>
<g id="a_Node000018"><a xlink:href="class_async_client.html#a8e507d50b4cc3ae8e90f2e1c1ebf5f61" target="_top" xlink:title=" ">
<polygon fill="white" stroke="#666666" points="269.38,-248 159.62,-248 159.62,-228 269.38,-228 269.38,-248"/>
<text xml:space="preserve" text-anchor="middle" x="214.5" y="-234.5" font-family="Helvetica,sans-Serif" font-size="10.00">AsyncClient::_s_sent</text>
</a>
</g>
</g>
<!-- Node11&#45;&gt;Node18 -->
<g id="edge22_Node000011_Node000018" class="edge">
<title>Node11&#45;&gt;Node18</title>
<g id="a_edge22_Node000011_Node000018"><a xlink:title=" ">
<path fill="none" stroke="#63b8ff" d="M324.94,-212.98C304.16,-217.74 280.92,-223.05 261.22,-227.55"/>
<polygon fill="#63b8ff" stroke="#63b8ff" points="325.44,-216.46 334.41,-210.82 323.88,-209.64 325.44,-216.46"/>
</a>
</g>
</g>
<!-- Node19 -->
<g id="Node000019" class="node">
<title>Node19</title>
<g id="a_Node000019"><a xlink:href="class_async_client.html#a44e3b77c5567dbfeb25c50cfddf61653" target="_top" xlink:title=" ">
<polygon fill="white" stroke="#666666" points="274.25,-134 154.75,-134 154.75,-114 274.25,-114 274.25,-134"/>
<text xml:space="preserve" text-anchor="middle" x="214.5" y="-120.5" font-family="Helvetica,sans-Serif" font-size="10.00">AsyncClient::operator!=</text>
</a>
</g>
</g>
<!-- Node11&#45;&gt;Node19 -->
<g id="edge24_Node000011_Node000019" class="edge">
<title>Node11&#45;&gt;Node19</title>
<g id="a_edge24_Node000011_Node000019"><a xlink:title=" ">
<path fill="none" stroke="#63b8ff" d="M356.91,-183.44C337.35,-170.98 309.04,-154.18 282.5,-143 274.81,-139.76 266.4,-136.89 258.22,-134.42"/>
<polygon fill="#63b8ff" stroke="#63b8ff" points="354.98,-186.36 365.28,-188.86 358.79,-180.49 354.98,-186.36"/>
</a>
</g>
</g>
<!-- Node20 -->
<g id="Node000020" class="node">
<title>Node20</title>
<g id="a_Node000020"><a xlink:href="class_async_client.html#afaedf716feb9b363fe9b1ee7d82fbe9f" target="_top" xlink:title=" ">
<polygon fill="white" stroke="#666666" points="275.75,-96 153.25,-96 153.25,-76 275.75,-76 275.75,-96"/>
<text xml:space="preserve" text-anchor="middle" x="214.5" y="-82.5" font-family="Helvetica,sans-Serif" font-size="10.00">AsyncClient::operator+=</text>
</a>
</g>
</g>
<!-- Node11&#45;&gt;Node20 -->
<g id="edge25_Node000011_Node000020" class="edge">
<title>Node11&#45;&gt;Node20</title>
<g id="a_edge25_Node000011_Node000020"><a xlink:title=" ">
<path fill="none" stroke="#63b8ff" d="M364.55,-181.54C341.36,-157 300.84,-115.5 282.5,-105 276.52,-101.58 269.88,-98.74 263.17,-96.39"/>
<polygon fill="#63b8ff" stroke="#63b8ff" points="361.81,-183.73 371.21,-188.62 366.91,-178.93 361.81,-183.73"/>
</a>
</g>
</g>
<!-- Node11&#45;&gt;Node21 -->
<g id="edge26_Node000011_Node000021" class="edge">
<title>Node11&#45;&gt;Node21</title>
<g id="a_edge26_Node000011_Node000021"><a xlink:title=" ">
<path fill="none" stroke="#63b8ff" d="M375.38,-178.98C363.31,-142.78 333.64,-68.74 282.5,-29 278.11,-25.59 273.13,-22.79 267.92,-20.49"/>
<polygon fill="#63b8ff" stroke="#63b8ff" points="371.96,-179.8 378.34,-188.26 378.63,-177.67 371.96,-179.8"/>
</a>
</g>
</g>
<!-- Node22 -->
<g id="Node000022" class="node">
<title>Node22</title>
<g id="a_Node000022"><a xlink:href="class_async_client.html#a40d147dfec9bbc2e8891273be25c5f39" target="_top" xlink:title=" ">
<polygon fill="white" stroke="#666666" points="275.75,-400 153.25,-400 153.25,-380 275.75,-380 275.75,-400"/>
<text xml:space="preserve" text-anchor="middle" x="214.5" y="-386.5" font-family="Helvetica,sans-Serif" font-size="10.00">AsyncClient::operator==</text>
</a>
</g>
</g>
<!-- Node11&#45;&gt;Node22 -->
<g id="edge27_Node000011_Node000022" class="edge">
<title>Node11&#45;&gt;Node22</title>
<g id="a_edge27_Node000011_Node000022"><a xlink:title=" ">
<path fill="none" stroke="#63b8ff" d="M368.1,-219.66C354.8,-239.16 334.33,-270.08 318.5,-298 300.66,-329.47 310.3,-347.85 282.5,-371 278.32,-374.48 273.54,-377.33 268.5,-379.65"/>
<polygon fill="#63b8ff" stroke="#63b8ff" points="370.87,-221.81 373.65,-211.59 365.11,-217.85 370.87,-221.81"/>
</a>
</g>
</g>
<!-- Node12&#45;&gt;Node7 -->
<g id="edge10_Node000012_Node000007" class="edge">
<title>Node12&#45;&gt;Node7</title>
<g id="a_edge10_Node000012_Node000007"><a xlink:title=" ">
<path fill="none" stroke="#63b8ff" d="M158.94,-214.04C154.68,-215.57 150.48,-217.22 146.5,-219 117.56,-231.92 87.02,-253.01 69.92,-265.59"/>
<polygon fill="#63b8ff" stroke="#63b8ff" points="159.79,-217.44 168.17,-210.97 157.58,-210.8 159.79,-217.44"/>
</a>
</g>
</g>
<!-- Node13&#45;&gt;Node7 -->
<g id="edge13_Node000013_Node000007" class="edge">
<title>Node13&#45;&gt;Node7</title>
<g id="a_edge13_Node000013_Node000007"><a xlink:title=" ">
<path fill="none" stroke="#63b8ff" d="M154.58,-176.68C151.79,-178.01 149.08,-179.44 146.5,-181 108.93,-203.71 76.71,-246.17 63.13,-265.7"/>
<polygon fill="#63b8ff" stroke="#63b8ff" points="155.67,-180.02 163.58,-172.96 153,-173.55 155.67,-180.02"/>
</a>
</g>
</g>
<!-- Node14&#45;&gt;Node7 -->
<g id="edge15_Node000014_Node000007" class="edge">
<title>Node14&#45;&gt;Node7</title>
<g id="a_edge15_Node000014_Node000007"><a xlink:title=" ">
<path fill="none" stroke="#63b8ff" d="M158.94,-337.96C154.68,-336.43 150.48,-334.78 146.5,-333 117.56,-320.08 87.02,-298.99 69.92,-286.41"/>
<polygon fill="#63b8ff" stroke="#63b8ff" points="157.58,-341.2 168.17,-341.03 159.79,-334.56 157.58,-341.2"/>
</a>
</g>
</g>
<!-- Node15&#45;&gt;Node1 -->
<g id="edge17_Node000015_Node000001" class="edge">
<title>Node15&#45;&gt;Node1</title>
<g id="a_edge17_Node000015_Node000001"><a xlink:title=" ">
<path fill="none" stroke="#63b8ff" d="M287.67,-59.08C418.83,-79.22 690.91,-121 779.54,-134.61"/>
<polygon fill="#63b8ff" stroke="#63b8ff" points="288.48,-55.67 278.07,-57.61 287.42,-62.58 288.48,-55.67"/>
</a>
</g>
</g>
<!-- Node16&#45;&gt;Node7 -->
<g id="edge19_Node000016_Node000007" class="edge">
<title>Node16&#45;&gt;Node7</title>
<g id="a_edge19_Node000016_Node000007"><a xlink:title=" ">
<path fill="none" stroke="#63b8ff" d="M158.95,-300.82C139.5,-296.12 117.87,-290.89 99.49,-286.45"/>
<polygon fill="#63b8ff" stroke="#63b8ff" points="158.1,-304.21 168.64,-303.16 159.75,-297.41 158.1,-304.21"/>
</a>
</g>
</g>
<!-- Node17&#45;&gt;Node7 -->
<g id="edge21_Node000017_Node000007" class="edge">
<title>Node17&#45;&gt;Node7</title>
<g id="a_edge21_Node000017_Node000007"><a xlink:title=" ">
<path fill="none" stroke="#63b8ff" d="M148.12,-276C135.68,-276 122.79,-276 110.73,-276"/>
<polygon fill="#63b8ff" stroke="#63b8ff" points="147.87,-279.5 157.87,-276 147.87,-272.5 147.87,-279.5"/>
</a>
</g>
</g>
<!-- Node18&#45;&gt;Node7 -->
<g id="edge23_Node000018_Node000007" class="edge">
<title>Node18&#45;&gt;Node7</title>
<g id="a_edge23_Node000018_Node000007"><a xlink:title=" ">
<path fill="none" stroke="#63b8ff" d="M158.95,-251.18C139.5,-255.88 117.87,-261.11 99.49,-265.55"/>
<polygon fill="#63b8ff" stroke="#63b8ff" points="159.75,-254.59 168.64,-248.84 158.1,-247.79 159.75,-254.59"/>
</a>
</g>
</g>
</g>
</svg>

<g id="navigator" transform="translate(0 0)" fill="#404254">
  <rect fill="#f2f5e9" fill-opacity="0.5" stroke="#606060" stroke-width=".5" x="0" y="0" width="60" height="60"/>
  <use id="zoomplus" xlink:href="#zoomPlus" x="17" y="9" onmousedown="handleZoom(evt,'in')"/>
  <use id="zoomminus" xlink:href="#zoomMin" x="42" y="9" onmousedown="handleZoom(evt,'out')"/>
  <use id="reset" xlink:href="#resetDef" x="30" y="36" onmousedown="handleReset()"/>
   <use id="arrowup" xlink:href="#arrowUp" x="0" y="0" onmousedown="handlePan(0,-1)"/>
  <use id="arrowright" xlink:href="#arrowRight" x="0" y="0" onmousedown="handlePan(1,0)"/>
  <use id="arrowdown" xlink:href="#arrowDown" x="0" y="0" onmousedown="handlePan(0,1)"/>
  <use id="arrowleft" xlink:href="#arrowLeft" x="0" y="0" onmousedown="handlePan(-1,0)"/>
</g>
<svg viewBox="0 0 15 15" width="100%" height="30px" preserveAspectRatio="xMaxYMin meet">
 <g id="arrow_out" transform="scale(0.3 0.3)">
  <a xlink:href="_async_t_c_p_8cpp_adf7826424bf5b1035c4850f6b3307686_icgraph_org.svg" target="_base">
   <rect id="button" ry="5" rx="5" y="6" x="6" height="38" width="38"
        fill="#f2f5e9" fill-opacity="0.5" stroke="#606060" stroke-width="1.0"/>
   <path id="arrow"
     d="M 11.500037,31.436501 C 11.940474,20.09759 22.043105,11.32322 32.158766,21.979434 L 37.068811,17.246167 C 37.068811,17.246167 37.088388,32 37.088388,32 L 22.160133,31.978069 C 22.160133,31.978069 26.997745,27.140456 26.997745,27.140456 C 18.528582,18.264221 13.291696,25.230495 11.500037,31.436501 z"
     style="fill:#404040;"/>
  </a>
 </g>
</svg>

<style type='text/css'>
<![CDATA[
[data-mouse-over-selected='false'] { opacity: 0.7; }
[data-mouse-over-selected='true']  { opacity: 1.0; }
]]>
</style>
<script type="application/ecmascript"><![CDATA[
document.addEventListener('DOMContentLoaded', (event) => {
  highlightEdges();
  highlightAdjacentNodes();
});
]]></script>
</svg>
