<?xml version="1.0" encoding="UTF-8" standalone="no"?>
<!DOCTYPE svg PUBLIC "-//W3C//DTD SVG 1.1//EN"
 "http://www.w3.org/Graphics/SVG/1.1/DTD/svg11.dtd">
<!-- Generated by graphviz version 14.1.2 (20260124.0452)
 -->
<!-- Title: _start_async_task Pages: 1 -->
<svg width="563pt" height="142pt"
 viewBox="0.00 0.00 563.00 142.00" xmlns="http://www.w3.org/2000/svg" xmlns:xlink="http://www.w3.org/1999/xlink">
<g id="graph0" class="graph" transform="scale(1 1) rotate(0) translate(4 138)">
<title>_start_async_task</title>
<!-- Node1 -->
<g id="Node000001" class="node">
<title>Node1</title>
<g id="a_Node000001"><a xlink:title=" ">
<polygon fill="#999999" stroke="#666666" points="554.5,-58 458.25,-58 458.25,-38 554.5,-38 554.5,-58"/>
<text xml:space="preserve" text-anchor="middle" x="506.38" y="-44.5" font-family="Helvetica,sans-Serif" font-size="10.00">_start_async_task</text>
</a>
</g>
</g>
<!-- Node2 -->
<g id="Node000002" class="node">
<title>Node2</title>
<g id="a_Node000002"><a xlink:href="class_async_client.html#a758eaca983e03027c99003a5808883f8" target="_top" xlink:title=" ">
<polygon fill="white" stroke="#666666" points="422.25,-96 307.25,-96 307.25,-76 422.25,-76 422.25,-96"/>
<text xml:space="preserve" text-anchor="middle" x="364.75" y="-82.5" font-family="Helvetica,sans-Serif" font-size="10.00">AsyncClient::_connect</text>
</a>
</g>
</g>
<!-- Node1&#45;&gt;Node2 -->
<g id="edge1_Node000001_Node000002" class="edge">
<title>Node1&#45;&gt;Node2</title>
<g id="a_edge1_Node000001_Node000002"><a xlink:title=" ">
<path fill="none" stroke="#63b8ff" d="M455.97,-61.45C438.95,-66.08 420.16,-71.19 404.15,-75.55"/>
<polygon fill="#63b8ff" stroke="#63b8ff" points="456.66,-64.89 465.39,-58.88 454.82,-58.13 456.66,-64.89"/>
</a>
</g>
</g>
<!-- Node3 -->
<g id="Node000003" class="node">
<title>Node3</title>
<g id="a_Node000003"><a xlink:href="class_async_client.html#a260e075caca9a58241f2fad754cc412b" target="_top" xlink:title=" ">
<polygon fill="white" stroke="#666666" points="117.62,-96 7.88,-96 7.88,-76 117.62,-76 117.62,-96"/>
<text xml:space="preserve" text-anchor="middle" x="62.75" y="-82.5" font-family="Helvetica,sans-Serif" font-size="10.00">AsyncClient::connect</text>
</a>
</g>
</g>
<!-- Node1&#45;&gt;Node3 -->
<g id="edge7_Node000001_Node000003" class="edge">
<title>Node1&#45;&gt;Node3</title>
<g id="a_edge7_Node000001_Node000003"><a xlink:title=" ">
<path fill="none" stroke="#63b8ff" d="M446.72,-53.05C360.64,-60.45 201.29,-74.17 117.87,-81.34"/>
<polygon fill="#63b8ff" stroke="#63b8ff" points="446.94,-56.54 456.61,-52.2 446.34,-49.57 446.94,-56.54"/>
</a>
</g>
</g>
<!-- Node9 -->
<g id="Node000009" class="node">
<title>Node9</title>
<g id="a_Node000009"><a xlink:href="class_async_server.html#a7e9ce55e4e1d0fab5531bac98ebfb3f9" target="_top" xlink:title=" ">
<polygon fill="white" stroke="#666666" points="415.5,-20 314,-20 314,0 415.5,0 415.5,-20"/>
<text xml:space="preserve" text-anchor="middle" x="364.75" y="-6.5" font-family="Helvetica,sans-Serif" font-size="10.00">AsyncServer::begin</text>
</a>
</g>
</g>
<!-- Node1&#45;&gt;Node9 -->
<g id="edge6_Node000001_Node000009" class="edge">
<title>Node1&#45;&gt;Node9</title>
<g id="a_edge6_Node000001_Node000009"><a xlink:title=" ">
<path fill="none" stroke="#63b8ff" d="M455.97,-34.55C438.95,-29.92 420.16,-24.81 404.15,-20.45"/>
<polygon fill="#63b8ff" stroke="#63b8ff" points="454.82,-37.87 465.39,-37.12 456.66,-31.11 454.82,-37.87"/>
</a>
</g>
</g>
<!-- Node2&#45;&gt;Node3 -->
<g id="edge2_Node000002_Node000003" class="edge">
<title>Node2&#45;&gt;Node3</title>
<g id="a_edge2_Node000002_Node000003"><a xlink:title=" ">
<path fill="none" stroke="#63b8ff" d="M295.48,-86C241.72,-86 167.8,-86 118.02,-86"/>
<polygon fill="#63b8ff" stroke="#63b8ff" points="295.46,-89.5 305.46,-86 295.46,-82.5 295.46,-89.5"/>
</a>
</g>
</g>
<!-- Node4 -->
<g id="Node000004" class="node">
<title>Node4</title>
<g id="a_Node000004"><a xlink:href="class_async_client.html#aaa5b952568c85d25c32d0dff8ec74794" target="_top" xlink:title=" ">
<polygon fill="white" stroke="#666666" points="271.25,-134 161.5,-134 161.5,-114 271.25,-114 271.25,-134"/>
<text xml:space="preserve" text-anchor="middle" x="216.38" y="-120.5" font-family="Helvetica,sans-Serif" font-size="10.00">AsyncClient::connect</text>
</a>
</g>
</g>
<!-- Node2&#45;&gt;Node4 -->
<g id="edge3_Node000002_Node000004" class="edge">
<title>Node2&#45;&gt;Node4</title>
<g id="a_edge3_Node000002_Node000004"><a xlink:title=" ">
<path fill="none" stroke="#63b8ff" d="M312.47,-99.31C294.49,-103.98 274.57,-109.15 257.63,-113.55"/>
<polygon fill="#63b8ff" stroke="#63b8ff" points="313.1,-102.77 321.9,-96.86 311.34,-95.99 313.1,-102.77"/>
</a>
</g>
</g>
<!-- Node4&#45;&gt;Node3 -->
<g id="edge5_Node000004_Node000003" class="edge">
<title>Node4&#45;&gt;Node3</title>
<g id="a_edge5_Node000004_Node000003"><a xlink:title=" ">
<path fill="none" stroke="#63b8ff" d="M162.52,-110.75C143.83,-106.07 123.08,-100.87 105.45,-96.45"/>
<polygon fill="#63b8ff" stroke="#63b8ff" points="161.52,-114.11 172.07,-113.15 163.22,-107.32 161.52,-114.11"/>
</a>
</g>
</g>
<!-- Node5 -->
<g id="Node000005" class="node">
<title>Node5</title>
<g id="a_Node000005"><a xlink:href="class_async_client.html#a19dc40652b5b003288e10529ee169b65" target="_top" xlink:title=" ">
<polygon fill="#fff0f0" stroke="red" points="125.5,-134 0,-134 0,-114 125.5,-114 125.5,-134"/>
<text xml:space="preserve" text-anchor="middle" x="62.75" y="-120.5" font-family="Helvetica,sans-Serif" font-size="10.00">AsyncClient::_dns_found</text>
</a>
</g>
</g>
<!-- Node4&#45;&gt;Node5 -->
<g id="edge4_Node000004_Node000005" class="edge">
<title>Node4&#45;&gt;Node5</title>
<g id="a_edge4_Node000004_Node000005"><a xlink:title=" ">
<path fill="none" stroke="#63b8ff" d="M149.67,-124C141.79,-124 133.76,-124 125.94,-124"/>
<polygon fill="#63b8ff" stroke="#63b8ff" points="149.55,-127.5 159.55,-124 149.55,-120.5 149.55,-127.5"/>
</a>
</g>
</g>
</g>
</svg>
