<?xml version="1.0" encoding="UTF-8" standalone="no"?>
<!DOCTYPE svg PUBLIC "-//W3C//DTD SVG 1.1//EN"
 "http://www.w3.org/Graphics/SVG/1.1/DTD/svg11.dtd">
<!-- Generated by graphviz version 14.1.2 (20260124.0452)
 -->
<!-- Title: _tcp_poll Pages: 1 -->
<!--zoomable 582 -->

<svg id="main" version="1.1" xmlns="http://www.w3.org/2000/svg" xmlns:xlink="http://www.w3.org/1999/xlink" xml:space="preserve" onload="init(evt)">

<style type="text/css"><![CDATA[
.node, .edge {opacity: 0.7;}
.node.selected, .edge.selected {opacity: 1;}
.edge:hover path { stroke: red; }
.edge:hover polygon { stroke: red; fill: red; }
]]></style>

<defs>
  <circle id="rim" cx="0" cy="0" r="7"/>
  <circle id="rim2" cx="0" cy="0" r="3.5"/>
  <g id="zoomPlus">
    <use xlink:href="#rim" fill="#404040"><set attributeName="fill" to="#808080" begin="zoomplus.mouseover" end="zoomplus.mouseout"/></use>
    <path d="M-4,0h8M0,-4v8" fill="none" stroke="white" stroke-width="1.5" pointer-events="none"/>
  </g>
  <g id="zoomMin">
    <use xlink:href="#rim" fill="#404040"><set attributeName="fill" to="#808080" begin="zoomminus.mouseover" end="zoomminus.mouseout"/></use>
    <path d="M-4,0h8" fill="none" stroke="white" stroke-width="1.5" pointer-events="none"/>
  </g>
  <g id="arrowUp" transform="translate(30 24)">
    <use xlink:href="#rim"/>
    <path pointer-events="none" fill="none" stroke="white" stroke-width="1.5" d="M0,-3.0v7 M-2.5,-0.5L0,-3.0L2.5,-0.5"/>
  </g>
  <g id="arrowRight" transform="rotate(90) translate(36 -43)">
    <use xlink:href="#rim"/>
    <path pointer-events="none" fill="none" stroke="white" stroke-width="1.5" d="M0,-3.0v7 M-2.5,-0.5L0,-3.0L2.5,-0.5"/>
  </g>
  <g id="arrowDown" transform="rotate(180) translate(-30 -48)">
    <use xlink:href="#rim"/>
    <path pointer-events="none" fill="none" stroke="white" stroke-width="1.5" d="M0,-3.0v7 M-2.5,-0.5L0,-3.0L2.5,-0.5"/>
  </g>
  <g id="arrowLeft" transform="rotate(270) translate(-36 17)">
    <use xlink:href="#rim"/>
    <path pointer-events="none" fill="none" stroke="white" stroke-width="1.5" d="M0,-3.0v7 M-2.5,-0.5L0,-3.0L2.5,-0.5"/>
  </g>
  <g id="resetDef">
    <use xlink:href="#rim2" fill="#404040"><set attributeName="fill" to="#808080" begin="reset.mouseover" end="reset.mouseout"/></use>
  </g>
</defs>
<script type="application/ecmascript">
var viewWidth = 1312;
var viewHeight = 582;
var sectionId = 'dynsection-42';
</script>
<script type="application/ecmascript" xlink:href="svg.min.js"/>
<svg id="graph" class="graph">
<g id="viewport">
<title>_tcp_poll</title>
<!-- Node1 -->
<g id="Node000001" class="node">
<title>Node1</title>
<g id="a_Node000001"><a xlink:title=" ">
<polygon fill="#999999" stroke="#666666" points="1303.5,-280.1 1248.5,-280.1 1248.5,-260.1 1303.5,-260.1 1303.5,-280.1"/>
<text xml:space="preserve" text-anchor="middle" x="1276" y="-266.6" font-family="Helvetica,sans-Serif" font-size="10.00">_tcp_poll</text>
</a>
</g>
</g>
<!-- Node2 -->
<g id="Node000002" class="node">
<title>Node2</title>
<g id="a_Node000002"><a xlink:href="class_async_client.html#a758eaca983e03027c99003a5808883f8" target="_top" xlink:title=" ">
<polygon fill="white" stroke="#666666" points="741.5,-489.1 626.5,-489.1 626.5,-469.1 741.5,-469.1 741.5,-489.1"/>
<text xml:space="preserve" text-anchor="middle" x="684" y="-475.6" font-family="Helvetica,sans-Serif" font-size="10.00">AsyncClient::_connect</text>
</a>
</g>
</g>
<!-- Node1&#45;&gt;Node2 -->
<g id="edge1_Node000001_Node000002" class="edge">
<title>Node1&#45;&gt;Node2</title>
<g id="a_edge1_Node000001_Node000002"><a xlink:title=" ">
<path fill="none" stroke="#63b8ff" d="M1262.4,-289.81C1231.96,-335.56 1149.35,-448.78 1048,-498.1 939.93,-550.69 896.19,-540.21 778.25,-517.1 751.49,-511.86 722.71,-498.89 704.32,-489.57"/>
<polygon fill="#63b8ff" stroke="#63b8ff" points="1265.18,-291.96 1267.73,-281.68 1259.32,-288.13 1265.18,-291.96"/>
</a>
</g>
</g>
<!-- Node11 -->
<g id="Node000011" class="node">
<title>Node11</title>
<g id="a_Node000011"><a xlink:href="class_async_client.html#aefecfa0c75c8c1b32104115e93739087" target="_top" xlink:title=" ">
<polygon fill="white" stroke="#666666" points="1212.5,-280.1 1084,-280.1 1084,-260.1 1212.5,-260.1 1212.5,-280.1"/>
<text xml:space="preserve" text-anchor="middle" x="1148.25" y="-266.6" font-family="Helvetica,sans-Serif" font-size="10.00">AsyncClient::AsyncClient</text>
</a>
</g>
</g>
<!-- Node1&#45;&gt;Node11 -->
<g id="edge8_Node000001_Node000011" class="edge">
<title>Node1&#45;&gt;Node11</title>
<g id="a_edge8_Node000001_Node000011"><a xlink:title=" ">
<path fill="none" stroke="#63b8ff" d="M1236.69,-270.1C1229.13,-270.1 1221.01,-270.1 1212.87,-270.1"/>
<polygon fill="#63b8ff" stroke="#63b8ff" points="1236.51,-273.6 1246.51,-270.1 1236.51,-266.6 1236.51,-273.6"/>
</a>
</g>
</g>
<!-- Node17 -->
<g id="Node000017" class="node">
<title>Node17</title>
<g id="a_Node000017"><a xlink:href="class_async_client.html#a575c12664279634155259e007c6a104f" target="_top" xlink:title=" ">
<polygon fill="white" stroke="#666666" points="742.25,-90.1 625.75,-90.1 625.75,-70.1 742.25,-70.1 742.25,-90.1"/>
<text xml:space="preserve" text-anchor="middle" x="684" y="-76.6" font-family="Helvetica,sans-Serif" font-size="10.00">AsyncClient::operator=</text>
</a>
</g>
</g>
<!-- Node1&#45;&gt;Node17 -->
<g id="edge31_Node000001_Node000017" class="edge">
<title>Node1&#45;&gt;Node17</title>
<g id="a_edge31_Node000001_Node000017"><a xlink:title=" ">
<path fill="none" stroke="#63b8ff" d="M1261.85,-250.78C1230.76,-207.03 1147.8,-100.99 1048,-60.1 933.24,-13.08 780.78,-50.03 716.11,-69.74"/>
<polygon fill="#63b8ff" stroke="#63b8ff" points="1258.85,-252.6 1267.44,-258.8 1264.59,-248.59 1258.85,-252.6"/>
</a>
</g>
</g>
<!-- Node3 -->
<g id="Node000003" class="node">
<title>Node3</title>
<g id="a_Node000003"><a xlink:href="class_async_client.html#a260e075caca9a58241f2fad754cc412b" target="_top" xlink:title=" ">
<polygon fill="white" stroke="#666666" points="436.12,-508.1 326.38,-508.1 326.38,-488.1 436.12,-488.1 436.12,-508.1"/>
<text xml:space="preserve" text-anchor="middle" x="381.25" y="-494.6" font-family="Helvetica,sans-Serif" font-size="10.00">AsyncClient::connect</text>
</a>
</g>
</g>
<!-- Node2&#45;&gt;Node3 -->
<g id="edge2_Node000002_Node000003" class="edge">
<title>Node2&#45;&gt;Node3</title>
<g id="a_edge2_Node000002_Node000003"><a xlink:title=" ">
<path fill="none" stroke="#63b8ff" d="M614.88,-483.4C560.87,-486.82 486.41,-491.52 436.41,-494.68"/>
<polygon fill="#63b8ff" stroke="#63b8ff" points="614.81,-486.92 624.57,-482.79 614.37,-479.93 614.81,-486.92"/>
</a>
</g>
</g>
<!-- Node4 -->
<g id="Node000004" class="node">
<title>Node4</title>
<g id="a_Node000004"><a xlink:href="class_async_client.html#aaa5b952568c85d25c32d0dff8ec74794" target="_top" xlink:title=" ">
<polygon fill="white" stroke="#666666" points="589.75,-470.1 480,-470.1 480,-450.1 589.75,-450.1 589.75,-470.1"/>
<text xml:space="preserve" text-anchor="middle" x="534.88" y="-456.6" font-family="Helvetica,sans-Serif" font-size="10.00">AsyncClient::connect</text>
</a>
</g>
</g>
<!-- Node2&#45;&gt;Node4 -->
<g id="edge3_Node000002_Node000004" class="edge">
<title>Node2&#45;&gt;Node4</title>
<g id="a_edge3_Node000002_Node000004"><a xlink:title=" ">
<path fill="none" stroke="#63b8ff" d="M614.91,-470.31C606.62,-469.24 598.24,-468.15 590.19,-467.11"/>
<polygon fill="#63b8ff" stroke="#63b8ff" points="614.25,-473.75 624.62,-471.56 615.15,-466.81 614.25,-473.75"/>
</a>
</g>
</g>
<!-- Node4&#45;&gt;Node3 -->
<g id="edge7_Node000004_Node000003" class="edge">
<title>Node4&#45;&gt;Node3</title>
<g id="a_edge7_Node000004_Node000003"><a xlink:title=" ">
<path fill="none" stroke="#63b8ff" d="M481.02,-473.35C462.33,-478.03 441.58,-483.23 423.95,-487.65"/>
<polygon fill="#63b8ff" stroke="#63b8ff" points="481.72,-476.78 490.57,-470.95 480.02,-469.99 481.72,-476.78"/>
</a>
</g>
</g>
<!-- Node5 -->
<g id="Node000005" class="node">
<title>Node5</title>
<g id="a_Node000005"><a xlink:href="class_async_client.html#a19dc40652b5b003288e10529ee169b65" target="_top" xlink:title=" ">
<polygon fill="white" stroke="#666666" points="444,-470.1 318.5,-470.1 318.5,-450.1 444,-450.1 444,-470.1"/>
<text xml:space="preserve" text-anchor="middle" x="381.25" y="-456.6" font-family="Helvetica,sans-Serif" font-size="10.00">AsyncClient::_dns_found</text>
</a>
</g>
</g>
<!-- Node4&#45;&gt;Node5 -->
<g id="edge4_Node000004_Node000005" class="edge">
<title>Node4&#45;&gt;Node5</title>
<g id="a_edge4_Node000004_Node000005"><a xlink:title=" ">
<path fill="none" stroke="#63b8ff" d="M468.17,-460.1C460.29,-460.1 452.26,-460.1 444.44,-460.1"/>
<polygon fill="#63b8ff" stroke="#63b8ff" points="468.05,-463.6 478.05,-460.1 468.05,-456.6 468.05,-463.6"/>
</a>
</g>
</g>
<!-- Node6 -->
<g id="Node000006" class="node">
<title>Node6</title>
<g id="a_Node000006"><a xlink:href="class_async_client.html#a3f629c9072da183879a9c67878b374cc" target="_top" xlink:title=" ">
<polygon fill="white" stroke="#666666" points="267.88,-441.1 161.12,-441.1 161.12,-409.1 267.88,-409.1 267.88,-441.1"/>
<text xml:space="preserve" text-anchor="start" x="169.12" y="-427.6" font-family="Helvetica,sans-Serif" font-size="10.00">AsyncClient::_s_dns</text>
<text xml:space="preserve" text-anchor="middle" x="214.5" y="-415.6" font-family="Helvetica,sans-Serif" font-size="10.00">_found</text>
</a>
</g>
</g>
<!-- Node5&#45;&gt;Node6 -->
<g id="edge5_Node000005_Node000006" class="edge">
<title>Node5&#45;&gt;Node6</title>
<g id="a_edge5_Node000005_Node000006"><a xlink:title=" ">
<path fill="none" stroke="#63b8ff" d="M320.31,-447.37C303.29,-443.75 284.88,-439.84 268.32,-436.32"/>
<polygon fill="#63b8ff" stroke="#63b8ff" points="319.28,-450.72 329.79,-449.38 320.73,-443.88 319.28,-450.72"/>
</a>
</g>
</g>
<!-- Node7 -->
<g id="Node000007" class="node">
<title>Node7</title>
<g id="a_Node000007"><a xlink:href="_async_t_c_p_8cpp.html#ac4030e968c0e4c0fcbe7a9b4502854c1" target="_top" xlink:title=" ">
<polygon fill="#fff0f0" stroke="red" points="110.5,-391.1 0,-391.1 0,-371.1 110.5,-371.1 110.5,-391.1"/>
<text xml:space="preserve" text-anchor="middle" x="55.25" y="-377.6" font-family="Helvetica,sans-Serif" font-size="10.00">_handle_async_event</text>
</a>
</g>
</g>
<!-- Node6&#45;&gt;Node7 -->
<g id="edge6_Node000006_Node000007" class="edge">
<title>Node6&#45;&gt;Node7</title>
<g id="a_edge6_Node000006_Node000007"><a xlink:title=" ">
<path fill="none" stroke="#63b8ff" d="M149.69,-407.25C130.69,-401.93 110.5,-396.28 93.76,-391.6"/>
<polygon fill="#63b8ff" stroke="#63b8ff" points="148.67,-410.59 159.24,-409.92 150.56,-403.85 148.67,-410.59"/>
</a>
</g>
</g>
<!-- Node11&#45;&gt;Node6 -->
<g id="edge11_Node000011_Node000006" class="edge">
<title>Node11&#45;&gt;Node6</title>
<g id="a_edge11_Node000011_Node000006"><a xlink:title=" ">
<path fill="none" stroke="#63b8ff" d="M1132.51,-289.59C1107.69,-322.18 1059.15,-384.81 1048,-391.1 964.36,-438.31 930.17,-422.1 834.12,-422.1 834.12,-422.1 834.12,-422.1 533.88,-422.1 440.32,-422.1 331.31,-423.41 268.17,-424.3"/>
<polygon fill="#63b8ff" stroke="#63b8ff" points="1135.21,-291.82 1138.47,-281.74 1129.64,-287.59 1135.21,-291.82"/>
</a>
</g>
</g>
<!-- Node12 -->
<g id="Node000012" class="node">
<title>Node12</title>
<g id="a_Node000012"><a xlink:href="class_async_client.html#ac4cdb0990fa85f03da98d1c98b1f8611" target="_top" xlink:title=" ">
<polygon fill="white" stroke="#666666" points="282.5,-391.1 146.5,-391.1 146.5,-371.1 282.5,-371.1 282.5,-391.1"/>
<text xml:space="preserve" text-anchor="middle" x="214.5" y="-377.6" font-family="Helvetica,sans-Serif" font-size="10.00">AsyncClient::_s_connected</text>
</a>
</g>
</g>
<!-- Node11&#45;&gt;Node12 -->
<g id="edge9_Node000011_Node000012" class="edge">
<title>Node11&#45;&gt;Node12</title>
<g id="a_edge9_Node000011_Node000012"><a xlink:title=" ">
<path fill="none" stroke="#63b8ff" d="M1133.63,-289.44C1116.52,-312.01 1084.89,-348.36 1048,-365.1 961.1,-404.54 929.55,-384.1 834.12,-384.1 834.12,-384.1 834.12,-384.1 533.88,-384.1 447.23,-384.1 347.33,-382.98 282.89,-382.1"/>
<polygon fill="#63b8ff" stroke="#63b8ff" points="1136.25,-291.79 1139.35,-281.66 1130.61,-287.65 1136.25,-291.79"/>
</a>
</g>
</g>
<!-- Node13 -->
<g id="Node000013" class="node">
<title>Node13</title>
<g id="a_Node000013"><a xlink:href="class_async_client.html#a9ff634e3b1237eab65178b007326367e" target="_top" xlink:title=" ">
<polygon fill="white" stroke="#666666" points="739.25,-237.1 628.75,-237.1 628.75,-217.1 739.25,-217.1 739.25,-237.1"/>
<text xml:space="preserve" text-anchor="middle" x="684" y="-223.6" font-family="Helvetica,sans-Serif" font-size="10.00">AsyncClient::_s_error</text>
</a>
</g>
</g>
<!-- Node11&#45;&gt;Node13 -->
<g id="edge12_Node000011_Node000013" class="edge">
<title>Node11&#45;&gt;Node13</title>
<g id="a_edge12_Node000011_Node000013"><a xlink:title=" ">
<path fill="none" stroke="#63b8ff" d="M1134.13,-250.55C1117.32,-227.46 1085.79,-190.27 1048,-175.1 925.7,-126 763.84,-190.3 706.36,-216.72"/>
<polygon fill="#63b8ff" stroke="#63b8ff" points="1131.12,-252.35 1139.73,-258.52 1136.84,-248.33 1131.12,-252.35"/>
</a>
</g>
</g>
<!-- Node14 -->
<g id="Node000014" class="node">
<title>Node14</title>
<g id="a_Node000014"><a xlink:href="class_async_client.html#a6a69c67e1a22660766affb64700c2276" target="_top" xlink:title=" ">
<polygon fill="white" stroke="#666666" points="585.62,-175.1 484.12,-175.1 484.12,-155.1 585.62,-155.1 585.62,-175.1"/>
<text xml:space="preserve" text-anchor="middle" x="534.88" y="-161.6" font-family="Helvetica,sans-Serif" font-size="10.00">AsyncClient::_s_fin</text>
</a>
</g>
</g>
<!-- Node11&#45;&gt;Node14 -->
<g id="edge14_Node000011_Node000014" class="edge">
<title>Node11&#45;&gt;Node14</title>
<g id="a_edge14_Node000011_Node000014"><a xlink:title=" ">
<path fill="none" stroke="#63b8ff" d="M1137.29,-249.84C1122.32,-221.99 1091.1,-173.06 1048,-153.1 882.76,-76.59 654.24,-130.14 569.36,-154.65"/>
<polygon fill="#63b8ff" stroke="#63b8ff" points="1133.99,-251.07 1141.69,-258.35 1140.21,-247.86 1133.99,-251.07"/>
</a>
</g>
</g>
<!-- Node15 -->
<g id="Node000015" class="node">
<title>Node15</title>
<g id="a_Node000015"><a xlink:href="class_async_client.html#a485b2be0c01d3172928c0ed9655edc2f" target="_top" xlink:title=" ">
<polygon fill="white" stroke="#666666" points="1048,-204.1 924,-204.1 924,-184.1 1048,-184.1 1048,-204.1"/>
<text xml:space="preserve" text-anchor="middle" x="986" y="-190.6" font-family="Helvetica,sans-Serif" font-size="10.00">AsyncClient::_s_lwip_fin</text>
</a>
</g>
</g>
<!-- Node11&#45;&gt;Node15 -->
<g id="edge16_Node000011_Node000015" class="edge">
<title>Node11&#45;&gt;Node15</title>
<g id="a_edge16_Node000011_Node000015"><a xlink:title=" ">
<path fill="none" stroke="#63b8ff" d="M1121.98,-253.52C1102.39,-241.18 1074.24,-224.56 1048,-213.1 1040.78,-209.95 1032.88,-207.08 1025.22,-204.59"/>
<polygon fill="#63b8ff" stroke="#63b8ff" points="1120.07,-256.45 1130.38,-258.88 1123.84,-250.55 1120.07,-256.45"/>
</a>
</g>
</g>
<!-- Node11&#45;&gt;Node17 -->
<g id="edge29_Node000011_Node000017" class="edge">
<title>Node11&#45;&gt;Node17</title>
<g id="a_edge29_Node000011_Node000017"><a xlink:title=" ">
<path fill="none" stroke="#63b8ff" d="M1141.64,-249.08C1130.6,-212.37 1102.3,-137.32 1048,-104.1 950.75,-44.61 810.18,-57.08 735.72,-69.61"/>
<polygon fill="#63b8ff" stroke="#63b8ff" points="1138.21,-249.83 1144.32,-258.49 1144.95,-247.91 1138.21,-249.83"/>
</a>
</g>
</g>
<!-- Node18 -->
<g id="Node000018" class="node">
<title>Node18</title>
<g id="a_Node000018"><a xlink:href="class_async_client.html#abe187c005c73fe6c0c94e1b3b20b55de" target="_top" xlink:title=" ">
<polygon fill="white" stroke="#666666" points="587.88,-61.1 481.88,-61.1 481.88,-41.1 587.88,-41.1 587.88,-61.1"/>
<text xml:space="preserve" text-anchor="middle" x="534.88" y="-47.6" font-family="Helvetica,sans-Serif" font-size="10.00">AsyncClient::_s_poll</text>
</a>
</g>
</g>
<!-- Node11&#45;&gt;Node18 -->
<g id="edge21_Node000011_Node000018" class="edge">
<title>Node11&#45;&gt;Node18</title>
<g id="a_edge21_Node000011_Node000018"><a xlink:title=" ">
<path fill="none" stroke="#63b8ff" d="M1136.05,-249.61C1122.98,-225.41 1100.98,-183.78 1084,-147.1 1066.42,-109.13 1082.5,-83.79 1048,-60.1 896.07,44.22 654.49,-14.47 567.99,-40.61"/>
<polygon fill="#63b8ff" stroke="#63b8ff" points="1132.97,-251.27 1140.82,-258.38 1139.12,-247.93 1132.97,-251.27"/>
</a>
</g>
</g>
<!-- Node19 -->
<g id="Node000019" class="node">
<title>Node19</title>
<g id="a_Node000019"><a xlink:href="class_async_client.html#af8136d3085c8948078a131bfb9430ec6" target="_top" xlink:title=" ">
<polygon fill="white" stroke="#666666" points="888,-508.1 778.25,-508.1 778.25,-488.1 888,-488.1 888,-508.1"/>
<text xml:space="preserve" text-anchor="middle" x="833.12" y="-494.6" font-family="Helvetica,sans-Serif" font-size="10.00">AsyncClient::_s_recv</text>
</a>
</g>
</g>
<!-- Node11&#45;&gt;Node19 -->
<g id="edge23_Node000011_Node000019" class="edge">
<title>Node11&#45;&gt;Node19</title>
<g id="a_edge23_Node000011_Node000019"><a xlink:title=" ">
<path fill="none" stroke="#63b8ff" d="M1143.15,-291.44C1134.04,-332.62 1107.98,-422.8 1048,-466.1 1001.73,-499.5 935.01,-504.52 888.43,-503.09"/>
<polygon fill="#63b8ff" stroke="#63b8ff" points="1146.54,-292.32 1145.15,-281.82 1139.69,-290.9 1146.54,-292.32"/>
</a>
</g>
</g>
<!-- Node20 -->
<g id="Node000020" class="node">
<title>Node20</title>
<g id="a_Node000020"><a xlink:href="class_async_client.html#a8e507d50b4cc3ae8e90f2e1c1ebf5f61" target="_top" xlink:title=" ">
<polygon fill="white" stroke="#666666" points="888,-470.1 778.25,-470.1 778.25,-450.1 888,-450.1 888,-470.1"/>
<text xml:space="preserve" text-anchor="middle" x="833.12" y="-456.6" font-family="Helvetica,sans-Serif" font-size="10.00">AsyncClient::_s_sent</text>
</a>
</g>
</g>
<!-- Node11&#45;&gt;Node20 -->
<g id="edge25_Node000011_Node000020" class="edge">
<title>Node11&#45;&gt;Node20</title>
<g id="a_edge25_Node000011_Node000020"><a xlink:title=" ">
<path fill="none" stroke="#63b8ff" d="M1141.32,-291.39C1129.93,-327.9 1101.27,-401.82 1048,-436.1 1000.4,-466.73 934.23,-469.52 888.15,-466.68"/>
<polygon fill="#63b8ff" stroke="#63b8ff" points="1144.62,-292.59 1144.1,-282.01 1137.9,-290.6 1144.62,-292.59"/>
</a>
</g>
</g>
<!-- Node21 -->
<g id="Node000021" class="node">
<title>Node21</title>
<g id="a_Node000021"><a xlink:href="class_async_client.html#a44e3b77c5567dbfeb25c50cfddf61653" target="_top" xlink:title=" ">
<polygon fill="white" stroke="#666666" points="1045.75,-356.1 926.25,-356.1 926.25,-336.1 1045.75,-336.1 1045.75,-356.1"/>
<text xml:space="preserve" text-anchor="middle" x="986" y="-342.6" font-family="Helvetica,sans-Serif" font-size="10.00">AsyncClient::operator!=</text>
</a>
</g>
</g>
<!-- Node11&#45;&gt;Node21 -->
<g id="edge27_Node000011_Node000021" class="edge">
<title>Node11&#45;&gt;Node21</title>
<g id="a_edge27_Node000011_Node000021"><a xlink:title=" ">
<path fill="none" stroke="#63b8ff" d="M1119.06,-285.91C1099.41,-296.67 1072.44,-310.93 1048,-322.1 1037.55,-326.88 1025.85,-331.62 1015.51,-335.61"/>
<polygon fill="#63b8ff" stroke="#63b8ff" points="1120.5,-289.11 1127.56,-281.21 1117.12,-282.98 1120.5,-289.11"/>
</a>
</g>
</g>
<!-- Node22 -->
<g id="Node000022" class="node">
<title>Node22</title>
<g id="a_Node000022"><a xlink:href="class_async_client.html#afaedf716feb9b363fe9b1ee7d82fbe9f" target="_top" xlink:title=" ">
<polygon fill="white" stroke="#666666" points="1047.25,-280.1 924.75,-280.1 924.75,-260.1 1047.25,-260.1 1047.25,-280.1"/>
<text xml:space="preserve" text-anchor="middle" x="986" y="-266.6" font-family="Helvetica,sans-Serif" font-size="10.00">AsyncClient::operator+=</text>
</a>
</g>
</g>
<!-- Node11&#45;&gt;Node22 -->
<g id="edge28_Node000011_Node000022" class="edge">
<title>Node11&#45;&gt;Node22</title>
<g id="a_edge28_Node000011_Node000022"><a xlink:title=" ">
<path fill="none" stroke="#63b8ff" d="M1072.56,-270.1C1064.17,-270.1 1055.7,-270.1 1047.52,-270.1"/>
<polygon fill="#63b8ff" stroke="#63b8ff" points="1072.4,-273.6 1082.4,-270.1 1072.4,-266.6 1072.4,-273.6"/>
</a>
</g>
</g>
<!-- Node23 -->
<g id="Node000023" class="node">
<title>Node23</title>
<g id="a_Node000023"><a xlink:href="class_async_client.html#a40d147dfec9bbc2e8891273be25c5f39" target="_top" xlink:title=" ">
<polygon fill="white" stroke="#666666" points="1047.25,-242.1 924.75,-242.1 924.75,-222.1 1047.25,-222.1 1047.25,-242.1"/>
<text xml:space="preserve" text-anchor="middle" x="986" y="-228.6" font-family="Helvetica,sans-Serif" font-size="10.00">AsyncClient::operator==</text>
</a>
</g>
</g>
<!-- Node11&#45;&gt;Node23 -->
<g id="edge30_Node000011_Node000023" class="edge">
<title>Node11&#45;&gt;Node23</title>
<g id="a_edge30_Node000011_Node000023"><a xlink:title=" ">
<path fill="none" stroke="#63b8ff" d="M1091.94,-256.98C1072.04,-252.27 1049.88,-247.01 1031.07,-242.55"/>
<polygon fill="#63b8ff" stroke="#63b8ff" points="1091.03,-260.37 1101.56,-259.27 1092.64,-253.55 1091.03,-260.37"/>
</a>
</g>
</g>
<!-- Node12&#45;&gt;Node7 -->
<g id="edge10_Node000012_Node000007" class="edge">
<title>Node12&#45;&gt;Node7</title>
<g id="a_edge10_Node000012_Node000007"><a xlink:title=" ">
<path fill="none" stroke="#63b8ff" d="M134.89,-381.1C126.76,-381.1 118.62,-381.1 110.84,-381.1"/>
<polygon fill="#63b8ff" stroke="#63b8ff" points="134.84,-384.6 144.84,-381.1 134.84,-377.6 134.84,-384.6"/>
</a>
</g>
</g>
<!-- Node13&#45;&gt;Node7 -->
<g id="edge13_Node000013_Node000007" class="edge">
<title>Node13&#45;&gt;Node7</title>
<g id="a_edge13_Node000013_Node000007"><a xlink:title=" ">
<path fill="none" stroke="#63b8ff" d="M629.49,-240.25C507.32,-270.27 209.84,-343.36 98.89,-370.62"/>
<polygon fill="#63b8ff" stroke="#63b8ff" points="630.07,-243.71 638.94,-237.93 628.4,-236.91 630.07,-243.71"/>
</a>
</g>
</g>
<!-- Node14&#45;&gt;Node7 -->
<g id="edge15_Node000014_Node000007" class="edge">
<title>Node14&#45;&gt;Node7</title>
<g id="a_edge15_Node000014_Node000007"><a xlink:title=" ">
<path fill="none" stroke="#63b8ff" d="M472.29,-173.86C392.21,-187.42 250.34,-219.03 146.5,-284.1 108.88,-307.67 76.69,-350.83 63.12,-370.65"/>
<polygon fill="#63b8ff" stroke="#63b8ff" points="472.85,-177.31 482.15,-172.23 471.71,-170.41 472.85,-177.31"/>
</a>
</g>
</g>
<!-- Node16 -->
<g id="Node000016" class="node">
<title>Node16</title>
<g id="a_Node000016"><a xlink:href="_async_t_c_p_8cpp.html#adf7826424bf5b1035c4850f6b3307686" target="_top" xlink:title=" ">
<polygon fill="white" stroke="#666666" points="862.5,-261.1 803.75,-261.1 803.75,-241.1 862.5,-241.1 862.5,-261.1"/>
<text xml:space="preserve" text-anchor="middle" x="833.12" y="-247.6" font-family="Helvetica,sans-Serif" font-size="10.00">_tcp_recv</text>
</a>
</g>
</g>
<!-- Node15&#45;&gt;Node16 -->
<g id="edge17_Node000015_Node000016" class="edge">
<title>Node15&#45;&gt;Node16</title>
<g id="a_edge17_Node000015_Node000016"><a xlink:title=" ">
<path fill="none" stroke="#63b8ff" d="M938.58,-208.04C933.63,-209.68 928.7,-211.38 924,-213.1 900.93,-221.55 875.16,-232.62 857.15,-240.63"/>
<polygon fill="#63b8ff" stroke="#63b8ff" points="939.44,-211.44 947.88,-205.03 937.29,-204.78 939.44,-211.44"/>
</a>
</g>
</g>
<!-- Node16&#45;&gt;Node2 -->
<g id="edge18_Node000016_Node000002" class="edge">
<title>Node16&#45;&gt;Node2</title>
<g id="a_edge18_Node000016_Node000002"><a xlink:title=" ">
<path fill="none" stroke="#63b8ff" d="M819.21,-271.11C789,-317.93 714.54,-433.32 691.74,-468.65"/>
<polygon fill="#63b8ff" stroke="#63b8ff" points="822.12,-273.06 824.6,-262.76 816.24,-269.27 822.12,-273.06"/>
</a>
</g>
</g>
<!-- Node16&#45;&gt;Node11 -->
<g id="edge19_Node000016_Node000011" class="edge">
<title>Node16&#45;&gt;Node11</title>
<g id="a_edge19_Node000016_Node000011"><a xlink:title=" ">
<path fill="none" stroke="#63b8ff" d="M862.65,-266.64C879.86,-275.12 902.55,-284.75 924,-289.1 986.71,-301.81 1061.01,-290.34 1106.11,-280.52"/>
<polygon fill="#63b8ff" stroke="#63b8ff" points="864.54,-263.67 854.04,-262.25 861.36,-269.91 864.54,-263.67"/>
</a>
</g>
</g>
<!-- Node16&#45;&gt;Node17 -->
<g id="edge20_Node000016_Node000017" class="edge">
<title>Node16&#45;&gt;Node17</title>
<g id="a_edge20_Node000016_Node000017"><a xlink:title=" ">
<path fill="none" stroke="#63b8ff" d="M815.7,-232.01C784.56,-195.82 717.89,-118.33 693.86,-90.4"/>
<polygon fill="#63b8ff" stroke="#63b8ff" points="812.98,-234.22 822.16,-239.51 818.29,-229.65 812.98,-234.22"/>
</a>
</g>
</g>
<!-- Node18&#45;&gt;Node7 -->
<g id="edge22_Node000018_Node000007" class="edge">
<title>Node18&#45;&gt;Node7</title>
<g id="a_edge22_Node000018_Node000007"><a xlink:title=" ">
<path fill="none" stroke="#63b8ff" d="M474.38,-64.32C392.19,-85.18 243.14,-132.63 146.5,-220.1 97.08,-264.83 68.39,-343.16 59.37,-370.96"/>
<polygon fill="#63b8ff" stroke="#63b8ff" points="475.19,-67.73 484.05,-61.92 473.5,-60.93 475.19,-67.73"/>
</a>
</g>
</g>
<!-- Node19&#45;&gt;Node7 -->
<g id="edge24_Node000019_Node000007" class="edge">
<title>Node19&#45;&gt;Node7</title>
<g id="a_edge24_Node000019_Node000007"><a xlink:title=" ">
<path fill="none" stroke="#63b8ff" d="M798.04,-512.81C743.68,-534.91 633.49,-574.1 535.88,-574.1 535.88,-574.1 535.88,-574.1 380.25,-574.1 271.14,-574.1 235.67,-561.98 146.5,-499.1 104.34,-469.37 72.97,-414.07 61.26,-391.3"/>
<polygon fill="#63b8ff" stroke="#63b8ff" points="799.16,-516.14 807.06,-509.09 796.49,-509.67 799.16,-516.14"/>
</a>
</g>
</g>
<!-- Node20&#45;&gt;Node7 -->
<g id="edge26_Node000020_Node000007" class="edge">
<title>Node20&#45;&gt;Node7</title>
<g id="a_edge26_Node000020_Node000007"><a xlink:title=" ">
<path fill="none" stroke="#63b8ff" d="M789.31,-474.55C785.54,-476.02 781.81,-477.54 778.25,-479.1 761.67,-486.35 759.34,-492.17 742.25,-498.1 654.14,-528.66 629.14,-536.1 535.88,-536.1 535.88,-536.1 535.88,-536.1 380.25,-536.1 245.87,-536.1 108.14,-426.26 67.92,-391.51"/>
<polygon fill="#63b8ff" stroke="#63b8ff" points="790.36,-477.9 798.5,-471.12 787.91,-471.34 790.36,-477.9"/>
</a>
</g>
</g>
</g>
</svg>

<g id="navigator" transform="translate(0 0)" fill="#404254">
  <rect fill="#f2f5e9" fill-opacity="0.5" stroke="#606060" stroke-width=".5" x="0" y="0" width="60" height="60"/>
  <use id="zoomplus" xlink:href="#zoomPlus" x="17" y="9" onmousedown="handleZoom(evt,'in')"/>
  <use id="zoomminus" xlink:href="#zoomMin" x="42" y="9" onmousedown="handleZoom(evt,'out')"/>
  <use id="reset" xlink:href="#resetDef" x="30" y="36" onmousedown="handleReset()"/>
   <use id="arrowup" xlink:href="#arrowUp" x="0" y="0" onmousedown="handlePan(0,-1)"/>
  <use id="arrowright" xlink:href="#arrowRight" x="0" y="0" onmousedown="handlePan(1,0)"/>
  <use id="arrowdown" xlink:href="#arrowDown" x="0" y="0" onmousedown="handlePan(0,1)"/>
  <use id="arrowleft" xlink:href="#arrowLeft" x="0" y="0" onmousedown="handlePan(-1,0)"/>
</g>
<svg viewBox="0 0 15 15" width="100%" height="30px" preserveAspectRatio="xMaxYMin meet">
 <g id="arrow_out" transform="scale(0.3 0.3)">
  <a xlink:href="_async_t_c_p_8cpp_ad4b2c6c935c211eef5884f25a950e445_icgraph_org.svg" target="_base">
   <rect id="button" ry="5" rx="5" y="6" x="6" height="38" width="38"
        fill="#f2f5e9" fill-opacity="0.5" stroke="#606060" stroke-width="1.0"/>
   <path id="arrow"
     d="M 11.500037,31.436501 C 11.940474,20.09759 22.043105,11.32322 32.158766,21.979434 L 37.068811,17.246167 C 37.068811,17.246167 37.088388,32 37.088388,32 L 22.160133,31.978069 C 22.160133,31.978069 26.997745,27.140456 26.997745,27.140456 C 18.528582,18.264221 13.291696,25.230495 11.500037,31.436501 z"
     style="fill:#404040;"/>
  </a>
 </g>
</svg>

<style type='text/css'>
<![CDATA[
[data-mouse-over-selected='false'] { opacity: 0.7; }
[data-mouse-over-selected='true']  { opacity: 1.0; }
]]>
</style>
<script type="application/ecmascript"><![CDATA[
document.addEventListener('DOMContentLoaded', (event) => {
  highlightEdges();
  highlightAdjacentNodes();
});
]]></script>
</svg>
