<?xml version="1.0" encoding="UTF-8" standalone="no"?>
<!DOCTYPE svg PUBLIC "-//W3C//DTD SVG 1.1//EN"
 "http://www.w3.org/Graphics/SVG/1.1/DTD/svg11.dtd">
<!-- Generated by graphviz version 14.1.2 (20260124.0452)
 -->
<!-- Title: _prepend_async_event Pages: 1 -->
<!--zoomable 239 -->

<svg id="main" version="1.1" xmlns="http://www.w3.org/2000/svg" xmlns:xlink="http://www.w3.org/1999/xlink" xml:space="preserve" onload="init(evt)">

<style type="text/css"><![CDATA[
.node, .edge {opacity: 0.7;}
.node.selected, .edge.selected {opacity: 1;}
.edge:hover path { stroke: red; }
.edge:hover polygon { stroke: red; fill: red; }
]]></style>

<defs>
  <circle id="rim" cx="0" cy="0" r="7"/>
  <circle id="rim2" cx="0" cy="0" r="3.5"/>
  <g id="zoomPlus">
    <use xlink:href="#rim" fill="#404040"><set attributeName="fill" to="#808080" begin="zoomplus.mouseover" end="zoomplus.mouseout"/></use>
    <path d="M-4,0h8M0,-4v8" fill="none" stroke="white" stroke-width="1.5" pointer-events="none"/>
  </g>
  <g id="zoomMin">
    <use xlink:href="#rim" fill="#404040"><set attributeName="fill" to="#808080" begin="zoomminus.mouseover" end="zoomminus.mouseout"/></use>
    <path d="M-4,0h8" fill="none" stroke="white" stroke-width="1.5" pointer-events="none"/>
  </g>
  <g id="arrowUp" transform="translate(30 24)">
    <use xlink:href="#rim"/>
    <path pointer-events="none" fill="none" stroke="white" stroke-width="1.5" d="M0,-3.0v7 M-2.5,-0.5L0,-3.0L2.5,-0.5"/>
  </g>
  <g id="arrowRight" transform="rotate(90) translate(36 -43)">
    <use xlink:href="#rim"/>
    <path pointer-events="none" fill="none" stroke="white" stroke-width="1.5" d="M0,-3.0v7 M-2.5,-0.5L0,-3.0L2.5,-0.5"/>
  </g>
  <g id="arrowDown" transform="rotate(180) translate(-30 -48)">
    <use xlink:href="#rim"/>
    <path pointer-events="none" fill="none" stroke="white" stroke-width="1.5" d="M0,-3.0v7 M-2.5,-0.5L0,-3.0L2.5,-0.5"/>
  </g>
  <g id="arrowLeft" transform="rotate(270) translate(-36 17)">
    <use xlink:href="#rim"/>
    <path pointer-events="none" fill="none" stroke="white" stroke-width="1.5" d="M0,-3.0v7 M-2.5,-0.5L0,-3.0L2.5,-0.5"/>
  </g>
  <g id="resetDef">
    <use xlink:href="#rim2" fill="#404040"><set attributeName="fill" to="#808080" begin="reset.mouseover" end="reset.mouseout"/></use>
  </g>
</defs>
<script type="application/ecmascript">
var viewWidth = 730;
var viewHeight = 239;
var sectionId = 'dynsection-8';
</script>
<script type="application/ecmascript" xlink:href="svg.min.js"/>
<svg id="graph" class="graph">
<g id="viewport">
<title>_prepend_async_event</title>
<!-- Node1 -->
<g id="Node000001" class="node">
<title>Node1</title>
<g id="a_Node000001"><a xlink:title=" ">
<polygon fill="#999999" stroke="#666666" points="722,-106.79 605.5,-106.79 605.5,-86.79 722,-86.79 722,-106.79"/>
<text xml:space="preserve" text-anchor="middle" x="663.75" y="-93.29" font-family="Helvetica,sans-Serif" font-size="10.00">_prepend_async_event</text>
</a>
</g>
</g>
<!-- Node2 -->
<g id="Node000002" class="node">
<title>Node2</title>
<g id="a_Node000002"><a xlink:href="_async_t_c_p_8cpp.html#ab02a78d0cd56732252f0c2c27f286369" target="_top" xlink:title=" ">
<polygon fill="white" stroke="#666666" points="556.38,-168.79 487.12,-168.79 487.12,-148.79 556.38,-148.79 556.38,-168.79"/>
<text xml:space="preserve" text-anchor="middle" x="521.75" y="-155.29" font-family="Helvetica,sans-Serif" font-size="10.00">_tcp_accept</text>
</a>
</g>
</g>
<!-- Node1&#45;&gt;Node2 -->
<g id="edge1_Node000001_Node000002" class="edge">
<title>Node1&#45;&gt;Node2</title>
<g id="a_edge1_Node000001_Node000002"><a xlink:title=" ">
<path fill="none" stroke="#63b8ff" d="M628.96,-111.75C603.38,-123.08 568.9,-138.35 546.26,-148.38"/>
<polygon fill="#63b8ff" stroke="#63b8ff" points="630.21,-115.03 637.93,-107.78 627.37,-108.63 630.21,-115.03"/>
</a>
</g>
</g>
<!-- Node6 -->
<g id="Node000006" class="node">
<title>Node6</title>
<g id="a_Node000006"><a xlink:href="_async_t_c_p_8cpp.html#ab053d5adb5be879f37181af512213bb6" target="_top" xlink:title=" ">
<polygon fill="white" stroke="#666666" points="569.5,-106.79 474,-106.79 474,-86.79 569.5,-86.79 569.5,-106.79"/>
<text xml:space="preserve" text-anchor="middle" x="521.75" y="-93.29" font-family="Helvetica,sans-Serif" font-size="10.00">_tcp_clear_events</text>
</a>
</g>
</g>
<!-- Node1&#45;&gt;Node6 -->
<g id="edge4_Node000001_Node000006" class="edge">
<title>Node1&#45;&gt;Node6</title>
<g id="a_edge4_Node000001_Node000006"><a xlink:title=" ">
<path fill="none" stroke="#63b8ff" d="M593.98,-96.79C585.85,-96.79 577.7,-96.79 569.97,-96.79"/>
<polygon fill="#63b8ff" stroke="#63b8ff" points="593.89,-100.29 603.89,-96.79 593.89,-93.29 593.89,-100.29"/>
</a>
</g>
</g>
<!-- Node36 -->
<g id="Node000036" class="node">
<title>Node36</title>
<g id="a_Node000036"><a xlink:href="_async_t_c_p_8cpp.html#aceddc1345284b96d9d3618c7b01ecede" target="_top" xlink:title=" ">
<polygon fill="white" stroke="#666666" points="564.25,-59.79 479.25,-59.79 479.25,-39.79 564.25,-39.79 564.25,-59.79"/>
<text xml:space="preserve" text-anchor="middle" x="521.75" y="-46.29" font-family="Helvetica,sans-Serif" font-size="10.00">_tcp_connected</text>
</a>
</g>
</g>
<!-- Node1&#45;&gt;Node36 -->
<g id="edge15_Node000001_Node000036" class="edge">
<title>Node1&#45;&gt;Node36</title>
<g id="a_edge15_Node000001_Node000036"><a xlink:title=" ">
<path fill="none" stroke="#63b8ff" d="M620.85,-82.72C599.29,-75.49 573.47,-66.82 553.73,-60.19"/>
<polygon fill="#63b8ff" stroke="#63b8ff" points="619.65,-86.01 630.24,-85.88 621.88,-79.38 619.65,-86.01"/>
</a>
</g>
</g>
<!-- Node3 -->
<g id="Node000003" class="node">
<title>Node3</title>
<g id="a_Node000003"><a xlink:href="class_async_server.html#a51e55999b79eec50bd68e899b8ddd4e4" target="_top" xlink:title=" ">
<polygon fill="white" stroke="#666666" points="436.88,-192.79 324.12,-192.79 324.12,-172.79 436.88,-172.79 436.88,-192.79"/>
<text xml:space="preserve" text-anchor="middle" x="380.5" y="-179.29" font-family="Helvetica,sans-Serif" font-size="10.00">AsyncServer::_accept</text>
</a>
</g>
</g>
<!-- Node2&#45;&gt;Node3 -->
<g id="edge2_Node000002_Node000003" class="edge">
<title>Node2&#45;&gt;Node3</title>
<g id="a_edge2_Node000002_Node000003"><a xlink:title=" ">
<path fill="none" stroke="#63b8ff" d="M475.4,-166.61C463.2,-168.71 449.87,-171.01 437.18,-173.19"/>
<polygon fill="#63b8ff" stroke="#63b8ff" points="475.93,-170.07 485.19,-164.92 474.74,-163.17 475.93,-170.07"/>
</a>
</g>
</g>
<!-- Node4 -->
<g id="Node000004" class="node">
<title>Node4</title>
<g id="a_Node000004"><a xlink:href="class_async_server.html#a9cfd997e84bd4ba394f3225863536d5e" target="_top" xlink:title=" ">
<polygon fill="#fff0f0" stroke="red" points="281.38,-230.79 158.12,-230.79 158.12,-210.79 281.38,-210.79 281.38,-230.79"/>
<text xml:space="preserve" text-anchor="middle" x="219.75" y="-217.29" font-family="Helvetica,sans-Serif" font-size="10.00">AsyncServer::_s_accept</text>
</a>
</g>
</g>
<!-- Node3&#45;&gt;Node4 -->
<g id="edge3_Node000003_Node000004" class="edge">
<title>Node3&#45;&gt;Node4</title>
<g id="a_edge3_Node000003_Node000004"><a xlink:title=" ">
<path fill="none" stroke="#63b8ff" d="M324.71,-195.91C305,-200.62 283.04,-205.88 264.41,-210.34"/>
<polygon fill="#63b8ff" stroke="#63b8ff" points="325.32,-199.36 334.23,-193.63 323.69,-192.55 325.32,-199.36"/>
</a>
</g>
</g>
<!-- Node7 -->
<g id="Node000007" class="node">
<title>Node7</title>
<g id="a_Node000007"><a xlink:href="class_async_client.html#a98ff872bc84919f006f3bb8a249ed36d" target="_top" xlink:title=" ">
<polygon fill="white" stroke="#666666" points="432.38,-116.79 328.62,-116.79 328.62,-96.79 432.38,-96.79 432.38,-116.79"/>
<text xml:space="preserve" text-anchor="middle" x="380.5" y="-103.29" font-family="Helvetica,sans-Serif" font-size="10.00">AsyncClient::_close</text>
</a>
</g>
</g>
<!-- Node6&#45;&gt;Node7 -->
<g id="edge5_Node000006_Node000007" class="edge">
<title>Node6&#45;&gt;Node7</title>
<g id="a_edge5_Node000006_Node000007"><a xlink:title=" ">
<path fill="none" stroke="#63b8ff" d="M462.18,-101C452.29,-101.71 442.09,-102.44 432.41,-103.13"/>
<polygon fill="#63b8ff" stroke="#63b8ff" points="462.37,-104.49 472.1,-100.28 461.87,-97.51 462.37,-104.49"/>
</a>
</g>
</g>
<!-- Node35 -->
<g id="Node000035" class="node">
<title>Node35</title>
<g id="a_Node000035"><a xlink:href="class_async_client.html#afe295b6c577021c8946eb266ac41df51" target="_top" xlink:title=" ">
<polygon fill="white" stroke="#666666" points="426,-78.79 335,-78.79 335,-58.79 426,-58.79 426,-78.79"/>
<text xml:space="preserve" text-anchor="middle" x="380.5" y="-65.29" font-family="Helvetica,sans-Serif" font-size="10.00">AsyncClient::_fin</text>
</a>
</g>
</g>
<!-- Node6&#45;&gt;Node35 -->
<g id="edge13_Node000006_Node000035" class="edge">
<title>Node6&#45;&gt;Node35</title>
<g id="a_edge13_Node000006_Node000035"><a xlink:title=" ">
<path fill="none" stroke="#63b8ff" d="M462.62,-85.1C450.46,-82.66 437.82,-80.12 426.24,-77.79"/>
<polygon fill="#63b8ff" stroke="#63b8ff" points="461.63,-88.47 472.12,-87.01 463.01,-81.61 461.63,-88.47"/>
</a>
</g>
</g>
<!-- Node8 -->
<g id="Node000008" class="node">
<title>Node8</title>
<g id="a_Node000008"><a xlink:href="class_async_client.html#a383d1cb7d684d328362caa5eafc92ca2" target="_top" xlink:title=" ">
<polygon fill="#fff0f0" stroke="red" points="267.5,-192.79 172,-192.79 172,-172.79 267.5,-172.79 267.5,-192.79"/>
<text xml:space="preserve" text-anchor="middle" x="219.75" y="-179.29" font-family="Helvetica,sans-Serif" font-size="10.00">AsyncClient::_poll</text>
</a>
</g>
</g>
<!-- Node7&#45;&gt;Node8 -->
<g id="edge6_Node000007_Node000008" class="edge">
<title>Node7&#45;&gt;Node8</title>
<g id="a_edge6_Node000007_Node000008"><a xlink:title=" ">
<path fill="none" stroke="#63b8ff" d="M353.28,-123.06C335.09,-133.97 310.07,-148.22 287,-158.79 276.1,-163.79 263.84,-168.47 252.85,-172.36"/>
<polygon fill="#63b8ff" stroke="#63b8ff" points="354.86,-126.2 361.59,-118.02 351.23,-120.21 354.86,-126.2"/>
</a>
</g>
</g>
<!-- Node18 -->
<g id="Node000018" class="node">
<title>Node18</title>
<g id="a_Node000018"><a xlink:href="class_async_client.html#aefecfa0c75c8c1b32104115e93739087" target="_top" xlink:title=" ">
<polygon fill="#fff0f0" stroke="red" points="284,-116.79 155.5,-116.79 155.5,-96.79 284,-96.79 284,-116.79"/>
<text xml:space="preserve" text-anchor="middle" x="219.75" y="-103.29" font-family="Helvetica,sans-Serif" font-size="10.00">AsyncClient::AsyncClient</text>
</a>
</g>
</g>
<!-- Node7&#45;&gt;Node18 -->
<g id="edge7_Node000007_Node000018" class="edge">
<title>Node7&#45;&gt;Node18</title>
<g id="a_edge7_Node000007_Node000018"><a xlink:title=" ">
<path fill="none" stroke="#63b8ff" d="M316.95,-106.79C306.21,-106.79 295.05,-106.79 284.28,-106.79"/>
<polygon fill="#63b8ff" stroke="#63b8ff" points="316.88,-110.29 326.88,-106.79 316.88,-103.29 316.88,-110.29"/>
</a>
</g>
</g>
<!-- Node24 -->
<g id="Node000024" class="node">
<title>Node24</title>
<g id="a_Node000024"><a xlink:href="class_async_client.html#a575c12664279634155259e007c6a104f" target="_top" xlink:title=" ">
<polygon fill="white" stroke="#666666" points="116.5,-135.79 0,-135.79 0,-115.79 116.5,-115.79 116.5,-135.79"/>
<text xml:space="preserve" text-anchor="middle" x="58.25" y="-122.29" font-family="Helvetica,sans-Serif" font-size="10.00">AsyncClient::operator=</text>
</a>
</g>
</g>
<!-- Node7&#45;&gt;Node24 -->
<g id="edge11_Node000007_Node000024" class="edge">
<title>Node7&#45;&gt;Node24</title>
<g id="a_edge11_Node000007_Node000024"><a xlink:title=" ">
<path fill="none" stroke="#63b8ff" d="M326.79,-119.54C313.86,-122.13 299.99,-124.47 287,-125.79 229.37,-131.65 163.11,-130.8 116.98,-129.01"/>
<polygon fill="#63b8ff" stroke="#63b8ff" points="327.33,-123 336.39,-117.52 325.89,-116.15 327.33,-123"/>
</a>
</g>
</g>
<!-- Node30 -->
<g id="Node000030" class="node">
<title>Node30</title>
<g id="a_Node000030"><a xlink:href="class_async_client.html#a0305fe0b036257c03829ceaa5cc43361" target="_top" xlink:title="close connection">
<polygon fill="#fff0f0" stroke="red" points="269,-78.79 170.5,-78.79 170.5,-58.79 269,-58.79 269,-78.79"/>
<text xml:space="preserve" text-anchor="middle" x="219.75" y="-65.29" font-family="Helvetica,sans-Serif" font-size="10.00">AsyncClient::close</text>
</a>
</g>
</g>
<!-- Node7&#45;&gt;Node30 -->
<g id="edge10_Node000007_Node000030" class="edge">
<title>Node7&#45;&gt;Node30</title>
<g id="a_edge10_Node000007_Node000030"><a xlink:title=" ">
<path fill="none" stroke="#63b8ff" d="M324.71,-93.67C305,-88.96 283.04,-83.7 264.41,-79.24"/>
<polygon fill="#63b8ff" stroke="#63b8ff" points="323.69,-97.03 334.23,-95.95 325.32,-90.22 323.69,-97.03"/>
</a>
</g>
</g>
<!-- Node34 -->
<g id="Node000034" class="node">
<title>Node34</title>
<g id="a_Node000034"><a xlink:href="class_async_client.html#a4044bdcfd2ca6197f75200644685c5f0" target="_top" xlink:title=" ">
<polygon fill="white" stroke="#666666" points="287,-40.79 152.5,-40.79 152.5,-20.79 287,-20.79 287,-40.79"/>
<text xml:space="preserve" text-anchor="middle" x="219.75" y="-27.29" font-family="Helvetica,sans-Serif" font-size="10.00">AsyncClient::~AsyncClient</text>
</a>
</g>
</g>
<!-- Node7&#45;&gt;Node34 -->
<g id="edge12_Node000007_Node000034" class="edge">
<title>Node7&#45;&gt;Node34</title>
<g id="a_edge12_Node000007_Node000034"><a xlink:title=" ">
<path fill="none" stroke="#63b8ff" d="M329.66,-91.61C327.36,-90.42 325.13,-89.15 323,-87.79 303.39,-75.27 306.88,-61.87 287,-49.79 281.38,-46.37 275.11,-43.55 268.74,-41.22"/>
<polygon fill="#63b8ff" stroke="#63b8ff" points="328.13,-94.76 338.68,-95.69 331.01,-88.38 328.13,-94.76"/>
</a>
</g>
</g>
<!-- Node21 -->
<g id="Node000021" class="node">
<title>Node21</title>
<g id="a_Node000021"><a xlink:href="class_async_client.html#a6a69c67e1a22660766affb64700c2276" target="_top" xlink:title=" ">
<polygon fill="#fff0f0" stroke="red" points="109,-59.79 7.5,-59.79 7.5,-39.79 109,-39.79 109,-59.79"/>
<text xml:space="preserve" text-anchor="middle" x="58.25" y="-46.29" font-family="Helvetica,sans-Serif" font-size="10.00">AsyncClient::_s_fin</text>
</a>
</g>
</g>
<!-- Node18&#45;&gt;Node21 -->
<g id="edge8_Node000018_Node000021" class="edge">
<title>Node18&#45;&gt;Node21</title>
<g id="a_edge8_Node000018_Node000021"><a xlink:title=" ">
<path fill="none" stroke="#63b8ff" d="M168.98,-93.14C163.39,-91.43 157.81,-89.63 152.5,-87.79 128.38,-79.44 101.44,-68.26 82.74,-60.19"/>
<polygon fill="#63b8ff" stroke="#63b8ff" points="167.61,-96.39 178.2,-95.9 169.62,-89.68 167.61,-96.39"/>
</a>
</g>
</g>
<!-- Node18&#45;&gt;Node24 -->
<g id="edge9_Node000018_Node000024" class="edge">
<title>Node18&#45;&gt;Node24</title>
<g id="a_edge9_Node000018_Node000024"><a xlink:title=" ">
<path fill="none" stroke="#63b8ff" d="M143.84,-115.71C134.77,-116.79 125.61,-117.89 116.84,-118.93"/>
<polygon fill="#63b8ff" stroke="#63b8ff" points="144.23,-119.19 153.75,-114.53 143.41,-112.24 144.23,-119.19"/>
</a>
</g>
</g>
<!-- Node35&#45;&gt;Node21 -->
<g id="edge14_Node000035_Node000021" class="edge">
<title>Node35&#45;&gt;Node21</title>
<g id="a_edge14_Node000035_Node000021"><a xlink:title=" ">
<path fill="none" stroke="#63b8ff" d="M329.66,-53.61C327.36,-52.42 325.13,-51.15 323,-49.79 303.39,-37.27 308.37,-20.98 287,-11.79 214.82,19.25 119.66,-19.51 79.02,-39.39"/>
<polygon fill="#63b8ff" stroke="#63b8ff" points="328.13,-56.76 338.68,-57.69 331.01,-50.38 328.13,-56.76"/>
</a>
</g>
</g>
<!-- Node13 -->
<g id="Node000013" class="node">
<title>Node13</title>
<g id="a_Node000013"><a xlink:href="class_async_client.html#a758eaca983e03027c99003a5808883f8" target="_top" xlink:title=" ">
<polygon fill="#fff0f0" stroke="red" points="438,-40.79 323,-40.79 323,-20.79 438,-20.79 438,-40.79"/>
<text xml:space="preserve" text-anchor="middle" x="380.5" y="-27.29" font-family="Helvetica,sans-Serif" font-size="10.00">AsyncClient::_connect</text>
</a>
</g>
</g>
<!-- Node36&#45;&gt;Node13 -->
<g id="edge16_Node000036_Node000013" class="edge">
<title>Node36&#45;&gt;Node13</title>
<g id="a_edge16_Node000036_Node000013"><a xlink:title=" ">
<path fill="none" stroke="#63b8ff" d="M467.6,-42.54C458.06,-41.24 448.09,-39.88 438.44,-38.56"/>
<polygon fill="#63b8ff" stroke="#63b8ff" points="467.09,-46 477.47,-43.89 468.04,-39.07 467.09,-46"/>
</a>
</g>
</g>
</g>
</svg>

<g id="navigator" transform="translate(0 0)" fill="#404254">
  <rect fill="#f2f5e9" fill-opacity="0.5" stroke="#606060" stroke-width=".5" x="0" y="0" width="60" height="60"/>
  <use id="zoomplus" xlink:href="#zoomPlus" x="17" y="9" onmousedown="handleZoom(evt,'in')"/>
  <use id="zoomminus" xlink:href="#zoomMin" x="42" y="9" onmousedown="handleZoom(evt,'out')"/>
  <use id="reset" xlink:href="#resetDef" x="30" y="36" onmousedown="handleReset()"/>
   <use id="arrowup" xlink:href="#arrowUp" x="0" y="0" onmousedown="handlePan(0,-1)"/>
  <use id="arrowright" xlink:href="#arrowRight" x="0" y="0" onmousedown="handlePan(1,0)"/>
  <use id="arrowdown" xlink:href="#arrowDown" x="0" y="0" onmousedown="handlePan(0,1)"/>
  <use id="arrowleft" xlink:href="#arrowLeft" x="0" y="0" onmousedown="handlePan(-1,0)"/>
</g>
<svg viewBox="0 0 15 15" width="100%" height="30px" preserveAspectRatio="xMaxYMin meet">
 <g id="arrow_out" transform="scale(0.3 0.3)">
  <a xlink:href="_async_t_c_p_8cpp_a42bebdded16714188a8e554237aad2f3_icgraph_org.svg" target="_base">
   <rect id="button" ry="5" rx="5" y="6" x="6" height="38" width="38"
        fill="#f2f5e9" fill-opacity="0.5" stroke="#606060" stroke-width="1.0"/>
   <path id="arrow"
     d="M 11.500037,31.436501 C 11.940474,20.09759 22.043105,11.32322 32.158766,21.979434 L 37.068811,17.246167 C 37.068811,17.246167 37.088388,32 37.088388,32 L 22.160133,31.978069 C 22.160133,31.978069 26.997745,27.140456 26.997745,27.140456 C 18.528582,18.264221 13.291696,25.230495 11.500037,31.436501 z"
     style="fill:#404040;"/>
  </a>
 </g>
</svg>

<style type='text/css'>
<![CDATA[
[data-mouse-over-selected='false'] { opacity: 0.7; }
[data-mouse-over-selected='true']  { opacity: 1.0; }
]]>
</style>
<script type="application/ecmascript"><![CDATA[
document.addEventListener('DOMContentLoaded', (event) => {
  highlightEdges();
  highlightAdjacentNodes();
});
]]></script>
</svg>
