<?xml version="1.0" encoding="UTF-8" standalone="no"?>
<!DOCTYPE svg PUBLIC "-//W3C//DTD SVG 1.1//EN"
 "http://www.w3.org/Graphics/SVG/1.1/DTD/svg11.dtd">
<!-- Generated by graphviz version 14.1.2 (20260124.0452)
 -->
<!-- Title: _tcp_close_api Pages: 1 -->
<svg width="651pt" height="180pt"
 viewBox="0.00 0.00 651.00 180.00" xmlns="http://www.w3.org/2000/svg" xmlns:xlink="http://www.w3.org/1999/xlink">
<g id="graph0" class="graph" transform="scale(1 1) rotate(0) translate(4 176)">
<title>_tcp_close_api</title>
<!-- Node1 -->
<g id="Node000001" class="node">
<title>Node1</title>
<g id="a_Node000001"><a xlink:title=" ">
<polygon fill="#999999" stroke="#666666" points="643.25,-77 562,-77 562,-57 643.25,-57 643.25,-77"/>
<text xml:space="preserve" text-anchor="middle" x="602.62" y="-63.5" font-family="Helvetica,sans-Serif" font-size="10.00">_tcp_close_api</text>
</a>
</g>
</g>
<!-- Node2 -->
<g id="Node000002" class="node">
<title>Node2</title>
<g id="a_Node000002"><a xlink:href="_async_t_c_p_8cpp.html#a3602c1ebfae2fb2ff64a0e3d7b0568ce" target="_top" xlink:title=" ">
<polygon fill="white" stroke="#666666" points="526,-77 462.75,-77 462.75,-57 526,-57 526,-77"/>
<text xml:space="preserve" text-anchor="middle" x="494.38" y="-63.5" font-family="Helvetica,sans-Serif" font-size="10.00">_tcp_close</text>
</a>
</g>
</g>
<!-- Node1&#45;&gt;Node2 -->
<g id="edge1_Node000001_Node000002" class="edge">
<title>Node1&#45;&gt;Node2</title>
<g id="a_edge1_Node000001_Node000002"><a xlink:title=" ">
<path fill="none" stroke="#63b8ff" d="M550.36,-67C542.21,-67 534,-67 526.5,-67"/>
<polygon fill="#63b8ff" stroke="#63b8ff" points="550.25,-70.5 560.25,-67 550.25,-63.5 550.25,-70.5"/>
</a>
</g>
</g>
<!-- Node3 -->
<g id="Node000003" class="node">
<title>Node3</title>
<g id="a_Node000003"><a xlink:href="class_async_client.html#a98ff872bc84919f006f3bb8a249ed36d" target="_top" xlink:title=" ">
<polygon fill="white" stroke="#666666" points="426.75,-96 323,-96 323,-76 426.75,-76 426.75,-96"/>
<text xml:space="preserve" text-anchor="middle" x="374.88" y="-82.5" font-family="Helvetica,sans-Serif" font-size="10.00">AsyncClient::_close</text>
</a>
</g>
</g>
<!-- Node2&#45;&gt;Node3 -->
<g id="edge2_Node000002_Node000003" class="edge">
<title>Node2&#45;&gt;Node3</title>
<g id="a_edge2_Node000002_Node000003"><a xlink:title=" ">
<path fill="none" stroke="#63b8ff" d="M451.33,-73.8C443.44,-75.07 435.11,-76.42 426.98,-77.74"/>
<polygon fill="#63b8ff" stroke="#63b8ff" points="451.7,-77.29 461.01,-72.23 450.58,-70.37 451.7,-77.29"/>
</a>
</g>
</g>
<!-- Node14 -->
<g id="Node000014" class="node">
<title>Node14</title>
<g id="a_Node000014"><a xlink:href="class_async_server.html#a7e9ce55e4e1d0fab5531bac98ebfb3f9" target="_top" xlink:title=" ">
<polygon fill="white" stroke="#666666" points="425.62,-58 324.12,-58 324.12,-38 425.62,-38 425.62,-58"/>
<text xml:space="preserve" text-anchor="middle" x="374.88" y="-44.5" font-family="Helvetica,sans-Serif" font-size="10.00">AsyncServer::begin</text>
</a>
</g>
</g>
<!-- Node2&#45;&gt;Node14 -->
<g id="edge9_Node000002_Node000014" class="edge">
<title>Node2&#45;&gt;Node14</title>
<g id="a_edge9_Node000002_Node000014"><a xlink:title=" ">
<path fill="none" stroke="#63b8ff" d="M451.33,-60.2C443.14,-58.88 434.49,-57.48 426.08,-56.12"/>
<polygon fill="#63b8ff" stroke="#63b8ff" points="450.58,-63.63 461.01,-61.77 451.7,-56.71 450.58,-63.63"/>
</a>
</g>
</g>
<!-- Node4 -->
<g id="Node000004" class="node">
<title>Node4</title>
<g id="a_Node000004"><a xlink:href="class_async_client.html#a383d1cb7d684d328362caa5eafc92ca2" target="_top" xlink:title=" ">
<polygon fill="#fff0f0" stroke="red" points="267.5,-172 172,-172 172,-152 267.5,-152 267.5,-172"/>
<text xml:space="preserve" text-anchor="middle" x="219.75" y="-158.5" font-family="Helvetica,sans-Serif" font-size="10.00">AsyncClient::_poll</text>
</a>
</g>
</g>
<!-- Node3&#45;&gt;Node4 -->
<g id="edge3_Node000003_Node000004" class="edge">
<title>Node3&#45;&gt;Node4</title>
<g id="a_edge3_Node000003_Node000004"><a xlink:title=" ">
<path fill="none" stroke="#63b8ff" d="M351.72,-103.24C334.79,-115.73 310.44,-132.25 287,-143 279.82,-146.29 271.94,-149.15 264.2,-151.58"/>
<polygon fill="#63b8ff" stroke="#63b8ff" points="353.68,-106.15 359.57,-97.34 349.47,-100.56 353.68,-106.15"/>
</a>
</g>
</g>
<!-- Node15 -->
<g id="Node000015" class="node">
<title>Node15</title>
<g id="a_Node000015"><a xlink:href="class_async_client.html#aefecfa0c75c8c1b32104115e93739087" target="_top" xlink:title=" ">
<polygon fill="#fff0f0" stroke="red" points="284,-134 155.5,-134 155.5,-114 284,-114 284,-134"/>
<text xml:space="preserve" text-anchor="middle" x="219.75" y="-120.5" font-family="Helvetica,sans-Serif" font-size="10.00">AsyncClient::AsyncClient</text>
</a>
</g>
</g>
<!-- Node3&#45;&gt;Node15 -->
<g id="edge4_Node000003_Node000015" class="edge">
<title>Node3&#45;&gt;Node15</title>
<g id="a_edge4_Node000003_Node000015"><a xlink:title=" ">
<path fill="none" stroke="#63b8ff" d="M320.49,-99.25C301.62,-103.93 280.67,-109.13 262.86,-113.55"/>
<polygon fill="#63b8ff" stroke="#63b8ff" points="321.3,-102.65 330.16,-96.85 319.61,-95.86 321.3,-102.65"/>
</a>
</g>
</g>
<!-- Node21 -->
<g id="Node000021" class="node">
<title>Node21</title>
<g id="a_Node000021"><a xlink:href="class_async_client.html#a575c12664279634155259e007c6a104f" target="_top" xlink:title=" ">
<polygon fill="white" stroke="#666666" points="116.5,-115 0,-115 0,-95 116.5,-95 116.5,-115"/>
<text xml:space="preserve" text-anchor="middle" x="58.25" y="-101.5" font-family="Helvetica,sans-Serif" font-size="10.00">AsyncClient::operator=</text>
</a>
</g>
</g>
<!-- Node3&#45;&gt;Node21 -->
<g id="edge7_Node000003_Node000021" class="edge">
<title>Node3&#45;&gt;Node21</title>
<g id="a_edge7_Node000003_Node000021"><a xlink:title=" ">
<path fill="none" stroke="#63b8ff" d="M311.31,-89.78C254.68,-93.2 171.93,-98.2 116.88,-101.52"/>
<polygon fill="#63b8ff" stroke="#63b8ff" points="311.34,-93.28 321.11,-89.19 310.92,-86.3 311.34,-93.28"/>
</a>
</g>
</g>
<!-- Node27 -->
<g id="Node000027" class="node">
<title>Node27</title>
<g id="a_Node000027"><a xlink:href="class_async_client.html#a0305fe0b036257c03829ceaa5cc43361" target="_top" xlink:title="close connection">
<polygon fill="#fff0f0" stroke="red" points="269,-58 170.5,-58 170.5,-38 269,-38 269,-58"/>
<text xml:space="preserve" text-anchor="middle" x="219.75" y="-44.5" font-family="Helvetica,sans-Serif" font-size="10.00">AsyncClient::close</text>
</a>
</g>
</g>
<!-- Node3&#45;&gt;Node27 -->
<g id="edge6_Node000003_Node000027" class="edge">
<title>Node3&#45;&gt;Node27</title>
<g id="a_edge6_Node000003_Node000027"><a xlink:title=" ">
<path fill="none" stroke="#63b8ff" d="M320.49,-72.75C301.62,-68.07 280.67,-62.87 262.86,-58.45"/>
<polygon fill="#63b8ff" stroke="#63b8ff" points="319.61,-76.14 330.16,-75.15 321.3,-69.35 319.61,-76.14"/>
</a>
</g>
</g>
<!-- Node31 -->
<g id="Node000031" class="node">
<title>Node31</title>
<g id="a_Node000031"><a xlink:href="class_async_client.html#a4044bdcfd2ca6197f75200644685c5f0" target="_top" xlink:title=" ">
<polygon fill="white" stroke="#666666" points="287,-20 152.5,-20 152.5,0 287,0 287,-20"/>
<text xml:space="preserve" text-anchor="middle" x="219.75" y="-6.5" font-family="Helvetica,sans-Serif" font-size="10.00">AsyncClient::~AsyncClient</text>
</a>
</g>
</g>
<!-- Node3&#45;&gt;Node31 -->
<g id="edge8_Node000003_Node000031" class="edge">
<title>Node3&#45;&gt;Node31</title>
<g id="a_edge8_Node000003_Node000031"><a xlink:title=" ">
<path fill="none" stroke="#63b8ff" d="M329.16,-70.69C327.03,-69.53 324.97,-68.3 323,-67 303.6,-54.15 306.88,-41.08 287,-29 281.38,-25.58 275.11,-22.76 268.74,-20.43"/>
<polygon fill="#63b8ff" stroke="#63b8ff" points="327.54,-73.79 338.07,-74.94 330.55,-67.47 327.54,-73.79"/>
</a>
</g>
</g>
<!-- Node15&#45;&gt;Node21 -->
<g id="edge5_Node000015_Node000021" class="edge">
<title>Node15&#45;&gt;Node21</title>
<g id="a_edge5_Node000015_Node000021"><a xlink:title=" ">
<path fill="none" stroke="#63b8ff" d="M143.84,-115.08C134.77,-114 125.61,-112.91 116.84,-111.86"/>
<polygon fill="#63b8ff" stroke="#63b8ff" points="143.41,-118.55 153.75,-116.26 144.23,-111.6 143.41,-118.55"/>
</a>
</g>
</g>
</g>
</svg>
