<?xml version="1.0" encoding="UTF-8" standalone="no"?>
<!DOCTYPE svg PUBLIC "-//W3C//DTD SVG 1.1//EN"
 "http://www.w3.org/Graphics/SVG/1.1/DTD/svg11.dtd">
<!-- Generated by graphviz version 14.1.2 (20260124.0452)
 -->
<!-- Title: AuthSync.cpp Pages: 1 -->
<svg width="893pt" height="140pt"
 viewBox="0.00 0.00 893.00 140.00" xmlns="http://www.w3.org/2000/svg" xmlns:xlink="http://www.w3.org/1999/xlink">
<g id="graph0" class="graph" transform="scale(1 1) rotate(0) translate(4 136)">
<title>AuthSync.cpp</title>
<!-- Node1 -->
<g id="Node000001" class="node">
<title>Node1</title>
<g id="a_Node000001"><a xlink:title=" ">
<polygon fill="#999999" stroke="#666666" points="498.75,-132 421.25,-132 421.25,-112 498.75,-112 498.75,-132"/>
<text xml:space="preserve" text-anchor="middle" x="460" y="-118.5" font-family="Helvetica,sans-Serif" font-size="10.00">AuthSync.cpp</text>
</a>
</g>
</g>
<!-- Node2 -->
<g id="Node000002" class="node">
<title>Node2</title>
<g id="a_Node000002"><a xlink:href="_auth_sync_8h.html" target="_top" xlink:title=" ">
<polygon fill="white" stroke="#666666" points="165.5,-76 98.5,-76 98.5,-56 165.5,-56 165.5,-76"/>
<text xml:space="preserve" text-anchor="middle" x="132" y="-62.5" font-family="Helvetica,sans-Serif" font-size="10.00">AuthSync.h</text>
</a>
</g>
</g>
<!-- Node1&#45;&gt;Node2 -->
<g id="edge1_Node000001_Node000002" class="edge">
<title>Node1&#45;&gt;Node2</title>
<g id="a_edge1_Node000001_Node000002"><a xlink:title=" ">
<path fill="none" stroke="#63b8ff" d="M420.99,-115.06C366.84,-106.74 265.85,-90.95 180,-76 179,-75.83 177.98,-75.65 176.95,-75.47"/>
<polygon fill="#63b8ff" stroke="#63b8ff" points="177.76,-72.05 167.3,-73.72 176.52,-78.94 177.76,-72.05"/>
</a>
</g>
</g>
<!-- Node3 -->
<g id="Node000003" class="node">
<title>Node3</title>
<g id="a_Node000003"><a xlink:title=" ">
<polygon fill="#e0e0e0" stroke="#999999" points="76,-20 0,-20 0,0 76,0 76,-20"/>
<text xml:space="preserve" text-anchor="middle" x="38" y="-6.5" font-family="Helvetica,sans-Serif" font-size="10.00">HTTPClient.h</text>
</a>
</g>
</g>
<!-- Node1&#45;&gt;Node3 -->
<g id="edge9_Node000001_Node000003" class="edge">
<title>Node1&#45;&gt;Node3</title>
<g id="a_edge9_Node000001_Node000003"><a xlink:title=" ">
<path fill="none" stroke="#63b8ff" d="M420.88,-119.94C337.66,-117.1 146.1,-107.27 90,-76 71.31,-65.58 56.85,-45.47 47.97,-30.37"/>
<polygon fill="#63b8ff" stroke="#63b8ff" points="51.13,-28.86 43.24,-21.79 45,-32.23 51.13,-28.86"/>
</a>
</g>
</g>
<!-- Node5 -->
<g id="Node000005" class="node">
<title>Node5</title>
<g id="a_Node000005"><a xlink:title=" ">
<polygon fill="#e0e0e0" stroke="#999999" points="231.5,-20 188.5,-20 188.5,0 231.5,0 231.5,-20"/>
<text xml:space="preserve" text-anchor="middle" x="210" y="-6.5" font-family="Helvetica,sans-Serif" font-size="10.00">vector</text>
</a>
</g>
</g>
<!-- Node1&#45;&gt;Node5 -->
<g id="edge12_Node000001_Node000005" class="edge">
<title>Node1&#45;&gt;Node5</title>
<g id="a_edge12_Node000001_Node000005"><a xlink:title=" ">
<path fill="none" stroke="#63b8ff" d="M420.93,-119.6C358.3,-116.47 239.71,-106.56 213,-76 202.53,-64.03 202.67,-45.57 204.91,-31.38"/>
<polygon fill="#63b8ff" stroke="#63b8ff" points="208.31,-32.26 206.91,-21.76 201.45,-30.84 208.31,-32.26"/>
</a>
</g>
</g>
<!-- Node6 -->
<g id="Node000006" class="node">
<title>Node6</title>
<g id="a_Node000006"><a xlink:href="_hash_utils_8h.html" target="_top" xlink:title=" ">
<polygon fill="white" stroke="#666666" points="289.88,-76 222.12,-76 222.12,-56 289.88,-56 289.88,-76"/>
<text xml:space="preserve" text-anchor="middle" x="256" y="-62.5" font-family="Helvetica,sans-Serif" font-size="10.00">HashUtils.h</text>
</a>
</g>
</g>
<!-- Node1&#45;&gt;Node6 -->
<g id="edge5_Node000001_Node000006" class="edge">
<title>Node1&#45;&gt;Node6</title>
<g id="a_edge5_Node000001_Node000006"><a xlink:title=" ">
<path fill="none" stroke="#63b8ff" d="M424.47,-111.59C390.22,-102.53 338.28,-88.78 301.13,-78.95"/>
<polygon fill="#63b8ff" stroke="#63b8ff" points="302.13,-75.59 291.57,-76.42 300.34,-82.36 302.13,-75.59"/>
</a>
</g>
</g>
<!-- Node7 -->
<g id="Node000007" class="node">
<title>Node7</title>
<g id="a_Node000007"><a xlink:title=" ">
<polygon fill="#e0e0e0" stroke="#999999" points="363.88,-76 308.12,-76 308.12,-56 363.88,-56 363.88,-76"/>
<text xml:space="preserve" text-anchor="middle" x="336" y="-62.5" font-family="Helvetica,sans-Serif" font-size="10.00">algorithm</text>
</a>
</g>
</g>
<!-- Node1&#45;&gt;Node7 -->
<g id="edge6_Node000001_Node000007" class="edge">
<title>Node1&#45;&gt;Node7</title>
<g id="a_edge6_Node000001_Node000007"><a xlink:title=" ">
<path fill="none" stroke="#63b8ff" d="M438.4,-111.59C419.05,-103.17 390.4,-90.69 368.32,-81.07"/>
<polygon fill="#63b8ff" stroke="#63b8ff" points="369.72,-77.87 359.16,-77.08 366.93,-84.29 369.72,-77.87"/>
</a>
</g>
</g>
<!-- Node8 -->
<g id="Node000008" class="node">
<title>Node8</title>
<g id="a_Node000008"><a xlink:title=" ">
<polygon fill="#e0e0e0" stroke="#999999" points="460.12,-76 381.88,-76 381.88,-56 460.12,-56 460.12,-76"/>
<text xml:space="preserve" text-anchor="middle" x="421" y="-62.5" font-family="Helvetica,sans-Serif" font-size="10.00">ArduinoJson.h</text>
</a>
</g>
</g>
<!-- Node1&#45;&gt;Node8 -->
<g id="edge7_Node000001_Node000008" class="edge">
<title>Node1&#45;&gt;Node8</title>
<g id="a_edge7_Node000001_Node000008"><a xlink:title=" ">
<path fill="none" stroke="#63b8ff" d="M453.21,-111.59C448.01,-104.39 440.67,-94.23 434.31,-85.43"/>
<polygon fill="#63b8ff" stroke="#63b8ff" points="437.29,-83.58 428.6,-77.53 431.62,-87.68 437.29,-83.58"/>
</a>
</g>
</g>
<!-- Node9 -->
<g id="Node000009" class="node">
<title>Node9</title>
<g id="a_Node000009"><a xlink:title=" ">
<polygon fill="#e0e0e0" stroke="#999999" points="522.25,-76 477.75,-76 477.75,-56 522.25,-56 522.25,-76"/>
<text xml:space="preserve" text-anchor="middle" x="500" y="-62.5" font-family="Helvetica,sans-Serif" font-size="10.00">cstdlib</text>
</a>
</g>
</g>
<!-- Node1&#45;&gt;Node9 -->
<g id="edge8_Node000001_Node000009" class="edge">
<title>Node1&#45;&gt;Node9</title>
<g id="a_edge8_Node000001_Node000009"><a xlink:title=" ">
<path fill="none" stroke="#63b8ff" d="M466.97,-111.59C472.3,-104.39 479.83,-94.23 486.35,-85.43"/>
<polygon fill="#63b8ff" stroke="#63b8ff" points="489.07,-87.63 492.21,-77.51 483.45,-83.47 489.07,-87.63"/>
</a>
</g>
</g>
<!-- Node10 -->
<g id="Node000010" class="node">
<title>Node10</title>
<g id="a_Node000010"><a xlink:title=" ">
<polygon fill="#e0e0e0" stroke="#999999" points="598,-76 540,-76 540,-56 598,-56 598,-76"/>
<text xml:space="preserve" text-anchor="middle" x="569" y="-62.5" font-family="Helvetica,sans-Serif" font-size="10.00">LittleFS.h</text>
</a>
</g>
</g>
<!-- Node1&#45;&gt;Node10 -->
<g id="edge10_Node000001_Node000010" class="edge">
<title>Node1&#45;&gt;Node10</title>
<g id="a_edge10_Node000001_Node000010"><a xlink:title=" ">
<path fill="none" stroke="#63b8ff" d="M478.99,-111.59C495.76,-103.28 520.49,-91.03 539.79,-81.47"/>
<polygon fill="#63b8ff" stroke="#63b8ff" points="541.1,-84.73 548.51,-77.15 537.99,-78.45 541.1,-84.73"/>
</a>
</g>
</g>
<!-- Node11 -->
<g id="Node000011" class="node">
<title>Node11</title>
<g id="a_Node000011"><a xlink:title=" ">
<polygon fill="#e0e0e0" stroke="#999999" points="655.62,-76 616.38,-76 616.38,-56 655.62,-56 655.62,-76"/>
<text xml:space="preserve" text-anchor="middle" x="636" y="-62.5" font-family="Helvetica,sans-Serif" font-size="10.00">limits</text>
</a>
</g>
</g>
<!-- Node1&#45;&gt;Node11 -->
<g id="edge11_Node000001_Node000011" class="edge">
<title>Node1&#45;&gt;Node11</title>
<g id="a_edge11_Node000001_Node000011"><a xlink:title=" ">
<path fill="none" stroke="#63b8ff" d="M490.98,-111.55C518.53,-103.15 560.19,-90.41 605.16,-76.56"/>
<polygon fill="#63b8ff" stroke="#63b8ff" points="606.06,-79.94 614.59,-73.65 604,-73.25 606.06,-79.94"/>
</a>
</g>
</g>
<!-- Node12 -->
<g id="Node000012" class="node">
<title>Node12</title>
<g id="a_Node000012"><a xlink:title=" ">
<polygon fill="#e0e0e0" stroke="#999999" points="718.25,-76 673.75,-76 673.75,-56 718.25,-56 718.25,-76"/>
<text xml:space="preserve" text-anchor="middle" x="696" y="-62.5" font-family="Helvetica,sans-Serif" font-size="10.00">WiFi.h</text>
</a>
</g>
</g>
<!-- Node1&#45;&gt;Node12 -->
<g id="edge13_Node000001_Node000012" class="edge">
<title>Node1&#45;&gt;Node12</title>
<g id="a_edge13_Node000001_Node000012"><a xlink:title=" ">
<path fill="none" stroke="#63b8ff" d="M499.1,-113.22C538.22,-105.26 600.35,-92.15 662.57,-76.5"/>
<polygon fill="#63b8ff" stroke="#63b8ff" points="663.06,-79.99 671.89,-74.13 661.34,-73.2 663.06,-79.99"/>
</a>
</g>
</g>
<!-- Node13 -->
<g id="Node000013" class="node">
<title>Node13</title>
<g id="a_Node000013"><a xlink:title=" ">
<polygon fill="#e0e0e0" stroke="#999999" points="829.25,-76 736.75,-76 736.75,-56 829.25,-56 829.25,-76"/>
<text xml:space="preserve" text-anchor="middle" x="783" y="-62.5" font-family="Helvetica,sans-Serif" font-size="10.00">esp_heap_caps.h</text>
</a>
</g>
</g>
<!-- Node1&#45;&gt;Node13 -->
<g id="edge14_Node000001_Node000013" class="edge">
<title>Node1&#45;&gt;Node13</title>
<g id="a_edge14_Node000001_Node000013"><a xlink:title=" ">
<path fill="none" stroke="#63b8ff" d="M498.96,-114.49C555.23,-105.08 659.65,-87.62 725,-76.7"/>
<polygon fill="#63b8ff" stroke="#63b8ff" points="725.55,-80.15 734.84,-75.05 724.4,-73.25 725.55,-80.15"/>
</a>
</g>
</g>
<!-- Node14 -->
<g id="Node000014" class="node">
<title>Node14</title>
<g id="a_Node000014"><a xlink:title=" ">
<polygon fill="#e0e0e0" stroke="#999999" points="884.5,-76 847.5,-76 847.5,-56 884.5,-56 884.5,-76"/>
<text xml:space="preserve" text-anchor="middle" x="866" y="-62.5" font-family="Helvetica,sans-Serif" font-size="10.00">FS.h</text>
</a>
</g>
</g>
<!-- Node1&#45;&gt;Node14 -->
<g id="edge15_Node000001_Node000014" class="edge">
<title>Node1&#45;&gt;Node14</title>
<g id="a_edge15_Node000001_Node000014"><a xlink:title=" ">
<path fill="none" stroke="#63b8ff" d="M499.04,-118.84C566.13,-114.58 707.65,-103.28 835.97,-76.02"/>
<polygon fill="#63b8ff" stroke="#63b8ff" points="836.65,-79.46 845.68,-73.92 835.16,-72.62 836.65,-79.46"/>
</a>
</g>
</g>
<!-- Node2&#45;&gt;Node3 -->
<g id="edge2_Node000002_Node000003" class="edge">
<title>Node2&#45;&gt;Node3</title>
<g id="a_edge2_Node000002_Node000003"><a xlink:title=" ">
<path fill="none" stroke="#63b8ff" d="M115.63,-55.59C101.43,-47.44 80.62,-35.48 64.12,-26"/>
<polygon fill="#63b8ff" stroke="#63b8ff" points="66.23,-23.18 55.81,-21.23 62.74,-29.25 66.23,-23.18"/>
</a>
</g>
</g>
<!-- Node4 -->
<g id="Node000004" class="node">
<title>Node4</title>
<g id="a_Node000004"><a xlink:title=" ">
<polygon fill="#e0e0e0" stroke="#999999" points="170.38,-20 93.62,-20 93.62,0 170.38,0 170.38,-20"/>
<text xml:space="preserve" text-anchor="middle" x="132" y="-6.5" font-family="Helvetica,sans-Serif" font-size="10.00">Preferences.h</text>
</a>
</g>
</g>
<!-- Node2&#45;&gt;Node4 -->
<g id="edge3_Node000002_Node000004" class="edge">
<title>Node2&#45;&gt;Node4</title>
<g id="a_edge3_Node000002_Node000004"><a xlink:title=" ">
<path fill="none" stroke="#63b8ff" d="M132,-55.59C132,-49.01 132,-39.96 132,-31.73"/>
<polygon fill="#63b8ff" stroke="#63b8ff" points="135.5,-31.81 132,-21.81 128.5,-31.81 135.5,-31.81"/>
</a>
</g>
</g>
<!-- Node2&#45;&gt;Node5 -->
<g id="edge4_Node000002_Node000005" class="edge">
<title>Node2&#45;&gt;Node5</title>
<g id="a_edge4_Node000002_Node000005"><a xlink:title=" ">
<path fill="none" stroke="#63b8ff" d="M145.59,-55.59C157.04,-47.67 173.66,-36.16 187.16,-26.82"/>
<polygon fill="#63b8ff" stroke="#63b8ff" points="188.83,-29.91 195.06,-21.34 184.85,-24.16 188.83,-29.91"/>
</a>
</g>
</g>
</g>
</svg>
