<?xml version="1.0" encoding="UTF-8" standalone="no"?>
<!DOCTYPE svg PUBLIC "-//W3C//DTD SVG 1.1//EN"
 "http://www.w3.org/Graphics/SVG/1.1/DTD/svg11.dtd">
<!-- Generated by graphviz version 14.1.2 (20260124.0452)
 -->
<!-- Title: AuthSync.h Pages: 1 -->
<svg width="240pt" height="84pt"
 viewBox="0.00 0.00 240.00 84.00" xmlns="http://www.w3.org/2000/svg" xmlns:xlink="http://www.w3.org/1999/xlink">
<g id="graph0" class="graph" transform="scale(1 1) rotate(0) translate(4 80)">
<title>AuthSync.h</title>
<!-- Node1 -->
<g id="Node000001" class="node">
<title>Node1</title>
<g id="a_Node000001"><a xlink:title=" ">
<polygon fill="#999999" stroke="#666666" points="165.5,-76 98.5,-76 98.5,-56 165.5,-56 165.5,-76"/>
<text xml:space="preserve" text-anchor="middle" x="132" y="-62.5" font-family="Helvetica,sans-Serif" font-size="10.00">AuthSync.h</text>
</a>
</g>
</g>
<!-- Node2 -->
<g id="Node000002" class="node">
<title>Node2</title>
<g id="a_Node000002"><a xlink:title=" ">
<polygon fill="#e0e0e0" stroke="#999999" points="76,-20 0,-20 0,0 76,0 76,-20"/>
<text xml:space="preserve" text-anchor="middle" x="38" y="-6.5" font-family="Helvetica,sans-Serif" font-size="10.00">HTTPClient.h</text>
</a>
</g>
</g>
<!-- Node1&#45;&gt;Node2 -->
<g id="edge1_Node000001_Node000002" class="edge">
<title>Node1&#45;&gt;Node2</title>
<g id="a_edge1_Node000001_Node000002"><a xlink:title=" ">
<path fill="none" stroke="#63b8ff" d="M115.63,-55.59C101.43,-47.44 80.62,-35.48 64.12,-26"/>
<polygon fill="#63b8ff" stroke="#63b8ff" points="66.23,-23.18 55.81,-21.23 62.74,-29.25 66.23,-23.18"/>
</a>
</g>
</g>
<!-- Node3 -->
<g id="Node000003" class="node">
<title>Node3</title>
<g id="a_Node000003"><a xlink:title=" ">
<polygon fill="#e0e0e0" stroke="#999999" points="170.38,-20 93.62,-20 93.62,0 170.38,0 170.38,-20"/>
<text xml:space="preserve" text-anchor="middle" x="132" y="-6.5" font-family="Helvetica,sans-Serif" font-size="10.00">Preferences.h</text>
</a>
</g>
</g>
<!-- Node1&#45;&gt;Node3 -->
<g id="edge2_Node000001_Node000003" class="edge">
<title>Node1&#45;&gt;Node3</title>
<g id="a_edge2_Node000001_Node000003"><a xlink:title=" ">
<path fill="none" stroke="#63b8ff" d="M132,-55.59C132,-49.01 132,-39.96 132,-31.73"/>
<polygon fill="#63b8ff" stroke="#63b8ff" points="135.5,-31.81 132,-21.81 128.5,-31.81 135.5,-31.81"/>
</a>
</g>
</g>
<!-- Node4 -->
<g id="Node000004" class="node">
<title>Node4</title>
<g id="a_Node000004"><a xlink:title=" ">
<polygon fill="#e0e0e0" stroke="#999999" points="231.5,-20 188.5,-20 188.5,0 231.5,0 231.5,-20"/>
<text xml:space="preserve" text-anchor="middle" x="210" y="-6.5" font-family="Helvetica,sans-Serif" font-size="10.00">vector</text>
</a>
</g>
</g>
<!-- Node1&#45;&gt;Node4 -->
<g id="edge3_Node000001_Node000004" class="edge">
<title>Node1&#45;&gt;Node4</title>
<g id="a_edge3_Node000001_Node000004"><a xlink:title=" ">
<path fill="none" stroke="#63b8ff" d="M145.59,-55.59C157.04,-47.67 173.66,-36.16 187.16,-26.82"/>
<polygon fill="#63b8ff" stroke="#63b8ff" points="188.83,-29.91 195.06,-21.34 184.85,-24.16 188.83,-29.91"/>
</a>
</g>
</g>
</g>
</svg>
