<?xml version="1.0" encoding="UTF-8" standalone="no"?>
<!DOCTYPE svg PUBLIC "-//W3C//DTD SVG 1.1//EN"
 "http://www.w3.org/Graphics/SVG/1.1/DTD/svg11.dtd">
<!-- Generated by graphviz version 14.1.2 (20260124.0452)
 -->
<!-- Title: fnv1a64_bytes Pages: 1 -->
<svg width="754pt" height="85pt"
 viewBox="0.00 0.00 754.00 85.00" xmlns="http://www.w3.org/2000/svg" xmlns:xlink="http://www.w3.org/1999/xlink">
<g id="graph0" class="graph" transform="scale(1 1) rotate(0) translate(4 81)">
<title>fnv1a64_bytes</title>
<!-- Node1 -->
<g id="Node000001" class="node">
<title>Node1</title>
<g id="a_Node000001"><a xlink:title=" ">
<polygon fill="#999999" stroke="#666666" points="745.5,-20 665.75,-20 665.75,0 745.5,0 745.5,-20"/>
<text xml:space="preserve" text-anchor="middle" x="705.62" y="-6.5" font-family="Helvetica,sans-Serif" font-size="10.00">fnv1a64_bytes</text>
</a>
</g>
</g>
<!-- Node2 -->
<g id="Node000002" class="node">
<title>Node2</title>
<g id="a_Node000002"><a xlink:href="namespace_hash_utils.html#a3432774829b6752dc346491bc5dd5eec" target="_top" xlink:title=" ">
<polygon fill="white" stroke="#666666" points="629.75,-20 528.25,-20 528.25,0 629.75,0 629.75,-20"/>
<text xml:space="preserve" text-anchor="middle" x="579" y="-6.5" font-family="Helvetica,sans-Serif" font-size="10.00">HashUtils::hashUid</text>
</a>
</g>
</g>
<!-- Node1&#45;&gt;Node2 -->
<g id="edge1_Node000001_Node000002" class="edge">
<title>Node1&#45;&gt;Node2</title>
<g id="a_edge1_Node000001_Node000002"><a xlink:title=" ">
<path fill="none" stroke="#63b8ff" d="M654.11,-10C646.14,-10 637.91,-10 629.95,-10"/>
<polygon fill="#63b8ff" stroke="#63b8ff" points="654.02,-13.5 664.02,-10 654.02,-6.5 654.02,-13.5"/>
</a>
</g>
</g>
<!-- Node3 -->
<g id="Node000003" class="node">
<title>Node3</title>
<g id="a_Node000003"><a xlink:href="class_auth_sync.html#afea91831a16e241cc5db5163299fc900" target="_top" xlink:title=" ">
<polygon fill="white" stroke="#666666" points="492.25,-39 391.5,-39 391.5,-19 492.25,-19 492.25,-39"/>
<text xml:space="preserve" text-anchor="middle" x="441.88" y="-25.5" font-family="Helvetica,sans-Serif" font-size="10.00">AuthSync::hashUid</text>
</a>
</g>
</g>
<!-- Node2&#45;&gt;Node3 -->
<g id="edge2_Node000002_Node000003" class="edge">
<title>Node2&#45;&gt;Node3</title>
<g id="a_edge2_Node000002_Node000003"><a xlink:title=" ">
<path fill="none" stroke="#63b8ff" d="M516.76,-18.61C508.68,-19.75 500.46,-20.9 492.6,-22.01"/>
<polygon fill="#63b8ff" stroke="#63b8ff" points="517.15,-22.09 526.57,-17.23 516.18,-15.16 517.15,-22.09"/>
</a>
</g>
</g>
<!-- Node6 -->
<g id="Node000006" class="node">
<title>Node6</title>
<g id="a_Node000006"><a xlink:href="main_8cpp.html#afe461d27b9c48d5921c00d521181f12f" target="_top" xlink:title=" ">
<polygon fill="white" stroke="#666666" points="34,-20 0,-20 0,0 34,0 34,-20"/>
<text xml:space="preserve" text-anchor="middle" x="17" y="-6.5" font-family="Helvetica,sans-Serif" font-size="10.00">loop</text>
</a>
</g>
</g>
<!-- Node2&#45;&gt;Node6 -->
<g id="edge7_Node000002_Node000006" class="edge">
<title>Node2&#45;&gt;Node6</title>
<g id="a_edge7_Node000002_Node000006"><a xlink:title=" ">
<path fill="none" stroke="#63b8ff" d="M516.4,-10C389.58,-10 105.2,-10 34.27,-10"/>
<polygon fill="#63b8ff" stroke="#63b8ff" points="516.3,-13.5 526.3,-10 516.3,-6.5 516.3,-13.5"/>
</a>
</g>
</g>
<!-- Node4 -->
<g id="Node000004" class="node">
<title>Node4</title>
<g id="a_Node000004"><a xlink:href="class_auth_sync.html#a4e7f7720c3b9e51ceb1ab4d911f03e23" target="_top" xlink:title=" ">
<polygon fill="white" stroke="#666666" points="355.5,-77 224.75,-77 224.75,-57 355.5,-57 355.5,-77"/>
<text xml:space="preserve" text-anchor="middle" x="290.12" y="-63.5" font-family="Helvetica,sans-Serif" font-size="10.00">AuthSync::addKnownAuth</text>
</a>
</g>
</g>
<!-- Node3&#45;&gt;Node4 -->
<g id="edge3_Node000003_Node000004" class="edge">
<title>Node3&#45;&gt;Node4</title>
<g id="a_edge3_Node000003_Node000004"><a xlink:title=" ">
<path fill="none" stroke="#63b8ff" d="M388.41,-42.31C370.02,-46.98 349.64,-52.15 332.31,-56.55"/>
<polygon fill="#63b8ff" stroke="#63b8ff" points="389.26,-45.71 398.09,-39.86 387.54,-38.92 389.26,-45.71"/>
</a>
</g>
</g>
<!-- Node5 -->
<g id="Node000005" class="node">
<title>Node5</title>
<g id="a_Node000005"><a xlink:href="class_auth_sync.html#aeb16a776532ee69ba1ca44b11904a2c2" target="_top" xlink:title=" ">
<polygon fill="white" stroke="#666666" points="188.75,-39 70,-39 70,-19 188.75,-19 188.75,-39"/>
<text xml:space="preserve" text-anchor="middle" x="129.38" y="-25.5" font-family="Helvetica,sans-Serif" font-size="10.00">AuthSync::isAuthorized</text>
</a>
</g>
</g>
<!-- Node3&#45;&gt;Node5 -->
<g id="edge6_Node000003_Node000005" class="edge">
<title>Node3&#45;&gt;Node5</title>
<g id="a_edge6_Node000003_Node000005"><a xlink:title=" ">
<path fill="none" stroke="#63b8ff" d="M379.94,-29C324.62,-29 243.59,-29 189.01,-29"/>
<polygon fill="#63b8ff" stroke="#63b8ff" points="379.82,-32.5 389.82,-29 379.82,-25.5 379.82,-32.5"/>
</a>
</g>
</g>
<!-- Node4&#45;&gt;Node5 -->
<g id="edge4_Node000004_Node000005" class="edge">
<title>Node4&#45;&gt;Node5</title>
<g id="a_edge4_Node000004_Node000005"><a xlink:title=" ">
<path fill="none" stroke="#63b8ff" d="M234.33,-53.88C214.62,-49.17 192.67,-43.91 174.03,-39.45"/>
<polygon fill="#63b8ff" stroke="#63b8ff" points="233.31,-57.24 243.85,-56.16 234.94,-50.43 233.31,-57.24"/>
</a>
</g>
</g>
<!-- Node5&#45;&gt;Node6 -->
<g id="edge5_Node000005_Node000006" class="edge">
<title>Node5&#45;&gt;Node6</title>
<g id="a_edge5_Node000005_Node000006"><a xlink:title=" ">
<path fill="none" stroke="#63b8ff" d="M58.52,-16.97C49.57,-15.44 41.18,-13.99 34.38,-12.82"/>
<polygon fill="#63b8ff" stroke="#63b8ff" points="57.69,-20.38 68.14,-18.63 58.88,-13.49 57.69,-20.38"/>
</a>
</g>
</g>
</g>
</svg>
