<?xml version="1.0" encoding="UTF-8" standalone="no"?>
<!DOCTYPE svg PUBLIC "-//W3C//DTD SVG 1.1//EN"
 "http://www.w3.org/Graphics/SVG/1.1/DTD/svg11.dtd">
<!-- Generated by graphviz version 14.1.2 (20260124.0452)
 -->
<!-- Title: fnv1a64_bytes Pages: 1 -->
<svg width="690pt" height="104pt"
 viewBox="0.00 0.00 690.00 104.00" xmlns="http://www.w3.org/2000/svg" xmlns:xlink="http://www.w3.org/1999/xlink">
<g id="graph0" class="graph" transform="scale(1 1) rotate(0) translate(4 100)">
<title>fnv1a64_bytes</title>
<!-- Node1 -->
<g id="Node000001" class="node">
<title>Node1</title>
<g id="a_Node000001"><a xlink:title=" ">
<polygon fill="#999999" stroke="#666666" points="681.5,-39 601.75,-39 601.75,-19 681.5,-19 681.5,-39"/>
<text xml:space="preserve" text-anchor="middle" x="641.62" y="-25.5" font-family="Helvetica,sans-Serif" font-size="10.00">fnv1a64_bytes</text>
</a>
</g>
</g>
<!-- Node2 -->
<g id="Node000002" class="node">
<title>Node2</title>
<g id="a_Node000002"><a xlink:href="namespace_hash_utils.html#a3432774829b6752dc346491bc5dd5eec" target="_top" xlink:title=" ">
<polygon fill="white" stroke="#666666" points="565.75,-39 464.25,-39 464.25,-19 565.75,-19 565.75,-39"/>
<text xml:space="preserve" text-anchor="middle" x="515" y="-25.5" font-family="Helvetica,sans-Serif" font-size="10.00">HashUtils::hashUid</text>
</a>
</g>
</g>
<!-- Node1&#45;&gt;Node2 -->
<g id="edge1_Node000001_Node000002" class="edge">
<title>Node1&#45;&gt;Node2</title>
<g id="a_edge1_Node000001_Node000002"><a xlink:title=" ">
<path fill="none" stroke="#63b8ff" d="M590.11,-29C582.14,-29 573.91,-29 565.95,-29"/>
<polygon fill="#63b8ff" stroke="#63b8ff" points="590.02,-32.5 600.02,-29 590.02,-25.5 590.02,-32.5"/>
</a>
</g>
</g>
<!-- Node3 -->
<g id="Node000003" class="node">
<title>Node3</title>
<g id="a_Node000003"><a xlink:href="class_auth_sync.html#afea91831a16e241cc5db5163299fc900" target="_top" xlink:title=" ">
<polygon fill="white" stroke="#666666" points="428.25,-58 327.5,-58 327.5,-38 428.25,-38 428.25,-58"/>
<text xml:space="preserve" text-anchor="middle" x="377.88" y="-44.5" font-family="Helvetica,sans-Serif" font-size="10.00">AuthSync::hashUid</text>
</a>
</g>
</g>
<!-- Node2&#45;&gt;Node3 -->
<g id="edge2_Node000002_Node000003" class="edge">
<title>Node2&#45;&gt;Node3</title>
<g id="a_edge2_Node000002_Node000003"><a xlink:title=" ">
<path fill="none" stroke="#63b8ff" d="M452.76,-37.61C444.68,-38.75 436.46,-39.9 428.6,-41.01"/>
<polygon fill="#63b8ff" stroke="#63b8ff" points="453.15,-41.09 462.57,-36.23 452.18,-34.16 453.15,-41.09"/>
</a>
</g>
</g>
<!-- Node9 -->
<g id="Node000009" class="node">
<title>Node9</title>
<g id="a_Node000009"><a xlink:href="main_8cpp.html#afe461d27b9c48d5921c00d521181f12f" target="_top" xlink:title=" ">
<polygon fill="white" stroke="#666666" points="394.88,-20 360.88,-20 360.88,0 394.88,0 394.88,-20"/>
<text xml:space="preserve" text-anchor="middle" x="377.88" y="-6.5" font-family="Helvetica,sans-Serif" font-size="10.00">loop</text>
</a>
</g>
</g>
<!-- Node2&#45;&gt;Node9 -->
<g id="edge7_Node000002_Node000009" class="edge">
<title>Node2&#45;&gt;Node9</title>
<g id="a_edge7_Node000002_Node000009"><a xlink:title=" ">
<path fill="none" stroke="#63b8ff" d="M452.83,-20.4C431.74,-17.43 409.81,-14.35 395.36,-12.32"/>
<polygon fill="#63b8ff" stroke="#63b8ff" points="452.18,-23.84 462.57,-21.77 453.15,-16.91 452.18,-23.84"/>
</a>
</g>
</g>
<!-- Node4 -->
<g id="Node000004" class="node">
<title>Node4</title>
<g id="a_Node000004"><a xlink:href="class_auth_sync.html#a4e7f7720c3b9e51ceb1ab4d911f03e23" target="_top" xlink:title=" ">
<polygon fill="white" stroke="#666666" points="288.5,-96 157.75,-96 157.75,-76 288.5,-76 288.5,-96"/>
<text xml:space="preserve" text-anchor="middle" x="223.12" y="-82.5" font-family="Helvetica,sans-Serif" font-size="10.00">AuthSync::addKnownAuth</text>
</a>
</g>
</g>
<!-- Node3&#45;&gt;Node4 -->
<g id="edge3_Node000003_Node000004" class="edge">
<title>Node3&#45;&gt;Node4</title>
<g id="a_edge3_Node000003_Node000004"><a xlink:title=" ">
<path fill="none" stroke="#63b8ff" d="M323.62,-61.25C304.79,-65.93 283.9,-71.13 266.13,-75.55"/>
<polygon fill="#63b8ff" stroke="#63b8ff" points="324.4,-64.66 333.26,-58.85 322.71,-57.87 324.4,-64.66"/>
</a>
</g>
</g>
<!-- Node5 -->
<g id="Node000005" class="node">
<title>Node5</title>
<g id="a_Node000005"><a xlink:href="class_auth_sync.html#aeb16a776532ee69ba1ca44b11904a2c2" target="_top" xlink:title=" ">
<polygon fill="white" stroke="#666666" points="118.75,-77 0,-77 0,-57 118.75,-57 118.75,-77"/>
<text xml:space="preserve" text-anchor="middle" x="59.38" y="-63.5" font-family="Helvetica,sans-Serif" font-size="10.00">AuthSync::isAuthorized</text>
</a>
</g>
</g>
<!-- Node3&#45;&gt;Node5 -->
<g id="edge5_Node000003_Node000005" class="edge">
<title>Node3&#45;&gt;Node5</title>
<g id="a_edge5_Node000003_Node000005"><a xlink:title=" ">
<path fill="none" stroke="#63b8ff" d="M315.74,-51.67C258.97,-55.08 175,-60.12 119.03,-63.48"/>
<polygon fill="#63b8ff" stroke="#63b8ff" points="315.79,-55.17 325.56,-51.08 315.37,-48.19 315.79,-55.17"/>
</a>
</g>
</g>
<!-- Node6 -->
<g id="Node000006" class="node">
<title>Node6</title>
<g id="a_Node000006"><a xlink:href="class_auth_sync.html#ab2999f3e828083471d482f9bde0d72f2" target="_top" xlink:title=" ">
<polygon fill="#fff0f0" stroke="red" points="291.5,-20 154.75,-20 154.75,0 291.5,0 291.5,-20"/>
<text xml:space="preserve" text-anchor="middle" x="223.12" y="-6.5" font-family="Helvetica,sans-Serif" font-size="10.00">AuthSync::syncFromServer</text>
</a>
</g>
</g>
<!-- Node3&#45;&gt;Node6 -->
<g id="edge6_Node000003_Node000006" class="edge">
<title>Node3&#45;&gt;Node6</title>
<g id="a_edge6_Node000003_Node000006"><a xlink:title=" ">
<path fill="none" stroke="#63b8ff" d="M323.62,-34.75C304.79,-30.07 283.9,-24.87 266.13,-20.45"/>
<polygon fill="#63b8ff" stroke="#63b8ff" points="322.71,-38.13 333.26,-37.15 324.4,-31.34 322.71,-38.13"/>
</a>
</g>
</g>
<!-- Node4&#45;&gt;Node5 -->
<g id="edge4_Node000004_Node000005" class="edge">
<title>Node4&#45;&gt;Node5</title>
<g id="a_edge4_Node000004_Node000005"><a xlink:title=" ">
<path fill="none" stroke="#63b8ff" d="M145.96,-77.05C136.98,-76 127.92,-74.93 119.23,-73.91"/>
<polygon fill="#63b8ff" stroke="#63b8ff" points="145.42,-80.51 155.76,-78.2 146.24,-73.56 145.42,-80.51"/>
</a>
</g>
</g>
</g>
</svg>
