<?xml version="1.0" encoding="UTF-8" standalone="no"?>
<!DOCTYPE svg PUBLIC "-//W3C//DTD SVG 1.1//EN"
 "http://www.w3.org/Graphics/SVG/1.1/DTD/svg11.dtd">
<!-- Generated by graphviz version 14.1.2 (20260124.0452)
 -->
<!-- Title: TimerHandle.cpp Pages: 1 -->
<svg width="220pt" height="140pt"
 viewBox="0.00 0.00 220.00 140.00" xmlns="http://www.w3.org/2000/svg" xmlns:xlink="http://www.w3.org/1999/xlink">
<g id="graph0" class="graph" transform="scale(1 1) rotate(0) translate(4 136)">
<title>TimerHandle.cpp</title>
<!-- Node1 -->
<g id="Node000001" class="node">
<title>Node1</title>
<g id="a_Node000001"><a xlink:title=" ">
<polygon fill="#999999" stroke="#666666" points="132.5,-132 42.25,-132 42.25,-112 132.5,-112 132.5,-132"/>
<text xml:space="preserve" text-anchor="middle" x="87.38" y="-118.5" font-family="Helvetica,sans-Serif" font-size="10.00">TimerHandle.cpp</text>
</a>
</g>
</g>
<!-- Node2 -->
<g id="Node000002" class="node">
<title>Node2</title>
<g id="a_Node000002"><a xlink:href="_timer_handle_8h.html" target="_top" xlink:title=" ">
<polygon fill="white" stroke="#666666" points="161.25,-76 81.5,-76 81.5,-56 161.25,-56 161.25,-76"/>
<text xml:space="preserve" text-anchor="middle" x="121.38" y="-62.5" font-family="Helvetica,sans-Serif" font-size="10.00">TimerHandle.h</text>
</a>
</g>
</g>
<!-- Node1&#45;&gt;Node2 -->
<g id="edge1_Node000001_Node000002" class="edge">
<title>Node1&#45;&gt;Node2</title>
<g id="a_edge1_Node000001_Node000002"><a xlink:title=" ">
<path fill="none" stroke="#63b8ff" d="M93.3,-111.59C97.73,-104.55 103.95,-94.67 109.41,-86"/>
<polygon fill="#63b8ff" stroke="#63b8ff" points="112.35,-87.91 114.71,-77.58 106.42,-84.18 112.35,-87.91"/>
</a>
</g>
</g>
<!-- Node3 -->
<g id="Node000003" class="node">
<title>Node3</title>
<g id="a_Node000003"><a xlink:title=" ">
<polygon fill="#e0e0e0" stroke="#999999" points="106.75,-20 0,-20 0,0 106.75,0 106.75,-20"/>
<text xml:space="preserve" text-anchor="middle" x="53.38" y="-6.5" font-family="Helvetica,sans-Serif" font-size="10.00">freertos/FreeRTOS.h</text>
</a>
</g>
</g>
<!-- Node1&#45;&gt;Node3 -->
<g id="edge4_Node000001_Node000003" class="edge">
<title>Node1&#45;&gt;Node3</title>
<g id="a_edge4_Node000001_Node000003"><a xlink:title=" ">
<path fill="none" stroke="#63b8ff" d="M84.17,-111.72C81.06,-102.65 76.26,-88.42 72.38,-76 67.7,-61.03 62.73,-44.02 59.06,-31.15"/>
<polygon fill="#63b8ff" stroke="#63b8ff" points="62.48,-30.41 56.39,-21.75 55.75,-32.32 62.48,-30.41"/>
</a>
</g>
</g>
<!-- Node2&#45;&gt;Node3 -->
<g id="edge2_Node000002_Node000003" class="edge">
<title>Node2&#45;&gt;Node3</title>
<g id="a_edge2_Node000002_Node000003"><a xlink:title=" ">
<path fill="none" stroke="#63b8ff" d="M109.53,-55.59C99.68,-47.77 85.44,-36.46 73.77,-27.19"/>
<polygon fill="#63b8ff" stroke="#63b8ff" points="76.28,-24.72 66.27,-21.24 71.92,-30.2 76.28,-24.72"/>
</a>
</g>
</g>
<!-- Node4 -->
<g id="Node000004" class="node">
<title>Node4</title>
<g id="a_Node000004"><a xlink:title=" ">
<polygon fill="#e0e0e0" stroke="#999999" points="212,-20 124.75,-20 124.75,0 212,0 212,-20"/>
<text xml:space="preserve" text-anchor="middle" x="168.38" y="-6.5" font-family="Helvetica,sans-Serif" font-size="10.00">freertos/timers.h</text>
</a>
</g>
</g>
<!-- Node2&#45;&gt;Node4 -->
<g id="edge3_Node000002_Node000004" class="edge">
<title>Node2&#45;&gt;Node4</title>
<g id="a_edge3_Node000002_Node000004"><a xlink:title=" ">
<path fill="none" stroke="#63b8ff" d="M129.56,-55.59C135.96,-48.24 145.05,-37.8 152.83,-28.87"/>
<polygon fill="#63b8ff" stroke="#63b8ff" points="155.36,-31.28 159.29,-21.44 150.08,-26.69 155.36,-31.28"/>
</a>
</g>
</g>
</g>
</svg>
