<?xml version="1.0" encoding="UTF-8" standalone="no"?>
<!DOCTYPE svg PUBLIC "-//W3C//DTD SVG 1.1//EN"
 "http://www.w3.org/Graphics/SVG/1.1/DTD/svg11.dtd">
<!-- Generated by graphviz version 14.1.2 (20260124.0452)
 -->
<!-- Title: AsyncClient::_s_fin Pages: 1 -->
<!--zoomable 395 -->

<svg id="main" version="1.1" xmlns="http://www.w3.org/2000/svg" xmlns:xlink="http://www.w3.org/1999/xlink" xml:space="preserve" onload="init(evt)">

<style type="text/css"><![CDATA[
.node, .edge {opacity: 0.7;}
.node.selected, .edge.selected {opacity: 1;}
.edge:hover path { stroke: red; }
.edge:hover polygon { stroke: red; fill: red; }
]]></style>

<defs>
  <circle id="rim" cx="0" cy="0" r="7"/>
  <circle id="rim2" cx="0" cy="0" r="3.5"/>
  <g id="zoomPlus">
    <use xlink:href="#rim" fill="#404040"><set attributeName="fill" to="#808080" begin="zoomplus.mouseover" end="zoomplus.mouseout"/></use>
    <path d="M-4,0h8M0,-4v8" fill="none" stroke="white" stroke-width="1.5" pointer-events="none"/>
  </g>
  <g id="zoomMin">
    <use xlink:href="#rim" fill="#404040"><set attributeName="fill" to="#808080" begin="zoomminus.mouseover" end="zoomminus.mouseout"/></use>
    <path d="M-4,0h8" fill="none" stroke="white" stroke-width="1.5" pointer-events="none"/>
  </g>
  <g id="arrowUp" transform="translate(30 24)">
    <use xlink:href="#rim"/>
    <path pointer-events="none" fill="none" stroke="white" stroke-width="1.5" d="M0,-3.0v7 M-2.5,-0.5L0,-3.0L2.5,-0.5"/>
  </g>
  <g id="arrowRight" transform="rotate(90) translate(36 -43)">
    <use xlink:href="#rim"/>
    <path pointer-events="none" fill="none" stroke="white" stroke-width="1.5" d="M0,-3.0v7 M-2.5,-0.5L0,-3.0L2.5,-0.5"/>
  </g>
  <g id="arrowDown" transform="rotate(180) translate(-30 -48)">
    <use xlink:href="#rim"/>
    <path pointer-events="none" fill="none" stroke="white" stroke-width="1.5" d="M0,-3.0v7 M-2.5,-0.5L0,-3.0L2.5,-0.5"/>
  </g>
  <g id="arrowLeft" transform="rotate(270) translate(-36 17)">
    <use xlink:href="#rim"/>
    <path pointer-events="none" fill="none" stroke="white" stroke-width="1.5" d="M0,-3.0v7 M-2.5,-0.5L0,-3.0L2.5,-0.5"/>
  </g>
  <g id="resetDef">
    <use xlink:href="#rim2" fill="#404040"><set attributeName="fill" to="#808080" begin="reset.mouseover" end="reset.mouseout"/></use>
  </g>
</defs>
<script type="application/ecmascript">
var viewWidth = 737;
var viewHeight = 395;
var sectionId = 'dynsection-30';
</script>
<script type="application/ecmascript" xlink:href="svg.min.js"/>
<svg id="graph" class="graph">
<g id="viewport">
<title>AsyncClient::_s_fin</title>
<!-- Node1 -->
<g id="Node000001" class="node">
<title>Node1</title>
<g id="a_Node000001"><a xlink:title=" ">
<polygon fill="#999999" stroke="#666666" points="101.5,-236.69 0,-236.69 0,-216.69 101.5,-216.69 101.5,-236.69"/>
<text xml:space="preserve" text-anchor="middle" x="50.75" y="-223.19" font-family="Helvetica,sans-Serif" font-size="10.00">AsyncClient::_s_fin</text>
</a>
</g>
</g>
<!-- Node2 -->
<g id="Node000002" class="node">
<title>Node2</title>
<g id="a_Node000002"><a xlink:href="class_async_client.html#afe295b6c577021c8946eb266ac41df51" target="_top" xlink:title=" ">
<polygon fill="white" stroke="#666666" points="404.62,-50.69 313.62,-50.69 313.62,-30.69 404.62,-30.69 404.62,-50.69"/>
<text xml:space="preserve" text-anchor="middle" x="359.12" y="-37.19" font-family="Helvetica,sans-Serif" font-size="10.00">AsyncClient::_fin</text>
</a>
</g>
</g>
<!-- Node1&#45;&gt;Node2 -->
<g id="edge1_Node000001_Node000002" class="edge">
<title>Node1&#45;&gt;Node2</title>
<g id="a_edge1_Node000001_Node000002"><a xlink:title=" ">
<path fill="none" stroke="#63b8ff" d="M65.25,-216.39C101.81,-188.81 206.47,-112.05 302,-62.69 307.04,-60.09 312.47,-57.6 317.89,-55.29"/>
<polygon fill="#63b8ff" stroke="#63b8ff" points="318.85,-58.68 326.8,-51.68 316.21,-52.2 318.85,-58.68"/>
</a>
</g>
</g>
<!-- Node5 -->
<g id="Node000005" class="node">
<title>Node5</title>
<g id="a_Node000005"><a xlink:href="class_async_client.html#ac0c28dd08517243bc6d64d32f982a3cc" target="_top" xlink:title=" ">
<polygon fill="white" stroke="#666666" points="716,-350.69 625,-350.69 625,-330.69 716,-330.69 716,-350.69"/>
<text xml:space="preserve" text-anchor="middle" x="670.5" y="-337.19" font-family="Helvetica,sans-Serif" font-size="10.00">AsyncClient::pcb</text>
</a>
</g>
</g>
<!-- Node1&#45;&gt;Node5 -->
<g id="edge24_Node000001_Node000005" class="edge">
<title>Node1&#45;&gt;Node5</title>
<g id="a_edge24_Node000001_Node000005"><a xlink:title=" ">
<path fill="none" stroke="#63b8ff" d="M66.98,-237.19C104.78,-262.63 206.7,-327.64 302,-356.69 418.82,-392.3 455.89,-394.36 576.25,-373.69 596.99,-370.13 619.25,-362.42 636.81,-355.34"/>
<polygon fill="#63b8ff" stroke="#63b8ff" points="637.81,-358.72 645.69,-351.64 635.11,-352.26 637.81,-358.72"/>
</a>
</g>
</g>
<!-- Node6 -->
<g id="Node000006" class="node">
<title>Node6</title>
<g id="a_Node000006"><a xlink:href="class_async_client.html#aefecfa0c75c8c1b32104115e93739087" target="_top" xlink:title=" ">
<polygon fill="white" stroke="#666666" points="266,-236.69 137.5,-236.69 137.5,-216.69 266,-216.69 266,-236.69"/>
<text xml:space="preserve" text-anchor="middle" x="201.75" y="-223.19" font-family="Helvetica,sans-Serif" font-size="10.00">AsyncClient::AsyncClient</text>
</a>
</g>
</g>
<!-- Node1&#45;&gt;Node6 -->
<g id="edge5_Node000001_Node000006" class="edge">
<title>Node1&#45;&gt;Node6</title>
<g id="a_edge5_Node000001_Node000006"><a xlink:title=" ">
<path fill="none" stroke="#63b8ff" d="M101.78,-226.69C109.48,-226.69 117.57,-226.69 125.67,-226.69"/>
<polygon fill="#63b8ff" stroke="#63b8ff" points="125.58,-230.19 135.58,-226.69 125.58,-223.19 125.58,-230.19"/>
</a>
</g>
</g>
<!-- Node3 -->
<g id="Node000003" class="node">
<title>Node3</title>
<g id="a_Node000003"><a xlink:href="_async_t_c_p_8cpp.html#ab053d5adb5be879f37181af512213bb6" target="_top" xlink:title=" ">
<polygon fill="white" stroke="#666666" points="562,-50.69 466.5,-50.69 466.5,-30.69 562,-30.69 562,-50.69"/>
<text xml:space="preserve" text-anchor="middle" x="514.25" y="-37.19" font-family="Helvetica,sans-Serif" font-size="10.00">_tcp_clear_events</text>
</a>
</g>
</g>
<!-- Node2&#45;&gt;Node3 -->
<g id="edge2_Node000002_Node000003" class="edge">
<title>Node2&#45;&gt;Node3</title>
<g id="a_edge2_Node000002_Node000003"><a xlink:title=" ">
<path fill="none" stroke="#63b8ff" d="M404.83,-40.69C420.46,-40.69 438.26,-40.69 454.84,-40.69"/>
<polygon fill="#63b8ff" stroke="#63b8ff" points="454.58,-44.19 464.58,-40.69 454.58,-37.19 454.58,-44.19"/>
</a>
</g>
</g>
<!-- Node2&#45;&gt;Node5 -->
<g id="edge4_Node000002_Node000005" class="edge">
<title>Node2&#45;&gt;Node5</title>
<g id="a_edge4_Node000002_Node000005"><a xlink:title=" ">
<path fill="none" stroke="#63b8ff" d="M381.4,-30.32C423.33,-11.55 517.63,22.25 576.25,-21.69 625.27,-58.44 657.13,-253.7 666.57,-319.23"/>
<polygon fill="#63b8ff" stroke="#63b8ff" points="663.08,-319.61 667.94,-329.02 670.02,-318.63 663.08,-319.61"/>
</a>
</g>
</g>
<!-- Node4 -->
<g id="Node000004" class="node">
<title>Node4</title>
<g id="a_Node000004"><a xlink:href="_async_t_c_p_8cpp.html#a42bebdded16714188a8e554237aad2f3" target="_top" xlink:title=" ">
<polygon fill="white" stroke="#666666" points="728.75,-50.69 612.25,-50.69 612.25,-30.69 728.75,-30.69 728.75,-50.69"/>
<text xml:space="preserve" text-anchor="middle" x="670.5" y="-37.19" font-family="Helvetica,sans-Serif" font-size="10.00">_prepend_async_event</text>
</a>
</g>
</g>
<!-- Node3&#45;&gt;Node4 -->
<g id="edge3_Node000003_Node000004" class="edge">
<title>Node3&#45;&gt;Node4</title>
<g id="a_edge3_Node000003_Node000004"><a xlink:title=" ">
<path fill="none" stroke="#63b8ff" d="M562.37,-40.69C574.43,-40.69 587.65,-40.69 600.56,-40.69"/>
<polygon fill="#63b8ff" stroke="#63b8ff" points="600.28,-44.19 610.28,-40.69 600.28,-37.19 600.28,-44.19"/>
</a>
</g>
</g>
<!-- Node6&#45;&gt;Node5 -->
<g id="edge23_Node000006_Node000005" class="edge">
<title>Node6&#45;&gt;Node5</title>
<g id="a_edge23_Node000006_Node000005"><a xlink:title=" ">
<path fill="none" stroke="#63b8ff" d="M209.15,-237.03C223.03,-258.37 258.19,-307.06 302,-327.69 403.49,-375.5 538.81,-363.8 613.7,-351.76"/>
<polygon fill="#63b8ff" stroke="#63b8ff" points="613.96,-355.27 623.25,-350.16 612.81,-348.36 613.96,-355.27"/>
</a>
</g>
</g>
<!-- Node7 -->
<g id="Node000007" class="node">
<title>Node7</title>
<g id="a_Node000007"><a xlink:href="class_async_client.html#ab0422e5254ea4fbac9f87188a018ebc4" target="_top" xlink:title=" ">
<polygon fill="white" stroke="#666666" points="416.25,-141.69 302,-141.69 302,-109.69 416.25,-109.69 416.25,-141.69"/>
<text xml:space="preserve" text-anchor="start" x="310" y="-128.19" font-family="Helvetica,sans-Serif" font-size="10.00">AsyncClient::_allocate</text>
<text xml:space="preserve" text-anchor="middle" x="359.12" y="-116.19" font-family="Helvetica,sans-Serif" font-size="10.00">_closed_slot</text>
</a>
</g>
</g>
<!-- Node6&#45;&gt;Node7 -->
<g id="edge6_Node000006_Node000007" class="edge">
<title>Node6&#45;&gt;Node7</title>
<g id="a_edge6_Node000006_Node000007"><a xlink:title=" ">
<path fill="none" stroke="#63b8ff" d="M214.32,-216.37C232.21,-200.77 268.05,-170.87 302,-150.69 303.89,-149.57 305.84,-148.46 307.83,-147.38"/>
<polygon fill="#63b8ff" stroke="#63b8ff" points="309.33,-150.55 316.64,-142.87 306.14,-144.31 309.33,-150.55"/>
</a>
</g>
</g>
<!-- Node8 -->
<g id="Node000008" class="node">
<title>Node8</title>
<g id="a_Node000008"><a xlink:href="class_async_client.html#a98ff872bc84919f006f3bb8a249ed36d" target="_top" xlink:title=" ">
<polygon fill="white" stroke="#666666" points="411,-91.69 307.25,-91.69 307.25,-71.69 411,-71.69 411,-91.69"/>
<text xml:space="preserve" text-anchor="middle" x="359.12" y="-78.19" font-family="Helvetica,sans-Serif" font-size="10.00">AsyncClient::_close</text>
</a>
</g>
</g>
<!-- Node6&#45;&gt;Node8 -->
<g id="edge7_Node000006_Node000008" class="edge">
<title>Node6&#45;&gt;Node8</title>
<g id="a_edge7_Node000006_Node000008"><a xlink:title=" ">
<path fill="none" stroke="#63b8ff" d="M208.19,-216.22C221.17,-192.24 256.28,-132.99 302,-100.69 303.8,-99.42 305.68,-98.24 307.63,-97.12"/>
<polygon fill="#63b8ff" stroke="#63b8ff" points="308.99,-100.36 316.43,-92.82 305.91,-94.07 308.99,-100.36"/>
</a>
</g>
</g>
<!-- Node15 -->
<g id="Node000015" class="node">
<title>Node15</title>
<g id="a_Node000015"><a xlink:href="_async_t_c_p_8cpp.html#a61ff9f7f886bbbbcdc1daca453828934" target="_top" xlink:title=" ">
<polygon fill="white" stroke="#666666" points="388.88,-255.69 329.38,-255.69 329.38,-235.69 388.88,-235.69 388.88,-255.69"/>
<text xml:space="preserve" text-anchor="middle" x="359.12" y="-242.19" font-family="Helvetica,sans-Serif" font-size="10.00">_tcp_error</text>
</a>
</g>
</g>
<!-- Node6&#45;&gt;Node15 -->
<g id="edge12_Node000006_Node000015" class="edge">
<title>Node6&#45;&gt;Node15</title>
<g id="a_edge12_Node000006_Node000015"><a xlink:title=" ">
<path fill="none" stroke="#63b8ff" d="M266.4,-234.48C283.76,-236.6 302.09,-238.84 317.76,-240.76"/>
<polygon fill="#63b8ff" stroke="#63b8ff" points="317.32,-244.23 327.67,-241.97 318.17,-237.28 317.32,-244.23"/>
</a>
</g>
</g>
<!-- Node17 -->
<g id="Node000017" class="node">
<title>Node17</title>
<g id="a_Node000017"><a xlink:href="_async_t_c_p_8cpp.html#ad4b2c6c935c211eef5884f25a950e445" target="_top" xlink:title=" ">
<polygon fill="white" stroke="#666666" points="386.62,-179.69 331.62,-179.69 331.62,-159.69 386.62,-159.69 386.62,-179.69"/>
<text xml:space="preserve" text-anchor="middle" x="359.12" y="-166.19" font-family="Helvetica,sans-Serif" font-size="10.00">_tcp_poll</text>
</a>
</g>
</g>
<!-- Node6&#45;&gt;Node17 -->
<g id="edge14_Node000006_Node000017" class="edge">
<title>Node6&#45;&gt;Node17</title>
<g id="a_edge14_Node000006_Node000017"><a xlink:title=" ">
<path fill="none" stroke="#63b8ff" d="M229.18,-216.25C249.12,-208.45 277.18,-197.64 302,-188.69 307.93,-186.56 314.23,-184.35 320.39,-182.24"/>
<polygon fill="#63b8ff" stroke="#63b8ff" points="321.44,-185.58 329.78,-179.05 319.19,-178.95 321.44,-185.58"/>
</a>
</g>
</g>
<!-- Node18 -->
<g id="Node000018" class="node">
<title>Node18</title>
<g id="a_Node000018"><a xlink:href="_async_t_c_p_8cpp.html#adf7826424bf5b1035c4850f6b3307686" target="_top" xlink:title=" ">
<polygon fill="white" stroke="#666666" points="388.5,-293.69 329.75,-293.69 329.75,-273.69 388.5,-273.69 388.5,-293.69"/>
<text xml:space="preserve" text-anchor="middle" x="359.12" y="-280.19" font-family="Helvetica,sans-Serif" font-size="10.00">_tcp_recv</text>
</a>
</g>
</g>
<!-- Node6&#45;&gt;Node18 -->
<g id="edge16_Node000006_Node000018" class="edge">
<title>Node6&#45;&gt;Node18</title>
<g id="a_edge16_Node000006_Node000018"><a xlink:title=" ">
<path fill="none" stroke="#63b8ff" d="M229.18,-237.14C249.12,-244.94 277.18,-255.74 302,-264.69 307.43,-266.65 313.17,-268.66 318.82,-270.61"/>
<polygon fill="#63b8ff" stroke="#63b8ff" points="317.47,-273.84 328.06,-273.76 319.73,-267.22 317.47,-273.84"/>
</a>
</g>
</g>
<!-- Node21 -->
<g id="Node000021" class="node">
<title>Node21</title>
<g id="a_Node000021"><a xlink:href="_async_t_c_p_8cpp.html#a0b47280aff638ec9b80f7a87dfe54ea6" target="_top" xlink:title=" ">
<polygon fill="white" stroke="#666666" points="388.5,-217.69 329.75,-217.69 329.75,-197.69 388.5,-197.69 388.5,-217.69"/>
<text xml:space="preserve" text-anchor="middle" x="359.12" y="-204.19" font-family="Helvetica,sans-Serif" font-size="10.00">_tcp_sent</text>
</a>
</g>
</g>
<!-- Node6&#45;&gt;Node21 -->
<g id="edge21_Node000006_Node000021" class="edge">
<title>Node6&#45;&gt;Node21</title>
<g id="a_edge21_Node000006_Node000021"><a xlink:title=" ">
<path fill="none" stroke="#63b8ff" d="M266.4,-218.91C284.06,-216.75 302.74,-214.47 318.59,-212.53"/>
<polygon fill="#63b8ff" stroke="#63b8ff" points="318.57,-216.06 328.08,-211.37 317.72,-209.11 318.57,-216.06"/>
</a>
</g>
</g>
<!-- Node8&#45;&gt;Node3 -->
<g id="edge9_Node000008_Node000003" class="edge">
<title>Node8&#45;&gt;Node3</title>
<g id="a_edge9_Node000008_Node000003"><a xlink:title=" ">
<path fill="none" stroke="#63b8ff" d="M399.16,-71.24C418.69,-66.01 442.55,-59.63 463.38,-54.05"/>
<polygon fill="#63b8ff" stroke="#63b8ff" points="464.07,-57.49 472.82,-51.52 462.26,-50.72 464.07,-57.49"/>
</a>
</g>
</g>
<!-- Node9 -->
<g id="Node000009" class="node">
<title>Node9</title>
<g id="a_Node000009"><a xlink:href="class_async_client.html#aff6a2fbf261b25e1fcd35c11cce348a5" target="_top" xlink:title=" ">
<polygon fill="white" stroke="#666666" points="562.75,-100.69 465.75,-100.69 465.75,-68.69 562.75,-68.69 562.75,-100.69"/>
<text xml:space="preserve" text-anchor="start" x="473.75" y="-87.19" font-family="Helvetica,sans-Serif" font-size="10.00">AsyncClient::_free</text>
<text xml:space="preserve" text-anchor="middle" x="514.25" y="-75.19" font-family="Helvetica,sans-Serif" font-size="10.00">_closed_slot</text>
</a>
</g>
</g>
<!-- Node8&#45;&gt;Node9 -->
<g id="edge8_Node000008_Node000009" class="edge">
<title>Node8&#45;&gt;Node9</title>
<g id="a_edge8_Node000008_Node000009"><a xlink:title=" ">
<path fill="none" stroke="#63b8ff" d="M411.11,-82.69C424.91,-82.96 439.96,-83.26 454.17,-83.54"/>
<polygon fill="#63b8ff" stroke="#63b8ff" points="453.75,-87.03 463.82,-83.72 453.89,-80.03 453.75,-87.03"/>
</a>
</g>
</g>
<!-- Node10 -->
<g id="Node000010" class="node">
<title>Node10</title>
<g id="a_Node000010"><a xlink:href="_async_t_c_p_8cpp.html#a3602c1ebfae2fb2ff64a0e3d7b0568ce" target="_top" xlink:title=" ">
<polygon fill="#fff0f0" stroke="red" points="545.88,-176.69 482.62,-176.69 482.62,-156.69 545.88,-156.69 545.88,-176.69"/>
<text xml:space="preserve" text-anchor="middle" x="514.25" y="-163.19" font-family="Helvetica,sans-Serif" font-size="10.00">_tcp_close</text>
</a>
</g>
</g>
<!-- Node8&#45;&gt;Node10 -->
<g id="edge10_Node000008_Node000010" class="edge">
<title>Node8&#45;&gt;Node10</title>
<g id="a_edge10_Node000008_Node000010"><a xlink:title=" ">
<path fill="none" stroke="#63b8ff" d="M400.5,-92.1C406.06,-94.44 411.48,-97.28 416.25,-100.69 437.64,-116.02 430.68,-132.63 452.25,-147.69 458.1,-151.78 464.86,-155.01 471.7,-157.56"/>
<polygon fill="#63b8ff" stroke="#63b8ff" points="470.38,-160.81 480.97,-160.56 472.53,-154.15 470.38,-160.81"/>
</a>
</g>
</g>
<!-- Node12 -->
<g id="Node000012" class="node">
<title>Node12</title>
<g id="a_Node000012"><a xlink:href="class_async_client.html#a09e777ff005d8e0f81166e704dc14979" target="_top" xlink:title=" ">
<polygon fill="#fff0f0" stroke="red" points="562.75,-138.69 465.75,-138.69 465.75,-118.69 562.75,-118.69 562.75,-138.69"/>
<text xml:space="preserve" text-anchor="middle" x="514.25" y="-125.19" font-family="Helvetica,sans-Serif" font-size="10.00">AsyncClient::abort</text>
</a>
</g>
</g>
<!-- Node8&#45;&gt;Node12 -->
<g id="edge11_Node000008_Node000012" class="edge">
<title>Node8&#45;&gt;Node12</title>
<g id="a_edge11_Node000008_Node000012"><a xlink:title=" ">
<path fill="none" stroke="#63b8ff" d="M394.11,-92.12C415.94,-98.82 444.54,-107.6 468.25,-114.88"/>
<polygon fill="#63b8ff" stroke="#63b8ff" points="467.06,-118.18 477.65,-117.77 469.12,-111.49 467.06,-118.18"/>
</a>
</g>
</g>
<!-- Node16 -->
<g id="Node000016" class="node">
<title>Node16</title>
<g id="a_Node000016"><a xlink:href="_async_t_c_p_8cpp.html#a796c13746a84a6b2e7370ddbec97ad5b" target="_top" xlink:title=" ">
<polygon fill="white" stroke="#666666" points="565.75,-236.69 462.75,-236.69 462.75,-216.69 565.75,-216.69 565.75,-236.69"/>
<text xml:space="preserve" text-anchor="middle" x="514.25" y="-223.19" font-family="Helvetica,sans-Serif" font-size="10.00">_send_async_event</text>
</a>
</g>
</g>
<!-- Node15&#45;&gt;Node16 -->
<g id="edge13_Node000015_Node000016" class="edge">
<title>Node15&#45;&gt;Node16</title>
<g id="a_edge13_Node000015_Node000016"><a xlink:title=" ">
<path fill="none" stroke="#63b8ff" d="M389.29,-242.07C406.79,-239.9 429.75,-237.05 451.14,-234.4"/>
<polygon fill="#63b8ff" stroke="#63b8ff" points="451.49,-237.88 460.98,-233.18 450.63,-230.94 451.49,-237.88"/>
</a>
</g>
</g>
<!-- Node17&#45;&gt;Node16 -->
<g id="edge15_Node000017_Node000016" class="edge">
<title>Node17&#45;&gt;Node16</title>
<g id="a_edge15_Node000017_Node000016"><a xlink:title=" ">
<path fill="none" stroke="#63b8ff" d="M387.05,-178.52C396.33,-181.64 406.78,-185.24 416.25,-188.69 436.37,-196.04 458.63,-204.72 476.75,-211.93"/>
<polygon fill="#63b8ff" stroke="#63b8ff" points="475.45,-215.18 486.03,-215.64 478.05,-208.68 475.45,-215.18"/>
</a>
</g>
</g>
<!-- Node18&#45;&gt;Node16 -->
<g id="edge20_Node000018_Node000016" class="edge">
<title>Node18&#45;&gt;Node16</title>
<g id="a_edge20_Node000018_Node000016"><a xlink:title=" ">
<path fill="none" stroke="#63b8ff" d="M388.77,-274.29C397.61,-271.3 407.36,-267.94 416.25,-264.69 436.37,-257.35 458.63,-248.67 476.75,-241.46"/>
<polygon fill="#63b8ff" stroke="#63b8ff" points="478.05,-244.71 486.03,-237.75 475.45,-238.21 478.05,-244.71"/>
</a>
</g>
</g>
<!-- Node19 -->
<g id="Node000019" class="node">
<title>Node19</title>
<g id="a_Node000019"><a xlink:href="class_async_client.html#a485b2be0c01d3172928c0ed9655edc2f" target="_top" xlink:title=" ">
<polygon fill="#fff0f0" stroke="red" points="576.25,-331.69 452.25,-331.69 452.25,-311.69 576.25,-311.69 576.25,-331.69"/>
<text xml:space="preserve" text-anchor="middle" x="514.25" y="-318.19" font-family="Helvetica,sans-Serif" font-size="10.00">AsyncClient::_s_lwip_fin</text>
</a>
</g>
</g>
<!-- Node18&#45;&gt;Node19 -->
<g id="edge17_Node000018_Node000019" class="edge">
<title>Node18&#45;&gt;Node19</title>
<g id="a_edge17_Node000018_Node000019"><a xlink:title=" ">
<path fill="none" stroke="#63b8ff" d="M388.93,-290.84C408.9,-295.8 436.08,-302.54 459.94,-308.46"/>
<polygon fill="#63b8ff" stroke="#63b8ff" points="458.96,-311.83 469.51,-310.84 460.65,-305.03 458.96,-311.83"/>
</a>
</g>
</g>
<!-- Node19&#45;&gt;Node5 -->
<g id="edge19_Node000019_Node000005" class="edge">
<title>Node19&#45;&gt;Node5</title>
<g id="a_edge19_Node000019_Node000005"><a xlink:title=" ">
<path fill="none" stroke="#63b8ff" d="M576.66,-329.26C588.88,-330.76 601.66,-332.34 613.68,-333.82"/>
<polygon fill="#63b8ff" stroke="#63b8ff" points="613.08,-337.27 623.43,-335.02 613.94,-330.32 613.08,-337.27"/>
</a>
</g>
</g>
<!-- Node19&#45;&gt;Node6 -->
<g id="edge18_Node000019_Node000006" class="edge">
<title>Node19&#45;&gt;Node6</title>
<g id="a_edge18_Node000019_Node000006"><a xlink:title=" ">
<path fill="none" stroke="#63b8ff" d="M452.02,-325.06C408.71,-325.34 350.03,-321.41 302,-302.69 269.5,-290.03 238.7,-263.32 220.26,-245.18"/>
<polygon fill="#63b8ff" stroke="#63b8ff" points="222.83,-242.8 213.32,-238.15 217.85,-247.72 222.83,-242.8"/>
</a>
</g>
</g>
<!-- Node21&#45;&gt;Node16 -->
<g id="edge22_Node000021_Node000016" class="edge">
<title>Node21&#45;&gt;Node16</title>
<g id="a_edge22_Node000021_Node000016"><a xlink:title=" ">
<path fill="none" stroke="#63b8ff" d="M388.93,-211.27C406.4,-213.44 429.41,-216.29 450.88,-218.95"/>
<polygon fill="#63b8ff" stroke="#63b8ff" points="450.4,-222.42 460.76,-220.18 451.26,-215.48 450.4,-222.42"/>
</a>
</g>
</g>
</g>
</svg>

<g id="navigator" transform="translate(0 0)" fill="#404254">
  <rect fill="#f2f5e9" fill-opacity="0.5" stroke="#606060" stroke-width=".5" x="0" y="0" width="60" height="60"/>
  <use id="zoomplus" xlink:href="#zoomPlus" x="17" y="9" onmousedown="handleZoom(evt,'in')"/>
  <use id="zoomminus" xlink:href="#zoomMin" x="42" y="9" onmousedown="handleZoom(evt,'out')"/>
  <use id="reset" xlink:href="#resetDef" x="30" y="36" onmousedown="handleReset()"/>
   <use id="arrowup" xlink:href="#arrowUp" x="0" y="0" onmousedown="handlePan(0,-1)"/>
  <use id="arrowright" xlink:href="#arrowRight" x="0" y="0" onmousedown="handlePan(1,0)"/>
  <use id="arrowdown" xlink:href="#arrowDown" x="0" y="0" onmousedown="handlePan(0,1)"/>
  <use id="arrowleft" xlink:href="#arrowLeft" x="0" y="0" onmousedown="handlePan(-1,0)"/>
</g>
<svg viewBox="0 0 15 15" width="100%" height="30px" preserveAspectRatio="xMaxYMin meet">
 <g id="arrow_out" transform="scale(0.3 0.3)">
  <a xlink:href="class_async_client_a6a69c67e1a22660766affb64700c2276_cgraph_org.svg" target="_base">
   <rect id="button" ry="5" rx="5" y="6" x="6" height="38" width="38"
        fill="#f2f5e9" fill-opacity="0.5" stroke="#606060" stroke-width="1.0"/>
   <path id="arrow"
     d="M 11.500037,31.436501 C 11.940474,20.09759 22.043105,11.32322 32.158766,21.979434 L 37.068811,17.246167 C 37.068811,17.246167 37.088388,32 37.088388,32 L 22.160133,31.978069 C 22.160133,31.978069 26.997745,27.140456 26.997745,27.140456 C 18.528582,18.264221 13.291696,25.230495 11.500037,31.436501 z"
     style="fill:#404040;"/>
  </a>
 </g>
</svg>

<style type='text/css'>
<![CDATA[
[data-mouse-over-selected='false'] { opacity: 0.7; }
[data-mouse-over-selected='true']  { opacity: 1.0; }
]]>
</style>
<script type="application/ecmascript"><![CDATA[
document.addEventListener('DOMContentLoaded', (event) => {
  highlightEdges();
  highlightAdjacentNodes();
});
]]></script>
</svg>
