<?xml version="1.0" encoding="UTF-8" standalone="no"?>
<!DOCTYPE svg PUBLIC "-//W3C//DTD SVG 1.1//EN"
 "http://www.w3.org/Graphics/SVG/1.1/DTD/svg11.dtd">
<!-- Generated by graphviz version 14.1.2 (20260124.0452)
 -->
<!-- Title: AsyncServer::begin Pages: 1 -->
<svg width="610pt" height="289pt"
 viewBox="0.00 0.00 610.00 289.00" xmlns="http://www.w3.org/2000/svg" xmlns:xlink="http://www.w3.org/1999/xlink">
<g id="graph0" class="graph" transform="scale(1 1) rotate(0) translate(4 285)">
<title>AsyncServer::begin</title>
<!-- Node1 -->
<g id="Node000001" class="node">
<title>Node1</title>
<g id="a_Node000001"><a xlink:title=" ">
<polygon fill="#999999" stroke="#666666" points="101.5,-96 0,-96 0,-76 101.5,-76 101.5,-96"/>
<text xml:space="preserve" text-anchor="middle" x="50.75" y="-82.5" font-family="Helvetica,sans-Serif" font-size="10.00">AsyncServer::begin</text>
</a>
</g>
</g>
<!-- Node2 -->
<g id="Node000002" class="node">
<title>Node2</title>
<g id="a_Node000002"><a xlink:href="class_async_server.html#a9cfd997e84bd4ba394f3225863536d5e" target="_top" xlink:title=" ">
<polygon fill="white" stroke="#666666" points="261.88,-210 138.62,-210 138.62,-190 261.88,-190 261.88,-210"/>
<text xml:space="preserve" text-anchor="middle" x="200.25" y="-196.5" font-family="Helvetica,sans-Serif" font-size="10.00">AsyncServer::_s_accept</text>
</a>
</g>
</g>
<!-- Node1&#45;&gt;Node2 -->
<g id="edge1_Node000001_Node000002" class="edge">
<title>Node1&#45;&gt;Node2</title>
<g id="a_edge1_Node000001_Node000002"><a xlink:title=" ">
<path fill="none" stroke="#63b8ff" d="M65.1,-96.32C90.55,-115.99 146.23,-159.02 177.26,-183"/>
<polygon fill="#63b8ff" stroke="#63b8ff" points="174.79,-185.52 184.84,-188.86 179.07,-179.98 174.79,-185.52"/>
</a>
</g>
</g>
<!-- Node8 -->
<g id="Node000008" class="node">
<title>Node8</title>
<g id="a_Node000008"><a xlink:href="_async_t_c_p_8cpp.html#a4d0de407bcfcc96b61af40aca3156708" target="_top" xlink:title=" ">
<polygon fill="white" stroke="#666666" points="248.38,-134 152.12,-134 152.12,-114 248.38,-114 248.38,-134"/>
<text xml:space="preserve" text-anchor="middle" x="200.25" y="-120.5" font-family="Helvetica,sans-Serif" font-size="10.00">_start_async_task</text>
</a>
</g>
</g>
<!-- Node1&#45;&gt;Node8 -->
<g id="edge6_Node000001_Node000008" class="edge">
<title>Node1&#45;&gt;Node8</title>
<g id="a_edge6_Node000001_Node000008"><a xlink:title=" ">
<path fill="none" stroke="#63b8ff" d="M92.45,-96.48C109.53,-100.89 129.61,-106.06 147.71,-110.72"/>
<polygon fill="#63b8ff" stroke="#63b8ff" points="146.66,-114.07 157.22,-113.17 148.41,-107.29 146.66,-114.07"/>
</a>
</g>
</g>
<!-- Node56 -->
<g id="Node000056" class="node">
<title>Node56</title>
<g id="a_Node000056"><a xlink:href="_async_t_c_p_8cpp.html#a1d69fe6616ae6044a10ab2df4a2bf2d8" target="_top" xlink:title=" ">
<polygon fill="white" stroke="#666666" points="229.25,-96 171.25,-96 171.25,-76 229.25,-76 229.25,-96"/>
<text xml:space="preserve" text-anchor="middle" x="200.25" y="-82.5" font-family="Helvetica,sans-Serif" font-size="10.00">_tcp_bind</text>
</a>
</g>
</g>
<!-- Node1&#45;&gt;Node56 -->
<g id="edge13_Node000001_Node000056" class="edge">
<title>Node1&#45;&gt;Node56</title>
<g id="a_edge13_Node000001_Node000056"><a xlink:title=" ">
<path fill="none" stroke="#63b8ff" d="M101.69,-86C120.52,-86 141.67,-86 159.45,-86"/>
<polygon fill="#63b8ff" stroke="#63b8ff" points="159.36,-89.5 169.36,-86 159.36,-82.5 159.36,-89.5"/>
</a>
</g>
</g>
<!-- Node23 -->
<g id="Node000023" class="node">
<title>Node23</title>
<g id="a_Node000023"><a xlink:href="_async_t_c_p_8cpp.html#a3602c1ebfae2fb2ff64a0e3d7b0568ce" target="_top" xlink:title=" ">
<polygon fill="#fff0f0" stroke="red" points="231.88,-58 168.62,-58 168.62,-38 231.88,-38 231.88,-58"/>
<text xml:space="preserve" text-anchor="middle" x="200.25" y="-44.5" font-family="Helvetica,sans-Serif" font-size="10.00">_tcp_close</text>
</a>
</g>
</g>
<!-- Node1&#45;&gt;Node23 -->
<g id="edge15_Node000001_Node000023" class="edge">
<title>Node1&#45;&gt;Node23</title>
<g id="a_edge15_Node000001_Node000023"><a xlink:title=" ">
<path fill="none" stroke="#63b8ff" d="M92.45,-75.52C112.73,-70.29 137.23,-63.98 157.65,-58.72"/>
<polygon fill="#63b8ff" stroke="#63b8ff" points="158.24,-62.18 167.05,-56.3 156.49,-55.4 158.24,-62.18"/>
</a>
</g>
</g>
<!-- Node58 -->
<g id="Node000058" class="node">
<title>Node58</title>
<g id="a_Node000058"><a xlink:href="_async_t_c_p_8cpp.html#aced9ee6e4eb13dc4ef027ded12dce47c" target="_top" xlink:title=" ">
<polygon fill="white" stroke="#666666" points="263,-20 137.5,-20 137.5,0 263,0 263,-20"/>
<text xml:space="preserve" text-anchor="middle" x="200.25" y="-6.5" font-family="Helvetica,sans-Serif" font-size="10.00">_tcp_listen_with_backlog</text>
</a>
</g>
</g>
<!-- Node1&#45;&gt;Node58 -->
<g id="edge16_Node000001_Node000058" class="edge">
<title>Node1&#45;&gt;Node58</title>
<g id="a_edge16_Node000001_Node000058"><a xlink:title=" ">
<path fill="none" stroke="#63b8ff" d="M64.7,-75.65C80.9,-63.13 109.88,-42.09 137.5,-29 141.05,-27.32 144.79,-25.74 148.6,-24.26"/>
<polygon fill="#63b8ff" stroke="#63b8ff" points="149.74,-27.57 157.98,-20.91 147.39,-20.98 149.74,-27.57"/>
</a>
</g>
</g>
<!-- Node3 -->
<g id="Node000003" class="node">
<title>Node3</title>
<g id="a_Node000003"><a xlink:href="class_async_server.html#a51e55999b79eec50bd68e899b8ddd4e4" target="_top" xlink:title=" ">
<polygon fill="white" stroke="#666666" points="425.25,-248 312.5,-248 312.5,-228 425.25,-228 425.25,-248"/>
<text xml:space="preserve" text-anchor="middle" x="368.88" y="-234.5" font-family="Helvetica,sans-Serif" font-size="10.00">AsyncServer::_accept</text>
</a>
</g>
</g>
<!-- Node2&#45;&gt;Node3 -->
<g id="edge2_Node000002_Node000003" class="edge">
<title>Node2&#45;&gt;Node3</title>
<g id="a_edge2_Node000002_Node000003"><a xlink:title=" ">
<path fill="none" stroke="#63b8ff" d="M247.22,-210.48C266.98,-214.99 290.28,-220.3 311.1,-225.05"/>
<polygon fill="#63b8ff" stroke="#63b8ff" points="310.05,-228.4 320.58,-227.21 311.61,-221.58 310.05,-228.4"/>
</a>
</g>
</g>
<!-- Node7 -->
<g id="Node000007" class="node">
<title>Node7</title>
<g id="a_Node000007"><a xlink:href="class_async_server.html#aa6357ae6df41ef23d53d2a73759f5016" target="_top" xlink:title=" ">
<polygon fill="white" stroke="#666666" points="436.12,-210 301.62,-210 301.62,-190 436.12,-190 436.12,-210"/>
<text xml:space="preserve" text-anchor="middle" x="368.88" y="-196.5" font-family="Helvetica,sans-Serif" font-size="10.00">AsyncServer::AsyncServer</text>
</a>
</g>
</g>
<!-- Node2&#45;&gt;Node7 -->
<g id="edge5_Node000002_Node000007" class="edge">
<title>Node2&#45;&gt;Node7</title>
<g id="a_edge5_Node000002_Node000007"><a xlink:title=" ">
<path fill="none" stroke="#63b8ff" d="M262.35,-200C271.33,-200 280.68,-200 289.94,-200"/>
<polygon fill="#63b8ff" stroke="#63b8ff" points="289.65,-203.5 299.65,-200 289.65,-196.5 289.65,-203.5"/>
</a>
</g>
</g>
<!-- Node4 -->
<g id="Node000004" class="node">
<title>Node4</title>
<g id="a_Node000004"><a xlink:href="_async_t_c_p_8cpp.html#ab02a78d0cd56732252f0c2c27f286369" target="_top" xlink:title=" ">
<polygon fill="#fff0f0" stroke="red" points="572.88,-281 503.62,-281 503.62,-261 572.88,-261 572.88,-281"/>
<text xml:space="preserve" text-anchor="middle" x="538.25" y="-267.5" font-family="Helvetica,sans-Serif" font-size="10.00">_tcp_accept</text>
</a>
</g>
</g>
<!-- Node3&#45;&gt;Node4 -->
<g id="edge3_Node000003_Node000004" class="edge">
<title>Node3&#45;&gt;Node4</title>
<g id="a_edge3_Node000003_Node000004"><a xlink:title=" ">
<path fill="none" stroke="#63b8ff" d="M422.83,-248.44C445.16,-252.84 470.87,-257.91 492.26,-262.13"/>
<polygon fill="#63b8ff" stroke="#63b8ff" points="491.36,-265.52 501.84,-264.02 492.71,-258.65 491.36,-265.52"/>
</a>
</g>
</g>
<!-- Node6 -->
<g id="Node000006" class="node">
<title>Node6</title>
<g id="a_Node000006"><a xlink:href="class_async_client.html#af1819edd57b1ce0666a6cd390bcaf587" target="_top" xlink:title=" ">
<polygon fill="white" stroke="#666666" points="601.75,-243 474.75,-243 474.75,-223 601.75,-223 601.75,-243"/>
<text xml:space="preserve" text-anchor="middle" x="538.25" y="-229.5" font-family="Helvetica,sans-Serif" font-size="10.00">AsyncClient::setNoDelay</text>
</a>
</g>
</g>
<!-- Node3&#45;&gt;Node6 -->
<g id="edge4_Node000003_Node000006" class="edge">
<title>Node3&#45;&gt;Node6</title>
<g id="a_edge4_Node000003_Node000006"><a xlink:title=" ">
<path fill="none" stroke="#63b8ff" d="M425.61,-236.34C437.62,-235.98 450.5,-235.59 463.09,-235.22"/>
<polygon fill="#63b8ff" stroke="#63b8ff" points="463.14,-238.72 473.03,-234.92 462.93,-231.72 463.14,-238.72"/>
</a>
</g>
</g>
<!-- Node9 -->
<g id="Node000009" class="node">
<title>Node9</title>
<g id="a_Node000009"><a xlink:href="_async_t_c_p_8cpp.html#a87baf4ac2987dd94502c4586a97e552f" target="_top" xlink:title=" ">
<polygon fill="white" stroke="#666666" points="423,-172 314.75,-172 314.75,-152 423,-152 423,-172"/>
<text xml:space="preserve" text-anchor="middle" x="368.88" y="-158.5" font-family="Helvetica,sans-Serif" font-size="10.00">_async_service_task</text>
</a>
</g>
</g>
<!-- Node8&#45;&gt;Node9 -->
<g id="edge7_Node000008_Node000009" class="edge">
<title>Node8&#45;&gt;Node9</title>
<g id="a_edge7_Node000008_Node000009"><a xlink:title=" ">
<path fill="none" stroke="#63b8ff" d="M247.22,-134.48C266.98,-138.99 290.28,-144.3 311.1,-149.05"/>
<polygon fill="#63b8ff" stroke="#63b8ff" points="310.05,-152.4 320.58,-151.21 311.61,-145.58 310.05,-152.4"/>
</a>
</g>
</g>
<!-- Node54 -->
<g id="Node000054" class="node">
<title>Node54</title>
<g id="a_Node000054"><a xlink:href="_async_t_c_p_8cpp.html#a3aed34b06f9d10bb1cc4ce3d74cb5565" target="_top" xlink:title=" ">
<polygon fill="white" stroke="#666666" points="432,-134 305.75,-134 305.75,-114 432,-114 432,-134"/>
<text xml:space="preserve" text-anchor="middle" x="368.88" y="-120.5" font-family="Helvetica,sans-Serif" font-size="10.00">_init_async_event_queue</text>
</a>
</g>
</g>
<!-- Node8&#45;&gt;Node54 -->
<g id="edge11_Node000008_Node000054" class="edge">
<title>Node8&#45;&gt;Node54</title>
<g id="a_edge11_Node000008_Node000054"><a xlink:title=" ">
<path fill="none" stroke="#63b8ff" d="M248.55,-124C262.8,-124 278.78,-124 294.31,-124"/>
<polygon fill="#63b8ff" stroke="#63b8ff" points="293.99,-127.5 303.99,-124 293.99,-120.5 293.99,-127.5"/>
</a>
</g>
</g>
<!-- Node55 -->
<g id="Node000055" class="node">
<title>Node55</title>
<g id="a_Node000055"><a xlink:href="_async_t_c_p_8cpp.html#a8fedef252807f247ae1b933ac0bcc234" target="_top" xlink:title=" ">
<polygon fill="white" stroke="#666666" points="438.75,-96 299,-96 299,-76 438.75,-76 438.75,-96"/>
<text xml:space="preserve" text-anchor="middle" x="368.88" y="-82.5" font-family="Helvetica,sans-Serif" font-size="10.00">customTaskCreateUniversal</text>
</a>
</g>
</g>
<!-- Node8&#45;&gt;Node55 -->
<g id="edge12_Node000008_Node000055" class="edge">
<title>Node8&#45;&gt;Node55</title>
<g id="a_edge12_Node000008_Node000055"><a xlink:title=" ">
<path fill="none" stroke="#63b8ff" d="M247.22,-113.52C266.98,-109.01 290.28,-103.7 311.1,-98.95"/>
<polygon fill="#63b8ff" stroke="#63b8ff" points="311.61,-102.42 320.58,-96.79 310.05,-95.6 311.61,-102.42"/>
</a>
</g>
</g>
<!-- Node10 -->
<g id="Node000010" class="node">
<title>Node10</title>
<g id="a_Node000010"><a xlink:href="_async_t_c_p_8cpp.html#a8a4bbbc30b10628f96b77b68e1f66620" target="_top" xlink:title=" ">
<polygon fill="white" stroke="#666666" points="586,-182 490.5,-182 490.5,-162 586,-162 586,-182"/>
<text xml:space="preserve" text-anchor="middle" x="538.25" y="-168.5" font-family="Helvetica,sans-Serif" font-size="10.00">_get_async_event</text>
</a>
</g>
</g>
<!-- Node9&#45;&gt;Node10 -->
<g id="edge8_Node000009_Node000010" class="edge">
<title>Node9&#45;&gt;Node10</title>
<g id="a_edge8_Node000009_Node000010"><a xlink:title=" ">
<path fill="none" stroke="#63b8ff" d="M423.29,-165.19C441.04,-166.25 460.88,-167.44 478.97,-168.52"/>
<polygon fill="#63b8ff" stroke="#63b8ff" points="478.56,-172 488.75,-169.1 478.98,-165.01 478.56,-172"/>
</a>
</g>
</g>
<!-- Node11 -->
<g id="Node000011" class="node">
<title>Node11</title>
<g id="a_Node000011"><a xlink:href="_async_t_c_p_8cpp.html#ac4030e968c0e4c0fcbe7a9b4502854c1" target="_top" xlink:title=" ">
<polygon fill="#fff0f0" stroke="red" points="593.5,-144 483,-144 483,-124 593.5,-124 593.5,-144"/>
<text xml:space="preserve" text-anchor="middle" x="538.25" y="-130.5" font-family="Helvetica,sans-Serif" font-size="10.00">_handle_async_event</text>
</a>
</g>
</g>
<!-- Node9&#45;&gt;Node11 -->
<g id="edge10_Node000009_Node000011" class="edge">
<title>Node9&#45;&gt;Node11</title>
<g id="a_edge10_Node000009_Node000011"><a xlink:title=" ">
<path fill="none" stroke="#63b8ff" d="M423.29,-153.06C438.68,-150.49 455.65,-147.65 471.69,-144.97"/>
<polygon fill="#63b8ff" stroke="#63b8ff" points="471.84,-148.49 481.12,-143.39 470.68,-141.59 471.84,-148.49"/>
</a>
</g>
</g>
<!-- Node10&#45;&gt;Node10 -->
<g id="edge9_Node000010_Node000010" class="edge">
<title>Node10&#45;&gt;Node10</title>
<g id="a_edge9_Node000010_Node000010"><a xlink:title=" ">
<path fill="none" stroke="#63b8ff" d="M511.34,-182.34C499.84,-190.98 508.81,-200 538.25,-200 554.35,-200 564.33,-197.3 568.19,-193.44"/>
<polygon fill="#63b8ff" stroke="#63b8ff" points="571.56,-192.53 565.56,-183.8 564.81,-194.37 571.56,-192.53"/>
</a>
</g>
</g>
<!-- Node57 -->
<g id="Node000057" class="node">
<title>Node57</title>
<g id="a_Node000057"><a xlink:href="_async_t_c_p_8cpp.html#a8a8e9f581fd0d3e829ec0ff30afe518c" target="_top" xlink:title=" ">
<polygon fill="white" stroke="#666666" points="406.88,-58 330.88,-58 330.88,-38 406.88,-38 406.88,-58"/>
<text xml:space="preserve" text-anchor="middle" x="368.88" y="-44.5" font-family="Helvetica,sans-Serif" font-size="10.00">_tcp_bind_api</text>
</a>
</g>
</g>
<!-- Node56&#45;&gt;Node57 -->
<g id="edge14_Node000056_Node000057" class="edge">
<title>Node56&#45;&gt;Node57</title>
<g id="a_edge14_Node000056_Node000057"><a xlink:title=" ">
<path fill="none" stroke="#63b8ff" d="M229.52,-79.55C254.02,-73.96 290.04,-65.75 319.18,-59.11"/>
<polygon fill="#63b8ff" stroke="#63b8ff" points="319.93,-62.52 328.9,-56.89 318.37,-55.7 319.93,-62.52"/>
</a>
</g>
</g>
<!-- Node59 -->
<g id="Node000059" class="node">
<title>Node59</title>
<g id="a_Node000059"><a xlink:href="_async_t_c_p_8cpp.html#a174db420ae5987d7e353df5be3a94a1a" target="_top" xlink:title=" ">
<polygon fill="white" stroke="#666666" points="409.5,-20 328.25,-20 328.25,0 409.5,0 409.5,-20"/>
<text xml:space="preserve" text-anchor="middle" x="368.88" y="-6.5" font-family="Helvetica,sans-Serif" font-size="10.00">_tcp_listen_api</text>
</a>
</g>
</g>
<!-- Node58&#45;&gt;Node59 -->
<g id="edge17_Node000058_Node000059" class="edge">
<title>Node58&#45;&gt;Node59</title>
<g id="a_edge17_Node000058_Node000059"><a xlink:title=" ">
<path fill="none" stroke="#63b8ff" d="M263.29,-10C280.89,-10 299.83,-10 316.7,-10"/>
<polygon fill="#63b8ff" stroke="#63b8ff" points="316.5,-13.5 326.5,-10 316.5,-6.5 316.5,-13.5"/>
</a>
</g>
</g>
</g>
</svg>
