<?xml version="1.0" encoding="UTF-8" standalone="no"?>
<!DOCTYPE svg PUBLIC "-//W3C//DTD SVG 1.1//EN"
 "http://www.w3.org/Graphics/SVG/1.1/DTD/svg11.dtd">
<!-- Generated by graphviz version 14.1.2 (20260124.0452)
 -->
<!-- Title: AsyncClient::connect Pages: 1 -->
<svg width="595pt" height="370pt"
 viewBox="0.00 0.00 595.00 370.00" xmlns="http://www.w3.org/2000/svg" xmlns:xlink="http://www.w3.org/1999/xlink">
<g id="graph0" class="graph" transform="scale(1 1) rotate(0) translate(4 366)">
<title>AsyncClient::connect</title>
<!-- Node1 -->
<g id="Node000001" class="node">
<title>Node1</title>
<g id="a_Node000001"><a xlink:title=" ">
<polygon fill="#999999" stroke="#666666" points="109.75,-172 0,-172 0,-152 109.75,-152 109.75,-172"/>
<text xml:space="preserve" text-anchor="middle" x="54.88" y="-158.5" font-family="Helvetica,sans-Serif" font-size="10.00">AsyncClient::connect</text>
</a>
</g>
</g>
<!-- Node2 -->
<g id="Node000002" class="node">
<title>Node2</title>
<g id="a_Node000002"><a xlink:href="class_async_client.html#a758eaca983e03027c99003a5808883f8" target="_top" xlink:title=" ">
<polygon fill="white" stroke="#666666" points="260.75,-172 145.75,-172 145.75,-152 260.75,-152 260.75,-172"/>
<text xml:space="preserve" text-anchor="middle" x="203.25" y="-158.5" font-family="Helvetica,sans-Serif" font-size="10.00">AsyncClient::_connect</text>
</a>
</g>
</g>
<!-- Node1&#45;&gt;Node2 -->
<g id="edge1_Node000001_Node000002" class="edge">
<title>Node1&#45;&gt;Node2</title>
<g id="a_edge1_Node000001_Node000002"><a xlink:title=" ">
<path fill="none" stroke="#63b8ff" d="M109.96,-162C117.82,-162 126,-162 134.09,-162"/>
<polygon fill="#63b8ff" stroke="#63b8ff" points="133.93,-165.5 143.93,-162 133.93,-158.5 133.93,-165.5"/>
</a>
</g>
</g>
<!-- Node3 -->
<g id="Node000003" class="node">
<title>Node3</title>
<g id="a_Node000003"><a xlink:href="class_async_client.html#ab0422e5254ea4fbac9f87188a018ebc4" target="_top" xlink:title=" ">
<polygon fill="white" stroke="#666666" points="411,-336 296.75,-336 296.75,-304 411,-304 411,-336"/>
<text xml:space="preserve" text-anchor="start" x="304.75" y="-322.5" font-family="Helvetica,sans-Serif" font-size="10.00">AsyncClient::_allocate</text>
<text xml:space="preserve" text-anchor="middle" x="353.88" y="-310.5" font-family="Helvetica,sans-Serif" font-size="10.00">_closed_slot</text>
</a>
</g>
</g>
<!-- Node2&#45;&gt;Node3 -->
<g id="edge2_Node000002_Node000003" class="edge">
<title>Node2&#45;&gt;Node3</title>
<g id="a_edge2_Node000002_Node000003"><a xlink:title=" ">
<path fill="none" stroke="#63b8ff" d="M209.02,-172.42C220.69,-196.91 252.97,-258.79 296.75,-295 297.84,-295.9 298.96,-296.77 300.12,-297.62"/>
<polygon fill="#63b8ff" stroke="#63b8ff" points="297.87,-300.34 308.18,-302.79 301.65,-294.45 297.87,-300.34"/>
</a>
</g>
</g>
<!-- Node4 -->
<g id="Node000004" class="node">
<title>Node4</title>
<g id="a_Node000004"><a xlink:href="_async_t_c_p_8cpp.html#a4d0de407bcfcc96b61af40aca3156708" target="_top" xlink:title=" ">
<polygon fill="white" stroke="#666666" points="402,-286 305.75,-286 305.75,-266 402,-266 402,-286"/>
<text xml:space="preserve" text-anchor="middle" x="353.88" y="-272.5" font-family="Helvetica,sans-Serif" font-size="10.00">_start_async_task</text>
</a>
</g>
</g>
<!-- Node2&#45;&gt;Node4 -->
<g id="edge3_Node000002_Node000004" class="edge">
<title>Node2&#45;&gt;Node4</title>
<g id="a_edge3_Node000002_Node000004"><a xlink:title=" ">
<path fill="none" stroke="#63b8ff" d="M211.69,-172.42C226.03,-191.78 259.36,-233.43 296.75,-257 298.99,-258.41 301.35,-259.73 303.77,-260.96"/>
<polygon fill="#63b8ff" stroke="#63b8ff" points="302.09,-264.05 312.65,-264.93 304.95,-257.66 302.09,-264.05"/>
</a>
</g>
</g>
<!-- Node48 -->
<g id="Node000048" class="node">
<title>Node48</title>
<g id="a_Node000048"><a xlink:href="_async_t_c_p_8cpp.html#a02f7e9cd68d729395c7794e07dfc1375" target="_top" xlink:title=" ">
<polygon fill="white" stroke="#666666" points="391.12,-248 316.62,-248 316.62,-228 391.12,-228 391.12,-248"/>
<text xml:space="preserve" text-anchor="middle" x="353.88" y="-234.5" font-family="Helvetica,sans-Serif" font-size="10.00">_tcp_connect</text>
</a>
</g>
</g>
<!-- Node2&#45;&gt;Node48 -->
<g id="edge7_Node000002_Node000048" class="edge">
<title>Node2&#45;&gt;Node48</title>
<g id="a_edge7_Node000002_Node000048"><a xlink:title=" ">
<path fill="none" stroke="#63b8ff" d="M218.73,-172.36C236.46,-184.7 267.73,-205.36 296.75,-219 300.1,-220.58 303.62,-222.08 307.19,-223.51"/>
<polygon fill="#63b8ff" stroke="#63b8ff" points="305.95,-226.78 316.54,-227.01 308.41,-220.23 305.95,-226.78"/>
</a>
</g>
</g>
<!-- Node50 -->
<g id="Node000050" class="node">
<title>Node50</title>
<g id="a_Node000050"><a xlink:href="_async_t_c_p_8cpp.html#aceddc1345284b96d9d3618c7b01ecede" target="_top" xlink:title=" ">
<polygon fill="white" stroke="#666666" points="396.38,-210 311.38,-210 311.38,-190 396.38,-190 396.38,-210"/>
<text xml:space="preserve" text-anchor="middle" x="353.88" y="-196.5" font-family="Helvetica,sans-Serif" font-size="10.00">_tcp_connected</text>
</a>
</g>
</g>
<!-- Node2&#45;&gt;Node50 -->
<g id="edge9_Node000002_Node000050" class="edge">
<title>Node2&#45;&gt;Node50</title>
<g id="a_edge9_Node000002_Node000050"><a xlink:title=" ">
<path fill="none" stroke="#63b8ff" d="M245.26,-172.48C262.48,-176.89 282.7,-182.06 300.95,-186.72"/>
<polygon fill="#63b8ff" stroke="#63b8ff" points="299.98,-190.09 310.54,-189.18 301.72,-183.31 299.98,-190.09"/>
</a>
</g>
</g>
<!-- Node25 -->
<g id="Node000025" class="node">
<title>Node25</title>
<g id="a_Node000025"><a xlink:href="_async_t_c_p_8cpp.html#a61ff9f7f886bbbbcdc1daca453828934" target="_top" xlink:title=" ">
<polygon fill="#fff0f0" stroke="red" points="383.62,-172 324.12,-172 324.12,-152 383.62,-152 383.62,-172"/>
<text xml:space="preserve" text-anchor="middle" x="353.88" y="-158.5" font-family="Helvetica,sans-Serif" font-size="10.00">_tcp_error</text>
</a>
</g>
</g>
<!-- Node2&#45;&gt;Node25 -->
<g id="edge11_Node000002_Node000025" class="edge">
<title>Node2&#45;&gt;Node25</title>
<g id="a_edge11_Node000002_Node000025"><a xlink:title=" ">
<path fill="none" stroke="#63b8ff" d="M260.86,-162C278.16,-162 296.81,-162 312.77,-162"/>
<polygon fill="#63b8ff" stroke="#63b8ff" points="312.35,-165.5 322.35,-162 312.35,-158.5 312.35,-165.5"/>
</a>
</g>
</g>
<!-- Node27 -->
<g id="Node000027" class="node">
<title>Node27</title>
<g id="a_Node000027"><a xlink:href="_async_t_c_p_8cpp.html#ad4b2c6c935c211eef5884f25a950e445" target="_top" xlink:title=" ">
<polygon fill="#fff0f0" stroke="red" points="381.38,-134 326.38,-134 326.38,-114 381.38,-114 381.38,-134"/>
<text xml:space="preserve" text-anchor="middle" x="353.88" y="-120.5" font-family="Helvetica,sans-Serif" font-size="10.00">_tcp_poll</text>
</a>
</g>
</g>
<!-- Node2&#45;&gt;Node27 -->
<g id="edge12_Node000002_Node000027" class="edge">
<title>Node2&#45;&gt;Node27</title>
<g id="a_edge12_Node000002_Node000027"><a xlink:title=" ">
<path fill="none" stroke="#63b8ff" d="M245.26,-151.52C267.11,-145.93 293.8,-139.1 315.13,-133.65"/>
<polygon fill="#63b8ff" stroke="#63b8ff" points="315.77,-137.1 324.59,-131.23 314.04,-130.32 315.77,-137.1"/>
</a>
</g>
</g>
<!-- Node28 -->
<g id="Node000028" class="node">
<title>Node28</title>
<g id="a_Node000028"><a xlink:href="_async_t_c_p_8cpp.html#adf7826424bf5b1035c4850f6b3307686" target="_top" xlink:title=" ">
<polygon fill="#fff0f0" stroke="red" points="383.25,-96 324.5,-96 324.5,-76 383.25,-76 383.25,-96"/>
<text xml:space="preserve" text-anchor="middle" x="353.88" y="-82.5" font-family="Helvetica,sans-Serif" font-size="10.00">_tcp_recv</text>
</a>
</g>
</g>
<!-- Node2&#45;&gt;Node28 -->
<g id="edge13_Node000002_Node000028" class="edge">
<title>Node2&#45;&gt;Node28</title>
<g id="a_edge13_Node000002_Node000028"><a xlink:title=" ">
<path fill="none" stroke="#63b8ff" d="M218.73,-151.64C236.46,-139.3 267.73,-118.64 296.75,-105 302.03,-102.52 307.72,-100.21 313.38,-98.11"/>
<polygon fill="#63b8ff" stroke="#63b8ff" points="314.41,-101.46 322.69,-94.85 312.1,-94.85 314.41,-101.46"/>
</a>
</g>
</g>
<!-- Node31 -->
<g id="Node000031" class="node">
<title>Node31</title>
<g id="a_Node000031"><a xlink:href="_async_t_c_p_8cpp.html#a0b47280aff638ec9b80f7a87dfe54ea6" target="_top" xlink:title=" ">
<polygon fill="#fff0f0" stroke="red" points="383.25,-58 324.5,-58 324.5,-38 383.25,-38 383.25,-58"/>
<text xml:space="preserve" text-anchor="middle" x="353.88" y="-44.5" font-family="Helvetica,sans-Serif" font-size="10.00">_tcp_sent</text>
</a>
</g>
</g>
<!-- Node2&#45;&gt;Node31 -->
<g id="edge14_Node000002_Node000031" class="edge">
<title>Node2&#45;&gt;Node31</title>
<g id="a_edge14_Node000002_Node000031"><a xlink:title=" ">
<path fill="none" stroke="#63b8ff" d="M211.69,-151.58C226.03,-132.22 259.36,-90.57 296.75,-67 301.92,-63.74 307.71,-60.97 313.55,-58.64"/>
<polygon fill="#63b8ff" stroke="#63b8ff" points="314.34,-62.08 322.58,-55.42 311.99,-55.48 314.34,-62.08"/>
</a>
</g>
</g>
<!-- Node14 -->
<g id="Node000014" class="node">
<title>Node14</title>
<g id="a_Node000014"><a xlink:href="class_async_client.html#ac0c28dd08517243bc6d64d32f982a3cc" target="_top" xlink:title=" ">
<polygon fill="white" stroke="#666666" points="399.38,-20 308.38,-20 308.38,0 399.38,0 399.38,-20"/>
<text xml:space="preserve" text-anchor="middle" x="353.88" y="-6.5" font-family="Helvetica,sans-Serif" font-size="10.00">AsyncClient::pcb</text>
</a>
</g>
</g>
<!-- Node2&#45;&gt;Node14 -->
<g id="edge15_Node000002_Node000014" class="edge">
<title>Node2&#45;&gt;Node14</title>
<g id="a_edge15_Node000002_Node000014"><a xlink:title=" ">
<path fill="none" stroke="#63b8ff" d="M208.63,-151.67C219.69,-126.84 251.12,-63.31 296.75,-29 298.3,-27.83 299.94,-26.73 301.62,-25.7"/>
<polygon fill="#63b8ff" stroke="#63b8ff" points="303.15,-28.85 310.43,-21.15 299.94,-22.63 303.15,-28.85"/>
</a>
</g>
</g>
<!-- Node5 -->
<g id="Node000005" class="node">
<title>Node5</title>
<g id="a_Node000005"><a xlink:href="_async_t_c_p_8cpp.html#a87baf4ac2987dd94502c4586a97e552f" target="_top" xlink:title=" ">
<polygon fill="#fff0f0" stroke="red" points="571,-362 462.75,-362 462.75,-342 571,-342 571,-362"/>
<text xml:space="preserve" text-anchor="middle" x="516.88" y="-348.5" font-family="Helvetica,sans-Serif" font-size="10.00">_async_service_task</text>
</a>
</g>
</g>
<!-- Node4&#45;&gt;Node5 -->
<g id="edge4_Node000004_Node000005" class="edge">
<title>Node4&#45;&gt;Node5</title>
<g id="a_edge4_Node000004_Node000005"><a xlink:title=" ">
<path fill="none" stroke="#63b8ff" d="M393.76,-286.39C399.76,-288.77 405.71,-291.62 411,-295 430.59,-307.54 427.06,-321.02 447,-333 449.6,-334.56 452.34,-336 455.15,-337.32"/>
<polygon fill="#63b8ff" stroke="#63b8ff" points="453.65,-340.49 464.23,-341.05 456.3,-334.01 453.65,-340.49"/>
</a>
</g>
</g>
<!-- Node46 -->
<g id="Node000046" class="node">
<title>Node46</title>
<g id="a_Node000046"><a xlink:href="_async_t_c_p_8cpp.html#a3aed34b06f9d10bb1cc4ce3d74cb5565" target="_top" xlink:title=" ">
<polygon fill="white" stroke="#666666" points="580,-324 453.75,-324 453.75,-304 580,-304 580,-324"/>
<text xml:space="preserve" text-anchor="middle" x="516.88" y="-310.5" font-family="Helvetica,sans-Serif" font-size="10.00">_init_async_event_queue</text>
</a>
</g>
</g>
<!-- Node4&#45;&gt;Node46 -->
<g id="edge5_Node000004_Node000046" class="edge">
<title>Node4&#45;&gt;Node46</title>
<g id="a_edge5_Node000004_Node000046"><a xlink:title=" ">
<path fill="none" stroke="#63b8ff" d="M399.3,-286.48C418.21,-290.95 440.48,-296.21 460.46,-300.92"/>
<polygon fill="#63b8ff" stroke="#63b8ff" points="459.59,-304.31 470.13,-303.2 461.2,-297.5 459.59,-304.31"/>
</a>
</g>
</g>
<!-- Node47 -->
<g id="Node000047" class="node">
<title>Node47</title>
<g id="a_Node000047"><a xlink:href="_async_t_c_p_8cpp.html#a8fedef252807f247ae1b933ac0bcc234" target="_top" xlink:title=" ">
<polygon fill="white" stroke="#666666" points="586.75,-286 447,-286 447,-266 586.75,-266 586.75,-286"/>
<text xml:space="preserve" text-anchor="middle" x="516.88" y="-272.5" font-family="Helvetica,sans-Serif" font-size="10.00">customTaskCreateUniversal</text>
</a>
</g>
</g>
<!-- Node4&#45;&gt;Node47 -->
<g id="edge6_Node000004_Node000047" class="edge">
<title>Node4&#45;&gt;Node47</title>
<g id="a_edge6_Node000004_Node000047"><a xlink:title=" ">
<path fill="none" stroke="#63b8ff" d="M402.31,-276C412.74,-276 424.08,-276 435.41,-276"/>
<polygon fill="#63b8ff" stroke="#63b8ff" points="435.19,-279.5 445.19,-276 435.19,-272.5 435.19,-279.5"/>
</a>
</g>
</g>
<!-- Node49 -->
<g id="Node000049" class="node">
<title>Node49</title>
<g id="a_Node000049"><a xlink:href="_async_t_c_p_8cpp.html#a6c3a1f5e3365fd25233a4ca083b400af" target="_top" xlink:title=" ">
<polygon fill="white" stroke="#666666" points="563.12,-248 470.62,-248 470.62,-228 563.12,-228 563.12,-248"/>
<text xml:space="preserve" text-anchor="middle" x="516.88" y="-234.5" font-family="Helvetica,sans-Serif" font-size="10.00">_tcp_connect_api</text>
</a>
</g>
</g>
<!-- Node48&#45;&gt;Node49 -->
<g id="edge8_Node000048_Node000049" class="edge">
<title>Node48&#45;&gt;Node49</title>
<g id="a_edge8_Node000048_Node000049"><a xlink:title=" ">
<path fill="none" stroke="#63b8ff" d="M391.41,-238C411.32,-238 436.4,-238 458.83,-238"/>
<polygon fill="#63b8ff" stroke="#63b8ff" points="458.76,-241.5 468.76,-238 458.76,-234.5 458.76,-241.5"/>
</a>
</g>
</g>
<!-- Node19 -->
<g id="Node000019" class="node">
<title>Node19</title>
<g id="a_Node000019"><a xlink:href="_async_t_c_p_8cpp.html#a42bebdded16714188a8e554237aad2f3" target="_top" xlink:title=" ">
<polygon fill="white" stroke="#666666" points="575.12,-210 458.62,-210 458.62,-190 575.12,-190 575.12,-210"/>
<text xml:space="preserve" text-anchor="middle" x="516.88" y="-196.5" font-family="Helvetica,sans-Serif" font-size="10.00">_prepend_async_event</text>
</a>
</g>
</g>
<!-- Node50&#45;&gt;Node19 -->
<g id="edge10_Node000050_Node000019" class="edge">
<title>Node50&#45;&gt;Node19</title>
<g id="a_edge10_Node000050_Node000019"><a xlink:title=" ">
<path fill="none" stroke="#63b8ff" d="M396.76,-200C412.12,-200 429.94,-200 447.04,-200"/>
<polygon fill="#63b8ff" stroke="#63b8ff" points="446.63,-203.5 456.63,-200 446.63,-196.5 446.63,-203.5"/>
</a>
</g>
</g>
</g>
</svg>
