<?xml version="1.0" encoding="UTF-8" standalone="no"?>
<!DOCTYPE svg PUBLIC "-//W3C//DTD SVG 1.1//EN"
 "http://www.w3.org/Graphics/SVG/1.1/DTD/svg11.dtd">
<!-- Generated by graphviz version 14.1.2 (20260124.0452)
 -->
<!-- Title: AsyncClient::_free_closed_slot Pages: 1 -->
<svg width="734pt" height="572pt"
 viewBox="0.00 0.00 734.00 572.00" xmlns="http://www.w3.org/2000/svg" xmlns:xlink="http://www.w3.org/1999/xlink">
<g id="graph0" class="graph" transform="scale(1 1) rotate(0) translate(4 568)">
<title>AsyncClient::_free_closed_slot</title>
<!-- Node1 -->
<g id="Node000001" class="node">
<title>Node1</title>
<g id="a_Node000001"><a xlink:title=" ">
<polygon fill="#999999" stroke="#666666" points="725.75,-159 628.75,-159 628.75,-127 725.75,-127 725.75,-159"/>
<text xml:space="preserve" text-anchor="start" x="636.75" y="-145.5" font-family="Helvetica,sans-Serif" font-size="10.00">AsyncClient::_free</text>
<text xml:space="preserve" text-anchor="middle" x="677.25" y="-133.5" font-family="Helvetica,sans-Serif" font-size="10.00">_closed_slot</text>
</a>
</g>
</g>
<!-- Node2 -->
<g id="Node000002" class="node">
<title>Node2</title>
<g id="a_Node000002"><a xlink:href="class_async_client.html#a98ff872bc84919f006f3bb8a249ed36d" target="_top" xlink:title=" ">
<polygon fill="white" stroke="#666666" points="587.88,-134 484.12,-134 484.12,-114 587.88,-114 587.88,-134"/>
<text xml:space="preserve" text-anchor="middle" x="536" y="-120.5" font-family="Helvetica,sans-Serif" font-size="10.00">AsyncClient::_close</text>
</a>
</g>
</g>
<!-- Node1&#45;&gt;Node2 -->
<g id="edge1_Node000001_Node000002" class="edge">
<title>Node1&#45;&gt;Node2</title>
<g id="a_edge1_Node000001_Node000002"><a xlink:title=" ">
<path fill="none" stroke="#63b8ff" d="M617.22,-134.95C607.62,-133.64 597.74,-132.29 588.34,-131"/>
<polygon fill="#63b8ff" stroke="#63b8ff" points="616.45,-138.37 626.83,-136.26 617.39,-131.44 616.45,-138.37"/>
</a>
</g>
</g>
<!-- Node30 -->
<g id="Node000030" class="node">
<title>Node30</title>
<g id="a_Node000030"><a xlink:href="class_async_client.html#a4044bdcfd2ca6197f75200644685c5f0" target="_top" xlink:title=" ">
<polygon fill="white" stroke="#666666" points="443.25,-58 308.75,-58 308.75,-38 443.25,-38 443.25,-58"/>
<text xml:space="preserve" text-anchor="middle" x="376" y="-44.5" font-family="Helvetica,sans-Serif" font-size="10.00">AsyncClient::~AsyncClient</text>
</a>
</g>
</g>
<!-- Node1&#45;&gt;Node30 -->
<g id="edge28_Node000001_Node000030" class="edge">
<title>Node1&#45;&gt;Node30</title>
<g id="a_edge28_Node000001_Node000030"><a xlink:title=" ">
<path fill="none" stroke="#63b8ff" d="M633.08,-121.68C620.28,-115.82 606.11,-109.77 592.75,-105 536.74,-85.02 470.33,-68.51 426.13,-58.49"/>
<polygon fill="#63b8ff" stroke="#63b8ff" points="631.55,-124.83 642.09,-125.89 634.51,-118.48 631.55,-124.83"/>
</a>
</g>
</g>
<!-- Node31 -->
<g id="Node000031" class="node">
<title>Node31</title>
<g id="a_Node000031"><a xlink:href="class_async_client.html#a5145b1cfe1a49ba9a066eee404013835" target="_top" xlink:title=" ">
<polygon fill="white" stroke="#666666" points="586,-327 486,-327 486,-307 586,-307 586,-327"/>
<text xml:space="preserve" text-anchor="middle" x="536" y="-313.5" font-family="Helvetica,sans-Serif" font-size="10.00">AsyncClient::_error</text>
</a>
</g>
</g>
<!-- Node1&#45;&gt;Node31 -->
<g id="edge24_Node000001_Node000031" class="edge">
<title>Node1&#45;&gt;Node31</title>
<g id="a_edge24_Node000001_Node000031"><a xlink:title=" ">
<path fill="none" stroke="#63b8ff" d="M656.26,-167.98C625.26,-206.71 566.94,-279.58 545.33,-306.59"/>
<polygon fill="#63b8ff" stroke="#63b8ff" points="658.69,-170.55 662.2,-160.55 653.22,-166.17 658.69,-170.55"/>
</a>
</g>
</g>
<!-- Node32 -->
<g id="Node000032" class="node">
<title>Node32</title>
<g id="a_Node000032"><a xlink:href="class_async_client.html#a32dfd5b9ec97903e2f59871f17b85ff4" target="_top" xlink:title=" ">
<polygon fill="white" stroke="#666666" points="592.75,-172 479.25,-172 479.25,-152 592.75,-152 592.75,-172"/>
<text xml:space="preserve" text-anchor="middle" x="536" y="-158.5" font-family="Helvetica,sans-Serif" font-size="10.00">AsyncClient::_lwip_fin</text>
</a>
</g>
</g>
<!-- Node1&#45;&gt;Node32 -->
<g id="edge26_Node000001_Node000032" class="edge">
<title>Node1&#45;&gt;Node32</title>
<g id="a_edge26_Node000001_Node000032"><a xlink:title=" ">
<path fill="none" stroke="#63b8ff" d="M616.95,-151.09C609.06,-152.17 600.99,-153.27 593.16,-154.34"/>
<polygon fill="#63b8ff" stroke="#63b8ff" points="617.39,-154.56 626.83,-149.74 616.45,-147.63 617.39,-154.56"/>
</a>
</g>
</g>
<!-- Node3 -->
<g id="Node000003" class="node">
<title>Node3</title>
<g id="a_Node000003"><a xlink:href="class_async_client.html#a383d1cb7d684d328362caa5eafc92ca2" target="_top" xlink:title=" ">
<polygon fill="white" stroke="#666666" points="423.75,-523 328.25,-523 328.25,-503 423.75,-503 423.75,-523"/>
<text xml:space="preserve" text-anchor="middle" x="376" y="-509.5" font-family="Helvetica,sans-Serif" font-size="10.00">AsyncClient::_poll</text>
</a>
</g>
</g>
<!-- Node2&#45;&gt;Node3 -->
<g id="edge2_Node000002_Node000003" class="edge">
<title>Node2&#45;&gt;Node3</title>
<g id="a_edge2_Node000002_Node000003"><a xlink:title=" ">
<path fill="none" stroke="#63b8ff" d="M481.01,-141.11C480.4,-141.72 479.82,-142.35 479.25,-143 422.92,-207.91 466.17,-250.17 443.25,-333 424.96,-399.11 393.21,-475.38 381.5,-502.65"/>
<polygon fill="#63b8ff" stroke="#63b8ff" points="482.88,-144.09 488.75,-135.27 478.66,-138.5 482.88,-144.09"/>
</a>
</g>
</g>
<!-- Node14 -->
<g id="Node000014" class="node">
<title>Node14</title>
<g id="a_Node000014"><a xlink:href="class_async_client.html#aefecfa0c75c8c1b32104115e93739087" target="_top" xlink:title=" ">
<polygon fill="white" stroke="#666666" points="440.25,-324 311.75,-324 311.75,-304 440.25,-304 440.25,-324"/>
<text xml:space="preserve" text-anchor="middle" x="376" y="-310.5" font-family="Helvetica,sans-Serif" font-size="10.00">AsyncClient::AsyncClient</text>
</a>
</g>
</g>
<!-- Node2&#45;&gt;Node14 -->
<g id="edge4_Node000002_Node000014" class="edge">
<title>Node2&#45;&gt;Node14</title>
<g id="a_edge4_Node000002_Node000014"><a xlink:title=" ">
<path fill="none" stroke="#63b8ff" d="M483.38,-139.98C481.95,-140.93 480.57,-141.93 479.25,-143 422.78,-188.68 390.15,-274.49 380.25,-303.85"/>
<polygon fill="#63b8ff" stroke="#63b8ff" points="484.98,-143.09 492.05,-135.19 481.6,-136.96 484.98,-143.09"/>
</a>
</g>
</g>
<!-- Node20 -->
<g id="Node000020" class="node">
<title>Node20</title>
<g id="a_Node000020"><a xlink:href="class_async_client.html#a575c12664279634155259e007c6a104f" target="_top" xlink:title=" ">
<polygon fill="white" stroke="#666666" points="263,-134 146.5,-134 146.5,-114 263,-114 263,-134"/>
<text xml:space="preserve" text-anchor="middle" x="204.75" y="-120.5" font-family="Helvetica,sans-Serif" font-size="10.00">AsyncClient::operator=</text>
</a>
</g>
</g>
<!-- Node2&#45;&gt;Node20 -->
<g id="edge22_Node000002_Node000020" class="edge">
<title>Node2&#45;&gt;Node20</title>
<g id="a_edge22_Node000002_Node000020"><a xlink:title=" ">
<path fill="none" stroke="#63b8ff" d="M472.66,-124C412.42,-124 321.91,-124 263.33,-124"/>
<polygon fill="#63b8ff" stroke="#63b8ff" points="472.4,-127.5 482.4,-124 472.4,-120.5 472.4,-127.5"/>
</a>
</g>
</g>
<!-- Node26 -->
<g id="Node000026" class="node">
<title>Node26</title>
<g id="a_Node000026"><a xlink:href="class_async_client.html#a0305fe0b036257c03829ceaa5cc43361" target="_top" xlink:title="close connection">
<polygon fill="white" stroke="#666666" points="425.25,-96 326.75,-96 326.75,-76 425.25,-76 425.25,-96"/>
<text xml:space="preserve" text-anchor="middle" x="376" y="-82.5" font-family="Helvetica,sans-Serif" font-size="10.00">AsyncClient::close</text>
</a>
</g>
</g>
<!-- Node2&#45;&gt;Node26 -->
<g id="edge17_Node000002_Node000026" class="edge">
<title>Node2&#45;&gt;Node26</title>
<g id="a_edge17_Node000002_Node000026"><a xlink:title=" ">
<path fill="none" stroke="#63b8ff" d="M480.47,-110.88C460.85,-106.17 439,-100.91 420.45,-96.45"/>
<polygon fill="#63b8ff" stroke="#63b8ff" points="479.39,-114.23 489.94,-113.16 481.03,-107.42 479.39,-114.23"/>
</a>
</g>
</g>
<!-- Node2&#45;&gt;Node30 -->
<g id="edge23_Node000002_Node000030" class="edge">
<title>Node2&#45;&gt;Node30</title>
<g id="a_edge23_Node000002_Node000030"><a xlink:title=" ">
<path fill="none" stroke="#63b8ff" d="M511.71,-107C493.74,-94.53 467.87,-77.92 443.25,-67 435.92,-63.75 427.89,-60.9 420.03,-58.46"/>
<polygon fill="#63b8ff" stroke="#63b8ff" points="509.65,-109.83 519.83,-112.75 513.69,-104.12 509.65,-109.83"/>
</a>
</g>
</g>
<!-- Node4 -->
<g id="Node000004" class="node">
<title>Node4</title>
<g id="a_Node000004"><a xlink:href="class_async_client.html#abe187c005c73fe6c0c94e1b3b20b55de" target="_top" xlink:title=" ">
<polygon fill="#fff0f0" stroke="red" points="257.75,-564 151.75,-564 151.75,-544 257.75,-544 257.75,-564"/>
<text xml:space="preserve" text-anchor="middle" x="204.75" y="-550.5" font-family="Helvetica,sans-Serif" font-size="10.00">AsyncClient::_s_poll</text>
</a>
</g>
</g>
<!-- Node3&#45;&gt;Node4 -->
<g id="edge3_Node000003_Node000004" class="edge">
<title>Node3&#45;&gt;Node4</title>
<g id="a_edge3_Node000003_Node000004"><a xlink:title=" ">
<path fill="none" stroke="#63b8ff" d="M320.75,-526.14C297.49,-531.78 270.69,-538.27 248.82,-543.57"/>
<polygon fill="#63b8ff" stroke="#63b8ff" points="321.49,-529.56 330.38,-523.81 319.84,-522.76 321.49,-529.56"/>
</a>
</g>
</g>
<!-- Node14&#45;&gt;Node4 -->
<g id="edge10_Node000014_Node000004" class="edge">
<title>Node14&#45;&gt;Node4</title>
<g id="a_edge10_Node000014_Node000004"><a xlink:title=" ">
<path fill="none" stroke="#63b8ff" d="M367.81,-335.07C350.46,-384.76 305.34,-507.16 272.75,-535 268.43,-538.69 263.44,-541.67 258.16,-544.07"/>
<polygon fill="#63b8ff" stroke="#63b8ff" points="371.06,-336.38 371.01,-325.79 364.44,-334.1 371.06,-336.38"/>
</a>
</g>
</g>
<!-- Node15 -->
<g id="Node000015" class="node">
<title>Node15</title>
<g id="a_Node000015"><a xlink:href="class_async_client.html#ac4cdb0990fa85f03da98d1c98b1f8611" target="_top" xlink:title=" ">
<polygon fill="#fff0f0" stroke="red" points="272.75,-488 136.75,-488 136.75,-468 272.75,-468 272.75,-488"/>
<text xml:space="preserve" text-anchor="middle" x="204.75" y="-474.5" font-family="Helvetica,sans-Serif" font-size="10.00">AsyncClient::_s_connected</text>
</a>
</g>
</g>
<!-- Node14&#45;&gt;Node15 -->
<g id="edge5_Node000014_Node000015" class="edge">
<title>Node14&#45;&gt;Node15</title>
<g id="a_edge5_Node000014_Node000015"><a xlink:title=" ">
<path fill="none" stroke="#63b8ff" d="M363.29,-333.89C341.96,-369.48 296.78,-441.97 272.75,-459 267.92,-462.43 262.48,-465.24 256.84,-467.54"/>
<polygon fill="#63b8ff" stroke="#63b8ff" points="366.21,-335.81 368.32,-325.43 360.2,-332.23 366.21,-335.81"/>
</a>
</g>
</g>
<!-- Node12 -->
<g id="Node000012" class="node">
<title>Node12</title>
<g id="a_Node000012"><a xlink:href="class_async_client.html#a3f629c9072da183879a9c67878b374cc" target="_top" xlink:title=" ">
<polygon fill="#fff0f0" stroke="red" points="258.12,-450 151.38,-450 151.38,-418 258.12,-418 258.12,-450"/>
<text xml:space="preserve" text-anchor="start" x="159.38" y="-436.5" font-family="Helvetica,sans-Serif" font-size="10.00">AsyncClient::_s_dns</text>
<text xml:space="preserve" text-anchor="middle" x="204.75" y="-424.5" font-family="Helvetica,sans-Serif" font-size="10.00">_found</text>
</a>
</g>
</g>
<!-- Node14&#45;&gt;Node12 -->
<g id="edge6_Node000014_Node000012" class="edge">
<title>Node14&#45;&gt;Node12</title>
<g id="a_edge6_Node000014_Node000012"><a xlink:title=" ">
<path fill="none" stroke="#63b8ff" d="M359.09,-332.66C340.31,-353.69 307.24,-387.72 272.75,-409 267.68,-412.13 262.15,-414.96 256.52,-417.51"/>
<polygon fill="#63b8ff" stroke="#63b8ff" points="361.49,-335.23 365.45,-325.4 356.23,-330.62 361.49,-335.23"/>
</a>
</g>
</g>
<!-- Node16 -->
<g id="Node000016" class="node">
<title>Node16</title>
<g id="a_Node000016"><a xlink:href="class_async_client.html#a9ff634e3b1237eab65178b007326367e" target="_top" xlink:title=" ">
<polygon fill="#fff0f0" stroke="red" points="260,-526 149.5,-526 149.5,-506 260,-506 260,-526"/>
<text xml:space="preserve" text-anchor="middle" x="204.75" y="-512.5" font-family="Helvetica,sans-Serif" font-size="10.00">AsyncClient::_s_error</text>
</a>
</g>
</g>
<!-- Node14&#45;&gt;Node16 -->
<g id="edge7_Node000014_Node000016" class="edge">
<title>Node14&#45;&gt;Node16</title>
<g id="a_edge7_Node000014_Node000016"><a xlink:title=" ">
<path fill="none" stroke="#63b8ff" d="M361.69,-333.68C347.76,-354.64 325.6,-389.01 308.75,-420 290.71,-453.19 301.52,-472.52 272.75,-497 268.7,-500.45 264.06,-503.27 259.16,-505.58"/>
<polygon fill="#63b8ff" stroke="#63b8ff" points="364.49,-335.79 367.15,-325.54 358.67,-331.9 364.49,-335.79"/>
</a>
</g>
</g>
<!-- Node17 -->
<g id="Node000017" class="node">
<title>Node17</title>
<g id="a_Node000017"><a xlink:href="class_async_client.html#a6a69c67e1a22660766affb64700c2276" target="_top" xlink:title=" ">
<polygon fill="#fff0f0" stroke="red" points="255.5,-400 154,-400 154,-380 255.5,-380 255.5,-400"/>
<text xml:space="preserve" text-anchor="middle" x="204.75" y="-386.5" font-family="Helvetica,sans-Serif" font-size="10.00">AsyncClient::_s_fin</text>
</a>
</g>
</g>
<!-- Node14&#45;&gt;Node17 -->
<g id="edge8_Node000014_Node000017" class="edge">
<title>Node14&#45;&gt;Node17</title>
<g id="a_edge8_Node000014_Node000017"><a xlink:title=" ">
<path fill="none" stroke="#63b8ff" d="M349.61,-330.34C329.41,-342.8 300.09,-359.68 272.75,-371 265.04,-374.19 256.62,-377.04 248.43,-379.5"/>
<polygon fill="#63b8ff" stroke="#63b8ff" points="351.39,-333.36 358.01,-325.09 347.67,-327.43 351.39,-333.36"/>
</a>
</g>
</g>
<!-- Node18 -->
<g id="Node000018" class="node">
<title>Node18</title>
<g id="a_Node000018"><a xlink:href="class_async_client.html#a485b2be0c01d3172928c0ed9655edc2f" target="_top" xlink:title=" ">
<polygon fill="#fff0f0" stroke="red" points="266.75,-172 142.75,-172 142.75,-152 266.75,-152 266.75,-172"/>
<text xml:space="preserve" text-anchor="middle" x="204.75" y="-158.5" font-family="Helvetica,sans-Serif" font-size="10.00">AsyncClient::_s_lwip_fin</text>
</a>
</g>
</g>
<!-- Node14&#45;&gt;Node18 -->
<g id="edge9_Node000014_Node000018" class="edge">
<title>Node14&#45;&gt;Node18</title>
<g id="a_edge9_Node000014_Node000018"><a xlink:title=" ">
<path fill="none" stroke="#63b8ff" d="M364.79,-293.58C349.07,-264.22 316.14,-210.42 272.75,-181 267.65,-177.54 261.92,-174.7 256.01,-172.38"/>
<polygon fill="#63b8ff" stroke="#63b8ff" points="361.54,-294.92 369.26,-302.18 367.76,-291.69 361.54,-294.92"/>
</a>
</g>
</g>
<!-- Node21 -->
<g id="Node000021" class="node">
<title>Node21</title>
<g id="a_Node000021"><a xlink:href="class_async_client.html#af8136d3085c8948078a131bfb9430ec6" target="_top" xlink:title=" ">
<polygon fill="#fff0f0" stroke="red" points="259.62,-362 149.88,-362 149.88,-342 259.62,-342 259.62,-362"/>
<text xml:space="preserve" text-anchor="middle" x="204.75" y="-348.5" font-family="Helvetica,sans-Serif" font-size="10.00">AsyncClient::_s_recv</text>
</a>
</g>
</g>
<!-- Node14&#45;&gt;Node21 -->
<g id="edge11_Node000014_Node000021" class="edge">
<title>Node14&#45;&gt;Node21</title>
<g id="a_edge11_Node000014_Node000021"><a xlink:title=" ">
<path fill="none" stroke="#63b8ff" d="M317.17,-326.98C296,-331.74 272.35,-337.05 252.29,-341.55"/>
<polygon fill="#63b8ff" stroke="#63b8ff" points="317.84,-330.42 326.83,-324.82 316.3,-323.59 317.84,-330.42"/>
</a>
</g>
</g>
<!-- Node22 -->
<g id="Node000022" class="node">
<title>Node22</title>
<g id="a_Node000022"><a xlink:href="class_async_client.html#a8e507d50b4cc3ae8e90f2e1c1ebf5f61" target="_top" xlink:title=" ">
<polygon fill="#fff0f0" stroke="red" points="259.62,-324 149.88,-324 149.88,-304 259.62,-304 259.62,-324"/>
<text xml:space="preserve" text-anchor="middle" x="204.75" y="-310.5" font-family="Helvetica,sans-Serif" font-size="10.00">AsyncClient::_s_sent</text>
</a>
</g>
</g>
<!-- Node14&#45;&gt;Node22 -->
<g id="edge12_Node000014_Node000022" class="edge">
<title>Node14&#45;&gt;Node22</title>
<g id="a_edge12_Node000014_Node000022"><a xlink:title=" ">
<path fill="none" stroke="#63b8ff" d="M300.21,-314C286.64,-314 272.74,-314 259.91,-314"/>
<polygon fill="#63b8ff" stroke="#63b8ff" points="299.98,-317.5 309.98,-314 299.98,-310.5 299.98,-317.5"/>
</a>
</g>
</g>
<!-- Node23 -->
<g id="Node000023" class="node">
<title>Node23</title>
<g id="a_Node000023"><a xlink:href="class_async_client.html#a44e3b77c5567dbfeb25c50cfddf61653" target="_top" xlink:title=" ">
<polygon fill="white" stroke="#666666" points="264.5,-286 145,-286 145,-266 264.5,-266 264.5,-286"/>
<text xml:space="preserve" text-anchor="middle" x="204.75" y="-272.5" font-family="Helvetica,sans-Serif" font-size="10.00">AsyncClient::operator!=</text>
</a>
</g>
</g>
<!-- Node14&#45;&gt;Node23 -->
<g id="edge13_Node000014_Node000023" class="edge">
<title>Node14&#45;&gt;Node23</title>
<g id="a_edge13_Node000014_Node000023"><a xlink:title=" ">
<path fill="none" stroke="#63b8ff" d="M317.17,-301.02C296,-296.26 272.35,-290.95 252.29,-286.45"/>
<polygon fill="#63b8ff" stroke="#63b8ff" points="316.3,-304.41 326.83,-303.18 317.84,-297.58 316.3,-304.41"/>
</a>
</g>
</g>
<!-- Node24 -->
<g id="Node000024" class="node">
<title>Node24</title>
<g id="a_Node000024"><a xlink:href="class_async_client.html#afaedf716feb9b363fe9b1ee7d82fbe9f" target="_top" xlink:title=" ">
<polygon fill="white" stroke="#666666" points="266,-248 143.5,-248 143.5,-228 266,-228 266,-248"/>
<text xml:space="preserve" text-anchor="middle" x="204.75" y="-234.5" font-family="Helvetica,sans-Serif" font-size="10.00">AsyncClient::operator+=</text>
</a>
</g>
</g>
<!-- Node14&#45;&gt;Node24 -->
<g id="edge14_Node000014_Node000024" class="edge">
<title>Node14&#45;&gt;Node24</title>
<g id="a_edge14_Node000014_Node000024"><a xlink:title=" ">
<path fill="none" stroke="#63b8ff" d="M349.61,-297.66C329.41,-285.2 300.09,-268.32 272.75,-257 265.04,-253.81 256.62,-250.96 248.43,-248.5"/>
<polygon fill="#63b8ff" stroke="#63b8ff" points="347.67,-300.57 358.01,-302.91 351.39,-294.64 347.67,-300.57"/>
</a>
</g>
</g>
<!-- Node14&#45;&gt;Node20 -->
<g id="edge15_Node000014_Node000020" class="edge">
<title>Node14&#45;&gt;Node20</title>
<g id="a_edge15_Node000014_Node000020"><a xlink:title=" ">
<path fill="none" stroke="#63b8ff" d="M368.25,-292.98C355.53,-256.77 324.54,-182.71 272.75,-143 268.24,-139.54 263.13,-136.71 257.79,-134.4"/>
<polygon fill="#63b8ff" stroke="#63b8ff" points="364.87,-293.91 371.38,-302.27 371.5,-291.67 364.87,-293.91"/>
</a>
</g>
</g>
<!-- Node25 -->
<g id="Node000025" class="node">
<title>Node25</title>
<g id="a_Node000025"><a xlink:href="class_async_client.html#a40d147dfec9bbc2e8891273be25c5f39" target="_top" xlink:title=" ">
<polygon fill="white" stroke="#666666" points="266,-210 143.5,-210 143.5,-190 266,-190 266,-210"/>
<text xml:space="preserve" text-anchor="middle" x="204.75" y="-196.5" font-family="Helvetica,sans-Serif" font-size="10.00">AsyncClient::operator==</text>
</a>
</g>
</g>
<!-- Node14&#45;&gt;Node25 -->
<g id="edge16_Node000014_Node000025" class="edge">
<title>Node14&#45;&gt;Node25</title>
<g id="a_edge16_Node000014_Node000025"><a xlink:title=" ">
<path fill="none" stroke="#63b8ff" d="M359.68,-295.16C341.22,-273.69 308.25,-238.98 272.75,-219 266.74,-215.62 260.09,-212.8 253.38,-210.47"/>
<polygon fill="#63b8ff" stroke="#63b8ff" points="356.79,-297.17 365.9,-302.58 362.15,-292.67 356.79,-297.17"/>
</a>
</g>
</g>
<!-- Node27 -->
<g id="Node000027" class="node">
<title>Node27</title>
<g id="a_Node000027"><a xlink:href="class_async_telnet.html#a77dcd8e31b8bfb8b3082de385c5e7792" target="_top" xlink:title=" ">
<polygon fill="white" stroke="#666666" points="254.38,-58 155.12,-58 155.12,-38 254.38,-38 254.38,-58"/>
<text xml:space="preserve" text-anchor="middle" x="204.75" y="-44.5" font-family="Helvetica,sans-Serif" font-size="10.00">AsyncTelnet::begin</text>
</a>
</g>
</g>
<!-- Node26&#45;&gt;Node27 -->
<g id="edge18_Node000026_Node000027" class="edge">
<title>Node26&#45;&gt;Node27</title>
<g id="a_edge18_Node000026_Node000027"><a xlink:title=" ">
<path fill="none" stroke="#63b8ff" d="M317.17,-73.02C296,-68.26 272.35,-62.95 252.29,-58.45"/>
<polygon fill="#63b8ff" stroke="#63b8ff" points="316.3,-76.41 326.83,-75.18 317.84,-69.58 316.3,-76.41"/>
</a>
</g>
</g>
<!-- Node28 -->
<g id="Node000028" class="node">
<title>Node28</title>
<g id="a_Node000028"><a xlink:href="class_async_telnet_serial.html#a6cf9d6cc49602ff5ac0ec2af846a0d7a" target="_top" xlink:title=" ">
<polygon fill="white" stroke="#666666" points="100.75,-83 0,-83 0,-51 100.75,-51 100.75,-83"/>
<text xml:space="preserve" text-anchor="start" x="8" y="-69.5" font-family="Helvetica,sans-Serif" font-size="10.00">AsyncTelnetSerial::</text>
<text xml:space="preserve" text-anchor="middle" x="50.38" y="-57.5" font-family="Helvetica,sans-Serif" font-size="10.00">begin</text>
</a>
</g>
</g>
<!-- Node26&#45;&gt;Node28 -->
<g id="edge20_Node000026_Node000028" class="edge">
<title>Node26&#45;&gt;Node28</title>
<g id="a_edge20_Node000026_Node000028"><a xlink:title=" ">
<path fill="none" stroke="#63b8ff" d="M315.08,-82.48C253.53,-78.87 158.81,-73.31 101.22,-69.93"/>
<polygon fill="#63b8ff" stroke="#63b8ff" points="314.85,-85.97 325.04,-83.07 315.26,-78.99 314.85,-85.97"/>
</a>
</g>
</g>
<!-- Node29 -->
<g id="Node000029" class="node">
<title>Node29</title>
<g id="a_Node000029"><a xlink:href="class_async_client.html#a4bed4e925817d1b918af2ce43fb0859e" target="_top" xlink:title=" ">
<polygon fill="white" stroke="#666666" points="251.75,-20 157.75,-20 157.75,0 251.75,0 251.75,-20"/>
<text xml:space="preserve" text-anchor="middle" x="204.75" y="-6.5" font-family="Helvetica,sans-Serif" font-size="10.00">AsyncClient::stop</text>
</a>
</g>
</g>
<!-- Node26&#45;&gt;Node29 -->
<g id="edge21_Node000026_Node000029" class="edge">
<title>Node26&#45;&gt;Node29</title>
<g id="a_edge21_Node000026_Node000029"><a xlink:title=" ">
<path fill="none" stroke="#63b8ff" d="M316.46,-71.15C313.79,-69.88 311.21,-68.49 308.75,-67 288.87,-54.92 292.65,-41.05 272.75,-29 266.44,-25.18 259.33,-22.1 252.17,-19.63"/>
<polygon fill="#63b8ff" stroke="#63b8ff" points="315.04,-74.35 325.62,-74.99 317.74,-67.9 315.04,-74.35"/>
</a>
</g>
</g>
<!-- Node27&#45;&gt;Node28 -->
<g id="edge19_Node000027_Node000028" class="edge">
<title>Node27&#45;&gt;Node28</title>
<g id="a_edge19_Node000027_Node000028"><a xlink:title=" ">
<path fill="none" stroke="#63b8ff" d="M143.61,-55.5C129.53,-57.25 114.69,-59.11 101.12,-60.8"/>
<polygon fill="#63b8ff" stroke="#63b8ff" points="143.71,-59.01 153.2,-54.3 142.84,-52.07 143.71,-59.01"/>
</a>
</g>
</g>
<!-- Node31&#45;&gt;Node16 -->
<g id="edge25_Node000031_Node000016" class="edge">
<title>Node31&#45;&gt;Node16</title>
<g id="a_edge25_Node000031_Node000016"><a xlink:title=" ">
<path fill="none" stroke="#63b8ff" d="M514.49,-334.61C472.09,-370.18 370.58,-451.07 272.75,-497 265.75,-500.29 258.06,-503.12 250.46,-505.52"/>
<polygon fill="#63b8ff" stroke="#63b8ff" points="516.53,-337.46 521.91,-328.33 512.01,-332.12 516.53,-337.46"/>
</a>
</g>
</g>
<!-- Node32&#45;&gt;Node18 -->
<g id="edge27_Node000032_Node000018" class="edge">
<title>Node32&#45;&gt;Node18</title>
<g id="a_edge27_Node000032_Node000018"><a xlink:title=" ">
<path fill="none" stroke="#63b8ff" d="M467.36,-162C408.51,-162 323.96,-162 267.06,-162"/>
<polygon fill="#63b8ff" stroke="#63b8ff" points="467.26,-165.5 477.26,-162 467.26,-158.5 467.26,-165.5"/>
</a>
</g>
</g>
</g>
</svg>
