<?xml version="1.0" encoding="UTF-8" standalone="no"?>
<!DOCTYPE svg PUBLIC "-//W3C//DTD SVG 1.1//EN"
 "http://www.w3.org/Graphics/SVG/1.1/DTD/svg11.dtd">
<!-- Generated by graphviz version 14.1.2 (20260124.0452)
 -->
<!-- Title: AsyncClient::_s_poll Pages: 1 -->
<svg width="716pt" height="386pt"
 viewBox="0.00 0.00 716.00 386.00" xmlns="http://www.w3.org/2000/svg" xmlns:xlink="http://www.w3.org/1999/xlink">
<g id="graph0" class="graph" transform="scale(1 1) rotate(0) translate(4 381.94)">
<title>AsyncClient::_s_poll</title>
<!-- Node1 -->
<g id="Node000001" class="node">
<title>Node1</title>
<g id="a_Node000001"><a xlink:title=" ">
<polygon fill="#999999" stroke="#666666" points="106,-161.21 0,-161.21 0,-141.21 106,-141.21 106,-161.21"/>
<text xml:space="preserve" text-anchor="middle" x="53" y="-147.71" font-family="Helvetica,sans-Serif" font-size="10.00">AsyncClient::_s_poll</text>
</a>
</g>
</g>
<!-- Node2 -->
<g id="Node000002" class="node">
<title>Node2</title>
<g id="a_Node000002"><a xlink:href="class_async_client.html#a383d1cb7d684d328362caa5eafc92ca2" target="_top" xlink:title=" ">
<polygon fill="white" stroke="#666666" points="254,-297.21 158.5,-297.21 158.5,-277.21 254,-277.21 254,-297.21"/>
<text xml:space="preserve" text-anchor="middle" x="206.25" y="-283.71" font-family="Helvetica,sans-Serif" font-size="10.00">AsyncClient::_poll</text>
</a>
</g>
</g>
<!-- Node1&#45;&gt;Node2 -->
<g id="edge1_Node000001_Node000002" class="edge">
<title>Node1&#45;&gt;Node2</title>
<g id="a_edge1_Node000001_Node000002"><a xlink:title=" ">
<path fill="none" stroke="#63b8ff" d="M65.37,-161.43C90.99,-184.47 153.5,-240.68 185.57,-269.51"/>
<polygon fill="#63b8ff" stroke="#63b8ff" points="182.85,-271.77 192.62,-275.86 187.53,-266.57 182.85,-271.77"/>
</a>
</g>
</g>
<!-- Node12 -->
<g id="Node000012" class="node">
<title>Node12</title>
<g id="a_Node000012"><a xlink:href="class_async_client.html#ac0c28dd08517243bc6d64d32f982a3cc" target="_top" xlink:title=" ">
<polygon fill="white" stroke="#666666" points="707.75,-95.21 616.75,-95.21 616.75,-75.21 707.75,-75.21 707.75,-95.21"/>
<text xml:space="preserve" text-anchor="middle" x="662.25" y="-81.71" font-family="Helvetica,sans-Serif" font-size="10.00">AsyncClient::pcb</text>
</a>
</g>
</g>
<!-- Node1&#45;&gt;Node12 -->
<g id="edge23_Node000001_Node000012" class="edge">
<title>Node1&#45;&gt;Node12</title>
<g id="a_edge23_Node000001_Node000012"><a xlink:title=" ">
<path fill="none" stroke="#63b8ff" d="M66.04,-140.89C100.57,-112.07 204.01,-31.03 306.5,-3.21 336.27,4.87 573.43,-5.14 580.75,-8.21 609.17,-20.13 633.4,-47.05 647.65,-65.67"/>
<polygon fill="#63b8ff" stroke="#63b8ff" points="644.69,-67.56 653.43,-73.55 650.34,-63.42 644.69,-67.56"/>
</a>
</g>
</g>
<!-- Node13 -->
<g id="Node000013" class="node">
<title>Node13</title>
<g id="a_Node000013"><a xlink:href="class_async_client.html#aefecfa0c75c8c1b32104115e93739087" target="_top" xlink:title=" ">
<polygon fill="white" stroke="#666666" points="270.5,-161.21 142,-161.21 142,-141.21 270.5,-141.21 270.5,-161.21"/>
<text xml:space="preserve" text-anchor="middle" x="206.25" y="-147.71" font-family="Helvetica,sans-Serif" font-size="10.00">AsyncClient::AsyncClient</text>
</a>
</g>
</g>
<!-- Node1&#45;&gt;Node13 -->
<g id="edge8_Node000001_Node000013" class="edge">
<title>Node1&#45;&gt;Node13</title>
<g id="a_edge8_Node000001_Node000013"><a xlink:title=" ">
<path fill="none" stroke="#63b8ff" d="M106.48,-151.21C114.19,-151.21 122.26,-151.21 130.31,-151.21"/>
<polygon fill="#63b8ff" stroke="#63b8ff" points="130.15,-154.71 140.15,-151.21 130.15,-147.71 130.15,-154.71"/>
</a>
</g>
</g>
<!-- Node3 -->
<g id="Node000003" class="node">
<title>Node3</title>
<g id="a_Node000003"><a xlink:href="class_async_client.html#a98ff872bc84919f006f3bb8a249ed36d" target="_top" xlink:title=" ">
<polygon fill="white" stroke="#666666" points="415.5,-297.21 311.75,-297.21 311.75,-277.21 415.5,-277.21 415.5,-297.21"/>
<text xml:space="preserve" text-anchor="middle" x="363.62" y="-283.71" font-family="Helvetica,sans-Serif" font-size="10.00">AsyncClient::_close</text>
</a>
</g>
</g>
<!-- Node2&#45;&gt;Node3 -->
<g id="edge2_Node000002_Node000003" class="edge">
<title>Node2&#45;&gt;Node3</title>
<g id="a_edge2_Node000002_Node000003"><a xlink:title=" ">
<path fill="none" stroke="#63b8ff" d="M254.29,-287.21C268.67,-287.21 284.71,-287.21 299.96,-287.21"/>
<polygon fill="#63b8ff" stroke="#63b8ff" points="299.9,-290.71 309.9,-287.21 299.9,-283.71 299.9,-290.71"/>
</a>
</g>
</g>
<!-- Node2&#45;&gt;Node12 -->
<g id="edge7_Node000002_Node000012" class="edge">
<title>Node2&#45;&gt;Node12</title>
<g id="a_edge7_Node000002_Node000012"><a xlink:title=" ">
<path fill="none" stroke="#63b8ff" d="M224.18,-297.56C280.93,-330.79 467.19,-427.83 580.75,-344.21 620.05,-315.27 648.49,-163.34 657.89,-106.6"/>
<polygon fill="#63b8ff" stroke="#63b8ff" points="661.31,-107.38 659.45,-96.95 654.4,-106.27 661.31,-107.38"/>
</a>
</g>
</g>
<!-- Node4 -->
<g id="Node000004" class="node">
<title>Node4</title>
<g id="a_Node000004"><a xlink:href="class_async_client.html#aff6a2fbf261b25e1fcd35c11cce348a5" target="_top" xlink:title=" ">
<polygon fill="white" stroke="#666666" points="567.25,-221.21 470.25,-221.21 470.25,-189.21 567.25,-189.21 567.25,-221.21"/>
<text xml:space="preserve" text-anchor="start" x="478.25" y="-207.71" font-family="Helvetica,sans-Serif" font-size="10.00">AsyncClient::_free</text>
<text xml:space="preserve" text-anchor="middle" x="518.75" y="-195.71" font-family="Helvetica,sans-Serif" font-size="10.00">_closed_slot</text>
</a>
</g>
</g>
<!-- Node3&#45;&gt;Node4 -->
<g id="edge3_Node000003_Node000004" class="edge">
<title>Node3&#45;&gt;Node4</title>
<g id="a_edge3_Node000003_Node000004"><a xlink:title=" ">
<path fill="none" stroke="#63b8ff" d="M394.13,-276.79C403.01,-273.08 412.56,-268.5 420.75,-263.21 438.99,-251.44 438.42,-241.84 456.75,-230.21 458.6,-229.04 460.51,-227.9 462.47,-226.8"/>
<polygon fill="#63b8ff" stroke="#63b8ff" points="463.9,-230 471.18,-222.31 460.69,-223.78 463.9,-230"/>
</a>
</g>
</g>
<!-- Node5 -->
<g id="Node000005" class="node">
<title>Node5</title>
<g id="a_Node000005"><a xlink:href="_async_t_c_p_8cpp.html#ab053d5adb5be879f37181af512213bb6" target="_top" xlink:title=" ">
<polygon fill="#fff0f0" stroke="red" points="566.5,-335.21 471,-335.21 471,-315.21 566.5,-315.21 566.5,-335.21"/>
<text xml:space="preserve" text-anchor="middle" x="518.75" y="-321.71" font-family="Helvetica,sans-Serif" font-size="10.00">_tcp_clear_events</text>
</a>
</g>
</g>
<!-- Node3&#45;&gt;Node5 -->
<g id="edge4_Node000003_Node000005" class="edge">
<title>Node3&#45;&gt;Node5</title>
<g id="a_edge4_Node000003_Node000005"><a xlink:title=" ">
<path fill="none" stroke="#63b8ff" d="M406.87,-297.69C424.7,-302.12 445.65,-307.32 464.51,-312"/>
<polygon fill="#63b8ff" stroke="#63b8ff" points="463.62,-315.38 474.17,-314.4 465.31,-308.59 463.62,-315.38"/>
</a>
</g>
</g>
<!-- Node7 -->
<g id="Node000007" class="node">
<title>Node7</title>
<g id="a_Node000007"><a xlink:href="_async_t_c_p_8cpp.html#a3602c1ebfae2fb2ff64a0e3d7b0568ce" target="_top" xlink:title=" ">
<polygon fill="#fff0f0" stroke="red" points="550.38,-297.21 487.12,-297.21 487.12,-277.21 550.38,-277.21 550.38,-297.21"/>
<text xml:space="preserve" text-anchor="middle" x="518.75" y="-283.71" font-family="Helvetica,sans-Serif" font-size="10.00">_tcp_close</text>
</a>
</g>
</g>
<!-- Node3&#45;&gt;Node7 -->
<g id="edge5_Node000003_Node000007" class="edge">
<title>Node3&#45;&gt;Node7</title>
<g id="a_edge5_Node000003_Node000007"><a xlink:title=" ">
<path fill="none" stroke="#63b8ff" d="M415.61,-287.21C435.12,-287.21 457.12,-287.21 475.7,-287.21"/>
<polygon fill="#63b8ff" stroke="#63b8ff" points="475.55,-290.71 485.55,-287.21 475.55,-283.71 475.55,-290.71"/>
</a>
</g>
</g>
<!-- Node9 -->
<g id="Node000009" class="node">
<title>Node9</title>
<g id="a_Node000009"><a xlink:href="class_async_client.html#a09e777ff005d8e0f81166e704dc14979" target="_top" xlink:title=" ">
<polygon fill="#fff0f0" stroke="red" points="567.25,-259.21 470.25,-259.21 470.25,-239.21 567.25,-239.21 567.25,-259.21"/>
<text xml:space="preserve" text-anchor="middle" x="518.75" y="-245.71" font-family="Helvetica,sans-Serif" font-size="10.00">AsyncClient::abort</text>
</a>
</g>
</g>
<!-- Node3&#45;&gt;Node9 -->
<g id="edge6_Node000003_Node000009" class="edge">
<title>Node3&#45;&gt;Node9</title>
<g id="a_edge6_Node000003_Node000009"><a xlink:title=" ">
<path fill="none" stroke="#63b8ff" d="M406.87,-276.73C424.7,-272.3 445.65,-267.1 464.51,-262.42"/>
<polygon fill="#63b8ff" stroke="#63b8ff" points="465.31,-265.83 474.17,-260.02 463.62,-259.04 465.31,-265.83"/>
</a>
</g>
</g>
<!-- Node13&#45;&gt;Node3 -->
<g id="edge10_Node000013_Node000003" class="edge">
<title>Node13&#45;&gt;Node3</title>
<g id="a_edge10_Node000013_Node000003"><a xlink:title=" ">
<path fill="none" stroke="#63b8ff" d="M214.02,-161.54C228.59,-183.09 264.99,-233.27 306.5,-263.21 311.11,-266.53 316.25,-269.52 321.5,-272.16"/>
<polygon fill="#63b8ff" stroke="#63b8ff" points="319.69,-275.18 330.23,-276.18 322.61,-268.82 319.69,-275.18"/>
</a>
</g>
</g>
<!-- Node13&#45;&gt;Node12 -->
<g id="edge22_Node000013_Node000012" class="edge">
<title>Node13&#45;&gt;Node12</title>
<g id="a_edge22_Node000013_Node000012"><a xlink:title=" ">
<path fill="none" stroke="#63b8ff" d="M211.62,-141.04C222.96,-116.12 256,-52.35 306.5,-28.21 418.22,25.2 569.99,-38.5 632.52,-69.8"/>
<polygon fill="#63b8ff" stroke="#63b8ff" points="630.61,-72.75 641.1,-74.19 633.79,-66.52 630.61,-72.75"/>
</a>
</g>
</g>
<!-- Node14 -->
<g id="Node000014" class="node">
<title>Node14</title>
<g id="a_Node000014"><a xlink:href="class_async_client.html#ab0422e5254ea4fbac9f87188a018ebc4" target="_top" xlink:title=" ">
<polygon fill="white" stroke="#666666" points="420.75,-145.21 306.5,-145.21 306.5,-113.21 420.75,-113.21 420.75,-145.21"/>
<text xml:space="preserve" text-anchor="start" x="314.5" y="-131.71" font-family="Helvetica,sans-Serif" font-size="10.00">AsyncClient::_allocate</text>
<text xml:space="preserve" text-anchor="middle" x="363.62" y="-119.71" font-family="Helvetica,sans-Serif" font-size="10.00">_closed_slot</text>
</a>
</g>
</g>
<!-- Node13&#45;&gt;Node14 -->
<g id="edge9_Node000013_Node000014" class="edge">
<title>Node13&#45;&gt;Node14</title>
<g id="a_edge9_Node000013_Node000014"><a xlink:title=" ">
<path fill="none" stroke="#63b8ff" d="M270.9,-142.2C278.87,-141.07 287.05,-139.91 295.08,-138.77"/>
<polygon fill="#63b8ff" stroke="#63b8ff" points="295.39,-142.27 304.8,-137.4 294.41,-135.33 295.39,-142.27"/>
</a>
</g>
</g>
<!-- Node15 -->
<g id="Node000015" class="node">
<title>Node15</title>
<g id="a_Node000015"><a xlink:href="_async_t_c_p_8cpp.html#a61ff9f7f886bbbbcdc1daca453828934" target="_top" xlink:title=" ">
<polygon fill="white" stroke="#666666" points="393.38,-95.21 333.88,-95.21 333.88,-75.21 393.38,-75.21 393.38,-95.21"/>
<text xml:space="preserve" text-anchor="middle" x="363.62" y="-81.71" font-family="Helvetica,sans-Serif" font-size="10.00">_tcp_error</text>
</a>
</g>
</g>
<!-- Node13&#45;&gt;Node15 -->
<g id="edge11_Node000013_Node000015" class="edge">
<title>Node13&#45;&gt;Node15</title>
<g id="a_edge11_Node000013_Node000015"><a xlink:title=" ">
<path fill="none" stroke="#63b8ff" d="M227.47,-140.79C247.31,-130.76 278.57,-115.51 306.5,-104.21 311.79,-102.07 317.42,-99.97 323,-97.98"/>
<polygon fill="#63b8ff" stroke="#63b8ff" points="323.81,-101.41 332.12,-94.83 321.52,-94.79 323.81,-101.41"/>
</a>
</g>
</g>
<!-- Node17 -->
<g id="Node000017" class="node">
<title>Node17</title>
<g id="a_Node000017"><a xlink:href="_async_t_c_p_8cpp.html#ad4b2c6c935c211eef5884f25a950e445" target="_top" xlink:title=" ">
<polygon fill="white" stroke="#666666" points="391.12,-57.21 336.12,-57.21 336.12,-37.21 391.12,-37.21 391.12,-57.21"/>
<text xml:space="preserve" text-anchor="middle" x="363.62" y="-43.71" font-family="Helvetica,sans-Serif" font-size="10.00">_tcp_poll</text>
</a>
</g>
</g>
<!-- Node13&#45;&gt;Node17 -->
<g id="edge13_Node000013_Node000017" class="edge">
<title>Node13&#45;&gt;Node17</title>
<g id="a_edge13_Node000013_Node000017"><a xlink:title=" ">
<path fill="none" stroke="#63b8ff" d="M216.69,-140.87C233.28,-123.26 269.43,-87.3 306.5,-66.21 312.29,-62.92 318.73,-60.08 325.13,-57.67"/>
<polygon fill="#63b8ff" stroke="#63b8ff" points="326,-61.07 334.32,-54.51 323.72,-54.45 326,-61.07"/>
</a>
</g>
</g>
<!-- Node18 -->
<g id="Node000018" class="node">
<title>Node18</title>
<g id="a_Node000018"><a xlink:href="_async_t_c_p_8cpp.html#adf7826424bf5b1035c4850f6b3307686" target="_top" xlink:title=" ">
<polygon fill="white" stroke="#666666" points="393,-221.21 334.25,-221.21 334.25,-201.21 393,-201.21 393,-221.21"/>
<text xml:space="preserve" text-anchor="middle" x="363.62" y="-207.71" font-family="Helvetica,sans-Serif" font-size="10.00">_tcp_recv</text>
</a>
</g>
</g>
<!-- Node13&#45;&gt;Node18 -->
<g id="edge15_Node000013_Node000018" class="edge">
<title>Node13&#45;&gt;Node18</title>
<g id="a_edge15_Node000013_Node000018"><a xlink:title=" ">
<path fill="none" stroke="#63b8ff" d="M231.14,-161.59C251.14,-170.16 280.49,-182.45 306.5,-192.21 311.9,-194.24 317.63,-196.29 323.28,-198.25"/>
<polygon fill="#63b8ff" stroke="#63b8ff" points="321.92,-201.49 332.51,-201.41 324.18,-194.86 321.92,-201.49"/>
</a>
</g>
</g>
<!-- Node21 -->
<g id="Node000021" class="node">
<title>Node21</title>
<g id="a_Node000021"><a xlink:href="_async_t_c_p_8cpp.html#a0b47280aff638ec9b80f7a87dfe54ea6" target="_top" xlink:title=" ">
<polygon fill="white" stroke="#666666" points="393,-183.21 334.25,-183.21 334.25,-163.21 393,-163.21 393,-183.21"/>
<text xml:space="preserve" text-anchor="middle" x="363.62" y="-169.71" font-family="Helvetica,sans-Serif" font-size="10.00">_tcp_sent</text>
</a>
</g>
</g>
<!-- Node13&#45;&gt;Node21 -->
<g id="edge20_Node000013_Node000021" class="edge">
<title>Node13&#45;&gt;Node21</title>
<g id="a_edge20_Node000013_Node000021"><a xlink:title=" ">
<path fill="none" stroke="#63b8ff" d="M270.9,-160.22C288.56,-162.72 307.24,-165.37 323.09,-167.61"/>
<polygon fill="#63b8ff" stroke="#63b8ff" points="322.19,-171.02 332.58,-168.96 323.17,-164.09 322.19,-171.02"/>
</a>
</g>
</g>
<!-- Node16 -->
<g id="Node000016" class="node">
<title>Node16</title>
<g id="a_Node000016"><a xlink:href="_async_t_c_p_8cpp.html#a796c13746a84a6b2e7370ddbec97ad5b" target="_top" xlink:title=" ">
<polygon fill="white" stroke="#666666" points="570.25,-114.21 467.25,-114.21 467.25,-94.21 570.25,-94.21 570.25,-114.21"/>
<text xml:space="preserve" text-anchor="middle" x="518.75" y="-100.71" font-family="Helvetica,sans-Serif" font-size="10.00">_send_async_event</text>
</a>
</g>
</g>
<!-- Node15&#45;&gt;Node16 -->
<g id="edge12_Node000015_Node000016" class="edge">
<title>Node15&#45;&gt;Node16</title>
<g id="a_edge12_Node000015_Node000016"><a xlink:title=" ">
<path fill="none" stroke="#63b8ff" d="M393.79,-88.83C411.29,-91 434.25,-93.85 455.64,-96.5"/>
<polygon fill="#63b8ff" stroke="#63b8ff" points="455.13,-99.97 465.48,-97.73 455.99,-93.02 455.13,-99.97"/>
</a>
</g>
</g>
<!-- Node17&#45;&gt;Node16 -->
<g id="edge14_Node000017_Node000016" class="edge">
<title>Node17&#45;&gt;Node16</title>
<g id="a_edge14_Node000017_Node000016"><a xlink:title=" ">
<path fill="none" stroke="#63b8ff" d="M391.55,-56.04C400.83,-59.16 411.28,-62.75 420.75,-66.21 440.87,-73.55 463.13,-82.23 481.25,-89.44"/>
<polygon fill="#63b8ff" stroke="#63b8ff" points="479.95,-92.69 490.53,-93.16 482.55,-86.19 479.95,-92.69"/>
</a>
</g>
</g>
<!-- Node18&#45;&gt;Node16 -->
<g id="edge19_Node000018_Node000016" class="edge">
<title>Node18&#45;&gt;Node16</title>
<g id="a_edge19_Node000018_Node000016"><a xlink:title=" ">
<path fill="none" stroke="#63b8ff" d="M393.4,-205.19C402.72,-202.31 412.73,-198.14 420.75,-192.21 442.77,-175.93 436.75,-160.91 456.75,-142.21 465.7,-133.84 476.77,-126.29 487.01,-120.18"/>
<polygon fill="#63b8ff" stroke="#63b8ff" points="488.59,-123.3 495.55,-115.31 485.13,-117.22 488.59,-123.3"/>
</a>
</g>
</g>
<!-- Node19 -->
<g id="Node000019" class="node">
<title>Node19</title>
<g id="a_Node000019"><a xlink:href="class_async_client.html#a485b2be0c01d3172928c0ed9655edc2f" target="_top" xlink:title=" ">
<polygon fill="#fff0f0" stroke="red" points="580.75,-171.21 456.75,-171.21 456.75,-151.21 580.75,-151.21 580.75,-171.21"/>
<text xml:space="preserve" text-anchor="middle" x="518.75" y="-157.71" font-family="Helvetica,sans-Serif" font-size="10.00">AsyncClient::_s_lwip_fin</text>
</a>
</g>
</g>
<!-- Node18&#45;&gt;Node19 -->
<g id="edge16_Node000018_Node000019" class="edge">
<title>Node18&#45;&gt;Node19</title>
<g id="a_edge16_Node000018_Node000019"><a xlink:title=" ">
<path fill="none" stroke="#63b8ff" d="M393.19,-201.52C415.54,-193.95 444.79,-184.08 456.75,-180.21 462.09,-178.48 467.7,-176.69 473.26,-174.94"/>
<polygon fill="#63b8ff" stroke="#63b8ff" points="473.89,-178.41 482.38,-172.08 471.79,-171.73 473.89,-178.41"/>
</a>
</g>
</g>
<!-- Node19&#45;&gt;Node12 -->
<g id="edge18_Node000019_Node000012" class="edge">
<title>Node19&#45;&gt;Node12</title>
<g id="a_edge18_Node000019_Node000012"><a xlink:title=" ">
<path fill="none" stroke="#63b8ff" d="M539.13,-150.8C563.16,-137.9 604.33,-115.78 632.16,-100.84"/>
<polygon fill="#63b8ff" stroke="#63b8ff" points="633.62,-104.02 640.77,-96.21 630.31,-97.86 633.62,-104.02"/>
</a>
</g>
</g>
<!-- Node19&#45;&gt;Node13 -->
<g id="edge17_Node000019_Node000013" class="edge">
<title>Node19&#45;&gt;Node13</title>
<g id="a_edge17_Node000019_Node000013"><a xlink:title=" ">
<path fill="none" stroke="#63b8ff" d="M472.51,-171.62C466.93,-173.95 461.52,-176.77 456.75,-180.21 434.53,-196.22 445.12,-217.73 420.75,-230.21 375.56,-253.36 354.44,-246.96 306.5,-230.21 272.4,-218.3 241.25,-189.22 223.27,-169.86"/>
<polygon fill="#63b8ff" stroke="#63b8ff" points="226.06,-167.73 216.77,-162.63 220.85,-172.41 226.06,-167.73"/>
</a>
</g>
</g>
<!-- Node21&#45;&gt;Node16 -->
<g id="edge21_Node000021_Node000016" class="edge">
<title>Node21&#45;&gt;Node16</title>
<g id="a_edge21_Node000021_Node000016"><a xlink:title=" ">
<path fill="none" stroke="#63b8ff" d="M393.49,-164.36C402.34,-161.4 412.04,-157.91 420.75,-154.21 444.59,-144.1 470.63,-130.53 489.72,-120.08"/>
<polygon fill="#63b8ff" stroke="#63b8ff" points="491.17,-123.27 498.22,-115.37 487.78,-117.15 491.17,-123.27"/>
</a>
</g>
</g>
</g>
</svg>
