<?xml version="1.0" encoding="UTF-8" standalone="no"?>
<!DOCTYPE svg PUBLIC "-//W3C//DTD SVG 1.1//EN"
 "http://www.w3.org/Graphics/SVG/1.1/DTD/svg11.dtd">
<!-- Generated by graphviz version 14.1.2 (20260124.0452)
 -->
<!-- Title: AuthSync::hashUid Pages: 1 -->
<svg width="500pt" height="47pt"
 viewBox="0.00 0.00 500.00 47.00" xmlns="http://www.w3.org/2000/svg" xmlns:xlink="http://www.w3.org/1999/xlink">
<g id="graph0" class="graph" transform="scale(1 1) rotate(0) translate(4 43)">
<title>AuthSync::hashUid</title>
<!-- Node1 -->
<g id="Node000001" class="node">
<title>Node1</title>
<g id="a_Node000001"><a xlink:title=" ">
<polygon fill="#999999" stroke="#666666" points="492.25,-20 391.5,-20 391.5,0 492.25,0 492.25,-20"/>
<text xml:space="preserve" text-anchor="middle" x="441.88" y="-6.5" font-family="Helvetica,sans-Serif" font-size="10.00">AuthSync::hashUid</text>
</a>
</g>
</g>
<!-- Node2 -->
<g id="Node000002" class="node">
<title>Node2</title>
<g id="a_Node000002"><a xlink:href="class_auth_sync.html#a4e7f7720c3b9e51ceb1ab4d911f03e23" target="_top" xlink:title=" ">
<polygon fill="white" stroke="#666666" points="355.5,-39 224.75,-39 224.75,-19 355.5,-19 355.5,-39"/>
<text xml:space="preserve" text-anchor="middle" x="290.12" y="-25.5" font-family="Helvetica,sans-Serif" font-size="10.00">AuthSync::addKnownAuth</text>
</a>
</g>
</g>
<!-- Node1&#45;&gt;Node2 -->
<g id="edge1_Node000001_Node000002" class="edge">
<title>Node1&#45;&gt;Node2</title>
<g id="a_edge1_Node000001_Node000002"><a xlink:title=" ">
<path fill="none" stroke="#63b8ff" d="M379.72,-17.76C371.89,-18.75 363.85,-19.77 355.96,-20.77"/>
<polygon fill="#63b8ff" stroke="#63b8ff" points="380.03,-21.25 389.51,-16.52 379.15,-14.3 380.03,-21.25"/>
</a>
</g>
</g>
<!-- Node3 -->
<g id="Node000003" class="node">
<title>Node3</title>
<g id="a_Node000003"><a xlink:href="class_auth_sync.html#aeb16a776532ee69ba1ca44b11904a2c2" target="_top" xlink:title=" ">
<polygon fill="white" stroke="#666666" points="188.75,-20 70,-20 70,0 188.75,0 188.75,-20"/>
<text xml:space="preserve" text-anchor="middle" x="129.38" y="-6.5" font-family="Helvetica,sans-Serif" font-size="10.00">AuthSync::isAuthorized</text>
</a>
</g>
</g>
<!-- Node1&#45;&gt;Node3 -->
<g id="edge4_Node000001_Node000003" class="edge">
<title>Node1&#45;&gt;Node3</title>
<g id="a_edge4_Node000001_Node000003"><a xlink:title=" ">
<path fill="none" stroke="#63b8ff" d="M379.94,-10C324.62,-10 243.59,-10 189.01,-10"/>
<polygon fill="#63b8ff" stroke="#63b8ff" points="379.82,-13.5 389.82,-10 379.82,-6.5 379.82,-13.5"/>
</a>
</g>
</g>
<!-- Node2&#45;&gt;Node3 -->
<g id="edge2_Node000002_Node000003" class="edge">
<title>Node2&#45;&gt;Node3</title>
<g id="a_edge2_Node000002_Node000003"><a xlink:title=" ">
<path fill="none" stroke="#63b8ff" d="M213.15,-19.91C205.04,-18.94 196.88,-17.96 189.01,-17.02"/>
<polygon fill="#63b8ff" stroke="#63b8ff" points="212.71,-23.38 223.05,-21.09 213.54,-16.43 212.71,-23.38"/>
</a>
</g>
</g>
<!-- Node4 -->
<g id="Node000004" class="node">
<title>Node4</title>
<g id="a_Node000004"><a xlink:href="main_8cpp.html#afe461d27b9c48d5921c00d521181f12f" target="_top" xlink:title=" ">
<polygon fill="white" stroke="#666666" points="34,-20 0,-20 0,0 34,0 34,-20"/>
<text xml:space="preserve" text-anchor="middle" x="17" y="-6.5" font-family="Helvetica,sans-Serif" font-size="10.00">loop</text>
</a>
</g>
</g>
<!-- Node3&#45;&gt;Node4 -->
<g id="edge3_Node000003_Node000004" class="edge">
<title>Node3&#45;&gt;Node4</title>
<g id="a_edge3_Node000003_Node000004"><a xlink:title=" ">
<path fill="none" stroke="#63b8ff" d="M58.22,-10C49.39,-10 41.11,-10 34.38,-10"/>
<polygon fill="#63b8ff" stroke="#63b8ff" points="58.12,-13.5 68.12,-10 58.12,-6.5 58.12,-13.5"/>
</a>
</g>
</g>
</g>
</svg>
