<?xml version="1.0" encoding="UTF-8" standalone="no"?>
<!DOCTYPE svg PUBLIC "-//W3C//DTD SVG 1.1//EN"
 "http://www.w3.org/Graphics/SVG/1.1/DTD/svg11.dtd">
<!-- Generated by graphviz version 14.1.2 (20260124.0452)
 -->
<!-- Title: AsyncClient::write Pages: 1 -->
<svg width="495pt" height="104pt"
 viewBox="0.00 0.00 495.00 104.00" xmlns="http://www.w3.org/2000/svg" xmlns:xlink="http://www.w3.org/1999/xlink">
<g id="graph0" class="graph" transform="scale(1 1) rotate(0) translate(4 100)">
<title>AsyncClient::write</title>
<!-- Node1 -->
<g id="Node000001" class="node">
<title>Node1</title>
<g id="a_Node000001"><a xlink:title="add and enqueue data for sending">
<polygon fill="#999999" stroke="#666666" points="96.25,-39 0,-39 0,-19 96.25,-19 96.25,-39"/>
<text xml:space="preserve" text-anchor="middle" x="48.12" y="-25.5" font-family="Helvetica,sans-Serif" font-size="10.00">AsyncClient::write</text>
</a>
</g>
</g>
<!-- Node2 -->
<g id="Node000002" class="node">
<title>Node2</title>
<g id="a_Node000002"><a xlink:href="class_async_client.html#af4b403851a81a5bf272a0e4a46796044" target="_top" xlink:title="add data to be send (but do not send yet)">
<polygon fill="white" stroke="#666666" points="225.88,-58 134.88,-58 134.88,-38 225.88,-38 225.88,-58"/>
<text xml:space="preserve" text-anchor="middle" x="180.38" y="-44.5" font-family="Helvetica,sans-Serif" font-size="10.00">AsyncClient::add</text>
</a>
</g>
</g>
<!-- Node1&#45;&gt;Node2 -->
<g id="edge1_Node000001_Node000002" class="edge">
<title>Node1&#45;&gt;Node2</title>
<g id="a_edge1_Node000001_Node000002"><a xlink:title=" ">
<path fill="none" stroke="#63b8ff" d="M96.52,-35.91C105.21,-37.18 114.36,-38.52 123.28,-39.82"/>
<polygon fill="#63b8ff" stroke="#63b8ff" points="122.51,-43.24 132.91,-41.22 123.52,-36.31 122.51,-43.24"/>
</a>
</g>
</g>
<!-- Node6 -->
<g id="Node000006" class="node">
<title>Node6</title>
<g id="a_Node000006"><a xlink:href="class_async_client.html#aa2d6f5a753f8928469e0fd1b01116e61" target="_top" xlink:title="send data previously add()&#39;ed">
<polygon fill="white" stroke="#666666" points="228.5,-20 132.25,-20 132.25,0 228.5,0 228.5,-20"/>
<text xml:space="preserve" text-anchor="middle" x="180.38" y="-6.5" font-family="Helvetica,sans-Serif" font-size="10.00">AsyncClient::send</text>
</a>
</g>
</g>
<!-- Node1&#45;&gt;Node6 -->
<g id="edge5_Node000001_Node000006" class="edge">
<title>Node1&#45;&gt;Node6</title>
<g id="a_edge5_Node000001_Node000006"><a xlink:title=" ">
<path fill="none" stroke="#63b8ff" d="M96.52,-22.09C104.33,-20.95 112.51,-19.75 120.56,-18.58"/>
<polygon fill="#63b8ff" stroke="#63b8ff" points="120.91,-22.07 130.3,-17.16 119.9,-15.14 120.91,-22.07"/>
</a>
</g>
</g>
<!-- Node3 -->
<g id="Node000003" class="node">
<title>Node3</title>
<g id="a_Node000003"><a xlink:href="_async_t_c_p_8cpp.html#a139d659560ae3b41b186955258551e53" target="_top" xlink:title=" ">
<polygon fill="white" stroke="#666666" points="345.75,-96 284.75,-96 284.75,-76 345.75,-76 345.75,-96"/>
<text xml:space="preserve" text-anchor="middle" x="315.25" y="-82.5" font-family="Helvetica,sans-Serif" font-size="10.00">_tcp_write</text>
</a>
</g>
</g>
<!-- Node2&#45;&gt;Node3 -->
<g id="edge2_Node000002_Node000003" class="edge">
<title>Node2&#45;&gt;Node3</title>
<g id="a_edge2_Node000002_Node000003"><a xlink:title=" ">
<path fill="none" stroke="#63b8ff" d="M218.04,-58.48C235.26,-63.41 255.84,-69.3 273.55,-74.36"/>
<polygon fill="#63b8ff" stroke="#63b8ff" points="272.39,-77.67 282.96,-77.05 274.31,-70.94 272.39,-77.67"/>
</a>
</g>
</g>
<!-- Node5 -->
<g id="Node000005" class="node">
<title>Node5</title>
<g id="a_Node000005"><a xlink:href="class_async_client.html#a039b989cd1e955709e8b90567045fdbb" target="_top" xlink:title=" ">
<polygon fill="white" stroke="#666666" points="366,-58 264.5,-58 264.5,-38 366,-38 366,-58"/>
<text xml:space="preserve" text-anchor="middle" x="315.25" y="-44.5" font-family="Helvetica,sans-Serif" font-size="10.00">AsyncClient::space</text>
</a>
</g>
</g>
<!-- Node2&#45;&gt;Node5 -->
<g id="edge4_Node000002_Node000005" class="edge">
<title>Node2&#45;&gt;Node5</title>
<g id="a_edge4_Node000002_Node000005"><a xlink:title=" ">
<path fill="none" stroke="#63b8ff" d="M226.36,-48C234.94,-48 244.05,-48 253.03,-48"/>
<polygon fill="#63b8ff" stroke="#63b8ff" points="252.77,-51.5 262.77,-48 252.77,-44.5 252.77,-51.5"/>
</a>
</g>
</g>
<!-- Node4 -->
<g id="Node000004" class="node">
<title>Node4</title>
<g id="a_Node000004"><a xlink:href="_async_t_c_p_8cpp.html#af7ec69a9a2424dded82f025dfc754fe5" target="_top" xlink:title=" ">
<polygon fill="white" stroke="#666666" points="484,-96 405,-96 405,-76 484,-76 484,-96"/>
<text xml:space="preserve" text-anchor="middle" x="444.5" y="-82.5" font-family="Helvetica,sans-Serif" font-size="10.00">_tcp_write_api</text>
</a>
</g>
</g>
<!-- Node3&#45;&gt;Node4 -->
<g id="edge3_Node000003_Node000004" class="edge">
<title>Node3&#45;&gt;Node4</title>
<g id="a_edge3_Node000003_Node000004"><a xlink:title=" ">
<path fill="none" stroke="#63b8ff" d="M346.08,-86C360.15,-86 377.33,-86 393.31,-86"/>
<polygon fill="#63b8ff" stroke="#63b8ff" points="393.17,-89.5 403.17,-86 393.17,-82.5 393.17,-89.5"/>
</a>
</g>
</g>
<!-- Node7 -->
<g id="Node000007" class="node">
<title>Node7</title>
<g id="a_Node000007"><a xlink:href="_async_t_c_p_8cpp.html#a32a44c4db7c9b6ee6a58167d8e2e5210" target="_top" xlink:title=" ">
<polygon fill="white" stroke="#666666" points="348.75,-20 281.75,-20 281.75,0 348.75,0 348.75,-20"/>
<text xml:space="preserve" text-anchor="middle" x="315.25" y="-6.5" font-family="Helvetica,sans-Serif" font-size="10.00">_tcp_output</text>
</a>
</g>
</g>
<!-- Node6&#45;&gt;Node7 -->
<g id="edge6_Node000006_Node000007" class="edge">
<title>Node6&#45;&gt;Node7</title>
<g id="a_edge6_Node000006_Node000007"><a xlink:title=" ">
<path fill="none" stroke="#63b8ff" d="M228.97,-10C242.45,-10 257.05,-10 270.3,-10"/>
<polygon fill="#63b8ff" stroke="#63b8ff" points="270.03,-13.5 280.03,-10 270.03,-6.5 270.03,-13.5"/>
</a>
</g>
</g>
<!-- Node8 -->
<g id="Node000008" class="node">
<title>Node8</title>
<g id="a_Node000008"><a xlink:href="_async_t_c_p_8cpp.html#a0ff01c08c6ab13d1532d782b33aec0df" target="_top" xlink:title=" ">
<polygon fill="white" stroke="#666666" points="487,-20 402,-20 402,0 487,0 487,-20"/>
<text xml:space="preserve" text-anchor="middle" x="444.5" y="-6.5" font-family="Helvetica,sans-Serif" font-size="10.00">_tcp_output_api</text>
</a>
</g>
</g>
<!-- Node7&#45;&gt;Node8 -->
<g id="edge7_Node000007_Node000008" class="edge">
<title>Node7&#45;&gt;Node8</title>
<g id="a_edge7_Node000007_Node000008"><a xlink:title=" ">
<path fill="none" stroke="#63b8ff" d="M349.02,-10C361.69,-10 376.51,-10 390.6,-10"/>
<polygon fill="#63b8ff" stroke="#63b8ff" points="390.19,-13.5 400.19,-10 390.19,-6.5 390.19,-13.5"/>
</a>
</g>
</g>
</g>
</svg>
