<?xml version="1.0" encoding="UTF-8" standalone="no"?>
<!DOCTYPE svg PUBLIC "-//W3C//DTD SVG 1.1//EN"
 "http://www.w3.org/Graphics/SVG/1.1/DTD/svg11.dtd">
<!-- Generated by graphviz version 14.1.2 (20260124.0452)
 -->
<!-- Title: AsyncClient::_free_closed_slot Pages: 1 -->
<!--zoomable 256 -->

<svg id="main" version="1.1" xmlns="http://www.w3.org/2000/svg" xmlns:xlink="http://www.w3.org/1999/xlink" xml:space="preserve" onload="init(evt)">

<style type="text/css"><![CDATA[
.node, .edge {opacity: 0.7;}
.node.selected, .edge.selected {opacity: 1;}
.edge:hover path { stroke: red; }
.edge:hover polygon { stroke: red; fill: red; }
]]></style>

<defs>
  <circle id="rim" cx="0" cy="0" r="7"/>
  <circle id="rim2" cx="0" cy="0" r="3.5"/>
  <g id="zoomPlus">
    <use xlink:href="#rim" fill="#404040"><set attributeName="fill" to="#808080" begin="zoomplus.mouseover" end="zoomplus.mouseout"/></use>
    <path d="M-4,0h8M0,-4v8" fill="none" stroke="white" stroke-width="1.5" pointer-events="none"/>
  </g>
  <g id="zoomMin">
    <use xlink:href="#rim" fill="#404040"><set attributeName="fill" to="#808080" begin="zoomminus.mouseover" end="zoomminus.mouseout"/></use>
    <path d="M-4,0h8" fill="none" stroke="white" stroke-width="1.5" pointer-events="none"/>
  </g>
  <g id="arrowUp" transform="translate(30 24)">
    <use xlink:href="#rim"/>
    <path pointer-events="none" fill="none" stroke="white" stroke-width="1.5" d="M0,-3.0v7 M-2.5,-0.5L0,-3.0L2.5,-0.5"/>
  </g>
  <g id="arrowRight" transform="rotate(90) translate(36 -43)">
    <use xlink:href="#rim"/>
    <path pointer-events="none" fill="none" stroke="white" stroke-width="1.5" d="M0,-3.0v7 M-2.5,-0.5L0,-3.0L2.5,-0.5"/>
  </g>
  <g id="arrowDown" transform="rotate(180) translate(-30 -48)">
    <use xlink:href="#rim"/>
    <path pointer-events="none" fill="none" stroke="white" stroke-width="1.5" d="M0,-3.0v7 M-2.5,-0.5L0,-3.0L2.5,-0.5"/>
  </g>
  <g id="arrowLeft" transform="rotate(270) translate(-36 17)">
    <use xlink:href="#rim"/>
    <path pointer-events="none" fill="none" stroke="white" stroke-width="1.5" d="M0,-3.0v7 M-2.5,-0.5L0,-3.0L2.5,-0.5"/>
  </g>
  <g id="resetDef">
    <use xlink:href="#rim2" fill="#404040"><set attributeName="fill" to="#808080" begin="reset.mouseover" end="reset.mouseout"/></use>
  </g>
</defs>
<script type="application/ecmascript">
var viewWidth = 885;
var viewHeight = 256;
var sectionId = 'dynsection-16';
</script>
<script type="application/ecmascript" xlink:href="svg.min.js"/>
<svg id="graph" class="graph">
<g id="viewport">
<title>AsyncClient::_free_closed_slot</title>
<!-- Node1 -->
<g id="Node000001" class="node">
<title>Node1</title>
<g id="a_Node000001"><a xlink:title=" ">
<polygon fill="#999999" stroke="#666666" points="876.75,-83 779.75,-83 779.75,-51 876.75,-51 876.75,-83"/>
<text xml:space="preserve" text-anchor="start" x="787.75" y="-69.5" font-family="Helvetica,sans-Serif" font-size="10.00">AsyncClient::_free</text>
<text xml:space="preserve" text-anchor="middle" x="828.25" y="-57.5" font-family="Helvetica,sans-Serif" font-size="10.00">_closed_slot</text>
</a>
</g>
</g>
<!-- Node2 -->
<g id="Node000002" class="node">
<title>Node2</title>
<g id="a_Node000002"><a xlink:href="class_async_client.html#a98ff872bc84919f006f3bb8a249ed36d" target="_top" xlink:title=" ">
<polygon fill="white" stroke="#666666" points="738.88,-115 635.12,-115 635.12,-95 738.88,-95 738.88,-115"/>
<text xml:space="preserve" text-anchor="middle" x="687" y="-101.5" font-family="Helvetica,sans-Serif" font-size="10.00">AsyncClient::_close</text>
</a>
</g>
</g>
<!-- Node1&#45;&gt;Node2 -->
<g id="edge1_Node000001_Node000002" class="edge">
<title>Node1&#45;&gt;Node2</title>
<g id="a_edge1_Node000001_Node000002"><a xlink:title=" ">
<path fill="none" stroke="#63b8ff" d="M768.58,-83.01C754.3,-86.91 739.4,-90.97 726.34,-94.54"/>
<polygon fill="#63b8ff" stroke="#63b8ff" points="769.14,-86.49 777.87,-80.48 767.3,-79.73 769.14,-86.49"/>
</a>
</g>
</g>
<!-- Node21 -->
<g id="Node000021" class="node">
<title>Node21</title>
<g id="a_Node000021"><a xlink:href="class_async_client.html#a4044bdcfd2ca6197f75200644685c5f0" target="_top" xlink:title=" ">
<polygon fill="white" stroke="#666666" points="594.25,-58 459.75,-58 459.75,-38 594.25,-38 594.25,-58"/>
<text xml:space="preserve" text-anchor="middle" x="527" y="-44.5" font-family="Helvetica,sans-Serif" font-size="10.00">AsyncClient::~AsyncClient</text>
</a>
</g>
</g>
<!-- Node1&#45;&gt;Node21 -->
<g id="edge20_Node000001_Node000021" class="edge">
<title>Node1&#45;&gt;Node21</title>
<g id="a_edge20_Node000001_Node000021"><a xlink:title=" ">
<path fill="none" stroke="#63b8ff" d="M768.23,-63.25C718.22,-60.08 646.55,-55.53 594.52,-52.22"/>
<polygon fill="#63b8ff" stroke="#63b8ff" points="767.79,-66.73 777.99,-63.87 768.23,-59.75 767.79,-66.73"/>
</a>
</g>
</g>
<!-- Node22 -->
<g id="Node000022" class="node">
<title>Node22</title>
<g id="a_Node000022"><a xlink:href="class_async_client.html#a5145b1cfe1a49ba9a066eee404013835" target="_top" xlink:title=" ">
<polygon fill="white" stroke="#666666" points="737,-200 637,-200 637,-180 737,-180 737,-200"/>
<text xml:space="preserve" text-anchor="middle" x="687" y="-186.5" font-family="Helvetica,sans-Serif" font-size="10.00">AsyncClient::_error</text>
</a>
</g>
</g>
<!-- Node1&#45;&gt;Node22 -->
<g id="edge12_Node000001_Node000022" class="edge">
<title>Node1&#45;&gt;Node22</title>
<g id="a_edge12_Node000001_Node000022"><a xlink:title=" ">
<path fill="none" stroke="#63b8ff" d="M800.3,-90.81C769.84,-117.71 721.64,-160.29 699.64,-179.72"/>
<polygon fill="#63b8ff" stroke="#63b8ff" points="802.45,-93.58 807.62,-84.34 797.81,-88.33 802.45,-93.58"/>
</a>
</g>
</g>
<!-- Node24 -->
<g id="Node000024" class="node">
<title>Node24</title>
<g id="a_Node000024"><a xlink:href="class_async_client.html#a32dfd5b9ec97903e2f59871f17b85ff4" target="_top" xlink:title=" ">
<polygon fill="white" stroke="#666666" points="743.75,-20 630.25,-20 630.25,0 743.75,0 743.75,-20"/>
<text xml:space="preserve" text-anchor="middle" x="687" y="-6.5" font-family="Helvetica,sans-Serif" font-size="10.00">AsyncClient::_lwip_fin</text>
</a>
</g>
</g>
<!-- Node1&#45;&gt;Node24 -->
<g id="edge15_Node000001_Node000024" class="edge">
<title>Node1&#45;&gt;Node24</title>
<g id="a_edge15_Node000001_Node000024"><a xlink:title=" ">
<path fill="none" stroke="#63b8ff" d="M776.36,-46.17C754.89,-37.38 730.86,-27.55 713.29,-20.35"/>
<polygon fill="#63b8ff" stroke="#63b8ff" points="774.99,-49.39 785.57,-49.94 777.64,-42.91 774.99,-49.39"/>
</a>
</g>
</g>
<!-- Node3 -->
<g id="Node000003" class="node">
<title>Node3</title>
<g id="a_Node000003"><a xlink:href="class_async_client.html#a383d1cb7d684d328362caa5eafc92ca2" target="_top" xlink:title=" ">
<polygon fill="white" stroke="#666666" points="574.75,-210 479.25,-210 479.25,-190 574.75,-190 574.75,-210"/>
<text xml:space="preserve" text-anchor="middle" x="527" y="-196.5" font-family="Helvetica,sans-Serif" font-size="10.00">AsyncClient::_poll</text>
</a>
</g>
</g>
<!-- Node2&#45;&gt;Node3 -->
<g id="edge2_Node000002_Node000003" class="edge">
<title>Node2&#45;&gt;Node3</title>
<g id="a_edge2_Node000002_Node000003"><a xlink:title=" ">
<path fill="none" stroke="#63b8ff" d="M668.23,-123.61C650.86,-140.79 622.91,-165.88 594.25,-181 587.9,-184.35 580.89,-187.17 573.87,-189.53"/>
<polygon fill="#63b8ff" stroke="#63b8ff" points="670.7,-126.09 675.23,-116.52 665.72,-121.17 670.7,-126.09"/>
</a>
</g>
</g>
<!-- Node14 -->
<g id="Node000014" class="node">
<title>Node14</title>
<g id="a_Node000014"><a xlink:href="class_async_client.html#aefecfa0c75c8c1b32104115e93739087" target="_top" xlink:title=" ">
<polygon fill="white" stroke="#666666" points="277.25,-125 148.75,-125 148.75,-105 277.25,-105 277.25,-125"/>
<text xml:space="preserve" text-anchor="middle" x="213" y="-111.5" font-family="Helvetica,sans-Serif" font-size="10.00">AsyncClient::AsyncClient</text>
</a>
</g>
</g>
<!-- Node2&#45;&gt;Node14 -->
<g id="edge5_Node000002_Node000014" class="edge">
<title>Node2&#45;&gt;Node14</title>
<g id="a_edge5_Node000002_Node000014"><a xlink:title=" ">
<path fill="none" stroke="#63b8ff" d="M623.65,-106.32C533.62,-108.23 368.1,-111.74 277.45,-113.66"/>
<polygon fill="#63b8ff" stroke="#63b8ff" points="623.6,-109.82 633.53,-106.11 623.45,-102.82 623.6,-109.82"/>
</a>
</g>
</g>
<!-- Node17 -->
<g id="Node000017" class="node">
<title>Node17</title>
<g id="a_Node000017"><a xlink:href="class_async_client.html#a0305fe0b036257c03829ceaa5cc43361" target="_top" xlink:title="close connection">
<polygon fill="white" stroke="#666666" points="576.25,-172 477.75,-172 477.75,-152 576.25,-152 576.25,-172"/>
<text xml:space="preserve" text-anchor="middle" x="527" y="-158.5" font-family="Helvetica,sans-Serif" font-size="10.00">AsyncClient::close</text>
</a>
</g>
</g>
<!-- Node2&#45;&gt;Node17 -->
<g id="edge8_Node000002_Node000017" class="edge">
<title>Node2&#45;&gt;Node17</title>
<g id="a_edge8_Node000002_Node000017"><a xlink:title=" ">
<path fill="none" stroke="#63b8ff" d="M646.47,-119.26C618.7,-129.28 582.18,-142.46 557.06,-151.52"/>
<polygon fill="#63b8ff" stroke="#63b8ff" points="647.38,-122.65 655.6,-115.97 645,-116.07 647.38,-122.65"/>
</a>
</g>
</g>
<!-- Node20 -->
<g id="Node000020" class="node">
<title>Node20</title>
<g id="a_Node000020"><a xlink:href="class_async_client.html#a575c12664279634155259e007c6a104f" target="_top" xlink:title=" ">
<polygon fill="white" stroke="#666666" points="271.25,-68 154.75,-68 154.75,-48 271.25,-48 271.25,-68"/>
<text xml:space="preserve" text-anchor="middle" x="213" y="-54.5" font-family="Helvetica,sans-Serif" font-size="10.00">AsyncClient::operator=</text>
</a>
</g>
</g>
<!-- Node2&#45;&gt;Node20 -->
<g id="edge10_Node000002_Node000020" class="edge">
<title>Node2&#45;&gt;Node20</title>
<g id="a_edge10_Node000002_Node000020"><a xlink:title=" ">
<path fill="none" stroke="#63b8ff" d="M623.68,-94.16C570.68,-85.37 492.45,-73.44 423.75,-67 372.4,-62.19 313.73,-59.95 271.53,-58.9"/>
<polygon fill="#63b8ff" stroke="#63b8ff" points="622.99,-97.59 633.43,-95.79 624.15,-90.69 622.99,-97.59"/>
</a>
</g>
</g>
<!-- Node2&#45;&gt;Node21 -->
<g id="edge11_Node000002_Node000021" class="edge">
<title>Node2&#45;&gt;Node21</title>
<g id="a_edge11_Node000002_Node000021"><a xlink:title=" ">
<path fill="none" stroke="#63b8ff" d="M646.47,-90.74C618.7,-80.72 582.18,-67.54 557.06,-58.48"/>
<polygon fill="#63b8ff" stroke="#63b8ff" points="645,-93.93 655.6,-94.03 647.38,-87.35 645,-93.93"/>
</a>
</g>
</g>
<!-- Node4 -->
<g id="Node000004" class="node">
<title>Node4</title>
<g id="a_Node000004"><a xlink:href="class_async_client.html#abe187c005c73fe6c0c94e1b3b20b55de" target="_top" xlink:title=" ">
<polygon fill="white" stroke="#666666" points="421.5,-210 315.5,-210 315.5,-190 421.5,-190 421.5,-210"/>
<text xml:space="preserve" text-anchor="middle" x="368.5" y="-196.5" font-family="Helvetica,sans-Serif" font-size="10.00">AsyncClient::_s_poll</text>
</a>
</g>
</g>
<!-- Node3&#45;&gt;Node4 -->
<g id="edge3_Node000003_Node000004" class="edge">
<title>Node3&#45;&gt;Node4</title>
<g id="a_edge3_Node000003_Node000004"><a xlink:title=" ">
<path fill="none" stroke="#63b8ff" d="M467.78,-200C452.74,-200 436.63,-200 421.9,-200"/>
<polygon fill="#63b8ff" stroke="#63b8ff" points="467.53,-203.5 477.53,-200 467.53,-196.5 467.53,-203.5"/>
</a>
</g>
</g>
<!-- Node5 -->
<g id="Node000005" class="node">
<title>Node5</title>
<g id="a_Node000005"><a xlink:href="_async_t_c_p_8cpp.html#ac4030e968c0e4c0fcbe7a9b4502854c1" target="_top" xlink:title=" ">
<polygon fill="#fff0f0" stroke="red" points="268.25,-229 157.75,-229 157.75,-209 268.25,-209 268.25,-229"/>
<text xml:space="preserve" text-anchor="middle" x="213" y="-215.5" font-family="Helvetica,sans-Serif" font-size="10.00">_handle_async_event</text>
</a>
</g>
</g>
<!-- Node4&#45;&gt;Node5 -->
<g id="edge4_Node000004_Node000005" class="edge">
<title>Node4&#45;&gt;Node5</title>
<g id="a_edge4_Node000004_Node000005"><a xlink:title=" ">
<path fill="none" stroke="#63b8ff" d="M303.98,-207.86C292.2,-209.32 279.99,-210.83 268.51,-212.25"/>
<polygon fill="#63b8ff" stroke="#63b8ff" points="304.11,-211.37 313.6,-206.67 303.25,-204.43 304.11,-211.37"/>
</a>
</g>
</g>
<!-- Node14&#45;&gt;Node14 -->
<g id="edge7_Node000014_Node000014" class="edge">
<title>Node14&#45;&gt;Node14</title>
<g id="a_edge7_Node000014_Node000014"><a xlink:title=" ">
<path fill="none" stroke="#63b8ff" d="M240.48,-136.44C236.94,-140.3 227.78,-143 213,-143 185.97,-143 177.73,-133.98 188.29,-125.34"/>
<polygon fill="#63b8ff" stroke="#63b8ff" points="243.9,-135.66 238.07,-126.81 237.1,-137.36 243.9,-135.66"/>
</a>
</g>
</g>
<!-- Node15 -->
<g id="Node000015" class="node">
<title>Node15</title>
<g id="a_Node000015"><a xlink:href="class_async_server.html#a51e55999b79eec50bd68e899b8ddd4e4" target="_top" xlink:title=" ">
<polygon fill="#fff0f0" stroke="red" points="112.75,-125 0,-125 0,-105 112.75,-105 112.75,-125"/>
<text xml:space="preserve" text-anchor="middle" x="56.38" y="-111.5" font-family="Helvetica,sans-Serif" font-size="10.00">AsyncServer::_accept</text>
</a>
</g>
</g>
<!-- Node14&#45;&gt;Node15 -->
<g id="edge6_Node000014_Node000015" class="edge">
<title>Node14&#45;&gt;Node15</title>
<g id="a_edge6_Node000014_Node000015"><a xlink:title=" ">
<path fill="none" stroke="#63b8ff" d="M137.18,-115C129.01,-115 120.81,-115 112.94,-115"/>
<polygon fill="#63b8ff" stroke="#63b8ff" points="137.15,-118.5 147.15,-115 137.15,-111.5 137.15,-118.5"/>
</a>
</g>
</g>
<!-- Node18 -->
<g id="Node000018" class="node">
<title>Node18</title>
<g id="a_Node000018"><a xlink:href="class_async_client.html#a4bed4e925817d1b918af2ce43fb0859e" target="_top" xlink:title=" ">
<polygon fill="#fff0f0" stroke="red" points="415.5,-172 321.5,-172 321.5,-152 415.5,-152 415.5,-172"/>
<text xml:space="preserve" text-anchor="middle" x="368.5" y="-158.5" font-family="Helvetica,sans-Serif" font-size="10.00">AsyncClient::stop</text>
</a>
</g>
</g>
<!-- Node17&#45;&gt;Node18 -->
<g id="edge9_Node000017_Node000018" class="edge">
<title>Node17&#45;&gt;Node18</title>
<g id="a_edge9_Node000017_Node000018"><a xlink:title=" ">
<path fill="none" stroke="#63b8ff" d="M466.07,-162C449.47,-162 431.7,-162 415.99,-162"/>
<polygon fill="#63b8ff" stroke="#63b8ff" points="465.83,-165.5 475.83,-162 465.83,-158.5 465.83,-165.5"/>
</a>
</g>
</g>
<!-- Node23 -->
<g id="Node000023" class="node">
<title>Node23</title>
<g id="a_Node000023"><a xlink:href="class_async_client.html#a9ff634e3b1237eab65178b007326367e" target="_top" xlink:title=" ">
<polygon fill="white" stroke="#666666" points="423.75,-248 313.25,-248 313.25,-228 423.75,-228 423.75,-248"/>
<text xml:space="preserve" text-anchor="middle" x="368.5" y="-234.5" font-family="Helvetica,sans-Serif" font-size="10.00">AsyncClient::_s_error</text>
</a>
</g>
</g>
<!-- Node22&#45;&gt;Node23 -->
<g id="edge13_Node000022_Node000023" class="edge">
<title>Node22&#45;&gt;Node23</title>
<g id="a_edge13_Node000022_Node000023"><a xlink:title=" ">
<path fill="none" stroke="#63b8ff" d="M647.96,-204.11C631.64,-209.61 612.23,-215.45 594.25,-219 536.82,-230.36 469.82,-234.93 424.01,-236.77"/>
<polygon fill="#63b8ff" stroke="#63b8ff" points="648.98,-207.46 657.28,-200.88 646.69,-200.84 648.98,-207.46"/>
</a>
</g>
</g>
<!-- Node23&#45;&gt;Node5 -->
<g id="edge14_Node000023_Node000005" class="edge">
<title>Node23&#45;&gt;Node5</title>
<g id="a_edge14_Node000023_Node000005"><a xlink:title=" ">
<path fill="none" stroke="#63b8ff" d="M301.63,-229.85C290.63,-228.48 279.32,-227.08 268.63,-225.76"/>
<polygon fill="#63b8ff" stroke="#63b8ff" points="301.09,-233.31 311.45,-231.06 301.95,-226.36 301.09,-233.31"/>
</a>
</g>
</g>
<!-- Node25 -->
<g id="Node000025" class="node">
<title>Node25</title>
<g id="a_Node000025"><a xlink:href="class_async_client.html#a485b2be0c01d3172928c0ed9655edc2f" target="_top" xlink:title=" ">
<polygon fill="white" stroke="#666666" points="589,-20 465,-20 465,0 589,0 589,-20"/>
<text xml:space="preserve" text-anchor="middle" x="527" y="-6.5" font-family="Helvetica,sans-Serif" font-size="10.00">AsyncClient::_s_lwip_fin</text>
</a>
</g>
</g>
<!-- Node24&#45;&gt;Node25 -->
<g id="edge16_Node000024_Node000025" class="edge">
<title>Node24&#45;&gt;Node25</title>
<g id="a_edge16_Node000024_Node000025"><a xlink:title=" ">
<path fill="none" stroke="#63b8ff" d="M618.59,-10C608.88,-10 598.92,-10 589.33,-10"/>
<polygon fill="#63b8ff" stroke="#63b8ff" points="618.34,-13.5 628.34,-10 618.34,-6.5 618.34,-13.5"/>
</a>
</g>
</g>
<!-- Node26 -->
<g id="Node000026" class="node">
<title>Node26</title>
<g id="a_Node000026"><a xlink:href="_async_t_c_p_8cpp.html#adf7826424bf5b1035c4850f6b3307686" target="_top" xlink:title=" ">
<polygon fill="#fff0f0" stroke="red" points="397.88,-96 339.12,-96 339.12,-76 397.88,-76 397.88,-96"/>
<text xml:space="preserve" text-anchor="middle" x="368.5" y="-82.5" font-family="Helvetica,sans-Serif" font-size="10.00">_tcp_recv</text>
</a>
</g>
</g>
<!-- Node25&#45;&gt;Node26 -->
<g id="edge17_Node000025_Node000026" class="edge">
<title>Node25&#45;&gt;Node26</title>
<g id="a_edge17_Node000025_Node000026"><a xlink:title=" ">
<path fill="none" stroke="#63b8ff" d="M472.25,-23.99C467.96,-25.54 463.75,-27.21 459.75,-29 430.83,-41.96 400.28,-63.04 383.18,-75.61"/>
<polygon fill="#63b8ff" stroke="#63b8ff" points="473.14,-27.39 481.52,-20.9 470.92,-20.75 473.14,-27.39"/>
</a>
</g>
</g>
<!-- Node26&#45;&gt;Node14 -->
<g id="edge18_Node000026_Node000014" class="edge">
<title>Node26&#45;&gt;Node14</title>
<g id="a_edge18_Node000026_Node000014"><a xlink:title=" ">
<path fill="none" stroke="#63b8ff" d="M327.54,-93.55C309.82,-96.9 288.68,-100.89 269.47,-104.52"/>
<polygon fill="#63b8ff" stroke="#63b8ff" points="327.96,-97.03 337.14,-91.74 326.66,-90.15 327.96,-97.03"/>
</a>
</g>
</g>
<!-- Node26&#45;&gt;Node20 -->
<g id="edge19_Node000026_Node000020" class="edge">
<title>Node26&#45;&gt;Node20</title>
<g id="a_edge19_Node000026_Node000020"><a xlink:title=" ">
<path fill="none" stroke="#63b8ff" d="M327.35,-78.68C310.26,-75.56 289.99,-71.86 271.36,-68.46"/>
<polygon fill="#63b8ff" stroke="#63b8ff" points="326.67,-82.11 337.14,-80.46 327.93,-75.22 326.67,-82.11"/>
</a>
</g>
</g>
</g>
</svg>

<g id="navigator" transform="translate(0 0)" fill="#404254">
  <rect fill="#f2f5e9" fill-opacity="0.5" stroke="#606060" stroke-width=".5" x="0" y="0" width="60" height="60"/>
  <use id="zoomplus" xlink:href="#zoomPlus" x="17" y="9" onmousedown="handleZoom(evt,'in')"/>
  <use id="zoomminus" xlink:href="#zoomMin" x="42" y="9" onmousedown="handleZoom(evt,'out')"/>
  <use id="reset" xlink:href="#resetDef" x="30" y="36" onmousedown="handleReset()"/>
   <use id="arrowup" xlink:href="#arrowUp" x="0" y="0" onmousedown="handlePan(0,-1)"/>
  <use id="arrowright" xlink:href="#arrowRight" x="0" y="0" onmousedown="handlePan(1,0)"/>
  <use id="arrowdown" xlink:href="#arrowDown" x="0" y="0" onmousedown="handlePan(0,1)"/>
  <use id="arrowleft" xlink:href="#arrowLeft" x="0" y="0" onmousedown="handlePan(-1,0)"/>
</g>
<svg viewBox="0 0 15 15" width="100%" height="30px" preserveAspectRatio="xMaxYMin meet">
 <g id="arrow_out" transform="scale(0.3 0.3)">
  <a xlink:href="class_async_client_aff6a2fbf261b25e1fcd35c11cce348a5_icgraph_org.svg" target="_base">
   <rect id="button" ry="5" rx="5" y="6" x="6" height="38" width="38"
        fill="#f2f5e9" fill-opacity="0.5" stroke="#606060" stroke-width="1.0"/>
   <path id="arrow"
     d="M 11.500037,31.436501 C 11.940474,20.09759 22.043105,11.32322 32.158766,21.979434 L 37.068811,17.246167 C 37.068811,17.246167 37.088388,32 37.088388,32 L 22.160133,31.978069 C 22.160133,31.978069 26.997745,27.140456 26.997745,27.140456 C 18.528582,18.264221 13.291696,25.230495 11.500037,31.436501 z"
     style="fill:#404040;"/>
  </a>
 </g>
</svg>

<style type='text/css'>
<![CDATA[
[data-mouse-over-selected='false'] { opacity: 0.7; }
[data-mouse-over-selected='true']  { opacity: 1.0; }
]]>
</style>
<script type="application/ecmascript"><![CDATA[
document.addEventListener('DOMContentLoaded', (event) => {
  highlightEdges();
  highlightAdjacentNodes();
});
]]></script>
</svg>
