<?xml version="1.0" encoding="UTF-8" standalone="no"?>
<!DOCTYPE svg PUBLIC "-//W3C//DTD SVG 1.1//EN"
 "http://www.w3.org/Graphics/SVG/1.1/DTD/svg11.dtd">
<!-- Generated by graphviz version 14.1.2 (20260124.0452)
 -->
<!-- Title: AsyncClient::_s_connected Pages: 1 -->
<svg width="746pt" height="368pt"
 viewBox="0.00 0.00 746.00 368.00" xmlns="http://www.w3.org/2000/svg" xmlns:xlink="http://www.w3.org/1999/xlink">
<g id="graph0" class="graph" transform="scale(1 1) rotate(0) translate(4 363.99)">
<title>AsyncClient::_s_connected</title>
<!-- Node1 -->
<g id="Node000001" class="node">
<title>Node1</title>
<g id="a_Node000001"><a xlink:title=" ">
<polygon fill="#999999" stroke="#666666" points="136,-321.99 0,-321.99 0,-301.99 136,-301.99 136,-321.99"/>
<text xml:space="preserve" text-anchor="middle" x="68" y="-308.49" font-family="Helvetica,sans-Serif" font-size="10.00">AsyncClient::_s_connected</text>
</a>
</g>
</g>
<!-- Node2 -->
<g id="Node000002" class="node">
<title>Node2</title>
<g id="a_Node000002"><a xlink:href="class_async_client.html#a045a3529852917ea1d4dfff5d9c3ba90" target="_top" xlink:title=" ">
<polygon fill="white" stroke="#666666" points="299,-359.99 173.5,-359.99 173.5,-339.99 299,-339.99 299,-359.99"/>
<text xml:space="preserve" text-anchor="middle" x="236.25" y="-346.49" font-family="Helvetica,sans-Serif" font-size="10.00">AsyncClient::_connected</text>
</a>
</g>
</g>
<!-- Node1&#45;&gt;Node2 -->
<g id="edge1_Node000001_Node000002" class="edge">
<title>Node1&#45;&gt;Node2</title>
<g id="a_edge1_Node000001_Node000002"><a xlink:title=" ">
<path fill="none" stroke="#63b8ff" d="M114.87,-322.48C134.49,-326.96 157.61,-332.24 178.31,-336.98"/>
<polygon fill="#63b8ff" stroke="#63b8ff" points="177.53,-340.39 188.06,-339.2 179.09,-333.56 177.53,-340.39"/>
</a>
</g>
</g>
<!-- Node3 -->
<g id="Node000003" class="node">
<title>Node3</title>
<g id="a_Node000003"><a xlink:href="class_async_client.html#ac0c28dd08517243bc6d64d32f982a3cc" target="_top" xlink:title=" ">
<polygon fill="white" stroke="#666666" points="737.75,-302.99 646.75,-302.99 646.75,-282.99 737.75,-282.99 737.75,-302.99"/>
<text xml:space="preserve" text-anchor="middle" x="692.25" y="-289.49" font-family="Helvetica,sans-Serif" font-size="10.00">AsyncClient::pcb</text>
</a>
</g>
</g>
<!-- Node1&#45;&gt;Node3 -->
<g id="edge22_Node000001_Node000003" class="edge">
<title>Node1&#45;&gt;Node3</title>
<g id="a_edge22_Node000001_Node000003"><a xlink:title=" ">
<path fill="none" stroke="#63b8ff" d="M136.17,-311.04C238.59,-309.4 439.92,-305.5 610.75,-297.99 618.64,-297.64 626.96,-297.21 635.15,-296.74"/>
<polygon fill="#63b8ff" stroke="#63b8ff" points="635.27,-300.24 645.05,-296.15 634.85,-293.25 635.27,-300.24"/>
</a>
</g>
</g>
<!-- Node4 -->
<g id="Node000004" class="node">
<title>Node4</title>
<g id="a_Node000004"><a xlink:href="class_async_client.html#aefecfa0c75c8c1b32104115e93739087" target="_top" xlink:title=" ">
<polygon fill="white" stroke="#666666" points="300.5,-157.99 172,-157.99 172,-137.99 300.5,-137.99 300.5,-157.99"/>
<text xml:space="preserve" text-anchor="middle" x="236.25" y="-144.49" font-family="Helvetica,sans-Serif" font-size="10.00">AsyncClient::AsyncClient</text>
</a>
</g>
</g>
<!-- Node1&#45;&gt;Node4 -->
<g id="edge3_Node000001_Node000004" class="edge">
<title>Node1&#45;&gt;Node4</title>
<g id="a_edge3_Node000001_Node000004"><a xlink:title=" ">
<path fill="none" stroke="#63b8ff" d="M79.4,-301.73C106.92,-274.58 181.95,-200.57 216.89,-166.1"/>
<polygon fill="#63b8ff" stroke="#63b8ff" points="219.12,-168.82 223.78,-159.31 214.2,-163.84 219.12,-168.82"/>
</a>
</g>
</g>
<!-- Node2&#45;&gt;Node3 -->
<g id="edge2_Node000002_Node000003" class="edge">
<title>Node2&#45;&gt;Node3</title>
<g id="a_edge2_Node000002_Node000003"><a xlink:title=" ">
<path fill="none" stroke="#63b8ff" d="M299.27,-352.09C374.11,-353.24 503.27,-350.77 610.75,-325.99 627.92,-322.03 646.16,-314.83 660.93,-308.16"/>
<polygon fill="#63b8ff" stroke="#63b8ff" points="662.06,-311.49 669.64,-304.09 659.1,-305.15 662.06,-311.49"/>
</a>
</g>
</g>
<!-- Node4&#45;&gt;Node3 -->
<g id="edge21_Node000004_Node000003" class="edge">
<title>Node4&#45;&gt;Node3</title>
<g id="a_edge21_Node000004_Node000003"><a xlink:title=" ">
<path fill="none" stroke="#63b8ff" d="M243.12,-158.18C256.46,-180.27 291.43,-232.39 336.5,-254.99 387.45,-280.54 548.49,-288.99 635,-291.73"/>
<polygon fill="#63b8ff" stroke="#63b8ff" points="634.82,-295.22 644.92,-292.02 635.03,-288.23 634.82,-295.22"/>
</a>
</g>
</g>
<!-- Node5 -->
<g id="Node000005" class="node">
<title>Node5</title>
<g id="a_Node000005"><a xlink:href="class_async_client.html#ab0422e5254ea4fbac9f87188a018ebc4" target="_top" xlink:title=" ">
<polygon fill="white" stroke="#666666" points="450.75,-245.99 336.5,-245.99 336.5,-213.99 450.75,-213.99 450.75,-245.99"/>
<text xml:space="preserve" text-anchor="start" x="344.5" y="-232.49" font-family="Helvetica,sans-Serif" font-size="10.00">AsyncClient::_allocate</text>
<text xml:space="preserve" text-anchor="middle" x="393.62" y="-220.49" font-family="Helvetica,sans-Serif" font-size="10.00">_closed_slot</text>
</a>
</g>
</g>
<!-- Node4&#45;&gt;Node5 -->
<g id="edge4_Node000004_Node000005" class="edge">
<title>Node4&#45;&gt;Node5</title>
<g id="a_edge4_Node000004_Node000005"><a xlink:title=" ">
<path fill="none" stroke="#63b8ff" d="M254.17,-158.42C273.69,-170.28 306.92,-189.96 336.5,-204.99 339,-206.26 341.57,-207.53 344.18,-208.79"/>
<polygon fill="#63b8ff" stroke="#63b8ff" points="342.43,-211.83 352.97,-212.92 345.41,-205.5 342.43,-211.83"/>
</a>
</g>
</g>
<!-- Node6 -->
<g id="Node000006" class="node">
<title>Node6</title>
<g id="a_Node000006"><a xlink:href="class_async_client.html#a98ff872bc84919f006f3bb8a249ed36d" target="_top" xlink:title=" ">
<polygon fill="white" stroke="#666666" points="445.5,-195.99 341.75,-195.99 341.75,-175.99 445.5,-175.99 445.5,-195.99"/>
<text xml:space="preserve" text-anchor="middle" x="393.62" y="-182.49" font-family="Helvetica,sans-Serif" font-size="10.00">AsyncClient::_close</text>
</a>
</g>
</g>
<!-- Node4&#45;&gt;Node6 -->
<g id="edge5_Node000004_Node000006" class="edge">
<title>Node4&#45;&gt;Node6</title>
<g id="a_edge5_Node000004_Node000006"><a xlink:title=" ">
<path fill="none" stroke="#63b8ff" d="M280.12,-158.48C298.29,-162.92 319.67,-168.15 338.88,-172.85"/>
<polygon fill="#63b8ff" stroke="#63b8ff" points="337.88,-176.21 348.43,-175.18 339.54,-169.41 337.88,-176.21"/>
</a>
</g>
</g>
<!-- Node15 -->
<g id="Node000015" class="node">
<title>Node15</title>
<g id="a_Node000015"><a xlink:href="_async_t_c_p_8cpp.html#a61ff9f7f886bbbbcdc1daca453828934" target="_top" xlink:title=" ">
<polygon fill="white" stroke="#666666" points="423.38,-157.99 363.88,-157.99 363.88,-137.99 423.38,-137.99 423.38,-157.99"/>
<text xml:space="preserve" text-anchor="middle" x="393.62" y="-144.49" font-family="Helvetica,sans-Serif" font-size="10.00">_tcp_error</text>
</a>
</g>
</g>
<!-- Node4&#45;&gt;Node15 -->
<g id="edge10_Node000004_Node000015" class="edge">
<title>Node4&#45;&gt;Node15</title>
<g id="a_edge10_Node000004_Node000015"><a xlink:title=" ">
<path fill="none" stroke="#63b8ff" d="M300.9,-147.99C318.26,-147.99 336.59,-147.99 352.26,-147.99"/>
<polygon fill="#63b8ff" stroke="#63b8ff" points="352.16,-151.49 362.16,-147.99 352.16,-144.49 352.16,-151.49"/>
</a>
</g>
</g>
<!-- Node17 -->
<g id="Node000017" class="node">
<title>Node17</title>
<g id="a_Node000017"><a xlink:href="_async_t_c_p_8cpp.html#ad4b2c6c935c211eef5884f25a950e445" target="_top" xlink:title=" ">
<polygon fill="white" stroke="#666666" points="421.12,-119.99 366.12,-119.99 366.12,-99.99 421.12,-99.99 421.12,-119.99"/>
<text xml:space="preserve" text-anchor="middle" x="393.62" y="-106.49" font-family="Helvetica,sans-Serif" font-size="10.00">_tcp_poll</text>
</a>
</g>
</g>
<!-- Node4&#45;&gt;Node17 -->
<g id="edge12_Node000004_Node000017" class="edge">
<title>Node4&#45;&gt;Node17</title>
<g id="a_edge12_Node000004_Node000017"><a xlink:title=" ">
<path fill="none" stroke="#63b8ff" d="M280.12,-137.51C303.52,-131.78 332.25,-124.76 354.81,-119.24"/>
<polygon fill="#63b8ff" stroke="#63b8ff" points="355.64,-122.64 364.52,-116.86 353.98,-115.84 355.64,-122.64"/>
</a>
</g>
</g>
<!-- Node18 -->
<g id="Node000018" class="node">
<title>Node18</title>
<g id="a_Node000018"><a xlink:href="_async_t_c_p_8cpp.html#adf7826424bf5b1035c4850f6b3307686" target="_top" xlink:title=" ">
<polygon fill="white" stroke="#666666" points="423,-43.99 364.25,-43.99 364.25,-23.99 423,-23.99 423,-43.99"/>
<text xml:space="preserve" text-anchor="middle" x="393.62" y="-30.49" font-family="Helvetica,sans-Serif" font-size="10.00">_tcp_recv</text>
</a>
</g>
</g>
<!-- Node4&#45;&gt;Node18 -->
<g id="edge14_Node000004_Node000018" class="edge">
<title>Node4&#45;&gt;Node18</title>
<g id="a_edge14_Node000004_Node000018"><a xlink:title=" ">
<path fill="none" stroke="#63b8ff" d="M245.41,-137.6C261.09,-118.3 297.34,-76.73 336.5,-52.99 341.72,-49.82 347.54,-47.1 353.4,-44.8"/>
<polygon fill="#63b8ff" stroke="#63b8ff" points="354.19,-48.23 362.44,-41.58 351.85,-41.63 354.19,-48.23"/>
</a>
</g>
</g>
<!-- Node21 -->
<g id="Node000021" class="node">
<title>Node21</title>
<g id="a_Node000021"><a xlink:href="_async_t_c_p_8cpp.html#a0b47280aff638ec9b80f7a87dfe54ea6" target="_top" xlink:title=" ">
<polygon fill="white" stroke="#666666" points="423,-81.99 364.25,-81.99 364.25,-61.99 423,-61.99 423,-81.99"/>
<text xml:space="preserve" text-anchor="middle" x="393.62" y="-68.49" font-family="Helvetica,sans-Serif" font-size="10.00">_tcp_sent</text>
</a>
</g>
</g>
<!-- Node4&#45;&gt;Node21 -->
<g id="edge19_Node000004_Node000021" class="edge">
<title>Node4&#45;&gt;Node21</title>
<g id="a_edge19_Node000004_Node000021"><a xlink:title=" ">
<path fill="none" stroke="#63b8ff" d="M253.24,-137.5C272.44,-125.22 305.89,-104.8 336.5,-90.99 341.81,-88.59 347.53,-86.33 353.2,-84.25"/>
<polygon fill="#63b8ff" stroke="#63b8ff" points="354.22,-87.6 362.52,-81 351.92,-80.99 354.22,-87.6"/>
</a>
</g>
</g>
<!-- Node7 -->
<g id="Node000007" class="node">
<title>Node7</title>
<g id="a_Node000007"><a xlink:href="class_async_client.html#aff6a2fbf261b25e1fcd35c11cce348a5" target="_top" xlink:title=" ">
<polygon fill="white" stroke="#666666" points="597.25,-245.99 500.25,-245.99 500.25,-213.99 597.25,-213.99 597.25,-245.99"/>
<text xml:space="preserve" text-anchor="start" x="508.25" y="-232.49" font-family="Helvetica,sans-Serif" font-size="10.00">AsyncClient::_free</text>
<text xml:space="preserve" text-anchor="middle" x="548.75" y="-220.49" font-family="Helvetica,sans-Serif" font-size="10.00">_closed_slot</text>
</a>
</g>
</g>
<!-- Node6&#45;&gt;Node7 -->
<g id="edge6_Node000006_Node000007" class="edge">
<title>Node6&#45;&gt;Node7</title>
<g id="a_edge6_Node000006_Node000007"><a xlink:title=" ">
<path fill="none" stroke="#63b8ff" d="M430.91,-196.42C448.22,-201.39 469.36,-207.47 488.88,-213.08"/>
<polygon fill="#63b8ff" stroke="#63b8ff" points="487.8,-216.41 498.38,-215.81 489.74,-209.68 487.8,-216.41"/>
</a>
</g>
</g>
<!-- Node8 -->
<g id="Node000008" class="node">
<title>Node8</title>
<g id="a_Node000008"><a xlink:href="_async_t_c_p_8cpp.html#ab053d5adb5be879f37181af512213bb6" target="_top" xlink:title=" ">
<polygon fill="#fff0f0" stroke="red" points="596.5,-195.99 501,-195.99 501,-175.99 596.5,-175.99 596.5,-195.99"/>
<text xml:space="preserve" text-anchor="middle" x="548.75" y="-182.49" font-family="Helvetica,sans-Serif" font-size="10.00">_tcp_clear_events</text>
</a>
</g>
</g>
<!-- Node6&#45;&gt;Node8 -->
<g id="edge7_Node000006_Node000008" class="edge">
<title>Node6&#45;&gt;Node8</title>
<g id="a_edge7_Node000006_Node000008"><a xlink:title=" ">
<path fill="none" stroke="#63b8ff" d="M445.61,-185.99C459.62,-185.99 474.91,-185.99 489.3,-185.99"/>
<polygon fill="#63b8ff" stroke="#63b8ff" points="489.09,-189.49 499.09,-185.99 489.09,-182.49 489.09,-189.49"/>
</a>
</g>
</g>
<!-- Node10 -->
<g id="Node000010" class="node">
<title>Node10</title>
<g id="a_Node000010"><a xlink:href="_async_t_c_p_8cpp.html#a3602c1ebfae2fb2ff64a0e3d7b0568ce" target="_top" xlink:title=" ">
<polygon fill="#fff0f0" stroke="red" points="580.38,-157.99 517.12,-157.99 517.12,-137.99 580.38,-137.99 580.38,-157.99"/>
<text xml:space="preserve" text-anchor="middle" x="548.75" y="-144.49" font-family="Helvetica,sans-Serif" font-size="10.00">_tcp_close</text>
</a>
</g>
</g>
<!-- Node6&#45;&gt;Node10 -->
<g id="edge8_Node000006_Node000010" class="edge">
<title>Node6&#45;&gt;Node10</title>
<g id="a_edge8_Node000006_Node000010"><a xlink:title=" ">
<path fill="none" stroke="#63b8ff" d="M436.87,-175.51C458.33,-170.18 484.33,-163.73 505.75,-158.41"/>
<polygon fill="#63b8ff" stroke="#63b8ff" points="506.48,-161.84 515.34,-156.03 504.79,-155.05 506.48,-161.84"/>
</a>
</g>
</g>
<!-- Node12 -->
<g id="Node000012" class="node">
<title>Node12</title>
<g id="a_Node000012"><a xlink:href="class_async_client.html#a09e777ff005d8e0f81166e704dc14979" target="_top" xlink:title=" ">
<polygon fill="#fff0f0" stroke="red" points="597.25,-119.99 500.25,-119.99 500.25,-99.99 597.25,-99.99 597.25,-119.99"/>
<text xml:space="preserve" text-anchor="middle" x="548.75" y="-106.49" font-family="Helvetica,sans-Serif" font-size="10.00">AsyncClient::abort</text>
</a>
</g>
</g>
<!-- Node6&#45;&gt;Node12 -->
<g id="edge9_Node000006_Node000012" class="edge">
<title>Node6&#45;&gt;Node12</title>
<g id="a_edge9_Node000006_Node000012"><a xlink:title=" ">
<path fill="none" stroke="#63b8ff" d="M433.51,-175.6C439.51,-173.22 445.46,-170.37 450.75,-166.99 470.34,-154.45 467,-141.29 486.75,-128.99 489.05,-127.56 491.47,-126.22 493.97,-124.98"/>
<polygon fill="#63b8ff" stroke="#63b8ff" points="495.35,-128.2 503.14,-121 492.57,-121.77 495.35,-128.2"/>
</a>
</g>
</g>
<!-- Node16 -->
<g id="Node000016" class="node">
<title>Node16</title>
<g id="a_Node000016"><a xlink:href="_async_t_c_p_8cpp.html#a796c13746a84a6b2e7370ddbec97ad5b" target="_top" xlink:title=" ">
<polygon fill="white" stroke="#666666" points="600.25,-81.99 497.25,-81.99 497.25,-61.99 600.25,-61.99 600.25,-81.99"/>
<text xml:space="preserve" text-anchor="middle" x="548.75" y="-68.49" font-family="Helvetica,sans-Serif" font-size="10.00">_send_async_event</text>
</a>
</g>
</g>
<!-- Node15&#45;&gt;Node16 -->
<g id="edge11_Node000015_Node000016" class="edge">
<title>Node15&#45;&gt;Node16</title>
<g id="a_edge11_Node000015_Node000016"><a xlink:title=" ">
<path fill="none" stroke="#63b8ff" d="M423.82,-141.06C432.88,-138.15 442.61,-134.2 450.75,-128.99 470.34,-116.45 467,-103.29 486.75,-90.99 489.05,-89.56 491.47,-88.22 493.97,-86.98"/>
<polygon fill="#63b8ff" stroke="#63b8ff" points="495.35,-90.2 503.14,-83 492.57,-83.77 495.35,-90.2"/>
</a>
</g>
</g>
<!-- Node17&#45;&gt;Node16 -->
<g id="edge13_Node000017_Node000016" class="edge">
<title>Node17&#45;&gt;Node16</title>
<g id="a_edge13_Node000017_Node000016"><a xlink:title=" ">
<path fill="none" stroke="#63b8ff" d="M421.3,-103.37C441.43,-98.37 469.73,-91.35 494.45,-85.22"/>
<polygon fill="#63b8ff" stroke="#63b8ff" points="495.18,-88.64 504.04,-82.84 493.49,-81.85 495.18,-88.64"/>
</a>
</g>
</g>
<!-- Node18&#45;&gt;Node16 -->
<g id="edge18_Node000018_Node000016" class="edge">
<title>Node18&#45;&gt;Node16</title>
<g id="a_edge18_Node000018_Node000016"><a xlink:title=" ">
<path fill="none" stroke="#63b8ff" d="M423.43,-41.14C443.4,-46.09 470.58,-52.84 494.44,-58.76"/>
<polygon fill="#63b8ff" stroke="#63b8ff" points="493.46,-62.13 504.01,-61.14 495.15,-55.33 493.46,-62.13"/>
</a>
</g>
</g>
<!-- Node19 -->
<g id="Node000019" class="node">
<title>Node19</title>
<g id="a_Node000019"><a xlink:href="class_async_client.html#a485b2be0c01d3172928c0ed9655edc2f" target="_top" xlink:title=" ">
<polygon fill="#fff0f0" stroke="red" points="610.75,-43.99 486.75,-43.99 486.75,-23.99 610.75,-23.99 610.75,-43.99"/>
<text xml:space="preserve" text-anchor="middle" x="548.75" y="-30.49" font-family="Helvetica,sans-Serif" font-size="10.00">AsyncClient::_s_lwip_fin</text>
</a>
</g>
</g>
<!-- Node18&#45;&gt;Node19 -->
<g id="edge15_Node000018_Node000019" class="edge">
<title>Node18&#45;&gt;Node19</title>
<g id="a_edge15_Node000018_Node000019"><a xlink:title=" ">
<path fill="none" stroke="#63b8ff" d="M423.43,-33.99C438.13,-33.99 456.76,-33.99 475.08,-33.99"/>
<polygon fill="#63b8ff" stroke="#63b8ff" points="474.9,-37.49 484.9,-33.99 474.9,-30.49 474.9,-37.49"/>
</a>
</g>
</g>
<!-- Node19&#45;&gt;Node3 -->
<g id="edge17_Node000019_Node000003" class="edge">
<title>Node19&#45;&gt;Node3</title>
<g id="a_edge17_Node000019_Node000003"><a xlink:title=" ">
<path fill="none" stroke="#63b8ff" d="M598.79,-44.48C603.17,-46.78 607.26,-49.58 610.75,-52.99 673.05,-113.96 687.14,-224.53 690.32,-271.24"/>
<polygon fill="#63b8ff" stroke="#63b8ff" points="686.82,-271.32 690.88,-281.11 693.81,-270.93 686.82,-271.32"/>
</a>
</g>
</g>
<!-- Node19&#45;&gt;Node4 -->
<g id="edge16_Node000019_Node000004" class="edge">
<title>Node19&#45;&gt;Node4</title>
<g id="a_edge16_Node000019_Node000004"><a xlink:title=" ">
<path fill="none" stroke="#63b8ff" d="M522.4,-23.49C481.05,-8.1 397.56,15.63 336.5,-14.99 289.46,-38.58 259.02,-96.22 245.44,-127.31"/>
<polygon fill="#63b8ff" stroke="#63b8ff" points="242.26,-125.82 241.64,-136.4 248.72,-128.52 242.26,-125.82"/>
</a>
</g>
</g>
<!-- Node21&#45;&gt;Node16 -->
<g id="edge20_Node000021_Node000016" class="edge">
<title>Node21&#45;&gt;Node16</title>
<g id="a_edge20_Node000021_Node000016"><a xlink:title=" ">
<path fill="none" stroke="#63b8ff" d="M423.43,-71.99C440.9,-71.99 463.91,-71.99 485.38,-71.99"/>
<polygon fill="#63b8ff" stroke="#63b8ff" points="485.24,-75.49 495.24,-71.99 485.24,-68.49 485.24,-75.49"/>
</a>
</g>
</g>
</g>
</svg>
