<?xml version="1.0" encoding="UTF-8" standalone="no"?>
<!DOCTYPE svg PUBLIC "-//W3C//DTD SVG 1.1//EN"
 "http://www.w3.org/Graphics/SVG/1.1/DTD/svg11.dtd">
<!-- Generated by graphviz version 14.1.2 (20260124.0452)
 -->
<!-- Title: AsyncClient::~AsyncClient Pages: 1 -->
<svg width="568pt" height="154pt"
 viewBox="0.00 0.00 568.00 154.00" xmlns="http://www.w3.org/2000/svg" xmlns:xlink="http://www.w3.org/1999/xlink">
<g id="graph0" class="graph" transform="scale(1 1) rotate(0) translate(4 150)">
<title>AsyncClient::~AsyncClient</title>
<!-- Node1 -->
<g id="Node000001" class="node">
<title>Node1</title>
<g id="a_Node000001"><a xlink:title=" ">
<polygon fill="#999999" stroke="#666666" points="134.5,-115 0,-115 0,-95 134.5,-95 134.5,-115"/>
<text xml:space="preserve" text-anchor="middle" x="67.25" y="-101.5" font-family="Helvetica,sans-Serif" font-size="10.00">AsyncClient::~AsyncClient</text>
</a>
</g>
</g>
<!-- Node2 -->
<g id="Node000002" class="node">
<title>Node2</title>
<g id="a_Node000002"><a xlink:href="class_async_client.html#a98ff872bc84919f006f3bb8a249ed36d" target="_top" xlink:title=" ">
<polygon fill="white" stroke="#666666" points="274.25,-96 170.5,-96 170.5,-76 274.25,-76 274.25,-96"/>
<text xml:space="preserve" text-anchor="middle" x="222.38" y="-82.5" font-family="Helvetica,sans-Serif" font-size="10.00">AsyncClient::_close</text>
</a>
</g>
</g>
<!-- Node1&#45;&gt;Node2 -->
<g id="edge1_Node000001_Node000002" class="edge">
<title>Node1&#45;&gt;Node2</title>
<g id="a_edge1_Node000001_Node000002"><a xlink:title=" ">
<path fill="none" stroke="#63b8ff" d="M134.97,-96.72C142.87,-95.74 150.92,-94.74 158.77,-93.77"/>
<polygon fill="#63b8ff" stroke="#63b8ff" points="159.08,-97.26 168.58,-92.55 158.22,-90.31 159.08,-97.26"/>
</a>
</g>
</g>
<!-- Node3 -->
<g id="Node000003" class="node">
<title>Node3</title>
<g id="a_Node000003"><a xlink:href="class_async_client.html#aff6a2fbf261b25e1fcd35c11cce348a5" target="_top" xlink:title=" ">
<polygon fill="white" stroke="#666666" points="407.25,-146 310.25,-146 310.25,-114 407.25,-114 407.25,-146"/>
<text xml:space="preserve" text-anchor="start" x="318.25" y="-132.5" font-family="Helvetica,sans-Serif" font-size="10.00">AsyncClient::_free</text>
<text xml:space="preserve" text-anchor="middle" x="358.75" y="-120.5" font-family="Helvetica,sans-Serif" font-size="10.00">_closed_slot</text>
</a>
</g>
</g>
<!-- Node1&#45;&gt;Node3 -->
<g id="edge9_Node000001_Node000003" class="edge">
<title>Node1&#45;&gt;Node3</title>
<g id="a_edge9_Node000001_Node000003"><a xlink:title=" ">
<path fill="none" stroke="#63b8ff" d="M134.67,-110.74C184.17,-115.01 251.17,-120.8 298.79,-124.91"/>
<polygon fill="#63b8ff" stroke="#63b8ff" points="298.38,-128.39 308.64,-125.76 298.98,-121.41 298.38,-128.39"/>
</a>
</g>
</g>
<!-- Node2&#45;&gt;Node3 -->
<g id="edge2_Node000002_Node000003" class="edge">
<title>Node2&#45;&gt;Node3</title>
<g id="a_edge2_Node000002_Node000003"><a xlink:title=" ">
<path fill="none" stroke="#63b8ff" d="M255.22,-96.43C268.33,-100.72 283.96,-105.84 299.01,-110.77"/>
<polygon fill="#63b8ff" stroke="#63b8ff" points="297.8,-114.05 308.39,-113.84 299.97,-107.4 297.8,-114.05"/>
</a>
</g>
</g>
<!-- Node4 -->
<g id="Node000004" class="node">
<title>Node4</title>
<g id="a_Node000004"><a xlink:href="_async_t_c_p_8cpp.html#ab053d5adb5be879f37181af512213bb6" target="_top" xlink:title=" ">
<polygon fill="white" stroke="#666666" points="406.5,-96 311,-96 311,-76 406.5,-76 406.5,-96"/>
<text xml:space="preserve" text-anchor="middle" x="358.75" y="-82.5" font-family="Helvetica,sans-Serif" font-size="10.00">_tcp_clear_events</text>
</a>
</g>
</g>
<!-- Node2&#45;&gt;Node4 -->
<g id="edge3_Node000002_Node000004" class="edge">
<title>Node2&#45;&gt;Node4</title>
<g id="a_edge3_Node000002_Node000004"><a xlink:title=" ">
<path fill="none" stroke="#63b8ff" d="M274.56,-86C282.63,-86 291.02,-86 299.23,-86"/>
<polygon fill="#63b8ff" stroke="#63b8ff" points="299.17,-89.5 309.17,-86 299.17,-82.5 299.17,-89.5"/>
</a>
</g>
</g>
<!-- Node6 -->
<g id="Node000006" class="node">
<title>Node6</title>
<g id="a_Node000006"><a xlink:href="_async_t_c_p_8cpp.html#a3602c1ebfae2fb2ff64a0e3d7b0568ce" target="_top" xlink:title=" ">
<polygon fill="white" stroke="#666666" points="390.38,-58 327.12,-58 327.12,-38 390.38,-38 390.38,-58"/>
<text xml:space="preserve" text-anchor="middle" x="358.75" y="-44.5" font-family="Helvetica,sans-Serif" font-size="10.00">_tcp_close</text>
</a>
</g>
</g>
<!-- Node2&#45;&gt;Node6 -->
<g id="edge5_Node000002_Node000006" class="edge">
<title>Node2&#45;&gt;Node6</title>
<g id="a_edge5_Node000002_Node000006"><a xlink:title=" ">
<path fill="none" stroke="#63b8ff" d="M260.45,-75.52C277.61,-70.66 298.07,-64.88 315.8,-59.86"/>
<polygon fill="#63b8ff" stroke="#63b8ff" points="316.58,-63.28 325.25,-57.19 314.67,-56.55 316.58,-63.28"/>
</a>
</g>
</g>
<!-- Node8 -->
<g id="Node000008" class="node">
<title>Node8</title>
<g id="a_Node000008"><a xlink:href="class_async_client.html#a09e777ff005d8e0f81166e704dc14979" target="_top" xlink:title=" ">
<polygon fill="white" stroke="#666666" points="407.25,-20 310.25,-20 310.25,0 407.25,0 407.25,-20"/>
<text xml:space="preserve" text-anchor="middle" x="358.75" y="-6.5" font-family="Helvetica,sans-Serif" font-size="10.00">AsyncClient::abort</text>
</a>
</g>
</g>
<!-- Node2&#45;&gt;Node8 -->
<g id="edge7_Node000002_Node000008" class="edge">
<title>Node2&#45;&gt;Node8</title>
<g id="a_edge7_Node000002_Node000008"><a xlink:title=" ">
<path fill="none" stroke="#63b8ff" d="M237.29,-75.61C254.02,-63.42 283.22,-43.09 310.25,-29 312.93,-27.6 315.73,-26.24 318.58,-24.94"/>
<polygon fill="#63b8ff" stroke="#63b8ff" points="319.78,-28.23 327.56,-21.05 316.99,-21.81 319.78,-28.23"/>
</a>
</g>
</g>
<!-- Node5 -->
<g id="Node000005" class="node">
<title>Node5</title>
<g id="a_Node000005"><a xlink:href="_async_t_c_p_8cpp.html#a42bebdded16714188a8e554237aad2f3" target="_top" xlink:title=" ">
<polygon fill="white" stroke="#666666" points="559.75,-96 443.25,-96 443.25,-76 559.75,-76 559.75,-96"/>
<text xml:space="preserve" text-anchor="middle" x="501.5" y="-82.5" font-family="Helvetica,sans-Serif" font-size="10.00">_prepend_async_event</text>
</a>
</g>
</g>
<!-- Node4&#45;&gt;Node5 -->
<g id="edge4_Node000004_Node000005" class="edge">
<title>Node4&#45;&gt;Node5</title>
<g id="a_edge4_Node000004_Node000005"><a xlink:title=" ">
<path fill="none" stroke="#63b8ff" d="M406.62,-86C414.64,-86 423.13,-86 431.59,-86"/>
<polygon fill="#63b8ff" stroke="#63b8ff" points="431.55,-89.5 441.55,-86 431.55,-82.5 431.55,-89.5"/>
</a>
</g>
</g>
<!-- Node7 -->
<g id="Node000007" class="node">
<title>Node7</title>
<g id="a_Node000007"><a xlink:href="_async_t_c_p_8cpp.html#a7c4346c7dec98a175f7b96b03873839a" target="_top" xlink:title=" ">
<polygon fill="white" stroke="#666666" points="542.12,-58 460.88,-58 460.88,-38 542.12,-38 542.12,-58"/>
<text xml:space="preserve" text-anchor="middle" x="501.5" y="-44.5" font-family="Helvetica,sans-Serif" font-size="10.00">_tcp_close_api</text>
</a>
</g>
</g>
<!-- Node6&#45;&gt;Node7 -->
<g id="edge6_Node000006_Node000007" class="edge">
<title>Node6&#45;&gt;Node7</title>
<g id="a_edge6_Node000006_Node000007"><a xlink:title=" ">
<path fill="none" stroke="#63b8ff" d="M390.64,-48C407.82,-48 429.65,-48 449.31,-48"/>
<polygon fill="#63b8ff" stroke="#63b8ff" points="449.07,-51.5 459.07,-48 449.07,-44.5 449.07,-51.5"/>
</a>
</g>
</g>
<!-- Node9 -->
<g id="Node000009" class="node">
<title>Node9</title>
<g id="a_Node000009"><a xlink:href="_async_t_c_p_8cpp.html#a3e2474b46f6a3f01db216511d2bcfc4c" target="_top" xlink:title=" ">
<polygon fill="#fff0f0" stroke="red" points="532.38,-20 470.62,-20 470.62,0 532.38,0 532.38,-20"/>
<text xml:space="preserve" text-anchor="middle" x="501.5" y="-6.5" font-family="Helvetica,sans-Serif" font-size="10.00">_tcp_abort</text>
</a>
</g>
</g>
<!-- Node8&#45;&gt;Node9 -->
<g id="edge8_Node000008_Node000009" class="edge">
<title>Node8&#45;&gt;Node9</title>
<g id="a_edge8_Node000008_Node000009"><a xlink:title=" ">
<path fill="none" stroke="#63b8ff" d="M407.4,-10C424.22,-10 442.97,-10 459.21,-10"/>
<polygon fill="#63b8ff" stroke="#63b8ff" points="459.02,-13.5 469.02,-10 459.02,-6.5 459.02,-13.5"/>
</a>
</g>
</g>
</g>
</svg>
