<?xml version="1.0" encoding="UTF-8" standalone="no"?>
<!DOCTYPE svg PUBLIC "-//W3C//DTD SVG 1.1//EN"
 "http://www.w3.org/Graphics/SVG/1.1/DTD/svg11.dtd">
<!-- Generated by graphviz version 14.1.2 (20260124.0452)
 -->
<!-- Title: AuthSync::loadAllowDenyFromFS Pages: 1 -->
<svg width="518pt" height="66pt"
 viewBox="0.00 0.00 518.00 66.00" xmlns="http://www.w3.org/2000/svg" xmlns:xlink="http://www.w3.org/1999/xlink">
<g id="graph0" class="graph" transform="scale(1 1) rotate(0) translate(4 62)">
<title>AuthSync::loadAllowDenyFromFS</title>
<!-- Node1 -->
<g id="Node000001" class="node">
<title>Node1</title>
<g id="a_Node000001"><a xlink:title=" ">
<polygon fill="#999999" stroke="#666666" points="510,-39 344.75,-39 344.75,-19 510,-19 510,-39"/>
<text xml:space="preserve" text-anchor="middle" x="427.38" y="-25.5" font-family="Helvetica,sans-Serif" font-size="10.00">AuthSync::loadAllowDenyFromFS</text>
</a>
</g>
</g>
<!-- Node2 -->
<g id="Node000002" class="node">
<title>Node2</title>
<g id="a_Node000002"><a xlink:href="class_auth_sync.html#a068f973556d6acd59bf12b10220d26b0" target="_top" xlink:title=" ">
<polygon fill="white" stroke="#666666" points="308.75,-39 160,-39 160,-19 308.75,-19 308.75,-39"/>
<text xml:space="preserve" text-anchor="middle" x="234.38" y="-25.5" font-family="Helvetica,sans-Serif" font-size="10.00">AuthSync::loadETagFromNVS</text>
</a>
</g>
</g>
<!-- Node1&#45;&gt;Node2 -->
<g id="edge1_Node000001_Node000002" class="edge">
<title>Node1&#45;&gt;Node2</title>
<g id="a_edge1_Node000001_Node000002"><a xlink:title=" ">
<path fill="none" stroke="#63b8ff" d="M332.93,-29C324.89,-29 316.83,-29 308.98,-29"/>
<polygon fill="#63b8ff" stroke="#63b8ff" points="332.75,-32.5 342.75,-29 332.75,-25.5 332.75,-32.5"/>
</a>
</g>
</g>
<!-- Node3 -->
<g id="Node000003" class="node">
<title>Node3</title>
<g id="a_Node000003"><a xlink:href="class_auth_sync.html#a6834600967f5b023e9810fc2293d2c51" target="_top" xlink:title=" ">
<polygon fill="white" stroke="#666666" points="106,-58 18,-58 18,-38 106,-38 106,-58"/>
<text xml:space="preserve" text-anchor="middle" x="62" y="-44.5" font-family="Helvetica,sans-Serif" font-size="10.00">AuthSync::begin</text>
</a>
</g>
</g>
<!-- Node2&#45;&gt;Node3 -->
<g id="edge2_Node000002_Node000003" class="edge">
<title>Node2&#45;&gt;Node3</title>
<g id="a_edge2_Node000002_Node000003"><a xlink:title=" ">
<path fill="none" stroke="#63b8ff" d="M148.51,-38.46C133.91,-40.09 119.31,-41.72 106.4,-43.16"/>
<polygon fill="#63b8ff" stroke="#63b8ff" points="148.58,-41.98 158.13,-37.39 147.81,-35.02 148.58,-41.98"/>
</a>
</g>
</g>
<!-- Node4 -->
<g id="Node000004" class="node">
<title>Node4</title>
<g id="a_Node000004"><a xlink:href="class_auth_sync.html#a6b5eb87b981c15a7ed816bd5e133546c" target="_top" xlink:title=" ">
<polygon fill="white" stroke="#666666" points="124,-20 0,-20 0,0 124,0 124,-20"/>
<text xml:space="preserve" text-anchor="middle" x="62" y="-6.5" font-family="Helvetica,sans-Serif" font-size="10.00">AuthSync::preloadOffline</text>
</a>
</g>
</g>
<!-- Node2&#45;&gt;Node4 -->
<g id="edge3_Node000002_Node000004" class="edge">
<title>Node2&#45;&gt;Node4</title>
<g id="a_edge3_Node000002_Node000004"><a xlink:title=" ">
<path fill="none" stroke="#63b8ff" d="M148.25,-19.51C140.18,-18.61 132.11,-17.71 124.32,-16.84"/>
<polygon fill="#63b8ff" stroke="#63b8ff" points="147.81,-22.98 158.13,-20.61 148.58,-16.02 147.81,-22.98"/>
</a>
</g>
</g>
</g>
</svg>
