<?xml version="1.0" encoding="UTF-8" standalone="no"?>
<!DOCTYPE svg PUBLIC "-//W3C//DTD SVG 1.1//EN"
 "http://www.w3.org/Graphics/SVG/1.1/DTD/svg11.dtd">
<!-- Generated by graphviz version 14.1.2 (20260124.0452)
 -->
<!-- Title: AsyncServer::~AsyncServer Pages: 1 -->
<svg width="492pt" height="28pt"
 viewBox="0.00 0.00 492.00 28.00" xmlns="http://www.w3.org/2000/svg" xmlns:xlink="http://www.w3.org/1999/xlink">
<g id="graph0" class="graph" transform="scale(1 1) rotate(0) translate(4 24)">
<title>AsyncServer::~AsyncServer</title>
<!-- Node1 -->
<g id="Node000001" class="node">
<title>Node1</title>
<g id="a_Node000001"><a xlink:title=" ">
<polygon fill="#999999" stroke="#666666" points="140.5,-20 0,-20 0,0 140.5,0 140.5,-20"/>
<text xml:space="preserve" text-anchor="middle" x="70.25" y="-6.5" font-family="Helvetica,sans-Serif" font-size="10.00">AsyncServer::~AsyncServer</text>
</a>
</g>
</g>
<!-- Node2 -->
<g id="Node000002" class="node">
<title>Node2</title>
<g id="a_Node000002"><a xlink:href="class_async_server.html#ab4e3997502c28dca6ca0703fea8b2122" target="_top" xlink:title=" ">
<polygon fill="white" stroke="#666666" points="270.5,-20 176.5,-20 176.5,0 270.5,0 270.5,-20"/>
<text xml:space="preserve" text-anchor="middle" x="223.5" y="-6.5" font-family="Helvetica,sans-Serif" font-size="10.00">AsyncServer::end</text>
</a>
</g>
</g>
<!-- Node1&#45;&gt;Node2 -->
<g id="edge1_Node000001_Node000002" class="edge">
<title>Node1&#45;&gt;Node2</title>
<g id="a_edge1_Node000001_Node000002"><a xlink:title=" ">
<path fill="none" stroke="#63b8ff" d="M140.68,-10C148.82,-10 157.05,-10 165,-10"/>
<polygon fill="#63b8ff" stroke="#63b8ff" points="164.89,-13.5 174.89,-10 164.89,-6.5 164.89,-13.5"/>
</a>
</g>
</g>
<!-- Node3 -->
<g id="Node000003" class="node">
<title>Node3</title>
<g id="a_Node000003"><a xlink:href="_async_t_c_p_8cpp.html#a3e2474b46f6a3f01db216511d2bcfc4c" target="_top" xlink:title=" ">
<polygon fill="white" stroke="#666666" points="368.25,-20 306.5,-20 306.5,0 368.25,0 368.25,-20"/>
<text xml:space="preserve" text-anchor="middle" x="337.38" y="-6.5" font-family="Helvetica,sans-Serif" font-size="10.00">_tcp_abort</text>
</a>
</g>
</g>
<!-- Node2&#45;&gt;Node3 -->
<g id="edge2_Node000002_Node000003" class="edge">
<title>Node2&#45;&gt;Node3</title>
<g id="a_edge2_Node000002_Node000003"><a xlink:title=" ">
<path fill="none" stroke="#63b8ff" d="M270.97,-10C278.87,-10 287.02,-10 294.78,-10"/>
<polygon fill="#63b8ff" stroke="#63b8ff" points="294.65,-13.5 304.65,-10 294.65,-6.5 294.65,-13.5"/>
</a>
</g>
</g>
<!-- Node4 -->
<g id="Node000004" class="node">
<title>Node4</title>
<g id="a_Node000004"><a xlink:href="_async_t_c_p_8cpp.html#a1116bc106bb6f68220dc19896e08e831" target="_top" xlink:title=" ">
<polygon fill="white" stroke="#666666" points="484,-20 404.25,-20 404.25,0 484,0 484,-20"/>
<text xml:space="preserve" text-anchor="middle" x="444.12" y="-6.5" font-family="Helvetica,sans-Serif" font-size="10.00">_tcp_abort_api</text>
</a>
</g>
</g>
<!-- Node3&#45;&gt;Node4 -->
<g id="edge3_Node000003_Node000004" class="edge">
<title>Node3&#45;&gt;Node4</title>
<g id="a_edge3_Node000003_Node000004"><a xlink:title=" ">
<path fill="none" stroke="#63b8ff" d="M368.67,-10C376.15,-10 384.36,-10 392.51,-10"/>
<polygon fill="#63b8ff" stroke="#63b8ff" points="392.4,-13.5 402.4,-10 392.4,-6.5 392.4,-13.5"/>
</a>
</g>
</g>
</g>
</svg>
