<?xml version="1.0" encoding="UTF-8" standalone="no"?>
<!DOCTYPE svg PUBLIC "-//W3C//DTD SVG 1.1//EN"
 "http://www.w3.org/Graphics/SVG/1.1/DTD/svg11.dtd">
<!-- Generated by graphviz version 14.1.2 (20260124.0452)
 -->
<!-- Title: AsyncClient::AsyncClient Pages: 1 -->
<!--zoomable 490 -->

<svg id="main" version="1.1" xmlns="http://www.w3.org/2000/svg" xmlns:xlink="http://www.w3.org/1999/xlink" xml:space="preserve" onload="init(evt)">

<style type="text/css"><![CDATA[
.node, .edge {opacity: 0.7;}
.node.selected, .edge.selected {opacity: 1;}
.edge:hover path { stroke: red; }
.edge:hover polygon { stroke: red; fill: red; }
]]></style>

<defs>
  <circle id="rim" cx="0" cy="0" r="7"/>
  <circle id="rim2" cx="0" cy="0" r="3.5"/>
  <g id="zoomPlus">
    <use xlink:href="#rim" fill="#404040"><set attributeName="fill" to="#808080" begin="zoomplus.mouseover" end="zoomplus.mouseout"/></use>
    <path d="M-4,0h8M0,-4v8" fill="none" stroke="white" stroke-width="1.5" pointer-events="none"/>
  </g>
  <g id="zoomMin">
    <use xlink:href="#rim" fill="#404040"><set attributeName="fill" to="#808080" begin="zoomminus.mouseover" end="zoomminus.mouseout"/></use>
    <path d="M-4,0h8" fill="none" stroke="white" stroke-width="1.5" pointer-events="none"/>
  </g>
  <g id="arrowUp" transform="translate(30 24)">
    <use xlink:href="#rim"/>
    <path pointer-events="none" fill="none" stroke="white" stroke-width="1.5" d="M0,-3.0v7 M-2.5,-0.5L0,-3.0L2.5,-0.5"/>
  </g>
  <g id="arrowRight" transform="rotate(90) translate(36 -43)">
    <use xlink:href="#rim"/>
    <path pointer-events="none" fill="none" stroke="white" stroke-width="1.5" d="M0,-3.0v7 M-2.5,-0.5L0,-3.0L2.5,-0.5"/>
  </g>
  <g id="arrowDown" transform="rotate(180) translate(-30 -48)">
    <use xlink:href="#rim"/>
    <path pointer-events="none" fill="none" stroke="white" stroke-width="1.5" d="M0,-3.0v7 M-2.5,-0.5L0,-3.0L2.5,-0.5"/>
  </g>
  <g id="arrowLeft" transform="rotate(270) translate(-36 17)">
    <use xlink:href="#rim"/>
    <path pointer-events="none" fill="none" stroke="white" stroke-width="1.5" d="M0,-3.0v7 M-2.5,-0.5L0,-3.0L2.5,-0.5"/>
  </g>
  <g id="resetDef">
    <use xlink:href="#rim2" fill="#404040"><set attributeName="fill" to="#808080" begin="reset.mouseover" end="reset.mouseout"/></use>
  </g>
</defs>
<script type="application/ecmascript">
var viewWidth = 608;
var viewHeight = 490;
var sectionId = 'dynsection-2';
</script>
<script type="application/ecmascript" xlink:href="svg.min.js"/>
<svg id="graph" class="graph">
<g id="viewport">
<title>AsyncClient::AsyncClient</title>
<!-- Node1 -->
<g id="Node000001" class="node">
<title>Node1</title>
<g id="a_Node000001"><a xlink:title=" ">
<polygon fill="#999999" stroke="#666666" points="599.5,-241.97 471,-241.97 471,-221.97 599.5,-221.97 599.5,-241.97"/>
<text xml:space="preserve" text-anchor="middle" x="535.25" y="-228.47" font-family="Helvetica,sans-Serif" font-size="10.00">AsyncClient::AsyncClient</text>
</a>
</g>
</g>
<!-- Node2 -->
<g id="Node000002" class="node">
<title>Node2</title>
<g id="a_Node000002"><a xlink:href="class_async_client.html#ac4cdb0990fa85f03da98d1c98b1f8611" target="_top" xlink:title=" ">
<polygon fill="white" stroke="#666666" points="435,-481.97 299,-481.97 299,-461.97 435,-461.97 435,-481.97"/>
<text xml:space="preserve" text-anchor="middle" x="367" y="-468.47" font-family="Helvetica,sans-Serif" font-size="10.00">AsyncClient::_s_connected</text>
</a>
</g>
</g>
<!-- Node1&#45;&gt;Node2 -->
<g id="edge1_Node000001_Node000002" class="edge">
<title>Node1&#45;&gt;Node2</title>
<g id="a_edge1_Node000001_Node000002"><a xlink:title=" ">
<path fill="none" stroke="#63b8ff" d="M530.8,-253.44C522.56,-297.59 497.56,-398.93 435,-452.97 430.97,-456.45 426.35,-459.3 421.46,-461.62"/>
<polygon fill="#63b8ff" stroke="#63b8ff" points="534.2,-254.31 532.47,-243.86 527.31,-253.11 534.2,-254.31"/>
</a>
</g>
</g>
<!-- Node10 -->
<g id="Node000010" class="node">
<title>Node10</title>
<g id="a_Node000010"><a xlink:href="class_async_client.html#a3f629c9072da183879a9c67878b374cc" target="_top" xlink:title=" ">
<polygon fill="white" stroke="#666666" points="420.38,-443.97 313.62,-443.97 313.62,-411.97 420.38,-411.97 420.38,-443.97"/>
<text xml:space="preserve" text-anchor="start" x="321.62" y="-430.47" font-family="Helvetica,sans-Serif" font-size="10.00">AsyncClient::_s_dns</text>
<text xml:space="preserve" text-anchor="middle" x="367" y="-418.47" font-family="Helvetica,sans-Serif" font-size="10.00">_found</text>
</a>
</g>
</g>
<!-- Node1&#45;&gt;Node10 -->
<g id="edge4_Node000001_Node000010" class="edge">
<title>Node1&#45;&gt;Node10</title>
<g id="a_edge4_Node000001_Node000010"><a xlink:title=" ">
<path fill="none" stroke="#63b8ff" d="M527.35,-253.08C514.65,-288.82 484.26,-361.4 435,-402.97 430.73,-406.58 425.89,-409.69 420.82,-412.36"/>
<polygon fill="#63b8ff" stroke="#63b8ff" points="530.57,-254.5 530.5,-243.9 523.95,-252.23 530.57,-254.5"/>
</a>
</g>
</g>
<!-- Node12 -->
<g id="Node000012" class="node">
<title>Node12</title>
<g id="a_Node000012"><a xlink:href="class_async_client.html#a9ff634e3b1237eab65178b007326367e" target="_top" xlink:title=" ">
<polygon fill="white" stroke="#666666" points="422.25,-393.97 311.75,-393.97 311.75,-373.97 422.25,-373.97 422.25,-393.97"/>
<text xml:space="preserve" text-anchor="middle" x="367" y="-380.47" font-family="Helvetica,sans-Serif" font-size="10.00">AsyncClient::_s_error</text>
</a>
</g>
</g>
<!-- Node1&#45;&gt;Node12 -->
<g id="edge6_Node000001_Node000012" class="edge">
<title>Node1&#45;&gt;Node12</title>
<g id="a_edge6_Node000001_Node000012"><a xlink:title=" ">
<path fill="none" stroke="#63b8ff" d="M524.5,-252.4C509.43,-281.76 477.71,-335.56 435,-364.97 430.02,-368.4 424.43,-371.22 418.66,-373.53"/>
<polygon fill="#63b8ff" stroke="#63b8ff" points="527.45,-254.32 528.77,-243.81 521.18,-251.2 527.45,-254.32"/>
</a>
</g>
</g>
<!-- Node13 -->
<g id="Node000013" class="node">
<title>Node13</title>
<g id="a_Node000013"><a xlink:href="class_async_client.html#a6a69c67e1a22660766affb64700c2276" target="_top" xlink:title=" ">
<polygon fill="white" stroke="#666666" points="417.75,-355.97 316.25,-355.97 316.25,-335.97 417.75,-335.97 417.75,-355.97"/>
<text xml:space="preserve" text-anchor="middle" x="367" y="-342.47" font-family="Helvetica,sans-Serif" font-size="10.00">AsyncClient::_s_fin</text>
</a>
</g>
</g>
<!-- Node1&#45;&gt;Node13 -->
<g id="edge8_Node000001_Node000013" class="edge">
<title>Node1&#45;&gt;Node13</title>
<g id="a_edge8_Node000001_Node000013"><a xlink:title=" ">
<path fill="none" stroke="#63b8ff" d="M519.26,-251.12C501.41,-272.64 469.65,-307.14 435,-326.97 429.02,-330.4 422.38,-333.24 415.67,-335.59"/>
<polygon fill="#63b8ff" stroke="#63b8ff" points="521.91,-253.4 525.48,-243.42 516.47,-249 521.91,-253.4"/>
</a>
</g>
</g>
<!-- Node14 -->
<g id="Node000014" class="node">
<title>Node14</title>
<g id="a_Node000014"><a xlink:href="class_async_client.html#a485b2be0c01d3172928c0ed9655edc2f" target="_top" xlink:title=" ">
<polygon fill="white" stroke="#666666" points="429,-165.97 305,-165.97 305,-145.97 429,-145.97 429,-165.97"/>
<text xml:space="preserve" text-anchor="middle" x="367" y="-152.47" font-family="Helvetica,sans-Serif" font-size="10.00">AsyncClient::_s_lwip_fin</text>
</a>
</g>
</g>
<!-- Node1&#45;&gt;Node14 -->
<g id="edge10_Node000001_Node000014" class="edge">
<title>Node1&#45;&gt;Node14</title>
<g id="a_edge10_Node000001_Node000014"><a xlink:title=" ">
<path fill="none" stroke="#63b8ff" d="M506.53,-216.13C486.9,-205.23 459.77,-190.84 435,-179.97 423.8,-175.06 411.24,-170.36 400.05,-166.44"/>
<polygon fill="#63b8ff" stroke="#63b8ff" points="504.57,-219.04 515.01,-220.88 508,-212.94 504.57,-219.04"/>
</a>
</g>
</g>
<!-- Node16 -->
<g id="Node000016" class="node">
<title>Node16</title>
<g id="a_Node000016"><a xlink:href="class_async_client.html#a575c12664279634155259e007c6a104f" target="_top" xlink:title=" ">
<polygon fill="white" stroke="#666666" points="116.5,-203.97 0,-203.97 0,-183.97 116.5,-183.97 116.5,-203.97"/>
<text xml:space="preserve" text-anchor="middle" x="58.25" y="-190.47" font-family="Helvetica,sans-Serif" font-size="10.00">AsyncClient::operator=</text>
</a>
</g>
</g>
<!-- Node1&#45;&gt;Node16 -->
<g id="edge23_Node000001_Node000016" class="edge">
<title>Node1&#45;&gt;Node16</title>
<g id="a_edge23_Node000001_Node000016"><a xlink:title=" ">
<path fill="none" stroke="#63b8ff" d="M475.77,-219.39C462.43,-216.9 448.27,-214.57 435,-212.97 322.81,-199.47 190.65,-195.54 116.75,-194.41"/>
<polygon fill="#63b8ff" stroke="#63b8ff" points="474.79,-222.76 485.27,-221.21 476.11,-215.89 474.79,-222.76"/>
</a>
</g>
</g>
<!-- Node17 -->
<g id="Node000017" class="node">
<title>Node17</title>
<g id="a_Node000017"><a xlink:href="class_async_client.html#abe187c005c73fe6c0c94e1b3b20b55de" target="_top" xlink:title=" ">
<polygon fill="white" stroke="#666666" points="420,-317.97 314,-317.97 314,-297.97 420,-297.97 420,-317.97"/>
<text xml:space="preserve" text-anchor="middle" x="367" y="-304.47" font-family="Helvetica,sans-Serif" font-size="10.00">AsyncClient::_s_poll</text>
</a>
</g>
</g>
<!-- Node1&#45;&gt;Node17 -->
<g id="edge15_Node000001_Node000017" class="edge">
<title>Node1&#45;&gt;Node17</title>
<g id="a_edge15_Node000001_Node000017"><a xlink:title=" ">
<path fill="none" stroke="#63b8ff" d="M509.41,-248.53C489.85,-261 461.54,-277.79 435,-288.97 427.31,-292.21 418.9,-295.09 410.72,-297.56"/>
<polygon fill="#63b8ff" stroke="#63b8ff" points="511.29,-251.49 517.78,-243.11 507.48,-245.61 511.29,-251.49"/>
</a>
</g>
</g>
<!-- Node18 -->
<g id="Node000018" class="node">
<title>Node18</title>
<g id="a_Node000018"><a xlink:href="class_async_client.html#af8136d3085c8948078a131bfb9430ec6" target="_top" xlink:title=" ">
<polygon fill="white" stroke="#666666" points="421.88,-279.97 312.12,-279.97 312.12,-259.97 421.88,-259.97 421.88,-279.97"/>
<text xml:space="preserve" text-anchor="middle" x="367" y="-266.47" font-family="Helvetica,sans-Serif" font-size="10.00">AsyncClient::_s_recv</text>
</a>
</g>
</g>
<!-- Node1&#45;&gt;Node18 -->
<g id="edge17_Node000001_Node000018" class="edge">
<title>Node1&#45;&gt;Node18</title>
<g id="a_edge17_Node000001_Node000018"><a xlink:title=" ">
<path fill="none" stroke="#63b8ff" d="M477.44,-244.96C456.66,-249.71 433.42,-255.02 413.72,-259.52"/>
<polygon fill="#63b8ff" stroke="#63b8ff" points="477.94,-248.44 486.91,-242.8 476.38,-241.61 477.94,-248.44"/>
</a>
</g>
</g>
<!-- Node19 -->
<g id="Node000019" class="node">
<title>Node19</title>
<g id="a_Node000019"><a xlink:href="class_async_client.html#a8e507d50b4cc3ae8e90f2e1c1ebf5f61" target="_top" xlink:title=" ">
<polygon fill="white" stroke="#666666" points="421.88,-241.97 312.12,-241.97 312.12,-221.97 421.88,-221.97 421.88,-241.97"/>
<text xml:space="preserve" text-anchor="middle" x="367" y="-228.47" font-family="Helvetica,sans-Serif" font-size="10.00">AsyncClient::_s_sent</text>
</a>
</g>
</g>
<!-- Node1&#45;&gt;Node19 -->
<g id="edge19_Node000001_Node000019" class="edge">
<title>Node1&#45;&gt;Node19</title>
<g id="a_edge19_Node000001_Node000019"><a xlink:title=" ">
<path fill="none" stroke="#63b8ff" d="M459.49,-231.97C446.93,-231.97 434.11,-231.97 422.2,-231.97"/>
<polygon fill="#63b8ff" stroke="#63b8ff" points="459.41,-235.47 469.41,-231.97 459.41,-228.47 459.41,-235.47"/>
</a>
</g>
</g>
<!-- Node20 -->
<g id="Node000020" class="node">
<title>Node20</title>
<g id="a_Node000020"><a xlink:href="class_async_client.html#a44e3b77c5567dbfeb25c50cfddf61653" target="_top" xlink:title=" ">
<polygon fill="white" stroke="#666666" points="426.75,-127.97 307.25,-127.97 307.25,-107.97 426.75,-107.97 426.75,-127.97"/>
<text xml:space="preserve" text-anchor="middle" x="367" y="-114.47" font-family="Helvetica,sans-Serif" font-size="10.00">AsyncClient::operator!=</text>
</a>
</g>
</g>
<!-- Node1&#45;&gt;Node20 -->
<g id="edge21_Node000001_Node000020" class="edge">
<title>Node1&#45;&gt;Node20</title>
<g id="a_edge21_Node000001_Node000020"><a xlink:title=" ">
<path fill="none" stroke="#63b8ff" d="M519.26,-212.83C501.41,-191.31 469.65,-156.81 435,-136.97 429.02,-133.55 422.38,-130.71 415.67,-128.36"/>
<polygon fill="#63b8ff" stroke="#63b8ff" points="516.47,-214.95 525.48,-220.53 521.91,-210.55 516.47,-214.95"/>
</a>
</g>
</g>
<!-- Node21 -->
<g id="Node000021" class="node">
<title>Node21</title>
<g id="a_Node000021"><a xlink:href="class_async_client.html#afaedf716feb9b363fe9b1ee7d82fbe9f" target="_top" xlink:title=" ">
<polygon fill="white" stroke="#666666" points="428.25,-89.97 305.75,-89.97 305.75,-69.97 428.25,-69.97 428.25,-89.97"/>
<text xml:space="preserve" text-anchor="middle" x="367" y="-76.47" font-family="Helvetica,sans-Serif" font-size="10.00">AsyncClient::operator+=</text>
</a>
</g>
</g>
<!-- Node1&#45;&gt;Node21 -->
<g id="edge22_Node000001_Node000021" class="edge">
<title>Node1&#45;&gt;Node21</title>
<g id="a_edge22_Node000001_Node000021"><a xlink:title=" ">
<path fill="none" stroke="#63b8ff" d="M524.5,-211.55C509.43,-182.19 477.71,-128.39 435,-98.97 430.02,-95.55 424.43,-92.73 418.66,-90.42"/>
<polygon fill="#63b8ff" stroke="#63b8ff" points="521.18,-212.75 528.77,-220.14 527.45,-209.63 521.18,-212.75"/>
</a>
</g>
</g>
<!-- Node22 -->
<g id="Node000022" class="node">
<title>Node22</title>
<g id="a_Node000022"><a xlink:href="class_async_client.html#a40d147dfec9bbc2e8891273be25c5f39" target="_top" xlink:title=" ">
<polygon fill="white" stroke="#666666" points="428.25,-51.97 305.75,-51.97 305.75,-31.97 428.25,-31.97 428.25,-51.97"/>
<text xml:space="preserve" text-anchor="middle" x="367" y="-38.47" font-family="Helvetica,sans-Serif" font-size="10.00">AsyncClient::operator==</text>
</a>
</g>
</g>
<!-- Node1&#45;&gt;Node22 -->
<g id="edge24_Node000001_Node000022" class="edge">
<title>Node1&#45;&gt;Node22</title>
<g id="a_edge24_Node000001_Node000022"><a xlink:title=" ">
<path fill="none" stroke="#63b8ff" d="M527.88,-210.96C515.81,-174.76 486.14,-100.71 435,-60.97 430.61,-57.56 425.63,-54.76 420.42,-52.47"/>
<polygon fill="#63b8ff" stroke="#63b8ff" points="524.46,-211.78 530.84,-220.24 531.13,-209.65 524.46,-211.78"/>
</a>
</g>
</g>
<!-- Node3 -->
<g id="Node000003" class="node">
<title>Node3</title>
<g id="a_Node000003"><a xlink:href="_async_t_c_p_8cpp.html#ac4030e968c0e4c0fcbe7a9b4502854c1" target="_top" xlink:title=" ">
<polygon fill="white" stroke="#666666" points="263,-355.97 152.5,-355.97 152.5,-335.97 263,-335.97 263,-355.97"/>
<text xml:space="preserve" text-anchor="middle" x="207.75" y="-342.47" font-family="Helvetica,sans-Serif" font-size="10.00">_handle_async_event</text>
</a>
</g>
</g>
<!-- Node2&#45;&gt;Node3 -->
<g id="edge2_Node000002_Node000003" class="edge">
<title>Node2&#45;&gt;Node3</title>
<g id="a_edge2_Node000002_Node000003"><a xlink:title=" ">
<path fill="none" stroke="#63b8ff" d="M305.71,-456.84C303.39,-455.65 301.15,-454.36 299,-452.97 258.78,-427.01 227.02,-377.64 214.51,-356.27"/>
<polygon fill="#63b8ff" stroke="#63b8ff" points="304.29,-460.04 314.85,-460.89 307.13,-453.64 304.29,-460.04"/>
</a>
</g>
</g>
<!-- Node4 -->
<g id="Node000004" class="node">
<title>Node4</title>
<g id="a_Node000004"><a xlink:href="_async_t_c_p_8cpp.html#a87baf4ac2987dd94502c4586a97e552f" target="_top" xlink:title=" ">
<polygon fill="#fff0f0" stroke="red" points="112.38,-355.97 4.12,-355.97 4.12,-335.97 112.38,-335.97 112.38,-355.97"/>
<text xml:space="preserve" text-anchor="middle" x="58.25" y="-342.47" font-family="Helvetica,sans-Serif" font-size="10.00">_async_service_task</text>
</a>
</g>
</g>
<!-- Node3&#45;&gt;Node4 -->
<g id="edge3_Node000003_Node000004" class="edge">
<title>Node3&#45;&gt;Node4</title>
<g id="a_edge3_Node000003_Node000004"><a xlink:title=" ">
<path fill="none" stroke="#63b8ff" d="M140.83,-345.97C131.37,-345.97 121.73,-345.97 112.55,-345.97"/>
<polygon fill="#63b8ff" stroke="#63b8ff" points="140.73,-349.47 150.73,-345.97 140.73,-342.47 140.73,-349.47"/>
</a>
</g>
</g>
<!-- Node10&#45;&gt;Node3 -->
<g id="edge5_Node000010_Node000003" class="edge">
<title>Node10&#45;&gt;Node3</title>
<g id="a_edge5_Node000010_Node000003"><a xlink:title=" ">
<path fill="none" stroke="#63b8ff" d="M307.86,-407.13C304.84,-405.79 301.87,-404.4 299,-402.97 270.94,-389.06 240.6,-368.68 223.21,-356.43"/>
<polygon fill="#63b8ff" stroke="#63b8ff" points="306.3,-410.27 316.87,-410.96 309.03,-403.83 306.3,-410.27"/>
</a>
</g>
</g>
<!-- Node12&#45;&gt;Node3 -->
<g id="edge7_Node000012_Node000003" class="edge">
<title>Node12&#45;&gt;Node3</title>
<g id="a_edge7_Node000012_Node000003"><a xlink:title=" ">
<path fill="none" stroke="#63b8ff" d="M311.45,-370.79C292,-366.09 270.37,-360.86 251.99,-356.42"/>
<polygon fill="#63b8ff" stroke="#63b8ff" points="310.6,-374.19 321.14,-373.13 312.25,-367.38 310.6,-374.19"/>
</a>
</g>
</g>
<!-- Node13&#45;&gt;Node3 -->
<g id="edge9_Node000013_Node000003" class="edge">
<title>Node13&#45;&gt;Node3</title>
<g id="a_edge9_Node000013_Node000003"><a xlink:title=" ">
<path fill="none" stroke="#63b8ff" d="M304.59,-345.97C290.99,-345.97 276.67,-345.97 263.36,-345.97"/>
<polygon fill="#63b8ff" stroke="#63b8ff" points="304.3,-349.47 314.3,-345.97 304.3,-342.47 304.3,-349.47"/>
</a>
</g>
</g>
<!-- Node15 -->
<g id="Node000015" class="node">
<title>Node15</title>
<g id="a_Node000015"><a xlink:href="_async_t_c_p_8cpp.html#adf7826424bf5b1035c4850f6b3307686" target="_top" xlink:title=" ">
<polygon fill="white" stroke="#666666" points="237.12,-165.97 178.38,-165.97 178.38,-145.97 237.12,-145.97 237.12,-165.97"/>
<text xml:space="preserve" text-anchor="middle" x="207.75" y="-152.47" font-family="Helvetica,sans-Serif" font-size="10.00">_tcp_recv</text>
</a>
</g>
</g>
<!-- Node14&#45;&gt;Node15 -->
<g id="edge11_Node000014_Node000015" class="edge">
<title>Node14&#45;&gt;Node15</title>
<g id="a_edge11_Node000014_Node000015"><a xlink:title=" ">
<path fill="none" stroke="#63b8ff" d="M293.44,-155.97C273.49,-155.97 253.03,-155.97 237.21,-155.97"/>
<polygon fill="#63b8ff" stroke="#63b8ff" points="293.24,-159.47 303.24,-155.97 293.24,-152.47 293.24,-159.47"/>
</a>
</g>
</g>
<!-- Node15&#45;&gt;Node1 -->
<g id="edge13_Node000015_Node000001" class="edge">
<title>Node15&#45;&gt;Node1</title>
<g id="a_edge13_Node000015_Node000001"><a xlink:title=" ">
<path fill="none" stroke="#63b8ff" d="M215.64,-135.36C227.25,-104.36 253.96,-46.84 299,-22.97 352.41,5.33 383.91,9.32 435,-22.97 508.34,-69.34 528.58,-186.25 533.11,-221.66"/>
<polygon fill="#63b8ff" stroke="#63b8ff" points="212.48,-133.8 212.43,-144.39 219.07,-136.14 212.48,-133.8"/>
</a>
</g>
</g>
<!-- Node6 -->
<g id="Node000006" class="node">
<title>Node6</title>
<g id="a_Node000006"><a xlink:href="class_async_client.html#a758eaca983e03027c99003a5808883f8" target="_top" xlink:title=" ">
<polygon fill="#fff0f0" stroke="red" points="115.75,-165.97 0.75,-165.97 0.75,-145.97 115.75,-145.97 115.75,-165.97"/>
<text xml:space="preserve" text-anchor="middle" x="58.25" y="-152.47" font-family="Helvetica,sans-Serif" font-size="10.00">AsyncClient::_connect</text>
</a>
</g>
</g>
<!-- Node15&#45;&gt;Node6 -->
<g id="edge12_Node000015_Node000006" class="edge">
<title>Node15&#45;&gt;Node6</title>
<g id="a_edge12_Node000015_Node000006"><a xlink:title=" ">
<path fill="none" stroke="#63b8ff" d="M166.61,-155.97C151.04,-155.97 132.92,-155.97 116.05,-155.97"/>
<polygon fill="#63b8ff" stroke="#63b8ff" points="166.45,-159.47 176.45,-155.97 166.45,-152.47 166.45,-159.47"/>
</a>
</g>
</g>
<!-- Node15&#45;&gt;Node16 -->
<g id="edge14_Node000015_Node000016" class="edge">
<title>Node15&#45;&gt;Node16</title>
<g id="a_edge14_Node000015_Node000016"><a xlink:title=" ">
<path fill="none" stroke="#63b8ff" d="M166.96,-166.23C146.2,-171.57 120.85,-178.1 99.96,-183.49"/>
<polygon fill="#63b8ff" stroke="#63b8ff" points="167.68,-169.65 176.49,-163.77 165.94,-162.87 167.68,-169.65"/>
</a>
</g>
</g>
<!-- Node17&#45;&gt;Node3 -->
<g id="edge16_Node000017_Node000003" class="edge">
<title>Node17&#45;&gt;Node3</title>
<g id="a_edge16_Node000017_Node000003"><a xlink:title=" ">
<path fill="none" stroke="#63b8ff" d="M311.45,-321.16C292,-325.86 270.37,-331.08 251.99,-335.52"/>
<polygon fill="#63b8ff" stroke="#63b8ff" points="312.25,-324.57 321.14,-318.81 310.6,-317.76 312.25,-324.57"/>
</a>
</g>
</g>
<!-- Node18&#45;&gt;Node3 -->
<g id="edge18_Node000018_Node000003" class="edge">
<title>Node18&#45;&gt;Node3</title>
<g id="a_edge18_Node000018_Node000003"><a xlink:title=" ">
<path fill="none" stroke="#63b8ff" d="M311.44,-284.01C307.18,-285.54 302.98,-287.2 299,-288.97 270.06,-301.89 239.52,-322.98 222.42,-335.57"/>
<polygon fill="#63b8ff" stroke="#63b8ff" points="312.29,-287.42 320.67,-280.94 310.08,-280.78 312.29,-287.42"/>
</a>
</g>
</g>
<!-- Node19&#45;&gt;Node3 -->
<g id="edge20_Node000019_Node000003" class="edge">
<title>Node19&#45;&gt;Node3</title>
<g id="a_edge20_Node000019_Node000003"><a xlink:title=" ">
<path fill="none" stroke="#63b8ff" d="M307.08,-246.66C304.29,-247.98 301.58,-249.42 299,-250.97 261.43,-273.69 229.21,-316.15 215.63,-335.67"/>
<polygon fill="#63b8ff" stroke="#63b8ff" points="308.17,-250 316.08,-242.94 305.5,-243.53 308.17,-250"/>
</a>
</g>
</g>
</g>
</svg>

<g id="navigator" transform="translate(0 0)" fill="#404254">
  <rect fill="#f2f5e9" fill-opacity="0.5" stroke="#606060" stroke-width=".5" x="0" y="0" width="60" height="60"/>
  <use id="zoomplus" xlink:href="#zoomPlus" x="17" y="9" onmousedown="handleZoom(evt,'in')"/>
  <use id="zoomminus" xlink:href="#zoomMin" x="42" y="9" onmousedown="handleZoom(evt,'out')"/>
  <use id="reset" xlink:href="#resetDef" x="30" y="36" onmousedown="handleReset()"/>
   <use id="arrowup" xlink:href="#arrowUp" x="0" y="0" onmousedown="handlePan(0,-1)"/>
  <use id="arrowright" xlink:href="#arrowRight" x="0" y="0" onmousedown="handlePan(1,0)"/>
  <use id="arrowdown" xlink:href="#arrowDown" x="0" y="0" onmousedown="handlePan(0,1)"/>
  <use id="arrowleft" xlink:href="#arrowLeft" x="0" y="0" onmousedown="handlePan(-1,0)"/>
</g>
<svg viewBox="0 0 15 15" width="100%" height="30px" preserveAspectRatio="xMaxYMin meet">
 <g id="arrow_out" transform="scale(0.3 0.3)">
  <a xlink:href="class_async_client_aefecfa0c75c8c1b32104115e93739087_icgraph_org.svg" target="_base">
   <rect id="button" ry="5" rx="5" y="6" x="6" height="38" width="38"
        fill="#f2f5e9" fill-opacity="0.5" stroke="#606060" stroke-width="1.0"/>
   <path id="arrow"
     d="M 11.500037,31.436501 C 11.940474,20.09759 22.043105,11.32322 32.158766,21.979434 L 37.068811,17.246167 C 37.068811,17.246167 37.088388,32 37.088388,32 L 22.160133,31.978069 C 22.160133,31.978069 26.997745,27.140456 26.997745,27.140456 C 18.528582,18.264221 13.291696,25.230495 11.500037,31.436501 z"
     style="fill:#404040;"/>
  </a>
 </g>
</svg>

<style type='text/css'>
<![CDATA[
[data-mouse-over-selected='false'] { opacity: 0.7; }
[data-mouse-over-selected='true']  { opacity: 1.0; }
]]>
</style>
<script type="application/ecmascript"><![CDATA[
document.addEventListener('DOMContentLoaded', (event) => {
  highlightEdges();
  highlightAdjacentNodes();
});
]]></script>
</svg>
