<?xml version="1.0" encoding="UTF-8" standalone="no"?>
<!DOCTYPE svg PUBLIC "-//W3C//DTD SVG 1.1//EN"
 "http://www.w3.org/Graphics/SVG/1.1/DTD/svg11.dtd">
<!-- Generated by graphviz version 14.1.2 (20260124.0452)
 -->
<!-- Title: AsyncClient::_lwip_fin Pages: 1 -->
<svg width="541pt" height="122pt"
 viewBox="0.00 0.00 541.00 122.00" xmlns="http://www.w3.org/2000/svg" xmlns:xlink="http://www.w3.org/1999/xlink">
<g id="graph0" class="graph" transform="scale(1 1) rotate(0) translate(4 118)">
<title>AsyncClient::_lwip_fin</title>
<!-- Node1 -->
<g id="Node000001" class="node">
<title>Node1</title>
<g id="a_Node000001"><a xlink:title=" ">
<polygon fill="#999999" stroke="#666666" points="532.75,-58 419.25,-58 419.25,-38 532.75,-38 532.75,-58"/>
<text xml:space="preserve" text-anchor="middle" x="476" y="-44.5" font-family="Helvetica,sans-Serif" font-size="10.00">AsyncClient::_lwip_fin</text>
</a>
</g>
</g>
<!-- Node2 -->
<g id="Node000002" class="node">
<title>Node2</title>
<g id="a_Node000002"><a xlink:href="class_async_client.html#a485b2be0c01d3172928c0ed9655edc2f" target="_top" xlink:title=" ">
<polygon fill="white" stroke="#666666" points="383.25,-58 259.25,-58 259.25,-38 383.25,-38 383.25,-58"/>
<text xml:space="preserve" text-anchor="middle" x="321.25" y="-44.5" font-family="Helvetica,sans-Serif" font-size="10.00">AsyncClient::_s_lwip_fin</text>
</a>
</g>
</g>
<!-- Node1&#45;&gt;Node2 -->
<g id="edge1_Node000001_Node000002" class="edge">
<title>Node1&#45;&gt;Node2</title>
<g id="a_edge1_Node000001_Node000002"><a xlink:title=" ">
<path fill="none" stroke="#63b8ff" d="M407.5,-48C399.57,-48 391.51,-48 383.66,-48"/>
<polygon fill="#63b8ff" stroke="#63b8ff" points="407.48,-51.5 417.48,-48 407.48,-44.5 407.48,-51.5"/>
</a>
</g>
</g>
<!-- Node3 -->
<g id="Node000003" class="node">
<title>Node3</title>
<g id="a_Node000003"><a xlink:href="_async_t_c_p_8cpp.html#adf7826424bf5b1035c4850f6b3307686" target="_top" xlink:title=" ">
<polygon fill="white" stroke="#666666" points="223.25,-58 164.5,-58 164.5,-38 223.25,-38 223.25,-58"/>
<text xml:space="preserve" text-anchor="middle" x="193.88" y="-44.5" font-family="Helvetica,sans-Serif" font-size="10.00">_tcp_recv</text>
</a>
</g>
</g>
<!-- Node2&#45;&gt;Node3 -->
<g id="edge2_Node000002_Node000003" class="edge">
<title>Node2&#45;&gt;Node3</title>
<g id="a_edge2_Node000002_Node000003"><a xlink:title=" ">
<path fill="none" stroke="#63b8ff" d="M247.7,-48C239.15,-48 230.85,-48 223.46,-48"/>
<polygon fill="#63b8ff" stroke="#63b8ff" points="247.52,-51.5 257.52,-48 247.52,-44.5 247.52,-51.5"/>
</a>
</g>
</g>
<!-- Node4 -->
<g id="Node000004" class="node">
<title>Node4</title>
<g id="a_Node000004"><a xlink:href="class_async_client.html#a758eaca983e03027c99003a5808883f8" target="_top" xlink:title=" ">
<polygon fill="#fff0f0" stroke="red" points="121.75,-114 6.75,-114 6.75,-94 121.75,-94 121.75,-114"/>
<text xml:space="preserve" text-anchor="middle" x="64.25" y="-100.5" font-family="Helvetica,sans-Serif" font-size="10.00">AsyncClient::_connect</text>
</a>
</g>
</g>
<!-- Node3&#45;&gt;Node4 -->
<g id="edge3_Node000003_Node000004" class="edge">
<title>Node3&#45;&gt;Node4</title>
<g id="a_edge3_Node000003_Node000004"><a xlink:title=" ">
<path fill="none" stroke="#63b8ff" d="M167.55,-64.36C155.97,-71.36 141.87,-79.24 128.5,-85 121.13,-88.18 113.06,-91.03 105.23,-93.51"/>
<polygon fill="#63b8ff" stroke="#63b8ff" points="169.06,-67.54 175.72,-59.3 165.38,-61.59 169.06,-67.54"/>
</a>
</g>
</g>
<!-- Node13 -->
<g id="Node000013" class="node">
<title>Node13</title>
<g id="a_Node000013"><a xlink:href="class_async_client.html#aefecfa0c75c8c1b32104115e93739087" target="_top" xlink:title=" ">
<polygon fill="#fff0f0" stroke="red" points="128.5,-58 0,-58 0,-38 128.5,-38 128.5,-58"/>
<text xml:space="preserve" text-anchor="middle" x="64.25" y="-44.5" font-family="Helvetica,sans-Serif" font-size="10.00">AsyncClient::AsyncClient</text>
</a>
</g>
</g>
<!-- Node3&#45;&gt;Node13 -->
<g id="edge4_Node000003_Node000013" class="edge">
<title>Node3&#45;&gt;Node13</title>
<g id="a_edge4_Node000003_Node000013"><a xlink:title=" ">
<path fill="none" stroke="#63b8ff" d="M152.73,-48C145.09,-48 136.91,-48 128.75,-48"/>
<polygon fill="#63b8ff" stroke="#63b8ff" points="152.72,-51.5 162.72,-48 152.72,-44.5 152.72,-51.5"/>
</a>
</g>
</g>
<!-- Node16 -->
<g id="Node000016" class="node">
<title>Node16</title>
<g id="a_Node000016"><a xlink:href="class_async_client.html#a575c12664279634155259e007c6a104f" target="_top" xlink:title=" ">
<polygon fill="white" stroke="#666666" points="122.5,-20 6,-20 6,0 122.5,0 122.5,-20"/>
<text xml:space="preserve" text-anchor="middle" x="64.25" y="-6.5" font-family="Helvetica,sans-Serif" font-size="10.00">AsyncClient::operator=</text>
</a>
</g>
</g>
<!-- Node3&#45;&gt;Node16 -->
<g id="edge6_Node000003_Node000016" class="edge">
<title>Node3&#45;&gt;Node16</title>
<g id="a_edge6_Node000003_Node000016"><a xlink:title=" ">
<path fill="none" stroke="#63b8ff" d="M153.49,-36.27C136.45,-31.2 116.67,-25.31 100.16,-20.4"/>
<polygon fill="#63b8ff" stroke="#63b8ff" points="152.2,-39.54 162.78,-39.04 154.2,-32.83 152.2,-39.54"/>
</a>
</g>
</g>
<!-- Node13&#45;&gt;Node13 -->
<g id="edge5_Node000013_Node000013" class="edge">
<title>Node13&#45;&gt;Node13</title>
<g id="a_edge5_Node000013_Node000013"><a xlink:title=" ">
<path fill="none" stroke="#63b8ff" d="M87.16,-69.44C84.21,-73.3 76.57,-76 64.25,-76 41.72,-76 34.85,-66.98 43.65,-58.34"/>
<polygon fill="#63b8ff" stroke="#63b8ff" points="90.62,-68.9 85.15,-59.82 83.77,-70.32 90.62,-68.9"/>
</a>
</g>
</g>
</g>
</svg>
