<?xml version="1.0" encoding="UTF-8" standalone="no"?>
<!DOCTYPE svg PUBLIC "-//W3C//DTD SVG 1.1//EN"
 "http://www.w3.org/Graphics/SVG/1.1/DTD/svg11.dtd">
<!-- Generated by graphviz version 14.1.2 (20260124.0452)
 -->
<!-- Title: AsyncClient::_s_lwip_fin Pages: 1 -->
<!--zoomable 496 -->

<svg id="main" version="1.1" xmlns="http://www.w3.org/2000/svg" xmlns:xlink="http://www.w3.org/1999/xlink" xml:space="preserve" onload="init(evt)">

<style type="text/css"><![CDATA[
.node, .edge {opacity: 0.7;}
.node.selected, .edge.selected {opacity: 1;}
.edge:hover path { stroke: red; }
.edge:hover polygon { stroke: red; fill: red; }
]]></style>

<defs>
  <circle id="rim" cx="0" cy="0" r="7"/>
  <circle id="rim2" cx="0" cy="0" r="3.5"/>
  <g id="zoomPlus">
    <use xlink:href="#rim" fill="#404040"><set attributeName="fill" to="#808080" begin="zoomplus.mouseover" end="zoomplus.mouseout"/></use>
    <path d="M-4,0h8M0,-4v8" fill="none" stroke="white" stroke-width="1.5" pointer-events="none"/>
  </g>
  <g id="zoomMin">
    <use xlink:href="#rim" fill="#404040"><set attributeName="fill" to="#808080" begin="zoomminus.mouseover" end="zoomminus.mouseout"/></use>
    <path d="M-4,0h8" fill="none" stroke="white" stroke-width="1.5" pointer-events="none"/>
  </g>
  <g id="arrowUp" transform="translate(30 24)">
    <use xlink:href="#rim"/>
    <path pointer-events="none" fill="none" stroke="white" stroke-width="1.5" d="M0,-3.0v7 M-2.5,-0.5L0,-3.0L2.5,-0.5"/>
  </g>
  <g id="arrowRight" transform="rotate(90) translate(36 -43)">
    <use xlink:href="#rim"/>
    <path pointer-events="none" fill="none" stroke="white" stroke-width="1.5" d="M0,-3.0v7 M-2.5,-0.5L0,-3.0L2.5,-0.5"/>
  </g>
  <g id="arrowDown" transform="rotate(180) translate(-30 -48)">
    <use xlink:href="#rim"/>
    <path pointer-events="none" fill="none" stroke="white" stroke-width="1.5" d="M0,-3.0v7 M-2.5,-0.5L0,-3.0L2.5,-0.5"/>
  </g>
  <g id="arrowLeft" transform="rotate(270) translate(-36 17)">
    <use xlink:href="#rim"/>
    <path pointer-events="none" fill="none" stroke="white" stroke-width="1.5" d="M0,-3.0v7 M-2.5,-0.5L0,-3.0L2.5,-0.5"/>
  </g>
  <g id="resetDef">
    <use xlink:href="#rim2" fill="#404040"><set attributeName="fill" to="#808080" begin="reset.mouseover" end="reset.mouseout"/></use>
  </g>
</defs>
<script type="application/ecmascript">
var viewWidth = 709;
var viewHeight = 496;
var sectionId = 'dynsection-33';
</script>
<script type="application/ecmascript" xlink:href="svg.min.js"/>
<svg id="graph" class="graph">
<g id="viewport">
<title>AsyncClient::_s_lwip_fin</title>
<!-- Node1 -->
<g id="Node000001" class="node">
<title>Node1</title>
<g id="a_Node000001"><a xlink:title=" ">
<polygon fill="#999999" stroke="#666666" points="701,-288 577,-288 577,-268 701,-268 701,-288"/>
<text xml:space="preserve" text-anchor="middle" x="639" y="-274.5" font-family="Helvetica,sans-Serif" font-size="10.00">AsyncClient::_s_lwip_fin</text>
</a>
</g>
</g>
<!-- Node2 -->
<g id="Node000002" class="node">
<title>Node2</title>
<g id="a_Node000002"><a xlink:href="_async_t_c_p_8cpp.html#adf7826424bf5b1035c4850f6b3307686" target="_top" xlink:title=" ">
<polygon fill="white" stroke="#666666" points="541,-337 482.25,-337 482.25,-317 541,-317 541,-337"/>
<text xml:space="preserve" text-anchor="middle" x="511.62" y="-323.5" font-family="Helvetica,sans-Serif" font-size="10.00">_tcp_recv</text>
</a>
</g>
</g>
<!-- Node1&#45;&gt;Node2 -->
<g id="edge1_Node000001_Node000002" class="edge">
<title>Node1&#45;&gt;Node2</title>
<g id="a_edge1_Node000001_Node000002"><a xlink:title=" ">
<path fill="none" stroke="#63b8ff" d="M600.89,-292.51C581.06,-300.25 557.12,-309.61 539.18,-316.62"/>
<polygon fill="#63b8ff" stroke="#63b8ff" points="601.96,-295.84 610,-288.94 599.41,-289.32 601.96,-295.84"/>
</a>
</g>
</g>
<!-- Node3 -->
<g id="Node000003" class="node">
<title>Node3</title>
<g id="a_Node000003"><a xlink:href="class_async_client.html#a758eaca983e03027c99003a5808883f8" target="_top" xlink:title=" ">
<polygon fill="white" stroke="#666666" points="439.5,-450 324.5,-450 324.5,-430 439.5,-430 439.5,-450"/>
<text xml:space="preserve" text-anchor="middle" x="382" y="-436.5" font-family="Helvetica,sans-Serif" font-size="10.00">AsyncClient::_connect</text>
</a>
</g>
</g>
<!-- Node2&#45;&gt;Node3 -->
<g id="edge2_Node000002_Node000003" class="edge">
<title>Node2&#45;&gt;Node3</title>
<g id="a_edge2_Node000002_Node000003"><a xlink:title=" ">
<path fill="none" stroke="#63b8ff" d="M490.54,-344.78C463.58,-368.65 416.57,-410.28 394.75,-429.6"/>
<polygon fill="#63b8ff" stroke="#63b8ff" points="492.55,-347.68 497.71,-338.43 487.91,-342.44 492.55,-347.68"/>
</a>
</g>
</g>
<!-- Node12 -->
<g id="Node000012" class="node">
<title>Node12</title>
<g id="a_Node000012"><a xlink:href="class_async_client.html#aefecfa0c75c8c1b32104115e93739087" target="_top" xlink:title=" ">
<polygon fill="white" stroke="#666666" points="446.25,-254 317.75,-254 317.75,-234 446.25,-234 446.25,-254"/>
<text xml:space="preserve" text-anchor="middle" x="382" y="-240.5" font-family="Helvetica,sans-Serif" font-size="10.00">AsyncClient::AsyncClient</text>
</a>
</g>
</g>
<!-- Node2&#45;&gt;Node12 -->
<g id="edge6_Node000002_Node000012" class="edge">
<title>Node2&#45;&gt;Node12</title>
<g id="a_edge6_Node000002_Node000012"><a xlink:title=" ">
<path fill="none" stroke="#63b8ff" d="M485.28,-310.52C459.65,-293.85 420.8,-268.58 399.11,-254.47"/>
<polygon fill="#63b8ff" stroke="#63b8ff" points="483.16,-313.31 493.45,-315.83 486.98,-307.44 483.16,-313.31"/>
</a>
</g>
</g>
<!-- Node21 -->
<g id="Node000021" class="node">
<title>Node21</title>
<g id="a_Node000021"><a xlink:href="class_async_client.html#a575c12664279634155259e007c6a104f" target="_top" xlink:title=" ">
<polygon fill="white" stroke="#666666" points="272,-412 155.5,-412 155.5,-392 272,-392 272,-412"/>
<text xml:space="preserve" text-anchor="middle" x="213.75" y="-398.5" font-family="Helvetica,sans-Serif" font-size="10.00">AsyncClient::operator=</text>
</a>
</g>
</g>
<!-- Node2&#45;&gt;Node21 -->
<g id="edge19_Node000002_Node000021" class="edge">
<title>Node2&#45;&gt;Node21</title>
<g id="a_edge19_Node000002_Node000021"><a xlink:title=" ">
<path fill="none" stroke="#63b8ff" d="M471.09,-337.02C415.08,-351.22 313.09,-377.07 256.1,-391.52"/>
<polygon fill="#63b8ff" stroke="#63b8ff" points="471.69,-340.48 480.52,-334.63 469.97,-333.7 471.69,-340.48"/>
</a>
</g>
</g>
<!-- Node4 -->
<g id="Node000004" class="node">
<title>Node4</title>
<g id="a_Node000004"><a xlink:href="class_async_client.html#a260e075caca9a58241f2fad754cc412b" target="_top" xlink:title=" ">
<polygon fill="white" stroke="#666666" points="109.75,-469 0,-469 0,-449 109.75,-449 109.75,-469"/>
<text xml:space="preserve" text-anchor="middle" x="54.88" y="-455.5" font-family="Helvetica,sans-Serif" font-size="10.00">AsyncClient::connect</text>
</a>
</g>
</g>
<!-- Node3&#45;&gt;Node4 -->
<g id="edge3_Node000003_Node000004" class="edge">
<title>Node3&#45;&gt;Node4</title>
<g id="a_edge3_Node000003_Node000004"><a xlink:title=" ">
<path fill="none" stroke="#63b8ff" d="M313.07,-443.97C252.82,-447.49 165.98,-452.57 110.24,-455.82"/>
<polygon fill="#63b8ff" stroke="#63b8ff" points="313.08,-447.48 322.86,-443.4 312.67,-440.49 313.08,-447.48"/>
</a>
</g>
</g>
<!-- Node5 -->
<g id="Node000005" class="node">
<title>Node5</title>
<g id="a_Node000005"><a xlink:href="class_async_client.html#aaa5b952568c85d25c32d0dff8ec74794" target="_top" xlink:title=" ">
<polygon fill="#fff0f0" stroke="red" points="268.62,-488 158.88,-488 158.88,-468 268.62,-468 268.62,-488"/>
<text xml:space="preserve" text-anchor="middle" x="213.75" y="-474.5" font-family="Helvetica,sans-Serif" font-size="10.00">AsyncClient::connect</text>
</a>
</g>
</g>
<!-- Node3&#45;&gt;Node5 -->
<g id="edge4_Node000003_Node000005" class="edge">
<title>Node3&#45;&gt;Node5</title>
<g id="a_edge4_Node000003_Node000005"><a xlink:title=" ">
<path fill="none" stroke="#63b8ff" d="M324.19,-452.98C303.41,-457.74 280.17,-463.05 260.47,-467.55"/>
<polygon fill="#63b8ff" stroke="#63b8ff" points="324.69,-456.46 333.66,-450.82 323.13,-449.64 324.69,-456.46"/>
</a>
</g>
</g>
<!-- Node5&#45;&gt;Node4 -->
<g id="edge5_Node000005_Node000004" class="edge">
<title>Node5&#45;&gt;Node4</title>
<g id="a_edge5_Node000005_Node000004"><a xlink:title=" ">
<path fill="none" stroke="#63b8ff" d="M147.53,-470.1C135.12,-468.6 122.26,-467.04 110.23,-465.58"/>
<polygon fill="#63b8ff" stroke="#63b8ff" points="146.91,-473.55 157.26,-471.28 147.75,-466.6 146.91,-473.55"/>
</a>
</g>
</g>
<!-- Node12&#45;&gt;Node1 -->
<g id="edge11_Node000012_Node000001" class="edge">
<title>Node12&#45;&gt;Node1</title>
<g id="a_edge11_Node000012_Node000001"><a xlink:title=" ">
<path fill="none" stroke="#63b8ff" d="M457.5,-253.93C495.35,-258.98 540.78,-265.04 576.6,-269.81"/>
<polygon fill="#63b8ff" stroke="#63b8ff" points="458.41,-250.52 448.03,-252.67 457.48,-257.46 458.41,-250.52"/>
</a>
</g>
</g>
<!-- Node13 -->
<g id="Node000013" class="node">
<title>Node13</title>
<g id="a_Node000013"><a xlink:href="class_async_client.html#ac4cdb0990fa85f03da98d1c98b1f8611" target="_top" xlink:title=" ">
<polygon fill="#fff0f0" stroke="red" points="281.75,-298 145.75,-298 145.75,-278 281.75,-278 281.75,-298"/>
<text xml:space="preserve" text-anchor="middle" x="213.75" y="-284.5" font-family="Helvetica,sans-Serif" font-size="10.00">AsyncClient::_s_connected</text>
</a>
</g>
</g>
<!-- Node12&#45;&gt;Node13 -->
<g id="edge7_Node000012_Node000013" class="edge">
<title>Node12&#45;&gt;Node13</title>
<g id="a_edge7_Node000012_Node000013"><a xlink:title=" ">
<path fill="none" stroke="#63b8ff" d="M330.68,-257.32C306.14,-263.81 277.05,-271.51 254.15,-277.57"/>
<polygon fill="#63b8ff" stroke="#63b8ff" points="331.37,-260.76 340.14,-254.81 329.58,-253.99 331.37,-260.76"/>
</a>
</g>
</g>
<!-- Node7 -->
<g id="Node000007" class="node">
<title>Node7</title>
<g id="a_Node000007"><a xlink:href="class_async_client.html#a3f629c9072da183879a9c67878b374cc" target="_top" xlink:title=" ">
<polygon fill="#fff0f0" stroke="red" points="267.12,-260 160.38,-260 160.38,-228 267.12,-228 267.12,-260"/>
<text xml:space="preserve" text-anchor="start" x="168.38" y="-246.5" font-family="Helvetica,sans-Serif" font-size="10.00">AsyncClient::_s_dns</text>
<text xml:space="preserve" text-anchor="middle" x="213.75" y="-234.5" font-family="Helvetica,sans-Serif" font-size="10.00">_found</text>
</a>
</g>
</g>
<!-- Node12&#45;&gt;Node7 -->
<g id="edge8_Node000012_Node000007" class="edge">
<title>Node12&#45;&gt;Node7</title>
<g id="a_edge8_Node000012_Node000007"><a xlink:title=" ">
<path fill="none" stroke="#63b8ff" d="M306.31,-244C293.26,-244 279.93,-244 267.62,-244"/>
<polygon fill="#63b8ff" stroke="#63b8ff" points="306.16,-247.5 316.16,-244 306.16,-240.5 306.16,-247.5"/>
</a>
</g>
</g>
<!-- Node14 -->
<g id="Node000014" class="node">
<title>Node14</title>
<g id="a_Node000014"><a xlink:href="class_async_client.html#a9ff634e3b1237eab65178b007326367e" target="_top" xlink:title=" ">
<polygon fill="#fff0f0" stroke="red" points="269,-210 158.5,-210 158.5,-190 269,-190 269,-210"/>
<text xml:space="preserve" text-anchor="middle" x="213.75" y="-196.5" font-family="Helvetica,sans-Serif" font-size="10.00">AsyncClient::_s_error</text>
</a>
</g>
</g>
<!-- Node12&#45;&gt;Node14 -->
<g id="edge9_Node000012_Node000014" class="edge">
<title>Node12&#45;&gt;Node14</title>
<g id="a_edge9_Node000012_Node000014"><a xlink:title=" ">
<path fill="none" stroke="#63b8ff" d="M330.68,-230.68C306.14,-224.19 277.05,-216.49 254.15,-210.43"/>
<polygon fill="#63b8ff" stroke="#63b8ff" points="329.58,-234.01 340.14,-233.19 331.37,-227.24 329.58,-234.01"/>
</a>
</g>
</g>
<!-- Node15 -->
<g id="Node000015" class="node">
<title>Node15</title>
<g id="a_Node000015"><a xlink:href="class_async_client.html#a6a69c67e1a22660766affb64700c2276" target="_top" xlink:title=" ">
<polygon fill="#fff0f0" stroke="red" points="264.5,-172 163,-172 163,-152 264.5,-152 264.5,-172"/>
<text xml:space="preserve" text-anchor="middle" x="213.75" y="-158.5" font-family="Helvetica,sans-Serif" font-size="10.00">AsyncClient::_s_fin</text>
</a>
</g>
</g>
<!-- Node12&#45;&gt;Node15 -->
<g id="edge10_Node000012_Node000015" class="edge">
<title>Node12&#45;&gt;Node15</title>
<g id="a_edge10_Node000012_Node000015"><a xlink:title=" ">
<path fill="none" stroke="#63b8ff" d="M358.37,-226.94C338.91,-212.96 309.67,-193.5 281.75,-181 274.47,-177.74 266.49,-174.9 258.65,-172.47"/>
<polygon fill="#63b8ff" stroke="#63b8ff" points="356.23,-229.71 366.36,-232.79 360.36,-224.06 356.23,-229.71"/>
</a>
</g>
</g>
<!-- Node16 -->
<g id="Node000016" class="node">
<title>Node16</title>
<g id="a_Node000016"><a xlink:href="class_async_client.html#abe187c005c73fe6c0c94e1b3b20b55de" target="_top" xlink:title=" ">
<polygon fill="#fff0f0" stroke="red" points="266.75,-134 160.75,-134 160.75,-114 266.75,-114 266.75,-134"/>
<text xml:space="preserve" text-anchor="middle" x="213.75" y="-120.5" font-family="Helvetica,sans-Serif" font-size="10.00">AsyncClient::_s_poll</text>
</a>
</g>
</g>
<!-- Node12&#45;&gt;Node16 -->
<g id="edge12_Node000012_Node000016" class="edge">
<title>Node12&#45;&gt;Node16</title>
<g id="a_edge12_Node000012_Node000016"><a xlink:title=" ">
<path fill="none" stroke="#63b8ff" d="M367.05,-224.63C349.62,-201.8 317.67,-164.3 281.75,-143 276.03,-139.61 269.68,-136.8 263.22,-134.47"/>
<polygon fill="#63b8ff" stroke="#63b8ff" points="364.12,-226.55 372.9,-232.48 369.74,-222.37 364.12,-226.55"/>
</a>
</g>
</g>
<!-- Node17 -->
<g id="Node000017" class="node">
<title>Node17</title>
<g id="a_Node000017"><a xlink:href="class_async_client.html#af8136d3085c8948078a131bfb9430ec6" target="_top" xlink:title=" ">
<polygon fill="#fff0f0" stroke="red" points="268.62,-96 158.88,-96 158.88,-76 268.62,-76 268.62,-96"/>
<text xml:space="preserve" text-anchor="middle" x="213.75" y="-82.5" font-family="Helvetica,sans-Serif" font-size="10.00">AsyncClient::_s_recv</text>
</a>
</g>
</g>
<!-- Node12&#45;&gt;Node17 -->
<g id="edge13_Node000012_Node000017" class="edge">
<title>Node12&#45;&gt;Node17</title>
<g id="a_edge13_Node000012_Node000017"><a xlink:title=" ">
<path fill="none" stroke="#63b8ff" d="M371.92,-223.55C357.35,-193.08 325.82,-136.03 281.75,-105 276.91,-101.59 271.46,-98.79 265.82,-96.49"/>
<polygon fill="#63b8ff" stroke="#63b8ff" points="368.66,-224.83 376.03,-232.44 375.01,-221.9 368.66,-224.83"/>
</a>
</g>
</g>
<!-- Node18 -->
<g id="Node000018" class="node">
<title>Node18</title>
<g id="a_Node000018"><a xlink:href="class_async_client.html#a8e507d50b4cc3ae8e90f2e1c1ebf5f61" target="_top" xlink:title=" ">
<polygon fill="#fff0f0" stroke="red" points="268.62,-58 158.88,-58 158.88,-38 268.62,-38 268.62,-58"/>
<text xml:space="preserve" text-anchor="middle" x="213.75" y="-44.5" font-family="Helvetica,sans-Serif" font-size="10.00">AsyncClient::_s_sent</text>
</a>
</g>
</g>
<!-- Node12&#45;&gt;Node18 -->
<g id="edge14_Node000012_Node000018" class="edge">
<title>Node12&#45;&gt;Node18</title>
<g id="a_edge14_Node000012_Node000018"><a xlink:title=" ">
<path fill="none" stroke="#63b8ff" d="M375.01,-222.79C363.38,-185.53 334.18,-108.37 281.75,-67 277.38,-63.55 272.42,-60.73 267.22,-58.43"/>
<polygon fill="#63b8ff" stroke="#63b8ff" points="371.64,-223.75 377.86,-232.33 378.35,-221.75 371.64,-223.75"/>
</a>
</g>
</g>
<!-- Node19 -->
<g id="Node000019" class="node">
<title>Node19</title>
<g id="a_Node000019"><a xlink:href="class_async_client.html#a44e3b77c5567dbfeb25c50cfddf61653" target="_top" xlink:title=" ">
<polygon fill="white" stroke="#666666" points="273.5,-20 154,-20 154,0 273.5,0 273.5,-20"/>
<text xml:space="preserve" text-anchor="middle" x="213.75" y="-6.5" font-family="Helvetica,sans-Serif" font-size="10.00">AsyncClient::operator!=</text>
</a>
</g>
</g>
<!-- Node12&#45;&gt;Node19 -->
<g id="edge15_Node000012_Node000019" class="edge">
<title>Node12&#45;&gt;Node19</title>
<g id="a_edge15_Node000012_Node000019"><a xlink:title=" ">
<path fill="none" stroke="#63b8ff" d="M377.25,-222.52C368.56,-179.26 342.9,-81.28 281.75,-29 277.71,-25.54 273.07,-22.71 268.17,-20.4"/>
<polygon fill="#63b8ff" stroke="#63b8ff" points="373.77,-222.98 379.07,-232.15 380.65,-221.68 373.77,-222.98"/>
</a>
</g>
</g>
<!-- Node20 -->
<g id="Node000020" class="node">
<title>Node20</title>
<g id="a_Node000020"><a xlink:href="class_async_client.html#afaedf716feb9b363fe9b1ee7d82fbe9f" target="_top" xlink:title=" ">
<polygon fill="white" stroke="#666666" points="275,-374 152.5,-374 152.5,-354 275,-354 275,-374"/>
<text xml:space="preserve" text-anchor="middle" x="213.75" y="-360.5" font-family="Helvetica,sans-Serif" font-size="10.00">AsyncClient::operator+=</text>
</a>
</g>
</g>
<!-- Node12&#45;&gt;Node20 -->
<g id="edge16_Node000012_Node000020" class="edge">
<title>Node12&#45;&gt;Node20</title>
<g id="a_edge16_Node000012_Node000020"><a xlink:title=" ">
<path fill="none" stroke="#63b8ff" d="M367.05,-263.37C349.62,-286.2 317.67,-323.7 281.75,-345 276.03,-348.39 269.68,-351.2 263.22,-353.53"/>
<polygon fill="#63b8ff" stroke="#63b8ff" points="369.74,-265.63 372.9,-255.52 364.12,-261.45 369.74,-265.63"/>
</a>
</g>
</g>
<!-- Node12&#45;&gt;Node21 -->
<g id="edge17_Node000012_Node000021" class="edge">
<title>Node12&#45;&gt;Node21</title>
<g id="a_edge17_Node000012_Node000021"><a xlink:title=" ">
<path fill="none" stroke="#63b8ff" d="M365.88,-263.32C352.83,-280.17 333.63,-305.4 317.75,-328 300.95,-351.9 305.29,-365.7 281.75,-383 277.07,-386.44 271.8,-389.25 266.31,-391.56"/>
<polygon fill="#63b8ff" stroke="#63b8ff" points="368.48,-265.68 371.86,-255.64 362.95,-261.38 368.48,-265.68"/>
</a>
</g>
</g>
<!-- Node22 -->
<g id="Node000022" class="node">
<title>Node22</title>
<g id="a_Node000022"><a xlink:href="class_async_client.html#a40d147dfec9bbc2e8891273be25c5f39" target="_top" xlink:title=" ">
<polygon fill="white" stroke="#666666" points="275,-336 152.5,-336 152.5,-316 275,-316 275,-336"/>
<text xml:space="preserve" text-anchor="middle" x="213.75" y="-322.5" font-family="Helvetica,sans-Serif" font-size="10.00">AsyncClient::operator==</text>
</a>
</g>
</g>
<!-- Node12&#45;&gt;Node22 -->
<g id="edge18_Node000012_Node000022" class="edge">
<title>Node12&#45;&gt;Node22</title>
<g id="a_edge18_Node000012_Node000022"><a xlink:title=" ">
<path fill="none" stroke="#63b8ff" d="M358.37,-261.06C338.91,-275.04 309.67,-294.5 281.75,-307 274.47,-310.26 266.49,-313.1 258.65,-315.53"/>
<polygon fill="#63b8ff" stroke="#63b8ff" points="360.36,-263.94 366.36,-255.21 356.23,-258.29 360.36,-263.94"/>
</a>
</g>
</g>
</g>
</svg>

<g id="navigator" transform="translate(0 0)" fill="#404254">
  <rect fill="#f2f5e9" fill-opacity="0.5" stroke="#606060" stroke-width=".5" x="0" y="0" width="60" height="60"/>
  <use id="zoomplus" xlink:href="#zoomPlus" x="17" y="9" onmousedown="handleZoom(evt,'in')"/>
  <use id="zoomminus" xlink:href="#zoomMin" x="42" y="9" onmousedown="handleZoom(evt,'out')"/>
  <use id="reset" xlink:href="#resetDef" x="30" y="36" onmousedown="handleReset()"/>
   <use id="arrowup" xlink:href="#arrowUp" x="0" y="0" onmousedown="handlePan(0,-1)"/>
  <use id="arrowright" xlink:href="#arrowRight" x="0" y="0" onmousedown="handlePan(1,0)"/>
  <use id="arrowdown" xlink:href="#arrowDown" x="0" y="0" onmousedown="handlePan(0,1)"/>
  <use id="arrowleft" xlink:href="#arrowLeft" x="0" y="0" onmousedown="handlePan(-1,0)"/>
</g>
<svg viewBox="0 0 15 15" width="100%" height="30px" preserveAspectRatio="xMaxYMin meet">
 <g id="arrow_out" transform="scale(0.3 0.3)">
  <a xlink:href="class_async_client_a485b2be0c01d3172928c0ed9655edc2f_icgraph_org.svg" target="_base">
   <rect id="button" ry="5" rx="5" y="6" x="6" height="38" width="38"
        fill="#f2f5e9" fill-opacity="0.5" stroke="#606060" stroke-width="1.0"/>
   <path id="arrow"
     d="M 11.500037,31.436501 C 11.940474,20.09759 22.043105,11.32322 32.158766,21.979434 L 37.068811,17.246167 C 37.068811,17.246167 37.088388,32 37.088388,32 L 22.160133,31.978069 C 22.160133,31.978069 26.997745,27.140456 26.997745,27.140456 C 18.528582,18.264221 13.291696,25.230495 11.500037,31.436501 z"
     style="fill:#404040;"/>
  </a>
 </g>
</svg>

<style type='text/css'>
<![CDATA[
[data-mouse-over-selected='false'] { opacity: 0.7; }
[data-mouse-over-selected='true']  { opacity: 1.0; }
]]>
</style>
<script type="application/ecmascript"><![CDATA[
document.addEventListener('DOMContentLoaded', (event) => {
  highlightEdges();
  highlightAdjacentNodes();
});
]]></script>
</svg>
