<?xml version="1.0" encoding="UTF-8" standalone="no"?>
<!DOCTYPE svg PUBLIC "-//W3C//DTD SVG 1.1//EN"
 "http://www.w3.org/Graphics/SVG/1.1/DTD/svg11.dtd">
<!-- Generated by graphviz version 14.1.2 (20260124.0452)
 -->
<!-- Title: AsyncClient::_s_lwip_fin Pages: 1 -->
<svg width="540pt" height="151pt"
 viewBox="0.00 0.00 540.00 151.00" xmlns="http://www.w3.org/2000/svg" xmlns:xlink="http://www.w3.org/1999/xlink">
<g id="graph0" class="graph" transform="scale(1 1) rotate(0) translate(4 147)">
<title>AsyncClient::_s_lwip_fin</title>
<!-- Node1 -->
<g id="Node000001" class="node">
<title>Node1</title>
<g id="a_Node000001"><a xlink:title=" ">
<polygon fill="#999999" stroke="#666666" points="532,-58 408,-58 408,-38 532,-38 532,-58"/>
<text xml:space="preserve" text-anchor="middle" x="470" y="-44.5" font-family="Helvetica,sans-Serif" font-size="10.00">AsyncClient::_s_lwip_fin</text>
</a>
</g>
</g>
<!-- Node2 -->
<g id="Node000002" class="node">
<title>Node2</title>
<g id="a_Node000002"><a xlink:href="_async_t_c_p_8cpp.html#adf7826424bf5b1035c4850f6b3307686" target="_top" xlink:title=" ">
<polygon fill="white" stroke="#666666" points="372,-58 313.25,-58 313.25,-38 372,-38 372,-58"/>
<text xml:space="preserve" text-anchor="middle" x="342.62" y="-44.5" font-family="Helvetica,sans-Serif" font-size="10.00">_tcp_recv</text>
</a>
</g>
</g>
<!-- Node1&#45;&gt;Node2 -->
<g id="edge1_Node000001_Node000002" class="edge">
<title>Node1&#45;&gt;Node2</title>
<g id="a_edge1_Node000001_Node000002"><a xlink:title=" ">
<path fill="none" stroke="#63b8ff" d="M396.45,-48C387.9,-48 379.6,-48 372.21,-48"/>
<polygon fill="#63b8ff" stroke="#63b8ff" points="396.27,-51.5 406.27,-48 396.27,-44.5 396.27,-51.5"/>
</a>
</g>
</g>
<!-- Node3 -->
<g id="Node000003" class="node">
<title>Node3</title>
<g id="a_Node000003"><a xlink:href="class_async_client.html#a758eaca983e03027c99003a5808883f8" target="_top" xlink:title=" ">
<polygon fill="white" stroke="#666666" points="270.5,-114 155.5,-114 155.5,-94 270.5,-94 270.5,-114"/>
<text xml:space="preserve" text-anchor="middle" x="213" y="-100.5" font-family="Helvetica,sans-Serif" font-size="10.00">AsyncClient::_connect</text>
</a>
</g>
</g>
<!-- Node2&#45;&gt;Node3 -->
<g id="edge2_Node000002_Node000003" class="edge">
<title>Node2&#45;&gt;Node3</title>
<g id="a_edge2_Node000002_Node000003"><a xlink:title=" ">
<path fill="none" stroke="#63b8ff" d="M316.3,-64.36C304.72,-71.36 290.62,-79.24 277.25,-85 269.88,-88.18 261.81,-91.03 253.98,-93.51"/>
<polygon fill="#63b8ff" stroke="#63b8ff" points="317.81,-67.54 324.47,-59.3 314.13,-61.59 317.81,-67.54"/>
</a>
</g>
</g>
<!-- Node12 -->
<g id="Node000012" class="node">
<title>Node12</title>
<g id="a_Node000012"><a xlink:href="class_async_client.html#aefecfa0c75c8c1b32104115e93739087" target="_top" xlink:title=" ">
<polygon fill="white" stroke="#666666" points="277.25,-58 148.75,-58 148.75,-38 277.25,-38 277.25,-58"/>
<text xml:space="preserve" text-anchor="middle" x="213" y="-44.5" font-family="Helvetica,sans-Serif" font-size="10.00">AsyncClient::AsyncClient</text>
</a>
</g>
</g>
<!-- Node2&#45;&gt;Node12 -->
<g id="edge5_Node000002_Node000012" class="edge">
<title>Node2&#45;&gt;Node12</title>
<g id="a_edge5_Node000002_Node000012"><a xlink:title=" ">
<path fill="none" stroke="#63b8ff" d="M301.48,-48C293.84,-48 285.66,-48 277.5,-48"/>
<polygon fill="#63b8ff" stroke="#63b8ff" points="301.47,-51.5 311.47,-48 301.47,-44.5 301.47,-51.5"/>
</a>
</g>
</g>
<!-- Node15 -->
<g id="Node000015" class="node">
<title>Node15</title>
<g id="a_Node000015"><a xlink:href="class_async_client.html#a575c12664279634155259e007c6a104f" target="_top" xlink:title=" ">
<polygon fill="white" stroke="#666666" points="271.25,-20 154.75,-20 154.75,0 271.25,0 271.25,-20"/>
<text xml:space="preserve" text-anchor="middle" x="213" y="-6.5" font-family="Helvetica,sans-Serif" font-size="10.00">AsyncClient::operator=</text>
</a>
</g>
</g>
<!-- Node2&#45;&gt;Node15 -->
<g id="edge8_Node000002_Node000015" class="edge">
<title>Node2&#45;&gt;Node15</title>
<g id="a_edge8_Node000002_Node000015"><a xlink:title=" ">
<path fill="none" stroke="#63b8ff" d="M302.24,-36.27C285.2,-31.2 265.42,-25.31 248.91,-20.4"/>
<polygon fill="#63b8ff" stroke="#63b8ff" points="300.95,-39.54 311.53,-39.04 302.95,-32.83 300.95,-39.54"/>
</a>
</g>
</g>
<!-- Node4 -->
<g id="Node000004" class="node">
<title>Node4</title>
<g id="a_Node000004"><a xlink:href="class_async_client.html#a260e075caca9a58241f2fad754cc412b" target="_top" xlink:title=" ">
<polygon fill="white" stroke="#666666" points="111.25,-143 1.5,-143 1.5,-123 111.25,-123 111.25,-143"/>
<text xml:space="preserve" text-anchor="middle" x="56.38" y="-129.5" font-family="Helvetica,sans-Serif" font-size="10.00">AsyncClient::connect</text>
</a>
</g>
</g>
<!-- Node3&#45;&gt;Node4 -->
<g id="edge3_Node000003_Node000004" class="edge">
<title>Node3&#45;&gt;Node4</title>
<g id="a_edge3_Node000003_Node000004"><a xlink:title=" ">
<path fill="none" stroke="#63b8ff" d="M145.11,-116.55C133.9,-118.65 122.4,-120.8 111.56,-122.84"/>
<polygon fill="#63b8ff" stroke="#63b8ff" points="145.51,-120.03 154.69,-114.75 144.22,-113.15 145.51,-120.03"/>
</a>
</g>
</g>
<!-- Node5 -->
<g id="Node000005" class="node">
<title>Node5</title>
<g id="a_Node000005"><a xlink:href="class_async_client.html#aaa5b952568c85d25c32d0dff8ec74794" target="_top" xlink:title=" ">
<polygon fill="#fff0f0" stroke="red" points="111.25,-105 1.5,-105 1.5,-85 111.25,-85 111.25,-105"/>
<text xml:space="preserve" text-anchor="middle" x="56.38" y="-91.5" font-family="Helvetica,sans-Serif" font-size="10.00">AsyncClient::connect</text>
</a>
</g>
</g>
<!-- Node3&#45;&gt;Node5 -->
<g id="edge4_Node000003_Node000005" class="edge">
<title>Node3&#45;&gt;Node5</title>
<g id="a_edge4_Node000003_Node000005"><a xlink:title=" ">
<path fill="none" stroke="#63b8ff" d="M144.14,-100.05C133.3,-99.42 122.22,-98.77 111.75,-98.16"/>
<polygon fill="#63b8ff" stroke="#63b8ff" points="143.6,-103.52 153.79,-100.61 144.01,-96.54 143.6,-103.52"/>
</a>
</g>
</g>
<!-- Node12&#45;&gt;Node12 -->
<g id="edge7_Node000012_Node000012" class="edge">
<title>Node12&#45;&gt;Node12</title>
<g id="a_edge7_Node000012_Node000012"><a xlink:title=" ">
<path fill="none" stroke="#63b8ff" d="M235.91,-69.44C232.96,-73.3 225.32,-76 213,-76 190.47,-76 183.6,-66.98 192.4,-58.34"/>
<polygon fill="#63b8ff" stroke="#63b8ff" points="239.37,-68.9 233.9,-59.82 232.52,-70.32 239.37,-68.9"/>
</a>
</g>
</g>
<!-- Node13 -->
<g id="Node000013" class="node">
<title>Node13</title>
<g id="a_Node000013"><a xlink:href="class_async_server.html#a51e55999b79eec50bd68e899b8ddd4e4" target="_top" xlink:title=" ">
<polygon fill="#fff0f0" stroke="red" points="112.75,-58 0,-58 0,-38 112.75,-38 112.75,-58"/>
<text xml:space="preserve" text-anchor="middle" x="56.38" y="-44.5" font-family="Helvetica,sans-Serif" font-size="10.00">AsyncServer::_accept</text>
</a>
</g>
</g>
<!-- Node12&#45;&gt;Node13 -->
<g id="edge6_Node000012_Node000013" class="edge">
<title>Node12&#45;&gt;Node13</title>
<g id="a_edge6_Node000012_Node000013"><a xlink:title=" ">
<path fill="none" stroke="#63b8ff" d="M137.18,-48C129.01,-48 120.81,-48 112.94,-48"/>
<polygon fill="#63b8ff" stroke="#63b8ff" points="137.15,-51.5 147.15,-48 137.15,-44.5 137.15,-51.5"/>
</a>
</g>
</g>
</g>
</svg>
