<?xml version="1.0" encoding="UTF-8" standalone="no"?>
<!DOCTYPE svg PUBLIC "-//W3C//DTD SVG 1.1//EN"
 "http://www.w3.org/Graphics/SVG/1.1/DTD/svg11.dtd">
<!-- Generated by graphviz version 14.1.2 (20260124.0452)
 -->
<!-- Title: AsyncClient::_connect Pages: 1 -->
<svg width="573pt" height="72pt"
 viewBox="0.00 0.00 573.00 72.00" xmlns="http://www.w3.org/2000/svg" xmlns:xlink="http://www.w3.org/1999/xlink">
<g id="graph0" class="graph" transform="scale(1 1) rotate(0) translate(4 68)">
<title>AsyncClient::_connect</title>
<!-- Node1 -->
<g id="Node000001" class="node">
<title>Node1</title>
<g id="a_Node000001"><a xlink:title=" ">
<polygon fill="#999999" stroke="#666666" points="565,-45 450,-45 450,-25 565,-25 565,-45"/>
<text xml:space="preserve" text-anchor="middle" x="507.5" y="-31.5" font-family="Helvetica,sans-Serif" font-size="10.00">AsyncClient::_connect</text>
</a>
</g>
</g>
<!-- Node2 -->
<g id="Node000002" class="node">
<title>Node2</title>
<g id="a_Node000002"><a xlink:href="class_async_client.html#a260e075caca9a58241f2fad754cc412b" target="_top" xlink:title=" ">
<polygon fill="white" stroke="#666666" points="414,-64 304.25,-64 304.25,-44 414,-44 414,-64"/>
<text xml:space="preserve" text-anchor="middle" x="359.12" y="-50.5" font-family="Helvetica,sans-Serif" font-size="10.00">AsyncClient::connect</text>
</a>
</g>
</g>
<!-- Node1&#45;&gt;Node2 -->
<g id="edge1_Node000001_Node000002" class="edge">
<title>Node1&#45;&gt;Node2</title>
<g id="a_edge1_Node000001_Node000002"><a xlink:title=" ">
<path fill="none" stroke="#63b8ff" d="M438.76,-43.79C430.51,-44.86 422.17,-45.95 414.16,-46.99"/>
<polygon fill="#63b8ff" stroke="#63b8ff" points="438.94,-47.3 448.41,-42.54 438.04,-40.36 438.94,-47.3"/>
</a>
</g>
</g>
<!-- Node3 -->
<g id="Node000003" class="node">
<title>Node3</title>
<g id="a_Node000003"><a xlink:href="class_async_client.html#aaa5b952568c85d25c32d0dff8ec74794" target="_top" xlink:title=" ">
<polygon fill="white" stroke="#666666" points="414,-26 304.25,-26 304.25,-6 414,-6 414,-26"/>
<text xml:space="preserve" text-anchor="middle" x="359.12" y="-12.5" font-family="Helvetica,sans-Serif" font-size="10.00">AsyncClient::connect</text>
</a>
</g>
</g>
<!-- Node1&#45;&gt;Node3 -->
<g id="edge2_Node000001_Node000003" class="edge">
<title>Node1&#45;&gt;Node3</title>
<g id="a_edge2_Node000001_Node000003"><a xlink:title=" ">
<path fill="none" stroke="#63b8ff" d="M438.76,-26.21C430.51,-25.14 422.17,-24.05 414.16,-23.01"/>
<polygon fill="#63b8ff" stroke="#63b8ff" points="438.04,-29.64 448.41,-27.46 438.94,-22.7 438.04,-29.64"/>
</a>
</g>
</g>
<!-- Node4 -->
<g id="Node000004" class="node">
<title>Node4</title>
<g id="a_Node000004"><a xlink:href="class_async_client.html#a19dc40652b5b003288e10529ee169b65" target="_top" xlink:title=" ">
<polygon fill="white" stroke="#666666" points="268.25,-26 142.75,-26 142.75,-6 268.25,-6 268.25,-26"/>
<text xml:space="preserve" text-anchor="middle" x="205.5" y="-12.5" font-family="Helvetica,sans-Serif" font-size="10.00">AsyncClient::_dns_found</text>
</a>
</g>
</g>
<!-- Node3&#45;&gt;Node4 -->
<g id="edge3_Node000003_Node000004" class="edge">
<title>Node3&#45;&gt;Node4</title>
<g id="a_edge3_Node000003_Node000004"><a xlink:title=" ">
<path fill="none" stroke="#63b8ff" d="M292.42,-16C284.54,-16 276.51,-16 268.69,-16"/>
<polygon fill="#63b8ff" stroke="#63b8ff" points="292.3,-19.5 302.3,-16 292.3,-12.5 292.3,-19.5"/>
</a>
</g>
</g>
<!-- Node5 -->
<g id="Node000005" class="node">
<title>Node5</title>
<g id="a_Node000005"><a xlink:href="class_async_client.html#a3f629c9072da183879a9c67878b374cc" target="_top" xlink:title=" ">
<polygon fill="#fff0f0" stroke="red" points="106.75,-32 0,-32 0,0 106.75,0 106.75,-32"/>
<text xml:space="preserve" text-anchor="start" x="8" y="-18.5" font-family="Helvetica,sans-Serif" font-size="10.00">AsyncClient::_s_dns</text>
<text xml:space="preserve" text-anchor="middle" x="53.38" y="-6.5" font-family="Helvetica,sans-Serif" font-size="10.00">_found</text>
</a>
</g>
</g>
<!-- Node4&#45;&gt;Node5 -->
<g id="edge4_Node000004_Node000005" class="edge">
<title>Node4&#45;&gt;Node5</title>
<g id="a_edge4_Node000004_Node000005"><a xlink:title=" ">
<path fill="none" stroke="#63b8ff" d="M131.14,-16C123.02,-16 114.87,-16 107.07,-16"/>
<polygon fill="#63b8ff" stroke="#63b8ff" points="131.06,-19.5 141.06,-16 131.06,-12.5 131.06,-19.5"/>
</a>
</g>
</g>
</g>
</svg>
