<?xml version="1.0" encoding="UTF-8" standalone="no"?>
<!DOCTYPE svg PUBLIC "-//W3C//DTD SVG 1.1//EN"
 "http://www.w3.org/Graphics/SVG/1.1/DTD/svg11.dtd">
<!-- Generated by graphviz version 14.1.2 (20260124.0452)
 -->
<!-- Title: AuthSync::isAuthorized Pages: 1 -->
<!--zoomable 116 -->

<svg id="main" version="1.1" xmlns="http://www.w3.org/2000/svg" xmlns:xlink="http://www.w3.org/1999/xlink" xml:space="preserve" onload="init(evt)">

<style type="text/css"><![CDATA[
.node, .edge {opacity: 0.7;}
.node.selected, .edge.selected {opacity: 1;}
.edge:hover path { stroke: red; }
.edge:hover polygon { stroke: red; fill: red; }
]]></style>

<defs>
  <circle id="rim" cx="0" cy="0" r="7"/>
  <circle id="rim2" cx="0" cy="0" r="3.5"/>
  <g id="zoomPlus">
    <use xlink:href="#rim" fill="#404040"><set attributeName="fill" to="#808080" begin="zoomplus.mouseover" end="zoomplus.mouseout"/></use>
    <path d="M-4,0h8M0,-4v8" fill="none" stroke="white" stroke-width="1.5" pointer-events="none"/>
  </g>
  <g id="zoomMin">
    <use xlink:href="#rim" fill="#404040"><set attributeName="fill" to="#808080" begin="zoomminus.mouseover" end="zoomminus.mouseout"/></use>
    <path d="M-4,0h8" fill="none" stroke="white" stroke-width="1.5" pointer-events="none"/>
  </g>
  <g id="arrowUp" transform="translate(30 24)">
    <use xlink:href="#rim"/>
    <path pointer-events="none" fill="none" stroke="white" stroke-width="1.5" d="M0,-3.0v7 M-2.5,-0.5L0,-3.0L2.5,-0.5"/>
  </g>
  <g id="arrowRight" transform="rotate(90) translate(36 -43)">
    <use xlink:href="#rim"/>
    <path pointer-events="none" fill="none" stroke="white" stroke-width="1.5" d="M0,-3.0v7 M-2.5,-0.5L0,-3.0L2.5,-0.5"/>
  </g>
  <g id="arrowDown" transform="rotate(180) translate(-30 -48)">
    <use xlink:href="#rim"/>
    <path pointer-events="none" fill="none" stroke="white" stroke-width="1.5" d="M0,-3.0v7 M-2.5,-0.5L0,-3.0L2.5,-0.5"/>
  </g>
  <g id="arrowLeft" transform="rotate(270) translate(-36 17)">
    <use xlink:href="#rim"/>
    <path pointer-events="none" fill="none" stroke="white" stroke-width="1.5" d="M0,-3.0v7 M-2.5,-0.5L0,-3.0L2.5,-0.5"/>
  </g>
  <g id="resetDef">
    <use xlink:href="#rim2" fill="#404040"><set attributeName="fill" to="#808080" begin="reset.mouseover" end="reset.mouseout"/></use>
  </g>
</defs>
<script type="application/ecmascript">
var viewWidth = 673;
var viewHeight = 116;
var sectionId = 'dynsection-12';
</script>
<script type="application/ecmascript" xlink:href="svg.min.js"/>
<svg id="graph" class="graph">
<g id="viewport">
<title>AuthSync::isAuthorized</title>
<!-- Node1 -->
<g id="Node000001" class="node">
<title>Node1</title>
<g id="a_Node000001"><a xlink:title=" ">
<polygon fill="#999999" stroke="#666666" points="118.75,-70 0,-70 0,-50 118.75,-50 118.75,-70"/>
<text xml:space="preserve" text-anchor="middle" x="59.38" y="-56.5" font-family="Helvetica,sans-Serif" font-size="10.00">AuthSync::isAuthorized</text>
</a>
</g>
</g>
<!-- Node2 -->
<g id="Node000002" class="node">
<title>Node2</title>
<g id="a_Node000002"><a xlink:href="class_auth_sync.html#a4e7f7720c3b9e51ceb1ab4d911f03e23" target="_top" xlink:title=" ">
<polygon fill="white" stroke="#666666" points="291.12,-70 160.38,-70 160.38,-50 291.12,-50 291.12,-70"/>
<text xml:space="preserve" text-anchor="middle" x="225.75" y="-56.5" font-family="Helvetica,sans-Serif" font-size="10.00">AuthSync::addKnownAuth</text>
</a>
</g>
</g>
<!-- Node1&#45;&gt;Node2 -->
<g id="edge1_Node000001_Node000002" class="edge">
<title>Node1&#45;&gt;Node2</title>
<g id="a_edge1_Node000001_Node000002"><a xlink:title=" ">
<path fill="none" stroke="#63b8ff" d="M118.79,-60C128.51,-60 138.72,-60 148.8,-60"/>
<polygon fill="#63b8ff" stroke="#63b8ff" points="148.58,-63.5 158.58,-60 148.58,-56.5 148.58,-63.5"/>
</a>
</g>
</g>
<!-- Node3 -->
<g id="Node000003" class="node">
<title>Node3</title>
<g id="a_Node000003"><a xlink:href="class_auth_sync.html#afea91831a16e241cc5db5163299fc900" target="_top" xlink:title=" ">
<polygon fill="white" stroke="#666666" points="453,-108 352.25,-108 352.25,-88 453,-88 453,-108"/>
<text xml:space="preserve" text-anchor="middle" x="402.62" y="-94.5" font-family="Helvetica,sans-Serif" font-size="10.00">AuthSync::hashUid</text>
</a>
</g>
</g>
<!-- Node1&#45;&gt;Node3 -->
<g id="edge7_Node000001_Node000003" class="edge">
<title>Node1&#45;&gt;Node3</title>
<g id="a_edge7_Node000001_Node000003"><a xlink:title=" ">
<path fill="none" stroke="#63b8ff" d="M106.26,-70.41C121.61,-73.57 138.86,-76.8 154.75,-79 217.76,-87.73 290.41,-92.72 340.5,-95.37"/>
<polygon fill="#63b8ff" stroke="#63b8ff" points="340.11,-98.86 350.27,-95.87 340.46,-91.86 340.11,-98.86"/>
</a>
</g>
</g>
<!-- Node8 -->
<g id="Node000008" class="node">
<title>Node8</title>
<g id="a_Node000008"><a xlink:href="class_auth_sync.html#a30cbd10c13742a6ab7bafc4011480fec" target="_top" xlink:title=" ">
<polygon fill="white" stroke="#666666" points="296.75,-32 154.75,-32 154.75,0 296.75,0 296.75,-32"/>
<text xml:space="preserve" text-anchor="start" x="162.75" y="-18.5" font-family="Helvetica,sans-Serif" font-size="10.00">AuthSync::getCardAuthFrom</text>
<text xml:space="preserve" text-anchor="middle" x="225.75" y="-6.5" font-family="Helvetica,sans-Serif" font-size="10.00">Server</text>
</a>
</g>
</g>
<!-- Node1&#45;&gt;Node8 -->
<g id="edge6_Node000001_Node000008" class="edge">
<title>Node1&#45;&gt;Node8</title>
<g id="a_edge6_Node000001_Node000008"><a xlink:title=" ">
<path fill="none" stroke="#63b8ff" d="M99.33,-49.57C115.21,-45.32 134.09,-40.27 152.33,-35.39"/>
<polygon fill="#63b8ff" stroke="#63b8ff" points="153.05,-38.82 161.8,-32.85 151.24,-32.06 153.05,-38.82"/>
</a>
</g>
</g>
<!-- Node2&#45;&gt;Node3 -->
<g id="edge2_Node000002_Node000003" class="edge">
<title>Node2&#45;&gt;Node3</title>
<g id="a_edge2_Node000002_Node000003"><a xlink:title=" ">
<path fill="none" stroke="#63b8ff" d="M275,-70.48C295.83,-75.01 320.41,-80.35 342.34,-85.12"/>
<polygon fill="#63b8ff" stroke="#63b8ff" points="341.54,-88.53 352.06,-87.23 343.03,-81.68 341.54,-88.53"/>
</a>
</g>
</g>
<!-- Node6 -->
<g id="Node000006" class="node">
<title>Node6</title>
<g id="a_Node000006"><a xlink:href="class_auth_sync.html#a96c599b762bdafa672930dfa6f07ff13" target="_top" xlink:title=" ">
<polygon fill="white" stroke="#666666" points="472.5,-70 332.75,-70 332.75,-50 472.5,-50 472.5,-70"/>
<text xml:space="preserve" text-anchor="middle" x="402.62" y="-56.5" font-family="Helvetica,sans-Serif" font-size="10.00">AuthSync::saveETagToNVS</text>
</a>
</g>
</g>
<!-- Node2&#45;&gt;Node6 -->
<g id="edge4_Node000002_Node000006" class="edge">
<title>Node2&#45;&gt;Node6</title>
<g id="a_edge4_Node000002_Node000006"><a xlink:title=" ">
<path fill="none" stroke="#63b8ff" d="M291.37,-60C300.95,-60 310.92,-60 320.79,-60"/>
<polygon fill="#63b8ff" stroke="#63b8ff" points="320.77,-63.5 330.77,-60 320.77,-56.5 320.77,-63.5"/>
</a>
</g>
</g>
<!-- Node4 -->
<g id="Node000004" class="node">
<title>Node4</title>
<g id="a_Node000004"><a xlink:href="namespace_hash_utils.html#a3432774829b6752dc346491bc5dd5eec" target="_top" xlink:title=" ">
<polygon fill="#fff0f0" stroke="red" points="637.38,-108 535.88,-108 535.88,-88 637.38,-88 637.38,-108"/>
<text xml:space="preserve" text-anchor="middle" x="586.62" y="-94.5" font-family="Helvetica,sans-Serif" font-size="10.00">HashUtils::hashUid</text>
</a>
</g>
</g>
<!-- Node3&#45;&gt;Node4 -->
<g id="edge3_Node000003_Node000004" class="edge">
<title>Node3&#45;&gt;Node4</title>
<g id="a_edge3_Node000003_Node000004"><a xlink:title=" ">
<path fill="none" stroke="#63b8ff" d="M453.36,-98C475.24,-98 501.15,-98 524.22,-98"/>
<polygon fill="#63b8ff" stroke="#63b8ff" points="524.12,-101.5 534.12,-98 524.12,-94.5 524.12,-101.5"/>
</a>
</g>
</g>
<!-- Node7 -->
<g id="Node000007" class="node">
<title>Node7</title>
<g id="a_Node000007"><a xlink:href="class_auth_sync.html#ad84e54dba300b040ae8655c915d5313f" target="_top" xlink:title=" ">
<polygon fill="white" stroke="#666666" points="664.75,-70 508.5,-70 508.5,-50 664.75,-50 664.75,-70"/>
<text xml:space="preserve" text-anchor="middle" x="586.62" y="-56.5" font-family="Helvetica,sans-Serif" font-size="10.00">AuthSync::saveAllowDenyToFS</text>
</a>
</g>
</g>
<!-- Node6&#45;&gt;Node7 -->
<g id="edge5_Node000006_Node000007" class="edge">
<title>Node6&#45;&gt;Node7</title>
<g id="a_edge5_Node000006_Node000007"><a xlink:title=" ">
<path fill="none" stroke="#63b8ff" d="M472.95,-60C480.8,-60 488.88,-60 496.94,-60"/>
<polygon fill="#63b8ff" stroke="#63b8ff" points="496.77,-63.5 506.77,-60 496.77,-56.5 496.77,-63.5"/>
</a>
</g>
</g>
</g>
</svg>

<g id="navigator" transform="translate(0 0)" fill="#404254">
  <rect fill="#f2f5e9" fill-opacity="0.5" stroke="#606060" stroke-width=".5" x="0" y="0" width="60" height="60"/>
  <use id="zoomplus" xlink:href="#zoomPlus" x="17" y="9" onmousedown="handleZoom(evt,'in')"/>
  <use id="zoomminus" xlink:href="#zoomMin" x="42" y="9" onmousedown="handleZoom(evt,'out')"/>
  <use id="reset" xlink:href="#resetDef" x="30" y="36" onmousedown="handleReset()"/>
   <use id="arrowup" xlink:href="#arrowUp" x="0" y="0" onmousedown="handlePan(0,-1)"/>
  <use id="arrowright" xlink:href="#arrowRight" x="0" y="0" onmousedown="handlePan(1,0)"/>
  <use id="arrowdown" xlink:href="#arrowDown" x="0" y="0" onmousedown="handlePan(0,1)"/>
  <use id="arrowleft" xlink:href="#arrowLeft" x="0" y="0" onmousedown="handlePan(-1,0)"/>
</g>
<svg viewBox="0 0 15 15" width="100%" height="30px" preserveAspectRatio="xMaxYMin meet">
 <g id="arrow_out" transform="scale(0.3 0.3)">
  <a xlink:href="class_auth_sync_aeb16a776532ee69ba1ca44b11904a2c2_cgraph_org.svg" target="_base">
   <rect id="button" ry="5" rx="5" y="6" x="6" height="38" width="38"
        fill="#f2f5e9" fill-opacity="0.5" stroke="#606060" stroke-width="1.0"/>
   <path id="arrow"
     d="M 11.500037,31.436501 C 11.940474,20.09759 22.043105,11.32322 32.158766,21.979434 L 37.068811,17.246167 C 37.068811,17.246167 37.088388,32 37.088388,32 L 22.160133,31.978069 C 22.160133,31.978069 26.997745,27.140456 26.997745,27.140456 C 18.528582,18.264221 13.291696,25.230495 11.500037,31.436501 z"
     style="fill:#404040;"/>
  </a>
 </g>
</svg>

<style type='text/css'>
<![CDATA[
[data-mouse-over-selected='false'] { opacity: 0.7; }
[data-mouse-over-selected='true']  { opacity: 1.0; }
]]>
</style>
<script type="application/ecmascript"><![CDATA[
document.addEventListener('DOMContentLoaded', (event) => {
  highlightEdges();
  highlightAdjacentNodes();
});
]]></script>
</svg>
