<?xml version="1.0" encoding="UTF-8" standalone="no"?>
<!DOCTYPE svg PUBLIC "-//W3C//DTD SVG 1.1//EN"
 "http://www.w3.org/Graphics/SVG/1.1/DTD/svg11.dtd">
<!-- Generated by graphviz version 14.1.2 (20260124.0452)
 -->
<!-- Title: AuthSync::begin Pages: 1 -->
<svg width="674pt" height="199pt"
 viewBox="0.00 0.00 674.00 199.00" xmlns="http://www.w3.org/2000/svg" xmlns:xlink="http://www.w3.org/1999/xlink">
<g id="graph0" class="graph" transform="scale(1 1) rotate(0) translate(4 195)">
<title>AuthSync::begin</title>
<!-- Node1 -->
<g id="Node000001" class="node">
<title>Node1</title>
<g id="a_Node000001"><a xlink:title=" ">
<polygon fill="#999999" stroke="#666666" points="88,-153 0,-153 0,-133 88,-133 88,-153"/>
<text xml:space="preserve" text-anchor="middle" x="44" y="-139.5" font-family="Helvetica,sans-Serif" font-size="10.00">AuthSync::begin</text>
</a>
</g>
</g>
<!-- Node2 -->
<g id="Node000002" class="node">
<title>Node2</title>
<g id="a_Node000002"><a xlink:href="class_auth_sync.html#ac017101fb171c69cdf5449a54b9832ac" target="_top" xlink:title=" ">
<polygon fill="white" stroke="#666666" points="270.12,-191 126.62,-191 126.62,-171 270.12,-171 270.12,-191"/>
<text xml:space="preserve" text-anchor="middle" x="198.38" y="-177.5" font-family="Helvetica,sans-Serif" font-size="10.00">AuthSync::loadBitsetFromFS</text>
</a>
</g>
</g>
<!-- Node1&#45;&gt;Node2 -->
<g id="edge1_Node000001_Node000002" class="edge">
<title>Node1&#45;&gt;Node2</title>
<g id="a_edge1_Node000001_Node000002"><a xlink:title=" ">
<path fill="none" stroke="#63b8ff" d="M87.04,-153.48C104.78,-157.91 125.63,-163.11 144.4,-167.79"/>
<polygon fill="#63b8ff" stroke="#63b8ff" points="143.45,-171.16 154,-170.18 145.15,-164.37 143.45,-171.16"/>
</a>
</g>
</g>
<!-- Node3 -->
<g id="Node000003" class="node">
<title>Node3</title>
<g id="a_Node000003"><a xlink:href="class_auth_sync.html#a068f973556d6acd59bf12b10220d26b0" target="_top" xlink:title=" ">
<polygon fill="white" stroke="#666666" points="272.75,-153 124,-153 124,-133 272.75,-133 272.75,-153"/>
<text xml:space="preserve" text-anchor="middle" x="198.38" y="-139.5" font-family="Helvetica,sans-Serif" font-size="10.00">AuthSync::loadETagFromNVS</text>
</a>
</g>
</g>
<!-- Node1&#45;&gt;Node3 -->
<g id="edge2_Node000001_Node000003" class="edge">
<title>Node1&#45;&gt;Node3</title>
<g id="a_edge2_Node000001_Node000003"><a xlink:title=" ">
<path fill="none" stroke="#63b8ff" d="M88.26,-143C95.88,-143 104.04,-143 112.35,-143"/>
<polygon fill="#63b8ff" stroke="#63b8ff" points="112.22,-146.5 122.22,-143 112.22,-139.5 112.22,-146.5"/>
</a>
</g>
</g>
<!-- Node5 -->
<g id="Node000005" class="node">
<title>Node5</title>
<g id="a_Node000005"><a xlink:href="class_auth_sync.html#ab2999f3e828083471d482f9bde0d72f2" target="_top" xlink:title=" ">
<polygon fill="white" stroke="#666666" points="266.75,-96 130,-96 130,-76 266.75,-76 266.75,-96"/>
<text xml:space="preserve" text-anchor="middle" x="198.38" y="-82.5" font-family="Helvetica,sans-Serif" font-size="10.00">AuthSync::syncFromServer</text>
</a>
</g>
</g>
<!-- Node1&#45;&gt;Node5 -->
<g id="edge4_Node000001_Node000005" class="edge">
<title>Node1&#45;&gt;Node5</title>
<g id="a_edge4_Node000001_Node000005"><a xlink:title=" ">
<path fill="none" stroke="#63b8ff" d="M72.95,-132.55C97.04,-123.53 132.05,-110.43 158.81,-100.43"/>
<polygon fill="#63b8ff" stroke="#63b8ff" points="159.79,-103.8 167.93,-97.02 157.34,-97.24 159.79,-103.8"/>
</a>
</g>
</g>
<!-- Node4 -->
<g id="Node000004" class="node">
<title>Node4</title>
<g id="a_Node000004"><a xlink:href="class_auth_sync.html#a15f7b64e6f52b59c941b3d0077947d0a" target="_top" xlink:title=" ">
<polygon fill="white" stroke="#666666" points="474,-172 308.75,-172 308.75,-152 474,-152 474,-172"/>
<text xml:space="preserve" text-anchor="middle" x="391.38" y="-158.5" font-family="Helvetica,sans-Serif" font-size="10.00">AuthSync::loadAllowDenyFromFS</text>
</a>
</g>
</g>
<!-- Node3&#45;&gt;Node4 -->
<g id="edge3_Node000003_Node000004" class="edge">
<title>Node3&#45;&gt;Node4</title>
<g id="a_edge3_Node000003_Node000004"><a xlink:title=" ">
<path fill="none" stroke="#63b8ff" d="M273.22,-150.35C281.07,-151.13 289.12,-151.93 297.16,-152.73"/>
<polygon fill="#63b8ff" stroke="#63b8ff" points="296.67,-156.2 306.97,-153.7 297.36,-149.23 296.67,-156.2"/>
</a>
</g>
</g>
<!-- Node6 -->
<g id="Node000006" class="node">
<title>Node6</title>
<g id="a_Node000006"><a xlink:href="class_auth_sync.html#aab1e2b7beebdab60e16d9b3a50678efd" target="_top" xlink:title=" ">
<polygon fill="white" stroke="#666666" points="655,-96 521.25,-96 521.25,-76 655,-76 655,-96"/>
<text xml:space="preserve" text-anchor="middle" x="588.12" y="-82.5" font-family="Helvetica,sans-Serif" font-size="10.00">AuthSync::calcBitsetBytes</text>
</a>
</g>
</g>
<!-- Node5&#45;&gt;Node6 -->
<g id="edge5_Node000005_Node000006" class="edge">
<title>Node5&#45;&gt;Node6</title>
<g id="a_edge5_Node000005_Node000006"><a xlink:title=" ">
<path fill="none" stroke="#63b8ff" d="M248.96,-96.47C267.61,-99.92 289.07,-103.3 308.75,-105 381.92,-111.31 400.81,-111.1 474,-105 490.53,-103.62 508.27,-101.13 524.7,-98.39"/>
<polygon fill="#63b8ff" stroke="#63b8ff" points="525.07,-101.88 534.33,-96.73 523.88,-94.98 525.07,-101.88"/>
</a>
</g>
</g>
<!-- Node7 -->
<g id="Node000007" class="node">
<title>Node7</title>
<g id="a_Node000007"><a xlink:href="class_auth_sync.html#a4a8d3b99ed3bfb87ab36b2abbcce0594" target="_top" xlink:title=" ">
<polygon fill="white" stroke="#666666" points="458.62,-96 324.12,-96 324.12,-76 458.62,-76 458.62,-96"/>
<text xml:space="preserve" text-anchor="middle" x="391.38" y="-82.5" font-family="Helvetica,sans-Serif" font-size="10.00">AuthSync::saveBitsetToFS</text>
</a>
</g>
</g>
<!-- Node5&#45;&gt;Node7 -->
<g id="edge6_Node000005_Node000007" class="edge">
<title>Node5&#45;&gt;Node7</title>
<g id="a_edge6_Node000005_Node000007"><a xlink:title=" ">
<path fill="none" stroke="#63b8ff" d="M266.98,-86C281.69,-86 297.37,-86 312.44,-86"/>
<polygon fill="#63b8ff" stroke="#63b8ff" points="312.31,-89.5 322.31,-86 312.31,-82.5 312.31,-89.5"/>
</a>
</g>
</g>
<!-- Node8 -->
<g id="Node000008" class="node">
<title>Node8</title>
<g id="a_Node000008"><a xlink:href="class_auth_sync.html#a96c599b762bdafa672930dfa6f07ff13" target="_top" xlink:title=" ">
<polygon fill="white" stroke="#666666" points="461.25,-20 321.5,-20 321.5,0 461.25,0 461.25,-20"/>
<text xml:space="preserve" text-anchor="middle" x="391.38" y="-6.5" font-family="Helvetica,sans-Serif" font-size="10.00">AuthSync::saveETagToNVS</text>
</a>
</g>
</g>
<!-- Node5&#45;&gt;Node8 -->
<g id="edge7_Node000005_Node000008" class="edge">
<title>Node5&#45;&gt;Node8</title>
<g id="a_edge7_Node000005_Node000008"><a xlink:title=" ">
<path fill="none" stroke="#63b8ff" d="M216.19,-75.53C237.15,-62.87 274.41,-41.71 308.75,-29 314.15,-27 319.84,-25.16 325.59,-23.49"/>
<polygon fill="#63b8ff" stroke="#63b8ff" points="326.49,-26.87 335.22,-20.86 324.65,-20.12 326.49,-26.87"/>
</a>
</g>
</g>
<!-- Node10 -->
<g id="Node000010" class="node">
<title>Node10</title>
<g id="a_Node000010"><a xlink:href="class_auth_sync.html#a756e144d847c736d9932311d101a8a8f" target="_top" xlink:title=" ">
<polygon fill="white" stroke="#666666" points="449.25,-58 333.5,-58 333.5,-38 449.25,-38 449.25,-58"/>
<text xml:space="preserve" text-anchor="middle" x="391.38" y="-44.5" font-family="Helvetica,sans-Serif" font-size="10.00">AuthSync::writeByteAt</text>
</a>
</g>
</g>
<!-- Node5&#45;&gt;Node10 -->
<g id="edge9_Node000005_Node000010" class="edge">
<title>Node5&#45;&gt;Node10</title>
<g id="a_edge9_Node000005_Node000010"><a xlink:title=" ">
<path fill="none" stroke="#63b8ff" d="M252.07,-75.52C275.14,-70.93 302.41,-65.5 326.61,-60.69"/>
<polygon fill="#63b8ff" stroke="#63b8ff" points="327.24,-64.13 336.37,-58.75 325.87,-57.26 327.24,-64.13"/>
</a>
</g>
</g>
<!-- Node9 -->
<g id="Node000009" class="node">
<title>Node9</title>
<g id="a_Node000009"><a xlink:href="class_auth_sync.html#ad84e54dba300b040ae8655c915d5313f" target="_top" xlink:title=" ">
<polygon fill="white" stroke="#666666" points="666.25,-20 510,-20 510,0 666.25,0 666.25,-20"/>
<text xml:space="preserve" text-anchor="middle" x="588.12" y="-6.5" font-family="Helvetica,sans-Serif" font-size="10.00">AuthSync::saveAllowDenyToFS</text>
</a>
</g>
</g>
<!-- Node8&#45;&gt;Node9 -->
<g id="edge8_Node000008_Node000009" class="edge">
<title>Node8&#45;&gt;Node9</title>
<g id="a_edge8_Node000008_Node000009"><a xlink:title=" ">
<path fill="none" stroke="#63b8ff" d="M461.58,-10C473.47,-10 485.97,-10 498.29,-10"/>
<polygon fill="#63b8ff" stroke="#63b8ff" points="498.01,-13.5 508.01,-10 498.01,-6.5 498.01,-13.5"/>
</a>
</g>
</g>
<!-- Node10&#45;&gt;Node6 -->
<g id="edge10_Node000010_Node000006" class="edge">
<title>Node10&#45;&gt;Node6</title>
<g id="a_edge10_Node000010_Node000006"><a xlink:title=" ">
<path fill="none" stroke="#63b8ff" d="M446.11,-58.48C469.73,-63.09 497.68,-68.55 522.44,-73.38"/>
<polygon fill="#63b8ff" stroke="#63b8ff" points="521.6,-76.78 532.08,-75.26 522.94,-69.91 521.6,-76.78"/>
</a>
</g>
</g>
</g>
</svg>
