<?xml version="1.0" encoding="UTF-8" standalone="no"?>
<!DOCTYPE svg PUBLIC "-//W3C//DTD SVG 1.1//EN"
 "http://www.w3.org/Graphics/SVG/1.1/DTD/svg11.dtd">
<!-- Generated by graphviz version 14.1.2 (20260124.0452)
 -->
<!-- Title: AsyncTelnet::write Pages: 1 -->
<svg width="496pt" height="104pt"
 viewBox="0.00 0.00 496.00 104.00" xmlns="http://www.w3.org/2000/svg" xmlns:xlink="http://www.w3.org/1999/xlink">
<g id="graph0" class="graph" transform="scale(1 1) rotate(0) translate(4 100)">
<title>AsyncTelnet::write</title>
<!-- Node1 -->
<g id="Node000001" class="node">
<title>Node1</title>
<g id="a_Node000001"><a xlink:title=" ">
<polygon fill="#999999" stroke="#666666" points="97,-39 0,-39 0,-19 97,-19 97,-39"/>
<text xml:space="preserve" text-anchor="middle" x="48.5" y="-25.5" font-family="Helvetica,sans-Serif" font-size="10.00">AsyncTelnet::write</text>
</a>
</g>
</g>
<!-- Node2 -->
<g id="Node000002" class="node">
<title>Node2</title>
<g id="a_Node000002"><a xlink:href="class_async_client.html#af4b403851a81a5bf272a0e4a46796044" target="_top" xlink:title="add data to be send (but do not send yet)">
<polygon fill="white" stroke="#666666" points="226.62,-58 135.62,-58 135.62,-38 226.62,-38 226.62,-58"/>
<text xml:space="preserve" text-anchor="middle" x="181.12" y="-44.5" font-family="Helvetica,sans-Serif" font-size="10.00">AsyncClient::add</text>
</a>
</g>
</g>
<!-- Node1&#45;&gt;Node2 -->
<g id="edge1_Node000001_Node000002" class="edge">
<title>Node1&#45;&gt;Node2</title>
<g id="a_edge1_Node000001_Node000002"><a xlink:title=" ">
<path fill="none" stroke="#63b8ff" d="M97.4,-35.97C106.1,-37.23 115.25,-38.56 124.16,-39.86"/>
<polygon fill="#63b8ff" stroke="#63b8ff" points="123.37,-43.28 133.77,-41.26 124.38,-36.35 123.37,-43.28"/>
</a>
</g>
</g>
<!-- Node6 -->
<g id="Node000006" class="node">
<title>Node6</title>
<g id="a_Node000006"><a xlink:href="class_async_client.html#aa2d6f5a753f8928469e0fd1b01116e61" target="_top" xlink:title="send data previously add()&#39;ed">
<polygon fill="white" stroke="#666666" points="229.25,-20 133,-20 133,0 229.25,0 229.25,-20"/>
<text xml:space="preserve" text-anchor="middle" x="181.12" y="-6.5" font-family="Helvetica,sans-Serif" font-size="10.00">AsyncClient::send</text>
</a>
</g>
</g>
<!-- Node1&#45;&gt;Node6 -->
<g id="edge5_Node000001_Node000006" class="edge">
<title>Node1&#45;&gt;Node6</title>
<g id="a_edge5_Node000001_Node000006"><a xlink:title=" ">
<path fill="none" stroke="#63b8ff" d="M97.4,-22.03C105.22,-20.9 113.4,-19.71 121.44,-18.54"/>
<polygon fill="#63b8ff" stroke="#63b8ff" points="121.78,-22.02 131.17,-17.12 120.77,-15.1 121.78,-22.02"/>
</a>
</g>
</g>
<!-- Node3 -->
<g id="Node000003" class="node">
<title>Node3</title>
<g id="a_Node000003"><a xlink:href="_async_t_c_p_8cpp.html#a139d659560ae3b41b186955258551e53" target="_top" xlink:title=" ">
<polygon fill="white" stroke="#666666" points="346.5,-96 285.5,-96 285.5,-76 346.5,-76 346.5,-96"/>
<text xml:space="preserve" text-anchor="middle" x="316" y="-82.5" font-family="Helvetica,sans-Serif" font-size="10.00">_tcp_write</text>
</a>
</g>
</g>
<!-- Node2&#45;&gt;Node3 -->
<g id="edge2_Node000002_Node000003" class="edge">
<title>Node2&#45;&gt;Node3</title>
<g id="a_edge2_Node000002_Node000003"><a xlink:title=" ">
<path fill="none" stroke="#63b8ff" d="M218.79,-58.48C236.01,-63.41 256.59,-69.3 274.3,-74.36"/>
<polygon fill="#63b8ff" stroke="#63b8ff" points="273.14,-77.67 283.71,-77.05 275.06,-70.94 273.14,-77.67"/>
</a>
</g>
</g>
<!-- Node5 -->
<g id="Node000005" class="node">
<title>Node5</title>
<g id="a_Node000005"><a xlink:href="class_async_client.html#a039b989cd1e955709e8b90567045fdbb" target="_top" xlink:title=" ">
<polygon fill="white" stroke="#666666" points="366.75,-58 265.25,-58 265.25,-38 366.75,-38 366.75,-58"/>
<text xml:space="preserve" text-anchor="middle" x="316" y="-44.5" font-family="Helvetica,sans-Serif" font-size="10.00">AsyncClient::space</text>
</a>
</g>
</g>
<!-- Node2&#45;&gt;Node5 -->
<g id="edge4_Node000002_Node000005" class="edge">
<title>Node2&#45;&gt;Node5</title>
<g id="a_edge4_Node000002_Node000005"><a xlink:title=" ">
<path fill="none" stroke="#63b8ff" d="M227.11,-48C235.69,-48 244.8,-48 253.78,-48"/>
<polygon fill="#63b8ff" stroke="#63b8ff" points="253.52,-51.5 263.52,-48 253.52,-44.5 253.52,-51.5"/>
</a>
</g>
</g>
<!-- Node4 -->
<g id="Node000004" class="node">
<title>Node4</title>
<g id="a_Node000004"><a xlink:href="_async_t_c_p_8cpp.html#af7ec69a9a2424dded82f025dfc754fe5" target="_top" xlink:title=" ">
<polygon fill="white" stroke="#666666" points="484.75,-96 405.75,-96 405.75,-76 484.75,-76 484.75,-96"/>
<text xml:space="preserve" text-anchor="middle" x="445.25" y="-82.5" font-family="Helvetica,sans-Serif" font-size="10.00">_tcp_write_api</text>
</a>
</g>
</g>
<!-- Node3&#45;&gt;Node4 -->
<g id="edge3_Node000003_Node000004" class="edge">
<title>Node3&#45;&gt;Node4</title>
<g id="a_edge3_Node000003_Node000004"><a xlink:title=" ">
<path fill="none" stroke="#63b8ff" d="M346.83,-86C360.9,-86 378.08,-86 394.06,-86"/>
<polygon fill="#63b8ff" stroke="#63b8ff" points="393.92,-89.5 403.92,-86 393.92,-82.5 393.92,-89.5"/>
</a>
</g>
</g>
<!-- Node7 -->
<g id="Node000007" class="node">
<title>Node7</title>
<g id="a_Node000007"><a xlink:href="_async_t_c_p_8cpp.html#a32a44c4db7c9b6ee6a58167d8e2e5210" target="_top" xlink:title=" ">
<polygon fill="white" stroke="#666666" points="349.5,-20 282.5,-20 282.5,0 349.5,0 349.5,-20"/>
<text xml:space="preserve" text-anchor="middle" x="316" y="-6.5" font-family="Helvetica,sans-Serif" font-size="10.00">_tcp_output</text>
</a>
</g>
</g>
<!-- Node6&#45;&gt;Node7 -->
<g id="edge6_Node000006_Node000007" class="edge">
<title>Node6&#45;&gt;Node7</title>
<g id="a_edge6_Node000006_Node000007"><a xlink:title=" ">
<path fill="none" stroke="#63b8ff" d="M229.72,-10C243.2,-10 257.8,-10 271.05,-10"/>
<polygon fill="#63b8ff" stroke="#63b8ff" points="270.78,-13.5 280.78,-10 270.78,-6.5 270.78,-13.5"/>
</a>
</g>
</g>
<!-- Node8 -->
<g id="Node000008" class="node">
<title>Node8</title>
<g id="a_Node000008"><a xlink:href="_async_t_c_p_8cpp.html#a0ff01c08c6ab13d1532d782b33aec0df" target="_top" xlink:title=" ">
<polygon fill="white" stroke="#666666" points="487.75,-20 402.75,-20 402.75,0 487.75,0 487.75,-20"/>
<text xml:space="preserve" text-anchor="middle" x="445.25" y="-6.5" font-family="Helvetica,sans-Serif" font-size="10.00">_tcp_output_api</text>
</a>
</g>
</g>
<!-- Node7&#45;&gt;Node8 -->
<g id="edge7_Node000007_Node000008" class="edge">
<title>Node7&#45;&gt;Node8</title>
<g id="a_edge7_Node000007_Node000008"><a xlink:title=" ">
<path fill="none" stroke="#63b8ff" d="M349.77,-10C362.44,-10 377.26,-10 391.35,-10"/>
<polygon fill="#63b8ff" stroke="#63b8ff" points="390.94,-13.5 400.94,-10 390.94,-6.5 390.94,-13.5"/>
</a>
</g>
</g>
</g>
</svg>
