<?xml version="1.0" encoding="UTF-8" standalone="no"?>
<!DOCTYPE svg PUBLIC "-//W3C//DTD SVG 1.1//EN"
 "http://www.w3.org/Graphics/SVG/1.1/DTD/svg11.dtd">
<!-- Generated by graphviz version 14.1.2 (20260124.0452)
 -->
<!-- Title: AsyncClient::_s_poll Pages: 1 -->
<svg width="518pt" height="154pt"
 viewBox="0.00 0.00 518.00 154.00" xmlns="http://www.w3.org/2000/svg" xmlns:xlink="http://www.w3.org/1999/xlink">
<g id="graph0" class="graph" transform="scale(1 1) rotate(0) translate(4 150)">
<title>AsyncClient::_s_poll</title>
<!-- Node1 -->
<g id="Node000001" class="node">
<title>Node1</title>
<g id="a_Node000001"><a xlink:title=" ">
<polygon fill="#999999" stroke="#666666" points="106,-77 0,-77 0,-57 106,-57 106,-77"/>
<text xml:space="preserve" text-anchor="middle" x="53" y="-63.5" font-family="Helvetica,sans-Serif" font-size="10.00">AsyncClient::_s_poll</text>
</a>
</g>
</g>
<!-- Node2 -->
<g id="Node000002" class="node">
<title>Node2</title>
<g id="a_Node000002"><a xlink:href="class_async_client.html#a383d1cb7d684d328362caa5eafc92ca2" target="_top" xlink:title=" ">
<polygon fill="white" stroke="#666666" points="237.5,-77 142,-77 142,-57 237.5,-57 237.5,-77"/>
<text xml:space="preserve" text-anchor="middle" x="189.75" y="-63.5" font-family="Helvetica,sans-Serif" font-size="10.00">AsyncClient::_poll</text>
</a>
</g>
</g>
<!-- Node1&#45;&gt;Node2 -->
<g id="edge1_Node000001_Node000002" class="edge">
<title>Node1&#45;&gt;Node2</title>
<g id="a_edge1_Node000001_Node000002"><a xlink:title=" ">
<path fill="none" stroke="#63b8ff" d="M106.48,-67C114.33,-67 122.46,-67 130.41,-67"/>
<polygon fill="#63b8ff" stroke="#63b8ff" points="130.38,-70.5 140.38,-67 130.38,-63.5 130.38,-70.5"/>
</a>
</g>
</g>
<!-- Node3 -->
<g id="Node000003" class="node">
<title>Node3</title>
<g id="a_Node000003"><a xlink:href="class_async_client.html#a98ff872bc84919f006f3bb8a249ed36d" target="_top" xlink:title=" ">
<polygon fill="white" stroke="#666666" points="377.25,-77 273.5,-77 273.5,-57 377.25,-57 377.25,-77"/>
<text xml:space="preserve" text-anchor="middle" x="325.38" y="-63.5" font-family="Helvetica,sans-Serif" font-size="10.00">AsyncClient::_close</text>
</a>
</g>
</g>
<!-- Node2&#45;&gt;Node3 -->
<g id="edge2_Node000002_Node000003" class="edge">
<title>Node2&#45;&gt;Node3</title>
<g id="a_edge2_Node000002_Node000003"><a xlink:title=" ">
<path fill="none" stroke="#63b8ff" d="M237.86,-67C245.62,-67 253.78,-67 261.85,-67"/>
<polygon fill="#63b8ff" stroke="#63b8ff" points="261.63,-70.5 271.63,-67 261.63,-63.5 261.63,-70.5"/>
</a>
</g>
</g>
<!-- Node4 -->
<g id="Node000004" class="node">
<title>Node4</title>
<g id="a_Node000004"><a xlink:href="class_async_client.html#aff6a2fbf261b25e1fcd35c11cce348a5" target="_top" xlink:title=" ">
<polygon fill="white" stroke="#666666" points="510.25,-146 413.25,-146 413.25,-114 510.25,-114 510.25,-146"/>
<text xml:space="preserve" text-anchor="start" x="421.25" y="-132.5" font-family="Helvetica,sans-Serif" font-size="10.00">AsyncClient::_free</text>
<text xml:space="preserve" text-anchor="middle" x="461.75" y="-120.5" font-family="Helvetica,sans-Serif" font-size="10.00">_closed_slot</text>
</a>
</g>
</g>
<!-- Node3&#45;&gt;Node4 -->
<g id="edge3_Node000003_Node000004" class="edge">
<title>Node3&#45;&gt;Node4</title>
<g id="a_edge3_Node000003_Node000004"><a xlink:title=" ">
<path fill="none" stroke="#63b8ff" d="M348.56,-77.4C366.65,-85.88 392.78,-98.13 415.27,-108.68"/>
<polygon fill="#63b8ff" stroke="#63b8ff" points="413.73,-111.82 424.27,-112.9 416.7,-105.48 413.73,-111.82"/>
</a>
</g>
</g>
<!-- Node5 -->
<g id="Node000005" class="node">
<title>Node5</title>
<g id="a_Node000005"><a xlink:href="_async_t_c_p_8cpp.html#ab053d5adb5be879f37181af512213bb6" target="_top" xlink:title=" ">
<polygon fill="#fff0f0" stroke="red" points="509.5,-96 414,-96 414,-76 509.5,-76 509.5,-96"/>
<text xml:space="preserve" text-anchor="middle" x="461.75" y="-82.5" font-family="Helvetica,sans-Serif" font-size="10.00">_tcp_clear_events</text>
</a>
</g>
</g>
<!-- Node3&#45;&gt;Node5 -->
<g id="edge4_Node000003_Node000005" class="edge">
<title>Node3&#45;&gt;Node5</title>
<g id="a_edge4_Node000003_Node000005"><a xlink:title=" ">
<path fill="none" stroke="#63b8ff" d="M377.56,-74.24C385.72,-75.39 394.21,-76.59 402.52,-77.77"/>
<polygon fill="#63b8ff" stroke="#63b8ff" points="401.79,-81.2 412.18,-79.13 402.77,-74.27 401.79,-81.2"/>
</a>
</g>
</g>
<!-- Node7 -->
<g id="Node000007" class="node">
<title>Node7</title>
<g id="a_Node000007"><a xlink:href="_async_t_c_p_8cpp.html#a3602c1ebfae2fb2ff64a0e3d7b0568ce" target="_top" xlink:title=" ">
<polygon fill="#fff0f0" stroke="red" points="493.38,-58 430.12,-58 430.12,-38 493.38,-38 493.38,-58"/>
<text xml:space="preserve" text-anchor="middle" x="461.75" y="-44.5" font-family="Helvetica,sans-Serif" font-size="10.00">_tcp_close</text>
</a>
</g>
</g>
<!-- Node3&#45;&gt;Node7 -->
<g id="edge5_Node000003_Node000007" class="edge">
<title>Node3&#45;&gt;Node7</title>
<g id="a_edge5_Node000003_Node000007"><a xlink:title=" ">
<path fill="none" stroke="#63b8ff" d="M377.56,-59.76C391.21,-57.83 405.8,-55.77 418.89,-53.92"/>
<polygon fill="#63b8ff" stroke="#63b8ff" points="419.03,-57.43 428.44,-52.57 418.05,-50.5 419.03,-57.43"/>
</a>
</g>
</g>
<!-- Node9 -->
<g id="Node000009" class="node">
<title>Node9</title>
<g id="a_Node000009"><a xlink:href="class_async_client.html#a09e777ff005d8e0f81166e704dc14979" target="_top" xlink:title=" ">
<polygon fill="#fff0f0" stroke="red" points="510.25,-20 413.25,-20 413.25,0 510.25,0 510.25,-20"/>
<text xml:space="preserve" text-anchor="middle" x="461.75" y="-6.5" font-family="Helvetica,sans-Serif" font-size="10.00">AsyncClient::abort</text>
</a>
</g>
</g>
<!-- Node3&#45;&gt;Node9 -->
<g id="edge6_Node000003_Node000009" class="edge">
<title>Node3&#45;&gt;Node9</title>
<g id="a_edge6_Node000003_Node000009"><a xlink:title=" ">
<path fill="none" stroke="#63b8ff" d="M349.52,-56.64C366.97,-48.88 391.53,-38.09 413.25,-29 416.8,-27.51 420.51,-25.99 424.22,-24.48"/>
<polygon fill="#63b8ff" stroke="#63b8ff" points="425.19,-27.86 433.15,-20.87 422.57,-21.37 425.19,-27.86"/>
</a>
</g>
</g>
</g>
</svg>
