<?xml version="1.0" encoding="UTF-8" standalone="no"?>
<!DOCTYPE svg PUBLIC "-//W3C//DTD SVG 1.1//EN"
 "http://www.w3.org/Graphics/SVG/1.1/DTD/svg11.dtd">
<!-- Generated by graphviz version 14.1.2 (20260124.0452)
 -->
<!-- Title: AuthSync::setServerProbeResult Pages: 1 -->
<svg width="497pt" height="40pt"
 viewBox="0.00 0.00 497.00 40.00" xmlns="http://www.w3.org/2000/svg" xmlns:xlink="http://www.w3.org/1999/xlink">
<g id="graph0" class="graph" transform="scale(1 1) rotate(0) translate(4 36)">
<title>AuthSync::setServerProbeResult</title>
<!-- Node1 -->
<g id="Node000001" class="node">
<title>Node1</title>
<g id="a_Node000001"><a xlink:title=" ">
<polygon fill="#999999" stroke="#666666" points="488.5,-32 356.25,-32 356.25,0 488.5,0 488.5,-32"/>
<text xml:space="preserve" text-anchor="start" x="364.25" y="-18.5" font-family="Helvetica,sans-Serif" font-size="10.00">AuthSync::setServerProbe</text>
<text xml:space="preserve" text-anchor="middle" x="422.38" y="-6.5" font-family="Helvetica,sans-Serif" font-size="10.00">Result</text>
</a>
</g>
</g>
<!-- Node2 -->
<g id="Node000002" class="node">
<title>Node2</title>
<g id="a_Node000002"><a xlink:href="main_8cpp.html#aa0e2758845b7d1fb9e42b73c5a160462" target="_top" xlink:title=" ">
<polygon fill="white" stroke="#666666" points="320.25,-26 185.75,-26 185.75,-6 320.25,-6 320.25,-26"/>
<text xml:space="preserve" text-anchor="middle" x="253" y="-12.5" font-family="Helvetica,sans-Serif" font-size="10.00">serverCheckTimerCallback</text>
</a>
</g>
</g>
<!-- Node1&#45;&gt;Node2 -->
<g id="edge1_Node000001_Node000002" class="edge">
<title>Node1&#45;&gt;Node2</title>
<g id="a_edge1_Node000001_Node000002"><a xlink:title=" ">
<path fill="none" stroke="#63b8ff" d="M344.86,-16C336.78,-16 328.62,-16 320.67,-16"/>
<polygon fill="#63b8ff" stroke="#63b8ff" points="344.67,-19.5 354.67,-16 344.67,-12.5 344.67,-19.5"/>
</a>
</g>
</g>
<!-- Node3 -->
<g id="Node000003" class="node">
<title>Node3</title>
<g id="a_Node000003"><a xlink:href="main_8cpp.html#a1752872dd104f06716cb944c1922de40" target="_top" xlink:title=" ">
<polygon fill="white" stroke="#666666" points="149.75,-26 76,-26 76,-6 149.75,-6 149.75,-26"/>
<text xml:space="preserve" text-anchor="middle" x="112.88" y="-12.5" font-family="Helvetica,sans-Serif" font-size="10.00">NetworkTask</text>
</a>
</g>
</g>
<!-- Node2&#45;&gt;Node3 -->
<g id="edge2_Node000002_Node000003" class="edge">
<title>Node2&#45;&gt;Node3</title>
<g id="a_edge2_Node000002_Node000003"><a xlink:title=" ">
<path fill="none" stroke="#63b8ff" d="M174,-16C165.71,-16 157.59,-16 150.14,-16"/>
<polygon fill="#63b8ff" stroke="#63b8ff" points="173.85,-19.5 183.85,-16 173.85,-12.5 173.85,-19.5"/>
</a>
</g>
</g>
<!-- Node4 -->
<g id="Node000004" class="node">
<title>Node4</title>
<g id="a_Node000004"><a xlink:href="main_8cpp.html#a4fc01d736fe50cf5b977f755b675f11d" target="_top" xlink:title=" ">
<polygon fill="white" stroke="#666666" points="40,-26 0,-26 0,-6 40,-6 40,-26"/>
<text xml:space="preserve" text-anchor="middle" x="20" y="-12.5" font-family="Helvetica,sans-Serif" font-size="10.00">setup</text>
</a>
</g>
</g>
<!-- Node3&#45;&gt;Node4 -->
<g id="edge3_Node000003_Node000004" class="edge">
<title>Node3&#45;&gt;Node4</title>
<g id="a_edge3_Node000003_Node000004"><a xlink:title=" ">
<path fill="none" stroke="#63b8ff" d="M64.22,-16C55.77,-16 47.42,-16 40.34,-16"/>
<polygon fill="#63b8ff" stroke="#63b8ff" points="64.18,-19.5 74.18,-16 64.18,-12.5 64.18,-19.5"/>
</a>
</g>
</g>
</g>
</svg>
