<?xml version="1.0" encoding="UTF-8" standalone="no"?>
<!DOCTYPE svg PUBLIC "-//W3C//DTD SVG 1.1//EN"
 "http://www.w3.org/Graphics/SVG/1.1/DTD/svg11.dtd">
<!-- Generated by graphviz version 14.1.2 (20260124.0452)
 -->
<!-- Title: AsyncServer::begin Pages: 1 -->
<!--zoomable 330 -->

<svg id="main" version="1.1" xmlns="http://www.w3.org/2000/svg" xmlns:xlink="http://www.w3.org/1999/xlink" xml:space="preserve" onload="init(evt)">

<style type="text/css"><![CDATA[
.node, .edge {opacity: 0.7;}
.node.selected, .edge.selected {opacity: 1;}
.edge:hover path { stroke: red; }
.edge:hover polygon { stroke: red; fill: red; }
]]></style>

<defs>
  <circle id="rim" cx="0" cy="0" r="7"/>
  <circle id="rim2" cx="0" cy="0" r="3.5"/>
  <g id="zoomPlus">
    <use xlink:href="#rim" fill="#404040"><set attributeName="fill" to="#808080" begin="zoomplus.mouseover" end="zoomplus.mouseout"/></use>
    <path d="M-4,0h8M0,-4v8" fill="none" stroke="white" stroke-width="1.5" pointer-events="none"/>
  </g>
  <g id="zoomMin">
    <use xlink:href="#rim" fill="#404040"><set attributeName="fill" to="#808080" begin="zoomminus.mouseover" end="zoomminus.mouseout"/></use>
    <path d="M-4,0h8" fill="none" stroke="white" stroke-width="1.5" pointer-events="none"/>
  </g>
  <g id="arrowUp" transform="translate(30 24)">
    <use xlink:href="#rim"/>
    <path pointer-events="none" fill="none" stroke="white" stroke-width="1.5" d="M0,-3.0v7 M-2.5,-0.5L0,-3.0L2.5,-0.5"/>
  </g>
  <g id="arrowRight" transform="rotate(90) translate(36 -43)">
    <use xlink:href="#rim"/>
    <path pointer-events="none" fill="none" stroke="white" stroke-width="1.5" d="M0,-3.0v7 M-2.5,-0.5L0,-3.0L2.5,-0.5"/>
  </g>
  <g id="arrowDown" transform="rotate(180) translate(-30 -48)">
    <use xlink:href="#rim"/>
    <path pointer-events="none" fill="none" stroke="white" stroke-width="1.5" d="M0,-3.0v7 M-2.5,-0.5L0,-3.0L2.5,-0.5"/>
  </g>
  <g id="arrowLeft" transform="rotate(270) translate(-36 17)">
    <use xlink:href="#rim"/>
    <path pointer-events="none" fill="none" stroke="white" stroke-width="1.5" d="M0,-3.0v7 M-2.5,-0.5L0,-3.0L2.5,-0.5"/>
  </g>
  <g id="resetDef">
    <use xlink:href="#rim2" fill="#404040"><set attributeName="fill" to="#808080" begin="reset.mouseover" end="reset.mouseout"/></use>
  </g>
</defs>
<script type="application/ecmascript">
var viewWidth = 611;
var viewHeight = 330;
var sectionId = 'dynsection-12';
</script>
<script type="application/ecmascript" xlink:href="svg.min.js"/>
<svg id="graph" class="graph">
<g id="viewport">
<title>AsyncServer::begin</title>
<!-- Node1 -->
<g id="Node000001" class="node">
<title>Node1</title>
<g id="a_Node000001"><a xlink:title=" ">
<polygon fill="#999999" stroke="#666666" points="101.5,-96 0,-96 0,-76 101.5,-76 101.5,-96"/>
<text xml:space="preserve" text-anchor="middle" x="50.75" y="-82.5" font-family="Helvetica,sans-Serif" font-size="10.00">AsyncServer::begin</text>
</a>
</g>
</g>
<!-- Node2 -->
<g id="Node000002" class="node">
<title>Node2</title>
<g id="a_Node000002"><a xlink:href="class_async_server.html#a9cfd997e84bd4ba394f3225863536d5e" target="_top" xlink:title=" ">
<polygon fill="white" stroke="#666666" points="261.88,-219 138.62,-219 138.62,-199 261.88,-199 261.88,-219"/>
<text xml:space="preserve" text-anchor="middle" x="200.25" y="-205.5" font-family="Helvetica,sans-Serif" font-size="10.00">AsyncServer::_s_accept</text>
</a>
</g>
</g>
<!-- Node1&#45;&gt;Node2 -->
<g id="edge1_Node000001_Node000002" class="edge">
<title>Node1&#45;&gt;Node2</title>
<g id="a_edge1_Node000001_Node000002"><a xlink:title=" ">
<path fill="none" stroke="#63b8ff" d="M64.33,-96.49C89.58,-117.55 146.71,-165.19 177.92,-191.21"/>
<polygon fill="#63b8ff" stroke="#63b8ff" points="175.62,-193.85 185.54,-197.57 180.11,-188.48 175.62,-193.85"/>
</a>
</g>
</g>
<!-- Node24 -->
<g id="Node000024" class="node">
<title>Node24</title>
<g id="a_Node000024"><a xlink:href="_async_t_c_p_8cpp.html#a4d0de407bcfcc96b61af40aca3156708" target="_top" xlink:title=" ">
<polygon fill="white" stroke="#666666" points="248.38,-134 152.12,-134 152.12,-114 248.38,-114 248.38,-134"/>
<text xml:space="preserve" text-anchor="middle" x="200.25" y="-120.5" font-family="Helvetica,sans-Serif" font-size="10.00">_start_async_task</text>
</a>
</g>
</g>
<!-- Node1&#45;&gt;Node24 -->
<g id="edge7_Node000001_Node000024" class="edge">
<title>Node1&#45;&gt;Node24</title>
<g id="a_edge7_Node000001_Node000024"><a xlink:title=" ">
<path fill="none" stroke="#63b8ff" d="M92.45,-96.48C109.53,-100.89 129.61,-106.06 147.71,-110.72"/>
<polygon fill="#63b8ff" stroke="#63b8ff" points="146.66,-114.07 157.22,-113.17 148.41,-107.29 146.66,-114.07"/>
</a>
</g>
</g>
<!-- Node54 -->
<g id="Node000054" class="node">
<title>Node54</title>
<g id="a_Node000054"><a xlink:href="_async_t_c_p_8cpp.html#a1d69fe6616ae6044a10ab2df4a2bf2d8" target="_top" xlink:title=" ">
<polygon fill="white" stroke="#666666" points="229.25,-96 171.25,-96 171.25,-76 229.25,-76 229.25,-96"/>
<text xml:space="preserve" text-anchor="middle" x="200.25" y="-82.5" font-family="Helvetica,sans-Serif" font-size="10.00">_tcp_bind</text>
</a>
</g>
</g>
<!-- Node1&#45;&gt;Node54 -->
<g id="edge14_Node000001_Node000054" class="edge">
<title>Node1&#45;&gt;Node54</title>
<g id="a_edge14_Node000001_Node000054"><a xlink:title=" ">
<path fill="none" stroke="#63b8ff" d="M101.69,-86C120.52,-86 141.67,-86 159.45,-86"/>
<polygon fill="#63b8ff" stroke="#63b8ff" points="159.36,-89.5 169.36,-86 159.36,-82.5 159.36,-89.5"/>
</a>
</g>
</g>
<!-- Node11 -->
<g id="Node000011" class="node">
<title>Node11</title>
<g id="a_Node000011"><a xlink:href="_async_t_c_p_8cpp.html#a3602c1ebfae2fb2ff64a0e3d7b0568ce" target="_top" xlink:title=" ">
<polygon fill="#fff0f0" stroke="red" points="231.88,-58 168.62,-58 168.62,-38 231.88,-38 231.88,-58"/>
<text xml:space="preserve" text-anchor="middle" x="200.25" y="-44.5" font-family="Helvetica,sans-Serif" font-size="10.00">_tcp_close</text>
</a>
</g>
</g>
<!-- Node1&#45;&gt;Node11 -->
<g id="edge16_Node000001_Node000011" class="edge">
<title>Node1&#45;&gt;Node11</title>
<g id="a_edge16_Node000001_Node000011"><a xlink:title=" ">
<path fill="none" stroke="#63b8ff" d="M92.45,-75.52C112.73,-70.29 137.23,-63.98 157.65,-58.72"/>
<polygon fill="#63b8ff" stroke="#63b8ff" points="158.24,-62.18 167.05,-56.3 156.49,-55.4 158.24,-62.18"/>
</a>
</g>
</g>
<!-- Node56 -->
<g id="Node000056" class="node">
<title>Node56</title>
<g id="a_Node000056"><a xlink:href="_async_t_c_p_8cpp.html#aced9ee6e4eb13dc4ef027ded12dce47c" target="_top" xlink:title=" ">
<polygon fill="white" stroke="#666666" points="263,-20 137.5,-20 137.5,0 263,0 263,-20"/>
<text xml:space="preserve" text-anchor="middle" x="200.25" y="-6.5" font-family="Helvetica,sans-Serif" font-size="10.00">_tcp_listen_with_backlog</text>
</a>
</g>
</g>
<!-- Node1&#45;&gt;Node56 -->
<g id="edge17_Node000001_Node000056" class="edge">
<title>Node1&#45;&gt;Node56</title>
<g id="a_edge17_Node000001_Node000056"><a xlink:title=" ">
<path fill="none" stroke="#63b8ff" d="M64.7,-75.65C80.9,-63.13 109.88,-42.09 137.5,-29 141.05,-27.32 144.79,-25.74 148.6,-24.26"/>
<polygon fill="#63b8ff" stroke="#63b8ff" points="149.74,-27.57 157.98,-20.91 147.39,-20.98 149.74,-27.57"/>
</a>
</g>
</g>
<!-- Node3 -->
<g id="Node000003" class="node">
<title>Node3</title>
<g id="a_Node000003"><a xlink:href="class_async_server.html#a51e55999b79eec50bd68e899b8ddd4e4" target="_top" xlink:title=" ">
<polygon fill="white" stroke="#666666" points="425.25,-247 312.5,-247 312.5,-227 425.25,-227 425.25,-247"/>
<text xml:space="preserve" text-anchor="middle" x="368.88" y="-233.5" font-family="Helvetica,sans-Serif" font-size="10.00">AsyncServer::_accept</text>
</a>
</g>
</g>
<!-- Node2&#45;&gt;Node3 -->
<g id="edge2_Node000002_Node000003" class="edge">
<title>Node2&#45;&gt;Node3</title>
<g id="a_edge2_Node000002_Node000003"><a xlink:title=" ">
<path fill="none" stroke="#63b8ff" d="M262.35,-219.27C274.92,-221.38 288.22,-223.61 300.98,-225.76"/>
<polygon fill="#63b8ff" stroke="#63b8ff" points="300.1,-229.16 310.54,-227.37 301.26,-222.26 300.1,-229.16"/>
</a>
</g>
</g>
<!-- Node4 -->
<g id="Node000004" class="node">
<title>Node4</title>
<g id="a_Node000004"><a xlink:href="_async_t_c_p_8cpp.html#ab02a78d0cd56732252f0c2c27f286369" target="_top" xlink:title=" ">
<polygon fill="#fff0f0" stroke="red" points="573.62,-322 504.38,-322 504.38,-302 573.62,-302 573.62,-322"/>
<text xml:space="preserve" text-anchor="middle" x="539" y="-308.5" font-family="Helvetica,sans-Serif" font-size="10.00">_tcp_accept</text>
</a>
</g>
</g>
<!-- Node3&#45;&gt;Node4 -->
<g id="edge3_Node000003_Node000004" class="edge">
<title>Node3&#45;&gt;Node4</title>
<g id="a_edge3_Node000003_Node000004"><a xlink:title=" ">
<path fill="none" stroke="#63b8ff" d="M386.81,-247.4C407.13,-259.56 442.5,-279.7 474.75,-293 480.73,-295.46 487.14,-297.76 493.5,-299.85"/>
<polygon fill="#63b8ff" stroke="#63b8ff" points="492.05,-303.07 502.64,-302.71 494.14,-296.39 492.05,-303.07"/>
</a>
</g>
</g>
<!-- Node6 -->
<g id="Node000006" class="node">
<title>Node6</title>
<g id="a_Node000006"><a xlink:href="class_async_client.html#aefecfa0c75c8c1b32104115e93739087" target="_top" xlink:title=" ">
<polygon fill="#fff0f0" stroke="red" points="603.25,-266 474.75,-266 474.75,-246 603.25,-246 603.25,-266"/>
<text xml:space="preserve" text-anchor="middle" x="539" y="-252.5" font-family="Helvetica,sans-Serif" font-size="10.00">AsyncClient::AsyncClient</text>
</a>
</g>
</g>
<!-- Node3&#45;&gt;Node6 -->
<g id="edge4_Node000003_Node000006" class="edge">
<title>Node3&#45;&gt;Node6</title>
<g id="a_edge4_Node000003_Node000006"><a xlink:title=" ">
<path fill="none" stroke="#63b8ff" d="M425.39,-243.27C437.52,-244.65 450.56,-246.12 463.3,-247.56"/>
<polygon fill="#63b8ff" stroke="#63b8ff" points="462.56,-251 472.89,-248.64 463.34,-244.04 462.56,-251"/>
</a>
</g>
</g>
<!-- Node23 -->
<g id="Node000023" class="node">
<title>Node23</title>
<g id="a_Node000023"><a xlink:href="class_async_client.html#af1819edd57b1ce0666a6cd390bcaf587" target="_top" xlink:title=" ">
<polygon fill="white" stroke="#666666" points="602.5,-228 475.5,-228 475.5,-208 602.5,-208 602.5,-228"/>
<text xml:space="preserve" text-anchor="middle" x="539" y="-214.5" font-family="Helvetica,sans-Serif" font-size="10.00">AsyncClient::setNoDelay</text>
</a>
</g>
</g>
<!-- Node3&#45;&gt;Node23 -->
<g id="edge6_Node000003_Node000023" class="edge">
<title>Node3&#45;&gt;Node23</title>
<g id="a_edge6_Node000003_Node000023"><a xlink:title=" ">
<path fill="none" stroke="#63b8ff" d="M425.39,-230.73C437.75,-229.33 451.03,-227.83 464,-226.36"/>
<polygon fill="#63b8ff" stroke="#63b8ff" points="464.23,-229.86 473.77,-225.26 463.44,-222.9 464.23,-229.86"/>
</a>
</g>
</g>
<!-- Node6&#45;&gt;Node6 -->
<g id="edge5_Node000006_Node000006" class="edge">
<title>Node6&#45;&gt;Node6</title>
<g id="a_edge5_Node000006_Node000006"><a xlink:title=" ">
<path fill="none" stroke="#63b8ff" d="M511.97,-266.34C500.42,-274.98 509.43,-284 539,-284 555.17,-284 565.2,-281.3 569.07,-277.44"/>
<polygon fill="#63b8ff" stroke="#63b8ff" points="572.45,-276.52 566.43,-267.8 565.69,-278.37 572.45,-276.52"/>
</a>
</g>
</g>
<!-- Node25 -->
<g id="Node000025" class="node">
<title>Node25</title>
<g id="a_Node000025"><a xlink:href="_async_t_c_p_8cpp.html#a87baf4ac2987dd94502c4586a97e552f" target="_top" xlink:title=" ">
<polygon fill="white" stroke="#666666" points="423,-172 314.75,-172 314.75,-152 423,-152 423,-172"/>
<text xml:space="preserve" text-anchor="middle" x="368.88" y="-158.5" font-family="Helvetica,sans-Serif" font-size="10.00">_async_service_task</text>
</a>
</g>
</g>
<!-- Node24&#45;&gt;Node25 -->
<g id="edge8_Node000024_Node000025" class="edge">
<title>Node24&#45;&gt;Node25</title>
<g id="a_edge8_Node000024_Node000025"><a xlink:title=" ">
<path fill="none" stroke="#63b8ff" d="M247.22,-134.48C266.98,-138.99 290.28,-144.3 311.1,-149.05"/>
<polygon fill="#63b8ff" stroke="#63b8ff" points="310.05,-152.4 320.58,-151.21 311.61,-145.58 310.05,-152.4"/>
</a>
</g>
</g>
<!-- Node52 -->
<g id="Node000052" class="node">
<title>Node52</title>
<g id="a_Node000052"><a xlink:href="_async_t_c_p_8cpp.html#a3aed34b06f9d10bb1cc4ce3d74cb5565" target="_top" xlink:title=" ">
<polygon fill="white" stroke="#666666" points="432,-134 305.75,-134 305.75,-114 432,-114 432,-134"/>
<text xml:space="preserve" text-anchor="middle" x="368.88" y="-120.5" font-family="Helvetica,sans-Serif" font-size="10.00">_init_async_event_queue</text>
</a>
</g>
</g>
<!-- Node24&#45;&gt;Node52 -->
<g id="edge12_Node000024_Node000052" class="edge">
<title>Node24&#45;&gt;Node52</title>
<g id="a_edge12_Node000024_Node000052"><a xlink:title=" ">
<path fill="none" stroke="#63b8ff" d="M248.55,-124C262.8,-124 278.78,-124 294.31,-124"/>
<polygon fill="#63b8ff" stroke="#63b8ff" points="293.99,-127.5 303.99,-124 293.99,-120.5 293.99,-127.5"/>
</a>
</g>
</g>
<!-- Node53 -->
<g id="Node000053" class="node">
<title>Node53</title>
<g id="a_Node000053"><a xlink:href="_async_t_c_p_8cpp.html#a8fedef252807f247ae1b933ac0bcc234" target="_top" xlink:title=" ">
<polygon fill="white" stroke="#666666" points="438.75,-96 299,-96 299,-76 438.75,-76 438.75,-96"/>
<text xml:space="preserve" text-anchor="middle" x="368.88" y="-82.5" font-family="Helvetica,sans-Serif" font-size="10.00">customTaskCreateUniversal</text>
</a>
</g>
</g>
<!-- Node24&#45;&gt;Node53 -->
<g id="edge13_Node000024_Node000053" class="edge">
<title>Node24&#45;&gt;Node53</title>
<g id="a_edge13_Node000024_Node000053"><a xlink:title=" ">
<path fill="none" stroke="#63b8ff" d="M247.22,-113.52C266.98,-109.01 290.28,-103.7 311.1,-98.95"/>
<polygon fill="#63b8ff" stroke="#63b8ff" points="311.61,-102.42 320.58,-96.79 310.05,-95.6 311.61,-102.42"/>
</a>
</g>
</g>
<!-- Node26 -->
<g id="Node000026" class="node">
<title>Node26</title>
<g id="a_Node000026"><a xlink:href="_async_t_c_p_8cpp.html#a8a4bbbc30b10628f96b77b68e1f66620" target="_top" xlink:title=" ">
<polygon fill="white" stroke="#666666" points="586.75,-172 491.25,-172 491.25,-152 586.75,-152 586.75,-172"/>
<text xml:space="preserve" text-anchor="middle" x="539" y="-158.5" font-family="Helvetica,sans-Serif" font-size="10.00">_get_async_event</text>
</a>
</g>
</g>
<!-- Node25&#45;&gt;Node26 -->
<g id="edge9_Node000025_Node000026" class="edge">
<title>Node25&#45;&gt;Node26</title>
<g id="a_edge9_Node000025_Node000026"><a xlink:title=" ">
<path fill="none" stroke="#63b8ff" d="M423.07,-162C440.99,-162 461.08,-162 479.4,-162"/>
<polygon fill="#63b8ff" stroke="#63b8ff" points="479.32,-165.5 489.32,-162 479.32,-158.5 479.32,-165.5"/>
</a>
</g>
</g>
<!-- Node27 -->
<g id="Node000027" class="node">
<title>Node27</title>
<g id="a_Node000027"><a xlink:href="_async_t_c_p_8cpp.html#ac4030e968c0e4c0fcbe7a9b4502854c1" target="_top" xlink:title=" ">
<polygon fill="#fff0f0" stroke="red" points="594.25,-134 483.75,-134 483.75,-114 594.25,-114 594.25,-134"/>
<text xml:space="preserve" text-anchor="middle" x="539" y="-120.5" font-family="Helvetica,sans-Serif" font-size="10.00">_handle_async_event</text>
</a>
</g>
</g>
<!-- Node25&#45;&gt;Node27 -->
<g id="edge11_Node000025_Node000027" class="edge">
<title>Node25&#45;&gt;Node27</title>
<g id="a_edge11_Node000025_Node000027"><a xlink:title=" ">
<path fill="none" stroke="#63b8ff" d="M416.26,-151.52C436.2,-147.01 459.7,-141.7 480.71,-136.95"/>
<polygon fill="#63b8ff" stroke="#63b8ff" points="481.31,-140.4 490.29,-134.78 479.76,-133.57 481.31,-140.4"/>
</a>
</g>
</g>
<!-- Node26&#45;&gt;Node26 -->
<g id="edge10_Node000026_Node000026" class="edge">
<title>Node26&#45;&gt;Node26</title>
<g id="a_edge10_Node000026_Node000026"><a xlink:title=" ">
<path fill="none" stroke="#63b8ff" d="M511.97,-172.34C500.42,-180.98 509.43,-190 539,-190 555.17,-190 565.2,-187.3 569.07,-183.44"/>
<polygon fill="#63b8ff" stroke="#63b8ff" points="572.45,-182.52 566.43,-173.8 565.69,-184.37 572.45,-182.52"/>
</a>
</g>
</g>
<!-- Node55 -->
<g id="Node000055" class="node">
<title>Node55</title>
<g id="a_Node000055"><a xlink:href="_async_t_c_p_8cpp.html#a8a8e9f581fd0d3e829ec0ff30afe518c" target="_top" xlink:title=" ">
<polygon fill="white" stroke="#666666" points="406.88,-58 330.88,-58 330.88,-38 406.88,-38 406.88,-58"/>
<text xml:space="preserve" text-anchor="middle" x="368.88" y="-44.5" font-family="Helvetica,sans-Serif" font-size="10.00">_tcp_bind_api</text>
</a>
</g>
</g>
<!-- Node54&#45;&gt;Node55 -->
<g id="edge15_Node000054_Node000055" class="edge">
<title>Node54&#45;&gt;Node55</title>
<g id="a_edge15_Node000054_Node000055"><a xlink:title=" ">
<path fill="none" stroke="#63b8ff" d="M229.52,-79.55C254.02,-73.96 290.04,-65.75 319.18,-59.11"/>
<polygon fill="#63b8ff" stroke="#63b8ff" points="319.93,-62.52 328.9,-56.89 318.37,-55.7 319.93,-62.52"/>
</a>
</g>
</g>
<!-- Node57 -->
<g id="Node000057" class="node">
<title>Node57</title>
<g id="a_Node000057"><a xlink:href="_async_t_c_p_8cpp.html#a174db420ae5987d7e353df5be3a94a1a" target="_top" xlink:title=" ">
<polygon fill="white" stroke="#666666" points="409.5,-20 328.25,-20 328.25,0 409.5,0 409.5,-20"/>
<text xml:space="preserve" text-anchor="middle" x="368.88" y="-6.5" font-family="Helvetica,sans-Serif" font-size="10.00">_tcp_listen_api</text>
</a>
</g>
</g>
<!-- Node56&#45;&gt;Node57 -->
<g id="edge18_Node000056_Node000057" class="edge">
<title>Node56&#45;&gt;Node57</title>
<g id="a_edge18_Node000056_Node000057"><a xlink:title=" ">
<path fill="none" stroke="#63b8ff" d="M263.29,-10C280.89,-10 299.83,-10 316.7,-10"/>
<polygon fill="#63b8ff" stroke="#63b8ff" points="316.5,-13.5 326.5,-10 316.5,-6.5 316.5,-13.5"/>
</a>
</g>
</g>
</g>
</svg>

<g id="navigator" transform="translate(0 0)" fill="#404254">
  <rect fill="#f2f5e9" fill-opacity="0.5" stroke="#606060" stroke-width=".5" x="0" y="0" width="60" height="60"/>
  <use id="zoomplus" xlink:href="#zoomPlus" x="17" y="9" onmousedown="handleZoom(evt,'in')"/>
  <use id="zoomminus" xlink:href="#zoomMin" x="42" y="9" onmousedown="handleZoom(evt,'out')"/>
  <use id="reset" xlink:href="#resetDef" x="30" y="36" onmousedown="handleReset()"/>
   <use id="arrowup" xlink:href="#arrowUp" x="0" y="0" onmousedown="handlePan(0,-1)"/>
  <use id="arrowright" xlink:href="#arrowRight" x="0" y="0" onmousedown="handlePan(1,0)"/>
  <use id="arrowdown" xlink:href="#arrowDown" x="0" y="0" onmousedown="handlePan(0,1)"/>
  <use id="arrowleft" xlink:href="#arrowLeft" x="0" y="0" onmousedown="handlePan(-1,0)"/>
</g>
<svg viewBox="0 0 15 15" width="100%" height="30px" preserveAspectRatio="xMaxYMin meet">
 <g id="arrow_out" transform="scale(0.3 0.3)">
  <a xlink:href="class_async_server_a7e9ce55e4e1d0fab5531bac98ebfb3f9_cgraph_org.svg" target="_base">
   <rect id="button" ry="5" rx="5" y="6" x="6" height="38" width="38"
        fill="#f2f5e9" fill-opacity="0.5" stroke="#606060" stroke-width="1.0"/>
   <path id="arrow"
     d="M 11.500037,31.436501 C 11.940474,20.09759 22.043105,11.32322 32.158766,21.979434 L 37.068811,17.246167 C 37.068811,17.246167 37.088388,32 37.088388,32 L 22.160133,31.978069 C 22.160133,31.978069 26.997745,27.140456 26.997745,27.140456 C 18.528582,18.264221 13.291696,25.230495 11.500037,31.436501 z"
     style="fill:#404040;"/>
  </a>
 </g>
</svg>

<style type='text/css'>
<![CDATA[
[data-mouse-over-selected='false'] { opacity: 0.7; }
[data-mouse-over-selected='true']  { opacity: 1.0; }
]]>
</style>
<script type="application/ecmascript"><![CDATA[
document.addEventListener('DOMContentLoaded', (event) => {
  highlightEdges();
  highlightAdjacentNodes();
});
]]></script>
</svg>
