<?xml version="1.0" encoding="UTF-8" standalone="no"?>
<!DOCTYPE svg PUBLIC "-//W3C//DTD SVG 1.1//EN"
 "http://www.w3.org/Graphics/SVG/1.1/DTD/svg11.dtd">
<!-- Generated by graphviz version 14.1.2 (20260124.0452)
 -->
<!-- Title: AsyncClient::_close Pages: 1 -->
<svg width="513pt" height="154pt"
 viewBox="0.00 0.00 513.00 154.00" xmlns="http://www.w3.org/2000/svg" xmlns:xlink="http://www.w3.org/1999/xlink">
<g id="graph0" class="graph" transform="scale(1 1) rotate(0) translate(4 150)">
<title>AsyncClient::_close</title>
<!-- Node1 -->
<g id="Node000001" class="node">
<title>Node1</title>
<g id="a_Node000001"><a xlink:title=" ">
<polygon fill="#999999" stroke="#666666" points="103.75,-77 0,-77 0,-57 103.75,-57 103.75,-77"/>
<text xml:space="preserve" text-anchor="middle" x="51.88" y="-63.5" font-family="Helvetica,sans-Serif" font-size="10.00">AsyncClient::_close</text>
</a>
</g>
</g>
<!-- Node2 -->
<g id="Node000002" class="node">
<title>Node2</title>
<g id="a_Node000002"><a xlink:href="class_async_client.html#aff6a2fbf261b25e1fcd35c11cce348a5" target="_top" xlink:title=" ">
<polygon fill="white" stroke="#666666" points="236.75,-146 139.75,-146 139.75,-114 236.75,-114 236.75,-146"/>
<text xml:space="preserve" text-anchor="start" x="147.75" y="-132.5" font-family="Helvetica,sans-Serif" font-size="10.00">AsyncClient::_free</text>
<text xml:space="preserve" text-anchor="middle" x="188.25" y="-120.5" font-family="Helvetica,sans-Serif" font-size="10.00">_closed_slot</text>
</a>
</g>
</g>
<!-- Node1&#45;&gt;Node2 -->
<g id="edge1_Node000001_Node000002" class="edge">
<title>Node1&#45;&gt;Node2</title>
<g id="a_edge1_Node000001_Node000002"><a xlink:title=" ">
<path fill="none" stroke="#63b8ff" d="M75.06,-77.4C93.15,-85.88 119.28,-98.13 141.77,-108.68"/>
<polygon fill="#63b8ff" stroke="#63b8ff" points="140.23,-111.82 150.77,-112.9 143.2,-105.48 140.23,-111.82"/>
</a>
</g>
</g>
<!-- Node3 -->
<g id="Node000003" class="node">
<title>Node3</title>
<g id="a_Node000003"><a xlink:href="_async_t_c_p_8cpp.html#ab053d5adb5be879f37181af512213bb6" target="_top" xlink:title=" ">
<polygon fill="white" stroke="#666666" points="236,-96 140.5,-96 140.5,-76 236,-76 236,-96"/>
<text xml:space="preserve" text-anchor="middle" x="188.25" y="-82.5" font-family="Helvetica,sans-Serif" font-size="10.00">_tcp_clear_events</text>
</a>
</g>
</g>
<!-- Node1&#45;&gt;Node3 -->
<g id="edge2_Node000001_Node000003" class="edge">
<title>Node1&#45;&gt;Node3</title>
<g id="a_edge2_Node000001_Node000003"><a xlink:title=" ">
<path fill="none" stroke="#63b8ff" d="M104.06,-74.24C112.22,-75.39 120.71,-76.59 129.02,-77.77"/>
<polygon fill="#63b8ff" stroke="#63b8ff" points="128.29,-81.2 138.68,-79.13 129.27,-74.27 128.29,-81.2"/>
</a>
</g>
</g>
<!-- Node5 -->
<g id="Node000005" class="node">
<title>Node5</title>
<g id="a_Node000005"><a xlink:href="_async_t_c_p_8cpp.html#a3602c1ebfae2fb2ff64a0e3d7b0568ce" target="_top" xlink:title=" ">
<polygon fill="white" stroke="#666666" points="219.88,-58 156.62,-58 156.62,-38 219.88,-38 219.88,-58"/>
<text xml:space="preserve" text-anchor="middle" x="188.25" y="-44.5" font-family="Helvetica,sans-Serif" font-size="10.00">_tcp_close</text>
</a>
</g>
</g>
<!-- Node1&#45;&gt;Node5 -->
<g id="edge4_Node000001_Node000005" class="edge">
<title>Node1&#45;&gt;Node5</title>
<g id="a_edge4_Node000001_Node000005"><a xlink:title=" ">
<path fill="none" stroke="#63b8ff" d="M104.06,-59.76C117.71,-57.83 132.3,-55.77 145.39,-53.92"/>
<polygon fill="#63b8ff" stroke="#63b8ff" points="145.53,-57.43 154.94,-52.57 144.55,-50.5 145.53,-57.43"/>
</a>
</g>
</g>
<!-- Node7 -->
<g id="Node000007" class="node">
<title>Node7</title>
<g id="a_Node000007"><a xlink:href="class_async_client.html#a09e777ff005d8e0f81166e704dc14979" target="_top" xlink:title=" ">
<polygon fill="white" stroke="#666666" points="236.75,-20 139.75,-20 139.75,0 236.75,0 236.75,-20"/>
<text xml:space="preserve" text-anchor="middle" x="188.25" y="-6.5" font-family="Helvetica,sans-Serif" font-size="10.00">AsyncClient::abort</text>
</a>
</g>
</g>
<!-- Node1&#45;&gt;Node7 -->
<g id="edge6_Node000001_Node000007" class="edge">
<title>Node1&#45;&gt;Node7</title>
<g id="a_edge6_Node000001_Node000007"><a xlink:title=" ">
<path fill="none" stroke="#63b8ff" d="M76.02,-56.64C93.47,-48.88 118.03,-38.09 139.75,-29 143.3,-27.51 147.01,-25.99 150.72,-24.48"/>
<polygon fill="#63b8ff" stroke="#63b8ff" points="151.69,-27.86 159.65,-20.87 149.07,-21.37 151.69,-27.86"/>
</a>
</g>
</g>
<!-- Node4 -->
<g id="Node000004" class="node">
<title>Node4</title>
<g id="a_Node000004"><a xlink:href="_async_t_c_p_8cpp.html#a42bebdded16714188a8e554237aad2f3" target="_top" xlink:title=" ">
<polygon fill="white" stroke="#666666" points="389.25,-96 272.75,-96 272.75,-76 389.25,-76 389.25,-96"/>
<text xml:space="preserve" text-anchor="middle" x="331" y="-82.5" font-family="Helvetica,sans-Serif" font-size="10.00">_prepend_async_event</text>
</a>
</g>
</g>
<!-- Node3&#45;&gt;Node4 -->
<g id="edge3_Node000003_Node000004" class="edge">
<title>Node3&#45;&gt;Node4</title>
<g id="a_edge3_Node000003_Node000004"><a xlink:title=" ">
<path fill="none" stroke="#63b8ff" d="M236.12,-86C244.14,-86 252.63,-86 261.09,-86"/>
<polygon fill="#63b8ff" stroke="#63b8ff" points="261.05,-89.5 271.05,-86 261.05,-82.5 261.05,-89.5"/>
</a>
</g>
</g>
<!-- Node6 -->
<g id="Node000006" class="node">
<title>Node6</title>
<g id="a_Node000006"><a xlink:href="_async_t_c_p_8cpp.html#a7c4346c7dec98a175f7b96b03873839a" target="_top" xlink:title=" ">
<polygon fill="white" stroke="#666666" points="371.62,-58 290.38,-58 290.38,-38 371.62,-38 371.62,-58"/>
<text xml:space="preserve" text-anchor="middle" x="331" y="-44.5" font-family="Helvetica,sans-Serif" font-size="10.00">_tcp_close_api</text>
</a>
</g>
</g>
<!-- Node5&#45;&gt;Node6 -->
<g id="edge5_Node000005_Node000006" class="edge">
<title>Node5&#45;&gt;Node6</title>
<g id="a_edge5_Node000005_Node000006"><a xlink:title=" ">
<path fill="none" stroke="#63b8ff" d="M220.14,-48C237.32,-48 259.15,-48 278.81,-48"/>
<polygon fill="#63b8ff" stroke="#63b8ff" points="278.57,-51.5 288.57,-48 278.57,-44.5 278.57,-51.5"/>
</a>
</g>
</g>
<!-- Node8 -->
<g id="Node000008" class="node">
<title>Node8</title>
<g id="a_Node000008"><a xlink:href="_async_t_c_p_8cpp.html#a3e2474b46f6a3f01db216511d2bcfc4c" target="_top" xlink:title=" ">
<polygon fill="white" stroke="#666666" points="361.88,-20 300.12,-20 300.12,0 361.88,0 361.88,-20"/>
<text xml:space="preserve" text-anchor="middle" x="331" y="-6.5" font-family="Helvetica,sans-Serif" font-size="10.00">_tcp_abort</text>
</a>
</g>
</g>
<!-- Node7&#45;&gt;Node8 -->
<g id="edge7_Node000007_Node000008" class="edge">
<title>Node7&#45;&gt;Node8</title>
<g id="a_edge7_Node000007_Node000008"><a xlink:title=" ">
<path fill="none" stroke="#63b8ff" d="M236.9,-10C253.72,-10 272.47,-10 288.71,-10"/>
<polygon fill="#63b8ff" stroke="#63b8ff" points="288.52,-13.5 298.52,-10 288.52,-6.5 288.52,-13.5"/>
</a>
</g>
</g>
<!-- Node9 -->
<g id="Node000009" class="node">
<title>Node9</title>
<g id="a_Node000009"><a xlink:href="_async_t_c_p_8cpp.html#a1116bc106bb6f68220dc19896e08e831" target="_top" xlink:title=" ">
<polygon fill="white" stroke="#666666" points="505,-20 425.25,-20 425.25,0 505,0 505,-20"/>
<text xml:space="preserve" text-anchor="middle" x="465.12" y="-6.5" font-family="Helvetica,sans-Serif" font-size="10.00">_tcp_abort_api</text>
</a>
</g>
</g>
<!-- Node8&#45;&gt;Node9 -->
<g id="edge8_Node000008_Node000009" class="edge">
<title>Node8&#45;&gt;Node9</title>
<g id="a_edge8_Node000008_Node000009"><a xlink:title=" ">
<path fill="none" stroke="#63b8ff" d="M362.31,-10C377.56,-10 396.45,-10 413.8,-10"/>
<polygon fill="#63b8ff" stroke="#63b8ff" points="413.41,-13.5 423.41,-10 413.41,-6.5 413.41,-13.5"/>
</a>
</g>
</g>
</g>
</svg>
