<?xml version="1.0" encoding="UTF-8" standalone="no"?>
<!DOCTYPE svg PUBLIC "-//W3C//DTD SVG 1.1//EN"
 "http://www.w3.org/Graphics/SVG/1.1/DTD/svg11.dtd">
<!-- Generated by graphviz version 14.1.2 (20260124.0452)
 -->
<!-- Title: AsyncServer::_s_accepted Pages: 1 -->
<svg width="312pt" height="66pt"
 viewBox="0.00 0.00 312.00 66.00" xmlns="http://www.w3.org/2000/svg" xmlns:xlink="http://www.w3.org/1999/xlink">
<g id="graph0" class="graph" transform="scale(1 1) rotate(0) translate(4 62)">
<title>AsyncServer::_s_accepted</title>
<!-- Node1 -->
<g id="Node000001" class="node">
<title>Node1</title>
<g id="a_Node000001"><a xlink:title=" ">
<polygon fill="#999999" stroke="#666666" points="133.75,-39 0,-39 0,-19 133.75,-19 133.75,-39"/>
<text xml:space="preserve" text-anchor="middle" x="66.88" y="-25.5" font-family="Helvetica,sans-Serif" font-size="10.00">AsyncServer::_s_accepted</text>
</a>
</g>
</g>
<!-- Node2 -->
<g id="Node000002" class="node">
<title>Node2</title>
<g id="a_Node000002"><a xlink:href="class_async_server.html#ae12ee87206611e09ed5e644c6baf1c96" target="_top" xlink:title=" ">
<polygon fill="white" stroke="#666666" points="298.62,-58 175.38,-58 175.38,-38 298.62,-38 298.62,-58"/>
<text xml:space="preserve" text-anchor="middle" x="237" y="-44.5" font-family="Helvetica,sans-Serif" font-size="10.00">AsyncServer::_accepted</text>
</a>
</g>
</g>
<!-- Node1&#45;&gt;Node2 -->
<g id="edge1_Node000001_Node000002" class="edge">
<title>Node1&#45;&gt;Node2</title>
<g id="a_edge1_Node000001_Node000002"><a xlink:title=" ">
<path fill="none" stroke="#63b8ff" d="M133.84,-36.45C143.56,-37.55 153.62,-38.69 163.46,-39.8"/>
<polygon fill="#63b8ff" stroke="#63b8ff" points="163.05,-43.28 173.38,-40.92 163.84,-36.32 163.05,-43.28"/>
</a>
</g>
</g>
<!-- Node3 -->
<g id="Node000003" class="node">
<title>Node3</title>
<g id="a_Node000003"><a xlink:href="class_async_server.html#aa6357ae6df41ef23d53d2a73759f5016" target="_top" xlink:title=" ">
<polygon fill="white" stroke="#666666" points="304.25,-20 169.75,-20 169.75,0 304.25,0 304.25,-20"/>
<text xml:space="preserve" text-anchor="middle" x="237" y="-6.5" font-family="Helvetica,sans-Serif" font-size="10.00">AsyncServer::AsyncServer</text>
</a>
</g>
</g>
<!-- Node1&#45;&gt;Node3 -->
<g id="edge2_Node000001_Node000003" class="edge">
<title>Node1&#45;&gt;Node3</title>
<g id="a_edge2_Node000001_Node000003"><a xlink:title=" ">
<path fill="none" stroke="#63b8ff" d="M133.84,-21.55C141.78,-20.65 149.95,-19.72 158.04,-18.81"/>
<polygon fill="#63b8ff" stroke="#63b8ff" points="158.35,-22.3 167.89,-17.7 157.56,-15.34 158.35,-22.3"/>
</a>
</g>
</g>
</g>
</svg>
