<?xml version="1.0" encoding="UTF-8" standalone="no"?>
<!DOCTYPE svg PUBLIC "-//W3C//DTD SVG 1.1//EN"
 "http://www.w3.org/Graphics/SVG/1.1/DTD/svg11.dtd">
<!-- Generated by graphviz version 14.1.2 (20260124.0452)
 -->
<!-- Title: AsyncClient::operator= Pages: 1 -->
<!--zoomable 206 -->

<svg id="main" version="1.1" xmlns="http://www.w3.org/2000/svg" xmlns:xlink="http://www.w3.org/1999/xlink" xml:space="preserve" onload="init(evt)">

<style type="text/css"><![CDATA[
.node, .edge {opacity: 0.7;}
.node.selected, .edge.selected {opacity: 1;}
.edge:hover path { stroke: red; }
.edge:hover polygon { stroke: red; fill: red; }
]]></style>

<defs>
  <circle id="rim" cx="0" cy="0" r="7"/>
  <circle id="rim2" cx="0" cy="0" r="3.5"/>
  <g id="zoomPlus">
    <use xlink:href="#rim" fill="#404040"><set attributeName="fill" to="#808080" begin="zoomplus.mouseover" end="zoomplus.mouseout"/></use>
    <path d="M-4,0h8M0,-4v8" fill="none" stroke="white" stroke-width="1.5" pointer-events="none"/>
  </g>
  <g id="zoomMin">
    <use xlink:href="#rim" fill="#404040"><set attributeName="fill" to="#808080" begin="zoomminus.mouseover" end="zoomminus.mouseout"/></use>
    <path d="M-4,0h8" fill="none" stroke="white" stroke-width="1.5" pointer-events="none"/>
  </g>
  <g id="arrowUp" transform="translate(30 24)">
    <use xlink:href="#rim"/>
    <path pointer-events="none" fill="none" stroke="white" stroke-width="1.5" d="M0,-3.0v7 M-2.5,-0.5L0,-3.0L2.5,-0.5"/>
  </g>
  <g id="arrowRight" transform="rotate(90) translate(36 -43)">
    <use xlink:href="#rim"/>
    <path pointer-events="none" fill="none" stroke="white" stroke-width="1.5" d="M0,-3.0v7 M-2.5,-0.5L0,-3.0L2.5,-0.5"/>
  </g>
  <g id="arrowDown" transform="rotate(180) translate(-30 -48)">
    <use xlink:href="#rim"/>
    <path pointer-events="none" fill="none" stroke="white" stroke-width="1.5" d="M0,-3.0v7 M-2.5,-0.5L0,-3.0L2.5,-0.5"/>
  </g>
  <g id="arrowLeft" transform="rotate(270) translate(-36 17)">
    <use xlink:href="#rim"/>
    <path pointer-events="none" fill="none" stroke="white" stroke-width="1.5" d="M0,-3.0v7 M-2.5,-0.5L0,-3.0L2.5,-0.5"/>
  </g>
  <g id="resetDef">
    <use xlink:href="#rim2" fill="#404040"><set attributeName="fill" to="#808080" begin="reset.mouseover" end="reset.mouseout"/></use>
  </g>
</defs>
<script type="application/ecmascript">
var viewWidth = 710;
var viewHeight = 206;
var sectionId = 'dynsection-57';
</script>
<script type="application/ecmascript" xlink:href="svg.min.js"/>
<svg id="graph" class="graph">
<g id="viewport">
<title>AsyncClient::operator=</title>
<!-- Node1 -->
<g id="Node000001" class="node">
<title>Node1</title>
<g id="a_Node000001"><a xlink:title=" ">
<polygon fill="#999999" stroke="#666666" points="116.5,-96 0,-96 0,-76 116.5,-76 116.5,-96"/>
<text xml:space="preserve" text-anchor="middle" x="58.25" y="-82.5" font-family="Helvetica,sans-Serif" font-size="10.00">AsyncClient::operator=</text>
</a>
</g>
</g>
<!-- Node2 -->
<g id="Node000002" class="node">
<title>Node2</title>
<g id="a_Node000002"><a xlink:href="class_async_client.html#a98ff872bc84919f006f3bb8a249ed36d" target="_top" xlink:title=" ">
<polygon fill="white" stroke="#666666" points="256.25,-172 152.5,-172 152.5,-152 256.25,-152 256.25,-172"/>
<text xml:space="preserve" text-anchor="middle" x="204.38" y="-158.5" font-family="Helvetica,sans-Serif" font-size="10.00">AsyncClient::_close</text>
</a>
</g>
</g>
<!-- Node1&#45;&gt;Node2 -->
<g id="edge1_Node000001_Node000002" class="edge">
<title>Node1&#45;&gt;Node2</title>
<g id="a_edge1_Node000001_Node000002"><a xlink:title=" ">
<path fill="none" stroke="#63b8ff" d="M74.25,-96.41C92.26,-108.62 123.67,-128.96 152.5,-143 155.58,-144.5 158.81,-145.96 162.09,-147.35"/>
<polygon fill="#63b8ff" stroke="#63b8ff" points="160.59,-150.52 171.17,-151.01 163.21,-144.03 160.59,-150.52"/>
</a>
</g>
</g>
<!-- Node11 -->
<g id="Node000011" class="node">
<title>Node11</title>
<g id="a_Node000011"><a xlink:href="_async_t_c_p_8cpp.html#a61ff9f7f886bbbbcdc1daca453828934" target="_top" xlink:title=" ">
<polygon fill="white" stroke="#666666" points="234.12,-134 174.62,-134 174.62,-114 234.12,-114 234.12,-134"/>
<text xml:space="preserve" text-anchor="middle" x="204.38" y="-120.5" font-family="Helvetica,sans-Serif" font-size="10.00">_tcp_error</text>
</a>
</g>
</g>
<!-- Node1&#45;&gt;Node11 -->
<g id="edge9_Node000001_Node000011" class="edge">
<title>Node1&#45;&gt;Node11</title>
<g id="a_edge9_Node000001_Node000011"><a xlink:title=" ">
<path fill="none" stroke="#63b8ff" d="M99.01,-96.48C119.03,-101.76 143.23,-108.14 163.29,-113.43"/>
<polygon fill="#63b8ff" stroke="#63b8ff" points="162.23,-116.77 172.79,-115.94 164.01,-110 162.23,-116.77"/>
</a>
</g>
</g>
<!-- Node13 -->
<g id="Node000013" class="node">
<title>Node13</title>
<g id="a_Node000013"><a xlink:href="_async_t_c_p_8cpp.html#ad4b2c6c935c211eef5884f25a950e445" target="_top" xlink:title=" ">
<polygon fill="white" stroke="#666666" points="231.88,-96 176.88,-96 176.88,-76 231.88,-76 231.88,-96"/>
<text xml:space="preserve" text-anchor="middle" x="204.38" y="-82.5" font-family="Helvetica,sans-Serif" font-size="10.00">_tcp_poll</text>
</a>
</g>
</g>
<!-- Node1&#45;&gt;Node13 -->
<g id="edge11_Node000001_Node000013" class="edge">
<title>Node1&#45;&gt;Node13</title>
<g id="a_edge11_Node000001_Node000013"><a xlink:title=" ">
<path fill="none" stroke="#63b8ff" d="M116.63,-86C132.98,-86 150.38,-86 165.28,-86"/>
<polygon fill="#63b8ff" stroke="#63b8ff" points="165.11,-89.5 175.11,-86 165.11,-82.5 165.11,-89.5"/>
</a>
</g>
</g>
<!-- Node14 -->
<g id="Node000014" class="node">
<title>Node14</title>
<g id="a_Node000014"><a xlink:href="_async_t_c_p_8cpp.html#adf7826424bf5b1035c4850f6b3307686" target="_top" xlink:title=" ">
<polygon fill="white" stroke="#666666" points="233.75,-20 175,-20 175,0 233.75,0 233.75,-20"/>
<text xml:space="preserve" text-anchor="middle" x="204.38" y="-6.5" font-family="Helvetica,sans-Serif" font-size="10.00">_tcp_recv</text>
</a>
</g>
</g>
<!-- Node1&#45;&gt;Node14 -->
<g id="edge13_Node000001_Node000014" class="edge">
<title>Node1&#45;&gt;Node14</title>
<g id="a_edge13_Node000001_Node000014"><a xlink:title=" ">
<path fill="none" stroke="#63b8ff" d="M74.25,-75.59C92.26,-63.38 123.67,-43.04 152.5,-29 156.24,-27.18 160.2,-25.42 164.19,-23.76"/>
<polygon fill="#63b8ff" stroke="#63b8ff" points="165.29,-27.09 173.31,-20.17 162.72,-20.58 165.29,-27.09"/>
</a>
</g>
</g>
<!-- Node17 -->
<g id="Node000017" class="node">
<title>Node17</title>
<g id="a_Node000017"><a xlink:href="_async_t_c_p_8cpp.html#a0b47280aff638ec9b80f7a87dfe54ea6" target="_top" xlink:title=" ">
<polygon fill="white" stroke="#666666" points="233.75,-58 175,-58 175,-38 233.75,-38 233.75,-58"/>
<text xml:space="preserve" text-anchor="middle" x="204.38" y="-44.5" font-family="Helvetica,sans-Serif" font-size="10.00">_tcp_sent</text>
</a>
</g>
</g>
<!-- Node1&#45;&gt;Node17 -->
<g id="edge18_Node000001_Node000017" class="edge">
<title>Node1&#45;&gt;Node17</title>
<g id="a_edge18_Node000001_Node000017"><a xlink:title=" ">
<path fill="none" stroke="#63b8ff" d="M99.01,-75.52C119.17,-70.2 143.57,-63.77 163.71,-58.46"/>
<polygon fill="#63b8ff" stroke="#63b8ff" points="164.47,-61.88 173.24,-55.94 162.68,-55.11 164.47,-61.88"/>
</a>
</g>
</g>
<!-- Node3 -->
<g id="Node000003" class="node">
<title>Node3</title>
<g id="a_Node000003"><a xlink:href="class_async_client.html#aff6a2fbf261b25e1fcd35c11cce348a5" target="_top" xlink:title=" ">
<polygon fill="white" stroke="#666666" points="701.75,-140 604.75,-140 604.75,-108 701.75,-108 701.75,-140"/>
<text xml:space="preserve" text-anchor="start" x="612.75" y="-126.5" font-family="Helvetica,sans-Serif" font-size="10.00">AsyncClient::_free</text>
<text xml:space="preserve" text-anchor="middle" x="653.25" y="-114.5" font-family="Helvetica,sans-Serif" font-size="10.00">_closed_slot</text>
</a>
</g>
</g>
<!-- Node2&#45;&gt;Node3 -->
<g id="edge2_Node000002_Node000003" class="edge">
<title>Node2&#45;&gt;Node3</title>
<g id="a_edge2_Node000002_Node000003"><a xlink:title=" ">
<path fill="none" stroke="#63b8ff" d="M243.57,-172.46C310.97,-189.08 454.67,-216.23 568.75,-181 590.2,-174.38 611.06,-160.14 626.56,-147.56"/>
<polygon fill="#63b8ff" stroke="#63b8ff" points="628.49,-150.51 633.88,-141.38 623.98,-145.16 628.49,-150.51"/>
</a>
</g>
</g>
<!-- Node4 -->
<g id="Node000004" class="node">
<title>Node4</title>
<g id="a_Node000004"><a xlink:href="_async_t_c_p_8cpp.html#ab053d5adb5be879f37181af512213bb6" target="_top" xlink:title=" ">
<polygon fill="white" stroke="#666666" points="402,-172 306.5,-172 306.5,-152 402,-152 402,-172"/>
<text xml:space="preserve" text-anchor="middle" x="354.25" y="-158.5" font-family="Helvetica,sans-Serif" font-size="10.00">_tcp_clear_events</text>
</a>
</g>
</g>
<!-- Node2&#45;&gt;Node4 -->
<g id="edge3_Node000002_Node000004" class="edge">
<title>Node2&#45;&gt;Node4</title>
<g id="a_edge3_Node000002_Node000004"><a xlink:title=" ">
<path fill="none" stroke="#63b8ff" d="M256.68,-162C268.94,-162 282.12,-162 294.69,-162"/>
<polygon fill="#63b8ff" stroke="#63b8ff" points="294.49,-165.5 304.49,-162 294.49,-158.5 294.49,-165.5"/>
</a>
</g>
</g>
<!-- Node6 -->
<g id="Node000006" class="node">
<title>Node6</title>
<g id="a_Node000006"><a xlink:href="_async_t_c_p_8cpp.html#a3602c1ebfae2fb2ff64a0e3d7b0568ce" target="_top" xlink:title=" ">
<polygon fill="white" stroke="#666666" points="385.88,-134 322.62,-134 322.62,-114 385.88,-114 385.88,-134"/>
<text xml:space="preserve" text-anchor="middle" x="354.25" y="-120.5" font-family="Helvetica,sans-Serif" font-size="10.00">_tcp_close</text>
</a>
</g>
</g>
<!-- Node2&#45;&gt;Node6 -->
<g id="edge5_Node000002_Node000006" class="edge">
<title>Node2&#45;&gt;Node6</title>
<g id="a_edge5_Node000002_Node000006"><a xlink:title=" ">
<path fill="none" stroke="#63b8ff" d="M246.17,-151.52C266.51,-146.29 291.07,-139.98 311.54,-134.72"/>
<polygon fill="#63b8ff" stroke="#63b8ff" points="312.15,-138.17 320.97,-132.3 310.41,-131.39 312.15,-138.17"/>
</a>
</g>
</g>
<!-- Node8 -->
<g id="Node000008" class="node">
<title>Node8</title>
<g id="a_Node000008"><a xlink:href="class_async_client.html#a09e777ff005d8e0f81166e704dc14979" target="_top" xlink:title=" ">
<polygon fill="white" stroke="#666666" points="402.75,-96 305.75,-96 305.75,-76 402.75,-76 402.75,-96"/>
<text xml:space="preserve" text-anchor="middle" x="354.25" y="-82.5" font-family="Helvetica,sans-Serif" font-size="10.00">AsyncClient::abort</text>
</a>
</g>
</g>
<!-- Node2&#45;&gt;Node8 -->
<g id="edge7_Node000002_Node000008" class="edge">
<title>Node2&#45;&gt;Node8</title>
<g id="a_edge7_Node000002_Node000008"><a xlink:title=" ">
<path fill="none" stroke="#63b8ff" d="M239.81,-151.59C245.52,-149.18 251.22,-146.33 256.25,-143 275.65,-130.15 272.5,-117.3 292.25,-105 294.55,-103.56 296.97,-102.23 299.47,-100.99"/>
<polygon fill="#63b8ff" stroke="#63b8ff" points="300.85,-104.2 308.64,-97.01 298.07,-97.78 300.85,-104.2"/>
</a>
</g>
</g>
<!-- Node5 -->
<g id="Node000005" class="node">
<title>Node5</title>
<g id="a_Node000005"><a xlink:href="_async_t_c_p_8cpp.html#a42bebdded16714188a8e554237aad2f3" target="_top" xlink:title=" ">
<polygon fill="white" stroke="#666666" points="568.75,-172 452.25,-172 452.25,-152 568.75,-152 568.75,-172"/>
<text xml:space="preserve" text-anchor="middle" x="510.5" y="-158.5" font-family="Helvetica,sans-Serif" font-size="10.00">_prepend_async_event</text>
</a>
</g>
</g>
<!-- Node4&#45;&gt;Node5 -->
<g id="edge4_Node000004_Node000005" class="edge">
<title>Node4&#45;&gt;Node5</title>
<g id="a_edge4_Node000004_Node000005"><a xlink:title=" ">
<path fill="none" stroke="#63b8ff" d="M402.37,-162C414.43,-162 427.65,-162 440.56,-162"/>
<polygon fill="#63b8ff" stroke="#63b8ff" points="440.28,-165.5 450.28,-162 440.28,-158.5 440.28,-165.5"/>
</a>
</g>
</g>
<!-- Node7 -->
<g id="Node000007" class="node">
<title>Node7</title>
<g id="a_Node000007"><a xlink:href="_async_t_c_p_8cpp.html#a7c4346c7dec98a175f7b96b03873839a" target="_top" xlink:title=" ">
<polygon fill="white" stroke="#666666" points="551.12,-134 469.88,-134 469.88,-114 551.12,-114 551.12,-134"/>
<text xml:space="preserve" text-anchor="middle" x="510.5" y="-120.5" font-family="Helvetica,sans-Serif" font-size="10.00">_tcp_close_api</text>
</a>
</g>
</g>
<!-- Node6&#45;&gt;Node7 -->
<g id="edge6_Node000006_Node000007" class="edge">
<title>Node6&#45;&gt;Node7</title>
<g id="a_edge6_Node000006_Node000007"><a xlink:title=" ">
<path fill="none" stroke="#63b8ff" d="M386.09,-124C406.72,-124 434.36,-124 458.24,-124"/>
<polygon fill="#63b8ff" stroke="#63b8ff" points="458.11,-127.5 468.11,-124 458.11,-120.5 458.11,-127.5"/>
</a>
</g>
</g>
<!-- Node9 -->
<g id="Node000009" class="node">
<title>Node9</title>
<g id="a_Node000009"><a xlink:href="_async_t_c_p_8cpp.html#a3e2474b46f6a3f01db216511d2bcfc4c" target="_top" xlink:title=" ">
<polygon fill="#fff0f0" stroke="red" points="541.38,-96 479.62,-96 479.62,-76 541.38,-76 541.38,-96"/>
<text xml:space="preserve" text-anchor="middle" x="510.5" y="-82.5" font-family="Helvetica,sans-Serif" font-size="10.00">_tcp_abort</text>
</a>
</g>
</g>
<!-- Node8&#45;&gt;Node9 -->
<g id="edge8_Node000008_Node000009" class="edge">
<title>Node8&#45;&gt;Node9</title>
<g id="a_edge8_Node000008_Node000009"><a xlink:title=" ">
<path fill="none" stroke="#63b8ff" d="M403.21,-86C424.06,-86 448.24,-86 468.27,-86"/>
<polygon fill="#63b8ff" stroke="#63b8ff" points="468.01,-89.5 478.01,-86 468.01,-82.5 468.01,-89.5"/>
</a>
</g>
</g>
<!-- Node12 -->
<g id="Node000012" class="node">
<title>Node12</title>
<g id="a_Node000012"><a xlink:href="_async_t_c_p_8cpp.html#a796c13746a84a6b2e7370ddbec97ad5b" target="_top" xlink:title=" ">
<polygon fill="white" stroke="#666666" points="405.75,-58 302.75,-58 302.75,-38 405.75,-38 405.75,-58"/>
<text xml:space="preserve" text-anchor="middle" x="354.25" y="-44.5" font-family="Helvetica,sans-Serif" font-size="10.00">_send_async_event</text>
</a>
</g>
</g>
<!-- Node11&#45;&gt;Node12 -->
<g id="edge10_Node000011_Node000012" class="edge">
<title>Node11&#45;&gt;Node12</title>
<g id="a_edge10_Node000011_Node000012"><a xlink:title=" ">
<path fill="none" stroke="#63b8ff" d="M234.47,-115.72C241.9,-112.92 249.65,-109.37 256.25,-105 275.65,-92.15 272.5,-79.3 292.25,-67 294.55,-65.56 296.97,-64.23 299.47,-62.99"/>
<polygon fill="#63b8ff" stroke="#63b8ff" points="300.85,-66.2 308.64,-59.01 298.07,-59.78 300.85,-66.2"/>
</a>
</g>
</g>
<!-- Node13&#45;&gt;Node12 -->
<g id="edge12_Node000013_Node000012" class="edge">
<title>Node13&#45;&gt;Node12</title>
<g id="a_edge12_Node000013_Node000012"><a xlink:title=" ">
<path fill="none" stroke="#63b8ff" d="M232.15,-79.12C251.48,-74.15 278.19,-67.29 301.6,-61.27"/>
<polygon fill="#63b8ff" stroke="#63b8ff" points="302.16,-64.74 310.97,-58.86 300.42,-57.96 302.16,-64.74"/>
</a>
</g>
</g>
<!-- Node14&#45;&gt;Node12 -->
<g id="edge17_Node000014_Node000012" class="edge">
<title>Node14&#45;&gt;Node12</title>
<g id="a_edge17_Node000014_Node000012"><a xlink:title=" ">
<path fill="none" stroke="#63b8ff" d="M234.24,-17.42C253.29,-22.31 278.81,-28.87 301.32,-34.66"/>
<polygon fill="#63b8ff" stroke="#63b8ff" points="300.41,-38.04 310.97,-37.13 302.15,-31.26 300.41,-38.04"/>
</a>
</g>
</g>
<!-- Node15 -->
<g id="Node000015" class="node">
<title>Node15</title>
<g id="a_Node000015"><a xlink:href="class_async_client.html#a485b2be0c01d3172928c0ed9655edc2f" target="_top" xlink:title=" ">
<polygon fill="white" stroke="#666666" points="416.25,-20 292.25,-20 292.25,0 416.25,0 416.25,-20"/>
<text xml:space="preserve" text-anchor="middle" x="354.25" y="-6.5" font-family="Helvetica,sans-Serif" font-size="10.00">AsyncClient::_s_lwip_fin</text>
</a>
</g>
</g>
<!-- Node14&#45;&gt;Node15 -->
<g id="edge14_Node000014_Node000015" class="edge">
<title>Node14&#45;&gt;Node15</title>
<g id="a_edge14_Node000014_Node000015"><a xlink:title=" ">
<path fill="none" stroke="#63b8ff" d="M234.24,-10C247.62,-10 264.2,-10 280.68,-10"/>
<polygon fill="#63b8ff" stroke="#63b8ff" points="280.52,-13.5 290.52,-10 280.52,-6.5 280.52,-13.5"/>
</a>
</g>
</g>
<!-- Node16 -->
<g id="Node000016" class="node">
<title>Node16</title>
<g id="a_Node000016"><a xlink:href="class_async_client.html#a32dfd5b9ec97903e2f59871f17b85ff4" target="_top" xlink:title=" ">
<polygon fill="white" stroke="#666666" points="567.25,-39 453.75,-39 453.75,-19 567.25,-19 567.25,-39"/>
<text xml:space="preserve" text-anchor="middle" x="510.5" y="-25.5" font-family="Helvetica,sans-Serif" font-size="10.00">AsyncClient::_lwip_fin</text>
</a>
</g>
</g>
<!-- Node15&#45;&gt;Node16 -->
<g id="edge15_Node000015_Node000016" class="edge">
<title>Node15&#45;&gt;Node16</title>
<g id="a_edge15_Node000015_Node000016"><a xlink:title=" ">
<path fill="none" stroke="#63b8ff" d="M416.66,-17.56C424.97,-18.59 433.55,-19.64 441.96,-20.68"/>
<polygon fill="#63b8ff" stroke="#63b8ff" points="441.45,-24.14 451.81,-21.89 442.31,-17.2 441.45,-24.14"/>
</a>
</g>
</g>
<!-- Node16&#45;&gt;Node3 -->
<g id="edge16_Node000016_Node000003" class="edge">
<title>Node16&#45;&gt;Node3</title>
<g id="a_edge16_Node000016_Node000003"><a xlink:title=" ">
<path fill="none" stroke="#63b8ff" d="M527.09,-39.27C538.62,-46.88 554.7,-57.54 568.75,-67 585.51,-78.28 604.08,-90.94 619.44,-101.46"/>
<polygon fill="#63b8ff" stroke="#63b8ff" points="617.08,-104.08 627.3,-106.85 621.03,-98.31 617.08,-104.08"/>
</a>
</g>
</g>
<!-- Node17&#45;&gt;Node12 -->
<g id="edge19_Node000017_Node000012" class="edge">
<title>Node17&#45;&gt;Node12</title>
<g id="a_edge19_Node000017_Node000012"><a xlink:title=" ">
<path fill="none" stroke="#63b8ff" d="M234.24,-48C250.4,-48 271.2,-48 290.89,-48"/>
<polygon fill="#63b8ff" stroke="#63b8ff" points="290.79,-51.5 300.79,-48 290.79,-44.5 290.79,-51.5"/>
</a>
</g>
</g>
</g>
</svg>

<g id="navigator" transform="translate(0 0)" fill="#404254">
  <rect fill="#f2f5e9" fill-opacity="0.5" stroke="#606060" stroke-width=".5" x="0" y="0" width="60" height="60"/>
  <use id="zoomplus" xlink:href="#zoomPlus" x="17" y="9" onmousedown="handleZoom(evt,'in')"/>
  <use id="zoomminus" xlink:href="#zoomMin" x="42" y="9" onmousedown="handleZoom(evt,'out')"/>
  <use id="reset" xlink:href="#resetDef" x="30" y="36" onmousedown="handleReset()"/>
   <use id="arrowup" xlink:href="#arrowUp" x="0" y="0" onmousedown="handlePan(0,-1)"/>
  <use id="arrowright" xlink:href="#arrowRight" x="0" y="0" onmousedown="handlePan(1,0)"/>
  <use id="arrowdown" xlink:href="#arrowDown" x="0" y="0" onmousedown="handlePan(0,1)"/>
  <use id="arrowleft" xlink:href="#arrowLeft" x="0" y="0" onmousedown="handlePan(-1,0)"/>
</g>
<svg viewBox="0 0 15 15" width="100%" height="30px" preserveAspectRatio="xMaxYMin meet">
 <g id="arrow_out" transform="scale(0.3 0.3)">
  <a xlink:href="class_async_client_a575c12664279634155259e007c6a104f_cgraph_org.svg" target="_base">
   <rect id="button" ry="5" rx="5" y="6" x="6" height="38" width="38"
        fill="#f2f5e9" fill-opacity="0.5" stroke="#606060" stroke-width="1.0"/>
   <path id="arrow"
     d="M 11.500037,31.436501 C 11.940474,20.09759 22.043105,11.32322 32.158766,21.979434 L 37.068811,17.246167 C 37.068811,17.246167 37.088388,32 37.088388,32 L 22.160133,31.978069 C 22.160133,31.978069 26.997745,27.140456 26.997745,27.140456 C 18.528582,18.264221 13.291696,25.230495 11.500037,31.436501 z"
     style="fill:#404040;"/>
  </a>
 </g>
</svg>

<style type='text/css'>
<![CDATA[
[data-mouse-over-selected='false'] { opacity: 0.7; }
[data-mouse-over-selected='true']  { opacity: 1.0; }
]]>
</style>
<script type="application/ecmascript"><![CDATA[
document.addEventListener('DOMContentLoaded', (event) => {
  highlightEdges();
  highlightAdjacentNodes();
});
]]></script>
</svg>
