<?xml version="1.0" encoding="UTF-8" standalone="no"?>
<!DOCTYPE svg PUBLIC "-//W3C//DTD SVG 1.1//EN"
 "http://www.w3.org/Graphics/SVG/1.1/DTD/svg11.dtd">
<!-- Generated by graphviz version 14.1.2 (20260124.0452)
 -->
<!-- Title: AsyncClient::_close Pages: 1 -->
<svg width="616pt" height="198pt"
 viewBox="0.00 0.00 616.00 198.00" xmlns="http://www.w3.org/2000/svg" xmlns:xlink="http://www.w3.org/1999/xlink">
<g id="graph0" class="graph" transform="scale(1 1) rotate(0) translate(4 194)">
<title>AsyncClient::_close</title>
<!-- Node1 -->
<g id="Node000001" class="node">
<title>Node1</title>
<g id="a_Node000001"><a xlink:title=" ">
<polygon fill="#999999" stroke="#666666" points="607.75,-96 504,-96 504,-76 607.75,-76 607.75,-96"/>
<text xml:space="preserve" text-anchor="middle" x="555.88" y="-82.5" font-family="Helvetica,sans-Serif" font-size="10.00">AsyncClient::_close</text>
</a>
</g>
</g>
<!-- Node2 -->
<g id="Node000002" class="node">
<title>Node2</title>
<g id="a_Node000002"><a xlink:href="class_async_client.html#a383d1cb7d684d328362caa5eafc92ca2" target="_top" xlink:title=" ">
<polygon fill="white" stroke="#666666" points="448.5,-190 353,-190 353,-170 448.5,-170 448.5,-190"/>
<text xml:space="preserve" text-anchor="middle" x="400.75" y="-176.5" font-family="Helvetica,sans-Serif" font-size="10.00">AsyncClient::_poll</text>
</a>
</g>
</g>
<!-- Node1&#45;&gt;Node2 -->
<g id="edge1_Node000001_Node000002" class="edge">
<title>Node1&#45;&gt;Node2</title>
<g id="a_edge1_Node000001_Node000002"><a xlink:title=" ">
<path fill="none" stroke="#63b8ff" d="M538.19,-104.4C521.85,-121.38 495.46,-146.15 468,-161 461.79,-164.36 454.92,-167.18 448.03,-169.53"/>
<polygon fill="#63b8ff" stroke="#63b8ff" points="540.45,-107.11 544.74,-97.43 535.35,-102.32 540.45,-107.11"/>
</a>
</g>
</g>
<!-- Node13 -->
<g id="Node000013" class="node">
<title>Node13</title>
<g id="a_Node000013"><a xlink:href="class_async_client.html#aefecfa0c75c8c1b32104115e93739087" target="_top" xlink:title=" ">
<polygon fill="white" stroke="#666666" points="465,-134 336.5,-134 336.5,-114 465,-114 465,-134"/>
<text xml:space="preserve" text-anchor="middle" x="400.75" y="-120.5" font-family="Helvetica,sans-Serif" font-size="10.00">AsyncClient::AsyncClient</text>
</a>
</g>
</g>
<!-- Node1&#45;&gt;Node13 -->
<g id="edge4_Node000001_Node000013" class="edge">
<title>Node1&#45;&gt;Node13</title>
<g id="a_edge4_Node000001_Node000013"><a xlink:title=" ">
<path fill="none" stroke="#63b8ff" d="M501.49,-99.25C482.62,-103.93 461.67,-109.13 443.86,-113.55"/>
<polygon fill="#63b8ff" stroke="#63b8ff" points="502.3,-102.65 511.16,-96.85 500.61,-95.86 502.3,-102.65"/>
</a>
</g>
</g>
<!-- Node16 -->
<g id="Node000016" class="node">
<title>Node16</title>
<g id="a_Node000016"><a xlink:href="class_async_client.html#a0305fe0b036257c03829ceaa5cc43361" target="_top" xlink:title="close connection">
<polygon fill="white" stroke="#666666" points="450,-96 351.5,-96 351.5,-76 450,-76 450,-96"/>
<text xml:space="preserve" text-anchor="middle" x="400.75" y="-82.5" font-family="Helvetica,sans-Serif" font-size="10.00">AsyncClient::close</text>
</a>
</g>
</g>
<!-- Node1&#45;&gt;Node16 -->
<g id="edge8_Node000001_Node000016" class="edge">
<title>Node1&#45;&gt;Node16</title>
<g id="a_edge8_Node000001_Node000016"><a xlink:title=" ">
<path fill="none" stroke="#63b8ff" d="M492.76,-86C478.67,-86 463.89,-86 450.44,-86"/>
<polygon fill="#63b8ff" stroke="#63b8ff" points="492.37,-89.5 502.37,-86 492.37,-82.5 492.37,-89.5"/>
</a>
</g>
</g>
<!-- Node19 -->
<g id="Node000019" class="node">
<title>Node19</title>
<g id="a_Node000019"><a xlink:href="class_async_client.html#a575c12664279634155259e007c6a104f" target="_top" xlink:title=" ">
<polygon fill="white" stroke="#666666" points="459,-58 342.5,-58 342.5,-38 459,-38 459,-58"/>
<text xml:space="preserve" text-anchor="middle" x="400.75" y="-44.5" font-family="Helvetica,sans-Serif" font-size="10.00">AsyncClient::operator=</text>
</a>
</g>
</g>
<!-- Node1&#45;&gt;Node19 -->
<g id="edge11_Node000001_Node000019" class="edge">
<title>Node1&#45;&gt;Node19</title>
<g id="a_edge11_Node000001_Node000019"><a xlink:title=" ">
<path fill="none" stroke="#63b8ff" d="M501.49,-72.75C482.62,-68.07 461.67,-62.87 443.86,-58.45"/>
<polygon fill="#63b8ff" stroke="#63b8ff" points="500.61,-76.14 511.16,-75.15 502.3,-69.35 500.61,-76.14"/>
</a>
</g>
</g>
<!-- Node20 -->
<g id="Node000020" class="node">
<title>Node20</title>
<g id="a_Node000020"><a xlink:href="class_async_client.html#a4044bdcfd2ca6197f75200644685c5f0" target="_top" xlink:title=" ">
<polygon fill="white" stroke="#666666" points="468,-20 333.5,-20 333.5,0 468,0 468,-20"/>
<text xml:space="preserve" text-anchor="middle" x="400.75" y="-6.5" font-family="Helvetica,sans-Serif" font-size="10.00">AsyncClient::~AsyncClient</text>
</a>
</g>
</g>
<!-- Node1&#45;&gt;Node20 -->
<g id="edge12_Node000001_Node000020" class="edge">
<title>Node1&#45;&gt;Node20</title>
<g id="a_edge12_Node000001_Node000020"><a xlink:title=" ">
<path fill="none" stroke="#63b8ff" d="M532.72,-68.76C515.79,-56.27 491.44,-39.75 468,-29 460.82,-25.71 452.94,-22.85 445.2,-20.42"/>
<polygon fill="#63b8ff" stroke="#63b8ff" points="530.47,-71.44 540.57,-74.66 534.68,-65.85 530.47,-71.44"/>
</a>
</g>
</g>
<!-- Node3 -->
<g id="Node000003" class="node">
<title>Node3</title>
<g id="a_Node000003"><a xlink:href="class_async_client.html#abe187c005c73fe6c0c94e1b3b20b55de" target="_top" xlink:title=" ">
<polygon fill="white" stroke="#666666" points="294.12,-190 188.12,-190 188.12,-170 294.12,-170 294.12,-190"/>
<text xml:space="preserve" text-anchor="middle" x="241.12" y="-176.5" font-family="Helvetica,sans-Serif" font-size="10.00">AsyncClient::_s_poll</text>
</a>
</g>
</g>
<!-- Node2&#45;&gt;Node3 -->
<g id="edge2_Node000002_Node000003" class="edge">
<title>Node2&#45;&gt;Node3</title>
<g id="a_edge2_Node000002_Node000003"><a xlink:title=" ">
<path fill="none" stroke="#63b8ff" d="M341.41,-180C326.07,-180 309.62,-180 294.61,-180"/>
<polygon fill="#63b8ff" stroke="#63b8ff" points="341.37,-183.5 351.37,-180 341.37,-176.5 341.37,-183.5"/>
</a>
</g>
</g>
<!-- Node4 -->
<g id="Node000004" class="node">
<title>Node4</title>
<g id="a_Node000004"><a xlink:href="_async_t_c_p_8cpp.html#ac4030e968c0e4c0fcbe7a9b4502854c1" target="_top" xlink:title=" ">
<polygon fill="#fff0f0" stroke="red" points="129.62,-190 19.12,-190 19.12,-170 129.62,-170 129.62,-190"/>
<text xml:space="preserve" text-anchor="middle" x="74.38" y="-176.5" font-family="Helvetica,sans-Serif" font-size="10.00">_handle_async_event</text>
</a>
</g>
</g>
<!-- Node3&#45;&gt;Node4 -->
<g id="edge3_Node000003_Node000004" class="edge">
<title>Node3&#45;&gt;Node4</title>
<g id="a_edge3_Node000003_Node000004"><a xlink:title=" ">
<path fill="none" stroke="#63b8ff" d="M176.48,-180C161.14,-180 144.89,-180 130.01,-180"/>
<polygon fill="#63b8ff" stroke="#63b8ff" points="176.48,-183.5 186.48,-180 176.48,-176.5 176.48,-183.5"/>
</a>
</g>
</g>
<!-- Node13&#45;&gt;Node13 -->
<g id="edge7_Node000013_Node000013" class="edge">
<title>Node13&#45;&gt;Node13</title>
<g id="a_edge7_Node000013_Node000013"><a xlink:title=" ">
<path fill="none" stroke="#63b8ff" d="M428.17,-145.44C424.64,-149.3 415.5,-152 400.75,-152 373.78,-152 365.57,-142.98 376.1,-134.34"/>
<polygon fill="#63b8ff" stroke="#63b8ff" points="431.58,-144.66 425.76,-135.81 424.79,-146.36 431.58,-144.66"/>
</a>
</g>
</g>
<!-- Node14 -->
<g id="Node000014" class="node">
<title>Node14</title>
<g id="a_Node000014"><a xlink:href="class_async_server.html#a51e55999b79eec50bd68e899b8ddd4e4" target="_top" xlink:title=" ">
<polygon fill="white" stroke="#666666" points="297.5,-134 184.75,-134 184.75,-114 297.5,-114 297.5,-134"/>
<text xml:space="preserve" text-anchor="middle" x="241.12" y="-120.5" font-family="Helvetica,sans-Serif" font-size="10.00">AsyncServer::_accept</text>
</a>
</g>
</g>
<!-- Node13&#45;&gt;Node14 -->
<g id="edge5_Node000013_Node000014" class="edge">
<title>Node13&#45;&gt;Node14</title>
<g id="a_edge5_Node000013_Node000014"><a xlink:title=" ">
<path fill="none" stroke="#63b8ff" d="M324.72,-124C315.69,-124 306.59,-124 297.9,-124"/>
<polygon fill="#63b8ff" stroke="#63b8ff" points="324.58,-127.5 334.58,-124 324.58,-120.5 324.58,-127.5"/>
</a>
</g>
</g>
<!-- Node15 -->
<g id="Node000015" class="node">
<title>Node15</title>
<g id="a_Node000015"><a xlink:href="class_async_server.html#a9cfd997e84bd4ba394f3225863536d5e" target="_top" xlink:title=" ">
<polygon fill="#fff0f0" stroke="red" points="136,-134 12.75,-134 12.75,-114 136,-114 136,-134"/>
<text xml:space="preserve" text-anchor="middle" x="74.38" y="-120.5" font-family="Helvetica,sans-Serif" font-size="10.00">AsyncServer::_s_accept</text>
</a>
</g>
</g>
<!-- Node14&#45;&gt;Node15 -->
<g id="edge6_Node000014_Node000015" class="edge">
<title>Node14&#45;&gt;Node15</title>
<g id="a_edge6_Node000014_Node000015"><a xlink:title=" ">
<path fill="none" stroke="#63b8ff" d="M172.95,-124C160.88,-124 148.35,-124 136.47,-124"/>
<polygon fill="#63b8ff" stroke="#63b8ff" points="172.83,-127.5 182.83,-124 172.83,-120.5 172.83,-127.5"/>
</a>
</g>
</g>
<!-- Node17 -->
<g id="Node000017" class="node">
<title>Node17</title>
<g id="a_Node000017"><a xlink:href="class_async_client.html#a4bed4e925817d1b918af2ce43fb0859e" target="_top" xlink:title=" ">
<polygon fill="white" stroke="#666666" points="288.12,-96 194.12,-96 194.12,-76 288.12,-76 288.12,-96"/>
<text xml:space="preserve" text-anchor="middle" x="241.12" y="-82.5" font-family="Helvetica,sans-Serif" font-size="10.00">AsyncClient::stop</text>
</a>
</g>
</g>
<!-- Node16&#45;&gt;Node17 -->
<g id="edge9_Node000016_Node000017" class="edge">
<title>Node16&#45;&gt;Node17</title>
<g id="a_edge9_Node000016_Node000017"><a xlink:title=" ">
<path fill="none" stroke="#63b8ff" d="M340.14,-86C323,-86 304.58,-86 288.39,-86"/>
<polygon fill="#63b8ff" stroke="#63b8ff" points="339.66,-89.5 349.66,-86 339.66,-82.5 339.66,-89.5"/>
</a>
</g>
</g>
<!-- Node18 -->
<g id="Node000018" class="node">
<title>Node18</title>
<g id="a_Node000018"><a xlink:href="class_async_telnet.html#a346009ece13de398b1e461f674bbd215" target="_top" xlink:title=" ">
<polygon fill="white" stroke="#666666" points="148.75,-96 0,-96 0,-76 148.75,-76 148.75,-96"/>
<text xml:space="preserve" text-anchor="middle" x="74.38" y="-82.5" font-family="Helvetica,sans-Serif" font-size="10.00">AsyncTelnet::disconnectClient</text>
</a>
</g>
</g>
<!-- Node17&#45;&gt;Node18 -->
<g id="edge10_Node000017_Node000018" class="edge">
<title>Node17&#45;&gt;Node18</title>
<g id="a_edge10_Node000017_Node000018"><a xlink:title=" ">
<path fill="none" stroke="#63b8ff" d="M182.4,-86C171.64,-86 160.26,-86 149.1,-86"/>
<polygon fill="#63b8ff" stroke="#63b8ff" points="182.28,-89.5 192.28,-86 182.28,-82.5 182.28,-89.5"/>
</a>
</g>
</g>
</g>
</svg>
