<?xml version="1.0" encoding="UTF-8" standalone="no"?>
<!DOCTYPE svg PUBLIC "-//W3C//DTD SVG 1.1//EN"
 "http://www.w3.org/Graphics/SVG/1.1/DTD/svg11.dtd">
<!-- Generated by graphviz version 14.1.2 (20260124.0452)
 -->
<!-- Title: AuthSync::syncFromServer Pages: 1 -->
<svg width="513pt" height="119pt"
 viewBox="0.00 0.00 513.00 119.00" xmlns="http://www.w3.org/2000/svg" xmlns:xlink="http://www.w3.org/1999/xlink">
<g id="graph0" class="graph" transform="scale(1 1) rotate(0) translate(4 114.92)">
<title>AuthSync::syncFromServer</title>
<!-- Node1 -->
<g id="Node000001" class="node">
<title>Node1</title>
<g id="a_Node000001"><a xlink:title=" ">
<polygon fill="#999999" stroke="#666666" points="136.75,-77 0,-77 0,-57 136.75,-57 136.75,-77"/>
<text xml:space="preserve" text-anchor="middle" x="68.38" y="-63.5" font-family="Helvetica,sans-Serif" font-size="10.00">AuthSync::syncFromServer</text>
</a>
</g>
</g>
<!-- Node2 -->
<g id="Node000002" class="node">
<title>Node2</title>
<g id="a_Node000002"><a xlink:href="class_auth_sync.html#aab1e2b7beebdab60e16d9b3a50678efd" target="_top" xlink:title=" ">
<polygon fill="white" stroke="#666666" points="493.5,-96 359.75,-96 359.75,-76 493.5,-76 493.5,-96"/>
<text xml:space="preserve" text-anchor="middle" x="426.62" y="-82.5" font-family="Helvetica,sans-Serif" font-size="10.00">AuthSync::calcBitsetBytes</text>
</a>
</g>
</g>
<!-- Node1&#45;&gt;Node2 -->
<g id="edge1_Node000001_Node000002" class="edge">
<title>Node1&#45;&gt;Node2</title>
<g id="a_edge1_Node000001_Node000002"><a xlink:title=" ">
<path fill="none" stroke="#63b8ff" d="M90.93,-77.47C111.42,-86.81 143.38,-99.77 172.75,-105 238.84,-116.76 315.9,-107.77 367.43,-98.58"/>
<polygon fill="#63b8ff" stroke="#63b8ff" points="367.98,-102.04 377.18,-96.78 366.71,-95.15 367.98,-102.04"/>
</a>
</g>
</g>
<!-- Node3 -->
<g id="Node000003" class="node">
<title>Node3</title>
<g id="a_Node000003"><a xlink:href="class_auth_sync.html#a4a8d3b99ed3bfb87ab36b2abbcce0594" target="_top" xlink:title=" ">
<polygon fill="white" stroke="#666666" points="309.88,-96 175.38,-96 175.38,-76 309.88,-76 309.88,-96"/>
<text xml:space="preserve" text-anchor="middle" x="242.62" y="-82.5" font-family="Helvetica,sans-Serif" font-size="10.00">AuthSync::saveBitsetToFS</text>
</a>
</g>
</g>
<!-- Node1&#45;&gt;Node3 -->
<g id="edge2_Node000001_Node000003" class="edge">
<title>Node1&#45;&gt;Node3</title>
<g id="a_edge2_Node000001_Node000003"><a xlink:title=" ">
<path fill="none" stroke="#63b8ff" d="M136.96,-74.45C145.77,-75.43 154.86,-76.43 163.82,-77.42"/>
<polygon fill="#63b8ff" stroke="#63b8ff" points="163.26,-80.88 173.58,-78.49 164.02,-73.92 163.26,-80.88"/>
</a>
</g>
</g>
<!-- Node4 -->
<g id="Node000004" class="node">
<title>Node4</title>
<g id="a_Node000004"><a xlink:href="class_auth_sync.html#a96c599b762bdafa672930dfa6f07ff13" target="_top" xlink:title=" ">
<polygon fill="white" stroke="#666666" points="312.5,-20 172.75,-20 172.75,0 312.5,0 312.5,-20"/>
<text xml:space="preserve" text-anchor="middle" x="242.62" y="-6.5" font-family="Helvetica,sans-Serif" font-size="10.00">AuthSync::saveETagToNVS</text>
</a>
</g>
</g>
<!-- Node1&#45;&gt;Node4 -->
<g id="edge3_Node000001_Node000004" class="edge">
<title>Node1&#45;&gt;Node4</title>
<g id="a_edge3_Node000001_Node000004"><a xlink:title=" ">
<path fill="none" stroke="#63b8ff" d="M95.94,-56.54C116.69,-48.54 146.35,-37.48 172.75,-29 178.51,-27.15 184.57,-25.32 190.61,-23.56"/>
<polygon fill="#63b8ff" stroke="#63b8ff" points="191.28,-27.01 199.94,-20.91 189.36,-20.28 191.28,-27.01"/>
</a>
</g>
</g>
<!-- Node6 -->
<g id="Node000006" class="node">
<title>Node6</title>
<g id="a_Node000006"><a xlink:href="class_auth_sync.html#a756e144d847c736d9932311d101a8a8f" target="_top" xlink:title=" ">
<polygon fill="white" stroke="#666666" points="300.5,-58 184.75,-58 184.75,-38 300.5,-38 300.5,-58"/>
<text xml:space="preserve" text-anchor="middle" x="242.62" y="-44.5" font-family="Helvetica,sans-Serif" font-size="10.00">AuthSync::writeByteAt</text>
</a>
</g>
</g>
<!-- Node1&#45;&gt;Node6 -->
<g id="edge5_Node000001_Node000006" class="edge">
<title>Node1&#45;&gt;Node6</title>
<g id="a_edge5_Node000001_Node000006"><a xlink:title=" ">
<path fill="none" stroke="#63b8ff" d="M136.96,-59.55C148.81,-58.24 161.16,-56.88 173.05,-55.56"/>
<polygon fill="#63b8ff" stroke="#63b8ff" points="173.21,-59.07 182.76,-54.49 172.44,-52.11 173.21,-59.07"/>
</a>
</g>
</g>
<!-- Node5 -->
<g id="Node000005" class="node">
<title>Node5</title>
<g id="a_Node000005"><a xlink:href="class_auth_sync.html#ad84e54dba300b040ae8655c915d5313f" target="_top" xlink:title=" ">
<polygon fill="white" stroke="#666666" points="504.75,-20 348.5,-20 348.5,0 504.75,0 504.75,-20"/>
<text xml:space="preserve" text-anchor="middle" x="426.62" y="-6.5" font-family="Helvetica,sans-Serif" font-size="10.00">AuthSync::saveAllowDenyToFS</text>
</a>
</g>
</g>
<!-- Node4&#45;&gt;Node5 -->
<g id="edge4_Node000004_Node000005" class="edge">
<title>Node4&#45;&gt;Node5</title>
<g id="a_edge4_Node000004_Node000005"><a xlink:title=" ">
<path fill="none" stroke="#63b8ff" d="M312.95,-10C320.8,-10 328.88,-10 336.94,-10"/>
<polygon fill="#63b8ff" stroke="#63b8ff" points="336.77,-13.5 346.77,-10 336.77,-6.5 336.77,-13.5"/>
</a>
</g>
</g>
<!-- Node6&#45;&gt;Node2 -->
<g id="edge6_Node000006_Node000002" class="edge">
<title>Node6&#45;&gt;Node2</title>
<g id="a_edge6_Node000006_Node000002"><a xlink:title=" ">
<path fill="none" stroke="#63b8ff" d="M293.84,-58.48C315.72,-63.05 341.57,-68.45 364.55,-73.25"/>
<polygon fill="#63b8ff" stroke="#63b8ff" points="363.59,-76.62 374.09,-75.24 365.02,-69.77 363.59,-76.62"/>
</a>
</g>
</g>
</g>
</svg>
