<?xml version="1.0" encoding="UTF-8" standalone="no"?>
<!DOCTYPE svg PUBLIC "-//W3C//DTD SVG 1.1//EN"
 "http://www.w3.org/Graphics/SVG/1.1/DTD/svg11.dtd">
<!-- Generated by graphviz version 14.1.2 (20260124.0452)
 -->
<!-- Title: AsyncTelnetSerial::begin Pages: 1 -->
<!--zoomable 227 -->

<svg id="main" version="1.1" xmlns="http://www.w3.org/2000/svg" xmlns:xlink="http://www.w3.org/1999/xlink" xml:space="preserve" onload="init(evt)">

<style type="text/css"><![CDATA[
.node, .edge {opacity: 0.7;}
.node.selected, .edge.selected {opacity: 1;}
.edge:hover path { stroke: red; }
.edge:hover polygon { stroke: red; fill: red; }
]]></style>

<defs>
  <circle id="rim" cx="0" cy="0" r="7"/>
  <circle id="rim2" cx="0" cy="0" r="3.5"/>
  <g id="zoomPlus">
    <use xlink:href="#rim" fill="#404040"><set attributeName="fill" to="#808080" begin="zoomplus.mouseover" end="zoomplus.mouseout"/></use>
    <path d="M-4,0h8M0,-4v8" fill="none" stroke="white" stroke-width="1.5" pointer-events="none"/>
  </g>
  <g id="zoomMin">
    <use xlink:href="#rim" fill="#404040"><set attributeName="fill" to="#808080" begin="zoomminus.mouseover" end="zoomminus.mouseout"/></use>
    <path d="M-4,0h8" fill="none" stroke="white" stroke-width="1.5" pointer-events="none"/>
  </g>
  <g id="arrowUp" transform="translate(30 24)">
    <use xlink:href="#rim"/>
    <path pointer-events="none" fill="none" stroke="white" stroke-width="1.5" d="M0,-3.0v7 M-2.5,-0.5L0,-3.0L2.5,-0.5"/>
  </g>
  <g id="arrowRight" transform="rotate(90) translate(36 -43)">
    <use xlink:href="#rim"/>
    <path pointer-events="none" fill="none" stroke="white" stroke-width="1.5" d="M0,-3.0v7 M-2.5,-0.5L0,-3.0L2.5,-0.5"/>
  </g>
  <g id="arrowDown" transform="rotate(180) translate(-30 -48)">
    <use xlink:href="#rim"/>
    <path pointer-events="none" fill="none" stroke="white" stroke-width="1.5" d="M0,-3.0v7 M-2.5,-0.5L0,-3.0L2.5,-0.5"/>
  </g>
  <g id="arrowLeft" transform="rotate(270) translate(-36 17)">
    <use xlink:href="#rim"/>
    <path pointer-events="none" fill="none" stroke="white" stroke-width="1.5" d="M0,-3.0v7 M-2.5,-0.5L0,-3.0L2.5,-0.5"/>
  </g>
  <g id="resetDef">
    <use xlink:href="#rim2" fill="#404040"><set attributeName="fill" to="#808080" begin="reset.mouseover" end="reset.mouseout"/></use>
  </g>
</defs>
<script type="application/ecmascript">
var viewWidth = 555;
var viewHeight = 227;
var sectionId = 'dynsection-2';
</script>
<script type="application/ecmascript" xlink:href="svg.min.js"/>
<svg id="graph" class="graph">
<g id="viewport">
<title>AsyncTelnetSerial::begin</title>
<!-- Node1 -->
<g id="Node000001" class="node">
<title>Node1</title>
<g id="a_Node000001"><a xlink:title=" ">
<polygon fill="#999999" stroke="#666666" points="100.75,-121 0,-121 0,-89 100.75,-89 100.75,-121"/>
<text xml:space="preserve" text-anchor="start" x="8" y="-107.5" font-family="Helvetica,sans-Serif" font-size="10.00">AsyncTelnetSerial::</text>
<text xml:space="preserve" text-anchor="middle" x="50.38" y="-95.5" font-family="Helvetica,sans-Serif" font-size="10.00">begin</text>
</a>
</g>
</g>
<!-- Node2 -->
<g id="Node000002" class="node">
<title>Node2</title>
<g id="a_Node000002"><a xlink:href="class_async_telnet.html#a77dcd8e31b8bfb8b3082de385c5e7792" target="_top" xlink:title=" ">
<polygon fill="white" stroke="#666666" points="236,-134 136.75,-134 136.75,-114 236,-114 236,-134"/>
<text xml:space="preserve" text-anchor="middle" x="186.38" y="-120.5" font-family="Helvetica,sans-Serif" font-size="10.00">AsyncTelnet::begin</text>
</a>
</g>
</g>
<!-- Node1&#45;&gt;Node2 -->
<g id="edge1_Node000001_Node000002" class="edge">
<title>Node1&#45;&gt;Node2</title>
<g id="a_edge1_Node000001_Node000002"><a xlink:title=" ">
<path fill="none" stroke="#63b8ff" d="M100.89,-112.02C108.8,-113.14 117.05,-114.31 125.17,-115.46"/>
<polygon fill="#63b8ff" stroke="#63b8ff" points="124.62,-118.92 135.01,-116.86 125.6,-111.99 124.62,-118.92"/>
</a>
</g>
</g>
<!-- Node3 -->
<g id="Node000003" class="node">
<title>Node3</title>
<g id="a_Node000003"><a xlink:href="class_async_client.html#a0305fe0b036257c03829ceaa5cc43361" target="_top" xlink:title="close connection">
<polygon fill="white" stroke="#666666" points="388.88,-200 290.38,-200 290.38,-180 388.88,-180 388.88,-200"/>
<text xml:space="preserve" text-anchor="middle" x="339.62" y="-186.5" font-family="Helvetica,sans-Serif" font-size="10.00">AsyncClient::close</text>
</a>
</g>
</g>
<!-- Node1&#45;&gt;Node3 -->
<g id="edge9_Node000001_Node000003" class="edge">
<title>Node1&#45;&gt;Node3</title>
<g id="a_edge9_Node000001_Node000003"><a xlink:title=" ">
<path fill="none" stroke="#63b8ff" d="M70.7,-121.27C87.18,-134.22 112.05,-151.66 136.75,-161 182.51,-178.31 237.69,-185.38 278.79,-188.23"/>
<polygon fill="#63b8ff" stroke="#63b8ff" points="278.55,-191.72 288.74,-188.84 278.98,-184.73 278.55,-191.72"/>
</a>
</g>
</g>
<!-- Node15 -->
<g id="Node000015" class="node">
<title>Node15</title>
<g id="a_Node000015"><a xlink:href="class_async_client.html#ae2a766b8a238637b56cef0a2eb8ebde2" target="_top" xlink:title=" ">
<polygon fill="white" stroke="#666666" points="385.5,-153 293.75,-153 293.75,-133 385.5,-133 385.5,-153"/>
<text xml:space="preserve" text-anchor="middle" x="339.62" y="-139.5" font-family="Helvetica,sans-Serif" font-size="10.00">AsyncClient::free</text>
</a>
</g>
</g>
<!-- Node1&#45;&gt;Node15 -->
<g id="edge10_Node000001_Node000015" class="edge">
<title>Node1&#45;&gt;Node15</title>
<g id="a_edge10_Node000001_Node000015"><a xlink:title=" ">
<path fill="none" stroke="#63b8ff" d="M79.98,-121.36C96.09,-129.63 116.91,-138.78 136.75,-143 185.06,-153.27 241.36,-152.23 282.21,-149.22"/>
<polygon fill="#63b8ff" stroke="#63b8ff" points="282.37,-152.72 292.06,-148.43 281.81,-145.74 282.37,-152.72"/>
</a>
</g>
</g>
<!-- Node16 -->
<g id="Node000016" class="node">
<title>Node16</title>
<g id="a_Node000016"><a xlink:href="class_async_client.html#a5d6f6d66de7cc12e1acc8ff3177f8e35" target="_top" xlink:title=" ">
<polygon fill="white" stroke="#666666" points="393,-96 286.25,-96 286.25,-76 393,-76 393,-96"/>
<text xml:space="preserve" text-anchor="middle" x="339.62" y="-82.5" font-family="Helvetica,sans-Serif" font-size="10.00">AsyncClient::onData</text>
</a>
</g>
</g>
<!-- Node1&#45;&gt;Node16 -->
<g id="edge11_Node000001_Node000016" class="edge">
<title>Node1&#45;&gt;Node16</title>
<g id="a_edge11_Node000001_Node000016"><a xlink:title=" ">
<path fill="none" stroke="#63b8ff" d="M101.08,-101.71C149.25,-98.53 222.52,-93.68 274.94,-90.21"/>
<polygon fill="#63b8ff" stroke="#63b8ff" points="274.87,-93.72 284.62,-89.57 274.41,-86.74 274.87,-93.72"/>
</a>
</g>
</g>
<!-- Node17 -->
<g id="Node000017" class="node">
<title>Node17</title>
<g id="a_Node000017"><a xlink:href="class_async_client.html#a7dfb395e523a2cea1db946fd7cfc9227" target="_top" xlink:title=" ">
<polygon fill="white" stroke="#666666" points="407.25,-58 272,-58 272,-38 407.25,-38 407.25,-58"/>
<text xml:space="preserve" text-anchor="middle" x="339.62" y="-44.5" font-family="Helvetica,sans-Serif" font-size="10.00">AsyncClient::onDisconnect</text>
</a>
</g>
</g>
<!-- Node1&#45;&gt;Node17 -->
<g id="edge12_Node000001_Node000017" class="edge">
<title>Node1&#45;&gt;Node17</title>
<g id="a_edge12_Node000001_Node000017"><a xlink:title=" ">
<path fill="none" stroke="#63b8ff" d="M101.08,-95.14C149.25,-85.58 222.52,-71.04 274.94,-60.64"/>
<polygon fill="#63b8ff" stroke="#63b8ff" points="275.52,-64.09 284.64,-58.71 274.15,-57.23 275.52,-64.09"/>
</a>
</g>
</g>
<!-- Node18 -->
<g id="Node000018" class="node">
<title>Node18</title>
<g id="a_Node000018"><a xlink:href="class_async_telnet.html#a0a0ac25f8d25533aa5482a1715ffe750" target="_top" xlink:title=" ">
<polygon fill="white" stroke="#666666" points="388.12,-20 291.12,-20 291.12,0 388.12,0 388.12,-20"/>
<text xml:space="preserve" text-anchor="middle" x="339.62" y="-6.5" font-family="Helvetica,sans-Serif" font-size="10.00">AsyncTelnet::write</text>
</a>
</g>
</g>
<!-- Node1&#45;&gt;Node18 -->
<g id="edge13_Node000001_Node000018" class="edge">
<title>Node1&#45;&gt;Node18</title>
<g id="a_edge13_Node000001_Node000018"><a xlink:title=" ">
<path fill="none" stroke="#63b8ff" d="M84.11,-88.57C99.8,-81.09 118.99,-72.47 136.75,-66 184.85,-48.47 241.09,-33.28 281.98,-23.17"/>
<polygon fill="#63b8ff" stroke="#63b8ff" points="282.73,-26.59 291.61,-20.81 281.07,-19.79 282.73,-26.59"/>
</a>
</g>
</g>
<!-- Node2&#45;&gt;Node3 -->
<g id="edge2_Node000002_Node000003" class="edge">
<title>Node2&#45;&gt;Node3</title>
<g id="a_edge2_Node000002_Node000003"><a xlink:title=" ">
<path fill="none" stroke="#63b8ff" d="M210.3,-134.47C227.28,-142.19 251.03,-152.89 272,-162 281.97,-166.33 292.83,-170.94 302.82,-175.14"/>
<polygon fill="#63b8ff" stroke="#63b8ff" points="301.28,-178.29 311.86,-178.92 303.98,-171.83 301.28,-178.29"/>
</a>
</g>
</g>
<!-- Node2&#45;&gt;Node15 -->
<g id="edge5_Node000002_Node000015" class="edge">
<title>Node2&#45;&gt;Node15</title>
<g id="a_edge5_Node000002_Node000015"><a xlink:title=" ">
<path fill="none" stroke="#63b8ff" d="M236.48,-130.17C251.05,-132 267.13,-134.02 282.13,-135.9"/>
<polygon fill="#63b8ff" stroke="#63b8ff" points="281.49,-139.35 291.85,-137.12 282.36,-132.4 281.49,-139.35"/>
</a>
</g>
</g>
<!-- Node2&#45;&gt;Node16 -->
<g id="edge6_Node000002_Node000016" class="edge">
<title>Node2&#45;&gt;Node16</title>
<g id="a_edge6_Node000002_Node000016"><a xlink:title=" ">
<path fill="none" stroke="#63b8ff" d="M229.11,-113.52C246.71,-109.09 267.41,-103.89 286.04,-99.21"/>
<polygon fill="#63b8ff" stroke="#63b8ff" points="286.72,-102.65 295.56,-96.82 285.01,-95.86 286.72,-102.65"/>
</a>
</g>
</g>
<!-- Node2&#45;&gt;Node17 -->
<g id="edge7_Node000002_Node000017" class="edge">
<title>Node2&#45;&gt;Node17</title>
<g id="a_edge7_Node000002_Node000017"><a xlink:title=" ">
<path fill="none" stroke="#63b8ff" d="M200.08,-113.55C216,-100.91 244.53,-79.77 272,-67 275.77,-65.25 279.73,-63.62 283.77,-62.12"/>
<polygon fill="#63b8ff" stroke="#63b8ff" points="284.78,-65.48 293.11,-58.93 282.52,-58.85 284.78,-65.48"/>
</a>
</g>
</g>
<!-- Node2&#45;&gt;Node18 -->
<g id="edge8_Node000002_Node000018" class="edge">
<title>Node2&#45;&gt;Node18</title>
<g id="a_edge8_Node000002_Node000018"><a xlink:title=" ">
<path fill="none" stroke="#63b8ff" d="M193.67,-113.69C206.13,-94.15 235.89,-51.66 272,-29 274.72,-27.29 277.6,-25.73 280.58,-24.31"/>
<polygon fill="#63b8ff" stroke="#63b8ff" points="281.68,-27.64 289.57,-20.57 278.99,-21.18 281.68,-27.64"/>
</a>
</g>
</g>
<!-- Node4 -->
<g id="Node000004" class="node">
<title>Node4</title>
<g id="a_Node000004"><a xlink:href="class_async_client.html#a98ff872bc84919f006f3bb8a249ed36d" target="_top" xlink:title=" ">
<polygon fill="#fff0f0" stroke="red" points="547,-219 443.25,-219 443.25,-199 547,-199 547,-219"/>
<text xml:space="preserve" text-anchor="middle" x="495.12" y="-205.5" font-family="Helvetica,sans-Serif" font-size="10.00">AsyncClient::_close</text>
</a>
</g>
</g>
<!-- Node3&#45;&gt;Node4 -->
<g id="edge3_Node000003_Node000004" class="edge">
<title>Node3&#45;&gt;Node4</title>
<g id="a_edge3_Node000003_Node000004"><a xlink:title=" ">
<path fill="none" stroke="#63b8ff" d="M389.19,-196.01C402.71,-197.68 417.58,-199.52 431.76,-201.28"/>
<polygon fill="#63b8ff" stroke="#63b8ff" points="431.1,-204.73 441.46,-202.48 431.96,-197.78 431.1,-204.73"/>
</a>
</g>
</g>
<!-- Node13 -->
<g id="Node000013" class="node">
<title>Node13</title>
<g id="a_Node000013"><a xlink:href="_async_t_c_p_8cpp.html#acfb3f5bacaaabd2c616896510fd1f10b" target="_top" xlink:title=" ">
<polygon fill="#fff0f0" stroke="red" points="529.75,-181 460.5,-181 460.5,-161 529.75,-161 529.75,-181"/>
<text xml:space="preserve" text-anchor="middle" x="495.12" y="-167.5" font-family="Helvetica,sans-Serif" font-size="10.00">_tcp_recved</text>
</a>
</g>
</g>
<!-- Node3&#45;&gt;Node13 -->
<g id="edge4_Node000003_Node000013" class="edge">
<title>Node3&#45;&gt;Node13</title>
<g id="a_edge4_Node000003_Node000013"><a xlink:title=" ">
<path fill="none" stroke="#63b8ff" d="M389.19,-183.99C408.4,-181.61 430.33,-178.9 449.17,-176.57"/>
<polygon fill="#63b8ff" stroke="#63b8ff" points="449.44,-180.06 458.94,-175.36 448.58,-173.11 449.44,-180.06"/>
</a>
</g>
</g>
</g>
</svg>

<g id="navigator" transform="translate(0 0)" fill="#404254">
  <rect fill="#f2f5e9" fill-opacity="0.5" stroke="#606060" stroke-width=".5" x="0" y="0" width="60" height="60"/>
  <use id="zoomplus" xlink:href="#zoomPlus" x="17" y="9" onmousedown="handleZoom(evt,'in')"/>
  <use id="zoomminus" xlink:href="#zoomMin" x="42" y="9" onmousedown="handleZoom(evt,'out')"/>
  <use id="reset" xlink:href="#resetDef" x="30" y="36" onmousedown="handleReset()"/>
   <use id="arrowup" xlink:href="#arrowUp" x="0" y="0" onmousedown="handlePan(0,-1)"/>
  <use id="arrowright" xlink:href="#arrowRight" x="0" y="0" onmousedown="handlePan(1,0)"/>
  <use id="arrowdown" xlink:href="#arrowDown" x="0" y="0" onmousedown="handlePan(0,1)"/>
  <use id="arrowleft" xlink:href="#arrowLeft" x="0" y="0" onmousedown="handlePan(-1,0)"/>
</g>
<svg viewBox="0 0 15 15" width="100%" height="30px" preserveAspectRatio="xMaxYMin meet">
 <g id="arrow_out" transform="scale(0.3 0.3)">
  <a xlink:href="class_async_telnet_serial_a6cf9d6cc49602ff5ac0ec2af846a0d7a_cgraph_org.svg" target="_base">
   <rect id="button" ry="5" rx="5" y="6" x="6" height="38" width="38"
        fill="#f2f5e9" fill-opacity="0.5" stroke="#606060" stroke-width="1.0"/>
   <path id="arrow"
     d="M 11.500037,31.436501 C 11.940474,20.09759 22.043105,11.32322 32.158766,21.979434 L 37.068811,17.246167 C 37.068811,17.246167 37.088388,32 37.088388,32 L 22.160133,31.978069 C 22.160133,31.978069 26.997745,27.140456 26.997745,27.140456 C 18.528582,18.264221 13.291696,25.230495 11.500037,31.436501 z"
     style="fill:#404040;"/>
  </a>
 </g>
</svg>

<style type='text/css'>
<![CDATA[
[data-mouse-over-selected='false'] { opacity: 0.7; }
[data-mouse-over-selected='true']  { opacity: 1.0; }
]]>
</style>
<script type="application/ecmascript"><![CDATA[
document.addEventListener('DOMContentLoaded', (event) => {
  highlightEdges();
  highlightAdjacentNodes();
});
]]></script>
</svg>
