<?xml version="1.0" encoding="UTF-8" standalone="no"?>
<!DOCTYPE svg PUBLIC "-//W3C//DTD SVG 1.1//EN"
 "http://www.w3.org/Graphics/SVG/1.1/DTD/svg11.dtd">
<!-- Generated by graphviz version 14.1.2 (20260124.0452)
 -->
<!-- Title: AsyncClient::_s_sent Pages: 1 -->
<svg width="720pt" height="368pt"
 viewBox="0.00 0.00 720.00 368.00" xmlns="http://www.w3.org/2000/svg" xmlns:xlink="http://www.w3.org/1999/xlink">
<g id="graph0" class="graph" transform="scale(1 1) rotate(0) translate(4 363.99)">
<title>AsyncClient::_s_sent</title>
<!-- Node1 -->
<g id="Node000001" class="node">
<title>Node1</title>
<g id="a_Node000001"><a xlink:title=" ">
<polygon fill="#999999" stroke="#666666" points="109.75,-321.99 0,-321.99 0,-301.99 109.75,-301.99 109.75,-321.99"/>
<text xml:space="preserve" text-anchor="middle" x="54.88" y="-308.49" font-family="Helvetica,sans-Serif" font-size="10.00">AsyncClient::_s_sent</text>
</a>
</g>
</g>
<!-- Node2 -->
<g id="Node000002" class="node">
<title>Node2</title>
<g id="a_Node000002"><a xlink:href="class_async_client.html#a6a6efff5757dd06483709456e2f637b4" target="_top" xlink:title=" ">
<polygon fill="white" stroke="#666666" points="259.62,-359.99 160.38,-359.99 160.38,-339.99 259.62,-339.99 259.62,-359.99"/>
<text xml:space="preserve" text-anchor="middle" x="210" y="-346.49" font-family="Helvetica,sans-Serif" font-size="10.00">AsyncClient::_sent</text>
</a>
</g>
</g>
<!-- Node1&#45;&gt;Node2 -->
<g id="edge1_Node000001_Node000002" class="edge">
<title>Node1&#45;&gt;Node2</title>
<g id="a_edge1_Node000001_Node000002"><a xlink:title=" ">
<path fill="none" stroke="#63b8ff" d="M98.12,-322.48C115.95,-326.9 136.9,-332.1 155.76,-336.78"/>
<polygon fill="#63b8ff" stroke="#63b8ff" points="154.87,-340.16 165.42,-339.18 156.56,-333.37 154.87,-340.16"/>
</a>
</g>
</g>
<!-- Node3 -->
<g id="Node000003" class="node">
<title>Node3</title>
<g id="a_Node000003"><a xlink:href="class_async_client.html#ac0c28dd08517243bc6d64d32f982a3cc" target="_top" xlink:title=" ">
<polygon fill="white" stroke="#666666" points="711.5,-302.99 620.5,-302.99 620.5,-282.99 711.5,-282.99 711.5,-302.99"/>
<text xml:space="preserve" text-anchor="middle" x="666" y="-289.49" font-family="Helvetica,sans-Serif" font-size="10.00">AsyncClient::pcb</text>
</a>
</g>
</g>
<!-- Node1&#45;&gt;Node3 -->
<g id="edge22_Node000001_Node000003" class="edge">
<title>Node1&#45;&gt;Node3</title>
<g id="a_edge22_Node000001_Node000003"><a xlink:title=" ">
<path fill="none" stroke="#63b8ff" d="M109.93,-311.19C205.63,-309.64 411.15,-305.67 584.5,-297.99 592.39,-297.64 600.71,-297.2 608.9,-296.73"/>
<polygon fill="#63b8ff" stroke="#63b8ff" points="609.02,-300.23 618.8,-296.14 608.6,-293.24 609.02,-300.23"/>
</a>
</g>
</g>
<!-- Node4 -->
<g id="Node000004" class="node">
<title>Node4</title>
<g id="a_Node000004"><a xlink:href="class_async_client.html#aefecfa0c75c8c1b32104115e93739087" target="_top" xlink:title=" ">
<polygon fill="white" stroke="#666666" points="274.25,-157.99 145.75,-157.99 145.75,-137.99 274.25,-137.99 274.25,-157.99"/>
<text xml:space="preserve" text-anchor="middle" x="210" y="-144.49" font-family="Helvetica,sans-Serif" font-size="10.00">AsyncClient::AsyncClient</text>
</a>
</g>
</g>
<!-- Node1&#45;&gt;Node4 -->
<g id="edge3_Node000001_Node000004" class="edge">
<title>Node1&#45;&gt;Node4</title>
<g id="a_edge3_Node000001_Node000004"><a xlink:title=" ">
<path fill="none" stroke="#63b8ff" d="M65.45,-301.73C90.7,-274.7 159.32,-201.2 191.68,-166.54"/>
<polygon fill="#63b8ff" stroke="#63b8ff" points="194.13,-169.05 198.39,-159.35 189.01,-164.27 194.13,-169.05"/>
</a>
</g>
</g>
<!-- Node2&#45;&gt;Node3 -->
<g id="edge2_Node000002_Node000003" class="edge">
<title>Node2&#45;&gt;Node3</title>
<g id="a_edge2_Node000002_Node000003"><a xlink:title=" ">
<path fill="none" stroke="#63b8ff" d="M260.08,-351.85C332.18,-353.46 470.53,-352.27 584.5,-325.99 601.67,-322.03 619.91,-314.83 634.68,-308.16"/>
<polygon fill="#63b8ff" stroke="#63b8ff" points="635.81,-311.49 643.39,-304.09 632.85,-305.15 635.81,-311.49"/>
</a>
</g>
</g>
<!-- Node4&#45;&gt;Node3 -->
<g id="edge21_Node000004_Node000003" class="edge">
<title>Node4&#45;&gt;Node3</title>
<g id="a_edge21_Node000004_Node000003"><a xlink:title=" ">
<path fill="none" stroke="#63b8ff" d="M216.87,-158.18C230.21,-180.27 265.18,-232.39 310.25,-254.99 361.2,-280.54 522.24,-288.99 608.75,-291.73"/>
<polygon fill="#63b8ff" stroke="#63b8ff" points="608.57,-295.22 618.67,-292.02 608.78,-288.23 608.57,-295.22"/>
</a>
</g>
</g>
<!-- Node5 -->
<g id="Node000005" class="node">
<title>Node5</title>
<g id="a_Node000005"><a xlink:href="class_async_client.html#ab0422e5254ea4fbac9f87188a018ebc4" target="_top" xlink:title=" ">
<polygon fill="white" stroke="#666666" points="424.5,-245.99 310.25,-245.99 310.25,-213.99 424.5,-213.99 424.5,-245.99"/>
<text xml:space="preserve" text-anchor="start" x="318.25" y="-232.49" font-family="Helvetica,sans-Serif" font-size="10.00">AsyncClient::_allocate</text>
<text xml:space="preserve" text-anchor="middle" x="367.38" y="-220.49" font-family="Helvetica,sans-Serif" font-size="10.00">_closed_slot</text>
</a>
</g>
</g>
<!-- Node4&#45;&gt;Node5 -->
<g id="edge4_Node000004_Node000005" class="edge">
<title>Node4&#45;&gt;Node5</title>
<g id="a_edge4_Node000004_Node000005"><a xlink:title=" ">
<path fill="none" stroke="#63b8ff" d="M227.92,-158.42C247.44,-170.28 280.67,-189.96 310.25,-204.99 312.75,-206.26 315.32,-207.53 317.93,-208.79"/>
<polygon fill="#63b8ff" stroke="#63b8ff" points="316.18,-211.83 326.72,-212.92 319.16,-205.5 316.18,-211.83"/>
</a>
</g>
</g>
<!-- Node6 -->
<g id="Node000006" class="node">
<title>Node6</title>
<g id="a_Node000006"><a xlink:href="class_async_client.html#a98ff872bc84919f006f3bb8a249ed36d" target="_top" xlink:title=" ">
<polygon fill="white" stroke="#666666" points="419.25,-195.99 315.5,-195.99 315.5,-175.99 419.25,-175.99 419.25,-195.99"/>
<text xml:space="preserve" text-anchor="middle" x="367.38" y="-182.49" font-family="Helvetica,sans-Serif" font-size="10.00">AsyncClient::_close</text>
</a>
</g>
</g>
<!-- Node4&#45;&gt;Node6 -->
<g id="edge5_Node000004_Node000006" class="edge">
<title>Node4&#45;&gt;Node6</title>
<g id="a_edge5_Node000004_Node000006"><a xlink:title=" ">
<path fill="none" stroke="#63b8ff" d="M253.87,-158.48C272.04,-162.92 293.42,-168.15 312.63,-172.85"/>
<polygon fill="#63b8ff" stroke="#63b8ff" points="311.63,-176.21 322.18,-175.18 313.29,-169.41 311.63,-176.21"/>
</a>
</g>
</g>
<!-- Node15 -->
<g id="Node000015" class="node">
<title>Node15</title>
<g id="a_Node000015"><a xlink:href="_async_t_c_p_8cpp.html#a61ff9f7f886bbbbcdc1daca453828934" target="_top" xlink:title=" ">
<polygon fill="white" stroke="#666666" points="397.12,-157.99 337.62,-157.99 337.62,-137.99 397.12,-137.99 397.12,-157.99"/>
<text xml:space="preserve" text-anchor="middle" x="367.38" y="-144.49" font-family="Helvetica,sans-Serif" font-size="10.00">_tcp_error</text>
</a>
</g>
</g>
<!-- Node4&#45;&gt;Node15 -->
<g id="edge10_Node000004_Node000015" class="edge">
<title>Node4&#45;&gt;Node15</title>
<g id="a_edge10_Node000004_Node000015"><a xlink:title=" ">
<path fill="none" stroke="#63b8ff" d="M274.65,-147.99C292.01,-147.99 310.34,-147.99 326.01,-147.99"/>
<polygon fill="#63b8ff" stroke="#63b8ff" points="325.91,-151.49 335.91,-147.99 325.91,-144.49 325.91,-151.49"/>
</a>
</g>
</g>
<!-- Node17 -->
<g id="Node000017" class="node">
<title>Node17</title>
<g id="a_Node000017"><a xlink:href="_async_t_c_p_8cpp.html#ad4b2c6c935c211eef5884f25a950e445" target="_top" xlink:title=" ">
<polygon fill="white" stroke="#666666" points="394.88,-119.99 339.88,-119.99 339.88,-99.99 394.88,-99.99 394.88,-119.99"/>
<text xml:space="preserve" text-anchor="middle" x="367.38" y="-106.49" font-family="Helvetica,sans-Serif" font-size="10.00">_tcp_poll</text>
</a>
</g>
</g>
<!-- Node4&#45;&gt;Node17 -->
<g id="edge12_Node000004_Node000017" class="edge">
<title>Node4&#45;&gt;Node17</title>
<g id="a_edge12_Node000004_Node000017"><a xlink:title=" ">
<path fill="none" stroke="#63b8ff" d="M253.87,-137.51C277.27,-131.78 306,-124.76 328.56,-119.24"/>
<polygon fill="#63b8ff" stroke="#63b8ff" points="329.39,-122.64 338.27,-116.86 327.73,-115.84 329.39,-122.64"/>
</a>
</g>
</g>
<!-- Node18 -->
<g id="Node000018" class="node">
<title>Node18</title>
<g id="a_Node000018"><a xlink:href="_async_t_c_p_8cpp.html#adf7826424bf5b1035c4850f6b3307686" target="_top" xlink:title=" ">
<polygon fill="white" stroke="#666666" points="396.75,-43.99 338,-43.99 338,-23.99 396.75,-23.99 396.75,-43.99"/>
<text xml:space="preserve" text-anchor="middle" x="367.38" y="-30.49" font-family="Helvetica,sans-Serif" font-size="10.00">_tcp_recv</text>
</a>
</g>
</g>
<!-- Node4&#45;&gt;Node18 -->
<g id="edge14_Node000004_Node000018" class="edge">
<title>Node4&#45;&gt;Node18</title>
<g id="a_edge14_Node000004_Node000018"><a xlink:title=" ">
<path fill="none" stroke="#63b8ff" d="M219.16,-137.6C234.84,-118.3 271.09,-76.73 310.25,-52.99 315.47,-49.82 321.29,-47.1 327.15,-44.8"/>
<polygon fill="#63b8ff" stroke="#63b8ff" points="327.94,-48.23 336.19,-41.58 325.6,-41.63 327.94,-48.23"/>
</a>
</g>
</g>
<!-- Node21 -->
<g id="Node000021" class="node">
<title>Node21</title>
<g id="a_Node000021"><a xlink:href="_async_t_c_p_8cpp.html#a0b47280aff638ec9b80f7a87dfe54ea6" target="_top" xlink:title=" ">
<polygon fill="white" stroke="#666666" points="396.75,-81.99 338,-81.99 338,-61.99 396.75,-61.99 396.75,-81.99"/>
<text xml:space="preserve" text-anchor="middle" x="367.38" y="-68.49" font-family="Helvetica,sans-Serif" font-size="10.00">_tcp_sent</text>
</a>
</g>
</g>
<!-- Node4&#45;&gt;Node21 -->
<g id="edge19_Node000004_Node000021" class="edge">
<title>Node4&#45;&gt;Node21</title>
<g id="a_edge19_Node000004_Node000021"><a xlink:title=" ">
<path fill="none" stroke="#63b8ff" d="M226.99,-137.5C246.19,-125.22 279.64,-104.8 310.25,-90.99 315.56,-88.59 321.28,-86.33 326.95,-84.25"/>
<polygon fill="#63b8ff" stroke="#63b8ff" points="327.97,-87.6 336.27,-81 325.67,-80.99 327.97,-87.6"/>
</a>
</g>
</g>
<!-- Node7 -->
<g id="Node000007" class="node">
<title>Node7</title>
<g id="a_Node000007"><a xlink:href="class_async_client.html#aff6a2fbf261b25e1fcd35c11cce348a5" target="_top" xlink:title=" ">
<polygon fill="white" stroke="#666666" points="571,-245.99 474,-245.99 474,-213.99 571,-213.99 571,-245.99"/>
<text xml:space="preserve" text-anchor="start" x="482" y="-232.49" font-family="Helvetica,sans-Serif" font-size="10.00">AsyncClient::_free</text>
<text xml:space="preserve" text-anchor="middle" x="522.5" y="-220.49" font-family="Helvetica,sans-Serif" font-size="10.00">_closed_slot</text>
</a>
</g>
</g>
<!-- Node6&#45;&gt;Node7 -->
<g id="edge6_Node000006_Node000007" class="edge">
<title>Node6&#45;&gt;Node7</title>
<g id="a_edge6_Node000006_Node000007"><a xlink:title=" ">
<path fill="none" stroke="#63b8ff" d="M404.66,-196.42C421.97,-201.39 443.11,-207.47 462.63,-213.08"/>
<polygon fill="#63b8ff" stroke="#63b8ff" points="461.55,-216.41 472.13,-215.81 463.49,-209.68 461.55,-216.41"/>
</a>
</g>
</g>
<!-- Node8 -->
<g id="Node000008" class="node">
<title>Node8</title>
<g id="a_Node000008"><a xlink:href="_async_t_c_p_8cpp.html#ab053d5adb5be879f37181af512213bb6" target="_top" xlink:title=" ">
<polygon fill="#fff0f0" stroke="red" points="570.25,-195.99 474.75,-195.99 474.75,-175.99 570.25,-175.99 570.25,-195.99"/>
<text xml:space="preserve" text-anchor="middle" x="522.5" y="-182.49" font-family="Helvetica,sans-Serif" font-size="10.00">_tcp_clear_events</text>
</a>
</g>
</g>
<!-- Node6&#45;&gt;Node8 -->
<g id="edge7_Node000006_Node000008" class="edge">
<title>Node6&#45;&gt;Node8</title>
<g id="a_edge7_Node000006_Node000008"><a xlink:title=" ">
<path fill="none" stroke="#63b8ff" d="M419.36,-185.99C433.37,-185.99 448.66,-185.99 463.05,-185.99"/>
<polygon fill="#63b8ff" stroke="#63b8ff" points="462.84,-189.49 472.84,-185.99 462.84,-182.49 462.84,-189.49"/>
</a>
</g>
</g>
<!-- Node10 -->
<g id="Node000010" class="node">
<title>Node10</title>
<g id="a_Node000010"><a xlink:href="_async_t_c_p_8cpp.html#a3602c1ebfae2fb2ff64a0e3d7b0568ce" target="_top" xlink:title=" ">
<polygon fill="#fff0f0" stroke="red" points="554.12,-157.99 490.88,-157.99 490.88,-137.99 554.12,-137.99 554.12,-157.99"/>
<text xml:space="preserve" text-anchor="middle" x="522.5" y="-144.49" font-family="Helvetica,sans-Serif" font-size="10.00">_tcp_close</text>
</a>
</g>
</g>
<!-- Node6&#45;&gt;Node10 -->
<g id="edge8_Node000006_Node000010" class="edge">
<title>Node6&#45;&gt;Node10</title>
<g id="a_edge8_Node000006_Node000010"><a xlink:title=" ">
<path fill="none" stroke="#63b8ff" d="M410.62,-175.51C432.08,-170.18 458.08,-163.73 479.5,-158.41"/>
<polygon fill="#63b8ff" stroke="#63b8ff" points="480.23,-161.84 489.09,-156.03 478.54,-155.05 480.23,-161.84"/>
</a>
</g>
</g>
<!-- Node12 -->
<g id="Node000012" class="node">
<title>Node12</title>
<g id="a_Node000012"><a xlink:href="class_async_client.html#a09e777ff005d8e0f81166e704dc14979" target="_top" xlink:title=" ">
<polygon fill="#fff0f0" stroke="red" points="571,-119.99 474,-119.99 474,-99.99 571,-99.99 571,-119.99"/>
<text xml:space="preserve" text-anchor="middle" x="522.5" y="-106.49" font-family="Helvetica,sans-Serif" font-size="10.00">AsyncClient::abort</text>
</a>
</g>
</g>
<!-- Node6&#45;&gt;Node12 -->
<g id="edge9_Node000006_Node000012" class="edge">
<title>Node6&#45;&gt;Node12</title>
<g id="a_edge9_Node000006_Node000012"><a xlink:title=" ">
<path fill="none" stroke="#63b8ff" d="M407.26,-175.6C413.26,-173.22 419.21,-170.37 424.5,-166.99 444.09,-154.45 440.75,-141.29 460.5,-128.99 462.8,-127.56 465.22,-126.22 467.72,-124.98"/>
<polygon fill="#63b8ff" stroke="#63b8ff" points="469.1,-128.2 476.89,-121 466.32,-121.77 469.1,-128.2"/>
</a>
</g>
</g>
<!-- Node16 -->
<g id="Node000016" class="node">
<title>Node16</title>
<g id="a_Node000016"><a xlink:href="_async_t_c_p_8cpp.html#a796c13746a84a6b2e7370ddbec97ad5b" target="_top" xlink:title=" ">
<polygon fill="white" stroke="#666666" points="574,-81.99 471,-81.99 471,-61.99 574,-61.99 574,-81.99"/>
<text xml:space="preserve" text-anchor="middle" x="522.5" y="-68.49" font-family="Helvetica,sans-Serif" font-size="10.00">_send_async_event</text>
</a>
</g>
</g>
<!-- Node15&#45;&gt;Node16 -->
<g id="edge11_Node000015_Node000016" class="edge">
<title>Node15&#45;&gt;Node16</title>
<g id="a_edge11_Node000015_Node000016"><a xlink:title=" ">
<path fill="none" stroke="#63b8ff" d="M397.57,-141.06C406.63,-138.15 416.36,-134.2 424.5,-128.99 444.09,-116.45 440.75,-103.29 460.5,-90.99 462.8,-89.56 465.22,-88.22 467.72,-86.98"/>
<polygon fill="#63b8ff" stroke="#63b8ff" points="469.1,-90.2 476.89,-83 466.32,-83.77 469.1,-90.2"/>
</a>
</g>
</g>
<!-- Node17&#45;&gt;Node16 -->
<g id="edge13_Node000017_Node000016" class="edge">
<title>Node17&#45;&gt;Node16</title>
<g id="a_edge13_Node000017_Node000016"><a xlink:title=" ">
<path fill="none" stroke="#63b8ff" d="M395.05,-103.37C415.18,-98.37 443.48,-91.35 468.2,-85.22"/>
<polygon fill="#63b8ff" stroke="#63b8ff" points="468.93,-88.64 477.79,-82.84 467.24,-81.85 468.93,-88.64"/>
</a>
</g>
</g>
<!-- Node18&#45;&gt;Node16 -->
<g id="edge18_Node000018_Node000016" class="edge">
<title>Node18&#45;&gt;Node16</title>
<g id="a_edge18_Node000018_Node000016"><a xlink:title=" ">
<path fill="none" stroke="#63b8ff" d="M397.18,-41.14C417.15,-46.09 444.33,-52.84 468.19,-58.76"/>
<polygon fill="#63b8ff" stroke="#63b8ff" points="467.21,-62.13 477.76,-61.14 468.9,-55.33 467.21,-62.13"/>
</a>
</g>
</g>
<!-- Node19 -->
<g id="Node000019" class="node">
<title>Node19</title>
<g id="a_Node000019"><a xlink:href="class_async_client.html#a485b2be0c01d3172928c0ed9655edc2f" target="_top" xlink:title=" ">
<polygon fill="#fff0f0" stroke="red" points="584.5,-43.99 460.5,-43.99 460.5,-23.99 584.5,-23.99 584.5,-43.99"/>
<text xml:space="preserve" text-anchor="middle" x="522.5" y="-30.49" font-family="Helvetica,sans-Serif" font-size="10.00">AsyncClient::_s_lwip_fin</text>
</a>
</g>
</g>
<!-- Node18&#45;&gt;Node19 -->
<g id="edge15_Node000018_Node000019" class="edge">
<title>Node18&#45;&gt;Node19</title>
<g id="a_edge15_Node000018_Node000019"><a xlink:title=" ">
<path fill="none" stroke="#63b8ff" d="M397.18,-33.99C411.88,-33.99 430.51,-33.99 448.83,-33.99"/>
<polygon fill="#63b8ff" stroke="#63b8ff" points="448.65,-37.49 458.65,-33.99 448.65,-30.49 448.65,-37.49"/>
</a>
</g>
</g>
<!-- Node19&#45;&gt;Node3 -->
<g id="edge17_Node000019_Node000003" class="edge">
<title>Node19&#45;&gt;Node3</title>
<g id="a_edge17_Node000019_Node000003"><a xlink:title=" ">
<path fill="none" stroke="#63b8ff" d="M572.54,-44.48C576.92,-46.78 581.01,-49.58 584.5,-52.99 646.8,-113.96 660.89,-224.53 664.07,-271.24"/>
<polygon fill="#63b8ff" stroke="#63b8ff" points="660.57,-271.32 664.63,-281.11 667.56,-270.93 660.57,-271.32"/>
</a>
</g>
</g>
<!-- Node19&#45;&gt;Node4 -->
<g id="edge16_Node000019_Node000004" class="edge">
<title>Node19&#45;&gt;Node4</title>
<g id="a_edge16_Node000019_Node000004"><a xlink:title=" ">
<path fill="none" stroke="#63b8ff" d="M496.15,-23.49C454.8,-8.1 371.31,15.63 310.25,-14.99 263.21,-38.58 232.77,-96.22 219.19,-127.31"/>
<polygon fill="#63b8ff" stroke="#63b8ff" points="216.01,-125.82 215.39,-136.4 222.47,-128.52 216.01,-125.82"/>
</a>
</g>
</g>
<!-- Node21&#45;&gt;Node16 -->
<g id="edge20_Node000021_Node000016" class="edge">
<title>Node21&#45;&gt;Node16</title>
<g id="a_edge20_Node000021_Node000016"><a xlink:title=" ">
<path fill="none" stroke="#63b8ff" d="M397.18,-71.99C414.65,-71.99 437.66,-71.99 459.13,-71.99"/>
<polygon fill="#63b8ff" stroke="#63b8ff" points="458.99,-75.49 468.99,-71.99 458.99,-68.49 458.99,-75.49"/>
</a>
</g>
</g>
</g>
</svg>
