<?xml version="1.0" encoding="UTF-8" standalone="no"?>
<!DOCTYPE svg PUBLIC "-//W3C//DTD SVG 1.1//EN"
 "http://www.w3.org/Graphics/SVG/1.1/DTD/svg11.dtd">
<!-- Generated by graphviz version 14.1.2 (20260124.0452)
 -->
<!-- Title: AuthSync::getCardAuthFromServer Pages: 1 -->
<svg width="375pt" height="40pt"
 viewBox="0.00 0.00 375.00 40.00" xmlns="http://www.w3.org/2000/svg" xmlns:xlink="http://www.w3.org/1999/xlink">
<g id="graph0" class="graph" transform="scale(1 1) rotate(0) translate(4 36)">
<title>AuthSync::getCardAuthFromServer</title>
<!-- Node1 -->
<g id="Node000001" class="node">
<title>Node1</title>
<g id="a_Node000001"><a xlink:title=" ">
<polygon fill="#999999" stroke="#666666" points="366.75,-32 224.75,-32 224.75,0 366.75,0 366.75,-32"/>
<text xml:space="preserve" text-anchor="start" x="232.75" y="-18.5" font-family="Helvetica,sans-Serif" font-size="10.00">AuthSync::getCardAuthFrom</text>
<text xml:space="preserve" text-anchor="middle" x="295.75" y="-6.5" font-family="Helvetica,sans-Serif" font-size="10.00">Server</text>
</a>
</g>
</g>
<!-- Node2 -->
<g id="Node000002" class="node">
<title>Node2</title>
<g id="a_Node000002"><a xlink:href="class_auth_sync.html#aeb16a776532ee69ba1ca44b11904a2c2" target="_top" xlink:title=" ">
<polygon fill="white" stroke="#666666" points="188.75,-26 70,-26 70,-6 188.75,-6 188.75,-26"/>
<text xml:space="preserve" text-anchor="middle" x="129.38" y="-12.5" font-family="Helvetica,sans-Serif" font-size="10.00">AuthSync::isAuthorized</text>
</a>
</g>
</g>
<!-- Node1&#45;&gt;Node2 -->
<g id="edge1_Node000001_Node000002" class="edge">
<title>Node1&#45;&gt;Node2</title>
<g id="a_edge1_Node000001_Node000002"><a xlink:title=" ">
<path fill="none" stroke="#63b8ff" d="M213.17,-16C205.09,-16 197,-16 189.21,-16"/>
<polygon fill="#63b8ff" stroke="#63b8ff" points="213.05,-19.5 223.05,-16 213.05,-12.5 213.05,-19.5"/>
</a>
</g>
</g>
<!-- Node3 -->
<g id="Node000003" class="node">
<title>Node3</title>
<g id="a_Node000003"><a xlink:href="main_8cpp.html#afe461d27b9c48d5921c00d521181f12f" target="_top" xlink:title=" ">
<polygon fill="white" stroke="#666666" points="34,-26 0,-26 0,-6 34,-6 34,-26"/>
<text xml:space="preserve" text-anchor="middle" x="17" y="-12.5" font-family="Helvetica,sans-Serif" font-size="10.00">loop</text>
</a>
</g>
</g>
<!-- Node2&#45;&gt;Node3 -->
<g id="edge2_Node000002_Node000003" class="edge">
<title>Node2&#45;&gt;Node3</title>
<g id="a_edge2_Node000002_Node000003"><a xlink:title=" ">
<path fill="none" stroke="#63b8ff" d="M58.22,-16C49.39,-16 41.11,-16 34.38,-16"/>
<polygon fill="#63b8ff" stroke="#63b8ff" points="58.12,-19.5 68.12,-16 58.12,-12.5 58.12,-19.5"/>
</a>
</g>
</g>
</g>
</svg>
