<?xml version="1.0" encoding="UTF-8" standalone="no"?>
<!DOCTYPE svg PUBLIC "-//W3C//DTD SVG 1.1//EN"
 "http://www.w3.org/Graphics/SVG/1.1/DTD/svg11.dtd">
<!-- Generated by graphviz version 14.1.2 (20260124.0452)
 -->
<!-- Title: AsyncServer::_s_accept Pages: 1 -->
<svg width="617pt" height="85pt"
 viewBox="0.00 0.00 617.00 85.00" xmlns="http://www.w3.org/2000/svg" xmlns:xlink="http://www.w3.org/1999/xlink">
<g id="graph0" class="graph" transform="scale(1 1) rotate(0) translate(4 81)">
<title>AsyncServer::_s_accept</title>
<!-- Node1 -->
<g id="Node000001" class="node">
<title>Node1</title>
<g id="a_Node000001"><a xlink:title=" ">
<polygon fill="#999999" stroke="#666666" points="123.25,-39 0,-39 0,-19 123.25,-19 123.25,-39"/>
<text xml:space="preserve" text-anchor="middle" x="61.62" y="-25.5" font-family="Helvetica,sans-Serif" font-size="10.00">AsyncServer::_s_accept</text>
</a>
</g>
</g>
<!-- Node2 -->
<g id="Node000002" class="node">
<title>Node2</title>
<g id="a_Node000002"><a xlink:href="class_async_server.html#a51e55999b79eec50bd68e899b8ddd4e4" target="_top" xlink:title=" ">
<polygon fill="white" stroke="#666666" points="282.88,-58 170.12,-58 170.12,-38 282.88,-38 282.88,-58"/>
<text xml:space="preserve" text-anchor="middle" x="226.5" y="-44.5" font-family="Helvetica,sans-Serif" font-size="10.00">AsyncServer::_accept</text>
</a>
</g>
</g>
<!-- Node1&#45;&gt;Node2 -->
<g id="edge1_Node000001_Node000002" class="edge">
<title>Node1&#45;&gt;Node2</title>
<g id="a_edge1_Node000001_Node000002"><a xlink:title=" ">
<path fill="none" stroke="#63b8ff" d="M123.74,-36.13C135.04,-37.45 146.91,-38.83 158.38,-40.17"/>
<polygon fill="#63b8ff" stroke="#63b8ff" points="157.85,-43.63 168.18,-41.31 158.66,-36.68 157.85,-43.63"/>
</a>
</g>
</g>
<!-- Node6 -->
<g id="Node000006" class="node">
<title>Node6</title>
<g id="a_Node000006"><a xlink:href="class_async_server.html#aa6357ae6df41ef23d53d2a73759f5016" target="_top" xlink:title=" ">
<polygon fill="white" stroke="#666666" points="293.75,-20 159.25,-20 159.25,0 293.75,0 293.75,-20"/>
<text xml:space="preserve" text-anchor="middle" x="226.5" y="-6.5" font-family="Helvetica,sans-Serif" font-size="10.00">AsyncServer::AsyncServer</text>
</a>
</g>
</g>
<!-- Node1&#45;&gt;Node6 -->
<g id="edge5_Node000001_Node000006" class="edge">
<title>Node1&#45;&gt;Node6</title>
<g id="a_edge5_Node000001_Node000006"><a xlink:title=" ">
<path fill="none" stroke="#63b8ff" d="M123.74,-21.87C131.53,-20.96 139.59,-20.02 147.6,-19.09"/>
<polygon fill="#63b8ff" stroke="#63b8ff" points="147.83,-22.58 157.36,-17.95 147.02,-15.63 147.83,-22.58"/>
</a>
</g>
</g>
<!-- Node3 -->
<g id="Node000003" class="node">
<title>Node3</title>
<g id="a_Node000003"><a xlink:href="_async_t_c_p_8cpp.html#ab02a78d0cd56732252f0c2c27f286369" target="_top" xlink:title=" ">
<polygon fill="white" stroke="#666666" points="427.88,-77 358.62,-77 358.62,-57 427.88,-57 427.88,-77"/>
<text xml:space="preserve" text-anchor="middle" x="393.25" y="-63.5" font-family="Helvetica,sans-Serif" font-size="10.00">_tcp_accept</text>
</a>
</g>
</g>
<!-- Node2&#45;&gt;Node3 -->
<g id="edge2_Node000002_Node000003" class="edge">
<title>Node2&#45;&gt;Node3</title>
<g id="a_edge2_Node000002_Node000003"><a xlink:title=" ">
<path fill="none" stroke="#63b8ff" d="M283.28,-54.43C303.94,-56.82 327.1,-59.49 346.74,-61.75"/>
<polygon fill="#63b8ff" stroke="#63b8ff" points="346.31,-65.23 356.65,-62.89 347.11,-58.27 346.31,-65.23"/>
</a>
</g>
</g>
<!-- Node5 -->
<g id="Node000005" class="node">
<title>Node5</title>
<g id="a_Node000005"><a xlink:href="class_async_client.html#af1819edd57b1ce0666a6cd390bcaf587" target="_top" xlink:title=" ">
<polygon fill="white" stroke="#666666" points="456.75,-39 329.75,-39 329.75,-19 456.75,-19 456.75,-39"/>
<text xml:space="preserve" text-anchor="middle" x="393.25" y="-25.5" font-family="Helvetica,sans-Serif" font-size="10.00">AsyncClient::setNoDelay</text>
</a>
</g>
</g>
<!-- Node2&#45;&gt;Node5 -->
<g id="edge4_Node000002_Node000005" class="edge">
<title>Node2&#45;&gt;Node5</title>
<g id="a_edge4_Node000002_Node000005"><a xlink:title=" ">
<path fill="none" stroke="#63b8ff" d="M283.28,-41.57C294.52,-40.27 306.51,-38.89 318.27,-37.53"/>
<polygon fill="#63b8ff" stroke="#63b8ff" points="318.41,-41.04 327.94,-36.42 317.6,-34.09 318.41,-41.04"/>
</a>
</g>
</g>
<!-- Node4 -->
<g id="Node000004" class="node">
<title>Node4</title>
<g id="a_Node000004"><a xlink:href="_async_t_c_p_8cpp.html#a42bebdded16714188a8e554237aad2f3" target="_top" xlink:title=" ">
<polygon fill="white" stroke="#666666" points="609.25,-77 492.75,-77 492.75,-57 609.25,-57 609.25,-77"/>
<text xml:space="preserve" text-anchor="middle" x="551" y="-63.5" font-family="Helvetica,sans-Serif" font-size="10.00">_prepend_async_event</text>
</a>
</g>
</g>
<!-- Node3&#45;&gt;Node4 -->
<g id="edge3_Node000003_Node000004" class="edge">
<title>Node3&#45;&gt;Node4</title>
<g id="a_edge3_Node000003_Node000004"><a xlink:title=" ">
<path fill="none" stroke="#63b8ff" d="M428.05,-67C443.6,-67 462.66,-67 481.05,-67"/>
<polygon fill="#63b8ff" stroke="#63b8ff" points="480.86,-70.5 490.86,-67 480.86,-63.5 480.86,-70.5"/>
</a>
</g>
</g>
</g>
</svg>
