<?xml version="1.0" encoding="UTF-8" standalone="no"?>
<!DOCTYPE svg PUBLIC "-//W3C//DTD SVG 1.1//EN"
 "http://www.w3.org/Graphics/SVG/1.1/DTD/svg11.dtd">
<!-- Generated by graphviz version 14.1.2 (20260124.0452)
 -->
<!-- Title: AsyncClient::connect Pages: 1 -->
<svg width="569pt" height="72pt"
 viewBox="0.00 0.00 569.00 72.00" xmlns="http://www.w3.org/2000/svg" xmlns:xlink="http://www.w3.org/1999/xlink">
<g id="graph0" class="graph" transform="scale(1 1) rotate(0) translate(4 68)">
<title>AsyncClient::connect</title>
<!-- Node1 -->
<g id="Node000001" class="node">
<title>Node1</title>
<g id="a_Node000001"><a xlink:title=" ">
<polygon fill="#999999" stroke="#666666" points="560.5,-39 450.75,-39 450.75,-19 560.5,-19 560.5,-39"/>
<text xml:space="preserve" text-anchor="middle" x="505.62" y="-25.5" font-family="Helvetica,sans-Serif" font-size="10.00">AsyncClient::connect</text>
</a>
</g>
</g>
<!-- Node2 -->
<g id="Node000002" class="node">
<title>Node2</title>
<g id="a_Node000002"><a xlink:href="class_async_client.html#a19dc40652b5b003288e10529ee169b65" target="_top" xlink:title=" ">
<polygon fill="white" stroke="#666666" points="414.75,-58 289.25,-58 289.25,-38 414.75,-38 414.75,-58"/>
<text xml:space="preserve" text-anchor="middle" x="352" y="-44.5" font-family="Helvetica,sans-Serif" font-size="10.00">AsyncClient::_dns_found</text>
</a>
</g>
</g>
<!-- Node1&#45;&gt;Node2 -->
<g id="edge1_Node000001_Node000002" class="edge">
<title>Node1&#45;&gt;Node2</title>
<g id="a_edge1_Node000001_Node000002"><a xlink:title=" ">
<path fill="none" stroke="#63b8ff" d="M438.92,-37.23C431.04,-38.22 423.01,-39.23 415.19,-40.21"/>
<polygon fill="#63b8ff" stroke="#63b8ff" points="439.32,-40.71 448.81,-35.99 438.45,-33.76 439.32,-40.71"/>
</a>
</g>
</g>
<!-- Node8 -->
<g id="Node000008" class="node">
<title>Node8</title>
<g id="a_Node000008"><a xlink:href="class_async_client.html#a260e075caca9a58241f2fad754cc412b" target="_top" xlink:title=" ">
<polygon fill="white" stroke="#666666" points="406.88,-20 297.12,-20 297.12,0 406.88,0 406.88,-20"/>
<text xml:space="preserve" text-anchor="middle" x="352" y="-6.5" font-family="Helvetica,sans-Serif" font-size="10.00">AsyncClient::connect</text>
</a>
</g>
</g>
<!-- Node1&#45;&gt;Node8 -->
<g id="edge4_Node000001_Node000008" class="edge">
<title>Node1&#45;&gt;Node8</title>
<g id="a_edge4_Node000001_Node000008"><a xlink:title=" ">
<path fill="none" stroke="#63b8ff" d="M438.95,-20.77C428.35,-19.44 417.48,-18.08 407.19,-16.79"/>
<polygon fill="#63b8ff" stroke="#63b8ff" points="438.45,-24.24 448.81,-22.01 439.32,-17.29 438.45,-24.24"/>
</a>
</g>
</g>
<!-- Node3 -->
<g id="Node000003" class="node">
<title>Node3</title>
<g id="a_Node000003"><a xlink:href="class_async_client.html#a3f629c9072da183879a9c67878b374cc" target="_top" xlink:title=" ">
<polygon fill="white" stroke="#666666" points="253.25,-64 146.5,-64 146.5,-32 253.25,-32 253.25,-64"/>
<text xml:space="preserve" text-anchor="start" x="154.5" y="-50.5" font-family="Helvetica,sans-Serif" font-size="10.00">AsyncClient::_s_dns</text>
<text xml:space="preserve" text-anchor="middle" x="199.88" y="-38.5" font-family="Helvetica,sans-Serif" font-size="10.00">_found</text>
</a>
</g>
</g>
<!-- Node2&#45;&gt;Node3 -->
<g id="edge2_Node000002_Node000003" class="edge">
<title>Node2&#45;&gt;Node3</title>
<g id="a_edge2_Node000002_Node000003"><a xlink:title=" ">
<path fill="none" stroke="#63b8ff" d="M277.64,-48C269.52,-48 261.37,-48 253.57,-48"/>
<polygon fill="#63b8ff" stroke="#63b8ff" points="277.56,-51.5 287.56,-48 277.56,-44.5 277.56,-51.5"/>
</a>
</g>
</g>
<!-- Node4 -->
<g id="Node000004" class="node">
<title>Node4</title>
<g id="a_Node000004"><a xlink:href="_async_t_c_p_8cpp.html#ac4030e968c0e4c0fcbe7a9b4502854c1" target="_top" xlink:title=" ">
<polygon fill="#fff0f0" stroke="red" points="110.5,-58 0,-58 0,-38 110.5,-38 110.5,-58"/>
<text xml:space="preserve" text-anchor="middle" x="55.25" y="-44.5" font-family="Helvetica,sans-Serif" font-size="10.00">_handle_async_event</text>
</a>
</g>
</g>
<!-- Node3&#45;&gt;Node4 -->
<g id="edge3_Node000003_Node000004" class="edge">
<title>Node3&#45;&gt;Node4</title>
<g id="a_edge3_Node000003_Node000004"><a xlink:title=" ">
<path fill="none" stroke="#63b8ff" d="M134.87,-48C126.78,-48 118.56,-48 110.65,-48"/>
<polygon fill="#63b8ff" stroke="#63b8ff" points="134.66,-51.5 144.66,-48 134.66,-44.5 134.66,-51.5"/>
</a>
</g>
</g>
</g>
</svg>
