<?xml version="1.0" encoding="UTF-8" standalone="no"?>
<!DOCTYPE svg PUBLIC "-//W3C//DTD SVG 1.1//EN"
 "http://www.w3.org/Graphics/SVG/1.1/DTD/svg11.dtd">
<!-- Generated by graphviz version 14.1.2 (20260124.0452)
 -->
<!-- Title: AuthSync::update Pages: 1 -->
<svg width="643pt" height="180pt"
 viewBox="0.00 0.00 643.00 180.00" xmlns="http://www.w3.org/2000/svg" xmlns:xlink="http://www.w3.org/1999/xlink">
<g id="graph0" class="graph" transform="scale(1 1) rotate(0) translate(4 176)">
<title>AuthSync::update</title>
<!-- Node1 -->
<g id="Node000001" class="node">
<title>Node1</title>
<g id="a_Node000001"><a xlink:title=" ">
<polygon fill="#999999" stroke="#666666" points="94,-96 0,-96 0,-76 94,-76 94,-96"/>
<text xml:space="preserve" text-anchor="middle" x="47" y="-82.5" font-family="Helvetica,sans-Serif" font-size="10.00">AuthSync::update</text>
</a>
</g>
</g>
<!-- Node2 -->
<g id="Node000002" class="node">
<title>Node2</title>
<g id="a_Node000002"><a xlink:href="class_auth_sync.html#ab2999f3e828083471d482f9bde0d72f2" target="_top" xlink:title=" ">
<polygon fill="white" stroke="#666666" points="266.75,-96 130,-96 130,-76 266.75,-76 266.75,-96"/>
<text xml:space="preserve" text-anchor="middle" x="198.38" y="-82.5" font-family="Helvetica,sans-Serif" font-size="10.00">AuthSync::syncFromServer</text>
</a>
</g>
</g>
<!-- Node1&#45;&gt;Node2 -->
<g id="edge1_Node000001_Node000002" class="edge">
<title>Node1&#45;&gt;Node2</title>
<g id="a_edge1_Node000001_Node000002"><a xlink:title=" ">
<path fill="none" stroke="#63b8ff" d="M94.44,-86C102.01,-86 110.03,-86 118.13,-86"/>
<polygon fill="#63b8ff" stroke="#63b8ff" points="118.06,-89.5 128.06,-86 118.06,-82.5 118.06,-89.5"/>
</a>
</g>
</g>
<!-- Node3 -->
<g id="Node000003" class="node">
<title>Node3</title>
<g id="a_Node000003"><a xlink:href="class_auth_sync.html#aab1e2b7beebdab60e16d9b3a50678efd" target="_top" xlink:title=" ">
<polygon fill="white" stroke="#666666" points="623.5,-96 489.75,-96 489.75,-76 623.5,-76 623.5,-96"/>
<text xml:space="preserve" text-anchor="middle" x="556.62" y="-82.5" font-family="Helvetica,sans-Serif" font-size="10.00">AuthSync::calcBitsetBytes</text>
</a>
</g>
</g>
<!-- Node2&#45;&gt;Node3 -->
<g id="edge2_Node000002_Node000003" class="edge">
<title>Node2&#45;&gt;Node3</title>
<g id="a_edge2_Node000002_Node000003"><a xlink:title=" ">
<path fill="none" stroke="#63b8ff" d="M246.21,-96.47C263.84,-99.92 284.12,-103.3 302.75,-105 364.6,-110.64 380.6,-110.16 442.5,-105 459.03,-103.62 476.77,-101.13 493.2,-98.39"/>
<polygon fill="#63b8ff" stroke="#63b8ff" points="493.57,-101.88 502.83,-96.73 492.38,-94.98 493.57,-101.88"/>
</a>
</g>
</g>
<!-- Node4 -->
<g id="Node000004" class="node">
<title>Node4</title>
<g id="a_Node000004"><a xlink:href="class_auth_sync.html#afea91831a16e241cc5db5163299fc900" target="_top" xlink:title=" ">
<polygon fill="white" stroke="#666666" points="423,-172 322.25,-172 322.25,-152 423,-152 423,-172"/>
<text xml:space="preserve" text-anchor="middle" x="372.62" y="-158.5" font-family="Helvetica,sans-Serif" font-size="10.00">AuthSync::hashUid</text>
</a>
</g>
</g>
<!-- Node2&#45;&gt;Node4 -->
<g id="edge3_Node000002_Node000004" class="edge">
<title>Node2&#45;&gt;Node4</title>
<g id="a_edge3_Node000002_Node000004"><a xlink:title=" ">
<path fill="none" stroke="#63b8ff" d="M218.08,-96.34C238.52,-107.42 272.41,-125.15 302.75,-138 310.78,-141.4 319.47,-144.71 327.88,-147.72"/>
<polygon fill="#63b8ff" stroke="#63b8ff" points="326.69,-151.01 337.28,-151.01 329,-144.41 326.69,-151.01"/>
</a>
</g>
</g>
<!-- Node7 -->
<g id="Node000007" class="node">
<title>Node7</title>
<g id="a_Node000007"><a xlink:href="class_auth_sync.html#a4a8d3b99ed3bfb87ab36b2abbcce0594" target="_top" xlink:title=" ">
<polygon fill="white" stroke="#666666" points="439.88,-96 305.38,-96 305.38,-76 439.88,-76 439.88,-96"/>
<text xml:space="preserve" text-anchor="middle" x="372.62" y="-82.5" font-family="Helvetica,sans-Serif" font-size="10.00">AuthSync::saveBitsetToFS</text>
</a>
</g>
</g>
<!-- Node2&#45;&gt;Node7 -->
<g id="edge5_Node000002_Node000007" class="edge">
<title>Node2&#45;&gt;Node7</title>
<g id="a_edge5_Node000002_Node000007"><a xlink:title=" ">
<path fill="none" stroke="#63b8ff" d="M266.96,-86C275.77,-86 284.86,-86 293.82,-86"/>
<polygon fill="#63b8ff" stroke="#63b8ff" points="293.57,-89.5 303.57,-86 293.57,-82.5 293.57,-89.5"/>
</a>
</g>
</g>
<!-- Node8 -->
<g id="Node000008" class="node">
<title>Node8</title>
<g id="a_Node000008"><a xlink:href="class_auth_sync.html#a96c599b762bdafa672930dfa6f07ff13" target="_top" xlink:title=" ">
<polygon fill="white" stroke="#666666" points="442.5,-20 302.75,-20 302.75,0 442.5,0 442.5,-20"/>
<text xml:space="preserve" text-anchor="middle" x="372.62" y="-6.5" font-family="Helvetica,sans-Serif" font-size="10.00">AuthSync::saveETagToNVS</text>
</a>
</g>
</g>
<!-- Node2&#45;&gt;Node8 -->
<g id="edge6_Node000002_Node000008" class="edge">
<title>Node2&#45;&gt;Node8</title>
<g id="a_edge6_Node000002_Node000008"><a xlink:title=" ">
<path fill="none" stroke="#63b8ff" d="M215.26,-75.69C235.07,-63.21 270.29,-42.21 302.75,-29 307.33,-27.13 312.16,-25.39 317.04,-23.77"/>
<polygon fill="#63b8ff" stroke="#63b8ff" points="317.8,-27.2 326.31,-20.89 315.72,-20.52 317.8,-27.2"/>
</a>
</g>
</g>
<!-- Node10 -->
<g id="Node000010" class="node">
<title>Node10</title>
<g id="a_Node000010"><a xlink:href="class_auth_sync.html#a756e144d847c736d9932311d101a8a8f" target="_top" xlink:title=" ">
<polygon fill="white" stroke="#666666" points="430.5,-58 314.75,-58 314.75,-38 430.5,-38 430.5,-58"/>
<text xml:space="preserve" text-anchor="middle" x="372.62" y="-44.5" font-family="Helvetica,sans-Serif" font-size="10.00">AuthSync::writeByteAt</text>
</a>
</g>
</g>
<!-- Node2&#45;&gt;Node10 -->
<g id="edge8_Node000002_Node000010" class="edge">
<title>Node2&#45;&gt;Node10</title>
<g id="a_edge8_Node000002_Node000010"><a xlink:title=" ">
<path fill="none" stroke="#63b8ff" d="M246.9,-75.52C267.42,-70.99 291.63,-65.65 313.23,-60.88"/>
<polygon fill="#63b8ff" stroke="#63b8ff" points="313.77,-64.35 322.78,-58.78 312.26,-57.51 313.77,-64.35"/>
</a>
</g>
</g>
<!-- Node5 -->
<g id="Node000005" class="node">
<title>Node5</title>
<g id="a_Node000005"><a xlink:href="namespace_hash_utils.html#a3432774829b6752dc346491bc5dd5eec" target="_top" xlink:title=" ">
<polygon fill="#fff0f0" stroke="red" points="607.38,-172 505.88,-172 505.88,-152 607.38,-152 607.38,-172"/>
<text xml:space="preserve" text-anchor="middle" x="556.62" y="-158.5" font-family="Helvetica,sans-Serif" font-size="10.00">HashUtils::hashUid</text>
</a>
</g>
</g>
<!-- Node4&#45;&gt;Node5 -->
<g id="edge4_Node000004_Node000005" class="edge">
<title>Node4&#45;&gt;Node5</title>
<g id="a_edge4_Node000004_Node000005"><a xlink:title=" ">
<path fill="none" stroke="#63b8ff" d="M423.36,-162C445.24,-162 471.15,-162 494.22,-162"/>
<polygon fill="#63b8ff" stroke="#63b8ff" points="494.12,-165.5 504.12,-162 494.12,-158.5 494.12,-165.5"/>
</a>
</g>
</g>
<!-- Node9 -->
<g id="Node000009" class="node">
<title>Node9</title>
<g id="a_Node000009"><a xlink:href="class_auth_sync.html#ad84e54dba300b040ae8655c915d5313f" target="_top" xlink:title=" ">
<polygon fill="white" stroke="#666666" points="634.75,-20 478.5,-20 478.5,0 634.75,0 634.75,-20"/>
<text xml:space="preserve" text-anchor="middle" x="556.62" y="-6.5" font-family="Helvetica,sans-Serif" font-size="10.00">AuthSync::saveAllowDenyToFS</text>
</a>
</g>
</g>
<!-- Node8&#45;&gt;Node9 -->
<g id="edge7_Node000008_Node000009" class="edge">
<title>Node8&#45;&gt;Node9</title>
<g id="a_edge7_Node000008_Node000009"><a xlink:title=" ">
<path fill="none" stroke="#63b8ff" d="M442.95,-10C450.8,-10 458.88,-10 466.94,-10"/>
<polygon fill="#63b8ff" stroke="#63b8ff" points="466.77,-13.5 476.77,-10 466.77,-6.5 466.77,-13.5"/>
</a>
</g>
</g>
<!-- Node10&#45;&gt;Node3 -->
<g id="edge9_Node000010_Node000003" class="edge">
<title>Node10&#45;&gt;Node3</title>
<g id="a_edge9_Node000010_Node000003"><a xlink:title=" ">
<path fill="none" stroke="#63b8ff" d="M423.84,-58.48C445.72,-63.05 471.57,-68.45 494.55,-73.25"/>
<polygon fill="#63b8ff" stroke="#63b8ff" points="493.59,-76.62 504.09,-75.24 495.02,-69.77 493.59,-76.62"/>
</a>
</g>
</g>
</g>
</svg>
