<?xml version="1.0" encoding="UTF-8" standalone="no"?>
<!DOCTYPE svg PUBLIC "-//W3C//DTD SVG 1.1//EN"
 "http://www.w3.org/Graphics/SVG/1.1/DTD/svg11.dtd">
<!-- Generated by graphviz version 14.1.2 (20260124.0452)
 -->
<!-- Title: AsyncClient::_s_lwip_fin Pages: 1 -->
<svg width="415pt" height="40pt"
 viewBox="0.00 0.00 415.00 40.00" xmlns="http://www.w3.org/2000/svg" xmlns:xlink="http://www.w3.org/1999/xlink">
<g id="graph0" class="graph" transform="scale(1 1) rotate(0) translate(4 36)">
<title>AsyncClient::_s_lwip_fin</title>
<!-- Node1 -->
<g id="Node000001" class="node">
<title>Node1</title>
<g id="a_Node000001"><a xlink:title=" ">
<polygon fill="#999999" stroke="#666666" points="124,-26 0,-26 0,-6 124,-6 124,-26"/>
<text xml:space="preserve" text-anchor="middle" x="62" y="-12.5" font-family="Helvetica,sans-Serif" font-size="10.00">AsyncClient::_s_lwip_fin</text>
</a>
</g>
</g>
<!-- Node2 -->
<g id="Node000002" class="node">
<title>Node2</title>
<g id="a_Node000002"><a xlink:href="class_async_client.html#a32dfd5b9ec97903e2f59871f17b85ff4" target="_top" xlink:title=" ">
<polygon fill="white" stroke="#666666" points="273.5,-26 160,-26 160,-6 273.5,-6 273.5,-26"/>
<text xml:space="preserve" text-anchor="middle" x="216.75" y="-12.5" font-family="Helvetica,sans-Serif" font-size="10.00">AsyncClient::_lwip_fin</text>
</a>
</g>
</g>
<!-- Node1&#45;&gt;Node2 -->
<g id="edge1_Node000001_Node000002" class="edge">
<title>Node1&#45;&gt;Node2</title>
<g id="a_edge1_Node000001_Node000002"><a xlink:title=" ">
<path fill="none" stroke="#63b8ff" d="M124.25,-16C132.26,-16 140.5,-16 148.6,-16"/>
<polygon fill="#63b8ff" stroke="#63b8ff" points="148.41,-19.5 158.41,-16 148.41,-12.5 148.41,-19.5"/>
</a>
</g>
</g>
<!-- Node3 -->
<g id="Node000003" class="node">
<title>Node3</title>
<g id="a_Node000003"><a xlink:href="class_async_client.html#aff6a2fbf261b25e1fcd35c11cce348a5" target="_top" xlink:title=" ">
<polygon fill="white" stroke="#666666" points="406.5,-32 309.5,-32 309.5,0 406.5,0 406.5,-32"/>
<text xml:space="preserve" text-anchor="start" x="317.5" y="-18.5" font-family="Helvetica,sans-Serif" font-size="10.00">AsyncClient::_free</text>
<text xml:space="preserve" text-anchor="middle" x="358" y="-6.5" font-family="Helvetica,sans-Serif" font-size="10.00">_closed_slot</text>
</a>
</g>
</g>
<!-- Node2&#45;&gt;Node3 -->
<g id="edge2_Node000002_Node000003" class="edge">
<title>Node2&#45;&gt;Node3</title>
<g id="a_edge2_Node000002_Node000003"><a xlink:title=" ">
<path fill="none" stroke="#63b8ff" d="M273.99,-16C281.8,-16 289.84,-16 297.7,-16"/>
<polygon fill="#63b8ff" stroke="#63b8ff" points="297.54,-19.5 307.54,-16 297.54,-12.5 297.54,-19.5"/>
</a>
</g>
</g>
</g>
</svg>
