<?xml version="1.0" encoding="UTF-8" standalone="no"?>
<!DOCTYPE svg PUBLIC "-//W3C//DTD SVG 1.1//EN"
 "http://www.w3.org/Graphics/SVG/1.1/DTD/svg11.dtd">
<!-- Generated by graphviz version 14.1.2 (20260124.0452)
 -->
<!-- Title: AsyncClient::_connect Pages: 1 -->
<!--zoomable 407 -->

<svg id="main" version="1.1" xmlns="http://www.w3.org/2000/svg" xmlns:xlink="http://www.w3.org/1999/xlink" xml:space="preserve" onload="init(evt)">

<style type="text/css"><![CDATA[
.node, .edge {opacity: 0.7;}
.node.selected, .edge.selected {opacity: 1;}
.edge:hover path { stroke: red; }
.edge:hover polygon { stroke: red; fill: red; }
]]></style>

<defs>
  <circle id="rim" cx="0" cy="0" r="7"/>
  <circle id="rim2" cx="0" cy="0" r="3.5"/>
  <g id="zoomPlus">
    <use xlink:href="#rim" fill="#404040"><set attributeName="fill" to="#808080" begin="zoomplus.mouseover" end="zoomplus.mouseout"/></use>
    <path d="M-4,0h8M0,-4v8" fill="none" stroke="white" stroke-width="1.5" pointer-events="none"/>
  </g>
  <g id="zoomMin">
    <use xlink:href="#rim" fill="#404040"><set attributeName="fill" to="#808080" begin="zoomminus.mouseover" end="zoomminus.mouseout"/></use>
    <path d="M-4,0h8" fill="none" stroke="white" stroke-width="1.5" pointer-events="none"/>
  </g>
  <g id="arrowUp" transform="translate(30 24)">
    <use xlink:href="#rim"/>
    <path pointer-events="none" fill="none" stroke="white" stroke-width="1.5" d="M0,-3.0v7 M-2.5,-0.5L0,-3.0L2.5,-0.5"/>
  </g>
  <g id="arrowRight" transform="rotate(90) translate(36 -43)">
    <use xlink:href="#rim"/>
    <path pointer-events="none" fill="none" stroke="white" stroke-width="1.5" d="M0,-3.0v7 M-2.5,-0.5L0,-3.0L2.5,-0.5"/>
  </g>
  <g id="arrowDown" transform="rotate(180) translate(-30 -48)">
    <use xlink:href="#rim"/>
    <path pointer-events="none" fill="none" stroke="white" stroke-width="1.5" d="M0,-3.0v7 M-2.5,-0.5L0,-3.0L2.5,-0.5"/>
  </g>
  <g id="arrowLeft" transform="rotate(270) translate(-36 17)">
    <use xlink:href="#rim"/>
    <path pointer-events="none" fill="none" stroke="white" stroke-width="1.5" d="M0,-3.0v7 M-2.5,-0.5L0,-3.0L2.5,-0.5"/>
  </g>
  <g id="resetDef">
    <use xlink:href="#rim2" fill="#404040"><set attributeName="fill" to="#808080" begin="reset.mouseover" end="reset.mouseout"/></use>
  </g>
</defs>
<script type="application/ecmascript">
var viewWidth = 596;
var viewHeight = 407;
var sectionId = 'dynsection-7';
</script>
<script type="application/ecmascript" xlink:href="svg.min.js"/>
<svg id="graph" class="graph">
<g id="viewport">
<title>AsyncClient::_connect</title>
<!-- Node1 -->
<g id="Node000001" class="node">
<title>Node1</title>
<g id="a_Node000001"><a xlink:title=" ">
<polygon fill="#999999" stroke="#666666" points="115,-172 0,-172 0,-152 115,-152 115,-172"/>
<text xml:space="preserve" text-anchor="middle" x="57.5" y="-158.5" font-family="Helvetica,sans-Serif" font-size="10.00">AsyncClient::_connect</text>
</a>
</g>
</g>
<!-- Node2 -->
<g id="Node000002" class="node">
<title>Node2</title>
<g id="a_Node000002"><a xlink:href="class_async_client.html#ab0422e5254ea4fbac9f87188a018ebc4" target="_top" xlink:title=" ">
<polygon fill="white" stroke="#666666" points="265.25,-336 151,-336 151,-304 265.25,-304 265.25,-336"/>
<text xml:space="preserve" text-anchor="start" x="159" y="-322.5" font-family="Helvetica,sans-Serif" font-size="10.00">AsyncClient::_allocate</text>
<text xml:space="preserve" text-anchor="middle" x="208.12" y="-310.5" font-family="Helvetica,sans-Serif" font-size="10.00">_closed_slot</text>
</a>
</g>
</g>
<!-- Node1&#45;&gt;Node2 -->
<g id="edge1_Node000001_Node000002" class="edge">
<title>Node1&#45;&gt;Node2</title>
<g id="a_edge1_Node000001_Node000002"><a xlink:title=" ">
<path fill="none" stroke="#63b8ff" d="M63.27,-172.42C74.94,-196.91 107.22,-258.79 151,-295 152.09,-295.9 153.21,-296.77 154.37,-297.62"/>
<polygon fill="#63b8ff" stroke="#63b8ff" points="152.12,-300.34 162.43,-302.79 155.9,-294.45 152.12,-300.34"/>
</a>
</g>
</g>
<!-- Node3 -->
<g id="Node000003" class="node">
<title>Node3</title>
<g id="a_Node000003"><a xlink:href="_async_t_c_p_8cpp.html#a4d0de407bcfcc96b61af40aca3156708" target="_top" xlink:title=" ">
<polygon fill="white" stroke="#666666" points="256.25,-286 160,-286 160,-266 256.25,-266 256.25,-286"/>
<text xml:space="preserve" text-anchor="middle" x="208.12" y="-272.5" font-family="Helvetica,sans-Serif" font-size="10.00">_start_async_task</text>
</a>
</g>
</g>
<!-- Node1&#45;&gt;Node3 -->
<g id="edge2_Node000001_Node000003" class="edge">
<title>Node1&#45;&gt;Node3</title>
<g id="a_edge2_Node000001_Node000003"><a xlink:title=" ">
<path fill="none" stroke="#63b8ff" d="M65.94,-172.42C80.28,-191.78 113.61,-233.43 151,-257 153.24,-258.41 155.6,-259.73 158.02,-260.96"/>
<polygon fill="#63b8ff" stroke="#63b8ff" points="156.34,-264.05 166.9,-264.93 159.2,-257.66 156.34,-264.05"/>
</a>
</g>
</g>
<!-- Node48 -->
<g id="Node000048" class="node">
<title>Node48</title>
<g id="a_Node000048"><a xlink:href="_async_t_c_p_8cpp.html#a02f7e9cd68d729395c7794e07dfc1375" target="_top" xlink:title=" ">
<polygon fill="white" stroke="#666666" points="245.38,-248 170.88,-248 170.88,-228 245.38,-228 245.38,-248"/>
<text xml:space="preserve" text-anchor="middle" x="208.12" y="-234.5" font-family="Helvetica,sans-Serif" font-size="10.00">_tcp_connect</text>
</a>
</g>
</g>
<!-- Node1&#45;&gt;Node48 -->
<g id="edge9_Node000001_Node000048" class="edge">
<title>Node1&#45;&gt;Node48</title>
<g id="a_edge9_Node000001_Node000048"><a xlink:title=" ">
<path fill="none" stroke="#63b8ff" d="M72.98,-172.36C90.71,-184.7 121.98,-205.36 151,-219 154.35,-220.58 157.87,-222.08 161.44,-223.51"/>
<polygon fill="#63b8ff" stroke="#63b8ff" points="160.2,-226.78 170.79,-227.01 162.66,-220.23 160.2,-226.78"/>
</a>
</g>
</g>
<!-- Node50 -->
<g id="Node000050" class="node">
<title>Node50</title>
<g id="a_Node000050"><a xlink:href="_async_t_c_p_8cpp.html#aceddc1345284b96d9d3618c7b01ecede" target="_top" xlink:title=" ">
<polygon fill="white" stroke="#666666" points="250.62,-210 165.62,-210 165.62,-190 250.62,-190 250.62,-210"/>
<text xml:space="preserve" text-anchor="middle" x="208.12" y="-196.5" font-family="Helvetica,sans-Serif" font-size="10.00">_tcp_connected</text>
</a>
</g>
</g>
<!-- Node1&#45;&gt;Node50 -->
<g id="edge11_Node000001_Node000050" class="edge">
<title>Node1&#45;&gt;Node50</title>
<g id="a_edge11_Node000001_Node000050"><a xlink:title=" ">
<path fill="none" stroke="#63b8ff" d="M99.51,-172.48C116.73,-176.89 136.95,-182.06 155.2,-186.72"/>
<polygon fill="#63b8ff" stroke="#63b8ff" points="154.23,-190.09 164.79,-189.18 155.97,-183.31 154.23,-190.09"/>
</a>
</g>
</g>
<!-- Node24 -->
<g id="Node000024" class="node">
<title>Node24</title>
<g id="a_Node000024"><a xlink:href="_async_t_c_p_8cpp.html#a61ff9f7f886bbbbcdc1daca453828934" target="_top" xlink:title=" ">
<polygon fill="#fff0f0" stroke="red" points="237.88,-172 178.38,-172 178.38,-152 237.88,-152 237.88,-172"/>
<text xml:space="preserve" text-anchor="middle" x="208.12" y="-158.5" font-family="Helvetica,sans-Serif" font-size="10.00">_tcp_error</text>
</a>
</g>
</g>
<!-- Node1&#45;&gt;Node24 -->
<g id="edge13_Node000001_Node000024" class="edge">
<title>Node1&#45;&gt;Node24</title>
<g id="a_edge13_Node000001_Node000024"><a xlink:title=" ">
<path fill="none" stroke="#63b8ff" d="M115.11,-162C132.41,-162 151.06,-162 167.02,-162"/>
<polygon fill="#63b8ff" stroke="#63b8ff" points="166.6,-165.5 176.6,-162 166.6,-158.5 166.6,-165.5"/>
</a>
</g>
</g>
<!-- Node26 -->
<g id="Node000026" class="node">
<title>Node26</title>
<g id="a_Node000026"><a xlink:href="_async_t_c_p_8cpp.html#ad4b2c6c935c211eef5884f25a950e445" target="_top" xlink:title=" ">
<polygon fill="#fff0f0" stroke="red" points="235.62,-134 180.62,-134 180.62,-114 235.62,-114 235.62,-134"/>
<text xml:space="preserve" text-anchor="middle" x="208.12" y="-120.5" font-family="Helvetica,sans-Serif" font-size="10.00">_tcp_poll</text>
</a>
</g>
</g>
<!-- Node1&#45;&gt;Node26 -->
<g id="edge14_Node000001_Node000026" class="edge">
<title>Node1&#45;&gt;Node26</title>
<g id="a_edge14_Node000001_Node000026"><a xlink:title=" ">
<path fill="none" stroke="#63b8ff" d="M99.51,-151.52C121.36,-145.93 148.05,-139.1 169.38,-133.65"/>
<polygon fill="#63b8ff" stroke="#63b8ff" points="170.02,-137.1 178.84,-131.23 168.29,-130.32 170.02,-137.1"/>
</a>
</g>
</g>
<!-- Node27 -->
<g id="Node000027" class="node">
<title>Node27</title>
<g id="a_Node000027"><a xlink:href="_async_t_c_p_8cpp.html#adf7826424bf5b1035c4850f6b3307686" target="_top" xlink:title=" ">
<polygon fill="#fff0f0" stroke="red" points="237.5,-96 178.75,-96 178.75,-76 237.5,-76 237.5,-96"/>
<text xml:space="preserve" text-anchor="middle" x="208.12" y="-82.5" font-family="Helvetica,sans-Serif" font-size="10.00">_tcp_recv</text>
</a>
</g>
</g>
<!-- Node1&#45;&gt;Node27 -->
<g id="edge15_Node000001_Node000027" class="edge">
<title>Node1&#45;&gt;Node27</title>
<g id="a_edge15_Node000001_Node000027"><a xlink:title=" ">
<path fill="none" stroke="#63b8ff" d="M72.98,-151.64C90.71,-139.3 121.98,-118.64 151,-105 156.28,-102.52 161.97,-100.21 167.63,-98.11"/>
<polygon fill="#63b8ff" stroke="#63b8ff" points="168.66,-101.46 176.94,-94.85 166.35,-94.85 168.66,-101.46"/>
</a>
</g>
</g>
<!-- Node30 -->
<g id="Node000030" class="node">
<title>Node30</title>
<g id="a_Node000030"><a xlink:href="_async_t_c_p_8cpp.html#a0b47280aff638ec9b80f7a87dfe54ea6" target="_top" xlink:title=" ">
<polygon fill="#fff0f0" stroke="red" points="237.5,-58 178.75,-58 178.75,-38 237.5,-38 237.5,-58"/>
<text xml:space="preserve" text-anchor="middle" x="208.12" y="-44.5" font-family="Helvetica,sans-Serif" font-size="10.00">_tcp_sent</text>
</a>
</g>
</g>
<!-- Node1&#45;&gt;Node30 -->
<g id="edge16_Node000001_Node000030" class="edge">
<title>Node1&#45;&gt;Node30</title>
<g id="a_edge16_Node000001_Node000030"><a xlink:title=" ">
<path fill="none" stroke="#63b8ff" d="M65.94,-151.58C80.28,-132.22 113.61,-90.57 151,-67 156.17,-63.74 161.96,-60.97 167.8,-58.64"/>
<polygon fill="#63b8ff" stroke="#63b8ff" points="168.59,-62.08 176.83,-55.42 166.24,-55.48 168.59,-62.08"/>
</a>
</g>
</g>
<!-- Node13 -->
<g id="Node000013" class="node">
<title>Node13</title>
<g id="a_Node000013"><a xlink:href="class_async_client.html#ac0c28dd08517243bc6d64d32f982a3cc" target="_top" xlink:title=" ">
<polygon fill="white" stroke="#666666" points="253.62,-20 162.62,-20 162.62,0 253.62,0 253.62,-20"/>
<text xml:space="preserve" text-anchor="middle" x="208.12" y="-6.5" font-family="Helvetica,sans-Serif" font-size="10.00">AsyncClient::pcb</text>
</a>
</g>
</g>
<!-- Node1&#45;&gt;Node13 -->
<g id="edge17_Node000001_Node000013" class="edge">
<title>Node1&#45;&gt;Node13</title>
<g id="a_edge17_Node000001_Node000013"><a xlink:title=" ">
<path fill="none" stroke="#63b8ff" d="M62.88,-151.67C73.94,-126.84 105.37,-63.31 151,-29 152.55,-27.83 154.19,-26.73 155.87,-25.7"/>
<polygon fill="#63b8ff" stroke="#63b8ff" points="157.4,-28.85 164.68,-21.15 154.19,-22.63 157.4,-28.85"/>
</a>
</g>
</g>
<!-- Node4 -->
<g id="Node000004" class="node">
<title>Node4</title>
<g id="a_Node000004"><a xlink:href="_async_t_c_p_8cpp.html#a87baf4ac2987dd94502c4586a97e552f" target="_top" xlink:title=" ">
<polygon fill="white" stroke="#666666" points="425.25,-362 317,-362 317,-342 425.25,-342 425.25,-362"/>
<text xml:space="preserve" text-anchor="middle" x="371.12" y="-348.5" font-family="Helvetica,sans-Serif" font-size="10.00">_async_service_task</text>
</a>
</g>
</g>
<!-- Node3&#45;&gt;Node4 -->
<g id="edge3_Node000003_Node000004" class="edge">
<title>Node3&#45;&gt;Node4</title>
<g id="a_edge3_Node000003_Node000004"><a xlink:title=" ">
<path fill="none" stroke="#63b8ff" d="M248.01,-286.39C254.01,-288.77 259.96,-291.62 265.25,-295 284.84,-307.54 281.31,-321.02 301.25,-333 303.85,-334.56 306.59,-336 309.4,-337.32"/>
<polygon fill="#63b8ff" stroke="#63b8ff" points="307.9,-340.49 318.48,-341.05 310.55,-334.01 307.9,-340.49"/>
</a>
</g>
</g>
<!-- Node46 -->
<g id="Node000046" class="node">
<title>Node46</title>
<g id="a_Node000046"><a xlink:href="_async_t_c_p_8cpp.html#a3aed34b06f9d10bb1cc4ce3d74cb5565" target="_top" xlink:title=" ">
<polygon fill="white" stroke="#666666" points="434.25,-324 308,-324 308,-304 434.25,-304 434.25,-324"/>
<text xml:space="preserve" text-anchor="middle" x="371.12" y="-310.5" font-family="Helvetica,sans-Serif" font-size="10.00">_init_async_event_queue</text>
</a>
</g>
</g>
<!-- Node3&#45;&gt;Node46 -->
<g id="edge7_Node000003_Node000046" class="edge">
<title>Node3&#45;&gt;Node46</title>
<g id="a_edge7_Node000003_Node000046"><a xlink:title=" ">
<path fill="none" stroke="#63b8ff" d="M253.55,-286.48C272.46,-290.95 294.73,-296.21 314.71,-300.92"/>
<polygon fill="#63b8ff" stroke="#63b8ff" points="313.84,-304.31 324.38,-303.2 315.45,-297.5 313.84,-304.31"/>
</a>
</g>
</g>
<!-- Node47 -->
<g id="Node000047" class="node">
<title>Node47</title>
<g id="a_Node000047"><a xlink:href="_async_t_c_p_8cpp.html#a8fedef252807f247ae1b933ac0bcc234" target="_top" xlink:title=" ">
<polygon fill="white" stroke="#666666" points="441,-286 301.25,-286 301.25,-266 441,-266 441,-286"/>
<text xml:space="preserve" text-anchor="middle" x="371.12" y="-272.5" font-family="Helvetica,sans-Serif" font-size="10.00">customTaskCreateUniversal</text>
</a>
</g>
</g>
<!-- Node3&#45;&gt;Node47 -->
<g id="edge8_Node000003_Node000047" class="edge">
<title>Node3&#45;&gt;Node47</title>
<g id="a_edge8_Node000003_Node000047"><a xlink:title=" ">
<path fill="none" stroke="#63b8ff" d="M256.56,-276C266.99,-276 278.33,-276 289.66,-276"/>
<polygon fill="#63b8ff" stroke="#63b8ff" points="289.44,-279.5 299.44,-276 289.44,-272.5 289.44,-279.5"/>
</a>
</g>
</g>
<!-- Node5 -->
<g id="Node000005" class="node">
<title>Node5</title>
<g id="a_Node000005"><a xlink:href="_async_t_c_p_8cpp.html#a8a4bbbc30b10628f96b77b68e1f66620" target="_top" xlink:title=" ">
<polygon fill="white" stroke="#666666" points="580,-381 484.5,-381 484.5,-361 580,-361 580,-381"/>
<text xml:space="preserve" text-anchor="middle" x="532.25" y="-367.5" font-family="Helvetica,sans-Serif" font-size="10.00">_get_async_event</text>
</a>
</g>
</g>
<!-- Node4&#45;&gt;Node5 -->
<g id="edge4_Node000004_Node000005" class="edge">
<title>Node4&#45;&gt;Node5</title>
<g id="a_edge4_Node000004_Node000005"><a xlink:title=" ">
<path fill="none" stroke="#63b8ff" d="M425.55,-358.38C440.81,-360.2 457.51,-362.2 473.04,-364.05"/>
<polygon fill="#63b8ff" stroke="#63b8ff" points="472.25,-367.48 482.6,-365.19 473.08,-360.53 472.25,-367.48"/>
</a>
</g>
</g>
<!-- Node6 -->
<g id="Node000006" class="node">
<title>Node6</title>
<g id="a_Node000006"><a xlink:href="_async_t_c_p_8cpp.html#ac4030e968c0e4c0fcbe7a9b4502854c1" target="_top" xlink:title=" ">
<polygon fill="#fff0f0" stroke="red" points="587.5,-343 477,-343 477,-323 587.5,-323 587.5,-343"/>
<text xml:space="preserve" text-anchor="middle" x="532.25" y="-329.5" font-family="Helvetica,sans-Serif" font-size="10.00">_handle_async_event</text>
</a>
</g>
</g>
<!-- Node4&#45;&gt;Node6 -->
<g id="edge6_Node000004_Node000006" class="edge">
<title>Node4&#45;&gt;Node6</title>
<g id="a_edge6_Node000004_Node000006"><a xlink:title=" ">
<path fill="none" stroke="#63b8ff" d="M425.55,-345.62C438.26,-344.1 451.97,-342.47 465.17,-340.89"/>
<polygon fill="#63b8ff" stroke="#63b8ff" points="465.59,-344.37 475.1,-339.7 464.76,-337.41 465.59,-344.37"/>
</a>
</g>
</g>
<!-- Node5&#45;&gt;Node5 -->
<g id="edge5_Node000005_Node000005" class="edge">
<title>Node5&#45;&gt;Node5</title>
<g id="a_edge5_Node000005_Node000005"><a xlink:title=" ">
<path fill="none" stroke="#63b8ff" d="M506.65,-381.34C495.71,-389.98 504.24,-399 532.25,-399 547.57,-399 557.06,-396.3 560.73,-392.44"/>
<polygon fill="#63b8ff" stroke="#63b8ff" points="564.13,-391.61 558.23,-382.8 557.35,-393.36 564.13,-391.61"/>
</a>
</g>
</g>
<!-- Node49 -->
<g id="Node000049" class="node">
<title>Node49</title>
<g id="a_Node000049"><a xlink:href="_async_t_c_p_8cpp.html#a6c3a1f5e3365fd25233a4ca083b400af" target="_top" xlink:title=" ">
<polygon fill="white" stroke="#666666" points="417.38,-248 324.88,-248 324.88,-228 417.38,-228 417.38,-248"/>
<text xml:space="preserve" text-anchor="middle" x="371.12" y="-234.5" font-family="Helvetica,sans-Serif" font-size="10.00">_tcp_connect_api</text>
</a>
</g>
</g>
<!-- Node48&#45;&gt;Node49 -->
<g id="edge10_Node000048_Node000049" class="edge">
<title>Node48&#45;&gt;Node49</title>
<g id="a_edge10_Node000048_Node000049"><a xlink:title=" ">
<path fill="none" stroke="#63b8ff" d="M245.66,-238C265.57,-238 290.65,-238 313.08,-238"/>
<polygon fill="#63b8ff" stroke="#63b8ff" points="313.01,-241.5 323.01,-238 313.01,-234.5 313.01,-241.5"/>
</a>
</g>
</g>
<!-- Node18 -->
<g id="Node000018" class="node">
<title>Node18</title>
<g id="a_Node000018"><a xlink:href="_async_t_c_p_8cpp.html#a42bebdded16714188a8e554237aad2f3" target="_top" xlink:title=" ">
<polygon fill="white" stroke="#666666" points="429.38,-210 312.88,-210 312.88,-190 429.38,-190 429.38,-210"/>
<text xml:space="preserve" text-anchor="middle" x="371.12" y="-196.5" font-family="Helvetica,sans-Serif" font-size="10.00">_prepend_async_event</text>
</a>
</g>
</g>
<!-- Node50&#45;&gt;Node18 -->
<g id="edge12_Node000050_Node000018" class="edge">
<title>Node50&#45;&gt;Node18</title>
<g id="a_edge12_Node000050_Node000018"><a xlink:title=" ">
<path fill="none" stroke="#63b8ff" d="M251.01,-200C266.37,-200 284.19,-200 301.29,-200"/>
<polygon fill="#63b8ff" stroke="#63b8ff" points="300.88,-203.5 310.88,-200 300.88,-196.5 300.88,-203.5"/>
</a>
</g>
</g>
</g>
</svg>

<g id="navigator" transform="translate(0 0)" fill="#404254">
  <rect fill="#f2f5e9" fill-opacity="0.5" stroke="#606060" stroke-width=".5" x="0" y="0" width="60" height="60"/>
  <use id="zoomplus" xlink:href="#zoomPlus" x="17" y="9" onmousedown="handleZoom(evt,'in')"/>
  <use id="zoomminus" xlink:href="#zoomMin" x="42" y="9" onmousedown="handleZoom(evt,'out')"/>
  <use id="reset" xlink:href="#resetDef" x="30" y="36" onmousedown="handleReset()"/>
   <use id="arrowup" xlink:href="#arrowUp" x="0" y="0" onmousedown="handlePan(0,-1)"/>
  <use id="arrowright" xlink:href="#arrowRight" x="0" y="0" onmousedown="handlePan(1,0)"/>
  <use id="arrowdown" xlink:href="#arrowDown" x="0" y="0" onmousedown="handlePan(0,1)"/>
  <use id="arrowleft" xlink:href="#arrowLeft" x="0" y="0" onmousedown="handlePan(-1,0)"/>
</g>
<svg viewBox="0 0 15 15" width="100%" height="30px" preserveAspectRatio="xMaxYMin meet">
 <g id="arrow_out" transform="scale(0.3 0.3)">
  <a xlink:href="class_async_client_a758eaca983e03027c99003a5808883f8_cgraph_org.svg" target="_base">
   <rect id="button" ry="5" rx="5" y="6" x="6" height="38" width="38"
        fill="#f2f5e9" fill-opacity="0.5" stroke="#606060" stroke-width="1.0"/>
   <path id="arrow"
     d="M 11.500037,31.436501 C 11.940474,20.09759 22.043105,11.32322 32.158766,21.979434 L 37.068811,17.246167 C 37.068811,17.246167 37.088388,32 37.088388,32 L 22.160133,31.978069 C 22.160133,31.978069 26.997745,27.140456 26.997745,27.140456 C 18.528582,18.264221 13.291696,25.230495 11.500037,31.436501 z"
     style="fill:#404040;"/>
  </a>
 </g>
</svg>

<style type='text/css'>
<![CDATA[
[data-mouse-over-selected='false'] { opacity: 0.7; }
[data-mouse-over-selected='true']  { opacity: 1.0; }
]]>
</style>
<script type="application/ecmascript"><![CDATA[
document.addEventListener('DOMContentLoaded', (event) => {
  highlightEdges();
  highlightAdjacentNodes();
});
]]></script>
</svg>
