<?xml version="1.0" encoding="UTF-8" standalone="no"?>
<!DOCTYPE svg PUBLIC "-//W3C//DTD SVG 1.1//EN"
 "http://www.w3.org/Graphics/SVG/1.1/DTD/svg11.dtd">
<!-- Generated by graphviz version 14.1.2 (20260124.0452)
 -->
<!-- Title: AsyncClient::AsyncClient Pages: 1 -->
<svg width="732pt" height="292pt"
 viewBox="0.00 0.00 732.00 292.00" xmlns="http://www.w3.org/2000/svg" xmlns:xlink="http://www.w3.org/1999/xlink">
<g id="graph0" class="graph" transform="scale(1 1) rotate(0) translate(4 288)">
<title>AsyncClient::AsyncClient</title>
<!-- Node1 -->
<g id="Node000001" class="node">
<title>Node1</title>
<g id="a_Node000001"><a xlink:title=" ">
<polygon fill="#999999" stroke="#666666" points="128.5,-139 0,-139 0,-119 128.5,-119 128.5,-139"/>
<text xml:space="preserve" text-anchor="middle" x="64.25" y="-125.5" font-family="Helvetica,sans-Serif" font-size="10.00">AsyncClient::AsyncClient</text>
</a>
</g>
</g>
<!-- Node2 -->
<g id="Node000002" class="node">
<title>Node2</title>
<g id="a_Node000002"><a xlink:href="class_async_client.html#ab0422e5254ea4fbac9f87188a018ebc4" target="_top" xlink:title=" ">
<polygon fill="white" stroke="#666666" points="278.75,-284 164.5,-284 164.5,-252 278.75,-252 278.75,-284"/>
<text xml:space="preserve" text-anchor="start" x="172.5" y="-270.5" font-family="Helvetica,sans-Serif" font-size="10.00">AsyncClient::_allocate</text>
<text xml:space="preserve" text-anchor="middle" x="221.62" y="-258.5" font-family="Helvetica,sans-Serif" font-size="10.00">_closed_slot</text>
</a>
</g>
</g>
<!-- Node1&#45;&gt;Node2 -->
<g id="edge1_Node000001_Node000002" class="edge">
<title>Node1&#45;&gt;Node2</title>
<g id="a_edge1_Node000001_Node000002"><a xlink:title=" ">
<path fill="none" stroke="#63b8ff" d="M72.01,-139.48C86.57,-161.32 122.94,-212.26 164.5,-243 165.84,-243.99 167.23,-244.96 168.65,-245.89"/>
<polygon fill="#63b8ff" stroke="#63b8ff" points="166.72,-248.82 177.11,-250.88 170.28,-242.79 166.72,-248.82"/>
</a>
</g>
</g>
<!-- Node3 -->
<g id="Node000003" class="node">
<title>Node3</title>
<g id="a_Node000003"><a xlink:href="class_async_client.html#a98ff872bc84919f006f3bb8a249ed36d" target="_top" xlink:title=" ">
<polygon fill="white" stroke="#666666" points="273.5,-234 169.75,-234 169.75,-214 273.5,-214 273.5,-234"/>
<text xml:space="preserve" text-anchor="middle" x="221.62" y="-220.5" font-family="Helvetica,sans-Serif" font-size="10.00">AsyncClient::_close</text>
</a>
</g>
</g>
<!-- Node1&#45;&gt;Node3 -->
<g id="edge2_Node000001_Node000003" class="edge">
<title>Node1&#45;&gt;Node3</title>
<g id="a_edge2_Node000001_Node000003"><a xlink:title=" ">
<path fill="none" stroke="#63b8ff" d="M76.31,-139.46C93.8,-155.51 129.46,-186.31 164.5,-205 167.35,-206.52 170.35,-207.95 173.41,-209.3"/>
<polygon fill="#63b8ff" stroke="#63b8ff" points="171.98,-212.5 182.56,-212.97 174.58,-206 171.98,-212.5"/>
</a>
</g>
</g>
<!-- Node12 -->
<g id="Node000012" class="node">
<title>Node12</title>
<g id="a_Node000012"><a xlink:href="_async_t_c_p_8cpp.html#a61ff9f7f886bbbbcdc1daca453828934" target="_top" xlink:title=" ">
<polygon fill="white" stroke="#666666" points="251.38,-196 191.88,-196 191.88,-176 251.38,-176 251.38,-196"/>
<text xml:space="preserve" text-anchor="middle" x="221.62" y="-182.5" font-family="Helvetica,sans-Serif" font-size="10.00">_tcp_error</text>
</a>
</g>
</g>
<!-- Node1&#45;&gt;Node12 -->
<g id="edge10_Node000001_Node000012" class="edge">
<title>Node1&#45;&gt;Node12</title>
<g id="a_edge10_Node000001_Node000012"><a xlink:title=" ">
<path fill="none" stroke="#63b8ff" d="M91.68,-139.45C111.62,-147.24 139.68,-158.05 164.5,-167 169.67,-168.87 175.13,-170.78 180.53,-172.64"/>
<polygon fill="#63b8ff" stroke="#63b8ff" points="179.39,-175.95 189.99,-175.87 181.65,-169.33 179.39,-175.95"/>
</a>
</g>
</g>
<!-- Node14 -->
<g id="Node000014" class="node">
<title>Node14</title>
<g id="a_Node000014"><a xlink:href="_async_t_c_p_8cpp.html#ad4b2c6c935c211eef5884f25a950e445" target="_top" xlink:title=" ">
<polygon fill="white" stroke="#666666" points="249.12,-158 194.12,-158 194.12,-138 249.12,-138 249.12,-158"/>
<text xml:space="preserve" text-anchor="middle" x="221.62" y="-144.5" font-family="Helvetica,sans-Serif" font-size="10.00">_tcp_poll</text>
</a>
</g>
</g>
<!-- Node1&#45;&gt;Node14 -->
<g id="edge12_Node000001_Node000014" class="edge">
<title>Node1&#45;&gt;Node14</title>
<g id="a_edge12_Node000001_Node000014"><a xlink:title=" ">
<path fill="none" stroke="#63b8ff" d="M128.9,-136.78C147.1,-139.01 166.38,-141.37 182.53,-143.34"/>
<polygon fill="#63b8ff" stroke="#63b8ff" points="181.83,-146.78 192.18,-144.52 182.68,-139.84 181.83,-146.78"/>
</a>
</g>
</g>
<!-- Node15 -->
<g id="Node000015" class="node">
<title>Node15</title>
<g id="a_Node000015"><a xlink:href="_async_t_c_p_8cpp.html#adf7826424bf5b1035c4850f6b3307686" target="_top" xlink:title=" ">
<polygon fill="white" stroke="#666666" points="251,-82 192.25,-82 192.25,-62 251,-62 251,-82"/>
<text xml:space="preserve" text-anchor="middle" x="221.62" y="-68.5" font-family="Helvetica,sans-Serif" font-size="10.00">_tcp_recv</text>
</a>
</g>
</g>
<!-- Node1&#45;&gt;Node15 -->
<g id="edge14_Node000001_Node000015" class="edge">
<title>Node1&#45;&gt;Node15</title>
<g id="a_edge14_Node000001_Node000015"><a xlink:title=" ">
<path fill="none" stroke="#63b8ff" d="M91.68,-118.56C111.62,-110.76 139.68,-99.95 164.5,-91 169.93,-89.05 175.67,-87.03 181.32,-85.09"/>
<polygon fill="#63b8ff" stroke="#63b8ff" points="182.23,-88.48 190.56,-81.94 179.97,-81.85 182.23,-88.48"/>
</a>
</g>
</g>
<!-- Node18 -->
<g id="Node000018" class="node">
<title>Node18</title>
<g id="a_Node000018"><a xlink:href="class_async_client.html#ac0c28dd08517243bc6d64d32f982a3cc" target="_top" xlink:title=" ">
<polygon fill="white" stroke="#666666" points="721.25,-54 630.25,-54 630.25,-34 721.25,-34 721.25,-54"/>
<text xml:space="preserve" text-anchor="middle" x="675.75" y="-40.5" font-family="Helvetica,sans-Serif" font-size="10.00">AsyncClient::pcb</text>
</a>
</g>
</g>
<!-- Node1&#45;&gt;Node18 -->
<g id="edge24_Node000001_Node000018" class="edge">
<title>Node1&#45;&gt;Node18</title>
<g id="a_edge24_Node000001_Node000018"><a xlink:title=" ">
<path fill="none" stroke="#63b8ff" d="M72.2,-118.61C86.56,-98.16 121.79,-53.21 164.5,-36 322.27,27.58 530.39,-8.71 624.59,-30.83"/>
<polygon fill="#63b8ff" stroke="#63b8ff" points="623.76,-34.23 634.3,-33.16 625.4,-27.42 623.76,-34.23"/>
</a>
</g>
</g>
<!-- Node19 -->
<g id="Node000019" class="node">
<title>Node19</title>
<g id="a_Node000019"><a xlink:href="_async_t_c_p_8cpp.html#a0b47280aff638ec9b80f7a87dfe54ea6" target="_top" xlink:title=" ">
<polygon fill="white" stroke="#666666" points="251,-120 192.25,-120 192.25,-100 251,-100 251,-120"/>
<text xml:space="preserve" text-anchor="middle" x="221.62" y="-106.5" font-family="Helvetica,sans-Serif" font-size="10.00">_tcp_sent</text>
</a>
</g>
</g>
<!-- Node1&#45;&gt;Node19 -->
<g id="edge22_Node000001_Node000019" class="edge">
<title>Node1&#45;&gt;Node19</title>
<g id="a_edge22_Node000001_Node000019"><a xlink:title=" ">
<path fill="none" stroke="#63b8ff" d="M128.9,-121.22C146.56,-119.06 165.24,-116.77 181.09,-114.84"/>
<polygon fill="#63b8ff" stroke="#63b8ff" points="181.07,-118.36 190.58,-113.68 180.22,-111.42 181.07,-118.36"/>
</a>
</g>
</g>
<!-- Node4 -->
<g id="Node000004" class="node">
<title>Node4</title>
<g id="a_Node000004"><a xlink:href="class_async_client.html#aff6a2fbf261b25e1fcd35c11cce348a5" target="_top" xlink:title=" ">
<polygon fill="white" stroke="#666666" points="724.25,-186 627.25,-186 627.25,-154 724.25,-154 724.25,-186"/>
<text xml:space="preserve" text-anchor="start" x="635.25" y="-172.5" font-family="Helvetica,sans-Serif" font-size="10.00">AsyncClient::_free</text>
<text xml:space="preserve" text-anchor="middle" x="675.75" y="-160.5" font-family="Helvetica,sans-Serif" font-size="10.00">_closed_slot</text>
</a>
</g>
</g>
<!-- Node3&#45;&gt;Node4 -->
<g id="edge3_Node000003_Node000004" class="edge">
<title>Node3&#45;&gt;Node4</title>
<g id="a_edge3_Node000003_Node000004"><a xlink:title=" ">
<path fill="none" stroke="#63b8ff" d="M256.54,-234.49C323.18,-253.26 474.86,-286.7 591.25,-243 616.89,-233.38 639.81,-211.92 655.12,-194.74"/>
<polygon fill="#63b8ff" stroke="#63b8ff" points="657.57,-197.26 661.42,-187.39 652.26,-192.7 657.57,-197.26"/>
</a>
</g>
</g>
<!-- Node5 -->
<g id="Node000005" class="node">
<title>Node5</title>
<g id="a_Node000005"><a xlink:href="_async_t_c_p_8cpp.html#ab053d5adb5be879f37181af512213bb6" target="_top" xlink:title=" ">
<polygon fill="white" stroke="#666666" points="424.5,-234 329,-234 329,-214 424.5,-214 424.5,-234"/>
<text xml:space="preserve" text-anchor="middle" x="376.75" y="-220.5" font-family="Helvetica,sans-Serif" font-size="10.00">_tcp_clear_events</text>
</a>
</g>
</g>
<!-- Node3&#45;&gt;Node5 -->
<g id="edge4_Node000003_Node000005" class="edge">
<title>Node3&#45;&gt;Node5</title>
<g id="a_edge4_Node000003_Node000005"><a xlink:title=" ">
<path fill="none" stroke="#63b8ff" d="M273.61,-224C287.62,-224 302.91,-224 317.3,-224"/>
<polygon fill="#63b8ff" stroke="#63b8ff" points="317.09,-227.5 327.09,-224 317.09,-220.5 317.09,-227.5"/>
</a>
</g>
</g>
<!-- Node7 -->
<g id="Node000007" class="node">
<title>Node7</title>
<g id="a_Node000007"><a xlink:href="_async_t_c_p_8cpp.html#a3602c1ebfae2fb2ff64a0e3d7b0568ce" target="_top" xlink:title=" ">
<polygon fill="white" stroke="#666666" points="408.38,-196 345.12,-196 345.12,-176 408.38,-176 408.38,-196"/>
<text xml:space="preserve" text-anchor="middle" x="376.75" y="-182.5" font-family="Helvetica,sans-Serif" font-size="10.00">_tcp_close</text>
</a>
</g>
</g>
<!-- Node3&#45;&gt;Node7 -->
<g id="edge6_Node000003_Node000007" class="edge">
<title>Node3&#45;&gt;Node7</title>
<g id="a_edge6_Node000003_Node000007"><a xlink:title=" ">
<path fill="none" stroke="#63b8ff" d="M264.87,-213.52C286.33,-208.19 312.33,-201.74 333.75,-196.42"/>
<polygon fill="#63b8ff" stroke="#63b8ff" points="334.48,-199.85 343.34,-194.04 332.79,-193.06 334.48,-199.85"/>
</a>
</g>
</g>
<!-- Node9 -->
<g id="Node000009" class="node">
<title>Node9</title>
<g id="a_Node000009"><a xlink:href="class_async_client.html#a09e777ff005d8e0f81166e704dc14979" target="_top" xlink:title=" ">
<polygon fill="white" stroke="#666666" points="425.25,-158 328.25,-158 328.25,-138 425.25,-138 425.25,-158"/>
<text xml:space="preserve" text-anchor="middle" x="376.75" y="-144.5" font-family="Helvetica,sans-Serif" font-size="10.00">AsyncClient::abort</text>
</a>
</g>
</g>
<!-- Node3&#45;&gt;Node9 -->
<g id="edge8_Node000003_Node000009" class="edge">
<title>Node3&#45;&gt;Node9</title>
<g id="a_edge8_Node000003_Node000009"><a xlink:title=" ">
<path fill="none" stroke="#63b8ff" d="M261.51,-213.61C267.51,-211.23 273.46,-208.38 278.75,-205 298.34,-192.46 295,-179.3 314.75,-167 317.05,-165.57 319.47,-164.23 321.97,-162.99"/>
<polygon fill="#63b8ff" stroke="#63b8ff" points="323.35,-166.21 331.14,-159.01 320.57,-159.78 323.35,-166.21"/>
</a>
</g>
</g>
<!-- Node6 -->
<g id="Node000006" class="node">
<title>Node6</title>
<g id="a_Node000006"><a xlink:href="_async_t_c_p_8cpp.html#a42bebdded16714188a8e554237aad2f3" target="_top" xlink:title=" ">
<polygon fill="white" stroke="#666666" points="591.25,-234 474.75,-234 474.75,-214 591.25,-214 591.25,-234"/>
<text xml:space="preserve" text-anchor="middle" x="533" y="-220.5" font-family="Helvetica,sans-Serif" font-size="10.00">_prepend_async_event</text>
</a>
</g>
</g>
<!-- Node5&#45;&gt;Node6 -->
<g id="edge5_Node000005_Node000006" class="edge">
<title>Node5&#45;&gt;Node6</title>
<g id="a_edge5_Node000005_Node000006"><a xlink:title=" ">
<path fill="none" stroke="#63b8ff" d="M424.87,-224C436.93,-224 450.15,-224 463.06,-224"/>
<polygon fill="#63b8ff" stroke="#63b8ff" points="462.78,-227.5 472.78,-224 462.78,-220.5 462.78,-227.5"/>
</a>
</g>
</g>
<!-- Node8 -->
<g id="Node000008" class="node">
<title>Node8</title>
<g id="a_Node000008"><a xlink:href="_async_t_c_p_8cpp.html#a7c4346c7dec98a175f7b96b03873839a" target="_top" xlink:title=" ">
<polygon fill="white" stroke="#666666" points="573.62,-196 492.38,-196 492.38,-176 573.62,-176 573.62,-196"/>
<text xml:space="preserve" text-anchor="middle" x="533" y="-182.5" font-family="Helvetica,sans-Serif" font-size="10.00">_tcp_close_api</text>
</a>
</g>
</g>
<!-- Node7&#45;&gt;Node8 -->
<g id="edge7_Node000007_Node000008" class="edge">
<title>Node7&#45;&gt;Node8</title>
<g id="a_edge7_Node000007_Node000008"><a xlink:title=" ">
<path fill="none" stroke="#63b8ff" d="M408.59,-186C429.22,-186 456.86,-186 480.74,-186"/>
<polygon fill="#63b8ff" stroke="#63b8ff" points="480.61,-189.5 490.61,-186 480.61,-182.5 480.61,-189.5"/>
</a>
</g>
</g>
<!-- Node10 -->
<g id="Node000010" class="node">
<title>Node10</title>
<g id="a_Node000010"><a xlink:href="_async_t_c_p_8cpp.html#a3e2474b46f6a3f01db216511d2bcfc4c" target="_top" xlink:title=" ">
<polygon fill="#fff0f0" stroke="red" points="563.88,-158 502.12,-158 502.12,-138 563.88,-138 563.88,-158"/>
<text xml:space="preserve" text-anchor="middle" x="533" y="-144.5" font-family="Helvetica,sans-Serif" font-size="10.00">_tcp_abort</text>
</a>
</g>
</g>
<!-- Node9&#45;&gt;Node10 -->
<g id="edge9_Node000009_Node000010" class="edge">
<title>Node9&#45;&gt;Node10</title>
<g id="a_edge9_Node000009_Node000010"><a xlink:title=" ">
<path fill="none" stroke="#63b8ff" d="M425.71,-148C446.56,-148 470.74,-148 490.77,-148"/>
<polygon fill="#63b8ff" stroke="#63b8ff" points="490.51,-151.5 500.51,-148 490.51,-144.5 490.51,-151.5"/>
</a>
</g>
</g>
<!-- Node13 -->
<g id="Node000013" class="node">
<title>Node13</title>
<g id="a_Node000013"><a xlink:href="_async_t_c_p_8cpp.html#a796c13746a84a6b2e7370ddbec97ad5b" target="_top" xlink:title=" ">
<polygon fill="white" stroke="#666666" points="428.25,-120 325.25,-120 325.25,-100 428.25,-100 428.25,-120"/>
<text xml:space="preserve" text-anchor="middle" x="376.75" y="-106.5" font-family="Helvetica,sans-Serif" font-size="10.00">_send_async_event</text>
</a>
</g>
</g>
<!-- Node12&#45;&gt;Node13 -->
<g id="edge11_Node000012_Node000013" class="edge">
<title>Node12&#45;&gt;Node13</title>
<g id="a_edge11_Node000012_Node000013"><a xlink:title=" ">
<path fill="none" stroke="#63b8ff" d="M251.82,-179.07C260.88,-176.16 270.61,-172.21 278.75,-167 298.34,-154.46 295,-141.3 314.75,-129 317.05,-127.57 319.47,-126.23 321.97,-124.99"/>
<polygon fill="#63b8ff" stroke="#63b8ff" points="323.35,-128.21 331.14,-121.01 320.57,-121.78 323.35,-128.21"/>
</a>
</g>
</g>
<!-- Node14&#45;&gt;Node13 -->
<g id="edge13_Node000014_Node000013" class="edge">
<title>Node14&#45;&gt;Node13</title>
<g id="a_edge13_Node000014_Node000013"><a xlink:title=" ">
<path fill="none" stroke="#63b8ff" d="M249.3,-141.38C269.43,-136.38 297.73,-129.36 322.45,-123.23"/>
<polygon fill="#63b8ff" stroke="#63b8ff" points="323.18,-126.65 332.04,-120.85 321.49,-119.86 323.18,-126.65"/>
</a>
</g>
</g>
<!-- Node15&#45;&gt;Node13 -->
<g id="edge21_Node000015_Node000013" class="edge">
<title>Node15&#45;&gt;Node13</title>
<g id="a_edge21_Node000015_Node000013"><a xlink:title=" ">
<path fill="none" stroke="#63b8ff" d="M251.43,-79.15C271.4,-84.1 298.58,-90.85 322.44,-96.77"/>
<polygon fill="#63b8ff" stroke="#63b8ff" points="321.46,-100.14 332.01,-99.15 323.15,-93.34 321.46,-100.14"/>
</a>
</g>
</g>
<!-- Node16 -->
<g id="Node000016" class="node">
<title>Node16</title>
<g id="a_Node000016"><a xlink:href="class_async_client.html#a485b2be0c01d3172928c0ed9655edc2f" target="_top" xlink:title=" ">
<polygon fill="white" stroke="#666666" points="438.75,-63 314.75,-63 314.75,-43 438.75,-43 438.75,-63"/>
<text xml:space="preserve" text-anchor="middle" x="376.75" y="-49.5" font-family="Helvetica,sans-Serif" font-size="10.00">AsyncClient::_s_lwip_fin</text>
</a>
</g>
</g>
<!-- Node15&#45;&gt;Node16 -->
<g id="edge15_Node000015_Node000016" class="edge">
<title>Node15&#45;&gt;Node16</title>
<g id="a_edge15_Node000015_Node000016"><a xlink:title=" ">
<path fill="none" stroke="#63b8ff" d="M251.43,-68.43C266.13,-66.6 284.76,-64.29 303.08,-62.02"/>
<polygon fill="#63b8ff" stroke="#63b8ff" points="303.42,-65.5 312.91,-60.8 302.56,-58.56 303.42,-65.5"/>
</a>
</g>
</g>
<!-- Node16&#45;&gt;Node1 -->
<g id="edge19_Node000016_Node000001" class="edge">
<title>Node16&#45;&gt;Node1</title>
<g id="a_edge19_Node000016_Node000001"><a xlink:title=" ">
<path fill="none" stroke="#63b8ff" d="M314.43,-42.8C271.33,-38.06 212.96,-36.58 164.5,-53 131.29,-64.26 100.47,-91.57 82.25,-110.2"/>
<polygon fill="#63b8ff" stroke="#63b8ff" points="79.73,-107.77 75.4,-117.44 84.81,-112.58 79.73,-107.77"/>
</a>
</g>
</g>
<!-- Node17 -->
<g id="Node000017" class="node">
<title>Node17</title>
<g id="a_Node000017"><a xlink:href="class_async_client.html#a32dfd5b9ec97903e2f59871f17b85ff4" target="_top" xlink:title=" ">
<polygon fill="white" stroke="#666666" points="589.75,-92 476.25,-92 476.25,-72 589.75,-72 589.75,-92"/>
<text xml:space="preserve" text-anchor="middle" x="533" y="-78.5" font-family="Helvetica,sans-Serif" font-size="10.00">AsyncClient::_lwip_fin</text>
</a>
</g>
</g>
<!-- Node16&#45;&gt;Node17 -->
<g id="edge16_Node000016_Node000017" class="edge">
<title>Node16&#45;&gt;Node17</title>
<g id="a_edge16_Node000016_Node000017"><a xlink:title=" ">
<path fill="none" stroke="#63b8ff" d="M433.44,-63.47C443.81,-65.42 454.75,-67.48 465.42,-69.48"/>
<polygon fill="#63b8ff" stroke="#63b8ff" points="464.43,-72.86 474.91,-71.27 465.73,-65.98 464.43,-72.86"/>
</a>
</g>
</g>
<!-- Node16&#45;&gt;Node18 -->
<g id="edge20_Node000016_Node000018" class="edge">
<title>Node16&#45;&gt;Node18</title>
<g id="a_edge20_Node000016_Node000018"><a xlink:title=" ">
<path fill="none" stroke="#63b8ff" d="M438.93,-51.15C491.82,-49.54 567.62,-47.25 618.89,-45.69"/>
<polygon fill="#63b8ff" stroke="#63b8ff" points="618.68,-49.2 628.57,-45.4 618.47,-42.21 618.68,-49.2"/>
</a>
</g>
</g>
<!-- Node17&#45;&gt;Node4 -->
<g id="edge17_Node000017_Node000004" class="edge">
<title>Node17&#45;&gt;Node4</title>
<g id="a_edge17_Node000017_Node000004"><a xlink:title=" ">
<path fill="none" stroke="#63b8ff" d="M550.7,-92.44C572.32,-105.96 610.6,-129.89 638.93,-147.61"/>
<polygon fill="#63b8ff" stroke="#63b8ff" points="636.88,-150.45 647.21,-152.79 640.59,-144.52 636.88,-150.45"/>
</a>
</g>
</g>
<!-- Node17&#45;&gt;Node18 -->
<g id="edge18_Node000017_Node000018" class="edge">
<title>Node17&#45;&gt;Node18</title>
<g id="a_edge18_Node000017_Node000018"><a xlink:title=" ">
<path fill="none" stroke="#63b8ff" d="M572.83,-71.52C588.99,-67.16 607.93,-62.04 625.08,-57.41"/>
<polygon fill="#63b8ff" stroke="#63b8ff" points="625.84,-60.83 634.58,-54.85 624.02,-54.07 625.84,-60.83"/>
</a>
</g>
</g>
<!-- Node19&#45;&gt;Node13 -->
<g id="edge23_Node000019_Node000013" class="edge">
<title>Node19&#45;&gt;Node13</title>
<g id="a_edge23_Node000019_Node000013"><a xlink:title=" ">
<path fill="none" stroke="#63b8ff" d="M251.43,-110C268.9,-110 291.91,-110 313.38,-110"/>
<polygon fill="#63b8ff" stroke="#63b8ff" points="313.24,-113.5 323.24,-110 313.24,-106.5 313.24,-113.5"/>
</a>
</g>
</g>
</g>
</svg>
