<?xml version="1.0" encoding="UTF-8" standalone="no"?>
<!DOCTYPE svg PUBLIC "-//W3C//DTD SVG 1.1//EN"
 "http://www.w3.org/Graphics/SVG/1.1/DTD/svg11.dtd">
<!-- Generated by graphviz version 14.1.2 (20260124.0452)
 -->
<!-- Title: AsyncClient::write Pages: 1 -->
<svg width="506pt" height="104pt"
 viewBox="0.00 0.00 506.00 104.00" xmlns="http://www.w3.org/2000/svg" xmlns:xlink="http://www.w3.org/1999/xlink">
<g id="graph0" class="graph" transform="scale(1 1) rotate(0) translate(4 100)">
<title>AsyncClient::write</title>
<!-- Node1 -->
<g id="Node000001" class="node">
<title>Node1</title>
<g id="a_Node000001"><a xlink:title="add and enque data for sending">
<polygon fill="#999999" stroke="#666666" points="96.25,-39 0,-39 0,-19 96.25,-19 96.25,-39"/>
<text xml:space="preserve" text-anchor="middle" x="48.12" y="-25.5" font-family="Helvetica,sans-Serif" font-size="10.00">AsyncClient::write</text>
</a>
</g>
</g>
<!-- Node2 -->
<g id="Node000002" class="node">
<title>Node2</title>
<g id="a_Node000002"><a xlink:href="class_async_client.html#a287fe3b09d815afc3351674a11843ce9" target="_top" xlink:title="add and enqueue data for sending">
<polygon fill="white" stroke="#666666" points="228.5,-39 132.25,-39 132.25,-19 228.5,-19 228.5,-39"/>
<text xml:space="preserve" text-anchor="middle" x="180.38" y="-25.5" font-family="Helvetica,sans-Serif" font-size="10.00">AsyncClient::write</text>
</a>
</g>
</g>
<!-- Node1&#45;&gt;Node2 -->
<g id="edge1_Node000001_Node000002" class="edge">
<title>Node1&#45;&gt;Node2</title>
<g id="a_edge1_Node000001_Node000002"><a xlink:title=" ">
<path fill="none" stroke="#63b8ff" d="M96.52,-29C104.33,-29 112.51,-29 120.56,-29"/>
<polygon fill="#63b8ff" stroke="#63b8ff" points="120.29,-32.5 130.29,-29 120.29,-25.5 120.29,-32.5"/>
</a>
</g>
</g>
<!-- Node3 -->
<g id="Node000003" class="node">
<title>Node3</title>
<g id="a_Node000003"><a xlink:href="class_async_client.html#af4b403851a81a5bf272a0e4a46796044" target="_top" xlink:title="add data to be send (but do not send yet)">
<polygon fill="white" stroke="#666666" points="358.12,-58 267.12,-58 267.12,-38 358.12,-38 358.12,-58"/>
<text xml:space="preserve" text-anchor="middle" x="312.62" y="-44.5" font-family="Helvetica,sans-Serif" font-size="10.00">AsyncClient::add</text>
</a>
</g>
</g>
<!-- Node2&#45;&gt;Node3 -->
<g id="edge2_Node000002_Node000003" class="edge">
<title>Node2&#45;&gt;Node3</title>
<g id="a_edge2_Node000002_Node000003"><a xlink:title=" ">
<path fill="none" stroke="#63b8ff" d="M228.77,-35.91C237.46,-37.18 246.61,-38.52 255.53,-39.82"/>
<polygon fill="#63b8ff" stroke="#63b8ff" points="254.76,-43.24 265.16,-41.22 255.77,-36.31 254.76,-43.24"/>
</a>
</g>
</g>
<!-- Node7 -->
<g id="Node000007" class="node">
<title>Node7</title>
<g id="a_Node000007"><a xlink:href="class_async_client.html#aa2d6f5a753f8928469e0fd1b01116e61" target="_top" xlink:title="send data previously add()&#39;ed">
<polygon fill="white" stroke="#666666" points="360.75,-20 264.5,-20 264.5,0 360.75,0 360.75,-20"/>
<text xml:space="preserve" text-anchor="middle" x="312.62" y="-6.5" font-family="Helvetica,sans-Serif" font-size="10.00">AsyncClient::send</text>
</a>
</g>
</g>
<!-- Node2&#45;&gt;Node7 -->
<g id="edge5_Node000002_Node000007" class="edge">
<title>Node2&#45;&gt;Node7</title>
<g id="a_edge5_Node000002_Node000007"><a xlink:title=" ">
<path fill="none" stroke="#63b8ff" d="M228.77,-22.09C236.58,-20.95 244.76,-19.75 252.81,-18.58"/>
<polygon fill="#63b8ff" stroke="#63b8ff" points="253.16,-22.07 262.55,-17.16 252.15,-15.14 253.16,-22.07"/>
</a>
</g>
</g>
<!-- Node4 -->
<g id="Node000004" class="node">
<title>Node4</title>
<g id="a_Node000004"><a xlink:href="_async_t_c_p_8cpp.html#a139d659560ae3b41b186955258551e53" target="_top" xlink:title=" ">
<polygon fill="#fff0f0" stroke="red" points="478,-96 417,-96 417,-76 478,-76 478,-96"/>
<text xml:space="preserve" text-anchor="middle" x="447.5" y="-82.5" font-family="Helvetica,sans-Serif" font-size="10.00">_tcp_write</text>
</a>
</g>
</g>
<!-- Node3&#45;&gt;Node4 -->
<g id="edge3_Node000003_Node000004" class="edge">
<title>Node3&#45;&gt;Node4</title>
<g id="a_edge3_Node000003_Node000004"><a xlink:title=" ">
<path fill="none" stroke="#63b8ff" d="M350.29,-58.48C367.51,-63.41 388.09,-69.3 405.8,-74.36"/>
<polygon fill="#63b8ff" stroke="#63b8ff" points="404.64,-77.67 415.21,-77.05 406.56,-70.94 404.64,-77.67"/>
</a>
</g>
</g>
<!-- Node6 -->
<g id="Node000006" class="node">
<title>Node6</title>
<g id="a_Node000006"><a xlink:href="class_async_client.html#a039b989cd1e955709e8b90567045fdbb" target="_top" xlink:title=" ">
<polygon fill="white" stroke="#666666" points="498.25,-58 396.75,-58 396.75,-38 498.25,-38 498.25,-58"/>
<text xml:space="preserve" text-anchor="middle" x="447.5" y="-44.5" font-family="Helvetica,sans-Serif" font-size="10.00">AsyncClient::space</text>
</a>
</g>
</g>
<!-- Node3&#45;&gt;Node6 -->
<g id="edge4_Node000003_Node000006" class="edge">
<title>Node3&#45;&gt;Node6</title>
<g id="a_edge4_Node000003_Node000006"><a xlink:title=" ">
<path fill="none" stroke="#63b8ff" d="M358.61,-48C367.19,-48 376.3,-48 385.28,-48"/>
<polygon fill="#63b8ff" stroke="#63b8ff" points="385.02,-51.5 395.02,-48 385.02,-44.5 385.02,-51.5"/>
</a>
</g>
</g>
<!-- Node8 -->
<g id="Node000008" class="node">
<title>Node8</title>
<g id="a_Node000008"><a xlink:href="_async_t_c_p_8cpp.html#a32a44c4db7c9b6ee6a58167d8e2e5210" target="_top" xlink:title=" ">
<polygon fill="#fff0f0" stroke="red" points="481,-20 414,-20 414,0 481,0 481,-20"/>
<text xml:space="preserve" text-anchor="middle" x="447.5" y="-6.5" font-family="Helvetica,sans-Serif" font-size="10.00">_tcp_output</text>
</a>
</g>
</g>
<!-- Node7&#45;&gt;Node8 -->
<g id="edge6_Node000007_Node000008" class="edge">
<title>Node7&#45;&gt;Node8</title>
<g id="a_edge6_Node000007_Node000008"><a xlink:title=" ">
<path fill="none" stroke="#63b8ff" d="M361.22,-10C374.7,-10 389.3,-10 402.55,-10"/>
<polygon fill="#63b8ff" stroke="#63b8ff" points="402.28,-13.5 412.28,-10 402.28,-6.5 402.28,-13.5"/>
</a>
</g>
</g>
</g>
</svg>
