<?xml version="1.0" encoding="UTF-8" standalone="no"?>
<!DOCTYPE svg PUBLIC "-//W3C//DTD SVG 1.1//EN"
 "http://www.w3.org/Graphics/SVG/1.1/DTD/svg11.dtd">
<!-- Generated by graphviz version 14.1.2 (20260124.0452)
 -->
<!-- Title: AsyncClient::connect Pages: 1 -->
<svg width="595pt" height="332pt"
 viewBox="0.00 0.00 595.00 332.00" xmlns="http://www.w3.org/2000/svg" xmlns:xlink="http://www.w3.org/1999/xlink">
<g id="graph0" class="graph" transform="scale(1 1) rotate(0) translate(4 328)">
<title>AsyncClient::connect</title>
<!-- Node1 -->
<g id="Node000001" class="node">
<title>Node1</title>
<g id="a_Node000001"><a xlink:title=" ">
<polygon fill="#999999" stroke="#666666" points="109.75,-153 0,-153 0,-133 109.75,-133 109.75,-153"/>
<text xml:space="preserve" text-anchor="middle" x="54.88" y="-139.5" font-family="Helvetica,sans-Serif" font-size="10.00">AsyncClient::connect</text>
</a>
</g>
</g>
<!-- Node2 -->
<g id="Node000002" class="node">
<title>Node2</title>
<g id="a_Node000002"><a xlink:href="class_async_client.html#a758eaca983e03027c99003a5808883f8" target="_top" xlink:title=" ">
<polygon fill="white" stroke="#666666" points="260.75,-153 145.75,-153 145.75,-133 260.75,-133 260.75,-153"/>
<text xml:space="preserve" text-anchor="middle" x="203.25" y="-139.5" font-family="Helvetica,sans-Serif" font-size="10.00">AsyncClient::_connect</text>
</a>
</g>
</g>
<!-- Node1&#45;&gt;Node2 -->
<g id="edge1_Node000001_Node000002" class="edge">
<title>Node1&#45;&gt;Node2</title>
<g id="a_edge1_Node000001_Node000002"><a xlink:title=" ">
<path fill="none" stroke="#63b8ff" d="M109.96,-143C117.82,-143 126,-143 134.09,-143"/>
<polygon fill="#63b8ff" stroke="#63b8ff" points="133.93,-146.5 143.93,-143 133.93,-139.5 133.93,-146.5"/>
</a>
</g>
</g>
<!-- Node3 -->
<g id="Node000003" class="node">
<title>Node3</title>
<g id="a_Node000003"><a xlink:href="class_async_client.html#ab0422e5254ea4fbac9f87188a018ebc4" target="_top" xlink:title=" ">
<polygon fill="white" stroke="#666666" points="411,-298 296.75,-298 296.75,-266 411,-266 411,-298"/>
<text xml:space="preserve" text-anchor="start" x="304.75" y="-284.5" font-family="Helvetica,sans-Serif" font-size="10.00">AsyncClient::_allocate</text>
<text xml:space="preserve" text-anchor="middle" x="353.88" y="-272.5" font-family="Helvetica,sans-Serif" font-size="10.00">_closed_slot</text>
</a>
</g>
</g>
<!-- Node2&#45;&gt;Node3 -->
<g id="edge2_Node000002_Node000003" class="edge">
<title>Node2&#45;&gt;Node3</title>
<g id="a_edge2_Node000002_Node000003"><a xlink:title=" ">
<path fill="none" stroke="#63b8ff" d="M210.18,-153.18C223.27,-174.89 256.7,-226.3 296.75,-257 298.05,-257.99 299.39,-258.96 300.77,-259.89"/>
<polygon fill="#63b8ff" stroke="#63b8ff" points="298.6,-262.68 308.97,-264.85 302.22,-256.68 298.6,-262.68"/>
</a>
</g>
</g>
<!-- Node4 -->
<g id="Node000004" class="node">
<title>Node4</title>
<g id="a_Node000004"><a xlink:href="_async_t_c_p_8cpp.html#a4d0de407bcfcc96b61af40aca3156708" target="_top" xlink:title=" ">
<polygon fill="white" stroke="#666666" points="402,-248 305.75,-248 305.75,-228 402,-228 402,-248"/>
<text xml:space="preserve" text-anchor="middle" x="353.88" y="-234.5" font-family="Helvetica,sans-Serif" font-size="10.00">_start_async_task</text>
</a>
</g>
</g>
<!-- Node2&#45;&gt;Node4 -->
<g id="edge3_Node000002_Node000004" class="edge">
<title>Node2&#45;&gt;Node4</title>
<g id="a_edge3_Node000002_Node000004"><a xlink:title=" ">
<path fill="none" stroke="#63b8ff" d="M214.15,-153.25C230.16,-169.29 263.32,-200.43 296.75,-219 299.53,-220.55 302.46,-222 305.46,-223.35"/>
<polygon fill="#63b8ff" stroke="#63b8ff" points="303.84,-226.47 314.42,-227.01 306.49,-219.99 303.84,-226.47"/>
</a>
</g>
</g>
<!-- Node38 -->
<g id="Node000038" class="node">
<title>Node38</title>
<g id="a_Node000038"><a xlink:href="_async_t_c_p_8cpp.html#a02f7e9cd68d729395c7794e07dfc1375" target="_top" xlink:title=" ">
<polygon fill="white" stroke="#666666" points="391.12,-210 316.62,-210 316.62,-190 391.12,-190 391.12,-210"/>
<text xml:space="preserve" text-anchor="middle" x="353.88" y="-196.5" font-family="Helvetica,sans-Serif" font-size="10.00">_tcp_connect</text>
</a>
</g>
</g>
<!-- Node2&#45;&gt;Node38 -->
<g id="edge7_Node000002_Node000038" class="edge">
<title>Node2&#45;&gt;Node38</title>
<g id="a_edge7_Node000002_Node000038"><a xlink:title=" ">
<path fill="none" stroke="#63b8ff" d="M228.43,-153.42C246.99,-161.31 273.34,-172.24 296.75,-181 301.14,-182.64 305.74,-184.3 310.35,-185.92"/>
<polygon fill="#63b8ff" stroke="#63b8ff" points="308.97,-189.15 319.56,-189.1 311.25,-182.53 308.97,-189.15"/>
</a>
</g>
</g>
<!-- Node40 -->
<g id="Node000040" class="node">
<title>Node40</title>
<g id="a_Node000040"><a xlink:href="_async_t_c_p_8cpp.html#aceddc1345284b96d9d3618c7b01ecede" target="_top" xlink:title=" ">
<polygon fill="white" stroke="#666666" points="396.38,-172 311.38,-172 311.38,-152 396.38,-152 396.38,-172"/>
<text xml:space="preserve" text-anchor="middle" x="353.88" y="-158.5" font-family="Helvetica,sans-Serif" font-size="10.00">_tcp_connected</text>
</a>
</g>
</g>
<!-- Node2&#45;&gt;Node40 -->
<g id="edge9_Node000002_Node000040" class="edge">
<title>Node2&#45;&gt;Node40</title>
<g id="a_edge9_Node000002_Node000040"><a xlink:title=" ">
<path fill="none" stroke="#63b8ff" d="M260.86,-150.24C273.68,-151.88 287.23,-153.61 299.89,-155.23"/>
<polygon fill="#63b8ff" stroke="#63b8ff" points="299.35,-158.69 309.71,-156.48 300.24,-151.74 299.35,-158.69"/>
</a>
</g>
</g>
<!-- Node41 -->
<g id="Node000041" class="node">
<title>Node41</title>
<g id="a_Node000041"><a xlink:href="_async_t_c_p_8cpp.html#a61ff9f7f886bbbbcdc1daca453828934" target="_top" xlink:title=" ">
<polygon fill="white" stroke="#666666" points="383.62,-134 324.12,-134 324.12,-114 383.62,-114 383.62,-134"/>
<text xml:space="preserve" text-anchor="middle" x="353.88" y="-120.5" font-family="Helvetica,sans-Serif" font-size="10.00">_tcp_error</text>
</a>
</g>
</g>
<!-- Node2&#45;&gt;Node41 -->
<g id="edge11_Node000002_Node000041" class="edge">
<title>Node2&#45;&gt;Node41</title>
<g id="a_edge11_Node000002_Node000041"><a xlink:title=" ">
<path fill="none" stroke="#63b8ff" d="M260.86,-135.76C278.16,-133.55 296.81,-131.17 312.77,-129.13"/>
<polygon fill="#63b8ff" stroke="#63b8ff" points="312.88,-132.64 322.36,-127.9 311.99,-125.7 312.88,-132.64"/>
</a>
</g>
</g>
<!-- Node43 -->
<g id="Node000043" class="node">
<title>Node43</title>
<g id="a_Node000043"><a xlink:href="_async_t_c_p_8cpp.html#ad4b2c6c935c211eef5884f25a950e445" target="_top" xlink:title=" ">
<polygon fill="white" stroke="#666666" points="381.38,-96 326.38,-96 326.38,-76 381.38,-76 381.38,-96"/>
<text xml:space="preserve" text-anchor="middle" x="353.88" y="-82.5" font-family="Helvetica,sans-Serif" font-size="10.00">_tcp_poll</text>
</a>
</g>
</g>
<!-- Node2&#45;&gt;Node43 -->
<g id="edge13_Node000002_Node000043" class="edge">
<title>Node2&#45;&gt;Node43</title>
<g id="a_edge13_Node000002_Node000043"><a xlink:title=" ">
<path fill="none" stroke="#63b8ff" d="M228.43,-132.58C246.99,-124.69 273.34,-113.76 296.75,-105 302.65,-102.79 308.94,-100.55 315.1,-98.42"/>
<polygon fill="#63b8ff" stroke="#63b8ff" points="316.15,-101.76 324.48,-95.23 313.89,-95.14 316.15,-101.76"/>
</a>
</g>
</g>
<!-- Node44 -->
<g id="Node000044" class="node">
<title>Node44</title>
<g id="a_Node000044"><a xlink:href="_async_t_c_p_8cpp.html#adf7826424bf5b1035c4850f6b3307686" target="_top" xlink:title=" ">
<polygon fill="white" stroke="#666666" points="383.25,-20 324.5,-20 324.5,0 383.25,0 383.25,-20"/>
<text xml:space="preserve" text-anchor="middle" x="353.88" y="-6.5" font-family="Helvetica,sans-Serif" font-size="10.00">_tcp_recv</text>
</a>
</g>
</g>
<!-- Node2&#45;&gt;Node44 -->
<g id="edge15_Node000002_Node000044" class="edge">
<title>Node2&#45;&gt;Node44</title>
<g id="a_edge15_Node000002_Node000044"><a xlink:title=" ">
<path fill="none" stroke="#63b8ff" d="M209.96,-132.53C222.64,-110.25 255.32,-57.82 296.75,-29 301.82,-25.48 307.59,-22.56 313.46,-20.16"/>
<polygon fill="#63b8ff" stroke="#63b8ff" points="314.35,-23.56 322.58,-16.89 311.99,-16.97 314.35,-23.56"/>
</a>
</g>
</g>
<!-- Node47 -->
<g id="Node000047" class="node">
<title>Node47</title>
<g id="a_Node000047"><a xlink:href="_async_t_c_p_8cpp.html#a0b47280aff638ec9b80f7a87dfe54ea6" target="_top" xlink:title=" ">
<polygon fill="white" stroke="#666666" points="383.25,-58 324.5,-58 324.5,-38 383.25,-38 383.25,-58"/>
<text xml:space="preserve" text-anchor="middle" x="353.88" y="-44.5" font-family="Helvetica,sans-Serif" font-size="10.00">_tcp_sent</text>
</a>
</g>
</g>
<!-- Node2&#45;&gt;Node47 -->
<g id="edge18_Node000002_Node000047" class="edge">
<title>Node2&#45;&gt;Node47</title>
<g id="a_edge18_Node000002_Node000047"><a xlink:title=" ">
<path fill="none" stroke="#63b8ff" d="M214.15,-132.75C230.16,-116.71 263.32,-85.57 296.75,-67 301.9,-64.14 307.56,-61.61 313.23,-59.4"/>
<polygon fill="#63b8ff" stroke="#63b8ff" points="314.37,-62.71 322.62,-56.06 312.03,-56.11 314.37,-62.71"/>
</a>
</g>
</g>
<!-- Node5 -->
<g id="Node000005" class="node">
<title>Node5</title>
<g id="a_Node000005"><a xlink:href="_async_t_c_p_8cpp.html#a87baf4ac2987dd94502c4586a97e552f" target="_top" xlink:title=" ">
<polygon fill="#fff0f0" stroke="red" points="571,-324 462.75,-324 462.75,-304 571,-304 571,-324"/>
<text xml:space="preserve" text-anchor="middle" x="516.88" y="-310.5" font-family="Helvetica,sans-Serif" font-size="10.00">_async_service_task</text>
</a>
</g>
</g>
<!-- Node4&#45;&gt;Node5 -->
<g id="edge4_Node000004_Node000005" class="edge">
<title>Node4&#45;&gt;Node5</title>
<g id="a_edge4_Node000004_Node000005"><a xlink:title=" ">
<path fill="none" stroke="#63b8ff" d="M393.76,-248.39C399.76,-250.77 405.71,-253.62 411,-257 430.59,-269.54 427.06,-283.02 447,-295 449.6,-296.56 452.34,-298 455.15,-299.32"/>
<polygon fill="#63b8ff" stroke="#63b8ff" points="453.65,-302.49 464.23,-303.05 456.3,-296.01 453.65,-302.49"/>
</a>
</g>
</g>
<!-- Node36 -->
<g id="Node000036" class="node">
<title>Node36</title>
<g id="a_Node000036"><a xlink:href="_async_t_c_p_8cpp.html#a3aed34b06f9d10bb1cc4ce3d74cb5565" target="_top" xlink:title=" ">
<polygon fill="white" stroke="#666666" points="580,-286 453.75,-286 453.75,-266 580,-266 580,-286"/>
<text xml:space="preserve" text-anchor="middle" x="516.88" y="-272.5" font-family="Helvetica,sans-Serif" font-size="10.00">_init_async_event_queue</text>
</a>
</g>
</g>
<!-- Node4&#45;&gt;Node36 -->
<g id="edge5_Node000004_Node000036" class="edge">
<title>Node4&#45;&gt;Node36</title>
<g id="a_edge5_Node000004_Node000036"><a xlink:title=" ">
<path fill="none" stroke="#63b8ff" d="M399.3,-248.48C418.21,-252.95 440.48,-258.21 460.46,-262.92"/>
<polygon fill="#63b8ff" stroke="#63b8ff" points="459.59,-266.31 470.13,-265.2 461.2,-259.5 459.59,-266.31"/>
</a>
</g>
</g>
<!-- Node37 -->
<g id="Node000037" class="node">
<title>Node37</title>
<g id="a_Node000037"><a xlink:href="_async_t_c_p_8cpp.html#a8fedef252807f247ae1b933ac0bcc234" target="_top" xlink:title=" ">
<polygon fill="white" stroke="#666666" points="586.75,-248 447,-248 447,-228 586.75,-228 586.75,-248"/>
<text xml:space="preserve" text-anchor="middle" x="516.88" y="-234.5" font-family="Helvetica,sans-Serif" font-size="10.00">customTaskCreateUniversal</text>
</a>
</g>
</g>
<!-- Node4&#45;&gt;Node37 -->
<g id="edge6_Node000004_Node000037" class="edge">
<title>Node4&#45;&gt;Node37</title>
<g id="a_edge6_Node000004_Node000037"><a xlink:title=" ">
<path fill="none" stroke="#63b8ff" d="M402.31,-238C412.74,-238 424.08,-238 435.41,-238"/>
<polygon fill="#63b8ff" stroke="#63b8ff" points="435.19,-241.5 445.19,-238 435.19,-234.5 435.19,-241.5"/>
</a>
</g>
</g>
<!-- Node39 -->
<g id="Node000039" class="node">
<title>Node39</title>
<g id="a_Node000039"><a xlink:href="_async_t_c_p_8cpp.html#a6c3a1f5e3365fd25233a4ca083b400af" target="_top" xlink:title=" ">
<polygon fill="white" stroke="#666666" points="563.12,-210 470.62,-210 470.62,-190 563.12,-190 563.12,-210"/>
<text xml:space="preserve" text-anchor="middle" x="516.88" y="-196.5" font-family="Helvetica,sans-Serif" font-size="10.00">_tcp_connect_api</text>
</a>
</g>
</g>
<!-- Node38&#45;&gt;Node39 -->
<g id="edge8_Node000038_Node000039" class="edge">
<title>Node38&#45;&gt;Node39</title>
<g id="a_edge8_Node000038_Node000039"><a xlink:title=" ">
<path fill="none" stroke="#63b8ff" d="M391.41,-200C411.32,-200 436.4,-200 458.83,-200"/>
<polygon fill="#63b8ff" stroke="#63b8ff" points="458.76,-203.5 468.76,-200 458.76,-196.5 458.76,-203.5"/>
</a>
</g>
</g>
<!-- Node21 -->
<g id="Node000021" class="node">
<title>Node21</title>
<g id="a_Node000021"><a xlink:href="_async_t_c_p_8cpp.html#a42bebdded16714188a8e554237aad2f3" target="_top" xlink:title=" ">
<polygon fill="white" stroke="#666666" points="575.12,-172 458.62,-172 458.62,-152 575.12,-152 575.12,-172"/>
<text xml:space="preserve" text-anchor="middle" x="516.88" y="-158.5" font-family="Helvetica,sans-Serif" font-size="10.00">_prepend_async_event</text>
</a>
</g>
</g>
<!-- Node40&#45;&gt;Node21 -->
<g id="edge10_Node000040_Node000021" class="edge">
<title>Node40&#45;&gt;Node21</title>
<g id="a_edge10_Node000040_Node000021"><a xlink:title=" ">
<path fill="none" stroke="#63b8ff" d="M396.76,-162C412.12,-162 429.94,-162 447.04,-162"/>
<polygon fill="#63b8ff" stroke="#63b8ff" points="446.63,-165.5 456.63,-162 446.63,-158.5 446.63,-165.5"/>
</a>
</g>
</g>
<!-- Node42 -->
<g id="Node000042" class="node">
<title>Node42</title>
<g id="a_Node000042"><a xlink:href="_async_t_c_p_8cpp.html#a796c13746a84a6b2e7370ddbec97ad5b" target="_top" xlink:title=" ">
<polygon fill="white" stroke="#666666" points="568.38,-77 465.38,-77 465.38,-57 568.38,-57 568.38,-77"/>
<text xml:space="preserve" text-anchor="middle" x="516.88" y="-63.5" font-family="Helvetica,sans-Serif" font-size="10.00">_send_async_event</text>
</a>
</g>
</g>
<!-- Node41&#45;&gt;Node42 -->
<g id="edge12_Node000041_Node000042" class="edge">
<title>Node41&#45;&gt;Node42</title>
<g id="a_edge12_Node000041_Node000042"><a xlink:title=" ">
<path fill="none" stroke="#63b8ff" d="M384.05,-114.26C392.73,-111.32 402.26,-108.06 411,-105 432.8,-97.36 457.04,-88.59 476.73,-81.41"/>
<polygon fill="#63b8ff" stroke="#63b8ff" points="477.84,-84.73 486.02,-78.01 475.43,-78.16 477.84,-84.73"/>
</a>
</g>
</g>
<!-- Node43&#45;&gt;Node42 -->
<g id="edge14_Node000043_Node000042" class="edge">
<title>Node43&#45;&gt;Node42</title>
<g id="a_edge14_Node000043_Node000042"><a xlink:title=" ">
<path fill="none" stroke="#63b8ff" d="M381.82,-82.82C401.46,-80.5 428.89,-77.27 453.82,-74.32"/>
<polygon fill="#63b8ff" stroke="#63b8ff" points="454.03,-77.82 463.55,-73.17 453.21,-70.87 454.03,-77.82"/>
</a>
</g>
</g>
<!-- Node44&#45;&gt;Node42 -->
<g id="edge17_Node000044_Node000042" class="edge">
<title>Node44&#45;&gt;Node42</title>
<g id="a_edge17_Node000044_Node000042"><a xlink:title=" ">
<path fill="none" stroke="#63b8ff" d="M383.47,-19.55C392.31,-22.54 402.07,-25.87 411,-29 432.8,-36.64 457.04,-45.41 476.73,-52.59"/>
<polygon fill="#63b8ff" stroke="#63b8ff" points="475.43,-55.84 486.02,-55.99 477.84,-49.27 475.43,-55.84"/>
</a>
</g>
</g>
<!-- Node45 -->
<g id="Node000045" class="node">
<title>Node45</title>
<g id="a_Node000045"><a xlink:href="class_async_client.html#a485b2be0c01d3172928c0ed9655edc2f" target="_top" xlink:title=" ">
<polygon fill="#fff0f0" stroke="red" points="578.88,-20 454.88,-20 454.88,0 578.88,0 578.88,-20"/>
<text xml:space="preserve" text-anchor="middle" x="516.88" y="-6.5" font-family="Helvetica,sans-Serif" font-size="10.00">AsyncClient::_s_lwip_fin</text>
</a>
</g>
</g>
<!-- Node44&#45;&gt;Node45 -->
<g id="edge16_Node000044_Node000045" class="edge">
<title>Node44&#45;&gt;Node45</title>
<g id="a_edge16_Node000044_Node000045"><a xlink:title=" ">
<path fill="none" stroke="#63b8ff" d="M383.66,-10C400.37,-10 422.24,-10 443.37,-10"/>
<polygon fill="#63b8ff" stroke="#63b8ff" points="443.15,-13.5 453.15,-10 443.15,-6.5 443.15,-13.5"/>
</a>
</g>
</g>
<!-- Node47&#45;&gt;Node42 -->
<g id="edge19_Node000047_Node000042" class="edge">
<title>Node47&#45;&gt;Node42</title>
<g id="a_edge19_Node000047_Node000042"><a xlink:title=" ">
<path fill="none" stroke="#63b8ff" d="M383.66,-51.4C403.1,-53.69 429.52,-56.81 453.64,-59.66"/>
<polygon fill="#63b8ff" stroke="#63b8ff" points="453.04,-63.11 463.38,-60.8 453.86,-56.16 453.04,-63.11"/>
</a>
</g>
</g>
</g>
</svg>
