<?xml version="1.0" encoding="UTF-8" standalone="no"?>
<!DOCTYPE svg PUBLIC "-//W3C//DTD SVG 1.1//EN"
 "http://www.w3.org/Graphics/SVG/1.1/DTD/svg11.dtd">
<!-- Generated by graphviz version 14.1.2 (20260124.0452)
 -->
<!-- Title: AsyncClient::_lwip_fin Pages: 1 -->
<svg width="693pt" height="104pt"
 viewBox="0.00 0.00 693.00 104.00" xmlns="http://www.w3.org/2000/svg" xmlns:xlink="http://www.w3.org/1999/xlink">
<g id="graph0" class="graph" transform="scale(1 1) rotate(0) translate(4 100)">
<title>AsyncClient::_lwip_fin</title>
<!-- Node1 -->
<g id="Node000001" class="node">
<title>Node1</title>
<g id="a_Node000001"><a xlink:title=" ">
<polygon fill="#999999" stroke="#666666" points="685.25,-39 571.75,-39 571.75,-19 685.25,-19 685.25,-39"/>
<text xml:space="preserve" text-anchor="middle" x="628.5" y="-25.5" font-family="Helvetica,sans-Serif" font-size="10.00">AsyncClient::_lwip_fin</text>
</a>
</g>
</g>
<!-- Node2 -->
<g id="Node000002" class="node">
<title>Node2</title>
<g id="a_Node000002"><a xlink:href="class_async_client.html#a485b2be0c01d3172928c0ed9655edc2f" target="_top" xlink:title=" ">
<polygon fill="white" stroke="#666666" points="535.75,-39 411.75,-39 411.75,-19 535.75,-19 535.75,-39"/>
<text xml:space="preserve" text-anchor="middle" x="473.75" y="-25.5" font-family="Helvetica,sans-Serif" font-size="10.00">AsyncClient::_s_lwip_fin</text>
</a>
</g>
</g>
<!-- Node1&#45;&gt;Node2 -->
<g id="edge1_Node000001_Node000002" class="edge">
<title>Node1&#45;&gt;Node2</title>
<g id="a_edge1_Node000001_Node000002"><a xlink:title=" ">
<path fill="none" stroke="#63b8ff" d="M560,-29C552.07,-29 544.01,-29 536.16,-29"/>
<polygon fill="#63b8ff" stroke="#63b8ff" points="559.98,-32.5 569.98,-29 559.98,-25.5 559.98,-32.5"/>
</a>
</g>
</g>
<!-- Node3 -->
<g id="Node000003" class="node">
<title>Node3</title>
<g id="a_Node000003"><a xlink:href="_async_t_c_p_8cpp.html#adf7826424bf5b1035c4850f6b3307686" target="_top" xlink:title=" ">
<polygon fill="white" stroke="#666666" points="375.75,-58 317,-58 317,-38 375.75,-38 375.75,-58"/>
<text xml:space="preserve" text-anchor="middle" x="346.38" y="-44.5" font-family="Helvetica,sans-Serif" font-size="10.00">_tcp_recv</text>
</a>
</g>
</g>
<!-- Node2&#45;&gt;Node3 -->
<g id="edge2_Node000002_Node000003" class="edge">
<title>Node2&#45;&gt;Node3</title>
<g id="a_edge2_Node000002_Node000003"><a xlink:title=" ">
<path fill="none" stroke="#63b8ff" d="M400.2,-39.99C391.65,-41.29 383.35,-42.55 375.96,-43.67"/>
<polygon fill="#63b8ff" stroke="#63b8ff" points="400.67,-43.46 410.04,-38.5 399.62,-36.54 400.67,-43.46"/>
</a>
</g>
</g>
<!-- Node4 -->
<g id="Node000004" class="node">
<title>Node4</title>
<g id="a_Node000004"><a xlink:href="class_async_client.html#a758eaca983e03027c99003a5808883f8" target="_top" xlink:title=" ">
<polygon fill="#fff0f0" stroke="red" points="274.25,-96 159.25,-96 159.25,-76 274.25,-76 274.25,-96"/>
<text xml:space="preserve" text-anchor="middle" x="216.75" y="-82.5" font-family="Helvetica,sans-Serif" font-size="10.00">AsyncClient::_connect</text>
</a>
</g>
</g>
<!-- Node3&#45;&gt;Node4 -->
<g id="edge3_Node000003_Node000004" class="edge">
<title>Node3&#45;&gt;Node4</title>
<g id="a_edge3_Node000003_Node000004"><a xlink:title=" ">
<path fill="none" stroke="#63b8ff" d="M305.99,-59.73C288.95,-64.8 269.17,-70.69 252.66,-75.6"/>
<polygon fill="#63b8ff" stroke="#63b8ff" points="306.7,-63.17 315.28,-56.96 304.7,-56.46 306.7,-63.17"/>
</a>
</g>
</g>
<!-- Node13 -->
<g id="Node000013" class="node">
<title>Node13</title>
<g id="a_Node000013"><a xlink:href="class_async_client.html#aefecfa0c75c8c1b32104115e93739087" target="_top" xlink:title=" ">
<polygon fill="#fff0f0" stroke="red" points="281,-20 152.5,-20 152.5,0 281,0 281,-20"/>
<text xml:space="preserve" text-anchor="middle" x="216.75" y="-6.5" font-family="Helvetica,sans-Serif" font-size="10.00">AsyncClient::AsyncClient</text>
</a>
</g>
</g>
<!-- Node3&#45;&gt;Node13 -->
<g id="edge4_Node000003_Node000013" class="edge">
<title>Node3&#45;&gt;Node13</title>
<g id="a_edge4_Node000003_Node000013"><a xlink:title=" ">
<path fill="none" stroke="#63b8ff" d="M305.99,-36.27C288.95,-31.2 269.17,-25.31 252.66,-20.4"/>
<polygon fill="#63b8ff" stroke="#63b8ff" points="304.7,-39.54 315.28,-39.04 306.7,-32.83 304.7,-39.54"/>
</a>
</g>
</g>
<!-- Node22 -->
<g id="Node000022" class="node">
<title>Node22</title>
<g id="a_Node000022"><a xlink:href="class_async_client.html#a575c12664279634155259e007c6a104f" target="_top" xlink:title=" ">
<polygon fill="white" stroke="#666666" points="116.5,-39 0,-39 0,-19 116.5,-19 116.5,-39"/>
<text xml:space="preserve" text-anchor="middle" x="58.25" y="-25.5" font-family="Helvetica,sans-Serif" font-size="10.00">AsyncClient::operator=</text>
</a>
</g>
</g>
<!-- Node3&#45;&gt;Node22 -->
<g id="edge7_Node000003_Node000022" class="edge">
<title>Node3&#45;&gt;Node22</title>
<g id="a_edge7_Node000003_Node000022"><a xlink:title=" ">
<path fill="none" stroke="#63b8ff" d="M305.22,-45.33C256.13,-42.07 172.7,-36.53 116.79,-32.82"/>
<polygon fill="#63b8ff" stroke="#63b8ff" points="304.91,-48.82 315.12,-45.99 305.37,-41.84 304.91,-48.82"/>
</a>
</g>
</g>
<!-- Node13&#45;&gt;Node2 -->
<g id="edge5_Node000013_Node000002" class="edge">
<title>Node13&#45;&gt;Node2</title>
<g id="a_edge5_Node000013_Node000002"><a xlink:title=" ">
<path fill="none" stroke="#63b8ff" d="M292.74,-15.59C330.49,-18.4 375.69,-21.77 411.35,-24.42"/>
<polygon fill="#63b8ff" stroke="#63b8ff" points="293.03,-12.1 282.79,-14.85 292.51,-19.08 293.03,-12.1"/>
</a>
</g>
</g>
<!-- Node13&#45;&gt;Node22 -->
<g id="edge6_Node000013_Node000022" class="edge">
<title>Node13&#45;&gt;Node22</title>
<g id="a_edge6_Node000013_Node000022"><a xlink:title=" ">
<path fill="none" stroke="#63b8ff" d="M140.77,-19.1C132.71,-20.08 124.61,-21.06 116.8,-22.01"/>
<polygon fill="#63b8ff" stroke="#63b8ff" points="141.09,-22.59 150.59,-17.91 140.24,-15.64 141.09,-22.59"/>
</a>
</g>
</g>
</g>
</svg>
