<?xml version="1.0" encoding="UTF-8" standalone="no"?>
<!DOCTYPE svg PUBLIC "-//W3C//DTD SVG 1.1//EN"
 "http://www.w3.org/Graphics/SVG/1.1/DTD/svg11.dtd">
<!-- Generated by graphviz version 14.1.2 (20260124.0452)
 -->
<!-- Title: AsyncClient::_s_lwip_fin Pages: 1 -->
<svg width="586pt" height="290pt"
 viewBox="0.00 0.00 586.00 290.00" xmlns="http://www.w3.org/2000/svg" xmlns:xlink="http://www.w3.org/1999/xlink">
<g id="graph0" class="graph" transform="scale(1 1) rotate(0) translate(4 286)">
<title>AsyncClient::_s_lwip_fin</title>
<!-- Node1 -->
<g id="Node000001" class="node">
<title>Node1</title>
<g id="a_Node000001"><a xlink:title=" ">
<polygon fill="#999999" stroke="#666666" points="124,-178 0,-178 0,-158 124,-158 124,-178"/>
<text xml:space="preserve" text-anchor="middle" x="62" y="-164.5" font-family="Helvetica,sans-Serif" font-size="10.00">AsyncClient::_s_lwip_fin</text>
</a>
</g>
</g>
<!-- Node2 -->
<g id="Node000002" class="node">
<title>Node2</title>
<g id="a_Node000002"><a xlink:href="class_async_client.html#a32dfd5b9ec97903e2f59871f17b85ff4" target="_top" xlink:title=" ">
<polygon fill="white" stroke="#666666" points="281,-260 167.5,-260 167.5,-240 281,-240 281,-260"/>
<text xml:space="preserve" text-anchor="middle" x="224.25" y="-246.5" font-family="Helvetica,sans-Serif" font-size="10.00">AsyncClient::_lwip_fin</text>
</a>
</g>
</g>
<!-- Node1&#45;&gt;Node2 -->
<g id="edge1_Node000001_Node000002" class="edge">
<title>Node1&#45;&gt;Node2</title>
<g id="a_edge1_Node000001_Node000002"><a xlink:title=" ">
<path fill="none" stroke="#63b8ff" d="M83.3,-178.39C110.91,-192.52 160.57,-217.92 192.7,-234.37"/>
<polygon fill="#63b8ff" stroke="#63b8ff" points="191.02,-237.44 201.52,-238.88 194.21,-231.21 191.02,-237.44"/>
</a>
</g>
</g>
<!-- Node4 -->
<g id="Node000004" class="node">
<title>Node4</title>
<g id="a_Node000004"><a xlink:href="class_async_client.html#ac0c28dd08517243bc6d64d32f982a3cc" target="_top" xlink:title=" ">
<polygon fill="white" stroke="#666666" points="427.12,-260 336.12,-260 336.12,-240 427.12,-240 427.12,-260"/>
<text xml:space="preserve" text-anchor="middle" x="381.62" y="-246.5" font-family="Helvetica,sans-Serif" font-size="10.00">AsyncClient::pcb</text>
</a>
</g>
</g>
<!-- Node1&#45;&gt;Node4 -->
<g id="edge21_Node000001_Node000004" class="edge">
<title>Node1&#45;&gt;Node4</title>
<g id="a_edge21_Node000001_Node000004"><a xlink:title=" ">
<path fill="none" stroke="#63b8ff" d="M103.55,-178.47C161.14,-193.34 266.58,-220.56 329.47,-236.79"/>
<polygon fill="#63b8ff" stroke="#63b8ff" points="328.29,-240.1 338.85,-239.22 330.04,-233.33 328.29,-240.1"/>
</a>
</g>
</g>
<!-- Node5 -->
<g id="Node000005" class="node">
<title>Node5</title>
<g id="a_Node000005"><a xlink:href="class_async_client.html#aefecfa0c75c8c1b32104115e93739087" target="_top" xlink:title=" ">
<polygon fill="white" stroke="#666666" points="288.5,-153 160,-153 160,-133 288.5,-133 288.5,-153"/>
<text xml:space="preserve" text-anchor="middle" x="224.25" y="-139.5" font-family="Helvetica,sans-Serif" font-size="10.00">AsyncClient::AsyncClient</text>
</a>
</g>
</g>
<!-- Node1&#45;&gt;Node5 -->
<g id="edge4_Node000001_Node000005" class="edge">
<title>Node1&#45;&gt;Node5</title>
<g id="a_edge4_Node000001_Node000005"><a xlink:title=" ">
<path fill="none" stroke="#63b8ff" d="M124.5,-158.41C132.3,-157.19 140.35,-155.93 148.32,-154.69"/>
<polygon fill="#63b8ff" stroke="#63b8ff" points="148.69,-158.17 158.03,-153.17 147.61,-151.26 148.69,-158.17"/>
</a>
</g>
</g>
<!-- Node3 -->
<g id="Node000003" class="node">
<title>Node3</title>
<g id="a_Node000003"><a xlink:href="class_async_client.html#aff6a2fbf261b25e1fcd35c11cce348a5" target="_top" xlink:title=" ">
<polygon fill="white" stroke="#666666" points="574.75,-282 477.75,-282 477.75,-250 574.75,-250 574.75,-282"/>
<text xml:space="preserve" text-anchor="start" x="485.75" y="-268.5" font-family="Helvetica,sans-Serif" font-size="10.00">AsyncClient::_free</text>
<text xml:space="preserve" text-anchor="middle" x="526.25" y="-256.5" font-family="Helvetica,sans-Serif" font-size="10.00">_closed_slot</text>
</a>
</g>
</g>
<!-- Node2&#45;&gt;Node3 -->
<g id="edge2_Node000002_Node000003" class="edge">
<title>Node2&#45;&gt;Node3</title>
<g id="a_edge2_Node000002_Node000003"><a xlink:title=" ">
<path fill="none" stroke="#63b8ff" d="M269.95,-260.42C286.93,-263.88 306.51,-267.29 324.5,-269 375.05,-273.8 387.98,-269.88 438.75,-269 447.62,-268.85 457.01,-268.6 466.19,-268.32"/>
<polygon fill="#63b8ff" stroke="#63b8ff" points="466.28,-271.82 476.16,-268 466.05,-264.82 466.28,-271.82"/>
</a>
</g>
</g>
<!-- Node2&#45;&gt;Node4 -->
<g id="edge3_Node000002_Node000004" class="edge">
<title>Node2&#45;&gt;Node4</title>
<g id="a_edge3_Node000002_Node000004"><a xlink:title=" ">
<path fill="none" stroke="#63b8ff" d="M281.34,-250C295.33,-250 310.34,-250 324.34,-250"/>
<polygon fill="#63b8ff" stroke="#63b8ff" points="324.3,-253.5 334.3,-250 324.3,-246.5 324.3,-253.5"/>
</a>
</g>
</g>
<!-- Node5&#45;&gt;Node4 -->
<g id="edge20_Node000005_Node000004" class="edge">
<title>Node5&#45;&gt;Node4</title>
<g id="a_edge20_Node000005_Node000004"><a xlink:title=" ">
<path fill="none" stroke="#63b8ff" d="M245.65,-153.39C258.73,-160.63 275.61,-171.1 288.5,-183 308.09,-201.09 302.9,-215.36 324.5,-231 326.25,-232.27 328.09,-233.45 329.99,-234.57"/>
<polygon fill="#63b8ff" stroke="#63b8ff" points="328.06,-237.51 338.57,-238.84 331.18,-231.25 328.06,-237.51"/>
</a>
</g>
</g>
<!-- Node6 -->
<g id="Node000006" class="node">
<title>Node6</title>
<g id="a_Node000006"><a xlink:href="class_async_client.html#ab0422e5254ea4fbac9f87188a018ebc4" target="_top" xlink:title=" ">
<polygon fill="white" stroke="#666666" points="438.75,-222 324.5,-222 324.5,-190 438.75,-190 438.75,-222"/>
<text xml:space="preserve" text-anchor="start" x="332.5" y="-208.5" font-family="Helvetica,sans-Serif" font-size="10.00">AsyncClient::_allocate</text>
<text xml:space="preserve" text-anchor="middle" x="381.62" y="-196.5" font-family="Helvetica,sans-Serif" font-size="10.00">_closed_slot</text>
</a>
</g>
</g>
<!-- Node5&#45;&gt;Node6 -->
<g id="edge5_Node000005_Node000006" class="edge">
<title>Node5&#45;&gt;Node6</title>
<g id="a_edge5_Node000005_Node000006"><a xlink:title=" ">
<path fill="none" stroke="#63b8ff" d="M250.91,-153.4C272.19,-162.03 303.13,-174.58 329.45,-185.25"/>
<polygon fill="#63b8ff" stroke="#63b8ff" points="328.04,-188.46 338.62,-188.97 330.67,-181.97 328.04,-188.46"/>
</a>
</g>
</g>
<!-- Node7 -->
<g id="Node000007" class="node">
<title>Node7</title>
<g id="a_Node000007"><a xlink:href="class_async_client.html#a98ff872bc84919f006f3bb8a249ed36d" target="_top" xlink:title=" ">
<polygon fill="white" stroke="#666666" points="433.5,-172 329.75,-172 329.75,-152 433.5,-152 433.5,-172"/>
<text xml:space="preserve" text-anchor="middle" x="381.62" y="-158.5" font-family="Helvetica,sans-Serif" font-size="10.00">AsyncClient::_close</text>
</a>
</g>
</g>
<!-- Node5&#45;&gt;Node7 -->
<g id="edge6_Node000005_Node000007" class="edge">
<title>Node5&#45;&gt;Node7</title>
<g id="a_edge6_Node000005_Node000007"><a xlink:title=" ">
<path fill="none" stroke="#63b8ff" d="M288.9,-150.78C298.65,-151.98 308.72,-153.21 318.44,-154.4"/>
<polygon fill="#63b8ff" stroke="#63b8ff" points="317.81,-157.85 328.16,-155.58 318.66,-150.9 317.81,-157.85"/>
</a>
</g>
</g>
<!-- Node15 -->
<g id="Node000015" class="node">
<title>Node15</title>
<g id="a_Node000015"><a xlink:href="_async_t_c_p_8cpp.html#a61ff9f7f886bbbbcdc1daca453828934" target="_top" xlink:title=" ">
<polygon fill="white" stroke="#666666" points="411.38,-134 351.88,-134 351.88,-114 411.38,-114 411.38,-134"/>
<text xml:space="preserve" text-anchor="middle" x="381.62" y="-120.5" font-family="Helvetica,sans-Serif" font-size="10.00">_tcp_error</text>
</a>
</g>
</g>
<!-- Node5&#45;&gt;Node15 -->
<g id="edge11_Node000005_Node000015" class="edge">
<title>Node5&#45;&gt;Node15</title>
<g id="a_edge11_Node000005_Node000015"><a xlink:title=" ">
<path fill="none" stroke="#63b8ff" d="M288.9,-135.22C306.26,-133.09 324.59,-130.85 340.26,-128.94"/>
<polygon fill="#63b8ff" stroke="#63b8ff" points="340.67,-132.41 350.17,-127.72 339.82,-125.46 340.67,-132.41"/>
</a>
</g>
</g>
<!-- Node17 -->
<g id="Node000017" class="node">
<title>Node17</title>
<g id="a_Node000017"><a xlink:href="_async_t_c_p_8cpp.html#ad4b2c6c935c211eef5884f25a950e445" target="_top" xlink:title=" ">
<polygon fill="white" stroke="#666666" points="409.12,-96 354.12,-96 354.12,-76 409.12,-76 409.12,-96"/>
<text xml:space="preserve" text-anchor="middle" x="381.62" y="-82.5" font-family="Helvetica,sans-Serif" font-size="10.00">_tcp_poll</text>
</a>
</g>
</g>
<!-- Node5&#45;&gt;Node17 -->
<g id="edge13_Node000005_Node000017" class="edge">
<title>Node5&#45;&gt;Node17</title>
<g id="a_edge13_Node000005_Node000017"><a xlink:title=" ">
<path fill="none" stroke="#63b8ff" d="M251.68,-132.56C271.62,-124.76 299.68,-113.95 324.5,-105 330.43,-102.86 336.73,-100.66 342.89,-98.55"/>
<polygon fill="#63b8ff" stroke="#63b8ff" points="343.94,-101.89 352.28,-95.36 341.69,-95.26 343.94,-101.89"/>
</a>
</g>
</g>
<!-- Node18 -->
<g id="Node000018" class="node">
<title>Node18</title>
<g id="a_Node000018"><a xlink:href="_async_t_c_p_8cpp.html#adf7826424bf5b1035c4850f6b3307686" target="_top" xlink:title=" ">
<polygon fill="white" stroke="#666666" points="411,-20 352.25,-20 352.25,0 411,0 411,-20"/>
<text xml:space="preserve" text-anchor="middle" x="381.62" y="-6.5" font-family="Helvetica,sans-Serif" font-size="10.00">_tcp_recv</text>
</a>
</g>
</g>
<!-- Node5&#45;&gt;Node18 -->
<g id="edge15_Node000005_Node000018" class="edge">
<title>Node5&#45;&gt;Node18</title>
<g id="a_edge15_Node000005_Node000018"><a xlink:title=" ">
<path fill="none" stroke="#63b8ff" d="M233.12,-132.64C252.44,-107.44 302.27,-43.9 324.5,-29 329.63,-25.56 335.43,-22.69 341.32,-20.32"/>
<polygon fill="#63b8ff" stroke="#63b8ff" points="342.21,-23.72 350.45,-17.05 339.85,-17.12 342.21,-23.72"/>
</a>
</g>
</g>
<!-- Node19 -->
<g id="Node000019" class="node">
<title>Node19</title>
<g id="a_Node000019"><a xlink:href="_async_t_c_p_8cpp.html#a0b47280aff638ec9b80f7a87dfe54ea6" target="_top" xlink:title=" ">
<polygon fill="white" stroke="#666666" points="411,-58 352.25,-58 352.25,-38 411,-38 411,-58"/>
<text xml:space="preserve" text-anchor="middle" x="381.62" y="-44.5" font-family="Helvetica,sans-Serif" font-size="10.00">_tcp_sent</text>
</a>
</g>
</g>
<!-- Node5&#45;&gt;Node19 -->
<g id="edge18_Node000005_Node000019" class="edge">
<title>Node5&#45;&gt;Node19</title>
<g id="a_edge18_Node000005_Node000019"><a xlink:title=" ">
<path fill="none" stroke="#63b8ff" d="M236.31,-132.54C253.8,-116.5 289.46,-85.69 324.5,-67 329.7,-64.23 335.38,-61.74 341.07,-59.56"/>
<polygon fill="#63b8ff" stroke="#63b8ff" points="342.21,-62.87 350.47,-56.23 339.87,-56.27 342.21,-62.87"/>
</a>
</g>
</g>
<!-- Node7&#45;&gt;Node3 -->
<g id="edge7_Node000007_Node000003" class="edge">
<title>Node7&#45;&gt;Node3</title>
<g id="a_edge7_Node000007_Node000003"><a xlink:title=" ">
<path fill="none" stroke="#63b8ff" d="M421.51,-172.39C427.51,-174.77 433.46,-177.62 438.75,-181 458.34,-193.54 458.23,-202.62 474.75,-219 482.41,-226.6 490.94,-234.67 498.77,-241.94"/>
<polygon fill="#63b8ff" stroke="#63b8ff" points="496.39,-244.51 506.12,-248.71 501.14,-239.36 496.39,-244.51"/>
</a>
</g>
</g>
<!-- Node8 -->
<g id="Node000008" class="node">
<title>Node8</title>
<g id="a_Node000008"><a xlink:href="_async_t_c_p_8cpp.html#ab053d5adb5be879f37181af512213bb6" target="_top" xlink:title=" ">
<polygon fill="#fff0f0" stroke="red" points="574,-210 478.5,-210 478.5,-190 574,-190 574,-210"/>
<text xml:space="preserve" text-anchor="middle" x="526.25" y="-196.5" font-family="Helvetica,sans-Serif" font-size="10.00">_tcp_clear_events</text>
</a>
</g>
</g>
<!-- Node7&#45;&gt;Node8 -->
<g id="edge8_Node000007_Node000008" class="edge">
<title>Node7&#45;&gt;Node8</title>
<g id="a_edge8_Node000007_Node000008"><a xlink:title=" ">
<path fill="none" stroke="#63b8ff" d="M421.98,-172.48C438.34,-176.85 457.54,-181.96 474.92,-186.59"/>
<polygon fill="#63b8ff" stroke="#63b8ff" points="474,-189.97 484.57,-189.16 475.8,-183.2 474,-189.97"/>
</a>
</g>
</g>
<!-- Node10 -->
<g id="Node000010" class="node">
<title>Node10</title>
<g id="a_Node000010"><a xlink:href="_async_t_c_p_8cpp.html#a3602c1ebfae2fb2ff64a0e3d7b0568ce" target="_top" xlink:title=" ">
<polygon fill="#fff0f0" stroke="red" points="557.88,-172 494.62,-172 494.62,-152 557.88,-152 557.88,-172"/>
<text xml:space="preserve" text-anchor="middle" x="526.25" y="-158.5" font-family="Helvetica,sans-Serif" font-size="10.00">_tcp_close</text>
</a>
</g>
</g>
<!-- Node7&#45;&gt;Node10 -->
<g id="edge9_Node000007_Node000010" class="edge">
<title>Node7&#45;&gt;Node10</title>
<g id="a_edge9_Node000007_Node000010"><a xlink:title=" ">
<path fill="none" stroke="#63b8ff" d="M433.71,-162C449.89,-162 467.58,-162 483.07,-162"/>
<polygon fill="#63b8ff" stroke="#63b8ff" points="482.9,-165.5 492.9,-162 482.9,-158.5 482.9,-165.5"/>
</a>
</g>
</g>
<!-- Node12 -->
<g id="Node000012" class="node">
<title>Node12</title>
<g id="a_Node000012"><a xlink:href="class_async_client.html#a09e777ff005d8e0f81166e704dc14979" target="_top" xlink:title=" ">
<polygon fill="#fff0f0" stroke="red" points="574.75,-134 477.75,-134 477.75,-114 574.75,-114 574.75,-134"/>
<text xml:space="preserve" text-anchor="middle" x="526.25" y="-120.5" font-family="Helvetica,sans-Serif" font-size="10.00">AsyncClient::abort</text>
</a>
</g>
</g>
<!-- Node7&#45;&gt;Node12 -->
<g id="edge10_Node000007_Node000012" class="edge">
<title>Node7&#45;&gt;Node12</title>
<g id="a_edge10_Node000007_Node000012"><a xlink:title=" ">
<path fill="none" stroke="#63b8ff" d="M421.98,-151.52C438.34,-147.15 457.54,-142.04 474.92,-137.41"/>
<polygon fill="#63b8ff" stroke="#63b8ff" points="475.8,-140.8 484.57,-134.84 474,-134.03 475.8,-140.8"/>
</a>
</g>
</g>
<!-- Node16 -->
<g id="Node000016" class="node">
<title>Node16</title>
<g id="a_Node000016"><a xlink:href="_async_t_c_p_8cpp.html#a796c13746a84a6b2e7370ddbec97ad5b" target="_top" xlink:title=" ">
<polygon fill="white" stroke="#666666" points="577.75,-77 474.75,-77 474.75,-57 577.75,-57 577.75,-77"/>
<text xml:space="preserve" text-anchor="middle" x="526.25" y="-63.5" font-family="Helvetica,sans-Serif" font-size="10.00">_send_async_event</text>
</a>
</g>
</g>
<!-- Node15&#45;&gt;Node16 -->
<g id="edge12_Node000015_Node000016" class="edge">
<title>Node15&#45;&gt;Node16</title>
<g id="a_edge12_Node000015_Node000016"><a xlink:title=" ">
<path fill="none" stroke="#63b8ff" d="M411.64,-114.72C420.41,-111.77 430.02,-108.39 438.75,-105 456.77,-98.01 476.52,-89.4 492.6,-82.15"/>
<polygon fill="#63b8ff" stroke="#63b8ff" points="494.04,-85.34 501.69,-78.01 491.14,-78.97 494.04,-85.34"/>
</a>
</g>
</g>
<!-- Node17&#45;&gt;Node16 -->
<g id="edge14_Node000017_Node000016" class="edge">
<title>Node17&#45;&gt;Node16</title>
<g id="a_edge14_Node000017_Node000016"><a xlink:title=" ">
<path fill="none" stroke="#63b8ff" d="M409.45,-82.43C424.63,-80.4 444.27,-77.79 463.06,-75.28"/>
<polygon fill="#63b8ff" stroke="#63b8ff" points="463.34,-78.78 472.79,-73.99 462.42,-71.84 463.34,-78.78"/>
</a>
</g>
</g>
<!-- Node18&#45;&gt;Node1 -->
<g id="edge16_Node000018_Node000001" class="edge">
<title>Node18&#45;&gt;Node1</title>
<g id="a_edge16_Node000018_Node000001"><a xlink:title=" ">
<path fill="none" stroke="#63b8ff" d="M352.02,-18.69C343.09,-21.66 333.28,-25.21 324.5,-29 235.85,-67.27 136.54,-124.19 89.92,-151.81"/>
<polygon fill="#63b8ff" stroke="#63b8ff" points="88.37,-148.65 81.57,-156.77 91.95,-154.67 88.37,-148.65"/>
</a>
</g>
</g>
<!-- Node18&#45;&gt;Node16 -->
<g id="edge17_Node000018_Node000016" class="edge">
<title>Node18&#45;&gt;Node16</title>
<g id="a_edge17_Node000018_Node000016"><a xlink:title=" ">
<path fill="none" stroke="#63b8ff" d="M411.35,-19.19C420.2,-22.16 429.93,-25.58 438.75,-29 456.77,-35.99 476.52,-44.6 492.6,-51.85"/>
<polygon fill="#63b8ff" stroke="#63b8ff" points="491.14,-55.03 501.69,-55.99 494.04,-48.66 491.14,-55.03"/>
</a>
</g>
</g>
<!-- Node19&#45;&gt;Node16 -->
<g id="edge19_Node000019_Node000016" class="edge">
<title>Node19&#45;&gt;Node16</title>
<g id="a_edge19_Node000019_Node000016"><a xlink:title=" ">
<path fill="none" stroke="#63b8ff" d="M411.49,-51.84C426.38,-53.83 445.16,-56.33 463.14,-58.73"/>
<polygon fill="#63b8ff" stroke="#63b8ff" points="462.62,-62.19 472.99,-60.04 463.54,-55.25 462.62,-62.19"/>
</a>
</g>
</g>
</g>
</svg>
