<?xml version="1.0" encoding="UTF-8" standalone="no"?>
<!DOCTYPE svg PUBLIC "-//W3C//DTD SVG 1.1//EN"
 "http://www.w3.org/Graphics/SVG/1.1/DTD/svg11.dtd">
<!-- Generated by graphviz version 14.1.2 (20260124.0452)
 -->
<!-- Title: AsyncClient::abort Pages: 1 -->
<svg width="564pt" height="198pt"
 viewBox="0.00 0.00 564.00 198.00" xmlns="http://www.w3.org/2000/svg" xmlns:xlink="http://www.w3.org/1999/xlink">
<g id="graph0" class="graph" transform="scale(1 1) rotate(0) translate(4 194)">
<title>AsyncClient::abort</title>
<!-- Node1 -->
<g id="Node000001" class="node">
<title>Node1</title>
<g id="a_Node000001"><a xlink:title=" ">
<polygon fill="#999999" stroke="#666666" points="556,-96 459,-96 459,-76 556,-76 556,-96"/>
<text xml:space="preserve" text-anchor="middle" x="507.5" y="-82.5" font-family="Helvetica,sans-Serif" font-size="10.00">AsyncClient::abort</text>
</a>
</g>
</g>
<!-- Node2 -->
<g id="Node000002" class="node">
<title>Node2</title>
<g id="a_Node000002"><a xlink:href="class_async_client.html#a98ff872bc84919f006f3bb8a249ed36d" target="_top" xlink:title=" ">
<polygon fill="white" stroke="#666666" points="423,-96 319.25,-96 319.25,-76 423,-76 423,-96"/>
<text xml:space="preserve" text-anchor="middle" x="371.12" y="-82.5" font-family="Helvetica,sans-Serif" font-size="10.00">AsyncClient::_close</text>
</a>
</g>
</g>
<!-- Node1&#45;&gt;Node2 -->
<g id="edge1_Node000001_Node000002" class="edge">
<title>Node1&#45;&gt;Node2</title>
<g id="a_edge1_Node000001_Node000002"><a xlink:title=" ">
<path fill="none" stroke="#63b8ff" d="M447.25,-86C439.29,-86 431.18,-86 423.37,-86"/>
<polygon fill="#63b8ff" stroke="#63b8ff" points="447.23,-89.5 457.23,-86 447.23,-82.5 447.23,-89.5"/>
</a>
</g>
</g>
<!-- Node3 -->
<g id="Node000003" class="node">
<title>Node3</title>
<g id="a_Node000003"><a xlink:href="class_async_client.html#a383d1cb7d684d328362caa5eafc92ca2" target="_top" xlink:title=" ">
<polygon fill="white" stroke="#666666" points="263.75,-190 168.25,-190 168.25,-170 263.75,-170 263.75,-190"/>
<text xml:space="preserve" text-anchor="middle" x="216" y="-176.5" font-family="Helvetica,sans-Serif" font-size="10.00">AsyncClient::_poll</text>
</a>
</g>
</g>
<!-- Node2&#45;&gt;Node3 -->
<g id="edge2_Node000002_Node000003" class="edge">
<title>Node2&#45;&gt;Node3</title>
<g id="a_edge2_Node000002_Node000003"><a xlink:title=" ">
<path fill="none" stroke="#63b8ff" d="M353.44,-104.4C337.1,-121.38 310.71,-146.15 283.25,-161 277.04,-164.36 270.17,-167.18 263.28,-169.53"/>
<polygon fill="#63b8ff" stroke="#63b8ff" points="355.7,-107.11 359.99,-97.43 350.6,-102.32 355.7,-107.11"/>
</a>
</g>
</g>
<!-- Node14 -->
<g id="Node000014" class="node">
<title>Node14</title>
<g id="a_Node000014"><a xlink:href="class_async_client.html#aefecfa0c75c8c1b32104115e93739087" target="_top" xlink:title=" ">
<polygon fill="white" stroke="#666666" points="280.25,-134 151.75,-134 151.75,-114 280.25,-114 280.25,-134"/>
<text xml:space="preserve" text-anchor="middle" x="216" y="-120.5" font-family="Helvetica,sans-Serif" font-size="10.00">AsyncClient::AsyncClient</text>
</a>
</g>
</g>
<!-- Node2&#45;&gt;Node14 -->
<g id="edge4_Node000002_Node000014" class="edge">
<title>Node2&#45;&gt;Node14</title>
<g id="a_edge4_Node000002_Node000014"><a xlink:title=" ">
<path fill="none" stroke="#63b8ff" d="M316.74,-99.25C297.87,-103.93 276.92,-109.13 259.11,-113.55"/>
<polygon fill="#63b8ff" stroke="#63b8ff" points="317.55,-102.65 326.41,-96.85 315.86,-95.86 317.55,-102.65"/>
</a>
</g>
</g>
<!-- Node17 -->
<g id="Node000017" class="node">
<title>Node17</title>
<g id="a_Node000017"><a xlink:href="class_async_client.html#a0305fe0b036257c03829ceaa5cc43361" target="_top" xlink:title="close connection">
<polygon fill="white" stroke="#666666" points="265.25,-96 166.75,-96 166.75,-76 265.25,-76 265.25,-96"/>
<text xml:space="preserve" text-anchor="middle" x="216" y="-82.5" font-family="Helvetica,sans-Serif" font-size="10.00">AsyncClient::close</text>
</a>
</g>
</g>
<!-- Node2&#45;&gt;Node17 -->
<g id="edge7_Node000002_Node000017" class="edge">
<title>Node2&#45;&gt;Node17</title>
<g id="a_edge7_Node000002_Node000017"><a xlink:title=" ">
<path fill="none" stroke="#63b8ff" d="M308.01,-86C293.92,-86 279.14,-86 265.69,-86"/>
<polygon fill="#63b8ff" stroke="#63b8ff" points="307.62,-89.5 317.62,-86 307.62,-82.5 307.62,-89.5"/>
</a>
</g>
</g>
<!-- Node20 -->
<g id="Node000020" class="node">
<title>Node20</title>
<g id="a_Node000020"><a xlink:href="class_async_client.html#a575c12664279634155259e007c6a104f" target="_top" xlink:title=" ">
<polygon fill="white" stroke="#666666" points="274.25,-58 157.75,-58 157.75,-38 274.25,-38 274.25,-58"/>
<text xml:space="preserve" text-anchor="middle" x="216" y="-44.5" font-family="Helvetica,sans-Serif" font-size="10.00">AsyncClient::operator=</text>
</a>
</g>
</g>
<!-- Node2&#45;&gt;Node20 -->
<g id="edge9_Node000002_Node000020" class="edge">
<title>Node2&#45;&gt;Node20</title>
<g id="a_edge9_Node000002_Node000020"><a xlink:title=" ">
<path fill="none" stroke="#63b8ff" d="M316.74,-72.75C297.87,-68.07 276.92,-62.87 259.11,-58.45"/>
<polygon fill="#63b8ff" stroke="#63b8ff" points="315.86,-76.14 326.41,-75.15 317.55,-69.35 315.86,-76.14"/>
</a>
</g>
</g>
<!-- Node21 -->
<g id="Node000021" class="node">
<title>Node21</title>
<g id="a_Node000021"><a xlink:href="class_async_client.html#a4044bdcfd2ca6197f75200644685c5f0" target="_top" xlink:title=" ">
<polygon fill="white" stroke="#666666" points="283.25,-20 148.75,-20 148.75,0 283.25,0 283.25,-20"/>
<text xml:space="preserve" text-anchor="middle" x="216" y="-6.5" font-family="Helvetica,sans-Serif" font-size="10.00">AsyncClient::~AsyncClient</text>
</a>
</g>
</g>
<!-- Node2&#45;&gt;Node21 -->
<g id="edge10_Node000002_Node000021" class="edge">
<title>Node2&#45;&gt;Node21</title>
<g id="a_edge10_Node000002_Node000021"><a xlink:title=" ">
<path fill="none" stroke="#63b8ff" d="M347.97,-68.76C331.04,-56.27 306.69,-39.75 283.25,-29 276.07,-25.71 268.19,-22.85 260.45,-20.42"/>
<polygon fill="#63b8ff" stroke="#63b8ff" points="345.72,-71.44 355.82,-74.66 349.93,-65.85 345.72,-71.44"/>
</a>
</g>
</g>
<!-- Node4 -->
<g id="Node000004" class="node">
<title>Node4</title>
<g id="a_Node000004"><a xlink:href="class_async_client.html#abe187c005c73fe6c0c94e1b3b20b55de" target="_top" xlink:title=" ">
<polygon fill="#fff0f0" stroke="red" points="109.38,-190 3.38,-190 3.38,-170 109.38,-170 109.38,-190"/>
<text xml:space="preserve" text-anchor="middle" x="56.38" y="-176.5" font-family="Helvetica,sans-Serif" font-size="10.00">AsyncClient::_s_poll</text>
</a>
</g>
</g>
<!-- Node3&#45;&gt;Node4 -->
<g id="edge3_Node000003_Node000004" class="edge">
<title>Node3&#45;&gt;Node4</title>
<g id="a_edge3_Node000003_Node000004"><a xlink:title=" ">
<path fill="none" stroke="#63b8ff" d="M156.66,-180C141.32,-180 124.87,-180 109.86,-180"/>
<polygon fill="#63b8ff" stroke="#63b8ff" points="156.62,-183.5 166.62,-180 156.62,-176.5 156.62,-183.5"/>
</a>
</g>
</g>
<!-- Node14&#45;&gt;Node14 -->
<g id="edge6_Node000014_Node000014" class="edge">
<title>Node14&#45;&gt;Node14</title>
<g id="a_edge6_Node000014_Node000014"><a xlink:title=" ">
<path fill="none" stroke="#63b8ff" d="M243.42,-145.44C239.89,-149.3 230.75,-152 216,-152 189.03,-152 180.82,-142.98 191.35,-134.34"/>
<polygon fill="#63b8ff" stroke="#63b8ff" points="246.83,-144.66 241.01,-135.81 240.04,-146.36 246.83,-144.66"/>
</a>
</g>
</g>
<!-- Node15 -->
<g id="Node000015" class="node">
<title>Node15</title>
<g id="a_Node000015"><a xlink:href="class_async_server.html#a51e55999b79eec50bd68e899b8ddd4e4" target="_top" xlink:title=" ">
<polygon fill="#fff0f0" stroke="red" points="112.75,-134 0,-134 0,-114 112.75,-114 112.75,-134"/>
<text xml:space="preserve" text-anchor="middle" x="56.38" y="-120.5" font-family="Helvetica,sans-Serif" font-size="10.00">AsyncServer::_accept</text>
</a>
</g>
</g>
<!-- Node14&#45;&gt;Node15 -->
<g id="edge5_Node000014_Node000015" class="edge">
<title>Node14&#45;&gt;Node15</title>
<g id="a_edge5_Node000014_Node000015"><a xlink:title=" ">
<path fill="none" stroke="#63b8ff" d="M139.97,-124C130.94,-124 121.84,-124 113.15,-124"/>
<polygon fill="#63b8ff" stroke="#63b8ff" points="139.83,-127.5 149.83,-124 139.83,-120.5 139.83,-127.5"/>
</a>
</g>
</g>
<!-- Node18 -->
<g id="Node000018" class="node">
<title>Node18</title>
<g id="a_Node000018"><a xlink:href="class_async_client.html#a4bed4e925817d1b918af2ce43fb0859e" target="_top" xlink:title=" ">
<polygon fill="#fff0f0" stroke="red" points="103.38,-96 9.37,-96 9.37,-76 103.38,-76 103.38,-96"/>
<text xml:space="preserve" text-anchor="middle" x="56.38" y="-82.5" font-family="Helvetica,sans-Serif" font-size="10.00">AsyncClient::stop</text>
</a>
</g>
</g>
<!-- Node17&#45;&gt;Node18 -->
<g id="edge8_Node000017_Node000018" class="edge">
<title>Node17&#45;&gt;Node18</title>
<g id="a_edge8_Node000017_Node000018"><a xlink:title=" ">
<path fill="none" stroke="#63b8ff" d="M155.39,-86C138.25,-86 119.83,-86 103.64,-86"/>
<polygon fill="#63b8ff" stroke="#63b8ff" points="154.91,-89.5 164.91,-86 154.91,-82.5 154.91,-89.5"/>
</a>
</g>
</g>
</g>
</svg>
