<?xml version="1.0" encoding="UTF-8" standalone="no"?>
<!DOCTYPE svg PUBLIC "-//W3C//DTD SVG 1.1//EN"
 "http://www.w3.org/Graphics/SVG/1.1/DTD/svg11.dtd">
<!-- Generated by graphviz version 14.1.2 (20260124.0452)
 -->
<!-- Title: AsyncClient::_recv Pages: 1 -->
<svg width="358pt" height="66pt"
 viewBox="0.00 0.00 358.00 66.00" xmlns="http://www.w3.org/2000/svg" xmlns:xlink="http://www.w3.org/1999/xlink">
<g id="graph0" class="graph" transform="scale(1 1) rotate(0) translate(4 62)">
<title>AsyncClient::_recv</title>
<!-- Node1 -->
<g id="Node000001" class="node">
<title>Node1</title>
<g id="a_Node000001"><a xlink:title=" ">
<polygon fill="#999999" stroke="#666666" points="99.25,-39 0,-39 0,-19 99.25,-19 99.25,-39"/>
<text xml:space="preserve" text-anchor="middle" x="49.62" y="-25.5" font-family="Helvetica,sans-Serif" font-size="10.00">AsyncClient::_recv</text>
</a>
</g>
</g>
<!-- Node2 -->
<g id="Node000002" class="node">
<title>Node2</title>
<g id="a_Node000002"><a xlink:href="_async_t_c_p_8cpp.html#acfb3f5bacaaabd2c616896510fd1f10b" target="_top" xlink:title=" ">
<polygon fill="white" stroke="#666666" points="215.38,-58 146.12,-58 146.12,-38 215.38,-38 215.38,-58"/>
<text xml:space="preserve" text-anchor="middle" x="180.75" y="-44.5" font-family="Helvetica,sans-Serif" font-size="10.00">_tcp_recved</text>
</a>
</g>
</g>
<!-- Node1&#45;&gt;Node2 -->
<g id="edge1_Node000001_Node000002" class="edge">
<title>Node1&#45;&gt;Node2</title>
<g id="a_edge1_Node000001_Node000002"><a xlink:title=" ">
<path fill="none" stroke="#63b8ff" d="M99.44,-36.18C111.01,-37.89 123.3,-39.69 134.69,-41.37"/>
<polygon fill="#63b8ff" stroke="#63b8ff" points="133.83,-44.78 144.23,-42.77 134.85,-37.86 133.83,-44.78"/>
</a>
</g>
</g>
<!-- Node4 -->
<g id="Node000004" class="node">
<title>Node4</title>
<g id="a_Node000004"><a xlink:href="class_async_client.html#ac0c28dd08517243bc6d64d32f982a3cc" target="_top" xlink:title=" ">
<polygon fill="white" stroke="#666666" points="226.25,-20 135.25,-20 135.25,0 226.25,0 226.25,-20"/>
<text xml:space="preserve" text-anchor="middle" x="180.75" y="-6.5" font-family="Helvetica,sans-Serif" font-size="10.00">AsyncClient::pcb</text>
</a>
</g>
</g>
<!-- Node1&#45;&gt;Node4 -->
<g id="edge3_Node000001_Node000004" class="edge">
<title>Node1&#45;&gt;Node4</title>
<g id="a_edge3_Node000001_Node000004"><a xlink:title=" ">
<path fill="none" stroke="#63b8ff" d="M99.44,-21.82C107.4,-20.65 115.7,-19.42 123.82,-18.23"/>
<polygon fill="#63b8ff" stroke="#63b8ff" points="124.23,-21.71 133.62,-16.79 123.21,-14.78 124.23,-21.71"/>
</a>
</g>
</g>
<!-- Node3 -->
<g id="Node000003" class="node">
<title>Node3</title>
<g id="a_Node000003"><a xlink:href="_async_t_c_p_8cpp.html#ac6939df8a76eab232541be004e935be2" target="_top" xlink:title=" ">
<polygon fill="white" stroke="#666666" points="349.5,-58 262.25,-58 262.25,-38 349.5,-38 349.5,-58"/>
<text xml:space="preserve" text-anchor="middle" x="305.88" y="-44.5" font-family="Helvetica,sans-Serif" font-size="10.00">_tcp_recved_api</text>
</a>
</g>
</g>
<!-- Node2&#45;&gt;Node3 -->
<g id="edge2_Node000002_Node000003" class="edge">
<title>Node2&#45;&gt;Node3</title>
<g id="a_edge2_Node000002_Node000003"><a xlink:title=" ">
<path fill="none" stroke="#63b8ff" d="M215.72,-48C226.51,-48 238.72,-48 250.57,-48"/>
<polygon fill="#63b8ff" stroke="#63b8ff" points="250.25,-51.5 260.25,-48 250.25,-44.5 250.25,-51.5"/>
</a>
</g>
</g>
</g>
</svg>
