<?xml version="1.0" encoding="UTF-8" standalone="no"?>
<!DOCTYPE svg PUBLIC "-//W3C//DTD SVG 1.1//EN"
 "http://www.w3.org/Graphics/SVG/1.1/DTD/svg11.dtd">
<!-- Generated by graphviz version 14.1.2 (20260124.0452)
 -->
<!-- Title: AuthSync::hashUid Pages: 1 -->
<svg width="436pt" height="123pt"
 viewBox="0.00 0.00 436.00 123.00" xmlns="http://www.w3.org/2000/svg" xmlns:xlink="http://www.w3.org/1999/xlink">
<g id="graph0" class="graph" transform="scale(1 1) rotate(0) translate(4 119)">
<title>AuthSync::hashUid</title>
<!-- Node1 -->
<g id="Node000001" class="node">
<title>Node1</title>
<g id="a_Node000001"><a xlink:title=" ">
<polygon fill="#999999" stroke="#666666" points="428.25,-77 327.5,-77 327.5,-57 428.25,-57 428.25,-77"/>
<text xml:space="preserve" text-anchor="middle" x="377.88" y="-63.5" font-family="Helvetica,sans-Serif" font-size="10.00">AuthSync::hashUid</text>
</a>
</g>
</g>
<!-- Node2 -->
<g id="Node000002" class="node">
<title>Node2</title>
<g id="a_Node000002"><a xlink:href="class_auth_sync.html#a4e7f7720c3b9e51ceb1ab4d911f03e23" target="_top" xlink:title=" ">
<polygon fill="white" stroke="#666666" points="288.5,-115 157.75,-115 157.75,-95 288.5,-95 288.5,-115"/>
<text xml:space="preserve" text-anchor="middle" x="223.12" y="-101.5" font-family="Helvetica,sans-Serif" font-size="10.00">AuthSync::addKnownAuth</text>
</a>
</g>
</g>
<!-- Node1&#45;&gt;Node2 -->
<g id="edge1_Node000001_Node000002" class="edge">
<title>Node1&#45;&gt;Node2</title>
<g id="a_edge1_Node000001_Node000002"><a xlink:title=" ">
<path fill="none" stroke="#63b8ff" d="M323.62,-80.25C304.79,-84.93 283.9,-90.13 266.13,-94.55"/>
<polygon fill="#63b8ff" stroke="#63b8ff" points="324.4,-83.66 333.26,-77.85 322.71,-76.87 324.4,-83.66"/>
</a>
</g>
</g>
<!-- Node3 -->
<g id="Node000003" class="node">
<title>Node3</title>
<g id="a_Node000003"><a xlink:href="class_auth_sync.html#aeb16a776532ee69ba1ca44b11904a2c2" target="_top" xlink:title=" ">
<polygon fill="white" stroke="#666666" points="118.75,-105 0,-105 0,-85 118.75,-85 118.75,-105"/>
<text xml:space="preserve" text-anchor="middle" x="59.38" y="-91.5" font-family="Helvetica,sans-Serif" font-size="10.00">AuthSync::isAuthorized</text>
</a>
</g>
</g>
<!-- Node1&#45;&gt;Node3 -->
<g id="edge3_Node000001_Node000003" class="edge">
<title>Node1&#45;&gt;Node3</title>
<g id="a_edge3_Node000001_Node000003"><a xlink:title=" ">
<path fill="none" stroke="#63b8ff" d="M315.78,-72.07C271.15,-75.8 209.18,-81.08 154.75,-86 143.19,-87.05 130.84,-88.2 119.02,-89.32"/>
<polygon fill="#63b8ff" stroke="#63b8ff" points="315.84,-75.57 325.51,-71.25 315.25,-68.6 315.84,-75.57"/>
</a>
</g>
</g>
<!-- Node4 -->
<g id="Node000004" class="node">
<title>Node4</title>
<g id="a_Node000004"><a xlink:href="class_auth_sync.html#ab2999f3e828083471d482f9bde0d72f2" target="_top" xlink:title=" ">
<polygon fill="white" stroke="#666666" points="291.5,-39 154.75,-39 154.75,-19 291.5,-19 291.5,-39"/>
<text xml:space="preserve" text-anchor="middle" x="223.12" y="-25.5" font-family="Helvetica,sans-Serif" font-size="10.00">AuthSync::syncFromServer</text>
</a>
</g>
</g>
<!-- Node1&#45;&gt;Node4 -->
<g id="edge4_Node000001_Node000004" class="edge">
<title>Node1&#45;&gt;Node4</title>
<g id="a_edge4_Node000001_Node000004"><a xlink:title=" ">
<path fill="none" stroke="#63b8ff" d="M323.62,-53.75C304.79,-49.07 283.9,-43.87 266.13,-39.45"/>
<polygon fill="#63b8ff" stroke="#63b8ff" points="322.71,-57.13 333.26,-56.15 324.4,-50.34 322.71,-57.13"/>
</a>
</g>
</g>
<!-- Node2&#45;&gt;Node3 -->
<g id="edge2_Node000002_Node000003" class="edge">
<title>Node2&#45;&gt;Node3</title>
<g id="a_edge2_Node000002_Node000003"><a xlink:title=" ">
<path fill="none" stroke="#63b8ff" d="M145.96,-100.29C136.98,-99.74 127.92,-99.18 119.23,-98.64"/>
<polygon fill="#63b8ff" stroke="#63b8ff" points="145.56,-103.77 155.76,-100.9 145.99,-96.79 145.56,-103.77"/>
</a>
</g>
</g>
<!-- Node5 -->
<g id="Node000005" class="node">
<title>Node5</title>
<g id="a_Node000005"><a xlink:href="class_auth_sync.html#a6834600967f5b023e9810fc2293d2c51" target="_top" xlink:title=" ">
<polygon fill="white" stroke="#666666" points="103.38,-58 15.38,-58 15.38,-38 103.38,-38 103.38,-58"/>
<text xml:space="preserve" text-anchor="middle" x="59.38" y="-44.5" font-family="Helvetica,sans-Serif" font-size="10.00">AuthSync::begin</text>
</a>
</g>
</g>
<!-- Node4&#45;&gt;Node5 -->
<g id="edge5_Node000004_Node000005" class="edge">
<title>Node4&#45;&gt;Node5</title>
<g id="a_edge5_Node000004_Node000005"><a xlink:title=" ">
<path fill="none" stroke="#63b8ff" d="M143.13,-38.28C129.58,-39.87 115.96,-41.47 103.79,-42.9"/>
<polygon fill="#63b8ff" stroke="#63b8ff" points="143.44,-41.77 152.96,-37.12 142.62,-34.81 143.44,-41.77"/>
</a>
</g>
</g>
<!-- Node6 -->
<g id="Node000006" class="node">
<title>Node6</title>
<g id="a_Node000006"><a xlink:href="class_auth_sync.html#a19dac50eb59905f92b7da75d12f5f309" target="_top" xlink:title=" ">
<polygon fill="white" stroke="#666666" points="106.38,-20 12.37,-20 12.37,0 106.38,0 106.38,-20"/>
<text xml:space="preserve" text-anchor="middle" x="59.38" y="-6.5" font-family="Helvetica,sans-Serif" font-size="10.00">AuthSync::update</text>
</a>
</g>
</g>
<!-- Node4&#45;&gt;Node6 -->
<g id="edge6_Node000004_Node000006" class="edge">
<title>Node4&#45;&gt;Node6</title>
<g id="a_edge6_Node000004_Node000006"><a xlink:title=" ">
<path fill="none" stroke="#63b8ff" d="M143.06,-19.71C130.59,-18.25 118.05,-16.78 106.65,-15.44"/>
<polygon fill="#63b8ff" stroke="#63b8ff" points="142.62,-23.19 152.96,-20.88 143.44,-16.23 142.62,-23.19"/>
</a>
</g>
</g>
</g>
</svg>
