<?xml version="1.0" encoding="UTF-8" standalone="no"?>
<!DOCTYPE svg PUBLIC "-//W3C//DTD SVG 1.1//EN"
 "http://www.w3.org/Graphics/SVG/1.1/DTD/svg11.dtd">
<!-- Generated by graphviz version 14.1.2 (20260124.0452)
 -->
<!-- Title: AuthSync::calcBitsetBytes Pages: 1 -->
<svg width="628pt" height="180pt"
 viewBox="0.00 0.00 628.00 180.00" xmlns="http://www.w3.org/2000/svg" xmlns:xlink="http://www.w3.org/1999/xlink">
<g id="graph0" class="graph" transform="scale(1 1) rotate(0) translate(4 176)">
<title>AuthSync::calcBitsetBytes</title>
<!-- Node1 -->
<g id="Node000001" class="node">
<title>Node1</title>
<g id="a_Node000001"><a xlink:title=" ">
<polygon fill="#999999" stroke="#666666" points="619.75,-96 486,-96 486,-76 619.75,-76 619.75,-96"/>
<text xml:space="preserve" text-anchor="middle" x="552.88" y="-82.5" font-family="Helvetica,sans-Serif" font-size="10.00">AuthSync::calcBitsetBytes</text>
</a>
</g>
</g>
<!-- Node2 -->
<g id="Node000002" class="node">
<title>Node2</title>
<g id="a_Node000002"><a xlink:href="class_auth_sync.html#a70491cf68689f4d6dc2e34ecdb385e26" target="_top" xlink:title=" ">
<polygon fill="white" stroke="#666666" points="450,-172 302.75,-172 302.75,-152 450,-152 450,-172"/>
<text xml:space="preserve" text-anchor="middle" x="376.38" y="-158.5" font-family="Helvetica,sans-Serif" font-size="10.00">AuthSync::dumpMemoryStats</text>
</a>
</g>
</g>
<!-- Node1&#45;&gt;Node2 -->
<g id="edge1_Node000001_Node000002" class="edge">
<title>Node1&#45;&gt;Node2</title>
<g id="a_edge1_Node000001_Node000002"><a xlink:title=" ">
<path fill="none" stroke="#63b8ff" d="M526.66,-102.5C506.57,-115.05 477.37,-131.97 450,-143 441.9,-146.26 433.07,-149.12 424.44,-151.56"/>
<polygon fill="#63b8ff" stroke="#63b8ff" points="528.43,-105.52 534.99,-97.21 524.68,-99.61 528.43,-105.52"/>
</a>
</g>
</g>
<!-- Node3 -->
<g id="Node000003" class="node">
<title>Node3</title>
<g id="a_Node000003"><a xlink:href="class_auth_sync.html#a4e08ccddae724260659933a380255ddb" target="_top" xlink:title=" ">
<polygon fill="white" stroke="#666666" points="444.75,-134 308,-134 308,-114 444.75,-114 444.75,-134"/>
<text xml:space="preserve" text-anchor="middle" x="376.38" y="-120.5" font-family="Helvetica,sans-Serif" font-size="10.00">AuthSync::getMemoryUsed</text>
</a>
</g>
</g>
<!-- Node1&#45;&gt;Node3 -->
<g id="edge2_Node000001_Node000003" class="edge">
<title>Node1&#45;&gt;Node3</title>
<g id="a_edge2_Node000001_Node000003"><a xlink:title=" ">
<path fill="none" stroke="#63b8ff" d="M492.55,-98.92C470.65,-103.69 446.13,-109.03 425.36,-113.55"/>
<polygon fill="#63b8ff" stroke="#63b8ff" points="493.23,-102.35 502.25,-96.81 491.74,-95.51 493.23,-102.35"/>
</a>
</g>
</g>
<!-- Node4 -->
<g id="Node000004" class="node">
<title>Node4</title>
<g id="a_Node000004"><a xlink:href="class_auth_sync.html#ad506895350cf1efcf89c0b72a7fe0a67" target="_top" xlink:title=" ">
<polygon fill="white" stroke="#666666" points="433.12,-96 319.62,-96 319.62,-76 433.12,-76 433.12,-96"/>
<text xml:space="preserve" text-anchor="middle" x="376.38" y="-82.5" font-family="Helvetica,sans-Serif" font-size="10.00">AuthSync::readByteAt</text>
</a>
</g>
</g>
<!-- Node1&#45;&gt;Node4 -->
<g id="edge3_Node000001_Node000004" class="edge">
<title>Node1&#45;&gt;Node4</title>
<g id="a_edge3_Node000001_Node000004"><a xlink:title=" ">
<path fill="none" stroke="#63b8ff" d="M474.43,-86C460.64,-86 446.51,-86 433.46,-86"/>
<polygon fill="#63b8ff" stroke="#63b8ff" points="474.39,-89.5 484.39,-86 474.39,-82.5 474.39,-89.5"/>
</a>
</g>
</g>
<!-- Node5 -->
<g id="Node000005" class="node">
<title>Node5</title>
<g id="a_Node000005"><a xlink:href="class_auth_sync.html#ab2999f3e828083471d482f9bde0d72f2" target="_top" xlink:title=" ">
<polygon fill="white" stroke="#666666" points="266.75,-39 130,-39 130,-19 266.75,-19 266.75,-39"/>
<text xml:space="preserve" text-anchor="middle" x="198.38" y="-25.5" font-family="Helvetica,sans-Serif" font-size="10.00">AuthSync::syncFromServer</text>
</a>
</g>
</g>
<!-- Node1&#45;&gt;Node5 -->
<g id="edge4_Node000001_Node000005" class="edge">
<title>Node1&#45;&gt;Node5</title>
<g id="a_edge4_Node000001_Node000005"><a xlink:title=" ">
<path fill="none" stroke="#63b8ff" d="M486.5,-73.47C474.38,-71.24 461.82,-69 450,-67 388.16,-56.55 317.51,-45.96 267.02,-38.62"/>
<polygon fill="#63b8ff" stroke="#63b8ff" points="485.52,-76.85 495.99,-75.23 486.8,-69.96 485.52,-76.85"/>
</a>
</g>
</g>
<!-- Node8 -->
<g id="Node000008" class="node">
<title>Node8</title>
<g id="a_Node000008"><a xlink:href="class_auth_sync.html#a756e144d847c736d9932311d101a8a8f" target="_top" xlink:title=" ">
<polygon fill="white" stroke="#666666" points="434.25,-20 318.5,-20 318.5,0 434.25,0 434.25,-20"/>
<text xml:space="preserve" text-anchor="middle" x="376.38" y="-6.5" font-family="Helvetica,sans-Serif" font-size="10.00">AuthSync::writeByteAt</text>
</a>
</g>
</g>
<!-- Node1&#45;&gt;Node8 -->
<g id="edge7_Node000001_Node000008" class="edge">
<title>Node1&#45;&gt;Node8</title>
<g id="a_edge7_Node000001_Node000008"><a xlink:title=" ">
<path fill="none" stroke="#63b8ff" d="M523.45,-70.01C503.32,-59.06 475.47,-44.64 450,-34 437.99,-28.99 424.53,-24.29 412.5,-20.41"/>
<polygon fill="#63b8ff" stroke="#63b8ff" points="521.73,-73.06 532.18,-74.81 525.1,-66.92 521.73,-73.06"/>
</a>
</g>
</g>
<!-- Node6 -->
<g id="Node000006" class="node">
<title>Node6</title>
<g id="a_Node000006"><a xlink:href="class_auth_sync.html#a6834600967f5b023e9810fc2293d2c51" target="_top" xlink:title=" ">
<polygon fill="white" stroke="#666666" points="91,-58 3,-58 3,-38 91,-38 91,-58"/>
<text xml:space="preserve" text-anchor="middle" x="47" y="-44.5" font-family="Helvetica,sans-Serif" font-size="10.00">AuthSync::begin</text>
</a>
</g>
</g>
<!-- Node5&#45;&gt;Node6 -->
<g id="edge5_Node000005_Node000006" class="edge">
<title>Node5&#45;&gt;Node6</title>
<g id="a_edge5_Node000005_Node000006"><a xlink:title=" ">
<path fill="none" stroke="#63b8ff" d="M118.27,-39.06C108.92,-40.25 99.66,-41.43 91.08,-42.52"/>
<polygon fill="#63b8ff" stroke="#63b8ff" points="118.7,-42.54 128.18,-37.8 117.82,-35.59 118.7,-42.54"/>
</a>
</g>
</g>
<!-- Node7 -->
<g id="Node000007" class="node">
<title>Node7</title>
<g id="a_Node000007"><a xlink:href="class_auth_sync.html#a19dac50eb59905f92b7da75d12f5f309" target="_top" xlink:title=" ">
<polygon fill="white" stroke="#666666" points="94,-20 0,-20 0,0 94,0 94,-20"/>
<text xml:space="preserve" text-anchor="middle" x="47" y="-6.5" font-family="Helvetica,sans-Serif" font-size="10.00">AuthSync::update</text>
</a>
</g>
</g>
<!-- Node5&#45;&gt;Node7 -->
<g id="edge6_Node000005_Node000007" class="edge">
<title>Node5&#45;&gt;Node7</title>
<g id="a_edge6_Node000005_Node000007"><a xlink:title=" ">
<path fill="none" stroke="#63b8ff" d="M118.36,-18.95C110.06,-17.89 101.83,-16.85 94.09,-15.86"/>
<polygon fill="#63b8ff" stroke="#63b8ff" points="117.82,-22.41 128.18,-20.2 118.7,-15.46 117.82,-22.41"/>
</a>
</g>
</g>
<!-- Node8&#45;&gt;Node5 -->
<g id="edge8_Node000008_Node000005" class="edge">
<title>Node8&#45;&gt;Node5</title>
<g id="a_edge8_Node000008_Node000005"><a xlink:title=" ">
<path fill="none" stroke="#63b8ff" d="M306.89,-17.39C293.78,-18.81 280.05,-20.29 266.96,-21.7"/>
<polygon fill="#63b8ff" stroke="#63b8ff" points="307.16,-20.88 316.73,-16.33 306.41,-13.92 307.16,-20.88"/>
</a>
</g>
</g>
</g>
</svg>
