<?xml version="1.0" encoding="UTF-8" standalone="no"?>
<!DOCTYPE svg PUBLIC "-//W3C//DTD SVG 1.1//EN"
 "http://www.w3.org/Graphics/SVG/1.1/DTD/svg11.dtd">
<!-- Generated by graphviz version 14.1.2 (20260124.0452)
 -->
<!-- Title: AsyncClient::connect Pages: 1 -->
<!--zoomable 404 -->

<svg id="main" version="1.1" xmlns="http://www.w3.org/2000/svg" xmlns:xlink="http://www.w3.org/1999/xlink" xml:space="preserve" onload="init(evt)">

<style type="text/css"><![CDATA[
.node, .edge {opacity: 0.7;}
.node.selected, .edge.selected {opacity: 1;}
.edge:hover path { stroke: red; }
.edge:hover polygon { stroke: red; fill: red; }
]]></style>

<defs>
  <circle id="rim" cx="0" cy="0" r="7"/>
  <circle id="rim2" cx="0" cy="0" r="3.5"/>
  <g id="zoomPlus">
    <use xlink:href="#rim" fill="#404040"><set attributeName="fill" to="#808080" begin="zoomplus.mouseover" end="zoomplus.mouseout"/></use>
    <path d="M-4,0h8M0,-4v8" fill="none" stroke="white" stroke-width="1.5" pointer-events="none"/>
  </g>
  <g id="zoomMin">
    <use xlink:href="#rim" fill="#404040"><set attributeName="fill" to="#808080" begin="zoomminus.mouseover" end="zoomminus.mouseout"/></use>
    <path d="M-4,0h8" fill="none" stroke="white" stroke-width="1.5" pointer-events="none"/>
  </g>
  <g id="arrowUp" transform="translate(30 24)">
    <use xlink:href="#rim"/>
    <path pointer-events="none" fill="none" stroke="white" stroke-width="1.5" d="M0,-3.0v7 M-2.5,-0.5L0,-3.0L2.5,-0.5"/>
  </g>
  <g id="arrowRight" transform="rotate(90) translate(36 -43)">
    <use xlink:href="#rim"/>
    <path pointer-events="none" fill="none" stroke="white" stroke-width="1.5" d="M0,-3.0v7 M-2.5,-0.5L0,-3.0L2.5,-0.5"/>
  </g>
  <g id="arrowDown" transform="rotate(180) translate(-30 -48)">
    <use xlink:href="#rim"/>
    <path pointer-events="none" fill="none" stroke="white" stroke-width="1.5" d="M0,-3.0v7 M-2.5,-0.5L0,-3.0L2.5,-0.5"/>
  </g>
  <g id="arrowLeft" transform="rotate(270) translate(-36 17)">
    <use xlink:href="#rim"/>
    <path pointer-events="none" fill="none" stroke="white" stroke-width="1.5" d="M0,-3.0v7 M-2.5,-0.5L0,-3.0L2.5,-0.5"/>
  </g>
  <g id="resetDef">
    <use xlink:href="#rim2" fill="#404040"><set attributeName="fill" to="#808080" begin="reset.mouseover" end="reset.mouseout"/></use>
  </g>
</defs>
<script type="application/ecmascript">
var viewWidth = 595;
var viewHeight = 404;
var sectionId = 'dynsection-49';
</script>
<script type="application/ecmascript" xlink:href="svg.min.js"/>
<svg id="graph" class="graph">
<g id="viewport">
<title>AsyncClient::connect</title>
<!-- Node1 -->
<g id="Node000001" class="node">
<title>Node1</title>
<g id="a_Node000001"><a xlink:title=" ">
<polygon fill="#999999" stroke="#666666" points="109.75,-187.28 0,-187.28 0,-167.28 109.75,-167.28 109.75,-187.28"/>
<text xml:space="preserve" text-anchor="middle" x="54.88" y="-173.78" font-family="Helvetica,sans-Serif" font-size="10.00">AsyncClient::connect</text>
</a>
</g>
</g>
<!-- Node2 -->
<g id="Node000002" class="node">
<title>Node2</title>
<g id="a_Node000002"><a xlink:href="class_async_client.html#a758eaca983e03027c99003a5808883f8" target="_top" xlink:title=" ">
<polygon fill="white" stroke="#666666" points="260.75,-187.28 145.75,-187.28 145.75,-167.28 260.75,-167.28 260.75,-187.28"/>
<text xml:space="preserve" text-anchor="middle" x="203.25" y="-173.78" font-family="Helvetica,sans-Serif" font-size="10.00">AsyncClient::_connect</text>
</a>
</g>
</g>
<!-- Node1&#45;&gt;Node2 -->
<g id="edge1_Node000001_Node000002" class="edge">
<title>Node1&#45;&gt;Node2</title>
<g id="a_edge1_Node000001_Node000002"><a xlink:title=" ">
<path fill="none" stroke="#63b8ff" d="M109.96,-177.28C117.82,-177.28 126,-177.28 134.09,-177.28"/>
<polygon fill="#63b8ff" stroke="#63b8ff" points="133.93,-180.78 143.93,-177.28 133.93,-173.78 133.93,-180.78"/>
</a>
</g>
</g>
<!-- Node4 -->
<g id="Node000004" class="node">
<title>Node4</title>
<g id="a_Node000004"><a xlink:href="_async_t_c_p_8cpp.html#a4d0de407bcfcc96b61af40aca3156708" target="_top" xlink:title=" ">
<polygon fill="white" stroke="#666666" points="402,-320.28 305.75,-320.28 305.75,-300.28 402,-300.28 402,-320.28"/>
<text xml:space="preserve" text-anchor="middle" x="353.88" y="-306.78" font-family="Helvetica,sans-Serif" font-size="10.00">_start_async_task</text>
</a>
</g>
</g>
<!-- Node1&#45;&gt;Node4 -->
<g id="edge20_Node000001_Node000004" class="edge">
<title>Node1&#45;&gt;Node4</title>
<g id="a_edge20_Node000001_Node000004"><a xlink:title=" ">
<path fill="none" stroke="#63b8ff" d="M75.83,-187.69C116.64,-208.77 212.9,-257.37 296.75,-291.28 300.82,-292.92 305.09,-294.55 309.38,-296.11"/>
<polygon fill="#63b8ff" stroke="#63b8ff" points="307.97,-299.33 318.57,-299.35 310.3,-292.72 307.97,-299.33"/>
</a>
</g>
</g>
<!-- Node49 -->
<g id="Node000049" class="node">
<title>Node49</title>
<g id="a_Node000049"><a xlink:href="_async_t_c_p_8cpp.html#a2dec6cedf1649c5b63519ccfd6f3a3fd" target="_top" xlink:title=" ">
<polygon fill="white" stroke="#666666" points="245.75,-86.28 160.75,-86.28 160.75,-66.28 245.75,-66.28 245.75,-86.28"/>
<text xml:space="preserve" text-anchor="middle" x="203.25" y="-72.78" font-family="Helvetica,sans-Serif" font-size="10.00">_tcp_dns_found</text>
</a>
</g>
</g>
<!-- Node1&#45;&gt;Node49 -->
<g id="edge21_Node000001_Node000049" class="edge">
<title>Node1&#45;&gt;Node49</title>
<g id="a_edge21_Node000001_Node000049"><a xlink:title=" ">
<path fill="none" stroke="#63b8ff" d="M70.99,-166.85C96.32,-149.37 147.56,-114.02 177.98,-93.02"/>
<polygon fill="#63b8ff" stroke="#63b8ff" points="179.95,-95.92 186.19,-87.36 175.97,-90.16 179.95,-95.92"/>
</a>
</g>
</g>
<!-- Node3 -->
<g id="Node000003" class="node">
<title>Node3</title>
<g id="a_Node000003"><a xlink:href="class_async_client.html#ab0422e5254ea4fbac9f87188a018ebc4" target="_top" xlink:title=" ">
<polygon fill="white" stroke="#666666" points="411,-92.28 296.75,-92.28 296.75,-60.28 411,-60.28 411,-92.28"/>
<text xml:space="preserve" text-anchor="start" x="304.75" y="-78.78" font-family="Helvetica,sans-Serif" font-size="10.00">AsyncClient::_allocate</text>
<text xml:space="preserve" text-anchor="middle" x="353.88" y="-66.78" font-family="Helvetica,sans-Serif" font-size="10.00">_closed_slot</text>
</a>
</g>
</g>
<!-- Node2&#45;&gt;Node3 -->
<g id="edge2_Node000002_Node000003" class="edge">
<title>Node2&#45;&gt;Node3</title>
<g id="a_edge2_Node000002_Node000003"><a xlink:title=" ">
<path fill="none" stroke="#63b8ff" d="M214.9,-166.88C231.39,-151.18 264.57,-121.16 296.75,-101.28 298.59,-100.14 300.49,-99.03 302.42,-97.94"/>
<polygon fill="#63b8ff" stroke="#63b8ff" points="303.76,-101.19 311,-93.46 300.52,-94.99 303.76,-101.19"/>
</a>
</g>
</g>
<!-- Node2&#45;&gt;Node4 -->
<g id="edge3_Node000002_Node000004" class="edge">
<title>Node2&#45;&gt;Node4</title>
<g id="a_edge3_Node000002_Node000004"><a xlink:title=" ">
<path fill="none" stroke="#63b8ff" d="M212.5,-187.6C234.67,-215.31 294.03,-289.39 296.75,-291.28 298.59,-292.56 300.52,-293.75 302.51,-294.88"/>
<polygon fill="#63b8ff" stroke="#63b8ff" points="300.99,-298.03 311.51,-299.22 304.03,-291.72 300.99,-298.03"/>
</a>
</g>
</g>
<!-- Node39 -->
<g id="Node000039" class="node">
<title>Node39</title>
<g id="a_Node000039"><a xlink:href="_async_t_c_p_8cpp.html#a02f7e9cd68d729395c7794e07dfc1375" target="_top" xlink:title=" ">
<polygon fill="white" stroke="#666666" points="391.12,-244.28 316.62,-244.28 316.62,-224.28 391.12,-224.28 391.12,-244.28"/>
<text xml:space="preserve" text-anchor="middle" x="353.88" y="-230.78" font-family="Helvetica,sans-Serif" font-size="10.00">_tcp_connect</text>
</a>
</g>
</g>
<!-- Node2&#45;&gt;Node39 -->
<g id="edge7_Node000002_Node000039" class="edge">
<title>Node2&#45;&gt;Node39</title>
<g id="a_edge7_Node000002_Node000039"><a xlink:title=" ">
<path fill="none" stroke="#63b8ff" d="M228.43,-187.7C246.99,-195.59 273.34,-206.52 296.75,-215.28 301.14,-216.92 305.74,-218.58 310.35,-220.2"/>
<polygon fill="#63b8ff" stroke="#63b8ff" points="308.97,-223.42 319.56,-223.38 311.25,-216.81 308.97,-223.42"/>
</a>
</g>
</g>
<!-- Node41 -->
<g id="Node000041" class="node">
<title>Node41</title>
<g id="a_Node000041"><a xlink:href="_async_t_c_p_8cpp.html#aceddc1345284b96d9d3618c7b01ecede" target="_top" xlink:title=" ">
<polygon fill="white" stroke="#666666" points="396.38,-282.28 311.38,-282.28 311.38,-262.28 396.38,-262.28 396.38,-282.28"/>
<text xml:space="preserve" text-anchor="middle" x="353.88" y="-268.78" font-family="Helvetica,sans-Serif" font-size="10.00">_tcp_connected</text>
</a>
</g>
</g>
<!-- Node2&#45;&gt;Node41 -->
<g id="edge9_Node000002_Node000041" class="edge">
<title>Node2&#45;&gt;Node41</title>
<g id="a_edge9_Node000002_Node000041"><a xlink:title=" ">
<path fill="none" stroke="#63b8ff" d="M214.15,-187.52C230.16,-203.57 263.32,-234.71 296.75,-253.28 299.53,-254.82 302.46,-256.27 305.46,-257.63"/>
<polygon fill="#63b8ff" stroke="#63b8ff" points="303.84,-260.75 314.42,-261.29 306.49,-254.27 303.84,-260.75"/>
</a>
</g>
</g>
<!-- Node42 -->
<g id="Node000042" class="node">
<title>Node42</title>
<g id="a_Node000042"><a xlink:href="_async_t_c_p_8cpp.html#a61ff9f7f886bbbbcdc1daca453828934" target="_top" xlink:title=" ">
<polygon fill="white" stroke="#666666" points="383.62,-42.28 324.12,-42.28 324.12,-22.28 383.62,-22.28 383.62,-42.28"/>
<text xml:space="preserve" text-anchor="middle" x="353.88" y="-28.78" font-family="Helvetica,sans-Serif" font-size="10.00">_tcp_error</text>
</a>
</g>
</g>
<!-- Node2&#45;&gt;Node42 -->
<g id="edge11_Node000002_Node000042" class="edge">
<title>Node2&#45;&gt;Node42</title>
<g id="a_edge11_Node000002_Node000042"><a xlink:title=" ">
<path fill="none" stroke="#63b8ff" d="M211.3,-166.94C230.9,-138.33 285.31,-59.65 296.75,-51.28 301.73,-47.63 307.46,-44.65 313.31,-42.22"/>
<polygon fill="#63b8ff" stroke="#63b8ff" points="314.2,-45.62 322.42,-38.94 311.83,-39.04 314.2,-45.62"/>
</a>
</g>
</g>
<!-- Node44 -->
<g id="Node000044" class="node">
<title>Node44</title>
<g id="a_Node000044"><a xlink:href="_async_t_c_p_8cpp.html#ad4b2c6c935c211eef5884f25a950e445" target="_top" xlink:title=" ">
<polygon fill="white" stroke="#666666" points="381.38,-130.28 326.38,-130.28 326.38,-110.28 381.38,-110.28 381.38,-130.28"/>
<text xml:space="preserve" text-anchor="middle" x="353.88" y="-116.78" font-family="Helvetica,sans-Serif" font-size="10.00">_tcp_poll</text>
</a>
</g>
</g>
<!-- Node2&#45;&gt;Node44 -->
<g id="edge13_Node000002_Node000044" class="edge">
<title>Node2&#45;&gt;Node44</title>
<g id="a_edge13_Node000002_Node000044"><a xlink:title=" ">
<path fill="none" stroke="#63b8ff" d="M228.43,-166.85C246.99,-158.97 273.34,-148.04 296.75,-139.28 302.65,-137.07 308.94,-134.83 315.1,-132.7"/>
<polygon fill="#63b8ff" stroke="#63b8ff" points="316.15,-136.04 324.48,-129.51 313.89,-129.41 316.15,-136.04"/>
</a>
</g>
</g>
<!-- Node45 -->
<g id="Node000045" class="node">
<title>Node45</title>
<g id="a_Node000045"><a xlink:href="_async_t_c_p_8cpp.html#adf7826424bf5b1035c4850f6b3307686" target="_top" xlink:title=" ">
<polygon fill="white" stroke="#666666" points="383.25,-206.28 324.5,-206.28 324.5,-186.28 383.25,-186.28 383.25,-206.28"/>
<text xml:space="preserve" text-anchor="middle" x="353.88" y="-192.78" font-family="Helvetica,sans-Serif" font-size="10.00">_tcp_recv</text>
</a>
</g>
</g>
<!-- Node2&#45;&gt;Node45 -->
<g id="edge15_Node000002_Node000045" class="edge">
<title>Node2&#45;&gt;Node45</title>
<g id="a_edge15_Node000002_Node000045"><a xlink:title=" ">
<path fill="none" stroke="#63b8ff" d="M260.86,-184.52C278.29,-186.74 297.1,-189.15 313.14,-191.2"/>
<polygon fill="#63b8ff" stroke="#63b8ff" points="312.4,-194.63 322.77,-192.43 313.29,-187.69 312.4,-194.63"/>
</a>
</g>
</g>
<!-- Node48 -->
<g id="Node000048" class="node">
<title>Node48</title>
<g id="a_Node000048"><a xlink:href="_async_t_c_p_8cpp.html#a0b47280aff638ec9b80f7a87dfe54ea6" target="_top" xlink:title=" ">
<polygon fill="white" stroke="#666666" points="383.25,-168.28 324.5,-168.28 324.5,-148.28 383.25,-148.28 383.25,-168.28"/>
<text xml:space="preserve" text-anchor="middle" x="353.88" y="-154.78" font-family="Helvetica,sans-Serif" font-size="10.00">_tcp_sent</text>
</a>
</g>
</g>
<!-- Node2&#45;&gt;Node48 -->
<g id="edge18_Node000002_Node000048" class="edge">
<title>Node2&#45;&gt;Node48</title>
<g id="a_edge18_Node000002_Node000048"><a xlink:title=" ">
<path fill="none" stroke="#63b8ff" d="M260.86,-170.04C278.29,-167.81 297.1,-165.41 313.14,-163.36"/>
<polygon fill="#63b8ff" stroke="#63b8ff" points="313.29,-166.87 322.77,-162.13 312.4,-159.92 313.29,-166.87"/>
</a>
</g>
</g>
<!-- Node5 -->
<g id="Node000005" class="node">
<title>Node5</title>
<g id="a_Node000005"><a xlink:href="_async_t_c_p_8cpp.html#a87baf4ac2987dd94502c4586a97e552f" target="_top" xlink:title=" ">
<polygon fill="#fff0f0" stroke="red" points="571,-396.28 462.75,-396.28 462.75,-376.28 571,-376.28 571,-396.28"/>
<text xml:space="preserve" text-anchor="middle" x="516.88" y="-382.78" font-family="Helvetica,sans-Serif" font-size="10.00">_async_service_task</text>
</a>
</g>
</g>
<!-- Node4&#45;&gt;Node5 -->
<g id="edge4_Node000004_Node000005" class="edge">
<title>Node4&#45;&gt;Node5</title>
<g id="a_edge4_Node000004_Node000005"><a xlink:title=" ">
<path fill="none" stroke="#63b8ff" d="M368.85,-320.7C386.32,-333.3 417.52,-354.41 447,-367.28 451.22,-369.12 455.67,-370.83 460.18,-372.4"/>
<polygon fill="#63b8ff" stroke="#63b8ff" points="458.74,-375.61 469.33,-375.36 460.9,-368.95 458.74,-375.61"/>
</a>
</g>
</g>
<!-- Node37 -->
<g id="Node000037" class="node">
<title>Node37</title>
<g id="a_Node000037"><a xlink:href="_async_t_c_p_8cpp.html#a3aed34b06f9d10bb1cc4ce3d74cb5565" target="_top" xlink:title=" ">
<polygon fill="white" stroke="#666666" points="580,-358.28 453.75,-358.28 453.75,-338.28 580,-338.28 580,-358.28"/>
<text xml:space="preserve" text-anchor="middle" x="516.88" y="-344.78" font-family="Helvetica,sans-Serif" font-size="10.00">_init_async_event_queue</text>
</a>
</g>
</g>
<!-- Node4&#45;&gt;Node37 -->
<g id="edge5_Node000004_Node000037" class="edge">
<title>Node4&#45;&gt;Node37</title>
<g id="a_edge5_Node000004_Node000037"><a xlink:title=" ">
<path fill="none" stroke="#63b8ff" d="M399.3,-320.76C418.21,-325.23 440.48,-330.48 460.46,-335.2"/>
<polygon fill="#63b8ff" stroke="#63b8ff" points="459.59,-338.59 470.13,-337.48 461.2,-331.78 459.59,-338.59"/>
</a>
</g>
</g>
<!-- Node38 -->
<g id="Node000038" class="node">
<title>Node38</title>
<g id="a_Node000038"><a xlink:href="_async_t_c_p_8cpp.html#a8fedef252807f247ae1b933ac0bcc234" target="_top" xlink:title=" ">
<polygon fill="white" stroke="#666666" points="586.75,-320.28 447,-320.28 447,-300.28 586.75,-300.28 586.75,-320.28"/>
<text xml:space="preserve" text-anchor="middle" x="516.88" y="-306.78" font-family="Helvetica,sans-Serif" font-size="10.00">customTaskCreateUniversal</text>
</a>
</g>
</g>
<!-- Node4&#45;&gt;Node38 -->
<g id="edge6_Node000004_Node000038" class="edge">
<title>Node4&#45;&gt;Node38</title>
<g id="a_edge6_Node000004_Node000038"><a xlink:title=" ">
<path fill="none" stroke="#63b8ff" d="M402.31,-310.28C412.74,-310.28 424.08,-310.28 435.41,-310.28"/>
<polygon fill="#63b8ff" stroke="#63b8ff" points="435.19,-313.78 445.19,-310.28 435.19,-306.78 435.19,-313.78"/>
</a>
</g>
</g>
<!-- Node40 -->
<g id="Node000040" class="node">
<title>Node40</title>
<g id="a_Node000040"><a xlink:href="_async_t_c_p_8cpp.html#a6c3a1f5e3365fd25233a4ca083b400af" target="_top" xlink:title=" ">
<polygon fill="white" stroke="#666666" points="563.12,-244.28 470.62,-244.28 470.62,-224.28 563.12,-224.28 563.12,-244.28"/>
<text xml:space="preserve" text-anchor="middle" x="516.88" y="-230.78" font-family="Helvetica,sans-Serif" font-size="10.00">_tcp_connect_api</text>
</a>
</g>
</g>
<!-- Node39&#45;&gt;Node40 -->
<g id="edge8_Node000039_Node000040" class="edge">
<title>Node39&#45;&gt;Node40</title>
<g id="a_edge8_Node000039_Node000040"><a xlink:title=" ">
<path fill="none" stroke="#63b8ff" d="M391.41,-234.28C411.32,-234.28 436.4,-234.28 458.83,-234.28"/>
<polygon fill="#63b8ff" stroke="#63b8ff" points="458.76,-237.78 468.76,-234.28 458.76,-230.78 458.76,-237.78"/>
</a>
</g>
</g>
<!-- Node22 -->
<g id="Node000022" class="node">
<title>Node22</title>
<g id="a_Node000022"><a xlink:href="_async_t_c_p_8cpp.html#a42bebdded16714188a8e554237aad2f3" target="_top" xlink:title=" ">
<polygon fill="white" stroke="#666666" points="575.12,-282.28 458.62,-282.28 458.62,-262.28 575.12,-262.28 575.12,-282.28"/>
<text xml:space="preserve" text-anchor="middle" x="516.88" y="-268.78" font-family="Helvetica,sans-Serif" font-size="10.00">_prepend_async_event</text>
</a>
</g>
</g>
<!-- Node41&#45;&gt;Node22 -->
<g id="edge10_Node000041_Node000022" class="edge">
<title>Node41&#45;&gt;Node22</title>
<g id="a_edge10_Node000041_Node000022"><a xlink:title=" ">
<path fill="none" stroke="#63b8ff" d="M396.76,-272.28C412.12,-272.28 429.94,-272.28 447.04,-272.28"/>
<polygon fill="#63b8ff" stroke="#63b8ff" points="446.63,-275.78 456.63,-272.28 446.63,-268.78 446.63,-275.78"/>
</a>
</g>
</g>
<!-- Node43 -->
<g id="Node000043" class="node">
<title>Node43</title>
<g id="a_Node000043"><a xlink:href="_async_t_c_p_8cpp.html#a796c13746a84a6b2e7370ddbec97ad5b" target="_top" xlink:title=" ">
<polygon fill="white" stroke="#666666" points="568.38,-130.28 465.38,-130.28 465.38,-110.28 568.38,-110.28 568.38,-130.28"/>
<text xml:space="preserve" text-anchor="middle" x="516.88" y="-116.78" font-family="Helvetica,sans-Serif" font-size="10.00">_send_async_event</text>
</a>
</g>
</g>
<!-- Node42&#45;&gt;Node43 -->
<g id="edge12_Node000042_Node000043" class="edge">
<title>Node42&#45;&gt;Node43</title>
<g id="a_edge12_Node000042_Node000043"><a xlink:title=" ">
<path fill="none" stroke="#63b8ff" d="M383.99,-40.57C392.85,-43.5 402.5,-47.13 411,-51.28 441.13,-65.99 472.92,-87.93 493.49,-103.11"/>
<polygon fill="#63b8ff" stroke="#63b8ff" points="491.32,-105.85 501.42,-109.04 495.51,-100.25 491.32,-105.85"/>
</a>
</g>
</g>
<!-- Node44&#45;&gt;Node43 -->
<g id="edge14_Node000044_Node000043" class="edge">
<title>Node44&#45;&gt;Node43</title>
<g id="a_edge14_Node000044_Node000043"><a xlink:title=" ">
<path fill="none" stroke="#63b8ff" d="M381.82,-120.28C401.46,-120.28 428.89,-120.28 453.82,-120.28"/>
<polygon fill="#63b8ff" stroke="#63b8ff" points="453.54,-123.78 463.54,-120.28 453.54,-116.78 453.54,-123.78"/>
</a>
</g>
</g>
<!-- Node45&#45;&gt;Node43 -->
<g id="edge17_Node000045_Node000043" class="edge">
<title>Node45&#45;&gt;Node43</title>
<g id="a_edge17_Node000045_Node000043"><a xlink:title=" ">
<path fill="none" stroke="#63b8ff" d="M383.5,-187.64C392.43,-184.67 402.23,-181.11 411,-177.28 438.45,-165.28 468.35,-148.65 489.17,-136.45"/>
<polygon fill="#63b8ff" stroke="#63b8ff" points="490.77,-139.57 497.59,-131.46 487.2,-133.55 490.77,-139.57"/>
</a>
</g>
</g>
<!-- Node46 -->
<g id="Node000046" class="node">
<title>Node46</title>
<g id="a_Node000046"><a xlink:href="class_async_client.html#a485b2be0c01d3172928c0ed9655edc2f" target="_top" xlink:title=" ">
<polygon fill="#fff0f0" stroke="red" points="578.88,-206.28 454.88,-206.28 454.88,-186.28 578.88,-186.28 578.88,-206.28"/>
<text xml:space="preserve" text-anchor="middle" x="516.88" y="-192.78" font-family="Helvetica,sans-Serif" font-size="10.00">AsyncClient::_s_lwip_fin</text>
</a>
</g>
</g>
<!-- Node45&#45;&gt;Node46 -->
<g id="edge16_Node000045_Node000046" class="edge">
<title>Node45&#45;&gt;Node46</title>
<g id="a_edge16_Node000045_Node000046"><a xlink:title=" ">
<path fill="none" stroke="#63b8ff" d="M383.66,-196.28C400.37,-196.28 422.24,-196.28 443.37,-196.28"/>
<polygon fill="#63b8ff" stroke="#63b8ff" points="443.15,-199.78 453.15,-196.28 443.15,-192.78 443.15,-199.78"/>
</a>
</g>
</g>
<!-- Node48&#45;&gt;Node43 -->
<g id="edge19_Node000048_Node000043" class="edge">
<title>Node48&#45;&gt;Node43</title>
<g id="a_edge19_Node000048_Node000043"><a xlink:title=" ">
<path fill="none" stroke="#63b8ff" d="M383.66,-151.48C404.93,-146.46 434.56,-139.47 460.38,-133.38"/>
<polygon fill="#63b8ff" stroke="#63b8ff" points="461.15,-136.79 470.08,-131.09 459.54,-129.98 461.15,-136.79"/>
</a>
</g>
</g>
<!-- Node49&#45;&gt;Node43 -->
<g id="edge22_Node000049_Node000043" class="edge">
<title>Node49&#45;&gt;Node43</title>
<g id="a_edge22_Node000049_Node000043"><a xlink:title=" ">
<path fill="none" stroke="#63b8ff" d="M214.76,-65.89C230.82,-50.84 263.14,-23.64 296.75,-13.28 345.28,1.68 364.19,6.39 411,-13.28 453.15,-30.99 486.87,-74.82 503.85,-100.56"/>
<polygon fill="#63b8ff" stroke="#63b8ff" points="500.76,-102.22 509.09,-108.77 506.66,-98.46 500.76,-102.22"/>
</a>
</g>
</g>
</g>
</svg>

<g id="navigator" transform="translate(0 0)" fill="#404254">
  <rect fill="#f2f5e9" fill-opacity="0.5" stroke="#606060" stroke-width=".5" x="0" y="0" width="60" height="60"/>
  <use id="zoomplus" xlink:href="#zoomPlus" x="17" y="9" onmousedown="handleZoom(evt,'in')"/>
  <use id="zoomminus" xlink:href="#zoomMin" x="42" y="9" onmousedown="handleZoom(evt,'out')"/>
  <use id="reset" xlink:href="#resetDef" x="30" y="36" onmousedown="handleReset()"/>
   <use id="arrowup" xlink:href="#arrowUp" x="0" y="0" onmousedown="handlePan(0,-1)"/>
  <use id="arrowright" xlink:href="#arrowRight" x="0" y="0" onmousedown="handlePan(1,0)"/>
  <use id="arrowdown" xlink:href="#arrowDown" x="0" y="0" onmousedown="handlePan(0,1)"/>
  <use id="arrowleft" xlink:href="#arrowLeft" x="0" y="0" onmousedown="handlePan(-1,0)"/>
</g>
<svg viewBox="0 0 15 15" width="100%" height="30px" preserveAspectRatio="xMaxYMin meet">
 <g id="arrow_out" transform="scale(0.3 0.3)">
  <a xlink:href="class_async_client_a260e075caca9a58241f2fad754cc412b_cgraph_org.svg" target="_base">
   <rect id="button" ry="5" rx="5" y="6" x="6" height="38" width="38"
        fill="#f2f5e9" fill-opacity="0.5" stroke="#606060" stroke-width="1.0"/>
   <path id="arrow"
     d="M 11.500037,31.436501 C 11.940474,20.09759 22.043105,11.32322 32.158766,21.979434 L 37.068811,17.246167 C 37.068811,17.246167 37.088388,32 37.088388,32 L 22.160133,31.978069 C 22.160133,31.978069 26.997745,27.140456 26.997745,27.140456 C 18.528582,18.264221 13.291696,25.230495 11.500037,31.436501 z"
     style="fill:#404040;"/>
  </a>
 </g>
</svg>

<style type='text/css'>
<![CDATA[
[data-mouse-over-selected='false'] { opacity: 0.7; }
[data-mouse-over-selected='true']  { opacity: 1.0; }
]]>
</style>
<script type="application/ecmascript"><![CDATA[
document.addEventListener('DOMContentLoaded', (event) => {
  highlightEdges();
  highlightAdjacentNodes();
});
]]></script>
</svg>
