<?xml version="1.0" encoding="UTF-8" standalone="no"?>
<!DOCTYPE svg PUBLIC "-//W3C//DTD SVG 1.1//EN"
 "http://www.w3.org/Graphics/SVG/1.1/DTD/svg11.dtd">
<!-- Generated by graphviz version 14.1.2 (20260124.0452)
 -->
<!-- Title: AsyncClient::stop Pages: 1 -->
<svg width="509pt" height="192pt"
 viewBox="0.00 0.00 509.00 192.00" xmlns="http://www.w3.org/2000/svg" xmlns:xlink="http://www.w3.org/1999/xlink">
<g id="graph0" class="graph" transform="scale(1 1) rotate(0) translate(4 188)">
<title>AsyncClient::stop</title>
<!-- Node1 -->
<g id="Node000001" class="node">
<title>Node1</title>
<g id="a_Node000001"><a xlink:title=" ">
<polygon fill="#999999" stroke="#666666" points="94,-58 0,-58 0,-38 94,-38 94,-58"/>
<text xml:space="preserve" text-anchor="middle" x="47" y="-44.5" font-family="Helvetica,sans-Serif" font-size="10.00">AsyncClient::stop</text>
</a>
</g>
</g>
<!-- Node2 -->
<g id="Node000002" class="node">
<title>Node2</title>
<g id="a_Node000002"><a xlink:href="class_async_client.html#a0305fe0b036257c03829ceaa5cc43361" target="_top" xlink:title="close connection">
<polygon fill="white" stroke="#666666" points="228.5,-58 130,-58 130,-38 228.5,-38 228.5,-58"/>
<text xml:space="preserve" text-anchor="middle" x="179.25" y="-44.5" font-family="Helvetica,sans-Serif" font-size="10.00">AsyncClient::close</text>
</a>
</g>
</g>
<!-- Node1&#45;&gt;Node2 -->
<g id="edge1_Node000001_Node000002" class="edge">
<title>Node1&#45;&gt;Node2</title>
<g id="a_edge1_Node000001_Node000002"><a xlink:title=" ">
<path fill="none" stroke="#63b8ff" d="M94.29,-48C102.14,-48 110.39,-48 118.53,-48"/>
<polygon fill="#63b8ff" stroke="#63b8ff" points="118.4,-51.5 128.4,-48 118.4,-44.5 118.4,-51.5"/>
</a>
</g>
</g>
<!-- Node3 -->
<g id="Node000003" class="node">
<title>Node3</title>
<g id="a_Node000003"><a xlink:href="class_async_client.html#a98ff872bc84919f006f3bb8a249ed36d" target="_top" xlink:title=" ">
<polygon fill="white" stroke="#666666" points="368.25,-96 264.5,-96 264.5,-76 368.25,-76 368.25,-96"/>
<text xml:space="preserve" text-anchor="middle" x="316.38" y="-82.5" font-family="Helvetica,sans-Serif" font-size="10.00">AsyncClient::_close</text>
</a>
</g>
</g>
<!-- Node2&#45;&gt;Node3 -->
<g id="edge2_Node000002_Node000003" class="edge">
<title>Node2&#45;&gt;Node3</title>
<g id="a_edge2_Node000002_Node000003"><a xlink:title=" ">
<path fill="none" stroke="#63b8ff" d="M217.53,-58.48C232.89,-62.8 250.88,-67.86 267.22,-72.46"/>
<polygon fill="#63b8ff" stroke="#63b8ff" points="266.18,-75.8 276.76,-75.14 268.08,-69.06 266.18,-75.8"/>
</a>
</g>
</g>
<!-- Node12 -->
<g id="Node000012" class="node">
<title>Node12</title>
<g id="a_Node000012"><a xlink:href="_async_t_c_p_8cpp.html#acfb3f5bacaaabd2c616896510fd1f10b" target="_top" xlink:title=" ">
<polygon fill="white" stroke="#666666" points="351,-39 281.75,-39 281.75,-19 351,-19 351,-39"/>
<text xml:space="preserve" text-anchor="middle" x="316.38" y="-25.5" font-family="Helvetica,sans-Serif" font-size="10.00">_tcp_recved</text>
</a>
</g>
</g>
<!-- Node2&#45;&gt;Node12 -->
<g id="edge7_Node000002_Node000012" class="edge">
<title>Node2&#45;&gt;Node12</title>
<g id="a_edge7_Node000002_Node000012"><a xlink:title=" ">
<path fill="none" stroke="#63b8ff" d="M228.65,-41.19C242.12,-39.3 256.7,-37.25 269.99,-35.38"/>
<polygon fill="#63b8ff" stroke="#63b8ff" points="270.37,-38.86 279.78,-34 269.39,-31.93 270.37,-38.86"/>
</a>
</g>
</g>
<!-- Node4 -->
<g id="Node000004" class="node">
<title>Node4</title>
<g id="a_Node000004"><a xlink:href="class_async_client.html#aff6a2fbf261b25e1fcd35c11cce348a5" target="_top" xlink:title=" ">
<polygon fill="white" stroke="#666666" points="501.25,-184 404.25,-184 404.25,-152 501.25,-152 501.25,-184"/>
<text xml:space="preserve" text-anchor="start" x="412.25" y="-170.5" font-family="Helvetica,sans-Serif" font-size="10.00">AsyncClient::_free</text>
<text xml:space="preserve" text-anchor="middle" x="452.75" y="-158.5" font-family="Helvetica,sans-Serif" font-size="10.00">_closed_slot</text>
</a>
</g>
</g>
<!-- Node3&#45;&gt;Node4 -->
<g id="edge3_Node000003_Node000004" class="edge">
<title>Node3&#45;&gt;Node4</title>
<g id="a_edge3_Node000003_Node000004"><a xlink:title=" ">
<path fill="none" stroke="#63b8ff" d="M332.16,-96.33C349.23,-108.11 378.3,-127.7 404.25,-143 406.09,-144.08 407.97,-145.17 409.89,-146.26"/>
<polygon fill="#63b8ff" stroke="#63b8ff" points="407.81,-149.11 418.26,-150.87 411.19,-142.98 407.81,-149.11"/>
</a>
</g>
</g>
<!-- Node5 -->
<g id="Node000005" class="node">
<title>Node5</title>
<g id="a_Node000005"><a xlink:href="_async_t_c_p_8cpp.html#ab053d5adb5be879f37181af512213bb6" target="_top" xlink:title=" ">
<polygon fill="#fff0f0" stroke="red" points="500.5,-134 405,-134 405,-114 500.5,-114 500.5,-134"/>
<text xml:space="preserve" text-anchor="middle" x="452.75" y="-120.5" font-family="Helvetica,sans-Serif" font-size="10.00">_tcp_clear_events</text>
</a>
</g>
</g>
<!-- Node3&#45;&gt;Node5 -->
<g id="edge4_Node000003_Node000005" class="edge">
<title>Node3&#45;&gt;Node5</title>
<g id="a_edge4_Node000003_Node000005"><a xlink:title=" ">
<path fill="none" stroke="#63b8ff" d="M354.45,-96.48C369.72,-100.8 387.62,-105.86 403.86,-110.46"/>
<polygon fill="#63b8ff" stroke="#63b8ff" points="402.77,-113.78 413.34,-113.14 404.67,-107.05 402.77,-113.78"/>
</a>
</g>
</g>
<!-- Node7 -->
<g id="Node000007" class="node">
<title>Node7</title>
<g id="a_Node000007"><a xlink:href="_async_t_c_p_8cpp.html#a3602c1ebfae2fb2ff64a0e3d7b0568ce" target="_top" xlink:title=" ">
<polygon fill="#fff0f0" stroke="red" points="484.38,-96 421.12,-96 421.12,-76 484.38,-76 484.38,-96"/>
<text xml:space="preserve" text-anchor="middle" x="452.75" y="-82.5" font-family="Helvetica,sans-Serif" font-size="10.00">_tcp_close</text>
</a>
</g>
</g>
<!-- Node3&#45;&gt;Node7 -->
<g id="edge5_Node000003_Node000007" class="edge">
<title>Node3&#45;&gt;Node7</title>
<g id="a_edge5_Node000003_Node000007"><a xlink:title=" ">
<path fill="none" stroke="#63b8ff" d="M368.56,-86C382.07,-86 396.51,-86 409.49,-86"/>
<polygon fill="#63b8ff" stroke="#63b8ff" points="409.43,-89.5 419.43,-86 409.43,-82.5 409.43,-89.5"/>
</a>
</g>
</g>
<!-- Node9 -->
<g id="Node000009" class="node">
<title>Node9</title>
<g id="a_Node000009"><a xlink:href="class_async_client.html#a09e777ff005d8e0f81166e704dc14979" target="_top" xlink:title=" ">
<polygon fill="#fff0f0" stroke="red" points="501.25,-58 404.25,-58 404.25,-38 501.25,-38 501.25,-58"/>
<text xml:space="preserve" text-anchor="middle" x="452.75" y="-44.5" font-family="Helvetica,sans-Serif" font-size="10.00">AsyncClient::abort</text>
</a>
</g>
</g>
<!-- Node3&#45;&gt;Node9 -->
<g id="edge6_Node000003_Node000009" class="edge">
<title>Node3&#45;&gt;Node9</title>
<g id="a_edge6_Node000003_Node000009"><a xlink:title=" ">
<path fill="none" stroke="#63b8ff" d="M354.45,-75.52C369.72,-71.2 387.62,-66.14 403.86,-61.54"/>
<polygon fill="#63b8ff" stroke="#63b8ff" points="404.67,-64.95 413.34,-58.86 402.77,-58.22 404.67,-64.95"/>
</a>
</g>
</g>
<!-- Node13 -->
<g id="Node000013" class="node">
<title>Node13</title>
<g id="a_Node000013"><a xlink:href="_async_t_c_p_8cpp.html#ac6939df8a76eab232541be004e935be2" target="_top" xlink:title=" ">
<polygon fill="white" stroke="#666666" points="496.38,-20 409.12,-20 409.12,0 496.38,0 496.38,-20"/>
<text xml:space="preserve" text-anchor="middle" x="452.75" y="-6.5" font-family="Helvetica,sans-Serif" font-size="10.00">_tcp_recved_api</text>
</a>
</g>
</g>
<!-- Node12&#45;&gt;Node13 -->
<g id="edge8_Node000012_Node000013" class="edge">
<title>Node12&#45;&gt;Node13</title>
<g id="a_edge8_Node000012_Node000013"><a xlink:title=" ">
<path fill="none" stroke="#63b8ff" d="M351.28,-24.21C365.3,-22.22 381.9,-19.88 397.52,-17.67"/>
<polygon fill="#63b8ff" stroke="#63b8ff" points="397.77,-21.17 407.18,-16.3 396.79,-14.24 397.77,-21.17"/>
</a>
</g>
</g>
</g>
</svg>
