<?xml version="1.0" encoding="UTF-8" standalone="no"?>
<!DOCTYPE svg PUBLIC "-//W3C//DTD SVG 1.1//EN"
 "http://www.w3.org/Graphics/SVG/1.1/DTD/svg11.dtd">
<!-- Generated by graphviz version 14.1.2 (20260124.0452)
 -->
<!-- Title: AsyncTelnet Pages: 1 -->
<svg width="211pt" height="116pt"
 viewBox="0.00 0.00 211.00 116.00" xmlns="http://www.w3.org/2000/svg" xmlns:xlink="http://www.w3.org/1999/xlink">
<g id="graph0" class="graph" transform="scale(1 1) rotate(0) translate(4 112)">
<title>AsyncTelnet</title>
<!-- Node1 -->
<g id="Node000001" class="node">
<title>Node1</title>
<g id="a_Node000001"><a xlink:title=" ">
<polygon fill="#999999" stroke="#666666" points="99.12,-20 29.12,-20 29.12,0 99.12,0 99.12,-20"/>
<text xml:space="preserve" text-anchor="middle" x="64.12" y="-6.5" font-family="Helvetica,sans-Serif" font-size="10.00">AsyncTelnet</text>
</a>
</g>
</g>
<!-- Node2 -->
<g id="Node000002" class="node">
<title>Node2</title>
<g id="a_Node000002"><a xlink:href="class_async_server.html" target="_top" xlink:title=" ">
<polygon fill="white" stroke="#666666" points="72.25,-101 0,-101 0,-81 72.25,-81 72.25,-101"/>
<text xml:space="preserve" text-anchor="middle" x="36.12" y="-87.5" font-family="Helvetica,sans-Serif" font-size="10.00">AsyncServer</text>
</a>
</g>
</g>
<!-- Node2&#45;&gt;Node1 -->
<g id="edge1_Node000001_Node000002" class="edge">
<title>Node2&#45;&gt;Node1</title>
<g id="a_edge1_Node000001_Node000002"><a xlink:title=" ">
<path fill="none" stroke="#9a32cd" stroke-dasharray="5,2" d="M42.36,-69.81C45.44,-60.14 49.31,-48.41 53.12,-38 55.29,-32.11 57.93,-25.59 60.09,-20.43"/>
<polygon fill="#9a32cd" stroke="#9a32cd" points="39.04,-68.69 39.39,-79.28 45.72,-70.79 39.04,-68.69"/>
</a>
</g>
<text xml:space="preserve" text-anchor="start" x="56.12" y="-43.5" font-family="Helvetica,sans-Serif" font-size="10.00" fill="grey">server</text>
</g>
<!-- Node3 -->
<g id="Node000003" class="node">
<title>Node3</title>
<g id="a_Node000003"><a xlink:href="class_async_client.html" target="_top" xlink:title=" ">
<polygon fill="white" stroke="#666666" points="159.75,-101 90.5,-101 90.5,-81 159.75,-81 159.75,-101"/>
<text xml:space="preserve" text-anchor="middle" x="125.12" y="-87.5" font-family="Helvetica,sans-Serif" font-size="10.00">AsyncClient</text>
</a>
</g>
</g>
<!-- Node3&#45;&gt;Node1 -->
<g id="edge2_Node000001_Node000003" class="edge">
<title>Node3&#45;&gt;Node1</title>
<g id="a_edge2_Node000001_Node000003"><a xlink:title=" ">
<path fill="none" stroke="#9a32cd" stroke-dasharray="5,2" d="M111.68,-71.69C104.24,-61.67 94.78,-49.07 86.12,-38 81.51,-32.09 76.2,-25.57 71.96,-20.42"/>
<polygon fill="#9a32cd" stroke="#9a32cd" points="108.68,-73.53 117.43,-79.49 114.31,-69.37 108.68,-73.53"/>
</a>
</g>
<text xml:space="preserve" text-anchor="start" x="102.19" y="-43.5" font-family="Helvetica,sans-Serif" font-size="10.00" fill="grey">client</text>
</g>
<!-- Node3&#45;&gt;Node3 -->
<g id="edge3_Node000003_Node000003" class="edge">
<title>Node3&#45;&gt;Node3</title>
<g id="a_edge3_Node000003_Node000003"><a xlink:title=" ">
<path fill="none" stroke="#9a32cd" stroke-dasharray="5,2" d="M171.4,-97.41C175.31,-96.04 177.75,-93.9 177.75,-91 177.75,-85.84 170.04,-83.1 160.04,-82.78"/>
<polygon fill="#9a32cd" stroke="#9a32cd" points="170.86,-93.95 161.54,-98.98 171.97,-100.86 170.86,-93.95"/>
</a>
</g>
<text xml:space="preserve" text-anchor="start" x="180.75" y="-95.5" font-family="Helvetica,sans-Serif" font-size="10.00" fill="grey">next</text>
<text xml:space="preserve" text-anchor="start" x="180.75" y="-79.5" font-family="Helvetica,sans-Serif" font-size="10.00" fill="grey">prev</text>
</g>
</g>
</svg>
