<?xml version="1.0" encoding="UTF-8" standalone="no"?>
<!DOCTYPE svg PUBLIC "-//W3C//DTD SVG 1.1//EN"
 "http://www.w3.org/Graphics/SVG/1.1/DTD/svg11.dtd">
<!-- Generated by graphviz version 14.1.2 (20260124.0452)
 -->
<!-- Title: AsyncClient::send Pages: 1 -->
<svg width="370pt" height="85pt"
 viewBox="0.00 0.00 370.00 85.00" xmlns="http://www.w3.org/2000/svg" xmlns:xlink="http://www.w3.org/1999/xlink">

<svg id="main" version="1.1" xmlns="http://www.w3.org/2000/svg" xmlns:xlink="http://www.w3.org/1999/xlink" xml:space="preserve">

<style type="text/css"><![CDATA[
.node, .edge {opacity: 0.7;}
.node.selected, .edge.selected {opacity: 1;}
.edge:hover path { stroke: red; }
.edge:hover polygon { stroke: red; fill: red; }
]]></style>
<script type="application/ecmascript" xlink:href="svg.min.js"/>
<svg id="graph" class="graph">
<g id="graph0" class="graph" transform="scale(1 1) rotate(0) translate(4 81)">
<title>AsyncClient::send</title>
<!-- Node1 -->
<g id="Node000001" class="node">
<title>Node1</title>
<g id="a_Node000001"><a xlink:title="send data previously add()&#39;ed">
<polygon fill="#999999" stroke="#666666" points="362.25,-39 266,-39 266,-19 362.25,-19 362.25,-39"/>
<text xml:space="preserve" text-anchor="middle" x="314.12" y="-25.5" font-family="Helvetica,sans-Serif" font-size="10.00">AsyncClient::send</text>
</a>
</g>
</g>
<!-- Node2 -->
<g id="Node000002" class="node">
<title>Node2</title>
<g id="a_Node000002"><a xlink:href="class_async_client.html#a287fe3b09d815afc3351674a11843ce9" target="_top" xlink:title="add and enqueue data for sending">
<polygon fill="white" stroke="#666666" points="229.62,-58 133.38,-58 133.38,-38 229.62,-38 229.62,-58"/>
<text xml:space="preserve" text-anchor="middle" x="181.5" y="-44.5" font-family="Helvetica,sans-Serif" font-size="10.00">AsyncClient::write</text>
</a>
</g>
</g>
<!-- Node1&#45;&gt;Node2 -->
<g id="edge1_Node000001_Node000002" class="edge">
<title>Node1&#45;&gt;Node2</title>
<g id="a_edge1_Node000001_Node000002"><a xlink:title=" ">
<path fill="none" stroke="#63b8ff" d="M254.46,-37.53C246.2,-38.73 237.79,-39.96 229.77,-41.12"/>
<polygon fill="#63b8ff" stroke="#63b8ff" points="254.71,-41.03 264.1,-36.13 253.7,-34.11 254.71,-41.03"/>
</a>
</g>
</g>
<!-- Node5 -->
<g id="Node000005" class="node">
<title>Node5</title>
<g id="a_Node000005"><a xlink:href="class_async_telnet.html#a21f1c9c4bb3b162eff4786c77aea5ef1" target="_top" xlink:title=" ">
<polygon fill="white" stroke="#666666" points="230,-20 133,-20 133,0 230,0 230,-20"/>
<text xml:space="preserve" text-anchor="middle" x="181.5" y="-6.5" font-family="Helvetica,sans-Serif" font-size="10.00">AsyncTelnet::write</text>
</a>
</g>
</g>
<!-- Node1&#45;&gt;Node5 -->
<g id="edge4_Node000001_Node000005" class="edge">
<title>Node1&#45;&gt;Node5</title>
<g id="a_edge4_Node000001_Node000005"><a xlink:title=" ">
<path fill="none" stroke="#63b8ff" d="M254.33,-20.45C246.26,-19.27 238.05,-18.08 230.21,-16.94"/>
<polygon fill="#63b8ff" stroke="#63b8ff" points="253.7,-23.89 264.1,-21.87 254.71,-16.97 253.7,-23.89"/>
</a>
</g>
</g>
<!-- Node3 -->
<g id="Node000003" class="node">
<title>Node3</title>
<g id="a_Node000003"><a xlink:href="class_async_client.html#a83b5abb57799a9584f8fccce1d31db8c" target="_top" xlink:title="add and enque data for sending">
<polygon fill="white" stroke="#666666" points="96.62,-77 0.38,-77 0.38,-57 96.62,-57 96.62,-77"/>
<text xml:space="preserve" text-anchor="middle" x="48.5" y="-63.5" font-family="Helvetica,sans-Serif" font-size="10.00">AsyncClient::write</text>
</a>
</g>
</g>
<!-- Node2&#45;&gt;Node3 -->
<g id="edge2_Node000002_Node000003" class="edge">
<title>Node2&#45;&gt;Node3</title>
<g id="a_edge2_Node000002_Node000003"><a xlink:title=" ">
<path fill="none" stroke="#63b8ff" d="M121.87,-56.5C113.46,-57.72 104.88,-58.97 96.72,-60.15"/>
<polygon fill="#63b8ff" stroke="#63b8ff" points="122.31,-59.98 131.71,-55.08 121.31,-53.05 122.31,-59.98"/>
</a>
</g>
</g>
<!-- Node4 -->
<g id="Node000004" class="node">
<title>Node4</title>
<g id="a_Node000004"><a xlink:href="class_async_telnet.html#a0a0ac25f8d25533aa5482a1715ffe750" target="_top" xlink:title=" ">
<polygon fill="white" stroke="#666666" points="97,-39 0,-39 0,-19 97,-19 97,-39"/>
<text xml:space="preserve" text-anchor="middle" x="48.5" y="-25.5" font-family="Helvetica,sans-Serif" font-size="10.00">AsyncTelnet::write</text>
</a>
</g>
</g>
<!-- Node2&#45;&gt;Node4 -->
<g id="edge3_Node000002_Node000004" class="edge">
<title>Node2&#45;&gt;Node4</title>
<g id="a_edge3_Node000002_Node000004"><a xlink:title=" ">
<path fill="none" stroke="#63b8ff" d="M122.02,-39.52C113.7,-38.31 105.24,-37.08 97.16,-35.91"/>
<polygon fill="#63b8ff" stroke="#63b8ff" points="121.31,-42.95 131.71,-40.92 122.31,-36.02 121.31,-42.95"/>
</a>
</g>
</g>
</g>
</svg>
</svg>

<style type='text/css'>
<![CDATA[
[data-mouse-over-selected='false'] { opacity: 0.7; }
[data-mouse-over-selected='true']  { opacity: 1.0; }
]]>
</style>
<script type="application/ecmascript"><![CDATA[
document.addEventListener('DOMContentLoaded', (event) => {
  highlightEdges();
  highlightAdjacentNodes();
});
]]></script>
</svg>
