<?xml version="1.0" encoding="UTF-8" standalone="no"?>
<!DOCTYPE svg PUBLIC "-//W3C//DTD SVG 1.1//EN"
 "http://www.w3.org/Graphics/SVG/1.1/DTD/svg11.dtd">
<!-- Generated by graphviz version 14.1.2 (20260124.0452)
 -->
<!-- Title: AsyncClient::space Pages: 1 -->
<svg width="525pt" height="104pt"
 viewBox="0.00 0.00 525.00 104.00" xmlns="http://www.w3.org/2000/svg" xmlns:xlink="http://www.w3.org/1999/xlink">
<g id="graph0" class="graph" transform="scale(1 1) rotate(0) translate(4 100)">
<title>AsyncClient::space</title>
<!-- Node1 -->
<g id="Node000001" class="node">
<title>Node1</title>
<g id="a_Node000001"><a xlink:title=" ">
<polygon fill="#999999" stroke="#666666" points="517,-39 415.5,-39 415.5,-19 517,-19 517,-39"/>
<text xml:space="preserve" text-anchor="middle" x="466.25" y="-25.5" font-family="Helvetica,sans-Serif" font-size="10.00">AsyncClient::space</text>
</a>
</g>
</g>
<!-- Node2 -->
<g id="Node000002" class="node">
<title>Node2</title>
<g id="a_Node000002"><a xlink:href="class_async_client.html#af4b403851a81a5bf272a0e4a46796044" target="_top" xlink:title="add data to be send (but do not send yet)">
<polygon fill="white" stroke="#666666" points="368.25,-58 277.25,-58 277.25,-38 368.25,-38 368.25,-58"/>
<text xml:space="preserve" text-anchor="middle" x="322.75" y="-44.5" font-family="Helvetica,sans-Serif" font-size="10.00">AsyncClient::add</text>
</a>
</g>
</g>
<!-- Node1&#45;&gt;Node2 -->
<g id="edge1_Node000001_Node000002" class="edge">
<title>Node1&#45;&gt;Node2</title>
<g id="a_edge1_Node000001_Node000002"><a xlink:title=" ">
<path fill="none" stroke="#63b8ff" d="M404.06,-37.22C392.1,-38.82 379.77,-40.48 368.47,-41.99"/>
<polygon fill="#63b8ff" stroke="#63b8ff" points="404.42,-40.7 413.86,-35.9 403.49,-33.76 404.42,-40.7"/>
</a>
</g>
</g>
<!-- Node7 -->
<g id="Node000007" class="node">
<title>Node7</title>
<g id="a_Node000007"><a xlink:href="class_async_client.html#acd05c724494c44f7fb5d8f730d026b8e" target="_top" xlink:title=" ">
<polygon fill="white" stroke="#666666" points="379.5,-20 266,-20 266,0 379.5,0 379.5,-20"/>
<text xml:space="preserve" text-anchor="middle" x="322.75" y="-6.5" font-family="Helvetica,sans-Serif" font-size="10.00">AsyncClient::canSend</text>
</a>
</g>
</g>
<!-- Node1&#45;&gt;Node7 -->
<g id="edge6_Node000001_Node000007" class="edge">
<title>Node1&#45;&gt;Node7</title>
<g id="a_edge6_Node000001_Node000007"><a xlink:title=" ">
<path fill="none" stroke="#63b8ff" d="M404.15,-20.8C396.11,-19.72 387.9,-18.61 379.94,-17.55"/>
<polygon fill="#63b8ff" stroke="#63b8ff" points="403.49,-24.24 413.86,-22.1 404.42,-17.3 403.49,-24.24"/>
</a>
</g>
</g>
<!-- Node3 -->
<g id="Node000003" class="node">
<title>Node3</title>
<g id="a_Node000003"><a xlink:href="class_async_client.html#a287fe3b09d815afc3351674a11843ce9" target="_top" xlink:title="add and enqueue data for sending">
<polygon fill="white" stroke="#666666" points="229.62,-77 133.38,-77 133.38,-57 229.62,-57 229.62,-77"/>
<text xml:space="preserve" text-anchor="middle" x="181.5" y="-63.5" font-family="Helvetica,sans-Serif" font-size="10.00">AsyncClient::write</text>
</a>
</g>
</g>
<!-- Node2&#45;&gt;Node3 -->
<g id="edge2_Node000002_Node000003" class="edge">
<title>Node2&#45;&gt;Node3</title>
<g id="a_edge2_Node000002_Node000003"><a xlink:title=" ">
<path fill="none" stroke="#63b8ff" d="M265.8,-55.63C253.98,-57.25 241.61,-58.94 230.12,-60.5"/>
<polygon fill="#63b8ff" stroke="#63b8ff" points="265.99,-59.14 275.42,-54.32 265.04,-52.21 265.99,-59.14"/>
</a>
</g>
</g>
<!-- Node6 -->
<g id="Node000006" class="node">
<title>Node6</title>
<g id="a_Node000006"><a xlink:href="class_async_telnet.html#a21f1c9c4bb3b162eff4786c77aea5ef1" target="_top" xlink:title=" ">
<polygon fill="white" stroke="#666666" points="230,-39 133,-39 133,-19 230,-19 230,-39"/>
<text xml:space="preserve" text-anchor="middle" x="181.5" y="-25.5" font-family="Helvetica,sans-Serif" font-size="10.00">AsyncTelnet::write</text>
</a>
</g>
</g>
<!-- Node2&#45;&gt;Node6 -->
<g id="edge5_Node000002_Node000006" class="edge">
<title>Node2&#45;&gt;Node6</title>
<g id="a_edge5_Node000002_Node000006"><a xlink:title=" ">
<path fill="none" stroke="#63b8ff" d="M265.8,-40.37C253.98,-38.75 241.61,-37.06 230.12,-35.5"/>
<polygon fill="#63b8ff" stroke="#63b8ff" points="265.04,-43.79 275.42,-41.68 265.99,-36.86 265.04,-43.79"/>
</a>
</g>
</g>
<!-- Node4 -->
<g id="Node000004" class="node">
<title>Node4</title>
<g id="a_Node000004"><a xlink:href="class_async_client.html#a83b5abb57799a9584f8fccce1d31db8c" target="_top" xlink:title="add and enque data for sending">
<polygon fill="white" stroke="#666666" points="96.62,-96 0.38,-96 0.38,-76 96.62,-76 96.62,-96"/>
<text xml:space="preserve" text-anchor="middle" x="48.5" y="-82.5" font-family="Helvetica,sans-Serif" font-size="10.00">AsyncClient::write</text>
</a>
</g>
</g>
<!-- Node3&#45;&gt;Node4 -->
<g id="edge3_Node000003_Node000004" class="edge">
<title>Node3&#45;&gt;Node4</title>
<g id="a_edge3_Node000003_Node000004"><a xlink:title=" ">
<path fill="none" stroke="#63b8ff" d="M121.87,-75.5C113.46,-76.72 104.88,-77.97 96.72,-79.15"/>
<polygon fill="#63b8ff" stroke="#63b8ff" points="122.31,-78.98 131.71,-74.08 121.31,-72.05 122.31,-78.98"/>
</a>
</g>
</g>
<!-- Node5 -->
<g id="Node000005" class="node">
<title>Node5</title>
<g id="a_Node000005"><a xlink:href="class_async_telnet.html#a0a0ac25f8d25533aa5482a1715ffe750" target="_top" xlink:title=" ">
<polygon fill="white" stroke="#666666" points="97,-58 0,-58 0,-38 97,-38 97,-58"/>
<text xml:space="preserve" text-anchor="middle" x="48.5" y="-44.5" font-family="Helvetica,sans-Serif" font-size="10.00">AsyncTelnet::write</text>
</a>
</g>
</g>
<!-- Node3&#45;&gt;Node5 -->
<g id="edge4_Node000003_Node000005" class="edge">
<title>Node3&#45;&gt;Node5</title>
<g id="a_edge4_Node000003_Node000005"><a xlink:title=" ">
<path fill="none" stroke="#63b8ff" d="M122.02,-58.52C113.7,-57.31 105.24,-56.08 97.16,-54.91"/>
<polygon fill="#63b8ff" stroke="#63b8ff" points="121.31,-61.95 131.71,-59.92 122.31,-55.02 121.31,-61.95"/>
</a>
</g>
</g>
</g>
</svg>
