<?xml version="1.0" encoding="UTF-8" standalone="no"?>
<!DOCTYPE svg PUBLIC "-//W3C//DTD SVG 1.1//EN"
 "http://www.w3.org/Graphics/SVG/1.1/DTD/svg11.dtd">
<!-- Generated by graphviz version 14.1.2 (20260124.0452)
 -->
<!-- Title: AuthSync::calcBitsetBytes Pages: 1 -->
<svg width="828pt" height="170pt"
 viewBox="0.00 0.00 828.00 170.00" xmlns="http://www.w3.org/2000/svg" xmlns:xlink="http://www.w3.org/1999/xlink">
<g id="graph0" class="graph" transform="scale(1 1) rotate(0) translate(4 166)">
<title>AuthSync::calcBitsetBytes</title>
<!-- Node1 -->
<g id="Node000001" class="node">
<title>Node1</title>
<g id="a_Node000001"><a xlink:title=" ">
<polygon fill="#999999" stroke="#666666" points="819.75,-96 686,-96 686,-76 819.75,-76 819.75,-96"/>
<text xml:space="preserve" text-anchor="middle" x="752.88" y="-82.5" font-family="Helvetica,sans-Serif" font-size="10.00">AuthSync::calcBitsetBytes</text>
</a>
</g>
</g>
<!-- Node2 -->
<g id="Node000002" class="node">
<title>Node2</title>
<g id="a_Node000002"><a xlink:href="class_auth_sync.html#a70491cf68689f4d6dc2e34ecdb385e26" target="_top" xlink:title=" ">
<polygon fill="white" stroke="#666666" points="477.25,-162 330,-162 330,-142 477.25,-142 477.25,-162"/>
<text xml:space="preserve" text-anchor="middle" x="403.62" y="-148.5" font-family="Helvetica,sans-Serif" font-size="10.00">AuthSync::dumpMemoryStats</text>
</a>
</g>
</g>
<!-- Node1&#45;&gt;Node2 -->
<g id="edge1_Node000001_Node000002" class="edge">
<title>Node1&#45;&gt;Node2</title>
<g id="a_edge1_Node000001_Node000002"><a xlink:title=" ">
<path fill="none" stroke="#63b8ff" d="M728.95,-103.04C709.17,-116.66 679.25,-134.8 650,-143 593.67,-158.8 527.21,-160.24 477.67,-158.18"/>
<polygon fill="#63b8ff" stroke="#63b8ff" points="730.94,-105.91 737.07,-97.27 726.89,-100.2 730.94,-105.91"/>
</a>
</g>
</g>
<!-- Node4 -->
<g id="Node000004" class="node">
<title>Node4</title>
<g id="a_Node000004"><a xlink:href="class_auth_sync.html#a4e08ccddae724260659933a380255ddb" target="_top" xlink:title=" ">
<polygon fill="white" stroke="#666666" points="650,-134 513.25,-134 513.25,-114 650,-114 650,-134"/>
<text xml:space="preserve" text-anchor="middle" x="581.62" y="-120.5" font-family="Helvetica,sans-Serif" font-size="10.00">AuthSync::getMemoryUsed</text>
</a>
</g>
</g>
<!-- Node1&#45;&gt;Node4 -->
<g id="edge3_Node000001_Node000004" class="edge">
<title>Node1&#45;&gt;Node4</title>
<g id="a_edge3_Node000001_Node000004"><a xlink:title=" ">
<path fill="none" stroke="#63b8ff" d="M694.04,-98.98C672.88,-103.74 649.22,-109.05 629.17,-113.55"/>
<polygon fill="#63b8ff" stroke="#63b8ff" points="694.71,-102.42 703.7,-96.82 693.18,-95.59 694.71,-102.42"/>
</a>
</g>
</g>
<!-- Node5 -->
<g id="Node000005" class="node">
<title>Node5</title>
<g id="a_Node000005"><a xlink:href="class_auth_sync.html#ad506895350cf1efcf89c0b72a7fe0a67" target="_top" xlink:title=" ">
<polygon fill="white" stroke="#666666" points="638.38,-96 524.88,-96 524.88,-76 638.38,-76 638.38,-96"/>
<text xml:space="preserve" text-anchor="middle" x="581.62" y="-82.5" font-family="Helvetica,sans-Serif" font-size="10.00">AuthSync::readByteAt</text>
</a>
</g>
</g>
<!-- Node1&#45;&gt;Node5 -->
<g id="edge4_Node000001_Node000005" class="edge">
<title>Node1&#45;&gt;Node5</title>
<g id="a_edge4_Node000001_Node000005"><a xlink:title=" ">
<path fill="none" stroke="#63b8ff" d="M674.5,-86C662.46,-86 650.22,-86 638.76,-86"/>
<polygon fill="#63b8ff" stroke="#63b8ff" points="674.44,-89.5 684.44,-86 674.44,-82.5 674.44,-89.5"/>
</a>
</g>
</g>
<!-- Node6 -->
<g id="Node000006" class="node">
<title>Node6</title>
<g id="a_Node000006"><a xlink:href="class_auth_sync.html#ab2999f3e828083471d482f9bde0d72f2" target="_top" xlink:title=" ">
<polygon fill="white" stroke="#666666" points="472,-58 335.25,-58 335.25,-38 472,-38 472,-58"/>
<text xml:space="preserve" text-anchor="middle" x="403.62" y="-44.5" font-family="Helvetica,sans-Serif" font-size="10.00">AuthSync::syncFromServer</text>
</a>
</g>
</g>
<!-- Node1&#45;&gt;Node6 -->
<g id="edge5_Node000001_Node000006" class="edge">
<title>Node1&#45;&gt;Node6</title>
<g id="a_edge5_Node000001_Node000006"><a xlink:title=" ">
<path fill="none" stroke="#63b8ff" d="M690.54,-73.46C677.22,-71.05 663.17,-68.73 650,-67 590.16,-59.13 521.66,-54.16 472.26,-51.28"/>
<polygon fill="#63b8ff" stroke="#63b8ff" points="689.56,-76.84 700.04,-75.23 690.84,-69.96 689.56,-76.84"/>
</a>
</g>
</g>
<!-- Node10 -->
<g id="Node000010" class="node">
<title>Node10</title>
<g id="a_Node000010"><a xlink:href="class_auth_sync.html#a756e144d847c736d9932311d101a8a8f" target="_top" xlink:title=" ">
<polygon fill="white" stroke="#666666" points="639.5,-20 523.75,-20 523.75,0 639.5,0 639.5,-20"/>
<text xml:space="preserve" text-anchor="middle" x="581.62" y="-6.5" font-family="Helvetica,sans-Serif" font-size="10.00">AuthSync::writeByteAt</text>
</a>
</g>
</g>
<!-- Node1&#45;&gt;Node10 -->
<g id="edge11_Node000001_Node000010" class="edge">
<title>Node1&#45;&gt;Node10</title>
<g id="a_edge11_Node000001_Node000010"><a xlink:title=" ">
<path fill="none" stroke="#63b8ff" d="M723.38,-70.2C703.21,-59.32 675.35,-44.93 650,-34 638.6,-29.08 625.82,-24.35 614.49,-20.4"/>
<polygon fill="#63b8ff" stroke="#63b8ff" points="721.66,-73.25 732.12,-74.95 725.01,-67.1 721.66,-73.25"/>
</a>
</g>
</g>
<!-- Node3 -->
<g id="Node000003" class="node">
<title>Node3</title>
<g id="a_Node000003"><a xlink:href="main_8cpp.html#a4fc01d736fe50cf5b977f755b675f11d" target="_top" xlink:title=" ">
<polygon fill="white" stroke="#666666" points="40,-96 0,-96 0,-76 40,-76 40,-96"/>
<text xml:space="preserve" text-anchor="middle" x="20" y="-82.5" font-family="Helvetica,sans-Serif" font-size="10.00">setup</text>
</a>
</g>
</g>
<!-- Node2&#45;&gt;Node3 -->
<g id="edge2_Node000002_Node000003" class="edge">
<title>Node2&#45;&gt;Node3</title>
<g id="a_edge2_Node000002_Node000003"><a xlink:title=" ">
<path fill="none" stroke="#63b8ff" d="M318.31,-144.31C251.85,-137.19 157.19,-124.68 76,-105 63.92,-102.07 50.76,-97.57 40.33,-93.69"/>
<polygon fill="#63b8ff" stroke="#63b8ff" points="317.73,-147.77 328.04,-145.33 318.46,-140.81 317.73,-147.77"/>
</a>
</g>
</g>
<!-- Node7 -->
<g id="Node000007" class="node">
<title>Node7</title>
<g id="a_Node000007"><a xlink:href="class_auth_sync.html#a6834600967f5b023e9810fc2293d2c51" target="_top" xlink:title=" ">
<polygon fill="white" stroke="#666666" points="164,-96 76,-96 76,-76 164,-76 164,-96"/>
<text xml:space="preserve" text-anchor="middle" x="120" y="-82.5" font-family="Helvetica,sans-Serif" font-size="10.00">AuthSync::begin</text>
</a>
</g>
</g>
<!-- Node6&#45;&gt;Node7 -->
<g id="edge6_Node000006_Node000007" class="edge">
<title>Node6&#45;&gt;Node7</title>
<g id="a_edge6_Node000006_Node000007"><a xlink:title=" ">
<path fill="none" stroke="#63b8ff" d="M335.34,-60.46C321.69,-62.79 307.4,-65.09 294,-67 250.03,-73.25 199.51,-78.59 164.47,-82"/>
<polygon fill="#63b8ff" stroke="#63b8ff" points="335.89,-63.91 345.14,-58.76 334.69,-57.02 335.89,-63.91"/>
</a>
</g>
</g>
<!-- Node8 -->
<g id="Node000008" class="node">
<title>Node8</title>
<g id="a_Node000008"><a xlink:href="class_auth_sync.html#a19dac50eb59905f92b7da75d12f5f309" target="_top" xlink:title=" ">
<polygon fill="white" stroke="#666666" points="294,-58 200,-58 200,-38 294,-38 294,-58"/>
<text xml:space="preserve" text-anchor="middle" x="247" y="-44.5" font-family="Helvetica,sans-Serif" font-size="10.00">AuthSync::update</text>
</a>
</g>
</g>
<!-- Node6&#45;&gt;Node8 -->
<g id="edge8_Node000006_Node000008" class="edge">
<title>Node6&#45;&gt;Node8</title>
<g id="a_edge8_Node000006_Node000008"><a xlink:title=" ">
<path fill="none" stroke="#63b8ff" d="M323.57,-48C313.6,-48 303.67,-48 294.44,-48"/>
<polygon fill="#63b8ff" stroke="#63b8ff" points="323.29,-51.5 333.29,-48 323.29,-44.5 323.29,-51.5"/>
</a>
</g>
</g>
<!-- Node7&#45;&gt;Node3 -->
<g id="edge7_Node000007_Node000003" class="edge">
<title>Node7&#45;&gt;Node3</title>
<g id="a_edge7_Node000007_Node000003"><a xlink:title=" ">
<path fill="none" stroke="#63b8ff" d="M64.25,-86C55.55,-86 47.1,-86 40,-86"/>
<polygon fill="#63b8ff" stroke="#63b8ff" points="64.22,-89.5 74.22,-86 64.22,-82.5 64.22,-89.5"/>
</a>
</g>
</g>
<!-- Node9 -->
<g id="Node000009" class="node">
<title>Node9</title>
<g id="a_Node000009"><a xlink:href="main_8cpp.html#a1752872dd104f06716cb944c1922de40" target="_top" xlink:title=" ">
<polygon fill="white" stroke="#666666" points="156.88,-58 83.12,-58 83.12,-38 156.88,-38 156.88,-58"/>
<text xml:space="preserve" text-anchor="middle" x="120" y="-44.5" font-family="Helvetica,sans-Serif" font-size="10.00">NetworkTask</text>
</a>
</g>
</g>
<!-- Node8&#45;&gt;Node9 -->
<g id="edge9_Node000008_Node000009" class="edge">
<title>Node8&#45;&gt;Node9</title>
<g id="a_edge9_Node000008_Node000009"><a xlink:title=" ">
<path fill="none" stroke="#63b8ff" d="M188.42,-48C177.81,-48 167,-48 157.24,-48"/>
<polygon fill="#63b8ff" stroke="#63b8ff" points="188.3,-51.5 198.3,-48 188.3,-44.5 188.3,-51.5"/>
</a>
</g>
</g>
<!-- Node9&#45;&gt;Node3 -->
<g id="edge10_Node000009_Node000003" class="edge">
<title>Node9&#45;&gt;Node3</title>
<g id="a_edge10_Node000009_Node000003"><a xlink:title=" ">
<path fill="none" stroke="#63b8ff" d="M81.59,-62.5C67.59,-67.94 52.24,-73.89 40.49,-78.44"/>
<polygon fill="#63b8ff" stroke="#63b8ff" points="82.49,-65.91 90.55,-59.03 79.96,-59.38 82.49,-65.91"/>
</a>
</g>
</g>
<!-- Node10&#45;&gt;Node6 -->
<g id="edge12_Node000010_Node000006" class="edge">
<title>Node10&#45;&gt;Node6</title>
<g id="a_edge12_Node000010_Node000006"><a xlink:title=" ">
<path fill="none" stroke="#63b8ff" d="M521.1,-22.85C498.93,-27.64 474.07,-33.01 453.03,-37.55"/>
<polygon fill="#63b8ff" stroke="#63b8ff" points="521.55,-26.34 530.59,-20.8 520.07,-19.49 521.55,-26.34"/>
</a>
</g>
</g>
</g>
</svg>
