<?xml version="1.0" encoding="UTF-8" standalone="no"?>
<!DOCTYPE svg PUBLIC "-//W3C//DTD SVG 1.1//EN"
 "http://www.w3.org/Graphics/SVG/1.1/DTD/svg11.dtd">
<!-- Generated by graphviz version 14.1.2 (20260124.0452)
 -->
<!-- Title: AsyncTelnet::disconnectClient Pages: 1 -->
<svg width="561pt" height="66pt"
 viewBox="0.00 0.00 561.00 66.00" xmlns="http://www.w3.org/2000/svg" xmlns:xlink="http://www.w3.org/1999/xlink">
<g id="graph0" class="graph" transform="scale(1 1) rotate(0) translate(4 62)">
<title>AsyncTelnet::disconnectClient</title>
<!-- Node1 -->
<g id="Node000001" class="node">
<title>Node1</title>
<g id="a_Node000001"><a xlink:title=" ">
<polygon fill="#999999" stroke="#666666" points="148.75,-39 0,-39 0,-19 148.75,-19 148.75,-39"/>
<text xml:space="preserve" text-anchor="middle" x="74.38" y="-25.5" font-family="Helvetica,sans-Serif" font-size="10.00">AsyncTelnet::disconnectClient</text>
</a>
</g>
</g>
<!-- Node2 -->
<g id="Node000002" class="node">
<title>Node2</title>
<g id="a_Node000002"><a xlink:href="class_async_client.html#a4bed4e925817d1b918af2ce43fb0859e" target="_top" xlink:title=" ">
<polygon fill="white" stroke="#666666" points="278.75,-39 184.75,-39 184.75,-19 278.75,-19 278.75,-39"/>
<text xml:space="preserve" text-anchor="middle" x="231.75" y="-25.5" font-family="Helvetica,sans-Serif" font-size="10.00">AsyncClient::stop</text>
</a>
</g>
</g>
<!-- Node1&#45;&gt;Node2 -->
<g id="edge1_Node000001_Node000002" class="edge">
<title>Node1&#45;&gt;Node2</title>
<g id="a_edge1_Node000001_Node000002"><a xlink:title=" ">
<path fill="none" stroke="#63b8ff" d="M148.97,-29C157.08,-29 165.26,-29 173.14,-29"/>
<polygon fill="#63b8ff" stroke="#63b8ff" points="172.92,-32.5 182.92,-29 172.92,-25.5 172.92,-32.5"/>
</a>
</g>
</g>
<!-- Node3 -->
<g id="Node000003" class="node">
<title>Node3</title>
<g id="a_Node000003"><a xlink:href="class_async_client.html#a0305fe0b036257c03829ceaa5cc43361" target="_top" xlink:title="close connection">
<polygon fill="white" stroke="#666666" points="413.25,-39 314.75,-39 314.75,-19 413.25,-19 413.25,-39"/>
<text xml:space="preserve" text-anchor="middle" x="364" y="-25.5" font-family="Helvetica,sans-Serif" font-size="10.00">AsyncClient::close</text>
</a>
</g>
</g>
<!-- Node2&#45;&gt;Node3 -->
<g id="edge2_Node000002_Node000003" class="edge">
<title>Node2&#45;&gt;Node3</title>
<g id="a_edge2_Node000002_Node000003"><a xlink:title=" ">
<path fill="none" stroke="#63b8ff" d="M279.04,-29C286.89,-29 295.14,-29 303.28,-29"/>
<polygon fill="#63b8ff" stroke="#63b8ff" points="303.15,-32.5 313.15,-29 303.15,-25.5 303.15,-32.5"/>
</a>
</g>
</g>
<!-- Node4 -->
<g id="Node000004" class="node">
<title>Node4</title>
<g id="a_Node000004"><a xlink:href="class_async_client.html#a98ff872bc84919f006f3bb8a249ed36d" target="_top" xlink:title=" ">
<polygon fill="#fff0f0" stroke="red" points="553,-58 449.25,-58 449.25,-38 553,-38 553,-58"/>
<text xml:space="preserve" text-anchor="middle" x="501.12" y="-44.5" font-family="Helvetica,sans-Serif" font-size="10.00">AsyncClient::_close</text>
</a>
</g>
</g>
<!-- Node3&#45;&gt;Node4 -->
<g id="edge3_Node000003_Node000004" class="edge">
<title>Node3&#45;&gt;Node4</title>
<g id="a_edge3_Node000003_Node000004"><a xlink:title=" ">
<path fill="none" stroke="#63b8ff" d="M413.4,-35.81C421.23,-36.91 429.42,-38.06 437.52,-39.2"/>
<polygon fill="#63b8ff" stroke="#63b8ff" points="436.98,-42.66 447.37,-40.58 437.95,-35.72 436.98,-42.66"/>
</a>
</g>
</g>
<!-- Node13 -->
<g id="Node000013" class="node">
<title>Node13</title>
<g id="a_Node000013"><a xlink:href="_async_t_c_p_8cpp.html#acfb3f5bacaaabd2c616896510fd1f10b" target="_top" xlink:title=" ">
<polygon fill="#fff0f0" stroke="red" points="535.75,-20 466.5,-20 466.5,0 535.75,0 535.75,-20"/>
<text xml:space="preserve" text-anchor="middle" x="501.12" y="-6.5" font-family="Helvetica,sans-Serif" font-size="10.00">_tcp_recved</text>
</a>
</g>
</g>
<!-- Node3&#45;&gt;Node13 -->
<g id="edge4_Node000003_Node000013" class="edge">
<title>Node3&#45;&gt;Node13</title>
<g id="a_edge4_Node000003_Node000013"><a xlink:title=" ">
<path fill="none" stroke="#63b8ff" d="M413.4,-22.19C426.87,-20.3 441.45,-18.25 454.74,-16.38"/>
<polygon fill="#63b8ff" stroke="#63b8ff" points="455.12,-19.86 464.53,-15 454.14,-12.93 455.12,-19.86"/>
</a>
</g>
</g>
</g>
</svg>
