<?xml version="1.0" encoding="UTF-8" standalone="no"?>
<!DOCTYPE svg PUBLIC "-//W3C//DTD SVG 1.1//EN"
 "http://www.w3.org/Graphics/SVG/1.1/DTD/svg11.dtd">
<!-- Generated by graphviz version 14.1.2 (20260124.0452)
 -->
<!-- Title: AsyncClient::operator= Pages: 1 -->
<svg width="975pt" height="300pt"
 viewBox="0.00 0.00 975.00 300.00" xmlns="http://www.w3.org/2000/svg" xmlns:xlink="http://www.w3.org/1999/xlink">
<g id="graph0" class="graph" transform="scale(1 1) rotate(0) translate(4 296)">
<title>AsyncClient::operator=</title>
<!-- Node1 -->
<g id="Node000001" class="node">
<title>Node1</title>
<g id="a_Node000001"><a xlink:title=" ">
<polygon fill="#999999" stroke="#666666" points="116.5,-77 0,-77 0,-57 116.5,-57 116.5,-77"/>
<text xml:space="preserve" text-anchor="middle" x="58.25" y="-63.5" font-family="Helvetica,sans-Serif" font-size="10.00">AsyncClient::operator=</text>
</a>
</g>
</g>
<!-- Node2 -->
<g id="Node000002" class="node">
<title>Node2</title>
<g id="a_Node000002"><a xlink:href="class_async_client.html#a98ff872bc84919f006f3bb8a249ed36d" target="_top" xlink:title=" ">
<polygon fill="white" stroke="#666666" points="675.5,-248 571.75,-248 571.75,-228 675.5,-228 675.5,-248"/>
<text xml:space="preserve" text-anchor="middle" x="623.62" y="-234.5" font-family="Helvetica,sans-Serif" font-size="10.00">AsyncClient::_close</text>
</a>
</g>
</g>
<!-- Node1&#45;&gt;Node2 -->
<g id="edge1_Node000001_Node000002" class="edge">
<title>Node1&#45;&gt;Node2</title>
<g id="a_edge1_Node000001_Node000002"><a xlink:title=" ">
<path fill="none" stroke="#63b8ff" d="M67.24,-77.37C82.22,-96.27 116.33,-136.7 152.5,-162 190.39,-188.51 202.52,-193.25 247.25,-205 354.68,-233.22 484.72,-238.52 560.13,-238.89"/>
<polygon fill="#63b8ff" stroke="#63b8ff" points="559.78,-242.39 569.79,-238.91 559.79,-235.39 559.78,-242.39"/>
</a>
</g>
</g>
<!-- Node11 -->
<g id="Node000011" class="node">
<title>Node11</title>
<g id="a_Node000011"><a xlink:href="_async_t_c_p_8cpp.html#a61ff9f7f886bbbbcdc1daca453828934" target="_top" xlink:title=" ">
<polygon fill="white" stroke="#666666" points="653.38,-20 593.88,-20 593.88,0 653.38,0 653.38,-20"/>
<text xml:space="preserve" text-anchor="middle" x="623.62" y="-6.5" font-family="Helvetica,sans-Serif" font-size="10.00">_tcp_error</text>
</a>
</g>
</g>
<!-- Node1&#45;&gt;Node11 -->
<g id="edge9_Node000001_Node000011" class="edge">
<title>Node1&#45;&gt;Node11</title>
<g id="a_edge9_Node000001_Node000011"><a xlink:title=" ">
<path fill="none" stroke="#63b8ff" d="M102.21,-56.54C117.95,-53.04 135.95,-49.41 152.5,-47 310.44,-23.95 500.47,-14.55 582.12,-11.38"/>
<polygon fill="#63b8ff" stroke="#63b8ff" points="582.21,-14.88 592.08,-11 581.95,-7.88 582.21,-14.88"/>
</a>
</g>
</g>
<!-- Node13 -->
<g id="Node000013" class="node">
<title>Node13</title>
<g id="a_Node000013"><a xlink:href="_async_t_c_p_8cpp.html#ad4b2c6c935c211eef5884f25a950e445" target="_top" xlink:title=" ">
<polygon fill="white" stroke="#666666" points="651.12,-96 596.12,-96 596.12,-76 651.12,-76 651.12,-96"/>
<text xml:space="preserve" text-anchor="middle" x="623.62" y="-82.5" font-family="Helvetica,sans-Serif" font-size="10.00">_tcp_poll</text>
</a>
</g>
</g>
<!-- Node1&#45;&gt;Node13 -->
<g id="edge11_Node000001_Node000013" class="edge">
<title>Node1&#45;&gt;Node13</title>
<g id="a_edge11_Node000001_Node000013"><a xlink:title=" ">
<path fill="none" stroke="#63b8ff" d="M116.67,-63.03C206.42,-57.72 385.24,-50.73 535.75,-67 552.02,-68.76 569.71,-72.32 584.85,-75.88"/>
<polygon fill="#63b8ff" stroke="#63b8ff" points="583.85,-79.24 594.4,-78.22 585.52,-72.44 583.85,-79.24"/>
</a>
</g>
</g>
<!-- Node14 -->
<g id="Node000014" class="node">
<title>Node14</title>
<g id="a_Node000014"><a xlink:href="_async_t_c_p_8cpp.html#adf7826424bf5b1035c4850f6b3307686" target="_top" xlink:title=" ">
<polygon fill="white" stroke="#666666" points="211.25,-153 152.5,-153 152.5,-133 211.25,-133 211.25,-153"/>
<text xml:space="preserve" text-anchor="middle" x="181.88" y="-139.5" font-family="Helvetica,sans-Serif" font-size="10.00">_tcp_recv</text>
</a>
</g>
</g>
<!-- Node1&#45;&gt;Node14 -->
<g id="edge13_Node000001_Node000014" class="edge">
<title>Node1&#45;&gt;Node14</title>
<g id="a_edge13_Node000001_Node000014"><a xlink:title=" ">
<path fill="none" stroke="#63b8ff" d="M75.91,-77.41C96.29,-90.14 131.02,-111.85 154.92,-126.78"/>
<polygon fill="#63b8ff" stroke="#63b8ff" points="152.8,-129.58 163.14,-131.92 156.51,-123.65 152.8,-129.58"/>
</a>
</g>
</g>
<!-- Node18 -->
<g id="Node000018" class="node">
<title>Node18</title>
<g id="a_Node000018"><a xlink:href="class_async_client.html#aefecfa0c75c8c1b32104115e93739087" target="_top" xlink:title=" ">
<polygon fill="#fff0f0" stroke="red" points="535.75,-96 407.25,-96 407.25,-76 535.75,-76 535.75,-96"/>
<text xml:space="preserve" text-anchor="middle" x="471.5" y="-82.5" font-family="Helvetica,sans-Serif" font-size="10.00">AsyncClient::AsyncClient</text>
</a>
</g>
</g>
<!-- Node1&#45;&gt;Node18 -->
<g id="edge29_Node000001_Node000018" class="edge">
<title>Node1&#45;&gt;Node18</title>
<g id="a_edge29_Node000001_Node000018"><a xlink:title=" ">
<path fill="none" stroke="#63b8ff" d="M116.87,-69.66C189.81,-73.03 315.62,-78.84 395.85,-82.55"/>
<polygon fill="#63b8ff" stroke="#63b8ff" points="395.2,-86.02 405.35,-82.99 395.52,-79.03 395.2,-86.02"/>
</a>
</g>
</g>
<!-- Node20 -->
<g id="Node000020" class="node">
<title>Node20</title>
<g id="a_Node000020"><a xlink:href="_async_t_c_p_8cpp.html#a0b47280aff638ec9b80f7a87dfe54ea6" target="_top" xlink:title=" ">
<polygon fill="white" stroke="#666666" points="653,-58 594.25,-58 594.25,-38 653,-38 653,-58"/>
<text xml:space="preserve" text-anchor="middle" x="623.62" y="-44.5" font-family="Helvetica,sans-Serif" font-size="10.00">_tcp_sent</text>
</a>
</g>
</g>
<!-- Node1&#45;&gt;Node20 -->
<g id="edge28_Node000001_Node000020" class="edge">
<title>Node1&#45;&gt;Node20</title>
<g id="a_edge28_Node000001_Node000020"><a xlink:title=" ">
<path fill="none" stroke="#63b8ff" d="M116.85,-58.61C128.62,-57.17 140.94,-55.86 152.5,-55 311.39,-43.13 501.29,-45.29 582.54,-46.99"/>
<polygon fill="#63b8ff" stroke="#63b8ff" points="582.37,-50.49 592.44,-47.21 582.52,-43.49 582.37,-50.49"/>
</a>
</g>
</g>
<!-- Node3 -->
<g id="Node000003" class="node">
<title>Node3</title>
<g id="a_Node000003"><a xlink:href="class_async_client.html#aff6a2fbf261b25e1fcd35c11cce348a5" target="_top" xlink:title=" ">
<polygon fill="white" stroke="#666666" points="811.5,-178 714.5,-178 714.5,-146 811.5,-146 811.5,-178"/>
<text xml:space="preserve" text-anchor="start" x="722.5" y="-164.5" font-family="Helvetica,sans-Serif" font-size="10.00">AsyncClient::_free</text>
<text xml:space="preserve" text-anchor="middle" x="763" y="-152.5" font-family="Helvetica,sans-Serif" font-size="10.00">_closed_slot</text>
</a>
</g>
</g>
<!-- Node2&#45;&gt;Node3 -->
<g id="edge2_Node000002_Node000003" class="edge">
<title>Node2&#45;&gt;Node3</title>
<g id="a_edge2_Node000002_Node000003"><a xlink:title=" ">
<path fill="none" stroke="#63b8ff" d="M649.47,-227.5C657.92,-223.61 667.3,-218.94 675.5,-214 692.63,-203.68 694.47,-197.48 711.5,-187 713.31,-185.88 715.18,-184.78 717.08,-183.69"/>
<polygon fill="#63b8ff" stroke="#63b8ff" points="718.35,-186.99 725.45,-179.12 714.99,-180.84 718.35,-186.99"/>
</a>
</g>
</g>
<!-- Node4 -->
<g id="Node000004" class="node">
<title>Node4</title>
<g id="a_Node000004"><a xlink:href="_async_t_c_p_8cpp.html#ab053d5adb5be879f37181af512213bb6" target="_top" xlink:title=" ">
<polygon fill="white" stroke="#666666" points="810.75,-254 715.25,-254 715.25,-234 810.75,-234 810.75,-254"/>
<text xml:space="preserve" text-anchor="middle" x="763" y="-240.5" font-family="Helvetica,sans-Serif" font-size="10.00">_tcp_clear_events</text>
</a>
</g>
</g>
<!-- Node2&#45;&gt;Node4 -->
<g id="edge3_Node000002_Node000004" class="edge">
<title>Node2&#45;&gt;Node4</title>
<g id="a_edge3_Node000002_Node000004"><a xlink:title=" ">
<path fill="none" stroke="#63b8ff" d="M675.78,-240.23C684.79,-240.63 694.23,-241.04 703.43,-241.44"/>
<polygon fill="#63b8ff" stroke="#63b8ff" points="703.24,-244.94 713.38,-241.88 703.54,-237.94 703.24,-244.94"/>
</a>
</g>
</g>
<!-- Node6 -->
<g id="Node000006" class="node">
<title>Node6</title>
<g id="a_Node000006"><a xlink:href="_async_t_c_p_8cpp.html#a3602c1ebfae2fb2ff64a0e3d7b0568ce" target="_top" xlink:title=" ">
<polygon fill="white" stroke="#666666" points="794.62,-216 731.38,-216 731.38,-196 794.62,-196 794.62,-216"/>
<text xml:space="preserve" text-anchor="middle" x="763" y="-202.5" font-family="Helvetica,sans-Serif" font-size="10.00">_tcp_close</text>
</a>
</g>
</g>
<!-- Node2&#45;&gt;Node6 -->
<g id="edge5_Node000002_Node000006" class="edge">
<title>Node2&#45;&gt;Node6</title>
<g id="a_edge5_Node000002_Node000006"><a xlink:title=" ">
<path fill="none" stroke="#63b8ff" d="M669.61,-227.52C685.85,-223.74 704.11,-219.48 720.09,-215.76"/>
<polygon fill="#63b8ff" stroke="#63b8ff" points="720.83,-219.18 729.78,-213.51 719.24,-212.37 720.83,-219.18"/>
</a>
</g>
</g>
<!-- Node8 -->
<g id="Node000008" class="node">
<title>Node8</title>
<g id="a_Node000008"><a xlink:href="class_async_client.html#a09e777ff005d8e0f81166e704dc14979" target="_top" xlink:title=" ">
<polygon fill="white" stroke="#666666" points="811.5,-292 714.5,-292 714.5,-272 811.5,-272 811.5,-292"/>
<text xml:space="preserve" text-anchor="middle" x="763" y="-278.5" font-family="Helvetica,sans-Serif" font-size="10.00">AsyncClient::abort</text>
</a>
</g>
</g>
<!-- Node2&#45;&gt;Node8 -->
<g id="edge7_Node000002_Node000008" class="edge">
<title>Node2&#45;&gt;Node8</title>
<g id="a_edge7_Node000002_Node000008"><a xlink:title=" ">
<path fill="none" stroke="#63b8ff" d="M657.18,-248.43C675.66,-254.35 699.01,-261.83 718.98,-268.22"/>
<polygon fill="#63b8ff" stroke="#63b8ff" points="717.65,-271.47 728.24,-271.19 719.78,-264.8 717.65,-271.47"/>
</a>
</g>
</g>
<!-- Node5 -->
<g id="Node000005" class="node">
<title>Node5</title>
<g id="a_Node000005"><a xlink:href="_async_t_c_p_8cpp.html#a42bebdded16714188a8e554237aad2f3" target="_top" xlink:title=" ">
<polygon fill="white" stroke="#666666" points="967,-254 850.5,-254 850.5,-234 967,-234 967,-254"/>
<text xml:space="preserve" text-anchor="middle" x="908.75" y="-240.5" font-family="Helvetica,sans-Serif" font-size="10.00">_prepend_async_event</text>
</a>
</g>
</g>
<!-- Node4&#45;&gt;Node5 -->
<g id="edge4_Node000004_Node000005" class="edge">
<title>Node4&#45;&gt;Node5</title>
<g id="a_edge4_Node000004_Node000005"><a xlink:title=" ">
<path fill="none" stroke="#63b8ff" d="M811.07,-244C819.92,-244 829.34,-244 838.69,-244"/>
<polygon fill="#63b8ff" stroke="#63b8ff" points="838.52,-247.5 848.52,-244 838.52,-240.5 838.52,-247.5"/>
</a>
</g>
</g>
<!-- Node7 -->
<g id="Node000007" class="node">
<title>Node7</title>
<g id="a_Node000007"><a xlink:href="_async_t_c_p_8cpp.html#a7c4346c7dec98a175f7b96b03873839a" target="_top" xlink:title=" ">
<polygon fill="white" stroke="#666666" points="949.38,-216 868.12,-216 868.12,-196 949.38,-196 949.38,-216"/>
<text xml:space="preserve" text-anchor="middle" x="908.75" y="-202.5" font-family="Helvetica,sans-Serif" font-size="10.00">_tcp_close_api</text>
</a>
</g>
</g>
<!-- Node6&#45;&gt;Node7 -->
<g id="edge6_Node000006_Node000007" class="edge">
<title>Node6&#45;&gt;Node7</title>
<g id="a_edge6_Node000006_Node000007"><a xlink:title=" ">
<path fill="none" stroke="#63b8ff" d="M794.84,-206C812.71,-206 835.68,-206 856.23,-206"/>
<polygon fill="#63b8ff" stroke="#63b8ff" points="856.16,-209.5 866.16,-206 856.16,-202.5 856.16,-209.5"/>
</a>
</g>
</g>
<!-- Node9 -->
<g id="Node000009" class="node">
<title>Node9</title>
<g id="a_Node000009"><a xlink:href="_async_t_c_p_8cpp.html#a3e2474b46f6a3f01db216511d2bcfc4c" target="_top" xlink:title=" ">
<polygon fill="#fff0f0" stroke="red" points="939.62,-292 877.88,-292 877.88,-272 939.62,-272 939.62,-292"/>
<text xml:space="preserve" text-anchor="middle" x="908.75" y="-278.5" font-family="Helvetica,sans-Serif" font-size="10.00">_tcp_abort</text>
</a>
</g>
</g>
<!-- Node8&#45;&gt;Node9 -->
<g id="edge8_Node000008_Node000009" class="edge">
<title>Node8&#45;&gt;Node9</title>
<g id="a_edge8_Node000008_Node000009"><a xlink:title=" ">
<path fill="none" stroke="#63b8ff" d="M811.87,-282C829.52,-282 849.35,-282 866.38,-282"/>
<polygon fill="#63b8ff" stroke="#63b8ff" points="866.15,-285.5 876.15,-282 866.15,-278.5 866.15,-285.5"/>
</a>
</g>
</g>
<!-- Node12 -->
<g id="Node000012" class="node">
<title>Node12</title>
<g id="a_Node000012"><a xlink:href="_async_t_c_p_8cpp.html#a796c13746a84a6b2e7370ddbec97ad5b" target="_top" xlink:title=" ">
<polygon fill="white" stroke="#666666" points="814.5,-77 711.5,-77 711.5,-57 814.5,-57 814.5,-77"/>
<text xml:space="preserve" text-anchor="middle" x="763" y="-63.5" font-family="Helvetica,sans-Serif" font-size="10.00">_send_async_event</text>
</a>
</g>
</g>
<!-- Node11&#45;&gt;Node12 -->
<g id="edge10_Node000011_Node000012" class="edge">
<title>Node11&#45;&gt;Node12</title>
<g id="a_edge10_Node000011_Node000012"><a xlink:title=" ">
<path fill="none" stroke="#63b8ff" d="M653.52,-20.47C660.73,-23.17 668.42,-26.13 675.5,-29 693.28,-36.22 712.88,-44.78 728.92,-51.94"/>
<polygon fill="#63b8ff" stroke="#63b8ff" points="727.45,-55.12 738,-56.03 730.32,-48.73 727.45,-55.12"/>
</a>
</g>
</g>
<!-- Node13&#45;&gt;Node12 -->
<g id="edge12_Node000013_Node000012" class="edge">
<title>Node13&#45;&gt;Node12</title>
<g id="a_edge12_Node000013_Node000012"><a xlink:title=" ">
<path fill="none" stroke="#63b8ff" d="M651.44,-82.29C665.34,-80.37 682.94,-77.94 699.98,-75.58"/>
<polygon fill="#63b8ff" stroke="#63b8ff" points="700.13,-79.09 709.56,-74.25 699.17,-72.16 700.13,-79.09"/>
</a>
</g>
</g>
<!-- Node14&#45;&gt;Node12 -->
<g id="edge27_Node000014_Node000012" class="edge">
<title>Node14&#45;&gt;Node12</title>
<g id="a_edge27_Node000014_Node000012"><a xlink:title=" ">
<path fill="none" stroke="#63b8ff" d="M195.73,-153.42C208.09,-162.72 227.72,-175.67 247.25,-181 370.94,-214.78 408.66,-197.97 535.75,-181 599.55,-172.48 618.8,-173.47 675.5,-143 703.24,-128.09 729.6,-102.75 745.77,-85.46"/>
<polygon fill="#63b8ff" stroke="#63b8ff" points="748.08,-88.12 752.23,-78.37 742.9,-83.41 748.08,-88.12"/>
</a>
</g>
</g>
<!-- Node15 -->
<g id="Node000015" class="node">
<title>Node15</title>
<g id="a_Node000015"><a xlink:href="class_async_client.html#a485b2be0c01d3172928c0ed9655edc2f" target="_top" xlink:title=" ">
<polygon fill="white" stroke="#666666" points="371.25,-172 247.25,-172 247.25,-152 371.25,-152 371.25,-172"/>
<text xml:space="preserve" text-anchor="middle" x="309.25" y="-158.5" font-family="Helvetica,sans-Serif" font-size="10.00">AsyncClient::_s_lwip_fin</text>
</a>
</g>
</g>
<!-- Node14&#45;&gt;Node15 -->
<g id="edge14_Node000014_Node000015" class="edge">
<title>Node14&#45;&gt;Node15</title>
<g id="a_edge14_Node000014_Node000015"><a xlink:title=" ">
<path fill="none" stroke="#63b8ff" d="M211.64,-147.36C218.98,-148.47 227.2,-149.72 235.68,-151"/>
<polygon fill="#63b8ff" stroke="#63b8ff" points="235,-154.44 245.41,-152.48 236.05,-147.52 235,-154.44"/>
</a>
</g>
</g>
<!-- Node16 -->
<g id="Node000016" class="node">
<title>Node16</title>
<g id="a_Node000016"><a xlink:href="class_async_client.html#a32dfd5b9ec97903e2f59871f17b85ff4" target="_top" xlink:title=" ">
<polygon fill="white" stroke="#666666" points="528.25,-172 414.75,-172 414.75,-152 528.25,-152 528.25,-172"/>
<text xml:space="preserve" text-anchor="middle" x="471.5" y="-158.5" font-family="Helvetica,sans-Serif" font-size="10.00">AsyncClient::_lwip_fin</text>
</a>
</g>
</g>
<!-- Node15&#45;&gt;Node16 -->
<g id="edge15_Node000015_Node000016" class="edge">
<title>Node15&#45;&gt;Node16</title>
<g id="a_edge15_Node000015_Node000016"><a xlink:title=" ">
<path fill="none" stroke="#63b8ff" d="M371.75,-162C381.95,-162 392.57,-162 402.91,-162"/>
<polygon fill="#63b8ff" stroke="#63b8ff" points="402.9,-165.5 412.9,-162 402.9,-158.5 402.9,-165.5"/>
</a>
</g>
</g>
<!-- Node17 -->
<g id="Node000017" class="node">
<title>Node17</title>
<g id="a_Node000017"><a xlink:href="class_async_client.html#ac0c28dd08517243bc6d64d32f982a3cc" target="_top" xlink:title=" ">
<polygon fill="white" stroke="#666666" points="669.12,-134 578.12,-134 578.12,-114 669.12,-114 669.12,-134"/>
<text xml:space="preserve" text-anchor="middle" x="623.62" y="-120.5" font-family="Helvetica,sans-Serif" font-size="10.00">AsyncClient::pcb</text>
</a>
</g>
</g>
<!-- Node15&#45;&gt;Node17 -->
<g id="edge26_Node000015_Node000017" class="edge">
<title>Node15&#45;&gt;Node17</title>
<g id="a_edge26_Node000015_Node000017"><a xlink:title=" ">
<path fill="none" stroke="#63b8ff" d="M358.43,-151.52C373.96,-148.42 391.28,-145.26 407.25,-143 461.15,-135.36 523.11,-130.28 566.69,-127.31"/>
<polygon fill="#63b8ff" stroke="#63b8ff" points="566.66,-130.82 576.41,-126.66 566.2,-123.84 566.66,-130.82"/>
</a>
</g>
</g>
<!-- Node15&#45;&gt;Node18 -->
<g id="edge18_Node000015_Node000018" class="edge">
<title>Node15&#45;&gt;Node18</title>
<g id="a_edge18_Node000015_Node000018"><a xlink:title=" ">
<path fill="none" stroke="#63b8ff" d="M341.76,-151.57C351.49,-147.84 362.05,-143.24 371.25,-138 388.86,-127.96 389.58,-119.93 407.25,-110 413.43,-106.53 420.22,-103.36 426.97,-100.54"/>
<polygon fill="#63b8ff" stroke="#63b8ff" points="428.05,-103.88 436.07,-96.97 425.49,-97.36 428.05,-103.88"/>
</a>
</g>
</g>
<!-- Node16&#45;&gt;Node3 -->
<g id="edge16_Node000016_Node000003" class="edge">
<title>Node16&#45;&gt;Node3</title>
<g id="a_edge16_Node000016_Node000003"><a xlink:title=" ">
<path fill="none" stroke="#63b8ff" d="M528.66,-162C578.7,-162 651.68,-162 702.66,-162"/>
<polygon fill="#63b8ff" stroke="#63b8ff" points="702.64,-165.5 712.64,-162 702.64,-158.5 702.64,-165.5"/>
</a>
</g>
</g>
<!-- Node16&#45;&gt;Node17 -->
<g id="edge17_Node000016_Node000017" class="edge">
<title>Node16&#45;&gt;Node17</title>
<g id="a_edge17_Node000016_Node000017"><a xlink:title=" ">
<path fill="none" stroke="#63b8ff" d="M513.92,-151.52C531.39,-147.09 551.94,-141.89 570.43,-137.21"/>
<polygon fill="#63b8ff" stroke="#63b8ff" points="571.04,-140.67 579.87,-134.82 569.32,-133.88 571.04,-140.67"/>
</a>
</g>
</g>
<!-- Node18&#45;&gt;Node2 -->
<g id="edge19_Node000018_Node000002" class="edge">
<title>Node18&#45;&gt;Node2</title>
<g id="a_edge19_Node000018_Node000002"><a xlink:title=" ">
<path fill="none" stroke="#63b8ff" d="M484.47,-96.18C497.43,-107.33 518.55,-125.92 535.75,-143 561.38,-168.44 589.26,-199.61 606.34,-219.14"/>
<polygon fill="#63b8ff" stroke="#63b8ff" points="603.61,-221.33 612.81,-226.58 608.89,-216.73 603.61,-221.33"/>
</a>
</g>
</g>
<!-- Node18&#45;&gt;Node11 -->
<g id="edge20_Node000018_Node000011" class="edge">
<title>Node18&#45;&gt;Node11</title>
<g id="a_edge20_Node000018_Node000011"><a xlink:title=" ">
<path fill="none" stroke="#63b8ff" d="M488.57,-75.67C507.84,-63.55 541.36,-43.28 571.75,-29 575.31,-27.32 579.07,-25.69 582.86,-24.13"/>
<polygon fill="#63b8ff" stroke="#63b8ff" points="584.06,-27.42 592.09,-20.5 581.5,-20.9 584.06,-27.42"/>
</a>
</g>
</g>
<!-- Node18&#45;&gt;Node13 -->
<g id="edge21_Node000018_Node000013" class="edge">
<title>Node18&#45;&gt;Node13</title>
<g id="a_edge21_Node000018_Node000013"><a xlink:title=" ">
<path fill="none" stroke="#63b8ff" d="M536.17,-86C552.69,-86 569.96,-86 584.69,-86"/>
<polygon fill="#63b8ff" stroke="#63b8ff" points="584.38,-89.5 594.38,-86 584.38,-82.5 584.38,-89.5"/>
</a>
</g>
</g>
<!-- Node18&#45;&gt;Node14 -->
<g id="edge22_Node000018_Node000014" class="edge">
<title>Node18&#45;&gt;Node14</title>
<g id="a_edge22_Node000018_Node000014"><a xlink:title=" ">
<path fill="none" stroke="#63b8ff" d="M417.73,-96.46C361.41,-107.62 273.43,-125.05 222.66,-135.12"/>
<polygon fill="#63b8ff" stroke="#63b8ff" points="222.12,-131.65 212.99,-137.03 223.48,-138.52 222.12,-131.65"/>
</a>
</g>
</g>
<!-- Node18&#45;&gt;Node17 -->
<g id="edge25_Node000018_Node000017" class="edge">
<title>Node18&#45;&gt;Node17</title>
<g id="a_edge25_Node000018_Node000017"><a xlink:title=" ">
<path fill="none" stroke="#63b8ff" d="M513.92,-96.48C531.39,-100.91 551.94,-106.11 570.43,-110.79"/>
<polygon fill="#63b8ff" stroke="#63b8ff" points="569.32,-114.12 579.87,-113.18 571.04,-107.33 569.32,-114.12"/>
</a>
</g>
</g>
<!-- Node18&#45;&gt;Node20 -->
<g id="edge23_Node000018_Node000020" class="edge">
<title>Node18&#45;&gt;Node20</title>
<g id="a_edge23_Node000018_Node000020"><a xlink:title=" ">
<path fill="none" stroke="#63b8ff" d="M513.92,-75.52C535.55,-70.04 561.88,-63.38 583.2,-57.98"/>
<polygon fill="#63b8ff" stroke="#63b8ff" points="583.86,-61.42 592.7,-55.58 582.14,-54.64 583.86,-61.42"/>
</a>
</g>
</g>
<!-- Node20&#45;&gt;Node12 -->
<g id="edge24_Node000020_Node000012" class="edge">
<title>Node20&#45;&gt;Node12</title>
<g id="a_edge24_Node000020_Node000012"><a xlink:title=" ">
<path fill="none" stroke="#63b8ff" d="M653.42,-51.98C666.98,-53.86 683.7,-56.17 699.92,-58.41"/>
<polygon fill="#63b8ff" stroke="#63b8ff" points="699.15,-61.84 709.53,-59.74 700.11,-54.91 699.15,-61.84"/>
</a>
</g>
</g>
</g>
</svg>
