<?xml version="1.0" encoding="UTF-8" standalone="no"?>
<!DOCTYPE svg PUBLIC "-//W3C//DTD SVG 1.1//EN"
 "http://www.w3.org/Graphics/SVG/1.1/DTD/svg11.dtd">
<!-- Generated by graphviz version 14.1.2 (20260124.0452)
 -->
<!-- Title: AuthSync::update Pages: 1 -->
<svg width="643pt" height="119pt"
 viewBox="0.00 0.00 643.00 119.00" xmlns="http://www.w3.org/2000/svg" xmlns:xlink="http://www.w3.org/1999/xlink">
<g id="graph0" class="graph" transform="scale(1 1) rotate(0) translate(4 114.92)">
<title>AuthSync::update</title>
<!-- Node1 -->
<g id="Node000001" class="node">
<title>Node1</title>
<g id="a_Node000001"><a xlink:title=" ">
<polygon fill="#999999" stroke="#666666" points="94,-77 0,-77 0,-57 94,-57 94,-77"/>
<text xml:space="preserve" text-anchor="middle" x="47" y="-63.5" font-family="Helvetica,sans-Serif" font-size="10.00">AuthSync::update</text>
</a>
</g>
</g>
<!-- Node2 -->
<g id="Node000002" class="node">
<title>Node2</title>
<g id="a_Node000002"><a xlink:href="class_auth_sync.html#ab2999f3e828083471d482f9bde0d72f2" target="_top" xlink:title=" ">
<polygon fill="white" stroke="#666666" points="266.75,-77 130,-77 130,-57 266.75,-57 266.75,-77"/>
<text xml:space="preserve" text-anchor="middle" x="198.38" y="-63.5" font-family="Helvetica,sans-Serif" font-size="10.00">AuthSync::syncFromServer</text>
</a>
</g>
</g>
<!-- Node1&#45;&gt;Node2 -->
<g id="edge1_Node000001_Node000002" class="edge">
<title>Node1&#45;&gt;Node2</title>
<g id="a_edge1_Node000001_Node000002"><a xlink:title=" ">
<path fill="none" stroke="#63b8ff" d="M94.44,-67C102.01,-67 110.03,-67 118.13,-67"/>
<polygon fill="#63b8ff" stroke="#63b8ff" points="118.06,-70.5 128.06,-67 118.06,-63.5 118.06,-70.5"/>
</a>
</g>
</g>
<!-- Node3 -->
<g id="Node000003" class="node">
<title>Node3</title>
<g id="a_Node000003"><a xlink:href="class_auth_sync.html#aab1e2b7beebdab60e16d9b3a50678efd" target="_top" xlink:title=" ">
<polygon fill="white" stroke="#666666" points="623.5,-96 489.75,-96 489.75,-76 623.5,-76 623.5,-96"/>
<text xml:space="preserve" text-anchor="middle" x="556.62" y="-82.5" font-family="Helvetica,sans-Serif" font-size="10.00">AuthSync::calcBitsetBytes</text>
</a>
</g>
</g>
<!-- Node2&#45;&gt;Node3 -->
<g id="edge2_Node000002_Node000003" class="edge">
<title>Node2&#45;&gt;Node3</title>
<g id="a_edge2_Node000002_Node000003"><a xlink:title=" ">
<path fill="none" stroke="#63b8ff" d="M220.93,-77.47C241.42,-86.81 273.38,-99.77 302.75,-105 368.84,-116.76 445.9,-107.77 497.43,-98.58"/>
<polygon fill="#63b8ff" stroke="#63b8ff" points="497.98,-102.04 507.18,-96.78 496.71,-95.15 497.98,-102.04"/>
</a>
</g>
</g>
<!-- Node4 -->
<g id="Node000004" class="node">
<title>Node4</title>
<g id="a_Node000004"><a xlink:href="class_auth_sync.html#a4a8d3b99ed3bfb87ab36b2abbcce0594" target="_top" xlink:title=" ">
<polygon fill="white" stroke="#666666" points="439.88,-96 305.38,-96 305.38,-76 439.88,-76 439.88,-96"/>
<text xml:space="preserve" text-anchor="middle" x="372.62" y="-82.5" font-family="Helvetica,sans-Serif" font-size="10.00">AuthSync::saveBitsetToFS</text>
</a>
</g>
</g>
<!-- Node2&#45;&gt;Node4 -->
<g id="edge3_Node000002_Node000004" class="edge">
<title>Node2&#45;&gt;Node4</title>
<g id="a_edge3_Node000002_Node000004"><a xlink:title=" ">
<path fill="none" stroke="#63b8ff" d="M266.96,-74.45C275.77,-75.43 284.86,-76.43 293.82,-77.42"/>
<polygon fill="#63b8ff" stroke="#63b8ff" points="293.26,-80.88 303.58,-78.49 294.02,-73.92 293.26,-80.88"/>
</a>
</g>
</g>
<!-- Node5 -->
<g id="Node000005" class="node">
<title>Node5</title>
<g id="a_Node000005"><a xlink:href="class_auth_sync.html#a96c599b762bdafa672930dfa6f07ff13" target="_top" xlink:title=" ">
<polygon fill="white" stroke="#666666" points="442.5,-20 302.75,-20 302.75,0 442.5,0 442.5,-20"/>
<text xml:space="preserve" text-anchor="middle" x="372.62" y="-6.5" font-family="Helvetica,sans-Serif" font-size="10.00">AuthSync::saveETagToNVS</text>
</a>
</g>
</g>
<!-- Node2&#45;&gt;Node5 -->
<g id="edge4_Node000002_Node000005" class="edge">
<title>Node2&#45;&gt;Node5</title>
<g id="a_edge4_Node000002_Node000005"><a xlink:title=" ">
<path fill="none" stroke="#63b8ff" d="M225.94,-56.54C246.69,-48.54 276.35,-37.48 302.75,-29 308.51,-27.15 314.57,-25.32 320.61,-23.56"/>
<polygon fill="#63b8ff" stroke="#63b8ff" points="321.28,-27.01 329.94,-20.91 319.36,-20.28 321.28,-27.01"/>
</a>
</g>
</g>
<!-- Node7 -->
<g id="Node000007" class="node">
<title>Node7</title>
<g id="a_Node000007"><a xlink:href="class_auth_sync.html#a756e144d847c736d9932311d101a8a8f" target="_top" xlink:title=" ">
<polygon fill="white" stroke="#666666" points="430.5,-58 314.75,-58 314.75,-38 430.5,-38 430.5,-58"/>
<text xml:space="preserve" text-anchor="middle" x="372.62" y="-44.5" font-family="Helvetica,sans-Serif" font-size="10.00">AuthSync::writeByteAt</text>
</a>
</g>
</g>
<!-- Node2&#45;&gt;Node7 -->
<g id="edge6_Node000002_Node000007" class="edge">
<title>Node2&#45;&gt;Node7</title>
<g id="a_edge6_Node000002_Node000007"><a xlink:title=" ">
<path fill="none" stroke="#63b8ff" d="M266.96,-59.55C278.81,-58.24 291.16,-56.88 303.05,-55.56"/>
<polygon fill="#63b8ff" stroke="#63b8ff" points="303.21,-59.07 312.76,-54.49 302.44,-52.11 303.21,-59.07"/>
</a>
</g>
</g>
<!-- Node6 -->
<g id="Node000006" class="node">
<title>Node6</title>
<g id="a_Node000006"><a xlink:href="class_auth_sync.html#ad84e54dba300b040ae8655c915d5313f" target="_top" xlink:title=" ">
<polygon fill="white" stroke="#666666" points="634.75,-20 478.5,-20 478.5,0 634.75,0 634.75,-20"/>
<text xml:space="preserve" text-anchor="middle" x="556.62" y="-6.5" font-family="Helvetica,sans-Serif" font-size="10.00">AuthSync::saveAllowDenyToFS</text>
</a>
</g>
</g>
<!-- Node5&#45;&gt;Node6 -->
<g id="edge5_Node000005_Node000006" class="edge">
<title>Node5&#45;&gt;Node6</title>
<g id="a_edge5_Node000005_Node000006"><a xlink:title=" ">
<path fill="none" stroke="#63b8ff" d="M442.95,-10C450.8,-10 458.88,-10 466.94,-10"/>
<polygon fill="#63b8ff" stroke="#63b8ff" points="466.77,-13.5 476.77,-10 466.77,-6.5 466.77,-13.5"/>
</a>
</g>
</g>
<!-- Node7&#45;&gt;Node3 -->
<g id="edge7_Node000007_Node000003" class="edge">
<title>Node7&#45;&gt;Node3</title>
<g id="a_edge7_Node000007_Node000003"><a xlink:title=" ">
<path fill="none" stroke="#63b8ff" d="M423.84,-58.48C445.72,-63.05 471.57,-68.45 494.55,-73.25"/>
<polygon fill="#63b8ff" stroke="#63b8ff" points="493.59,-76.62 504.09,-75.24 495.02,-69.77 493.59,-76.62"/>
</a>
</g>
</g>
</g>
</svg>
