<?xml version="1.0" encoding="UTF-8" standalone="no"?>
<!DOCTYPE svg PUBLIC "-//W3C//DTD SVG 1.1//EN"
 "http://www.w3.org/Graphics/SVG/1.1/DTD/svg11.dtd">
<!-- Generated by graphviz version 14.1.2 (20260124.0452)
 -->
<!-- Title: AsyncClient::_dns_found Pages: 1 -->
<!--zoomable 344 -->

<svg id="main" version="1.1" xmlns="http://www.w3.org/2000/svg" xmlns:xlink="http://www.w3.org/1999/xlink" xml:space="preserve" onload="init(evt)">

<style type="text/css"><![CDATA[
.node, .edge {opacity: 0.7;}
.node.selected, .edge.selected {opacity: 1;}
.edge:hover path { stroke: red; }
.edge:hover polygon { stroke: red; fill: red; }
]]></style>

<defs>
  <circle id="rim" cx="0" cy="0" r="7"/>
  <circle id="rim2" cx="0" cy="0" r="3.5"/>
  <g id="zoomPlus">
    <use xlink:href="#rim" fill="#404040"><set attributeName="fill" to="#808080" begin="zoomplus.mouseover" end="zoomplus.mouseout"/></use>
    <path d="M-4,0h8M0,-4v8" fill="none" stroke="white" stroke-width="1.5" pointer-events="none"/>
  </g>
  <g id="zoomMin">
    <use xlink:href="#rim" fill="#404040"><set attributeName="fill" to="#808080" begin="zoomminus.mouseover" end="zoomminus.mouseout"/></use>
    <path d="M-4,0h8" fill="none" stroke="white" stroke-width="1.5" pointer-events="none"/>
  </g>
  <g id="arrowUp" transform="translate(30 24)">
    <use xlink:href="#rim"/>
    <path pointer-events="none" fill="none" stroke="white" stroke-width="1.5" d="M0,-3.0v7 M-2.5,-0.5L0,-3.0L2.5,-0.5"/>
  </g>
  <g id="arrowRight" transform="rotate(90) translate(36 -43)">
    <use xlink:href="#rim"/>
    <path pointer-events="none" fill="none" stroke="white" stroke-width="1.5" d="M0,-3.0v7 M-2.5,-0.5L0,-3.0L2.5,-0.5"/>
  </g>
  <g id="arrowDown" transform="rotate(180) translate(-30 -48)">
    <use xlink:href="#rim"/>
    <path pointer-events="none" fill="none" stroke="white" stroke-width="1.5" d="M0,-3.0v7 M-2.5,-0.5L0,-3.0L2.5,-0.5"/>
  </g>
  <g id="arrowLeft" transform="rotate(270) translate(-36 17)">
    <use xlink:href="#rim"/>
    <path pointer-events="none" fill="none" stroke="white" stroke-width="1.5" d="M0,-3.0v7 M-2.5,-0.5L0,-3.0L2.5,-0.5"/>
  </g>
  <g id="resetDef">
    <use xlink:href="#rim2" fill="#404040"><set attributeName="fill" to="#808080" begin="reset.mouseover" end="reset.mouseout"/></use>
  </g>
</defs>
<script type="application/ecmascript">
var viewWidth = 581;
var viewHeight = 344;
var sectionId = 'dynsection-11';
</script>
<script type="application/ecmascript" xlink:href="svg.min.js"/>
<svg id="graph" class="graph">
<g id="viewport">
<title>AsyncClient::_dns_found</title>
<!-- Node1 -->
<g id="Node000001" class="node">
<title>Node1</title>
<g id="a_Node000001"><a xlink:title=" ">
<polygon fill="#999999" stroke="#666666" points="125.5,-172 0,-172 0,-152 125.5,-152 125.5,-172"/>
<text xml:space="preserve" text-anchor="middle" x="62.75" y="-158.5" font-family="Helvetica,sans-Serif" font-size="10.00">AsyncClient::_dns_found</text>
</a>
</g>
</g>
<!-- Node2 -->
<g id="Node000002" class="node">
<title>Node2</title>
<g id="a_Node000002"><a xlink:href="class_async_client.html#aaa5b952568c85d25c32d0dff8ec74794" target="_top" xlink:title=" ">
<polygon fill="white" stroke="#666666" points="271.25,-172 161.5,-172 161.5,-152 271.25,-152 271.25,-172"/>
<text xml:space="preserve" text-anchor="middle" x="216.38" y="-158.5" font-family="Helvetica,sans-Serif" font-size="10.00">AsyncClient::connect</text>
</a>
</g>
</g>
<!-- Node1&#45;&gt;Node2 -->
<g id="edge1_Node000001_Node000002" class="edge">
<title>Node1&#45;&gt;Node2</title>
<g id="a_edge1_Node000001_Node000002"><a xlink:title=" ">
<path fill="none" stroke="#63b8ff" d="M125.86,-162C133.86,-162 142.08,-162 150.13,-162"/>
<polygon fill="#63b8ff" stroke="#63b8ff" points="149.86,-165.5 159.86,-162 149.86,-158.5 149.86,-165.5"/>
</a>
</g>
</g>
<!-- Node3 -->
<g id="Node000003" class="node">
<title>Node3</title>
<g id="a_Node000003"><a xlink:href="class_async_client.html#a758eaca983e03027c99003a5808883f8" target="_top" xlink:title=" ">
<polygon fill="white" stroke="#666666" points="422.25,-172 307.25,-172 307.25,-152 422.25,-152 422.25,-172"/>
<text xml:space="preserve" text-anchor="middle" x="364.75" y="-158.5" font-family="Helvetica,sans-Serif" font-size="10.00">AsyncClient::_connect</text>
</a>
</g>
</g>
<!-- Node2&#45;&gt;Node3 -->
<g id="edge2_Node000002_Node000003" class="edge">
<title>Node2&#45;&gt;Node3</title>
<g id="a_edge2_Node000002_Node000003"><a xlink:title=" ">
<path fill="none" stroke="#63b8ff" d="M271.46,-162C279.32,-162 287.5,-162 295.59,-162"/>
<polygon fill="#63b8ff" stroke="#63b8ff" points="295.43,-165.5 305.43,-162 295.43,-158.5 295.43,-165.5"/>
</a>
</g>
</g>
<!-- Node4 -->
<g id="Node000004" class="node">
<title>Node4</title>
<g id="a_Node000004"><a xlink:href="class_async_client.html#ab0422e5254ea4fbac9f87188a018ebc4" target="_top" xlink:title=" ">
<polygon fill="white" stroke="#666666" points="572.5,-336 458.25,-336 458.25,-304 572.5,-304 572.5,-336"/>
<text xml:space="preserve" text-anchor="start" x="466.25" y="-322.5" font-family="Helvetica,sans-Serif" font-size="10.00">AsyncClient::_allocate</text>
<text xml:space="preserve" text-anchor="middle" x="515.38" y="-310.5" font-family="Helvetica,sans-Serif" font-size="10.00">_closed_slot</text>
</a>
</g>
</g>
<!-- Node3&#45;&gt;Node4 -->
<g id="edge3_Node000003_Node000004" class="edge">
<title>Node3&#45;&gt;Node4</title>
<g id="a_edge3_Node000003_Node000004"><a xlink:title=" ">
<path fill="none" stroke="#63b8ff" d="M370.52,-172.42C382.19,-196.91 414.47,-258.79 458.25,-295 459.34,-295.9 460.46,-296.77 461.62,-297.62"/>
<polygon fill="#63b8ff" stroke="#63b8ff" points="459.37,-300.34 469.68,-302.79 463.15,-294.45 459.37,-300.34"/>
</a>
</g>
</g>
<!-- Node5 -->
<g id="Node000005" class="node">
<title>Node5</title>
<g id="a_Node000005"><a xlink:href="_async_t_c_p_8cpp.html#a4d0de407bcfcc96b61af40aca3156708" target="_top" xlink:title=" ">
<polygon fill="#fff0f0" stroke="red" points="563.5,-286 467.25,-286 467.25,-266 563.5,-266 563.5,-286"/>
<text xml:space="preserve" text-anchor="middle" x="515.38" y="-272.5" font-family="Helvetica,sans-Serif" font-size="10.00">_start_async_task</text>
</a>
</g>
</g>
<!-- Node3&#45;&gt;Node5 -->
<g id="edge4_Node000003_Node000005" class="edge">
<title>Node3&#45;&gt;Node5</title>
<g id="a_edge4_Node000003_Node000005"><a xlink:title=" ">
<path fill="none" stroke="#63b8ff" d="M373.19,-172.42C387.53,-191.78 420.86,-233.43 458.25,-257 460.49,-258.41 462.85,-259.73 465.27,-260.96"/>
<polygon fill="#63b8ff" stroke="#63b8ff" points="463.59,-264.05 474.15,-264.93 466.45,-257.66 463.59,-264.05"/>
</a>
</g>
</g>
<!-- Node48 -->
<g id="Node000048" class="node">
<title>Node48</title>
<g id="a_Node000048"><a xlink:href="_async_t_c_p_8cpp.html#a02f7e9cd68d729395c7794e07dfc1375" target="_top" xlink:title=" ">
<polygon fill="#fff0f0" stroke="red" points="552.62,-248 478.12,-248 478.12,-228 552.62,-228 552.62,-248"/>
<text xml:space="preserve" text-anchor="middle" x="515.38" y="-234.5" font-family="Helvetica,sans-Serif" font-size="10.00">_tcp_connect</text>
</a>
</g>
</g>
<!-- Node3&#45;&gt;Node48 -->
<g id="edge5_Node000003_Node000048" class="edge">
<title>Node3&#45;&gt;Node48</title>
<g id="a_edge5_Node000003_Node000048"><a xlink:title=" ">
<path fill="none" stroke="#63b8ff" d="M380.23,-172.36C397.96,-184.7 429.23,-205.36 458.25,-219 461.6,-220.58 465.12,-222.08 468.69,-223.51"/>
<polygon fill="#63b8ff" stroke="#63b8ff" points="467.45,-226.78 478.04,-227.01 469.91,-220.23 467.45,-226.78"/>
</a>
</g>
</g>
<!-- Node50 -->
<g id="Node000050" class="node">
<title>Node50</title>
<g id="a_Node000050"><a xlink:href="_async_t_c_p_8cpp.html#aceddc1345284b96d9d3618c7b01ecede" target="_top" xlink:title=" ">
<polygon fill="#fff0f0" stroke="red" points="557.88,-210 472.88,-210 472.88,-190 557.88,-190 557.88,-210"/>
<text xml:space="preserve" text-anchor="middle" x="515.38" y="-196.5" font-family="Helvetica,sans-Serif" font-size="10.00">_tcp_connected</text>
</a>
</g>
</g>
<!-- Node3&#45;&gt;Node50 -->
<g id="edge6_Node000003_Node000050" class="edge">
<title>Node3&#45;&gt;Node50</title>
<g id="a_edge6_Node000003_Node000050"><a xlink:title=" ">
<path fill="none" stroke="#63b8ff" d="M406.76,-172.48C423.98,-176.89 444.2,-182.06 462.45,-186.72"/>
<polygon fill="#63b8ff" stroke="#63b8ff" points="461.48,-190.09 472.04,-189.18 463.22,-183.31 461.48,-190.09"/>
</a>
</g>
</g>
<!-- Node26 -->
<g id="Node000026" class="node">
<title>Node26</title>
<g id="a_Node000026"><a xlink:href="_async_t_c_p_8cpp.html#a61ff9f7f886bbbbcdc1daca453828934" target="_top" xlink:title=" ">
<polygon fill="#fff0f0" stroke="red" points="545.12,-172 485.62,-172 485.62,-152 545.12,-152 545.12,-172"/>
<text xml:space="preserve" text-anchor="middle" x="515.38" y="-158.5" font-family="Helvetica,sans-Serif" font-size="10.00">_tcp_error</text>
</a>
</g>
</g>
<!-- Node3&#45;&gt;Node26 -->
<g id="edge7_Node000003_Node000026" class="edge">
<title>Node3&#45;&gt;Node26</title>
<g id="a_edge7_Node000003_Node000026"><a xlink:title=" ">
<path fill="none" stroke="#63b8ff" d="M422.36,-162C439.66,-162 458.31,-162 474.27,-162"/>
<polygon fill="#63b8ff" stroke="#63b8ff" points="473.85,-165.5 483.85,-162 473.85,-158.5 473.85,-165.5"/>
</a>
</g>
</g>
<!-- Node28 -->
<g id="Node000028" class="node">
<title>Node28</title>
<g id="a_Node000028"><a xlink:href="_async_t_c_p_8cpp.html#ad4b2c6c935c211eef5884f25a950e445" target="_top" xlink:title=" ">
<polygon fill="#fff0f0" stroke="red" points="542.88,-134 487.88,-134 487.88,-114 542.88,-114 542.88,-134"/>
<text xml:space="preserve" text-anchor="middle" x="515.38" y="-120.5" font-family="Helvetica,sans-Serif" font-size="10.00">_tcp_poll</text>
</a>
</g>
</g>
<!-- Node3&#45;&gt;Node28 -->
<g id="edge8_Node000003_Node000028" class="edge">
<title>Node3&#45;&gt;Node28</title>
<g id="a_edge8_Node000003_Node000028"><a xlink:title=" ">
<path fill="none" stroke="#63b8ff" d="M406.76,-151.52C428.61,-145.93 455.3,-139.1 476.63,-133.65"/>
<polygon fill="#63b8ff" stroke="#63b8ff" points="477.27,-137.1 486.09,-131.23 475.54,-130.32 477.27,-137.1"/>
</a>
</g>
</g>
<!-- Node29 -->
<g id="Node000029" class="node">
<title>Node29</title>
<g id="a_Node000029"><a xlink:href="_async_t_c_p_8cpp.html#adf7826424bf5b1035c4850f6b3307686" target="_top" xlink:title=" ">
<polygon fill="#fff0f0" stroke="red" points="544.75,-96 486,-96 486,-76 544.75,-76 544.75,-96"/>
<text xml:space="preserve" text-anchor="middle" x="515.38" y="-82.5" font-family="Helvetica,sans-Serif" font-size="10.00">_tcp_recv</text>
</a>
</g>
</g>
<!-- Node3&#45;&gt;Node29 -->
<g id="edge9_Node000003_Node000029" class="edge">
<title>Node3&#45;&gt;Node29</title>
<g id="a_edge9_Node000003_Node000029"><a xlink:title=" ">
<path fill="none" stroke="#63b8ff" d="M380.23,-151.64C397.96,-139.3 429.23,-118.64 458.25,-105 463.53,-102.52 469.22,-100.21 474.88,-98.11"/>
<polygon fill="#63b8ff" stroke="#63b8ff" points="475.91,-101.46 484.19,-94.85 473.6,-94.85 475.91,-101.46"/>
</a>
</g>
</g>
<!-- Node32 -->
<g id="Node000032" class="node">
<title>Node32</title>
<g id="a_Node000032"><a xlink:href="_async_t_c_p_8cpp.html#a0b47280aff638ec9b80f7a87dfe54ea6" target="_top" xlink:title=" ">
<polygon fill="#fff0f0" stroke="red" points="544.75,-58 486,-58 486,-38 544.75,-38 544.75,-58"/>
<text xml:space="preserve" text-anchor="middle" x="515.38" y="-44.5" font-family="Helvetica,sans-Serif" font-size="10.00">_tcp_sent</text>
</a>
</g>
</g>
<!-- Node3&#45;&gt;Node32 -->
<g id="edge10_Node000003_Node000032" class="edge">
<title>Node3&#45;&gt;Node32</title>
<g id="a_edge10_Node000003_Node000032"><a xlink:title=" ">
<path fill="none" stroke="#63b8ff" d="M373.19,-151.58C387.53,-132.22 420.86,-90.57 458.25,-67 463.42,-63.74 469.21,-60.97 475.05,-58.64"/>
<polygon fill="#63b8ff" stroke="#63b8ff" points="475.84,-62.08 484.08,-55.42 473.49,-55.48 475.84,-62.08"/>
</a>
</g>
</g>
<!-- Node15 -->
<g id="Node000015" class="node">
<title>Node15</title>
<g id="a_Node000015"><a xlink:href="class_async_client.html#ac0c28dd08517243bc6d64d32f982a3cc" target="_top" xlink:title=" ">
<polygon fill="white" stroke="#666666" points="560.88,-20 469.88,-20 469.88,0 560.88,0 560.88,-20"/>
<text xml:space="preserve" text-anchor="middle" x="515.38" y="-6.5" font-family="Helvetica,sans-Serif" font-size="10.00">AsyncClient::pcb</text>
</a>
</g>
</g>
<!-- Node3&#45;&gt;Node15 -->
<g id="edge11_Node000003_Node000015" class="edge">
<title>Node3&#45;&gt;Node15</title>
<g id="a_edge11_Node000003_Node000015"><a xlink:title=" ">
<path fill="none" stroke="#63b8ff" d="M370.13,-151.67C381.19,-126.84 412.62,-63.31 458.25,-29 459.8,-27.83 461.44,-26.73 463.12,-25.7"/>
<polygon fill="#63b8ff" stroke="#63b8ff" points="464.65,-28.85 471.93,-21.15 461.44,-22.63 464.65,-28.85"/>
</a>
</g>
</g>
</g>
</svg>

<g id="navigator" transform="translate(0 0)" fill="#404254">
  <rect fill="#f2f5e9" fill-opacity="0.5" stroke="#606060" stroke-width=".5" x="0" y="0" width="60" height="60"/>
  <use id="zoomplus" xlink:href="#zoomPlus" x="17" y="9" onmousedown="handleZoom(evt,'in')"/>
  <use id="zoomminus" xlink:href="#zoomMin" x="42" y="9" onmousedown="handleZoom(evt,'out')"/>
  <use id="reset" xlink:href="#resetDef" x="30" y="36" onmousedown="handleReset()"/>
   <use id="arrowup" xlink:href="#arrowUp" x="0" y="0" onmousedown="handlePan(0,-1)"/>
  <use id="arrowright" xlink:href="#arrowRight" x="0" y="0" onmousedown="handlePan(1,0)"/>
  <use id="arrowdown" xlink:href="#arrowDown" x="0" y="0" onmousedown="handlePan(0,1)"/>
  <use id="arrowleft" xlink:href="#arrowLeft" x="0" y="0" onmousedown="handlePan(-1,0)"/>
</g>
<svg viewBox="0 0 15 15" width="100%" height="30px" preserveAspectRatio="xMaxYMin meet">
 <g id="arrow_out" transform="scale(0.3 0.3)">
  <a xlink:href="class_async_client_a19dc40652b5b003288e10529ee169b65_cgraph_org.svg" target="_base">
   <rect id="button" ry="5" rx="5" y="6" x="6" height="38" width="38"
        fill="#f2f5e9" fill-opacity="0.5" stroke="#606060" stroke-width="1.0"/>
   <path id="arrow"
     d="M 11.500037,31.436501 C 11.940474,20.09759 22.043105,11.32322 32.158766,21.979434 L 37.068811,17.246167 C 37.068811,17.246167 37.088388,32 37.088388,32 L 22.160133,31.978069 C 22.160133,31.978069 26.997745,27.140456 26.997745,27.140456 C 18.528582,18.264221 13.291696,25.230495 11.500037,31.436501 z"
     style="fill:#404040;"/>
  </a>
 </g>
</svg>

<style type='text/css'>
<![CDATA[
[data-mouse-over-selected='false'] { opacity: 0.7; }
[data-mouse-over-selected='true']  { opacity: 1.0; }
]]>
</style>
<script type="application/ecmascript"><![CDATA[
document.addEventListener('DOMContentLoaded', (event) => {
  highlightEdges();
  highlightAdjacentNodes();
});
]]></script>
</svg>
