<?xml version="1.0" encoding="UTF-8" standalone="no"?>
<!DOCTYPE svg PUBLIC "-//W3C//DTD SVG 1.1//EN"
 "http://www.w3.org/Graphics/SVG/1.1/DTD/svg11.dtd">
<!-- Generated by graphviz version 14.1.2 (20260124.0452)
 -->
<!-- Title: AuthSync::syncFromServer Pages: 1 -->
<svg width="629pt" height="180pt"
 viewBox="0.00 0.00 629.00 180.00" xmlns="http://www.w3.org/2000/svg" xmlns:xlink="http://www.w3.org/1999/xlink">
<g id="graph0" class="graph" transform="scale(1 1) rotate(0) translate(4 176)">
<title>AuthSync::syncFromServer</title>
<!-- Node1 -->
<g id="Node000001" class="node">
<title>Node1</title>
<g id="a_Node000001"><a xlink:title=" ">
<polygon fill="#999999" stroke="#666666" points="136.75,-96 0,-96 0,-76 136.75,-76 136.75,-96"/>
<text xml:space="preserve" text-anchor="middle" x="68.38" y="-82.5" font-family="Helvetica,sans-Serif" font-size="10.00">AuthSync::syncFromServer</text>
</a>
</g>
</g>
<!-- Node2 -->
<g id="Node000002" class="node">
<title>Node2</title>
<g id="a_Node000002"><a xlink:href="class_auth_sync.html#aab1e2b7beebdab60e16d9b3a50678efd" target="_top" xlink:title=" ">
<polygon fill="white" stroke="#666666" points="493.5,-96 359.75,-96 359.75,-76 493.5,-76 493.5,-96"/>
<text xml:space="preserve" text-anchor="middle" x="426.62" y="-82.5" font-family="Helvetica,sans-Serif" font-size="10.00">AuthSync::calcBitsetBytes</text>
</a>
</g>
</g>
<!-- Node1&#45;&gt;Node2 -->
<g id="edge1_Node000001_Node000002" class="edge">
<title>Node1&#45;&gt;Node2</title>
<g id="a_edge1_Node000001_Node000002"><a xlink:title=" ">
<path fill="none" stroke="#63b8ff" d="M116.21,-96.47C133.84,-99.92 154.12,-103.3 172.75,-105 234.6,-110.64 250.6,-110.16 312.5,-105 329.03,-103.62 346.77,-101.13 363.2,-98.39"/>
<polygon fill="#63b8ff" stroke="#63b8ff" points="363.57,-101.88 372.83,-96.73 362.38,-94.98 363.57,-101.88"/>
</a>
</g>
</g>
<!-- Node3 -->
<g id="Node000003" class="node">
<title>Node3</title>
<g id="a_Node000003"><a xlink:href="class_auth_sync.html#afea91831a16e241cc5db5163299fc900" target="_top" xlink:title=" ">
<polygon fill="white" stroke="#666666" points="293,-172 192.25,-172 192.25,-152 293,-152 293,-172"/>
<text xml:space="preserve" text-anchor="middle" x="242.62" y="-158.5" font-family="Helvetica,sans-Serif" font-size="10.00">AuthSync::hashUid</text>
</a>
</g>
</g>
<!-- Node1&#45;&gt;Node3 -->
<g id="edge2_Node000001_Node000003" class="edge">
<title>Node1&#45;&gt;Node3</title>
<g id="a_edge2_Node000001_Node000003"><a xlink:title=" ">
<path fill="none" stroke="#63b8ff" d="M88.08,-96.34C108.52,-107.42 142.41,-125.15 172.75,-138 180.78,-141.4 189.47,-144.71 197.88,-147.72"/>
<polygon fill="#63b8ff" stroke="#63b8ff" points="196.69,-151.01 207.28,-151.01 199,-144.41 196.69,-151.01"/>
</a>
</g>
</g>
<!-- Node6 -->
<g id="Node000006" class="node">
<title>Node6</title>
<g id="a_Node000006"><a xlink:href="class_auth_sync.html#a4a8d3b99ed3bfb87ab36b2abbcce0594" target="_top" xlink:title=" ">
<polygon fill="white" stroke="#666666" points="309.88,-96 175.38,-96 175.38,-76 309.88,-76 309.88,-96"/>
<text xml:space="preserve" text-anchor="middle" x="242.62" y="-82.5" font-family="Helvetica,sans-Serif" font-size="10.00">AuthSync::saveBitsetToFS</text>
</a>
</g>
</g>
<!-- Node1&#45;&gt;Node6 -->
<g id="edge5_Node000001_Node000006" class="edge">
<title>Node1&#45;&gt;Node6</title>
<g id="a_edge5_Node000001_Node000006"><a xlink:title=" ">
<path fill="none" stroke="#63b8ff" d="M136.96,-86C145.77,-86 154.86,-86 163.82,-86"/>
<polygon fill="#63b8ff" stroke="#63b8ff" points="163.57,-89.5 173.57,-86 163.57,-82.5 163.57,-89.5"/>
</a>
</g>
</g>
<!-- Node7 -->
<g id="Node000007" class="node">
<title>Node7</title>
<g id="a_Node000007"><a xlink:href="class_auth_sync.html#a96c599b762bdafa672930dfa6f07ff13" target="_top" xlink:title=" ">
<polygon fill="white" stroke="#666666" points="312.5,-20 172.75,-20 172.75,0 312.5,0 312.5,-20"/>
<text xml:space="preserve" text-anchor="middle" x="242.62" y="-6.5" font-family="Helvetica,sans-Serif" font-size="10.00">AuthSync::saveETagToNVS</text>
</a>
</g>
</g>
<!-- Node1&#45;&gt;Node7 -->
<g id="edge6_Node000001_Node000007" class="edge">
<title>Node1&#45;&gt;Node7</title>
<g id="a_edge6_Node000001_Node000007"><a xlink:title=" ">
<path fill="none" stroke="#63b8ff" d="M85.26,-75.69C105.07,-63.21 140.29,-42.21 172.75,-29 177.33,-27.13 182.16,-25.39 187.04,-23.77"/>
<polygon fill="#63b8ff" stroke="#63b8ff" points="187.8,-27.2 196.31,-20.89 185.72,-20.52 187.8,-27.2"/>
</a>
</g>
</g>
<!-- Node9 -->
<g id="Node000009" class="node">
<title>Node9</title>
<g id="a_Node000009"><a xlink:href="class_auth_sync.html#a756e144d847c736d9932311d101a8a8f" target="_top" xlink:title=" ">
<polygon fill="white" stroke="#666666" points="300.5,-58 184.75,-58 184.75,-38 300.5,-38 300.5,-58"/>
<text xml:space="preserve" text-anchor="middle" x="242.62" y="-44.5" font-family="Helvetica,sans-Serif" font-size="10.00">AuthSync::writeByteAt</text>
</a>
</g>
</g>
<!-- Node1&#45;&gt;Node9 -->
<g id="edge8_Node000001_Node000009" class="edge">
<title>Node1&#45;&gt;Node9</title>
<g id="a_edge8_Node000001_Node000009"><a xlink:title=" ">
<path fill="none" stroke="#63b8ff" d="M116.9,-75.52C137.42,-70.99 161.63,-65.65 183.23,-60.88"/>
<polygon fill="#63b8ff" stroke="#63b8ff" points="183.77,-64.35 192.78,-58.78 182.26,-57.51 183.77,-64.35"/>
</a>
</g>
</g>
<!-- Node4 -->
<g id="Node000004" class="node">
<title>Node4</title>
<g id="a_Node000004"><a xlink:href="namespace_hash_utils.html#a3432774829b6752dc346491bc5dd5eec" target="_top" xlink:title=" ">
<polygon fill="white" stroke="#666666" points="477.38,-172 375.88,-172 375.88,-152 477.38,-152 477.38,-172"/>
<text xml:space="preserve" text-anchor="middle" x="426.62" y="-158.5" font-family="Helvetica,sans-Serif" font-size="10.00">HashUtils::hashUid</text>
</a>
</g>
</g>
<!-- Node3&#45;&gt;Node4 -->
<g id="edge3_Node000003_Node000004" class="edge">
<title>Node3&#45;&gt;Node4</title>
<g id="a_edge3_Node000003_Node000004"><a xlink:title=" ">
<path fill="none" stroke="#63b8ff" d="M293.36,-162C315.24,-162 341.15,-162 364.22,-162"/>
<polygon fill="#63b8ff" stroke="#63b8ff" points="364.12,-165.5 374.12,-162 364.12,-158.5 364.12,-165.5"/>
</a>
</g>
</g>
<!-- Node5 -->
<g id="Node000005" class="node">
<title>Node5</title>
<g id="a_Node000005"><a xlink:href="_hash_utils_8cpp.html#a857c40dca22894a62e01dd957349bc76" target="_top" xlink:title=" ">
<polygon fill="white" stroke="#666666" points="620.5,-172 540.75,-172 540.75,-152 620.5,-152 620.5,-172"/>
<text xml:space="preserve" text-anchor="middle" x="580.62" y="-158.5" font-family="Helvetica,sans-Serif" font-size="10.00">fnv1a64_bytes</text>
</a>
</g>
</g>
<!-- Node4&#45;&gt;Node5 -->
<g id="edge4_Node000004_Node000005" class="edge">
<title>Node4&#45;&gt;Node5</title>
<g id="a_edge4_Node000004_Node000005"><a xlink:title=" ">
<path fill="none" stroke="#63b8ff" d="M477.82,-162C494.4,-162 512.84,-162 529.42,-162"/>
<polygon fill="#63b8ff" stroke="#63b8ff" points="529.04,-165.5 539.04,-162 529.04,-158.5 529.04,-165.5"/>
</a>
</g>
</g>
<!-- Node8 -->
<g id="Node000008" class="node">
<title>Node8</title>
<g id="a_Node000008"><a xlink:href="class_auth_sync.html#ad84e54dba300b040ae8655c915d5313f" target="_top" xlink:title=" ">
<polygon fill="white" stroke="#666666" points="504.75,-20 348.5,-20 348.5,0 504.75,0 504.75,-20"/>
<text xml:space="preserve" text-anchor="middle" x="426.62" y="-6.5" font-family="Helvetica,sans-Serif" font-size="10.00">AuthSync::saveAllowDenyToFS</text>
</a>
</g>
</g>
<!-- Node7&#45;&gt;Node8 -->
<g id="edge7_Node000007_Node000008" class="edge">
<title>Node7&#45;&gt;Node8</title>
<g id="a_edge7_Node000007_Node000008"><a xlink:title=" ">
<path fill="none" stroke="#63b8ff" d="M312.95,-10C320.8,-10 328.88,-10 336.94,-10"/>
<polygon fill="#63b8ff" stroke="#63b8ff" points="336.77,-13.5 346.77,-10 336.77,-6.5 336.77,-13.5"/>
</a>
</g>
</g>
<!-- Node9&#45;&gt;Node2 -->
<g id="edge9_Node000009_Node000002" class="edge">
<title>Node9&#45;&gt;Node2</title>
<g id="a_edge9_Node000009_Node000002"><a xlink:title=" ">
<path fill="none" stroke="#63b8ff" d="M293.84,-58.48C315.72,-63.05 341.57,-68.45 364.55,-73.25"/>
<polygon fill="#63b8ff" stroke="#63b8ff" points="363.59,-76.62 374.09,-75.24 365.02,-69.77 363.59,-76.62"/>
</a>
</g>
</g>
</g>
</svg>
