<?xml version="1.0" encoding="UTF-8" standalone="no"?>
<!DOCTYPE svg PUBLIC "-//W3C//DTD SVG 1.1//EN"
 "http://www.w3.org/Graphics/SVG/1.1/DTD/svg11.dtd">
<!-- Generated by graphviz version 14.1.2 (20260124.0452)
 -->
<!-- Title: AsyncClient::operator+= Pages: 1 -->
<svg width="732pt" height="317pt"
 viewBox="0.00 0.00 732.00 317.00" xmlns="http://www.w3.org/2000/svg" xmlns:xlink="http://www.w3.org/1999/xlink">
<g id="graph0" class="graph" transform="scale(1 1) rotate(0) translate(4 313.2)">
<title>AsyncClient::operator+=</title>
<!-- Node1 -->
<g id="Node000001" class="node">
<title>Node1</title>
<g id="a_Node000001"><a xlink:title=" ">
<polygon fill="#999999" stroke="#666666" points="122.5,-145.2 0,-145.2 0,-125.2 122.5,-125.2 122.5,-145.2"/>
<text xml:space="preserve" text-anchor="middle" x="61.25" y="-131.7" font-family="Helvetica,sans-Serif" font-size="10.00">AsyncClient::operator+=</text>
</a>
</g>
</g>
<!-- Node2 -->
<g id="Node000002" class="node">
<title>Node2</title>
<g id="a_Node000002"><a xlink:href="class_async_client.html#aefecfa0c75c8c1b32104115e93739087" target="_top" xlink:title=" ">
<polygon fill="white" stroke="#666666" points="287,-145.2 158.5,-145.2 158.5,-125.2 287,-125.2 287,-145.2"/>
<text xml:space="preserve" text-anchor="middle" x="222.75" y="-131.7" font-family="Helvetica,sans-Serif" font-size="10.00">AsyncClient::AsyncClient</text>
</a>
</g>
</g>
<!-- Node1&#45;&gt;Node2 -->
<g id="edge1_Node000001_Node000002" class="edge">
<title>Node1&#45;&gt;Node2</title>
<g id="a_edge1_Node000001_Node000002"><a xlink:title=" ">
<path fill="none" stroke="#63b8ff" d="M122.55,-135.2C130.46,-135.2 138.65,-135.2 146.77,-135.2"/>
<polygon fill="#63b8ff" stroke="#63b8ff" points="146.66,-138.7 156.66,-135.2 146.66,-131.7 146.66,-138.7"/>
</a>
</g>
</g>
<!-- Node3 -->
<g id="Node000003" class="node">
<title>Node3</title>
<g id="a_Node000003"><a xlink:href="class_async_client.html#ab0422e5254ea4fbac9f87188a018ebc4" target="_top" xlink:title=" ">
<polygon fill="white" stroke="#666666" points="437.25,-290.2 323,-290.2 323,-258.2 437.25,-258.2 437.25,-290.2"/>
<text xml:space="preserve" text-anchor="start" x="331" y="-276.7" font-family="Helvetica,sans-Serif" font-size="10.00">AsyncClient::_allocate</text>
<text xml:space="preserve" text-anchor="middle" x="380.12" y="-264.7" font-family="Helvetica,sans-Serif" font-size="10.00">_closed_slot</text>
</a>
</g>
</g>
<!-- Node2&#45;&gt;Node3 -->
<g id="edge2_Node000002_Node000003" class="edge">
<title>Node2&#45;&gt;Node3</title>
<g id="a_edge2_Node000002_Node000003"><a xlink:title=" ">
<path fill="none" stroke="#63b8ff" d="M230.51,-145.68C245.07,-167.52 281.44,-218.46 323,-249.2 324.34,-250.19 325.73,-251.16 327.15,-252.09"/>
<polygon fill="#63b8ff" stroke="#63b8ff" points="325.22,-255.02 335.61,-257.08 328.78,-248.99 325.22,-255.02"/>
</a>
</g>
</g>
<!-- Node4 -->
<g id="Node000004" class="node">
<title>Node4</title>
<g id="a_Node000004"><a xlink:href="class_async_client.html#a98ff872bc84919f006f3bb8a249ed36d" target="_top" xlink:title=" ">
<polygon fill="white" stroke="#666666" points="432,-240.2 328.25,-240.2 328.25,-220.2 432,-220.2 432,-240.2"/>
<text xml:space="preserve" text-anchor="middle" x="380.12" y="-226.7" font-family="Helvetica,sans-Serif" font-size="10.00">AsyncClient::_close</text>
</a>
</g>
</g>
<!-- Node2&#45;&gt;Node4 -->
<g id="edge3_Node000002_Node000004" class="edge">
<title>Node2&#45;&gt;Node4</title>
<g id="a_edge3_Node000002_Node000004"><a xlink:title=" ">
<path fill="none" stroke="#63b8ff" d="M234.81,-145.66C252.3,-161.71 287.96,-192.51 323,-211.2 325.85,-212.72 328.85,-214.15 331.91,-215.5"/>
<polygon fill="#63b8ff" stroke="#63b8ff" points="330.48,-218.7 341.06,-219.16 333.08,-212.2 330.48,-218.7"/>
</a>
</g>
</g>
<!-- Node13 -->
<g id="Node000013" class="node">
<title>Node13</title>
<g id="a_Node000013"><a xlink:href="_async_t_c_p_8cpp.html#a61ff9f7f886bbbbcdc1daca453828934" target="_top" xlink:title=" ">
<polygon fill="white" stroke="#666666" points="409.88,-202.2 350.38,-202.2 350.38,-182.2 409.88,-182.2 409.88,-202.2"/>
<text xml:space="preserve" text-anchor="middle" x="380.12" y="-188.7" font-family="Helvetica,sans-Serif" font-size="10.00">_tcp_error</text>
</a>
</g>
</g>
<!-- Node2&#45;&gt;Node13 -->
<g id="edge8_Node000002_Node000013" class="edge">
<title>Node2&#45;&gt;Node13</title>
<g id="a_edge8_Node000002_Node000013"><a xlink:title=" ">
<path fill="none" stroke="#63b8ff" d="M250.18,-145.65C270.12,-153.44 298.18,-164.25 323,-173.2 328.17,-175.07 333.63,-176.98 339.03,-178.84"/>
<polygon fill="#63b8ff" stroke="#63b8ff" points="337.89,-182.15 348.49,-182.07 340.15,-175.53 337.89,-182.15"/>
</a>
</g>
</g>
<!-- Node15 -->
<g id="Node000015" class="node">
<title>Node15</title>
<g id="a_Node000015"><a xlink:href="_async_t_c_p_8cpp.html#ad4b2c6c935c211eef5884f25a950e445" target="_top" xlink:title=" ">
<polygon fill="white" stroke="#666666" points="407.62,-164.2 352.62,-164.2 352.62,-144.2 407.62,-144.2 407.62,-164.2"/>
<text xml:space="preserve" text-anchor="middle" x="380.12" y="-150.7" font-family="Helvetica,sans-Serif" font-size="10.00">_tcp_poll</text>
</a>
</g>
</g>
<!-- Node2&#45;&gt;Node15 -->
<g id="edge10_Node000002_Node000015" class="edge">
<title>Node2&#45;&gt;Node15</title>
<g id="a_edge10_Node000002_Node000015"><a xlink:title=" ">
<path fill="none" stroke="#63b8ff" d="M287.4,-142.98C305.6,-145.21 324.88,-147.57 341.03,-149.54"/>
<polygon fill="#63b8ff" stroke="#63b8ff" points="340.33,-152.98 350.68,-150.72 341.18,-146.03 340.33,-152.98"/>
</a>
</g>
</g>
<!-- Node16 -->
<g id="Node000016" class="node">
<title>Node16</title>
<g id="a_Node000016"><a xlink:href="_async_t_c_p_8cpp.html#adf7826424bf5b1035c4850f6b3307686" target="_top" xlink:title=" ">
<polygon fill="white" stroke="#666666" points="409.5,-88.2 350.75,-88.2 350.75,-68.2 409.5,-68.2 409.5,-88.2"/>
<text xml:space="preserve" text-anchor="middle" x="380.12" y="-74.7" font-family="Helvetica,sans-Serif" font-size="10.00">_tcp_recv</text>
</a>
</g>
</g>
<!-- Node2&#45;&gt;Node16 -->
<g id="edge12_Node000002_Node000016" class="edge">
<title>Node2&#45;&gt;Node16</title>
<g id="a_edge12_Node000002_Node000016"><a xlink:title=" ">
<path fill="none" stroke="#63b8ff" d="M250.18,-124.76C270.12,-116.96 298.18,-106.15 323,-97.2 328.43,-95.24 334.17,-93.23 339.82,-91.29"/>
<polygon fill="#63b8ff" stroke="#63b8ff" points="340.73,-94.68 349.06,-88.14 338.47,-88.05 340.73,-94.68"/>
</a>
</g>
</g>
<!-- Node19 -->
<g id="Node000019" class="node">
<title>Node19</title>
<g id="a_Node000019"><a xlink:href="class_async_client.html#ac0c28dd08517243bc6d64d32f982a3cc" target="_top" xlink:title=" ">
<polygon fill="white" stroke="#666666" points="724.25,-31.2 633.25,-31.2 633.25,-11.2 724.25,-11.2 724.25,-31.2"/>
<text xml:space="preserve" text-anchor="middle" x="678.75" y="-17.7" font-family="Helvetica,sans-Serif" font-size="10.00">AsyncClient::pcb</text>
</a>
</g>
</g>
<!-- Node2&#45;&gt;Node19 -->
<g id="edge19_Node000002_Node000019" class="edge">
<title>Node2&#45;&gt;Node19</title>
<g id="a_edge19_Node000002_Node000019"><a xlink:title=" ">
<path fill="none" stroke="#63b8ff" d="M230.15,-124.87C244.03,-103.52 279.19,-54.84 323,-34.2 419.98,11.48 548.95,1.09 621.67,-10.27"/>
<polygon fill="#63b8ff" stroke="#63b8ff" points="620.91,-13.69 631.35,-11.85 622.04,-6.79 620.91,-13.69"/>
</a>
</g>
</g>
<!-- Node20 -->
<g id="Node000020" class="node">
<title>Node20</title>
<g id="a_Node000020"><a xlink:href="_async_t_c_p_8cpp.html#a0b47280aff638ec9b80f7a87dfe54ea6" target="_top" xlink:title=" ">
<polygon fill="white" stroke="#666666" points="409.5,-126.2 350.75,-126.2 350.75,-106.2 409.5,-106.2 409.5,-126.2"/>
<text xml:space="preserve" text-anchor="middle" x="380.12" y="-112.7" font-family="Helvetica,sans-Serif" font-size="10.00">_tcp_sent</text>
</a>
</g>
</g>
<!-- Node2&#45;&gt;Node20 -->
<g id="edge17_Node000002_Node000020" class="edge">
<title>Node2&#45;&gt;Node20</title>
<g id="a_edge17_Node000002_Node000020"><a xlink:title=" ">
<path fill="none" stroke="#63b8ff" d="M287.4,-127.42C305.06,-125.26 323.74,-122.97 339.59,-121.04"/>
<polygon fill="#63b8ff" stroke="#63b8ff" points="339.57,-124.56 349.08,-119.88 338.72,-117.62 339.57,-124.56"/>
</a>
</g>
</g>
<!-- Node5 -->
<g id="Node000005" class="node">
<title>Node5</title>
<g id="a_Node000005"><a xlink:href="class_async_client.html#aff6a2fbf261b25e1fcd35c11cce348a5" target="_top" xlink:title=" ">
<polygon fill="white" stroke="#666666" points="583.75,-309.2 486.75,-309.2 486.75,-277.2 583.75,-277.2 583.75,-309.2"/>
<text xml:space="preserve" text-anchor="start" x="494.75" y="-295.7" font-family="Helvetica,sans-Serif" font-size="10.00">AsyncClient::_free</text>
<text xml:space="preserve" text-anchor="middle" x="535.25" y="-283.7" font-family="Helvetica,sans-Serif" font-size="10.00">_closed_slot</text>
</a>
</g>
</g>
<!-- Node4&#45;&gt;Node5 -->
<g id="edge4_Node000004_Node000005" class="edge">
<title>Node4&#45;&gt;Node5</title>
<g id="a_edge4_Node000004_Node000005"><a xlink:title=" ">
<path fill="none" stroke="#63b8ff" d="M414.99,-240.69C422.41,-243.26 430.16,-246.15 437.25,-249.2 453.87,-256.35 456.86,-260.54 473.25,-268.2 476.17,-269.56 479.18,-270.93 482.23,-272.28"/>
<polygon fill="#63b8ff" stroke="#63b8ff" points="480.71,-275.44 491.28,-276.19 483.49,-269.01 480.71,-275.44"/>
</a>
</g>
</g>
<!-- Node6 -->
<g id="Node000006" class="node">
<title>Node6</title>
<g id="a_Node000006"><a xlink:href="_async_t_c_p_8cpp.html#ab053d5adb5be879f37181af512213bb6" target="_top" xlink:title=" ">
<polygon fill="#fff0f0" stroke="red" points="583,-259.2 487.5,-259.2 487.5,-239.2 583,-239.2 583,-259.2"/>
<text xml:space="preserve" text-anchor="middle" x="535.25" y="-245.7" font-family="Helvetica,sans-Serif" font-size="10.00">_tcp_clear_events</text>
</a>
</g>
</g>
<!-- Node4&#45;&gt;Node6 -->
<g id="edge5_Node000004_Node000006" class="edge">
<title>Node4&#45;&gt;Node6</title>
<g id="a_edge5_Node000004_Node000006"><a xlink:title=" ">
<path fill="none" stroke="#63b8ff" d="M432.11,-236.53C446.12,-238.27 461.41,-240.16 475.8,-241.95"/>
<polygon fill="#63b8ff" stroke="#63b8ff" points="475.25,-245.41 485.6,-243.16 476.11,-238.46 475.25,-245.41"/>
</a>
</g>
</g>
<!-- Node8 -->
<g id="Node000008" class="node">
<title>Node8</title>
<g id="a_Node000008"><a xlink:href="_async_t_c_p_8cpp.html#a3602c1ebfae2fb2ff64a0e3d7b0568ce" target="_top" xlink:title=" ">
<polygon fill="#fff0f0" stroke="red" points="566.88,-221.2 503.62,-221.2 503.62,-201.2 566.88,-201.2 566.88,-221.2"/>
<text xml:space="preserve" text-anchor="middle" x="535.25" y="-207.7" font-family="Helvetica,sans-Serif" font-size="10.00">_tcp_close</text>
</a>
</g>
</g>
<!-- Node4&#45;&gt;Node8 -->
<g id="edge6_Node000004_Node000008" class="edge">
<title>Node4&#45;&gt;Node8</title>
<g id="a_edge6_Node000004_Node000008"><a xlink:title=" ">
<path fill="none" stroke="#63b8ff" d="M432.11,-223.87C451.62,-221.45 473.62,-218.72 492.2,-216.42"/>
<polygon fill="#63b8ff" stroke="#63b8ff" points="492.57,-219.9 502.06,-215.2 491.71,-212.95 492.57,-219.9"/>
</a>
</g>
</g>
<!-- Node10 -->
<g id="Node000010" class="node">
<title>Node10</title>
<g id="a_Node000010"><a xlink:href="class_async_client.html#a09e777ff005d8e0f81166e704dc14979" target="_top" xlink:title=" ">
<polygon fill="#fff0f0" stroke="red" points="583.75,-183.2 486.75,-183.2 486.75,-163.2 583.75,-163.2 583.75,-183.2"/>
<text xml:space="preserve" text-anchor="middle" x="535.25" y="-169.7" font-family="Helvetica,sans-Serif" font-size="10.00">AsyncClient::abort</text>
</a>
</g>
</g>
<!-- Node4&#45;&gt;Node10 -->
<g id="edge7_Node000004_Node000010" class="edge">
<title>Node4&#45;&gt;Node10</title>
<g id="a_edge7_Node000004_Node000010"><a xlink:title=" ">
<path fill="none" stroke="#63b8ff" d="M414.99,-219.71C422.41,-217.14 430.16,-214.25 437.25,-211.2 453.87,-204.06 456.54,-199.14 473.25,-192.2 477.34,-190.5 481.64,-188.87 485.98,-187.33"/>
<polygon fill="#63b8ff" stroke="#63b8ff" points="486.98,-190.68 495.33,-184.17 484.74,-184.05 486.98,-190.68"/>
</a>
</g>
</g>
<!-- Node14 -->
<g id="Node000014" class="node">
<title>Node14</title>
<g id="a_Node000014"><a xlink:href="_async_t_c_p_8cpp.html#a796c13746a84a6b2e7370ddbec97ad5b" target="_top" xlink:title=" ">
<polygon fill="white" stroke="#666666" points="586.75,-145.2 483.75,-145.2 483.75,-125.2 586.75,-125.2 586.75,-145.2"/>
<text xml:space="preserve" text-anchor="middle" x="535.25" y="-131.7" font-family="Helvetica,sans-Serif" font-size="10.00">_send_async_event</text>
</a>
</g>
</g>
<!-- Node13&#45;&gt;Node14 -->
<g id="edge9_Node000013_Node000014" class="edge">
<title>Node13&#45;&gt;Node14</title>
<g id="a_edge9_Node000013_Node000014"><a xlink:title=" ">
<path fill="none" stroke="#63b8ff" d="M410.3,-183.3C419.07,-180.37 428.65,-176.9 437.25,-173.2 453.87,-166.06 456.54,-161.14 473.25,-154.2 477.34,-152.5 481.64,-150.87 485.98,-149.33"/>
<polygon fill="#63b8ff" stroke="#63b8ff" points="486.98,-152.68 495.33,-146.17 484.74,-146.05 486.98,-152.68"/>
</a>
</g>
</g>
<!-- Node15&#45;&gt;Node14 -->
<g id="edge11_Node000015_Node000014" class="edge">
<title>Node15&#45;&gt;Node14</title>
<g id="a_edge11_Node000015_Node000014"><a xlink:title=" ">
<path fill="none" stroke="#63b8ff" d="M407.8,-150.89C425.61,-148.68 449.8,-145.68 472.26,-142.89"/>
<polygon fill="#63b8ff" stroke="#63b8ff" points="472.46,-146.39 481.95,-141.69 471.6,-139.45 472.46,-146.39"/>
</a>
</g>
</g>
<!-- Node16&#45;&gt;Node14 -->
<g id="edge16_Node000016_Node000014" class="edge">
<title>Node16&#45;&gt;Node14</title>
<g id="a_edge16_Node000016_Node000014"><a xlink:title=" ">
<path fill="none" stroke="#63b8ff" d="M409.77,-87.61C418.61,-90.59 428.36,-93.96 437.25,-97.2 457.37,-104.54 479.63,-113.22 497.75,-120.43"/>
<polygon fill="#63b8ff" stroke="#63b8ff" points="496.45,-123.68 507.03,-124.15 499.05,-117.18 496.45,-123.68"/>
</a>
</g>
</g>
<!-- Node17 -->
<g id="Node000017" class="node">
<title>Node17</title>
<g id="a_Node000017"><a xlink:href="class_async_client.html#a485b2be0c01d3172928c0ed9655edc2f" target="_top" xlink:title=" ">
<polygon fill="#fff0f0" stroke="red" points="597.25,-50.2 473.25,-50.2 473.25,-30.2 597.25,-30.2 597.25,-50.2"/>
<text xml:space="preserve" text-anchor="middle" x="535.25" y="-36.7" font-family="Helvetica,sans-Serif" font-size="10.00">AsyncClient::_s_lwip_fin</text>
</a>
</g>
</g>
<!-- Node16&#45;&gt;Node17 -->
<g id="edge13_Node000016_Node000017" class="edge">
<title>Node16&#45;&gt;Node17</title>
<g id="a_edge13_Node000016_Node000017"><a xlink:title=" ">
<path fill="none" stroke="#63b8ff" d="M409.93,-71.05C429.9,-66.1 457.08,-59.35 480.94,-53.43"/>
<polygon fill="#63b8ff" stroke="#63b8ff" points="481.65,-56.86 490.51,-51.05 479.96,-50.07 481.65,-56.86"/>
</a>
</g>
</g>
<!-- Node17&#45;&gt;Node2 -->
<g id="edge14_Node000017_Node000002" class="edge">
<title>Node17&#45;&gt;Node2</title>
<g id="a_edge14_Node000017_Node000002"><a xlink:title=" ">
<path fill="none" stroke="#63b8ff" d="M473.02,-36.84C429.71,-36.55 371.03,-40.48 323,-59.2 290.5,-71.86 259.7,-98.58 241.26,-116.71"/>
<polygon fill="#63b8ff" stroke="#63b8ff" points="238.85,-114.17 234.32,-123.75 243.83,-119.09 238.85,-114.17"/>
</a>
</g>
</g>
<!-- Node17&#45;&gt;Node19 -->
<g id="edge15_Node000017_Node000019" class="edge">
<title>Node17&#45;&gt;Node19</title>
<g id="a_edge15_Node000017_Node000019"><a xlink:title=" ">
<path fill="none" stroke="#63b8ff" d="M597.49,-31.98C605.52,-30.9 613.72,-29.8 621.65,-28.73"/>
<polygon fill="#63b8ff" stroke="#63b8ff" points="622.11,-32.2 631.55,-27.4 621.17,-25.27 622.11,-32.2"/>
</a>
</g>
</g>
<!-- Node20&#45;&gt;Node14 -->
<g id="edge18_Node000020_Node000014" class="edge">
<title>Node20&#45;&gt;Node14</title>
<g id="a_edge18_Node000020_Node000014"><a xlink:title=" ">
<path fill="none" stroke="#63b8ff" d="M409.93,-119.77C427.4,-121.94 450.41,-124.8 471.88,-127.46"/>
<polygon fill="#63b8ff" stroke="#63b8ff" points="471.4,-130.93 481.76,-128.69 472.26,-123.98 471.4,-130.93"/>
</a>
</g>
</g>
</g>
</svg>
