<?xml version="1.0" encoding="UTF-8" standalone="no"?>
<!DOCTYPE svg PUBLIC "-//W3C//DTD SVG 1.1//EN"
 "http://www.w3.org/Graphics/SVG/1.1/DTD/svg11.dtd">
<!-- Generated by graphviz version 14.1.2 (20260124.0452)
 -->
<!-- Title: AsyncClient::pcb Pages: 1 -->
<svg width="1043pt" height="553pt"
 viewBox="0.00 0.00 1043.00 553.00" xmlns="http://www.w3.org/2000/svg" xmlns:xlink="http://www.w3.org/1999/xlink">
<g id="graph0" class="graph" transform="scale(1 1) rotate(0) translate(4 548.87)">
<title>AsyncClient::pcb</title>
<!-- Node1 -->
<g id="Node000001" class="node">
<title>Node1</title>
<g id="a_Node000001"><a xlink:title=" ">
<polygon fill="#999999" stroke="#666666" points="1035.25,-270.54 944.25,-270.54 944.25,-250.54 1035.25,-250.54 1035.25,-270.54"/>
<text xml:space="preserve" text-anchor="middle" x="989.75" y="-257.04" font-family="Helvetica,sans-Serif" font-size="10.00">AsyncClient::pcb</text>
</a>
</g>
</g>
<!-- Node2 -->
<g id="Node000002" class="node">
<title>Node2</title>
<g id="a_Node000002"><a xlink:href="class_async_client.html#a758eaca983e03027c99003a5808883f8" target="_top" xlink:title=" ">
<polygon fill="white" stroke="#666666" points="455.25,-517.54 340.25,-517.54 340.25,-497.54 455.25,-497.54 455.25,-517.54"/>
<text xml:space="preserve" text-anchor="middle" x="397.75" y="-504.04" font-family="Helvetica,sans-Serif" font-size="10.00">AsyncClient::_connect</text>
</a>
</g>
</g>
<!-- Node1&#45;&gt;Node2 -->
<g id="edge1_Node000001_Node000002" class="edge">
<title>Node1&#45;&gt;Node2</title>
<g id="a_edge1_Node000001_Node000002"><a xlink:title=" ">
<path fill="none" stroke="#63b8ff" d="M987.66,-281.85C984.16,-325.57 969.52,-425.25 908.25,-472.54 766.11,-582.23 530.04,-540.29 437.58,-517.96"/>
<polygon fill="#63b8ff" stroke="#63b8ff" points="991.13,-282.36 988.3,-272.15 984.14,-281.9 991.13,-282.36"/>
</a>
</g>
</g>
<!-- Node11 -->
<g id="Node000011" class="node">
<title>Node11</title>
<g id="a_Node000011"><a xlink:href="class_async_client.html#a045a3529852917ea1d4dfff5d9c3ba90" target="_top" xlink:title=" ">
<polygon fill="white" stroke="#666666" points="758.75,-175.54 633.25,-175.54 633.25,-155.54 758.75,-155.54 758.75,-175.54"/>
<text xml:space="preserve" text-anchor="middle" x="696" y="-162.04" font-family="Helvetica,sans-Serif" font-size="10.00">AsyncClient::_connected</text>
</a>
</g>
</g>
<!-- Node1&#45;&gt;Node11 -->
<g id="edge6_Node000001_Node000011" class="edge">
<title>Node1&#45;&gt;Node11</title>
<g id="a_edge6_Node000001_Node000011"><a xlink:title=" ">
<path fill="none" stroke="#63b8ff" d="M973.44,-241.66C958.67,-224.89 934.69,-201.28 908.25,-189.54 861.19,-168.64 802.69,-163.39 759.19,-162.94"/>
<polygon fill="#63b8ff" stroke="#63b8ff" points="970.54,-243.65 979.68,-249 975.87,-239.11 970.54,-243.65"/>
</a>
</g>
</g>
<!-- Node12 -->
<g id="Node000012" class="node">
<title>Node12</title>
<g id="a_Node000012"><a xlink:href="class_async_client.html#ac4cdb0990fa85f03da98d1c98b1f8611" target="_top" xlink:title=" ">
<polygon fill="white" stroke="#666666" points="297.5,-213.54 161.5,-213.54 161.5,-193.54 297.5,-193.54 297.5,-213.54"/>
<text xml:space="preserve" text-anchor="middle" x="229.5" y="-200.04" font-family="Helvetica,sans-Serif" font-size="10.00">AsyncClient::_s_connected</text>
</a>
</g>
</g>
<!-- Node1&#45;&gt;Node12 -->
<g id="edge30_Node000001_Node000012" class="edge">
<title>Node1&#45;&gt;Node12</title>
<g id="a_edge30_Node000001_Node000012"><a xlink:title=" ">
<path fill="none" stroke="#63b8ff" d="M932.45,-256.31C795.57,-246.02 445.75,-219.72 297.99,-208.61"/>
<polygon fill="#63b8ff" stroke="#63b8ff" points="932.13,-259.79 942.36,-257.05 932.65,-252.81 932.13,-259.79"/>
</a>
</g>
</g>
<!-- Node13 -->
<g id="Node000013" class="node">
<title>Node13</title>
<g id="a_Node000013"><a xlink:href="class_async_client.html#afe295b6c577021c8946eb266ac41df51" target="_top" xlink:title=" ">
<polygon fill="white" stroke="#666666" points="897,-403.54 806,-403.54 806,-383.54 897,-383.54 897,-403.54"/>
<text xml:space="preserve" text-anchor="middle" x="851.5" y="-390.04" font-family="Helvetica,sans-Serif" font-size="10.00">AsyncClient::_fin</text>
</a>
</g>
</g>
<!-- Node1&#45;&gt;Node13 -->
<g id="edge9_Node000001_Node000013" class="edge">
<title>Node1&#45;&gt;Node13</title>
<g id="a_edge9_Node000001_Node000013"><a xlink:title=" ">
<path fill="none" stroke="#63b8ff" d="M978.2,-280.78C964.79,-304.79 939.58,-344.69 908.25,-369.54 901.32,-375.04 892.93,-379.51 884.79,-383.04"/>
<polygon fill="#63b8ff" stroke="#63b8ff" points="981.1,-282.76 982.79,-272.3 974.95,-279.43 981.1,-282.76"/>
</a>
</g>
</g>
<!-- Node14 -->
<g id="Node000014" class="node">
<title>Node14</title>
<g id="a_Node000014"><a xlink:href="class_async_client.html#a6a69c67e1a22660766affb64700c2276" target="_top" xlink:title=" ">
<polygon fill="white" stroke="#666666" points="280.25,-317.54 178.75,-317.54 178.75,-297.54 280.25,-297.54 280.25,-317.54"/>
<text xml:space="preserve" text-anchor="middle" x="229.5" y="-304.04" font-family="Helvetica,sans-Serif" font-size="10.00">AsyncClient::_s_fin</text>
</a>
</g>
</g>
<!-- Node1&#45;&gt;Node14 -->
<g id="edge31_Node000001_Node000014" class="edge">
<title>Node1&#45;&gt;Node14</title>
<g id="a_edge31_Node000001_Node000014"><a xlink:title=" ">
<path fill="none" stroke="#63b8ff" d="M970.26,-278.42C954.91,-292.18 931.85,-310.5 908.25,-320.54 820.68,-357.81 792.17,-355.54 697,-355.54 697,-355.54 697,-355.54 546.62,-355.54 447.4,-355.54 332.62,-332.14 272.38,-318.01"/>
<polygon fill="#63b8ff" stroke="#63b8ff" points="972.27,-281.32 977.24,-271.96 967.52,-276.18 972.27,-281.32"/>
</a>
</g>
</g>
<!-- Node15 -->
<g id="Node000015" class="node">
<title>Node15</title>
<g id="a_Node000015"><a xlink:href="class_async_client.html#a32dfd5b9ec97903e2f59871f17b85ff4" target="_top" xlink:title=" ">
<polygon fill="white" stroke="#666666" points="908.25,-289.54 794.75,-289.54 794.75,-269.54 908.25,-269.54 908.25,-289.54"/>
<text xml:space="preserve" text-anchor="middle" x="851.5" y="-276.04" font-family="Helvetica,sans-Serif" font-size="10.00">AsyncClient::_lwip_fin</text>
</a>
</g>
</g>
<!-- Node1&#45;&gt;Node15 -->
<g id="edge12_Node000001_Node000015" class="edge">
<title>Node1&#45;&gt;Node15</title>
<g id="a_edge12_Node000001_Node000015"><a xlink:title=" ">
<path fill="none" stroke="#63b8ff" d="M932.36,-268.4C924.44,-269.51 916.29,-270.64 908.38,-271.75"/>
<polygon fill="#63b8ff" stroke="#63b8ff" points="932.84,-271.87 942.26,-267.02 931.87,-264.94 932.84,-271.87"/>
</a>
</g>
</g>
<!-- Node16 -->
<g id="Node000016" class="node">
<title>Node16</title>
<g id="a_Node000016"><a xlink:href="class_async_client.html#a485b2be0c01d3172928c0ed9655edc2f" target="_top" xlink:title=" ">
<polygon fill="white" stroke="#666666" points="758,-327.54 634,-327.54 634,-307.54 758,-307.54 758,-327.54"/>
<text xml:space="preserve" text-anchor="middle" x="696" y="-314.04" font-family="Helvetica,sans-Serif" font-size="10.00">AsyncClient::_s_lwip_fin</text>
</a>
</g>
</g>
<!-- Node1&#45;&gt;Node16 -->
<g id="edge32_Node000001_Node000016" class="edge">
<title>Node1&#45;&gt;Node16</title>
<g id="a_edge32_Node000001_Node000016"><a xlink:title=" ">
<path fill="none" stroke="#63b8ff" d="M961.48,-276.36C946.31,-284.39 926.79,-293.5 908.25,-298.54 858.86,-311.96 800.82,-316.41 758.09,-317.67"/>
<polygon fill="#63b8ff" stroke="#63b8ff" points="962.8,-279.63 969.9,-271.76 959.44,-273.48 962.8,-279.63"/>
</a>
</g>
</g>
<!-- Node18 -->
<g id="Node000018" class="node">
<title>Node18</title>
<g id="a_Node000018"><a xlink:href="class_async_client.html#aefecfa0c75c8c1b32104115e93739087" target="_top" xlink:title=" ">
<polygon fill="#fff0f0" stroke="red" points="462,-270.54 333.5,-270.54 333.5,-250.54 462,-250.54 462,-270.54"/>
<text xml:space="preserve" text-anchor="middle" x="397.75" y="-257.04" font-family="Helvetica,sans-Serif" font-size="10.00">AsyncClient::AsyncClient</text>
</a>
</g>
</g>
<!-- Node1&#45;&gt;Node18 -->
<g id="edge38_Node000001_Node000018" class="edge">
<title>Node1&#45;&gt;Node18</title>
<g id="a_edge38_Node000001_Node000018"><a xlink:title=" ">
<path fill="none" stroke="#63b8ff" d="M932.74,-260.54C822.53,-260.54 578.2,-260.54 462.22,-260.54"/>
<polygon fill="#63b8ff" stroke="#63b8ff" points="932.41,-264.04 942.41,-260.54 932.41,-257.04 932.41,-264.04"/>
</a>
</g>
</g>
<!-- Node20 -->
<g id="Node000020" class="node">
<title>Node20</title>
<g id="a_Node000020"><a xlink:href="class_async_client.html#abe187c005c73fe6c0c94e1b3b20b55de" target="_top" xlink:title=" ">
<polygon fill="white" stroke="#666666" points="282.5,-80.54 176.5,-80.54 176.5,-60.54 282.5,-60.54 282.5,-80.54"/>
<text xml:space="preserve" text-anchor="middle" x="229.5" y="-67.04" font-family="Helvetica,sans-Serif" font-size="10.00">AsyncClient::_s_poll</text>
</a>
</g>
</g>
<!-- Node1&#45;&gt;Node20 -->
<g id="edge33_Node000001_Node000020" class="edge">
<title>Node1&#45;&gt;Node20</title>
<g id="a_edge33_Node000001_Node000020"><a xlink:title=" ">
<path fill="none" stroke="#63b8ff" d="M988.4,-238.72C986.34,-192.06 974.34,-82.71 908.25,-31.54 833.75,26.15 791.23,-13.54 697,-13.54 697,-13.54 697,-13.54 546.62,-13.54 442.9,-13.54 323.02,-43.63 265.22,-60.08"/>
<polygon fill="#63b8ff" stroke="#63b8ff" points="984.89,-238.71 988.7,-248.6 991.89,-238.5 984.89,-238.71"/>
</a>
</g>
</g>
<!-- Node21 -->
<g id="Node000021" class="node">
<title>Node21</title>
<g id="a_Node000021"><a xlink:href="class_async_client.html#af8136d3085c8948078a131bfb9430ec6" target="_top" xlink:title=" ">
<polygon fill="white" stroke="#666666" points="284.38,-156.54 174.62,-156.54 174.62,-136.54 284.38,-136.54 284.38,-156.54"/>
<text xml:space="preserve" text-anchor="middle" x="229.5" y="-143.04" font-family="Helvetica,sans-Serif" font-size="10.00">AsyncClient::_s_recv</text>
</a>
</g>
</g>
<!-- Node1&#45;&gt;Node21 -->
<g id="edge34_Node000001_Node000021" class="edge">
<title>Node1&#45;&gt;Node21</title>
<g id="a_edge34_Node000001_Node000021"><a xlink:title=" ">
<path fill="none" stroke="#63b8ff" d="M978.52,-240.35C965.56,-217.02 940.9,-179.41 908.25,-160.54 825.97,-112.99 792.03,-127.54 697,-127.54 697,-127.54 697,-127.54 546.62,-127.54 454.53,-127.54 347.62,-135.67 284.7,-141.3"/>
<polygon fill="#63b8ff" stroke="#63b8ff" points="975.29,-241.72 983.08,-248.9 981.46,-238.43 975.29,-241.72"/>
</a>
</g>
</g>
<!-- Node22 -->
<g id="Node000022" class="node">
<title>Node22</title>
<g id="a_Node000022"><a xlink:href="class_async_client.html#a8e507d50b4cc3ae8e90f2e1c1ebf5f61" target="_top" xlink:title=" ">
<polygon fill="white" stroke="#666666" points="284.38,-398.54 174.62,-398.54 174.62,-378.54 284.38,-378.54 284.38,-398.54"/>
<text xml:space="preserve" text-anchor="middle" x="229.5" y="-385.04" font-family="Helvetica,sans-Serif" font-size="10.00">AsyncClient::_s_sent</text>
</a>
</g>
</g>
<!-- Node1&#45;&gt;Node22 -->
<g id="edge35_Node000001_Node000022" class="edge">
<title>Node1&#45;&gt;Node22</title>
<g id="a_edge35_Node000001_Node000022"><a xlink:title=" ">
<path fill="none" stroke="#63b8ff" d="M984.26,-281.93C975.87,-316.02 954.32,-381.91 908.25,-412.54 829.75,-464.73 791.27,-431.54 697,-431.54 697,-431.54 697,-431.54 546.62,-431.54 450.39,-431.54 339.16,-411.73 277.63,-399"/>
<polygon fill="#63b8ff" stroke="#63b8ff" points="987.62,-282.94 986.44,-272.41 980.79,-281.38 987.62,-282.94"/>
</a>
</g>
</g>
<!-- Node27 -->
<g id="Node000027" class="node">
<title>Node27</title>
<g id="a_Node000027"><a xlink:href="class_async_client.html#a383d1cb7d684d328362caa5eafc92ca2" target="_top" xlink:title=" ">
<polygon fill="white" stroke="#666666" points="595.38,-61.54 499.88,-61.54 499.88,-41.54 595.38,-41.54 595.38,-61.54"/>
<text xml:space="preserve" text-anchor="middle" x="547.62" y="-48.04" font-family="Helvetica,sans-Serif" font-size="10.00">AsyncClient::_poll</text>
</a>
</g>
</g>
<!-- Node1&#45;&gt;Node27 -->
<g id="edge26_Node000001_Node000027" class="edge">
<title>Node1&#45;&gt;Node27</title>
<g id="a_edge26_Node000001_Node000027"><a xlink:title=" ">
<path fill="none" stroke="#63b8ff" d="M986.31,-239.14C980.59,-199.85 962.38,-116.75 908.25,-78.54 813.88,-11.92 668.74,-27.3 595.03,-41.09"/>
<polygon fill="#63b8ff" stroke="#63b8ff" points="982.83,-239.49 987.59,-248.95 989.77,-238.58 982.83,-239.49"/>
</a>
</g>
</g>
<!-- Node28 -->
<g id="Node000028" class="node">
<title>Node28</title>
<g id="a_Node000028"><a xlink:href="class_async_client.html#af9a0368be4f98f49f252b1989b84b5a3" target="_top" xlink:title=" ">
<polygon fill="white" stroke="#666666" points="745.62,-99.54 646.38,-99.54 646.38,-79.54 745.62,-79.54 745.62,-99.54"/>
<text xml:space="preserve" text-anchor="middle" x="696" y="-86.04" font-family="Helvetica,sans-Serif" font-size="10.00">AsyncClient::_recv</text>
</a>
</g>
</g>
<!-- Node1&#45;&gt;Node28 -->
<g id="edge28_Node000001_Node000028" class="edge">
<title>Node1&#45;&gt;Node28</title>
<g id="a_edge28_Node000001_Node000028"><a xlink:title=" ">
<path fill="none" stroke="#63b8ff" d="M983.71,-239.04C974.73,-205.96 952.59,-143.32 908.25,-113.54 860.14,-81.23 791.59,-79.52 745.76,-83.03"/>
<polygon fill="#63b8ff" stroke="#63b8ff" points="980.3,-239.84 986.15,-248.67 987.09,-238.11 980.3,-239.84"/>
</a>
</g>
</g>
<!-- Node29 -->
<g id="Node000029" class="node">
<title>Node29</title>
<g id="a_Node000029"><a xlink:href="class_async_client.html#a6a6efff5757dd06483709456e2f637b4" target="_top" xlink:title=" ">
<polygon fill="white" stroke="#666666" points="597.25,-479.54 498,-479.54 498,-459.54 597.25,-459.54 597.25,-479.54"/>
<text xml:space="preserve" text-anchor="middle" x="547.62" y="-466.04" font-family="Helvetica,sans-Serif" font-size="10.00">AsyncClient::_sent</text>
</a>
</g>
</g>
<!-- Node1&#45;&gt;Node29 -->
<g id="edge36_Node000001_Node000029" class="edge">
<title>Node1&#45;&gt;Node29</title>
<g id="a_edge36_Node000001_Node000029"><a xlink:title=" ">
<path fill="none" stroke="#63b8ff" d="M986.5,-282.06C981.06,-321.94 963.29,-406.78 908.25,-445.54 859.52,-479.85 684.17,-476.39 597.63,-472.37"/>
<polygon fill="#63b8ff" stroke="#63b8ff" points="989.95,-282.66 987.68,-272.31 983,-281.82 989.95,-282.66"/>
</a>
</g>
</g>
<!-- Node3 -->
<g id="Node000003" class="node">
<title>Node3</title>
<g id="a_Node000003"><a xlink:href="class_async_client.html#a260e075caca9a58241f2fad754cc412b" target="_top" xlink:title=" ">
<polygon fill="white" stroke="#666666" points="117.62,-498.54 7.88,-498.54 7.88,-478.54 117.62,-478.54 117.62,-498.54"/>
<text xml:space="preserve" text-anchor="middle" x="62.75" y="-485.04" font-family="Helvetica,sans-Serif" font-size="10.00">AsyncClient::connect</text>
</a>
</g>
</g>
<!-- Node2&#45;&gt;Node3 -->
<g id="edge2_Node000002_Node000003" class="edge">
<title>Node2&#45;&gt;Node3</title>
<g id="a_edge2_Node000002_Node000003"><a xlink:title=" ">
<path fill="none" stroke="#63b8ff" d="M328.6,-503.65C266.3,-500.1 175.36,-494.91 117.9,-491.63"/>
<polygon fill="#63b8ff" stroke="#63b8ff" points="328.19,-507.13 338.37,-504.21 328.59,-500.14 328.19,-507.13"/>
</a>
</g>
</g>
<!-- Node4 -->
<g id="Node000004" class="node">
<title>Node4</title>
<g id="a_Node000004"><a xlink:href="class_async_client.html#aaa5b952568c85d25c32d0dff8ec74794" target="_top" xlink:title=" ">
<polygon fill="white" stroke="#666666" points="284.38,-536.54 174.62,-536.54 174.62,-516.54 284.38,-516.54 284.38,-536.54"/>
<text xml:space="preserve" text-anchor="middle" x="229.5" y="-523.04" font-family="Helvetica,sans-Serif" font-size="10.00">AsyncClient::connect</text>
</a>
</g>
</g>
<!-- Node2&#45;&gt;Node4 -->
<g id="edge3_Node000002_Node000004" class="edge">
<title>Node2&#45;&gt;Node4</title>
<g id="a_edge3_Node000002_Node000004"><a xlink:title=" ">
<path fill="none" stroke="#63b8ff" d="M328.92,-515.29C314.21,-516.97 298.85,-518.73 284.75,-520.34"/>
<polygon fill="#63b8ff" stroke="#63b8ff" points="328.96,-518.81 338.5,-514.2 328.16,-511.85 328.96,-518.81"/>
</a>
</g>
</g>
<!-- Node4&#45;&gt;Node3 -->
<g id="edge5_Node000004_Node000003" class="edge">
<title>Node4&#45;&gt;Node3</title>
<g id="a_edge5_Node000004_Node000003"><a xlink:title=" ">
<path fill="none" stroke="#63b8ff" d="M171.92,-513.49C151.39,-508.75 128.49,-503.47 109.06,-498.99"/>
<polygon fill="#63b8ff" stroke="#63b8ff" points="171.04,-516.88 181.57,-515.71 172.61,-510.06 171.04,-516.88"/>
</a>
</g>
</g>
<!-- Node5 -->
<g id="Node000005" class="node">
<title>Node5</title>
<g id="a_Node000005"><a xlink:href="class_async_client.html#a19dc40652b5b003288e10529ee169b65" target="_top" xlink:title=" ">
<polygon fill="#fff0f0" stroke="red" points="125.5,-536.54 0,-536.54 0,-516.54 125.5,-516.54 125.5,-536.54"/>
<text xml:space="preserve" text-anchor="middle" x="62.75" y="-523.04" font-family="Helvetica,sans-Serif" font-size="10.00">AsyncClient::_dns_found</text>
</a>
</g>
</g>
<!-- Node4&#45;&gt;Node5 -->
<g id="edge4_Node000004_Node000005" class="edge">
<title>Node4&#45;&gt;Node5</title>
<g id="a_edge4_Node000004_Node000005"><a xlink:title=" ">
<path fill="none" stroke="#63b8ff" d="M163.38,-526.54C151.01,-526.54 138.1,-526.54 125.82,-526.54"/>
<polygon fill="#63b8ff" stroke="#63b8ff" points="163.04,-530.04 173.04,-526.54 163.04,-523.04 163.04,-530.04"/>
</a>
</g>
</g>
<!-- Node11&#45;&gt;Node12 -->
<g id="edge7_Node000011_Node000012" class="edge">
<title>Node11&#45;&gt;Node12</title>
<g id="a_edge7_Node000011_Node000012"><a xlink:title=" ">
<path fill="none" stroke="#63b8ff" d="M621.48,-168.93C548.35,-172.66 433,-179.49 333.5,-189.54 321.92,-190.71 309.64,-192.18 297.74,-193.72"/>
<polygon fill="#63b8ff" stroke="#63b8ff" points="621.52,-172.44 631.33,-168.44 621.17,-165.45 621.52,-172.44"/>
</a>
</g>
</g>
<!-- Node7 -->
<g id="Node000007" class="node">
<title>Node7</title>
<g id="a_Node000007"><a xlink:href="_async_t_c_p_8cpp.html#ac4030e968c0e4c0fcbe7a9b4502854c1" target="_top" xlink:title=" ">
<polygon fill="#fff0f0" stroke="red" points="118,-213.54 7.5,-213.54 7.5,-193.54 118,-193.54 118,-213.54"/>
<text xml:space="preserve" text-anchor="middle" x="62.75" y="-200.04" font-family="Helvetica,sans-Serif" font-size="10.00">_handle_async_event</text>
</a>
</g>
</g>
<!-- Node12&#45;&gt;Node7 -->
<g id="edge8_Node000012_Node000007" class="edge">
<title>Node12&#45;&gt;Node7</title>
<g id="a_edge8_Node000012_Node000007"><a xlink:title=" ">
<path fill="none" stroke="#63b8ff" d="M149.59,-203.54C139,-203.54 128.33,-203.54 118.29,-203.54"/>
<polygon fill="#63b8ff" stroke="#63b8ff" points="149.5,-207.04 159.5,-203.54 149.5,-200.04 149.5,-207.04"/>
</a>
</g>
</g>
<!-- Node13&#45;&gt;Node14 -->
<g id="edge10_Node000013_Node000014" class="edge">
<title>Node13&#45;&gt;Node14</title>
<g id="a_edge10_Node000013_Node000014"><a xlink:title=" ">
<path fill="none" stroke="#63b8ff" d="M794.46,-399.74C697.91,-408.51 495.05,-418.47 333.5,-369.54 297.54,-358.65 261.23,-332.42 242.84,-317.81"/>
<polygon fill="#63b8ff" stroke="#63b8ff" points="794.56,-403.25 804.19,-398.83 793.9,-396.28 794.56,-403.25"/>
</a>
</g>
</g>
<!-- Node14&#45;&gt;Node7 -->
<g id="edge11_Node000014_Node000007" class="edge">
<title>Node14&#45;&gt;Node7</title>
<g id="a_edge11_Node000014_Node000007"><a xlink:title=" ">
<path fill="none" stroke="#63b8ff" d="M202.74,-291.28C168.44,-269.63 108.78,-231.96 80.08,-213.85"/>
<polygon fill="#63b8ff" stroke="#63b8ff" points="200.5,-294 210.82,-296.38 204.23,-288.08 200.5,-294"/>
</a>
</g>
</g>
<!-- Node15&#45;&gt;Node16 -->
<g id="edge13_Node000015_Node000016" class="edge">
<title>Node15&#45;&gt;Node16</title>
<g id="a_edge13_Node000015_Node000016"><a xlink:title=" ">
<path fill="none" stroke="#63b8ff" d="M796.99,-292.79C778.07,-297.47 757.06,-302.67 739.21,-307.09"/>
<polygon fill="#63b8ff" stroke="#63b8ff" points="797.81,-296.19 806.68,-290.39 796.13,-289.39 797.81,-296.19"/>
</a>
</g>
</g>
<!-- Node17 -->
<g id="Node000017" class="node">
<title>Node17</title>
<g id="a_Node000017"><a xlink:href="_async_t_c_p_8cpp.html#adf7826424bf5b1035c4850f6b3307686" target="_top" xlink:title=" ">
<polygon fill="#fff0f0" stroke="red" points="577,-327.54 518.25,-327.54 518.25,-307.54 577,-307.54 577,-327.54"/>
<text xml:space="preserve" text-anchor="middle" x="547.62" y="-314.04" font-family="Helvetica,sans-Serif" font-size="10.00">_tcp_recv</text>
</a>
</g>
</g>
<!-- Node16&#45;&gt;Node17 -->
<g id="edge14_Node000016_Node000017" class="edge">
<title>Node16&#45;&gt;Node17</title>
<g id="a_edge14_Node000016_Node000017"><a xlink:title=" ">
<path fill="none" stroke="#63b8ff" d="M622.67,-317.54C606.57,-317.54 590.41,-317.54 577.31,-317.54"/>
<polygon fill="#63b8ff" stroke="#63b8ff" points="622.26,-321.04 632.26,-317.54 622.26,-314.04 622.26,-321.04"/>
</a>
</g>
</g>
<!-- Node17&#45;&gt;Node2 -->
<g id="edge15_Node000017_Node000002" class="edge">
<title>Node17&#45;&gt;Node2</title>
<g id="a_edge15_Node000017_Node000002"><a xlink:title=" ">
<path fill="none" stroke="#63b8ff" d="M531.45,-337.04C500.35,-377 430.33,-466.97 406.71,-497.32"/>
<polygon fill="#63b8ff" stroke="#63b8ff" points="534.15,-339.26 537.53,-329.22 528.63,-334.96 534.15,-339.26"/>
</a>
</g>
</g>
<!-- Node17&#45;&gt;Node18 -->
<g id="edge16_Node000017_Node000018" class="edge">
<title>Node17&#45;&gt;Node18</title>
<g id="a_edge16_Node000017_Node000018"><a xlink:title=" ">
<path fill="none" stroke="#63b8ff" d="M508.94,-303.01C483.04,-293.03 449.25,-280 425.95,-271.02"/>
<polygon fill="#63b8ff" stroke="#63b8ff" points="507.5,-306.21 518.09,-306.54 510.02,-299.68 507.5,-306.21"/>
</a>
</g>
</g>
<!-- Node18&#45;&gt;Node12 -->
<g id="edge17_Node000018_Node000012" class="edge">
<title>Node18&#45;&gt;Node12</title>
<g id="a_edge17_Node000018_Node000012"><a xlink:title=" ">
<path fill="none" stroke="#63b8ff" d="M355.55,-246.41C326.28,-236.38 287.62,-223.12 261.08,-214.02"/>
<polygon fill="#63b8ff" stroke="#63b8ff" points="354.23,-249.66 364.83,-249.59 356.5,-243.04 354.23,-249.66"/>
</a>
</g>
</g>
<!-- Node18&#45;&gt;Node14 -->
<g id="edge18_Node000018_Node000014" class="edge">
<title>Node18&#45;&gt;Node14</title>
<g id="a_edge18_Node000018_Node000014"><a xlink:title=" ">
<path fill="none" stroke="#63b8ff" d="M348.79,-274.1C322.94,-281.41 291.53,-290.28 267.58,-297.06"/>
<polygon fill="#63b8ff" stroke="#63b8ff" points="349.73,-277.47 358.4,-271.38 347.82,-270.73 349.73,-277.47"/>
</a>
</g>
</g>
<!-- Node18&#45;&gt;Node16 -->
<g id="edge19_Node000018_Node000016" class="edge">
<title>Node18&#45;&gt;Node16</title>
<g id="a_edge19_Node000018_Node000016"><a xlink:title=" ">
<path fill="none" stroke="#63b8ff" d="M464.63,-273.1C503.27,-280.48 553.04,-290.01 597.25,-298.54 611.51,-301.29 626.94,-304.28 641.23,-307.06"/>
<polygon fill="#63b8ff" stroke="#63b8ff" points="465.49,-269.7 455.01,-271.26 464.18,-276.58 465.49,-269.7"/>
</a>
</g>
</g>
<!-- Node18&#45;&gt;Node20 -->
<g id="edge20_Node000018_Node000020" class="edge">
<title>Node18&#45;&gt;Node20</title>
<g id="a_edge20_Node000018_Node000020"><a xlink:title=" ">
<path fill="none" stroke="#63b8ff" d="M384.06,-240.78C366.31,-213.83 332.3,-164.64 297.5,-127.54 280.68,-109.61 258.51,-91.68 244.38,-80.85"/>
<polygon fill="#63b8ff" stroke="#63b8ff" points="381.02,-242.53 389.41,-248.99 386.89,-238.71 381.02,-242.53"/>
</a>
</g>
</g>
<!-- Node18&#45;&gt;Node21 -->
<g id="edge22_Node000018_Node000021" class="edge">
<title>Node18&#45;&gt;Node21</title>
<g id="a_edge22_Node000018_Node000021"><a xlink:title=" ">
<path fill="none" stroke="#63b8ff" d="M375.57,-242.96C355.89,-226.95 325.49,-203.07 297.5,-184.54 282.22,-174.43 264.11,-164.25 250.57,-156.98"/>
<polygon fill="#63b8ff" stroke="#63b8ff" points="373.19,-245.53 383.14,-249.16 377.63,-240.12 373.19,-245.53"/>
</a>
</g>
</g>
<!-- Node18&#45;&gt;Node22 -->
<g id="edge24_Node000018_Node000022" class="edge">
<title>Node18&#45;&gt;Node22</title>
<g id="a_edge24_Node000018_Node000022"><a xlink:title=" ">
<path fill="none" stroke="#63b8ff" d="M374.12,-277.97C338.93,-305.05 272.22,-356.42 243.83,-378.28"/>
<polygon fill="#63b8ff" stroke="#63b8ff" points="376.16,-280.81 381.95,-271.94 371.89,-275.26 376.16,-280.81"/>
</a>
</g>
</g>
<!-- Node20&#45;&gt;Node7 -->
<g id="edge21_Node000020_Node000007" class="edge">
<title>Node20&#45;&gt;Node7</title>
<g id="a_edge21_Node000020_Node000007"><a xlink:title=" ">
<path fill="none" stroke="#63b8ff" d="M206.66,-88.17C171.81,-116.3 104.71,-170.47 76.62,-193.15"/>
<polygon fill="#63b8ff" stroke="#63b8ff" points="208.81,-90.93 214.39,-81.93 204.42,-85.48 208.81,-90.93"/>
</a>
</g>
</g>
<!-- Node21&#45;&gt;Node7 -->
<g id="edge23_Node000021_Node000007" class="edge">
<title>Node21&#45;&gt;Node7</title>
<g id="a_edge23_Node000021_Node000007"><a xlink:title=" ">
<path fill="none" stroke="#63b8ff" d="M187.67,-160.67C158.67,-170.7 120.36,-183.95 94.05,-193.05"/>
<polygon fill="#63b8ff" stroke="#63b8ff" points="188.55,-164.07 196.85,-157.49 186.26,-157.45 188.55,-164.07"/>
</a>
</g>
</g>
<!-- Node22&#45;&gt;Node7 -->
<g id="edge25_Node000022_Node000007" class="edge">
<title>Node22&#45;&gt;Node7</title>
<g id="a_edge25_Node000022_Node000007"><a xlink:title=" ">
<path fill="none" stroke="#63b8ff" d="M207.46,-370.56C193.85,-358.58 176.04,-342.21 161.5,-326.54 124.96,-287.14 86.77,-235.54 71.11,-213.85"/>
<polygon fill="#63b8ff" stroke="#63b8ff" points="205.13,-373.17 214.97,-377.1 209.73,-367.89 205.13,-373.17"/>
</a>
</g>
</g>
<!-- Node27&#45;&gt;Node20 -->
<g id="edge27_Node000027_Node000020" class="edge">
<title>Node27&#45;&gt;Node20</title>
<g id="a_edge27_Node000027_Node000020"><a xlink:title=" ">
<path fill="none" stroke="#63b8ff" d="M488.3,-55.04C429.43,-58.58 339.35,-64 282.75,-67.4"/>
<polygon fill="#63b8ff" stroke="#63b8ff" points="488.36,-58.55 498.13,-54.45 487.94,-51.56 488.36,-58.55"/>
</a>
</g>
</g>
<!-- Node28&#45;&gt;Node21 -->
<g id="edge29_Node000028_Node000021" class="edge">
<title>Node28&#45;&gt;Node21</title>
<g id="a_edge29_Node000028_Node000021"><a xlink:title=" ">
<path fill="none" stroke="#63b8ff" d="M634.86,-89.08C562.66,-89.54 438.19,-93.6 333.5,-113.54 306.75,-118.63 277.26,-128.54 256.72,-136.18"/>
<polygon fill="#63b8ff" stroke="#63b8ff" points="634.49,-92.58 644.48,-89.04 634.46,-85.58 634.49,-92.58"/>
</a>
</g>
</g>
<!-- Node29&#45;&gt;Node22 -->
<g id="edge37_Node000029_Node000022" class="edge">
<title>Node29&#45;&gt;Node22</title>
<g id="a_edge37_Node000029_Node000022"><a xlink:title=" ">
<path fill="none" stroke="#63b8ff" d="M486.44,-469.02C443.01,-467.15 383.49,-461.48 333.5,-445.54 299.62,-434.73 264.21,-412.28 245.01,-399.01"/>
<polygon fill="#63b8ff" stroke="#63b8ff" points="486.04,-472.5 496.16,-469.38 486.3,-465.51 486.04,-472.5"/>
</a>
</g>
</g>
</g>
</svg>
