<?xml version="1.0" encoding="UTF-8" standalone="no"?>
<!DOCTYPE svg PUBLIC "-//W3C//DTD SVG 1.1//EN"
 "http://www.w3.org/Graphics/SVG/1.1/DTD/svg11.dtd">
<!-- Generated by graphviz version 14.1.2 (20260124.0452)
 -->
<!-- Title: AuthSync::loadETagFromNVS Pages: 1 -->
<svg width="393pt" height="66pt"
 viewBox="0.00 0.00 393.00 66.00" xmlns="http://www.w3.org/2000/svg" xmlns:xlink="http://www.w3.org/1999/xlink">
<g id="graph0" class="graph" transform="scale(1 1) rotate(0) translate(4 62)">
<title>AuthSync::loadETagFromNVS</title>
<!-- Node1 -->
<g id="Node000001" class="node">
<title>Node1</title>
<g id="a_Node000001"><a xlink:title=" ">
<polygon fill="#999999" stroke="#666666" points="384.75,-39 236,-39 236,-19 384.75,-19 384.75,-39"/>
<text xml:space="preserve" text-anchor="middle" x="310.38" y="-25.5" font-family="Helvetica,sans-Serif" font-size="10.00">AuthSync::loadETagFromNVS</text>
</a>
</g>
</g>
<!-- Node2 -->
<g id="Node000002" class="node">
<title>Node2</title>
<g id="a_Node000002"><a xlink:href="class_auth_sync.html#a6834600967f5b023e9810fc2293d2c51" target="_top" xlink:title=" ">
<polygon fill="white" stroke="#666666" points="182,-58 94,-58 94,-38 182,-38 182,-58"/>
<text xml:space="preserve" text-anchor="middle" x="138" y="-44.5" font-family="Helvetica,sans-Serif" font-size="10.00">AuthSync::begin</text>
</a>
</g>
</g>
<!-- Node1&#45;&gt;Node2 -->
<g id="edge1_Node000001_Node000002" class="edge">
<title>Node1&#45;&gt;Node2</title>
<g id="a_edge1_Node000001_Node000002"><a xlink:title=" ">
<path fill="none" stroke="#63b8ff" d="M224.51,-38.46C209.91,-40.09 195.31,-41.72 182.4,-43.16"/>
<polygon fill="#63b8ff" stroke="#63b8ff" points="224.58,-41.98 234.13,-37.39 223.81,-35.02 224.58,-41.98"/>
</a>
</g>
</g>
<!-- Node4 -->
<g id="Node000004" class="node">
<title>Node4</title>
<g id="a_Node000004"><a xlink:href="class_auth_sync.html#a6b5eb87b981c15a7ed816bd5e133546c" target="_top" xlink:title=" ">
<polygon fill="white" stroke="#666666" points="200,-20 76,-20 76,0 200,0 200,-20"/>
<text xml:space="preserve" text-anchor="middle" x="138" y="-6.5" font-family="Helvetica,sans-Serif" font-size="10.00">AuthSync::preloadOffline</text>
</a>
</g>
</g>
<!-- Node1&#45;&gt;Node4 -->
<g id="edge3_Node000001_Node000004" class="edge">
<title>Node1&#45;&gt;Node4</title>
<g id="a_edge3_Node000001_Node000004"><a xlink:title=" ">
<path fill="none" stroke="#63b8ff" d="M224.25,-19.51C216.18,-18.61 208.11,-17.71 200.32,-16.84"/>
<polygon fill="#63b8ff" stroke="#63b8ff" points="223.81,-22.98 234.13,-20.61 224.58,-16.02 223.81,-22.98"/>
</a>
</g>
</g>
<!-- Node3 -->
<g id="Node000003" class="node">
<title>Node3</title>
<g id="a_Node000003"><a xlink:href="main_8cpp.html#a4fc01d736fe50cf5b977f755b675f11d" target="_top" xlink:title=" ">
<polygon fill="white" stroke="#666666" points="40,-39 0,-39 0,-19 40,-19 40,-39"/>
<text xml:space="preserve" text-anchor="middle" x="20" y="-25.5" font-family="Helvetica,sans-Serif" font-size="10.00">setup</text>
</a>
</g>
</g>
<!-- Node2&#45;&gt;Node3 -->
<g id="edge2_Node000002_Node000003" class="edge">
<title>Node2&#45;&gt;Node3</title>
<g id="a_edge2_Node000002_Node000003"><a xlink:title=" ">
<path fill="none" stroke="#63b8ff" d="M82.83,-39.13C67.58,-36.63 51.98,-34.07 40.26,-32.16"/>
<polygon fill="#63b8ff" stroke="#63b8ff" points="81.88,-42.52 92.31,-40.68 83.01,-35.61 81.88,-42.52"/>
</a>
</g>
</g>
<!-- Node4&#45;&gt;Node3 -->
<g id="edge4_Node000004_Node000003" class="edge">
<title>Node4&#45;&gt;Node3</title>
<g id="a_edge4_Node000004_Node000003"><a xlink:title=" ">
<path fill="none" stroke="#63b8ff" d="M64.31,-21.91C55.54,-23.34 47.25,-24.7 40.31,-25.84"/>
<polygon fill="#63b8ff" stroke="#63b8ff" points="64.81,-25.37 74.11,-20.3 63.68,-18.46 64.81,-25.37"/>
</a>
</g>
</g>
</g>
</svg>
