<?xml version="1.0" encoding="UTF-8" standalone="no"?>
<!DOCTYPE svg PUBLIC "-//W3C//DTD SVG 1.1//EN"
 "http://www.w3.org/Graphics/SVG/1.1/DTD/svg11.dtd">
<!-- Generated by graphviz version 14.1.2 (20260124.0452)
 -->
<!-- Title: AuthSync::preloadOffline Pages: 1 -->
<svg width="518pt" height="66pt"
 viewBox="0.00 0.00 518.00 66.00" xmlns="http://www.w3.org/2000/svg" xmlns:xlink="http://www.w3.org/1999/xlink">
<g id="graph0" class="graph" transform="scale(1 1) rotate(0) translate(4 62)">
<title>AuthSync::preloadOffline</title>
<!-- Node1 -->
<g id="Node000001" class="node">
<title>Node1</title>
<g id="a_Node000001"><a xlink:title=" ">
<polygon fill="#999999" stroke="#666666" points="124,-39 0,-39 0,-19 124,-19 124,-39"/>
<text xml:space="preserve" text-anchor="middle" x="62" y="-25.5" font-family="Helvetica,sans-Serif" font-size="10.00">AuthSync::preloadOffline</text>
</a>
</g>
</g>
<!-- Node2 -->
<g id="Node000002" class="node">
<title>Node2</title>
<g id="a_Node000002"><a xlink:href="class_auth_sync.html#ac017101fb171c69cdf5449a54b9832ac" target="_top" xlink:title=" ">
<polygon fill="white" stroke="#666666" points="306.12,-58 162.62,-58 162.62,-38 306.12,-38 306.12,-58"/>
<text xml:space="preserve" text-anchor="middle" x="234.38" y="-44.5" font-family="Helvetica,sans-Serif" font-size="10.00">AuthSync::loadBitsetFromFS</text>
</a>
</g>
</g>
<!-- Node1&#45;&gt;Node2 -->
<g id="edge1_Node000001_Node000002" class="edge">
<title>Node1&#45;&gt;Node2</title>
<g id="a_edge1_Node000001_Node000002"><a xlink:title=" ">
<path fill="none" stroke="#63b8ff" d="M124.03,-35.81C132.76,-36.78 141.85,-37.79 150.91,-38.8"/>
<polygon fill="#63b8ff" stroke="#63b8ff" points="150.49,-42.28 160.82,-39.91 151.27,-35.32 150.49,-42.28"/>
</a>
</g>
</g>
<!-- Node3 -->
<g id="Node000003" class="node">
<title>Node3</title>
<g id="a_Node000003"><a xlink:href="class_auth_sync.html#a068f973556d6acd59bf12b10220d26b0" target="_top" xlink:title=" ">
<polygon fill="white" stroke="#666666" points="308.75,-20 160,-20 160,0 308.75,0 308.75,-20"/>
<text xml:space="preserve" text-anchor="middle" x="234.38" y="-6.5" font-family="Helvetica,sans-Serif" font-size="10.00">AuthSync::loadETagFromNVS</text>
</a>
</g>
</g>
<!-- Node1&#45;&gt;Node3 -->
<g id="edge2_Node000001_Node000003" class="edge">
<title>Node1&#45;&gt;Node3</title>
<g id="a_edge2_Node000001_Node000003"><a xlink:title=" ">
<path fill="none" stroke="#63b8ff" d="M124.03,-22.19C131.97,-21.31 140.22,-20.39 148.46,-19.47"/>
<polygon fill="#63b8ff" stroke="#63b8ff" points="148.62,-22.97 158.17,-18.39 147.85,-16.02 148.62,-22.97"/>
</a>
</g>
</g>
<!-- Node4 -->
<g id="Node000004" class="node">
<title>Node4</title>
<g id="a_Node000004"><a xlink:href="class_auth_sync.html#a15f7b64e6f52b59c941b3d0077947d0a" target="_top" xlink:title=" ">
<polygon fill="white" stroke="#666666" points="510,-20 344.75,-20 344.75,0 510,0 510,-20"/>
<text xml:space="preserve" text-anchor="middle" x="427.38" y="-6.5" font-family="Helvetica,sans-Serif" font-size="10.00">AuthSync::loadAllowDenyFromFS</text>
</a>
</g>
</g>
<!-- Node3&#45;&gt;Node4 -->
<g id="edge3_Node000003_Node000004" class="edge">
<title>Node3&#45;&gt;Node4</title>
<g id="a_edge3_Node000003_Node000004"><a xlink:title=" ">
<path fill="none" stroke="#63b8ff" d="M309.22,-10C317.07,-10 325.12,-10 333.16,-10"/>
<polygon fill="#63b8ff" stroke="#63b8ff" points="332.96,-13.5 342.96,-10 332.96,-6.5 332.96,-13.5"/>
</a>
</g>
</g>
</g>
</svg>
