<?xml version="1.0" encoding="UTF-8" standalone="no"?>
<!DOCTYPE svg PUBLIC "-//W3C//DTD SVG 1.1//EN"
 "http://www.w3.org/Graphics/SVG/1.1/DTD/svg11.dtd">
<!-- Generated by graphviz version 14.1.2 (20260124.0452)
 -->
<!-- Title: AsyncClient::_connect Pages: 1 -->
<svg width="599pt" height="369pt"
 viewBox="0.00 0.00 599.00 369.00" xmlns="http://www.w3.org/2000/svg" xmlns:xlink="http://www.w3.org/1999/xlink">
<g id="graph0" class="graph" transform="scale(1 1) rotate(0) translate(4 365)">
<title>AsyncClient::_connect</title>
<!-- Node1 -->
<g id="Node000001" class="node">
<title>Node1</title>
<g id="a_Node000001"><a xlink:title=" ">
<polygon fill="#999999" stroke="#666666" points="115,-153 0,-153 0,-133 115,-133 115,-153"/>
<text xml:space="preserve" text-anchor="middle" x="57.5" y="-139.5" font-family="Helvetica,sans-Serif" font-size="10.00">AsyncClient::_connect</text>
</a>
</g>
</g>
<!-- Node2 -->
<g id="Node000002" class="node">
<title>Node2</title>
<g id="a_Node000002"><a xlink:href="class_async_client.html#ab0422e5254ea4fbac9f87188a018ebc4" target="_top" xlink:title=" ">
<polygon fill="white" stroke="#666666" points="265.25,-298 151,-298 151,-266 265.25,-266 265.25,-298"/>
<text xml:space="preserve" text-anchor="start" x="159" y="-284.5" font-family="Helvetica,sans-Serif" font-size="10.00">AsyncClient::_allocate</text>
<text xml:space="preserve" text-anchor="middle" x="208.12" y="-272.5" font-family="Helvetica,sans-Serif" font-size="10.00">_closed_slot</text>
</a>
</g>
</g>
<!-- Node1&#45;&gt;Node2 -->
<g id="edge1_Node000001_Node000002" class="edge">
<title>Node1&#45;&gt;Node2</title>
<g id="a_edge1_Node000001_Node000002"><a xlink:title=" ">
<path fill="none" stroke="#63b8ff" d="M64.43,-153.18C77.52,-174.89 110.95,-226.3 151,-257 152.3,-257.99 153.64,-258.96 155.02,-259.89"/>
<polygon fill="#63b8ff" stroke="#63b8ff" points="152.85,-262.68 163.22,-264.85 156.47,-256.68 152.85,-262.68"/>
</a>
</g>
</g>
<!-- Node3 -->
<g id="Node000003" class="node">
<title>Node3</title>
<g id="a_Node000003"><a xlink:href="_async_t_c_p_8cpp.html#a4d0de407bcfcc96b61af40aca3156708" target="_top" xlink:title=" ">
<polygon fill="white" stroke="#666666" points="256.25,-248 160,-248 160,-228 256.25,-228 256.25,-248"/>
<text xml:space="preserve" text-anchor="middle" x="208.12" y="-234.5" font-family="Helvetica,sans-Serif" font-size="10.00">_start_async_task</text>
</a>
</g>
</g>
<!-- Node1&#45;&gt;Node3 -->
<g id="edge2_Node000001_Node000003" class="edge">
<title>Node1&#45;&gt;Node3</title>
<g id="a_edge2_Node000001_Node000003"><a xlink:title=" ">
<path fill="none" stroke="#63b8ff" d="M68.4,-153.25C84.41,-169.29 117.57,-200.43 151,-219 153.78,-220.55 156.71,-222 159.71,-223.35"/>
<polygon fill="#63b8ff" stroke="#63b8ff" points="158.09,-226.47 168.67,-227.01 160.74,-219.99 158.09,-226.47"/>
</a>
</g>
</g>
<!-- Node38 -->
<g id="Node000038" class="node">
<title>Node38</title>
<g id="a_Node000038"><a xlink:href="_async_t_c_p_8cpp.html#a02f7e9cd68d729395c7794e07dfc1375" target="_top" xlink:title=" ">
<polygon fill="white" stroke="#666666" points="245.38,-210 170.88,-210 170.88,-190 245.38,-190 245.38,-210"/>
<text xml:space="preserve" text-anchor="middle" x="208.12" y="-196.5" font-family="Helvetica,sans-Serif" font-size="10.00">_tcp_connect</text>
</a>
</g>
</g>
<!-- Node1&#45;&gt;Node38 -->
<g id="edge9_Node000001_Node000038" class="edge">
<title>Node1&#45;&gt;Node38</title>
<g id="a_edge9_Node000001_Node000038"><a xlink:title=" ">
<path fill="none" stroke="#63b8ff" d="M82.68,-153.42C101.24,-161.31 127.59,-172.24 151,-181 155.39,-182.64 159.99,-184.3 164.6,-185.92"/>
<polygon fill="#63b8ff" stroke="#63b8ff" points="163.22,-189.15 173.81,-189.1 165.5,-182.53 163.22,-189.15"/>
</a>
</g>
</g>
<!-- Node40 -->
<g id="Node000040" class="node">
<title>Node40</title>
<g id="a_Node000040"><a xlink:href="_async_t_c_p_8cpp.html#aceddc1345284b96d9d3618c7b01ecede" target="_top" xlink:title=" ">
<polygon fill="white" stroke="#666666" points="250.62,-172 165.62,-172 165.62,-152 250.62,-152 250.62,-172"/>
<text xml:space="preserve" text-anchor="middle" x="208.12" y="-158.5" font-family="Helvetica,sans-Serif" font-size="10.00">_tcp_connected</text>
</a>
</g>
</g>
<!-- Node1&#45;&gt;Node40 -->
<g id="edge11_Node000001_Node000040" class="edge">
<title>Node1&#45;&gt;Node40</title>
<g id="a_edge11_Node000001_Node000040"><a xlink:title=" ">
<path fill="none" stroke="#63b8ff" d="M115.11,-150.24C127.93,-151.88 141.48,-153.61 154.14,-155.23"/>
<polygon fill="#63b8ff" stroke="#63b8ff" points="153.6,-158.69 163.96,-156.48 154.49,-151.74 153.6,-158.69"/>
</a>
</g>
</g>
<!-- Node41 -->
<g id="Node000041" class="node">
<title>Node41</title>
<g id="a_Node000041"><a xlink:href="_async_t_c_p_8cpp.html#a61ff9f7f886bbbbcdc1daca453828934" target="_top" xlink:title=" ">
<polygon fill="white" stroke="#666666" points="237.88,-134 178.38,-134 178.38,-114 237.88,-114 237.88,-134"/>
<text xml:space="preserve" text-anchor="middle" x="208.12" y="-120.5" font-family="Helvetica,sans-Serif" font-size="10.00">_tcp_error</text>
</a>
</g>
</g>
<!-- Node1&#45;&gt;Node41 -->
<g id="edge13_Node000001_Node000041" class="edge">
<title>Node1&#45;&gt;Node41</title>
<g id="a_edge13_Node000001_Node000041"><a xlink:title=" ">
<path fill="none" stroke="#63b8ff" d="M115.11,-135.76C132.41,-133.55 151.06,-131.17 167.02,-129.13"/>
<polygon fill="#63b8ff" stroke="#63b8ff" points="167.13,-132.64 176.61,-127.9 166.24,-125.7 167.13,-132.64"/>
</a>
</g>
</g>
<!-- Node43 -->
<g id="Node000043" class="node">
<title>Node43</title>
<g id="a_Node000043"><a xlink:href="_async_t_c_p_8cpp.html#ad4b2c6c935c211eef5884f25a950e445" target="_top" xlink:title=" ">
<polygon fill="white" stroke="#666666" points="235.62,-96 180.62,-96 180.62,-76 235.62,-76 235.62,-96"/>
<text xml:space="preserve" text-anchor="middle" x="208.12" y="-82.5" font-family="Helvetica,sans-Serif" font-size="10.00">_tcp_poll</text>
</a>
</g>
</g>
<!-- Node1&#45;&gt;Node43 -->
<g id="edge15_Node000001_Node000043" class="edge">
<title>Node1&#45;&gt;Node43</title>
<g id="a_edge15_Node000001_Node000043"><a xlink:title=" ">
<path fill="none" stroke="#63b8ff" d="M82.68,-132.58C101.24,-124.69 127.59,-113.76 151,-105 156.9,-102.79 163.19,-100.55 169.35,-98.42"/>
<polygon fill="#63b8ff" stroke="#63b8ff" points="170.4,-101.76 178.73,-95.23 168.14,-95.14 170.4,-101.76"/>
</a>
</g>
</g>
<!-- Node44 -->
<g id="Node000044" class="node">
<title>Node44</title>
<g id="a_Node000044"><a xlink:href="_async_t_c_p_8cpp.html#adf7826424bf5b1035c4850f6b3307686" target="_top" xlink:title=" ">
<polygon fill="white" stroke="#666666" points="237.5,-20 178.75,-20 178.75,0 237.5,0 237.5,-20"/>
<text xml:space="preserve" text-anchor="middle" x="208.12" y="-6.5" font-family="Helvetica,sans-Serif" font-size="10.00">_tcp_recv</text>
</a>
</g>
</g>
<!-- Node1&#45;&gt;Node44 -->
<g id="edge17_Node000001_Node000044" class="edge">
<title>Node1&#45;&gt;Node44</title>
<g id="a_edge17_Node000001_Node000044"><a xlink:title=" ">
<path fill="none" stroke="#63b8ff" d="M64.21,-132.53C76.89,-110.25 109.57,-57.82 151,-29 156.07,-25.48 161.84,-22.56 167.71,-20.16"/>
<polygon fill="#63b8ff" stroke="#63b8ff" points="168.6,-23.56 176.83,-16.89 166.24,-16.97 168.6,-23.56"/>
</a>
</g>
</g>
<!-- Node47 -->
<g id="Node000047" class="node">
<title>Node47</title>
<g id="a_Node000047"><a xlink:href="_async_t_c_p_8cpp.html#a0b47280aff638ec9b80f7a87dfe54ea6" target="_top" xlink:title=" ">
<polygon fill="white" stroke="#666666" points="237.5,-58 178.75,-58 178.75,-38 237.5,-38 237.5,-58"/>
<text xml:space="preserve" text-anchor="middle" x="208.12" y="-44.5" font-family="Helvetica,sans-Serif" font-size="10.00">_tcp_sent</text>
</a>
</g>
</g>
<!-- Node1&#45;&gt;Node47 -->
<g id="edge21_Node000001_Node000047" class="edge">
<title>Node1&#45;&gt;Node47</title>
<g id="a_edge21_Node000001_Node000047"><a xlink:title=" ">
<path fill="none" stroke="#63b8ff" d="M68.4,-132.75C84.41,-116.71 117.57,-85.57 151,-67 156.15,-64.14 161.81,-61.61 167.48,-59.4"/>
<polygon fill="#63b8ff" stroke="#63b8ff" points="168.62,-62.71 176.87,-56.06 166.28,-56.11 168.62,-62.71"/>
</a>
</g>
</g>
<!-- Node4 -->
<g id="Node000004" class="node">
<title>Node4</title>
<g id="a_Node000004"><a xlink:href="_async_t_c_p_8cpp.html#a87baf4ac2987dd94502c4586a97e552f" target="_top" xlink:title=" ">
<polygon fill="white" stroke="#666666" points="425.25,-324 317,-324 317,-304 425.25,-304 425.25,-324"/>
<text xml:space="preserve" text-anchor="middle" x="371.12" y="-310.5" font-family="Helvetica,sans-Serif" font-size="10.00">_async_service_task</text>
</a>
</g>
</g>
<!-- Node3&#45;&gt;Node4 -->
<g id="edge3_Node000003_Node000004" class="edge">
<title>Node3&#45;&gt;Node4</title>
<g id="a_edge3_Node000003_Node000004"><a xlink:title=" ">
<path fill="none" stroke="#63b8ff" d="M248.01,-248.39C254.01,-250.77 259.96,-253.62 265.25,-257 284.84,-269.54 281.31,-283.02 301.25,-295 303.85,-296.56 306.59,-298 309.4,-299.32"/>
<polygon fill="#63b8ff" stroke="#63b8ff" points="307.9,-302.49 318.48,-303.05 310.55,-296.01 307.9,-302.49"/>
</a>
</g>
</g>
<!-- Node36 -->
<g id="Node000036" class="node">
<title>Node36</title>
<g id="a_Node000036"><a xlink:href="_async_t_c_p_8cpp.html#a3aed34b06f9d10bb1cc4ce3d74cb5565" target="_top" xlink:title=" ">
<polygon fill="white" stroke="#666666" points="434.25,-286 308,-286 308,-266 434.25,-266 434.25,-286"/>
<text xml:space="preserve" text-anchor="middle" x="371.12" y="-272.5" font-family="Helvetica,sans-Serif" font-size="10.00">_init_async_event_queue</text>
</a>
</g>
</g>
<!-- Node3&#45;&gt;Node36 -->
<g id="edge7_Node000003_Node000036" class="edge">
<title>Node3&#45;&gt;Node36</title>
<g id="a_edge7_Node000003_Node000036"><a xlink:title=" ">
<path fill="none" stroke="#63b8ff" d="M253.55,-248.48C272.46,-252.95 294.73,-258.21 314.71,-262.92"/>
<polygon fill="#63b8ff" stroke="#63b8ff" points="313.84,-266.31 324.38,-265.2 315.45,-259.5 313.84,-266.31"/>
</a>
</g>
</g>
<!-- Node37 -->
<g id="Node000037" class="node">
<title>Node37</title>
<g id="a_Node000037"><a xlink:href="_async_t_c_p_8cpp.html#a8fedef252807f247ae1b933ac0bcc234" target="_top" xlink:title=" ">
<polygon fill="white" stroke="#666666" points="441,-248 301.25,-248 301.25,-228 441,-228 441,-248"/>
<text xml:space="preserve" text-anchor="middle" x="371.12" y="-234.5" font-family="Helvetica,sans-Serif" font-size="10.00">customTaskCreateUniversal</text>
</a>
</g>
</g>
<!-- Node3&#45;&gt;Node37 -->
<g id="edge8_Node000003_Node000037" class="edge">
<title>Node3&#45;&gt;Node37</title>
<g id="a_edge8_Node000003_Node000037"><a xlink:title=" ">
<path fill="none" stroke="#63b8ff" d="M256.56,-238C266.99,-238 278.33,-238 289.66,-238"/>
<polygon fill="#63b8ff" stroke="#63b8ff" points="289.44,-241.5 299.44,-238 289.44,-234.5 289.44,-241.5"/>
</a>
</g>
</g>
<!-- Node5 -->
<g id="Node000005" class="node">
<title>Node5</title>
<g id="a_Node000005"><a xlink:href="_async_t_c_p_8cpp.html#a8a4bbbc30b10628f96b77b68e1f66620" target="_top" xlink:title=" ">
<polygon fill="white" stroke="#666666" points="581.5,-343 486,-343 486,-323 581.5,-323 581.5,-343"/>
<text xml:space="preserve" text-anchor="middle" x="533.75" y="-329.5" font-family="Helvetica,sans-Serif" font-size="10.00">_get_async_event</text>
</a>
</g>
</g>
<!-- Node4&#45;&gt;Node5 -->
<g id="edge4_Node000004_Node000005" class="edge">
<title>Node4&#45;&gt;Node5</title>
<g id="a_edge4_Node000004_Node000005"><a xlink:title=" ">
<path fill="none" stroke="#63b8ff" d="M425.61,-320.33C441.25,-322.18 458.43,-324.21 474.36,-326.09"/>
<polygon fill="#63b8ff" stroke="#63b8ff" points="473.85,-329.56 484.2,-327.26 474.68,-322.61 473.85,-329.56"/>
</a>
</g>
</g>
<!-- Node6 -->
<g id="Node000006" class="node">
<title>Node6</title>
<g id="a_Node000006"><a xlink:href="_async_t_c_p_8cpp.html#ac4030e968c0e4c0fcbe7a9b4502854c1" target="_top" xlink:title=" ">
<polygon fill="#fff0f0" stroke="red" points="589,-305 478.5,-305 478.5,-285 589,-285 589,-305"/>
<text xml:space="preserve" text-anchor="middle" x="533.75" y="-291.5" font-family="Helvetica,sans-Serif" font-size="10.00">_handle_async_event</text>
</a>
</g>
</g>
<!-- Node4&#45;&gt;Node6 -->
<g id="edge6_Node000004_Node000006" class="edge">
<title>Node4&#45;&gt;Node6</title>
<g id="a_edge6_Node000004_Node000006"><a xlink:title=" ">
<path fill="none" stroke="#63b8ff" d="M425.61,-307.67C438.8,-306.11 453.08,-304.42 466.79,-302.8"/>
<polygon fill="#63b8ff" stroke="#63b8ff" points="467.1,-306.29 476.62,-301.64 466.28,-299.34 467.1,-306.29"/>
</a>
</g>
</g>
<!-- Node5&#45;&gt;Node5 -->
<g id="edge5_Node000005_Node000005" class="edge">
<title>Node5&#45;&gt;Node5</title>
<g id="a_edge5_Node000005_Node000005"><a xlink:title=" ">
<path fill="none" stroke="#63b8ff" d="M507.91,-343.34C496.87,-351.98 505.48,-361 533.75,-361 549.21,-361 558.79,-358.3 562.49,-354.44"/>
<polygon fill="#63b8ff" stroke="#63b8ff" points="565.89,-353.59 559.97,-344.8 559.12,-355.36 565.89,-353.59"/>
</a>
</g>
</g>
<!-- Node39 -->
<g id="Node000039" class="node">
<title>Node39</title>
<g id="a_Node000039"><a xlink:href="_async_t_c_p_8cpp.html#a6c3a1f5e3365fd25233a4ca083b400af" target="_top" xlink:title=" ">
<polygon fill="white" stroke="#666666" points="417.38,-210 324.88,-210 324.88,-190 417.38,-190 417.38,-210"/>
<text xml:space="preserve" text-anchor="middle" x="371.12" y="-196.5" font-family="Helvetica,sans-Serif" font-size="10.00">_tcp_connect_api</text>
</a>
</g>
</g>
<!-- Node38&#45;&gt;Node39 -->
<g id="edge10_Node000038_Node000039" class="edge">
<title>Node38&#45;&gt;Node39</title>
<g id="a_edge10_Node000038_Node000039"><a xlink:title=" ">
<path fill="none" stroke="#63b8ff" d="M245.66,-200C265.57,-200 290.65,-200 313.08,-200"/>
<polygon fill="#63b8ff" stroke="#63b8ff" points="313.01,-203.5 323.01,-200 313.01,-196.5 313.01,-203.5"/>
</a>
</g>
</g>
<!-- Node21 -->
<g id="Node000021" class="node">
<title>Node21</title>
<g id="a_Node000021"><a xlink:href="_async_t_c_p_8cpp.html#a42bebdded16714188a8e554237aad2f3" target="_top" xlink:title=" ">
<polygon fill="white" stroke="#666666" points="429.38,-172 312.88,-172 312.88,-152 429.38,-152 429.38,-172"/>
<text xml:space="preserve" text-anchor="middle" x="371.12" y="-158.5" font-family="Helvetica,sans-Serif" font-size="10.00">_prepend_async_event</text>
</a>
</g>
</g>
<!-- Node40&#45;&gt;Node21 -->
<g id="edge12_Node000040_Node000021" class="edge">
<title>Node40&#45;&gt;Node21</title>
<g id="a_edge12_Node000040_Node000021"><a xlink:title=" ">
<path fill="none" stroke="#63b8ff" d="M251.01,-162C266.37,-162 284.19,-162 301.29,-162"/>
<polygon fill="#63b8ff" stroke="#63b8ff" points="300.88,-165.5 310.88,-162 300.88,-158.5 300.88,-165.5"/>
</a>
</g>
</g>
<!-- Node42 -->
<g id="Node000042" class="node">
<title>Node42</title>
<g id="a_Node000042"><a xlink:href="_async_t_c_p_8cpp.html#a796c13746a84a6b2e7370ddbec97ad5b" target="_top" xlink:title=" ">
<polygon fill="white" stroke="#666666" points="422.62,-77 319.62,-77 319.62,-57 422.62,-57 422.62,-77"/>
<text xml:space="preserve" text-anchor="middle" x="371.12" y="-63.5" font-family="Helvetica,sans-Serif" font-size="10.00">_send_async_event</text>
</a>
</g>
</g>
<!-- Node41&#45;&gt;Node42 -->
<g id="edge14_Node000041_Node000042" class="edge">
<title>Node41&#45;&gt;Node42</title>
<g id="a_edge14_Node000041_Node000042"><a xlink:title=" ">
<path fill="none" stroke="#63b8ff" d="M238.3,-114.26C246.98,-111.32 256.51,-108.06 265.25,-105 287.05,-97.36 311.29,-88.59 330.98,-81.41"/>
<polygon fill="#63b8ff" stroke="#63b8ff" points="332.09,-84.73 340.27,-78.01 329.68,-78.16 332.09,-84.73"/>
</a>
</g>
</g>
<!-- Node43&#45;&gt;Node42 -->
<g id="edge16_Node000043_Node000042" class="edge">
<title>Node43&#45;&gt;Node42</title>
<g id="a_edge16_Node000043_Node000042"><a xlink:title=" ">
<path fill="none" stroke="#63b8ff" d="M236.07,-82.82C255.71,-80.5 283.14,-77.27 308.07,-74.32"/>
<polygon fill="#63b8ff" stroke="#63b8ff" points="308.28,-77.82 317.8,-73.17 307.46,-70.87 308.28,-77.82"/>
</a>
</g>
</g>
<!-- Node44&#45;&gt;Node42 -->
<g id="edge20_Node000044_Node000042" class="edge">
<title>Node44&#45;&gt;Node42</title>
<g id="a_edge20_Node000044_Node000042"><a xlink:title=" ">
<path fill="none" stroke="#63b8ff" d="M237.72,-19.55C246.56,-22.54 256.32,-25.87 265.25,-29 287.05,-36.64 311.29,-45.41 330.98,-52.59"/>
<polygon fill="#63b8ff" stroke="#63b8ff" points="329.68,-55.84 340.27,-55.99 332.09,-49.27 329.68,-55.84"/>
</a>
</g>
</g>
<!-- Node45 -->
<g id="Node000045" class="node">
<title>Node45</title>
<g id="a_Node000045"><a xlink:href="class_async_client.html#a485b2be0c01d3172928c0ed9655edc2f" target="_top" xlink:title=" ">
<polygon fill="white" stroke="#666666" points="433.12,-20 309.12,-20 309.12,0 433.12,0 433.12,-20"/>
<text xml:space="preserve" text-anchor="middle" x="371.12" y="-6.5" font-family="Helvetica,sans-Serif" font-size="10.00">AsyncClient::_s_lwip_fin</text>
</a>
</g>
</g>
<!-- Node44&#45;&gt;Node45 -->
<g id="edge18_Node000044_Node000045" class="edge">
<title>Node44&#45;&gt;Node45</title>
<g id="a_edge18_Node000044_Node000045"><a xlink:title=" ">
<path fill="none" stroke="#63b8ff" d="M237.91,-10C254.62,-10 276.49,-10 297.62,-10"/>
<polygon fill="#63b8ff" stroke="#63b8ff" points="297.4,-13.5 307.4,-10 297.4,-6.5 297.4,-13.5"/>
</a>
</g>
</g>
<!-- Node46 -->
<g id="Node000046" class="node">
<title>Node46</title>
<g id="a_Node000046"><a xlink:href="class_async_client.html#a32dfd5b9ec97903e2f59871f17b85ff4" target="_top" xlink:title=" ">
<polygon fill="#fff0f0" stroke="red" points="590.5,-20 477,-20 477,0 590.5,0 590.5,-20"/>
<text xml:space="preserve" text-anchor="middle" x="533.75" y="-6.5" font-family="Helvetica,sans-Serif" font-size="10.00">AsyncClient::_lwip_fin</text>
</a>
</g>
</g>
<!-- Node45&#45;&gt;Node46 -->
<g id="edge19_Node000045_Node000046" class="edge">
<title>Node45&#45;&gt;Node46</title>
<g id="a_edge19_Node000045_Node000046"><a xlink:title=" ">
<path fill="none" stroke="#63b8ff" d="M433.31,-10C443.79,-10 454.73,-10 465.37,-10"/>
<polygon fill="#63b8ff" stroke="#63b8ff" points="465.23,-13.5 475.23,-10 465.23,-6.5 465.23,-13.5"/>
</a>
</g>
</g>
<!-- Node47&#45;&gt;Node42 -->
<g id="edge22_Node000047_Node000042" class="edge">
<title>Node47&#45;&gt;Node42</title>
<g id="a_edge22_Node000047_Node000042"><a xlink:title=" ">
<path fill="none" stroke="#63b8ff" d="M237.91,-51.4C257.35,-53.69 283.77,-56.81 307.89,-59.66"/>
<polygon fill="#63b8ff" stroke="#63b8ff" points="307.29,-63.11 317.63,-60.8 308.11,-56.16 307.29,-63.11"/>
</a>
</g>
</g>
</g>
</svg>
