<?xml version="1.0" encoding="UTF-8" standalone="no"?>
<!DOCTYPE svg PUBLIC "-//W3C//DTD SVG 1.1//EN"
 "http://www.w3.org/Graphics/SVG/1.1/DTD/svg11.dtd">
<!-- Generated by graphviz version 14.1.2 (20260124.0452)
 -->
<!-- Title: AuthSync::begin Pages: 1 -->
<svg width="674pt" height="227pt"
 viewBox="0.00 0.00 674.00 227.00" xmlns="http://www.w3.org/2000/svg" xmlns:xlink="http://www.w3.org/1999/xlink">
<g id="graph0" class="graph" transform="scale(1 1) rotate(0) translate(4 223)">
<title>AuthSync::begin</title>
<!-- Node1 -->
<g id="Node000001" class="node">
<title>Node1</title>
<g id="a_Node000001"><a xlink:title=" ">
<polygon fill="#999999" stroke="#666666" points="88,-181 0,-181 0,-161 88,-161 88,-181"/>
<text xml:space="preserve" text-anchor="middle" x="44" y="-167.5" font-family="Helvetica,sans-Serif" font-size="10.00">AuthSync::begin</text>
</a>
</g>
</g>
<!-- Node2 -->
<g id="Node000002" class="node">
<title>Node2</title>
<g id="a_Node000002"><a xlink:href="class_auth_sync.html#ac017101fb171c69cdf5449a54b9832ac" target="_top" xlink:title=" ">
<polygon fill="white" stroke="#666666" points="270.12,-219 126.62,-219 126.62,-199 270.12,-199 270.12,-219"/>
<text xml:space="preserve" text-anchor="middle" x="198.38" y="-205.5" font-family="Helvetica,sans-Serif" font-size="10.00">AuthSync::loadBitsetFromFS</text>
</a>
</g>
</g>
<!-- Node1&#45;&gt;Node2 -->
<g id="edge1_Node000001_Node000002" class="edge">
<title>Node1&#45;&gt;Node2</title>
<g id="a_edge1_Node000001_Node000002"><a xlink:title=" ">
<path fill="none" stroke="#63b8ff" d="M87.04,-181.48C104.78,-185.91 125.63,-191.11 144.4,-195.79"/>
<polygon fill="#63b8ff" stroke="#63b8ff" points="143.45,-199.16 154,-198.18 145.15,-192.37 143.45,-199.16"/>
</a>
</g>
</g>
<!-- Node3 -->
<g id="Node000003" class="node">
<title>Node3</title>
<g id="a_Node000003"><a xlink:href="class_auth_sync.html#a068f973556d6acd59bf12b10220d26b0" target="_top" xlink:title=" ">
<polygon fill="white" stroke="#666666" points="272.75,-181 124,-181 124,-161 272.75,-161 272.75,-181"/>
<text xml:space="preserve" text-anchor="middle" x="198.38" y="-167.5" font-family="Helvetica,sans-Serif" font-size="10.00">AuthSync::loadETagFromNVS</text>
</a>
</g>
</g>
<!-- Node1&#45;&gt;Node3 -->
<g id="edge2_Node000001_Node000003" class="edge">
<title>Node1&#45;&gt;Node3</title>
<g id="a_edge2_Node000001_Node000003"><a xlink:title=" ">
<path fill="none" stroke="#63b8ff" d="M88.26,-171C95.88,-171 104.04,-171 112.35,-171"/>
<polygon fill="#63b8ff" stroke="#63b8ff" points="112.22,-174.5 122.22,-171 112.22,-167.5 112.22,-174.5"/>
</a>
</g>
</g>
<!-- Node5 -->
<g id="Node000005" class="node">
<title>Node5</title>
<g id="a_Node000005"><a xlink:href="class_auth_sync.html#ab2999f3e828083471d482f9bde0d72f2" target="_top" xlink:title=" ">
<polygon fill="white" stroke="#666666" points="266.75,-115 130,-115 130,-95 266.75,-95 266.75,-115"/>
<text xml:space="preserve" text-anchor="middle" x="198.38" y="-101.5" font-family="Helvetica,sans-Serif" font-size="10.00">AuthSync::syncFromServer</text>
</a>
</g>
</g>
<!-- Node1&#45;&gt;Node5 -->
<g id="edge4_Node000001_Node000005" class="edge">
<title>Node1&#45;&gt;Node5</title>
<g id="a_edge4_Node000001_Node000005"><a xlink:title=" ">
<path fill="none" stroke="#63b8ff" d="M69.14,-160.54C94.44,-149.58 134.41,-132.27 163,-119.89"/>
<polygon fill="#63b8ff" stroke="#63b8ff" points="164.17,-123.2 171.95,-116.01 161.39,-116.77 164.17,-123.2"/>
</a>
</g>
</g>
<!-- Node4 -->
<g id="Node000004" class="node">
<title>Node4</title>
<g id="a_Node000004"><a xlink:href="class_auth_sync.html#a15f7b64e6f52b59c941b3d0077947d0a" target="_top" xlink:title=" ">
<polygon fill="white" stroke="#666666" points="474,-210 308.75,-210 308.75,-190 474,-190 474,-210"/>
<text xml:space="preserve" text-anchor="middle" x="391.38" y="-196.5" font-family="Helvetica,sans-Serif" font-size="10.00">AuthSync::loadAllowDenyFromFS</text>
</a>
</g>
</g>
<!-- Node3&#45;&gt;Node4 -->
<g id="edge3_Node000003_Node000004" class="edge">
<title>Node3&#45;&gt;Node4</title>
<g id="a_edge3_Node000003_Node000004"><a xlink:title=" ">
<path fill="none" stroke="#63b8ff" d="M268.33,-181.47C281.99,-183.54 296.44,-185.74 310.42,-187.86"/>
<polygon fill="#63b8ff" stroke="#63b8ff" points="309.61,-191.28 320.02,-189.32 310.66,-184.36 309.61,-191.28"/>
</a>
</g>
</g>
<!-- Node6 -->
<g id="Node000006" class="node">
<title>Node6</title>
<g id="a_Node000006"><a xlink:href="class_auth_sync.html#aab1e2b7beebdab60e16d9b3a50678efd" target="_top" xlink:title=" ">
<polygon fill="white" stroke="#666666" points="655,-58 521.25,-58 521.25,-38 655,-38 655,-58"/>
<text xml:space="preserve" text-anchor="middle" x="588.12" y="-44.5" font-family="Helvetica,sans-Serif" font-size="10.00">AuthSync::calcBitsetBytes</text>
</a>
</g>
</g>
<!-- Node5&#45;&gt;Node6 -->
<g id="edge5_Node000005_Node000006" class="edge">
<title>Node5&#45;&gt;Node6</title>
<g id="a_edge5_Node000005_Node000006"><a xlink:title=" ">
<path fill="none" stroke="#63b8ff" d="M267.17,-96.17C322.8,-88.8 403.59,-77.78 474,-67 487.51,-64.93 501.91,-62.6 515.75,-60.31"/>
<polygon fill="#63b8ff" stroke="#63b8ff" points="515.93,-63.83 525.21,-58.73 514.77,-56.92 515.93,-63.83"/>
</a>
</g>
</g>
<!-- Node7 -->
<g id="Node000007" class="node">
<title>Node7</title>
<g id="a_Node000007"><a xlink:href="class_auth_sync.html#afea91831a16e241cc5db5163299fc900" target="_top" xlink:title=" ">
<polygon fill="white" stroke="#666666" points="441.75,-134 341,-134 341,-114 441.75,-114 441.75,-134"/>
<text xml:space="preserve" text-anchor="middle" x="391.38" y="-120.5" font-family="Helvetica,sans-Serif" font-size="10.00">AuthSync::hashUid</text>
</a>
</g>
</g>
<!-- Node5&#45;&gt;Node7 -->
<g id="edge6_Node000005_Node000007" class="edge">
<title>Node5&#45;&gt;Node7</title>
<g id="a_edge6_Node000005_Node000007"><a xlink:title=" ">
<path fill="none" stroke="#63b8ff" d="M266.98,-111.73C287.26,-113.74 309.37,-115.94 329.2,-117.91"/>
<polygon fill="#63b8ff" stroke="#63b8ff" points="328.78,-121.39 339.08,-118.9 329.48,-114.42 328.78,-121.39"/>
</a>
</g>
</g>
<!-- Node10 -->
<g id="Node000010" class="node">
<title>Node10</title>
<g id="a_Node000010"><a xlink:href="class_auth_sync.html#a4a8d3b99ed3bfb87ab36b2abbcce0594" target="_top" xlink:title=" ">
<polygon fill="white" stroke="#666666" points="458.62,-58 324.12,-58 324.12,-38 458.62,-38 458.62,-58"/>
<text xml:space="preserve" text-anchor="middle" x="391.38" y="-44.5" font-family="Helvetica,sans-Serif" font-size="10.00">AuthSync::saveBitsetToFS</text>
</a>
</g>
</g>
<!-- Node5&#45;&gt;Node10 -->
<g id="edge8_Node000005_Node000010" class="edge">
<title>Node5&#45;&gt;Node10</title>
<g id="a_edge8_Node000005_Node000010"><a xlink:title=" ">
<path fill="none" stroke="#63b8ff" d="M233.84,-94.53C255.36,-88.01 283.66,-79.47 308.75,-72 320.12,-68.61 332.39,-64.99 343.88,-61.61"/>
<polygon fill="#63b8ff" stroke="#63b8ff" points="344.54,-65.06 353.15,-58.89 342.57,-58.35 344.54,-65.06"/>
</a>
</g>
</g>
<!-- Node11 -->
<g id="Node000011" class="node">
<title>Node11</title>
<g id="a_Node000011"><a xlink:href="class_auth_sync.html#a96c599b762bdafa672930dfa6f07ff13" target="_top" xlink:title=" ">
<polygon fill="white" stroke="#666666" points="461.25,-172 321.5,-172 321.5,-152 461.25,-152 461.25,-172"/>
<text xml:space="preserve" text-anchor="middle" x="391.38" y="-158.5" font-family="Helvetica,sans-Serif" font-size="10.00">AuthSync::saveETagToNVS</text>
</a>
</g>
</g>
<!-- Node5&#45;&gt;Node11 -->
<g id="edge9_Node000005_Node000011" class="edge">
<title>Node5&#45;&gt;Node11</title>
<g id="a_edge9_Node000005_Node000011"><a xlink:title=" ">
<path fill="none" stroke="#63b8ff" d="M226.54,-115.34C248.51,-123.48 280.36,-134.79 308.75,-143 315.8,-145.04 323.25,-147.01 330.66,-148.87"/>
<polygon fill="#63b8ff" stroke="#63b8ff" points="329.8,-152.26 340.34,-151.23 331.46,-145.46 329.8,-152.26"/>
</a>
</g>
</g>
<!-- Node13 -->
<g id="Node000013" class="node">
<title>Node13</title>
<g id="a_Node000013"><a xlink:href="class_auth_sync.html#a756e144d847c736d9932311d101a8a8f" target="_top" xlink:title=" ">
<polygon fill="white" stroke="#666666" points="449.25,-20 333.5,-20 333.5,0 449.25,0 449.25,-20"/>
<text xml:space="preserve" text-anchor="middle" x="391.38" y="-6.5" font-family="Helvetica,sans-Serif" font-size="10.00">AuthSync::writeByteAt</text>
</a>
</g>
</g>
<!-- Node5&#45;&gt;Node13 -->
<g id="edge11_Node000005_Node000013" class="edge">
<title>Node5&#45;&gt;Node13</title>
<g id="a_edge11_Node000005_Node000013"><a xlink:title=" ">
<path fill="none" stroke="#63b8ff" d="M210.93,-94.71C229.95,-78.32 269.66,-46.36 308.75,-29 313.09,-27.07 317.65,-25.33 322.3,-23.75"/>
<polygon fill="#63b8ff" stroke="#63b8ff" points="323.29,-27.11 331.82,-20.81 321.23,-20.42 323.29,-27.11"/>
</a>
</g>
</g>
<!-- Node8 -->
<g id="Node000008" class="node">
<title>Node8</title>
<g id="a_Node000008"><a xlink:href="namespace_hash_utils.html#a3432774829b6752dc346491bc5dd5eec" target="_top" xlink:title=" ">
<polygon fill="#fff0f0" stroke="red" points="638.88,-134 537.38,-134 537.38,-114 638.88,-114 638.88,-134"/>
<text xml:space="preserve" text-anchor="middle" x="588.12" y="-120.5" font-family="Helvetica,sans-Serif" font-size="10.00">HashUtils::hashUid</text>
</a>
</g>
</g>
<!-- Node7&#45;&gt;Node8 -->
<g id="edge7_Node000007_Node000008" class="edge">
<title>Node7&#45;&gt;Node8</title>
<g id="a_edge7_Node000007_Node000008"><a xlink:title=" ">
<path fill="none" stroke="#63b8ff" d="M442.02,-124C467.46,-124 498.68,-124 525.63,-124"/>
<polygon fill="#63b8ff" stroke="#63b8ff" points="525.38,-127.5 535.38,-124 525.38,-120.5 525.38,-127.5"/>
</a>
</g>
</g>
<!-- Node12 -->
<g id="Node000012" class="node">
<title>Node12</title>
<g id="a_Node000012"><a xlink:href="class_auth_sync.html#ad84e54dba300b040ae8655c915d5313f" target="_top" xlink:title=" ">
<polygon fill="white" stroke="#666666" points="666.25,-172 510,-172 510,-152 666.25,-152 666.25,-172"/>
<text xml:space="preserve" text-anchor="middle" x="588.12" y="-158.5" font-family="Helvetica,sans-Serif" font-size="10.00">AuthSync::saveAllowDenyToFS</text>
</a>
</g>
</g>
<!-- Node11&#45;&gt;Node12 -->
<g id="edge10_Node000011_Node000012" class="edge">
<title>Node11&#45;&gt;Node12</title>
<g id="a_edge10_Node000011_Node000012"><a xlink:title=" ">
<path fill="none" stroke="#63b8ff" d="M461.58,-162C473.47,-162 485.97,-162 498.29,-162"/>
<polygon fill="#63b8ff" stroke="#63b8ff" points="498.01,-165.5 508.01,-162 498.01,-158.5 498.01,-165.5"/>
</a>
</g>
</g>
<!-- Node13&#45;&gt;Node6 -->
<g id="edge12_Node000013_Node000006" class="edge">
<title>Node13&#45;&gt;Node6</title>
<g id="a_edge12_Node000013_Node000006"><a xlink:title=" ">
<path fill="none" stroke="#63b8ff" d="M446.11,-20.48C469.73,-25.09 497.68,-30.55 522.44,-35.38"/>
<polygon fill="#63b8ff" stroke="#63b8ff" points="521.6,-38.78 532.08,-37.26 522.94,-31.91 521.6,-38.78"/>
</a>
</g>
</g>
</g>
</svg>
