<?xml version="1.0" encoding="UTF-8" standalone="no"?>
<!DOCTYPE svg PUBLIC "-//W3C//DTD SVG 1.1//EN"
 "http://www.w3.org/Graphics/SVG/1.1/DTD/svg11.dtd">
<!-- Generated by graphviz version 14.1.2 (20260124.0452)
 -->
<!-- Title: AsyncClient::_allocate_closed_slot Pages: 1 -->
<svg width="1371pt" height="502pt"
 viewBox="0.00 0.00 1371.00 502.00" xmlns="http://www.w3.org/2000/svg" xmlns:xlink="http://www.w3.org/1999/xlink">
<g id="graph0" class="graph" transform="scale(1 1) rotate(0) translate(4 498.02)">
<title>AsyncClient::_allocate_closed_slot</title>
<!-- Node1 -->
<g id="Node000001" class="node">
<title>Node1</title>
<g id="a_Node000001"><a xlink:title=" ">
<polygon fill="#999999" stroke="#666666" points="1362.75,-387 1248.5,-387 1248.5,-355 1362.75,-355 1362.75,-387"/>
<text xml:space="preserve" text-anchor="start" x="1256.5" y="-373.5" font-family="Helvetica,sans-Serif" font-size="10.00">AsyncClient::_allocate</text>
<text xml:space="preserve" text-anchor="middle" x="1305.62" y="-361.5" font-family="Helvetica,sans-Serif" font-size="10.00">_closed_slot</text>
</a>
</g>
</g>
<!-- Node2 -->
<g id="Node000002" class="node">
<title>Node2</title>
<g id="a_Node000002"><a xlink:href="class_async_client.html#a758eaca983e03027c99003a5808883f8" target="_top" xlink:title=" ">
<polygon fill="white" stroke="#666666" points="741.5,-457 626.5,-457 626.5,-437 741.5,-437 741.5,-457"/>
<text xml:space="preserve" text-anchor="middle" x="684" y="-443.5" font-family="Helvetica,sans-Serif" font-size="10.00">AsyncClient::_connect</text>
</a>
</g>
</g>
<!-- Node1&#45;&gt;Node2 -->
<g id="edge1_Node000001_Node000002" class="edge">
<title>Node1&#45;&gt;Node2</title>
<g id="a_edge1_Node000001_Node000002"><a xlink:title=" ">
<path fill="none" stroke="#63b8ff" d="M1268.14,-393.12C1219.83,-421 1131.04,-467.39 1048,-485 928.52,-510.34 783.18,-475.98 718.65,-457.45"/>
<polygon fill="#63b8ff" stroke="#63b8ff" points="1269.64,-396.3 1276.51,-388.24 1266.11,-390.26 1269.64,-396.3"/>
</a>
</g>
</g>
<!-- Node11 -->
<g id="Node000011" class="node">
<title>Node11</title>
<g id="a_Node000011"><a xlink:href="class_async_client.html#aefecfa0c75c8c1b32104115e93739087" target="_top" xlink:title=" ">
<polygon fill="white" stroke="#666666" points="1212.5,-267 1084,-267 1084,-247 1212.5,-247 1212.5,-267"/>
<text xml:space="preserve" text-anchor="middle" x="1148.25" y="-253.5" font-family="Helvetica,sans-Serif" font-size="10.00">AsyncClient::AsyncClient</text>
</a>
</g>
</g>
<!-- Node1&#45;&gt;Node11 -->
<g id="edge8_Node000001_Node000011" class="edge">
<title>Node1&#45;&gt;Node11</title>
<g id="a_edge8_Node000001_Node000011"><a xlink:title=" ">
<path fill="none" stroke="#63b8ff" d="M1273.41,-348.1C1239.79,-323.43 1187.83,-285.31 1163.16,-267.21"/>
<polygon fill="#63b8ff" stroke="#63b8ff" points="1271.01,-350.68 1281.14,-353.77 1275.15,-345.03 1271.01,-350.68"/>
</a>
</g>
</g>
<!-- Node3 -->
<g id="Node000003" class="node">
<title>Node3</title>
<g id="a_Node000003"><a xlink:href="class_async_client.html#a260e075caca9a58241f2fad754cc412b" target="_top" xlink:title=" ">
<polygon fill="white" stroke="#666666" points="436.12,-438 326.38,-438 326.38,-418 436.12,-418 436.12,-438"/>
<text xml:space="preserve" text-anchor="middle" x="381.25" y="-424.5" font-family="Helvetica,sans-Serif" font-size="10.00">AsyncClient::connect</text>
</a>
</g>
</g>
<!-- Node2&#45;&gt;Node3 -->
<g id="edge2_Node000002_Node000003" class="edge">
<title>Node2&#45;&gt;Node3</title>
<g id="a_edge2_Node000002_Node000003"><a xlink:title=" ">
<path fill="none" stroke="#63b8ff" d="M614.88,-442.7C560.87,-439.28 486.41,-434.58 436.41,-431.42"/>
<polygon fill="#63b8ff" stroke="#63b8ff" points="614.37,-446.17 624.57,-443.31 614.81,-439.18 614.37,-446.17"/>
</a>
</g>
</g>
<!-- Node4 -->
<g id="Node000004" class="node">
<title>Node4</title>
<g id="a_Node000004"><a xlink:href="class_async_client.html#aaa5b952568c85d25c32d0dff8ec74794" target="_top" xlink:title=" ">
<polygon fill="white" stroke="#666666" points="589.75,-476 480,-476 480,-456 589.75,-456 589.75,-476"/>
<text xml:space="preserve" text-anchor="middle" x="534.88" y="-462.5" font-family="Helvetica,sans-Serif" font-size="10.00">AsyncClient::connect</text>
</a>
</g>
</g>
<!-- Node2&#45;&gt;Node4 -->
<g id="edge3_Node000002_Node000004" class="edge">
<title>Node2&#45;&gt;Node4</title>
<g id="a_edge3_Node000002_Node000004"><a xlink:title=" ">
<path fill="none" stroke="#63b8ff" d="M614.91,-455.79C606.62,-456.86 598.24,-457.95 590.19,-458.99"/>
<polygon fill="#63b8ff" stroke="#63b8ff" points="615.15,-459.29 624.62,-454.54 614.25,-452.35 615.15,-459.29"/>
</a>
</g>
</g>
<!-- Node4&#45;&gt;Node3 -->
<g id="edge7_Node000004_Node000003" class="edge">
<title>Node4&#45;&gt;Node3</title>
<g id="a_edge7_Node000004_Node000003"><a xlink:title=" ">
<path fill="none" stroke="#63b8ff" d="M481.02,-452.75C462.33,-448.07 441.58,-442.87 423.95,-438.45"/>
<polygon fill="#63b8ff" stroke="#63b8ff" points="480.02,-456.11 490.57,-455.15 481.72,-449.32 480.02,-456.11"/>
</a>
</g>
</g>
<!-- Node5 -->
<g id="Node000005" class="node">
<title>Node5</title>
<g id="a_Node000005"><a xlink:href="class_async_client.html#a19dc40652b5b003288e10529ee169b65" target="_top" xlink:title=" ">
<polygon fill="white" stroke="#666666" points="444,-476 318.5,-476 318.5,-456 444,-456 444,-476"/>
<text xml:space="preserve" text-anchor="middle" x="381.25" y="-462.5" font-family="Helvetica,sans-Serif" font-size="10.00">AsyncClient::_dns_found</text>
</a>
</g>
</g>
<!-- Node4&#45;&gt;Node5 -->
<g id="edge4_Node000004_Node000005" class="edge">
<title>Node4&#45;&gt;Node5</title>
<g id="a_edge4_Node000004_Node000005"><a xlink:title=" ">
<path fill="none" stroke="#63b8ff" d="M468.17,-466C460.29,-466 452.26,-466 444.44,-466"/>
<polygon fill="#63b8ff" stroke="#63b8ff" points="468.05,-469.5 478.05,-466 468.05,-462.5 468.05,-469.5"/>
</a>
</g>
</g>
<!-- Node6 -->
<g id="Node000006" class="node">
<title>Node6</title>
<g id="a_Node000006"><a xlink:href="class_async_client.html#a3f629c9072da183879a9c67878b374cc" target="_top" xlink:title=" ">
<polygon fill="white" stroke="#666666" points="267.88,-406 161.12,-406 161.12,-374 267.88,-374 267.88,-406"/>
<text xml:space="preserve" text-anchor="start" x="169.12" y="-392.5" font-family="Helvetica,sans-Serif" font-size="10.00">AsyncClient::_s_dns</text>
<text xml:space="preserve" text-anchor="middle" x="214.5" y="-380.5" font-family="Helvetica,sans-Serif" font-size="10.00">_found</text>
</a>
</g>
</g>
<!-- Node5&#45;&gt;Node6 -->
<g id="edge5_Node000005_Node000006" class="edge">
<title>Node5&#45;&gt;Node6</title>
<g id="a_edge5_Node000005_Node000006"><a xlink:title=" ">
<path fill="none" stroke="#63b8ff" d="M331.16,-451.92C326.84,-450.37 322.56,-448.73 318.5,-447 291.23,-435.41 261.81,-418.66 241.42,-406.32"/>
<polygon fill="#63b8ff" stroke="#63b8ff" points="329.9,-455.19 340.49,-455.08 332.14,-448.56 329.9,-455.19"/>
</a>
</g>
</g>
<!-- Node7 -->
<g id="Node000007" class="node">
<title>Node7</title>
<g id="a_Node000007"><a xlink:href="_async_t_c_p_8cpp.html#ac4030e968c0e4c0fcbe7a9b4502854c1" target="_top" xlink:title=" ">
<polygon fill="#fff0f0" stroke="red" points="110.5,-134 0,-134 0,-114 110.5,-114 110.5,-134"/>
<text xml:space="preserve" text-anchor="middle" x="55.25" y="-120.5" font-family="Helvetica,sans-Serif" font-size="10.00">_handle_async_event</text>
</a>
</g>
</g>
<!-- Node6&#45;&gt;Node7 -->
<g id="edge6_Node000006_Node000007" class="edge">
<title>Node6&#45;&gt;Node7</title>
<g id="a_edge6_Node000006_Node000007"><a xlink:title=" ">
<path fill="none" stroke="#63b8ff" d="M198.16,-364.06C164.47,-307.06 85.19,-172.95 62.45,-134.48"/>
<polygon fill="#63b8ff" stroke="#63b8ff" points="195.03,-365.63 203.13,-372.46 201.05,-362.07 195.03,-365.63"/>
</a>
</g>
</g>
<!-- Node11&#45;&gt;Node6 -->
<g id="edge11_Node000011_Node000006" class="edge">
<title>Node11&#45;&gt;Node6</title>
<g id="a_edge11_Node000011_Node000006"><a xlink:title=" ">
<path fill="none" stroke="#63b8ff" d="M1136.46,-276.99C1120.86,-303.66 1089.3,-349.94 1048,-371 962.98,-414.35 929.55,-390 834.12,-390 834.12,-390 834.12,-390 533.88,-390 440.32,-390 331.31,-390 268.17,-390"/>
<polygon fill="#63b8ff" stroke="#63b8ff" points="1139.37,-278.95 1141.24,-268.53 1133.28,-275.52 1139.37,-278.95"/>
</a>
</g>
</g>
<!-- Node12 -->
<g id="Node000012" class="node">
<title>Node12</title>
<g id="a_Node000012"><a xlink:href="class_async_client.html#ac4cdb0990fa85f03da98d1c98b1f8611" target="_top" xlink:title=" ">
<polygon fill="white" stroke="#666666" points="282.5,-210 146.5,-210 146.5,-190 282.5,-190 282.5,-210"/>
<text xml:space="preserve" text-anchor="middle" x="214.5" y="-196.5" font-family="Helvetica,sans-Serif" font-size="10.00">AsyncClient::_s_connected</text>
</a>
</g>
</g>
<!-- Node11&#45;&gt;Node12 -->
<g id="edge9_Node000011_Node000012" class="edge">
<title>Node11&#45;&gt;Node12</title>
<g id="a_edge9_Node000011_Node000012"><a xlink:title=" ">
<path fill="none" stroke="#63b8ff" d="M1101.81,-243.42C1041.31,-226.56 930.68,-200 834.12,-200 834.12,-200 834.12,-200 533.88,-200 447.23,-200 347.33,-200 282.89,-200"/>
<polygon fill="#63b8ff" stroke="#63b8ff" points="1100.84,-246.78 1111.41,-246.13 1102.75,-240.04 1100.84,-246.78"/>
</a>
</g>
</g>
<!-- Node13 -->
<g id="Node000013" class="node">
<title>Node13</title>
<g id="a_Node000013"><a xlink:href="class_async_client.html#a9ff634e3b1237eab65178b007326367e" target="_top" xlink:title=" ">
<polygon fill="white" stroke="#666666" points="739.25,-172 628.75,-172 628.75,-152 739.25,-152 739.25,-172"/>
<text xml:space="preserve" text-anchor="middle" x="684" y="-158.5" font-family="Helvetica,sans-Serif" font-size="10.00">AsyncClient::_s_error</text>
</a>
</g>
</g>
<!-- Node11&#45;&gt;Node13 -->
<g id="edge12_Node000011_Node000013" class="edge">
<title>Node11&#45;&gt;Node13</title>
<g id="a_edge12_Node000011_Node000013"><a xlink:title=" ">
<path fill="none" stroke="#63b8ff" d="M1128.96,-239.03C1110.32,-221.98 1079.71,-197.34 1048,-186 943.78,-148.72 812.14,-151.24 739.46,-156.53"/>
<polygon fill="#63b8ff" stroke="#63b8ff" points="1126.32,-241.35 1136,-245.65 1131.11,-236.25 1126.32,-241.35"/>
</a>
</g>
</g>
<!-- Node14 -->
<g id="Node000014" class="node">
<title>Node14</title>
<g id="a_Node000014"><a xlink:href="class_async_client.html#a6a69c67e1a22660766affb64700c2276" target="_top" xlink:title=" ">
<polygon fill="white" stroke="#666666" points="585.62,-134 484.12,-134 484.12,-114 585.62,-114 585.62,-134"/>
<text xml:space="preserve" text-anchor="middle" x="534.88" y="-120.5" font-family="Helvetica,sans-Serif" font-size="10.00">AsyncClient::_s_fin</text>
</a>
</g>
</g>
<!-- Node11&#45;&gt;Node14 -->
<g id="edge14_Node000011_Node000014" class="edge">
<title>Node11&#45;&gt;Node14</title>
<g id="a_edge14_Node000011_Node000014"><a xlink:title=" ">
<path fill="none" stroke="#63b8ff" d="M1134.51,-237.02C1117.9,-212.94 1086.38,-173.52 1048,-156 892,-84.78 681.04,-102.58 585.98,-115.78"/>
<polygon fill="#63b8ff" stroke="#63b8ff" points="1131.59,-238.94 1140.05,-245.32 1137.42,-235.06 1131.59,-238.94"/>
</a>
</g>
</g>
<!-- Node15 -->
<g id="Node000015" class="node">
<title>Node15</title>
<g id="a_Node000015"><a xlink:href="class_async_client.html#a485b2be0c01d3172928c0ed9655edc2f" target="_top" xlink:title=" ">
<polygon fill="white" stroke="#666666" points="1048,-324 924,-324 924,-304 1048,-304 1048,-324"/>
<text xml:space="preserve" text-anchor="middle" x="986" y="-310.5" font-family="Helvetica,sans-Serif" font-size="10.00">AsyncClient::_s_lwip_fin</text>
</a>
</g>
</g>
<!-- Node11&#45;&gt;Node15 -->
<g id="edge16_Node000011_Node000015" class="edge">
<title>Node11&#45;&gt;Node15</title>
<g id="a_edge16_Node000011_Node000015"><a xlink:title=" ">
<path fill="none" stroke="#63b8ff" d="M1107.16,-271.26C1078.99,-281.28 1041.95,-294.46 1016.48,-303.52"/>
<polygon fill="#63b8ff" stroke="#63b8ff" points="1108.18,-274.61 1116.43,-267.96 1105.84,-268.02 1108.18,-274.61"/>
</a>
</g>
</g>
<!-- Node17 -->
<g id="Node000017" class="node">
<title>Node17</title>
<g id="a_Node000017"><a xlink:href="class_async_client.html#a575c12664279634155259e007c6a104f" target="_top" xlink:title=" ">
<polygon fill="white" stroke="#666666" points="742.25,-267 625.75,-267 625.75,-247 742.25,-247 742.25,-267"/>
<text xml:space="preserve" text-anchor="middle" x="684" y="-253.5" font-family="Helvetica,sans-Serif" font-size="10.00">AsyncClient::operator=</text>
</a>
</g>
</g>
<!-- Node11&#45;&gt;Node17 -->
<g id="edge29_Node000011_Node000017" class="edge">
<title>Node11&#45;&gt;Node17</title>
<g id="a_edge29_Node000011_Node000017"><a xlink:title=" ">
<path fill="none" stroke="#63b8ff" d="M1072.48,-257C980.35,-257 825.81,-257 742.46,-257"/>
<polygon fill="#63b8ff" stroke="#63b8ff" points="1072.43,-260.5 1082.43,-257 1072.43,-253.5 1072.43,-260.5"/>
</a>
</g>
</g>
<!-- Node18 -->
<g id="Node000018" class="node">
<title>Node18</title>
<g id="a_Node000018"><a xlink:href="class_async_client.html#abe187c005c73fe6c0c94e1b3b20b55de" target="_top" xlink:title=" ">
<polygon fill="white" stroke="#666666" points="587.88,-96 481.88,-96 481.88,-76 587.88,-76 587.88,-96"/>
<text xml:space="preserve" text-anchor="middle" x="534.88" y="-82.5" font-family="Helvetica,sans-Serif" font-size="10.00">AsyncClient::_s_poll</text>
</a>
</g>
</g>
<!-- Node11&#45;&gt;Node18 -->
<g id="edge21_Node000011_Node000018" class="edge">
<title>Node11&#45;&gt;Node18</title>
<g id="a_edge21_Node000011_Node000018"><a xlink:title=" ">
<path fill="none" stroke="#63b8ff" d="M1139.54,-236.42C1126.3,-204.26 1095.92,-142.89 1048,-115 971.13,-70.26 702.42,-77.68 588.05,-83.1"/>
<polygon fill="#63b8ff" stroke="#63b8ff" points="1136.17,-237.4 1143.09,-245.42 1142.68,-234.83 1136.17,-237.4"/>
</a>
</g>
</g>
<!-- Node19 -->
<g id="Node000019" class="node">
<title>Node19</title>
<g id="a_Node000019"><a xlink:href="class_async_client.html#af8136d3085c8948078a131bfb9430ec6" target="_top" xlink:title=" ">
<polygon fill="white" stroke="#666666" points="888,-58 778.25,-58 778.25,-38 888,-38 888,-58"/>
<text xml:space="preserve" text-anchor="middle" x="833.12" y="-44.5" font-family="Helvetica,sans-Serif" font-size="10.00">AsyncClient::_s_recv</text>
</a>
</g>
</g>
<!-- Node11&#45;&gt;Node19 -->
<g id="edge23_Node000011_Node000019" class="edge">
<title>Node11&#45;&gt;Node19</title>
<g id="a_edge23_Node000011_Node000019"><a xlink:title=" ">
<path fill="none" stroke="#63b8ff" d="M1142.64,-235.57C1132.86,-195.85 1106.01,-111.27 1048,-72 1000.97,-40.16 934.39,-37.67 888.05,-40.9"/>
<polygon fill="#63b8ff" stroke="#63b8ff" points="1139.23,-236.35 1144.89,-245.3 1146.05,-234.77 1139.23,-236.35"/>
</a>
</g>
</g>
<!-- Node20 -->
<g id="Node000020" class="node">
<title>Node20</title>
<g id="a_Node000020"><a xlink:href="class_async_client.html#a8e507d50b4cc3ae8e90f2e1c1ebf5f61" target="_top" xlink:title=" ">
<polygon fill="white" stroke="#666666" points="888,-20 778.25,-20 778.25,0 888,0 888,-20"/>
<text xml:space="preserve" text-anchor="middle" x="833.12" y="-6.5" font-family="Helvetica,sans-Serif" font-size="10.00">AsyncClient::_s_sent</text>
</a>
</g>
</g>
<!-- Node11&#45;&gt;Node20 -->
<g id="edge25_Node000011_Node000020" class="edge">
<title>Node11&#45;&gt;Node20</title>
<g id="a_edge25_Node000011_Node000020"><a xlink:title=" ">
<path fill="none" stroke="#63b8ff" d="M1144.59,-235.66C1137.74,-190.51 1115.03,-85.37 1048,-36 1002.07,-2.17 934.97,0.58 888.21,-2.72"/>
<polygon fill="#63b8ff" stroke="#63b8ff" points="1141.11,-236.02 1145.95,-245.44 1148.04,-235.06 1141.11,-236.02"/>
</a>
</g>
</g>
<!-- Node21 -->
<g id="Node000021" class="node">
<title>Node21</title>
<g id="a_Node000021"><a xlink:href="class_async_client.html#a44e3b77c5567dbfeb25c50cfddf61653" target="_top" xlink:title=" ">
<polygon fill="white" stroke="#666666" points="1045.75,-476 926.25,-476 926.25,-456 1045.75,-456 1045.75,-476"/>
<text xml:space="preserve" text-anchor="middle" x="986" y="-462.5" font-family="Helvetica,sans-Serif" font-size="10.00">AsyncClient::operator!=</text>
</a>
</g>
</g>
<!-- Node11&#45;&gt;Node21 -->
<g id="edge27_Node000011_Node000021" class="edge">
<title>Node11&#45;&gt;Node21</title>
<g id="a_edge27_Node000011_Node000021"><a xlink:title=" ">
<path fill="none" stroke="#63b8ff" d="M1141.91,-278.53C1131.04,-317.84 1102.65,-401.37 1048,-447 1043.91,-450.41 1039.21,-453.21 1034.28,-455.51"/>
<polygon fill="#63b8ff" stroke="#63b8ff" points="1145.28,-279.45 1144.44,-268.89 1138.51,-277.67 1145.28,-279.45"/>
</a>
</g>
</g>
<!-- Node22 -->
<g id="Node000022" class="node">
<title>Node22</title>
<g id="a_Node000022"><a xlink:href="class_async_client.html#afaedf716feb9b363fe9b1ee7d82fbe9f" target="_top" xlink:title=" ">
<polygon fill="white" stroke="#666666" points="1047.25,-438 924.75,-438 924.75,-418 1047.25,-418 1047.25,-438"/>
<text xml:space="preserve" text-anchor="middle" x="986" y="-424.5" font-family="Helvetica,sans-Serif" font-size="10.00">AsyncClient::operator+=</text>
</a>
</g>
</g>
<!-- Node11&#45;&gt;Node22 -->
<g id="edge28_Node000011_Node000022" class="edge">
<title>Node11&#45;&gt;Node22</title>
<g id="a_edge28_Node000011_Node000022"><a xlink:title=" ">
<path fill="none" stroke="#63b8ff" d="M1138.26,-277.66C1123.64,-309.05 1091.86,-368.83 1048,-404 1040.99,-409.62 1032.49,-414.06 1024.1,-417.51"/>
<polygon fill="#63b8ff" stroke="#63b8ff" points="1141.31,-279.41 1142.24,-268.86 1134.94,-276.53 1141.31,-279.41"/>
</a>
</g>
</g>
<!-- Node23 -->
<g id="Node000023" class="node">
<title>Node23</title>
<g id="a_Node000023"><a xlink:href="class_async_client.html#a40d147dfec9bbc2e8891273be25c5f39" target="_top" xlink:title=" ">
<polygon fill="white" stroke="#666666" points="1047.25,-362 924.75,-362 924.75,-342 1047.25,-342 1047.25,-362"/>
<text xml:space="preserve" text-anchor="middle" x="986" y="-348.5" font-family="Helvetica,sans-Serif" font-size="10.00">AsyncClient::operator==</text>
</a>
</g>
</g>
<!-- Node11&#45;&gt;Node23 -->
<g id="edge30_Node000011_Node000023" class="edge">
<title>Node11&#45;&gt;Node23</title>
<g id="a_edge30_Node000011_Node000023"><a xlink:title=" ">
<path fill="none" stroke="#63b8ff" d="M1128.18,-274.91C1109.17,-291.94 1078.47,-317.22 1048,-333 1041.6,-336.31 1034.51,-339.17 1027.51,-341.59"/>
<polygon fill="#63b8ff" stroke="#63b8ff" points="1130.38,-277.64 1135.41,-268.32 1125.67,-272.47 1130.38,-277.64"/>
</a>
</g>
</g>
<!-- Node12&#45;&gt;Node7 -->
<g id="edge10_Node000012_Node000007" class="edge">
<title>Node12&#45;&gt;Node7</title>
<g id="a_edge10_Node000012_Node000007"><a xlink:title=" ">
<path fill="none" stroke="#63b8ff" d="M170.04,-185.71C162.11,-182.75 153.98,-179.46 146.5,-176 119.58,-163.55 90.12,-145.71 72.41,-134.5"/>
<polygon fill="#63b8ff" stroke="#63b8ff" points="168.64,-188.93 179.23,-189.04 171.02,-182.35 168.64,-188.93"/>
</a>
</g>
</g>
<!-- Node13&#45;&gt;Node7 -->
<g id="edge13_Node000013_Node000007" class="edge">
<title>Node13&#45;&gt;Node7</title>
<g id="a_edge13_Node000013_Node000007"><a xlink:title=" ">
<path fill="none" stroke="#63b8ff" d="M617.14,-161.37C515.78,-159.87 315.56,-154.84 146.5,-138 134.82,-136.84 122.36,-135.18 110.53,-133.4"/>
<polygon fill="#63b8ff" stroke="#63b8ff" points="616.85,-164.86 626.89,-161.5 616.94,-157.86 616.85,-164.86"/>
</a>
</g>
</g>
<!-- Node14&#45;&gt;Node7 -->
<g id="edge15_Node000014_Node000007" class="edge">
<title>Node14&#45;&gt;Node7</title>
<g id="a_edge15_Node000014_Node000007"><a xlink:title=" ">
<path fill="none" stroke="#63b8ff" d="M472.36,-124C378.38,-124 200.57,-124 110.89,-124"/>
<polygon fill="#63b8ff" stroke="#63b8ff" points="472.15,-127.5 482.15,-124 472.15,-120.5 472.15,-127.5"/>
</a>
</g>
</g>
<!-- Node16 -->
<g id="Node000016" class="node">
<title>Node16</title>
<g id="a_Node000016"><a xlink:href="_async_t_c_p_8cpp.html#adf7826424bf5b1035c4850f6b3307686" target="_top" xlink:title=" ">
<polygon fill="white" stroke="#666666" points="862.5,-305 803.75,-305 803.75,-285 862.5,-285 862.5,-305"/>
<text xml:space="preserve" text-anchor="middle" x="833.12" y="-291.5" font-family="Helvetica,sans-Serif" font-size="10.00">_tcp_recv</text>
</a>
</g>
</g>
<!-- Node15&#45;&gt;Node16 -->
<g id="edge17_Node000015_Node000016" class="edge">
<title>Node15&#45;&gt;Node16</title>
<g id="a_edge17_Node000015_Node000016"><a xlink:title=" ">
<path fill="none" stroke="#63b8ff" d="M912.43,-304.86C894.82,-302.64 877,-300.4 862.81,-298.61"/>
<polygon fill="#63b8ff" stroke="#63b8ff" points="911.77,-308.31 922.13,-306.08 912.65,-301.36 911.77,-308.31"/>
</a>
</g>
</g>
<!-- Node16&#45;&gt;Node2 -->
<g id="edge18_Node000016_Node000002" class="edge">
<title>Node16&#45;&gt;Node2</title>
<g id="a_edge18_Node000016_Node000002"><a xlink:title=" ">
<path fill="none" stroke="#63b8ff" d="M814.08,-313.65C782.71,-346.06 719.15,-411.72 694.8,-436.88"/>
<polygon fill="#63b8ff" stroke="#63b8ff" points="816.52,-316.15 820.96,-306.54 811.49,-311.29 816.52,-316.15"/>
</a>
</g>
</g>
<!-- Node16&#45;&gt;Node11 -->
<g id="edge19_Node000016_Node000011" class="edge">
<title>Node16&#45;&gt;Node11</title>
<g id="a_edge19_Node000016_Node000011"><a xlink:title=" ">
<path fill="none" stroke="#63b8ff" d="M874.21,-290.14C927.1,-283.72 1020.83,-272.34 1083.51,-264.74"/>
<polygon fill="#63b8ff" stroke="#63b8ff" points="873.94,-286.64 864.44,-291.32 874.79,-293.59 873.94,-286.64"/>
</a>
</g>
</g>
<!-- Node16&#45;&gt;Node17 -->
<g id="edge20_Node000016_Node000017" class="edge">
<title>Node16&#45;&gt;Node17</title>
<g id="a_edge20_Node000016_Node000017"><a xlink:title=" ">
<path fill="none" stroke="#63b8ff" d="M792.43,-284.75C771.73,-279.4 746.45,-272.87 725.61,-267.49"/>
<polygon fill="#63b8ff" stroke="#63b8ff" points="791.39,-288.09 801.94,-287.2 793.14,-281.31 791.39,-288.09"/>
</a>
</g>
</g>
<!-- Node18&#45;&gt;Node7 -->
<g id="edge22_Node000018_Node000007" class="edge">
<title>Node18&#45;&gt;Node7</title>
<g id="a_edge22_Node000018_Node000007"><a xlink:title=" ">
<path fill="none" stroke="#63b8ff" d="M469.99,-91.08C375.34,-98.61 199.5,-112.6 110.65,-119.67"/>
<polygon fill="#63b8ff" stroke="#63b8ff" points="470.19,-94.58 479.89,-90.3 469.64,-87.6 470.19,-94.58"/>
</a>
</g>
</g>
<!-- Node19&#45;&gt;Node7 -->
<g id="edge24_Node000019_Node000007" class="edge">
<title>Node19&#45;&gt;Node7</title>
<g id="a_edge24_Node000019_Node000007"><a xlink:title=" ">
<path fill="none" stroke="#63b8ff" d="M766.59,-48C706.56,-48 615.24,-48 535.88,-48 535.88,-48 535.88,-48 380.25,-48 266.72,-48 136.58,-92.78 82.22,-113.59"/>
<polygon fill="#63b8ff" stroke="#63b8ff" points="766.28,-51.5 776.28,-48 766.28,-44.5 766.28,-51.5"/>
</a>
</g>
</g>
<!-- Node20&#45;&gt;Node7 -->
<g id="edge26_Node000020_Node000007" class="edge">
<title>Node20&#45;&gt;Node7</title>
<g id="a_edge26_Node000020_Node000007"><a xlink:title=" ">
<path fill="none" stroke="#63b8ff" d="M766.59,-10C706.56,-10 615.24,-10 535.88,-10 535.88,-10 535.88,-10 380.25,-10 274.62,-10 242.77,-9.52 146.5,-53 113.25,-68.02 81.42,-97.85 65.97,-113.64"/>
<polygon fill="#63b8ff" stroke="#63b8ff" points="766.28,-13.5 776.28,-10 766.28,-6.5 766.28,-13.5"/>
</a>
</g>
</g>
</g>
</svg>
