<?xml version="1.0" encoding="UTF-8" standalone="no"?>
<!DOCTYPE svg PUBLIC "-//W3C//DTD SVG 1.1//EN"
 "http://www.w3.org/Graphics/SVG/1.1/DTD/svg11.dtd">
<!-- Generated by graphviz version 14.1.2 (20260124.0452)
 -->
<!-- Title: AsyncClient::_poll Pages: 1 -->
<svg width="529pt" height="154pt"
 viewBox="0.00 0.00 529.00 154.00" xmlns="http://www.w3.org/2000/svg" xmlns:xlink="http://www.w3.org/1999/xlink">
<g id="graph0" class="graph" transform="scale(1 1) rotate(0) translate(4 150)">
<title>AsyncClient::_poll</title>
<!-- Node1 -->
<g id="Node000001" class="node">
<title>Node1</title>
<g id="a_Node000001"><a xlink:title=" ">
<polygon fill="#999999" stroke="#666666" points="95.5,-58 0,-58 0,-38 95.5,-38 95.5,-58"/>
<text xml:space="preserve" text-anchor="middle" x="47.75" y="-44.5" font-family="Helvetica,sans-Serif" font-size="10.00">AsyncClient::_poll</text>
</a>
</g>
</g>
<!-- Node2 -->
<g id="Node000002" class="node">
<title>Node2</title>
<g id="a_Node000002"><a xlink:href="class_async_client.html#a98ff872bc84919f006f3bb8a249ed36d" target="_top" xlink:title=" ">
<polygon fill="white" stroke="#666666" points="235.25,-77 131.5,-77 131.5,-57 235.25,-57 235.25,-77"/>
<text xml:space="preserve" text-anchor="middle" x="183.38" y="-63.5" font-family="Helvetica,sans-Serif" font-size="10.00">AsyncClient::_close</text>
</a>
</g>
</g>
<!-- Node1&#45;&gt;Node2 -->
<g id="edge1_Node000001_Node000002" class="edge">
<title>Node1&#45;&gt;Node2</title>
<g id="a_edge1_Node000001_Node000002"><a xlink:title=" ">
<path fill="none" stroke="#63b8ff" d="M95.86,-54.7C103.62,-55.8 111.78,-56.96 119.85,-58.11"/>
<polygon fill="#63b8ff" stroke="#63b8ff" points="119.26,-61.56 129.65,-59.5 120.24,-54.63 119.26,-61.56"/>
</a>
</g>
</g>
<!-- Node11 -->
<g id="Node000011" class="node">
<title>Node11</title>
<g id="a_Node000011"><a xlink:href="class_async_client.html#ac0c28dd08517243bc6d64d32f982a3cc" target="_top" xlink:title=" ">
<polygon fill="white" stroke="#666666" points="228.88,-39 137.88,-39 137.88,-19 228.88,-19 228.88,-39"/>
<text xml:space="preserve" text-anchor="middle" x="183.38" y="-25.5" font-family="Helvetica,sans-Serif" font-size="10.00">AsyncClient::pcb</text>
</a>
</g>
</g>
<!-- Node1&#45;&gt;Node11 -->
<g id="edge9_Node000001_Node000011" class="edge">
<title>Node1&#45;&gt;Node11</title>
<g id="a_edge9_Node000001_Node000011"><a xlink:title=" ">
<path fill="none" stroke="#63b8ff" d="M95.86,-41.3C105.69,-39.9 116.14,-38.42 126.25,-36.98"/>
<polygon fill="#63b8ff" stroke="#63b8ff" points="126.58,-40.47 135.98,-35.6 125.59,-33.54 126.58,-40.47"/>
</a>
</g>
</g>
<!-- Node3 -->
<g id="Node000003" class="node">
<title>Node3</title>
<g id="a_Node000003"><a xlink:href="class_async_client.html#aff6a2fbf261b25e1fcd35c11cce348a5" target="_top" xlink:title=" ">
<polygon fill="white" stroke="#666666" points="368.25,-146 271.25,-146 271.25,-114 368.25,-114 368.25,-146"/>
<text xml:space="preserve" text-anchor="start" x="279.25" y="-132.5" font-family="Helvetica,sans-Serif" font-size="10.00">AsyncClient::_free</text>
<text xml:space="preserve" text-anchor="middle" x="319.75" y="-120.5" font-family="Helvetica,sans-Serif" font-size="10.00">_closed_slot</text>
</a>
</g>
</g>
<!-- Node2&#45;&gt;Node3 -->
<g id="edge2_Node000002_Node000003" class="edge">
<title>Node2&#45;&gt;Node3</title>
<g id="a_edge2_Node000002_Node000003"><a xlink:title=" ">
<path fill="none" stroke="#63b8ff" d="M206.56,-77.4C224.65,-85.88 250.78,-98.13 273.27,-108.68"/>
<polygon fill="#63b8ff" stroke="#63b8ff" points="271.73,-111.82 282.27,-112.9 274.7,-105.48 271.73,-111.82"/>
</a>
</g>
</g>
<!-- Node4 -->
<g id="Node000004" class="node">
<title>Node4</title>
<g id="a_Node000004"><a xlink:href="_async_t_c_p_8cpp.html#ab053d5adb5be879f37181af512213bb6" target="_top" xlink:title=" ">
<polygon fill="white" stroke="#666666" points="367.5,-96 272,-96 272,-76 367.5,-76 367.5,-96"/>
<text xml:space="preserve" text-anchor="middle" x="319.75" y="-82.5" font-family="Helvetica,sans-Serif" font-size="10.00">_tcp_clear_events</text>
</a>
</g>
</g>
<!-- Node2&#45;&gt;Node4 -->
<g id="edge3_Node000002_Node000004" class="edge">
<title>Node2&#45;&gt;Node4</title>
<g id="a_edge3_Node000002_Node000004"><a xlink:title=" ">
<path fill="none" stroke="#63b8ff" d="M235.56,-74.24C243.72,-75.39 252.21,-76.59 260.52,-77.77"/>
<polygon fill="#63b8ff" stroke="#63b8ff" points="259.79,-81.2 270.18,-79.13 260.77,-74.27 259.79,-81.2"/>
</a>
</g>
</g>
<!-- Node6 -->
<g id="Node000006" class="node">
<title>Node6</title>
<g id="a_Node000006"><a xlink:href="_async_t_c_p_8cpp.html#a3602c1ebfae2fb2ff64a0e3d7b0568ce" target="_top" xlink:title=" ">
<polygon fill="white" stroke="#666666" points="351.38,-58 288.12,-58 288.12,-38 351.38,-38 351.38,-58"/>
<text xml:space="preserve" text-anchor="middle" x="319.75" y="-44.5" font-family="Helvetica,sans-Serif" font-size="10.00">_tcp_close</text>
</a>
</g>
</g>
<!-- Node2&#45;&gt;Node6 -->
<g id="edge5_Node000002_Node000006" class="edge">
<title>Node2&#45;&gt;Node6</title>
<g id="a_edge5_Node000002_Node000006"><a xlink:title=" ">
<path fill="none" stroke="#63b8ff" d="M235.56,-59.76C249.21,-57.83 263.8,-55.77 276.89,-53.92"/>
<polygon fill="#63b8ff" stroke="#63b8ff" points="277.03,-57.43 286.44,-52.57 276.05,-50.5 277.03,-57.43"/>
</a>
</g>
</g>
<!-- Node8 -->
<g id="Node000008" class="node">
<title>Node8</title>
<g id="a_Node000008"><a xlink:href="class_async_client.html#a09e777ff005d8e0f81166e704dc14979" target="_top" xlink:title=" ">
<polygon fill="white" stroke="#666666" points="368.25,-20 271.25,-20 271.25,0 368.25,0 368.25,-20"/>
<text xml:space="preserve" text-anchor="middle" x="319.75" y="-6.5" font-family="Helvetica,sans-Serif" font-size="10.00">AsyncClient::abort</text>
</a>
</g>
</g>
<!-- Node2&#45;&gt;Node8 -->
<g id="edge7_Node000002_Node000008" class="edge">
<title>Node2&#45;&gt;Node8</title>
<g id="a_edge7_Node000002_Node000008"><a xlink:title=" ">
<path fill="none" stroke="#63b8ff" d="M214.23,-56.58C221.2,-53.95 228.54,-51.01 235.25,-48 251.76,-40.6 254.83,-36.59 271.25,-29 274.33,-27.57 277.56,-26.15 280.81,-24.76"/>
<polygon fill="#63b8ff" stroke="#63b8ff" points="281.87,-28.11 289.76,-21.05 279.19,-21.64 281.87,-28.11"/>
</a>
</g>
</g>
<!-- Node5 -->
<g id="Node000005" class="node">
<title>Node5</title>
<g id="a_Node000005"><a xlink:href="_async_t_c_p_8cpp.html#a42bebdded16714188a8e554237aad2f3" target="_top" xlink:title=" ">
<polygon fill="white" stroke="#666666" points="520.75,-96 404.25,-96 404.25,-76 520.75,-76 520.75,-96"/>
<text xml:space="preserve" text-anchor="middle" x="462.5" y="-82.5" font-family="Helvetica,sans-Serif" font-size="10.00">_prepend_async_event</text>
</a>
</g>
</g>
<!-- Node4&#45;&gt;Node5 -->
<g id="edge4_Node000004_Node000005" class="edge">
<title>Node4&#45;&gt;Node5</title>
<g id="a_edge4_Node000004_Node000005"><a xlink:title=" ">
<path fill="none" stroke="#63b8ff" d="M367.62,-86C375.64,-86 384.13,-86 392.59,-86"/>
<polygon fill="#63b8ff" stroke="#63b8ff" points="392.55,-89.5 402.55,-86 392.55,-82.5 392.55,-89.5"/>
</a>
</g>
</g>
<!-- Node7 -->
<g id="Node000007" class="node">
<title>Node7</title>
<g id="a_Node000007"><a xlink:href="_async_t_c_p_8cpp.html#a7c4346c7dec98a175f7b96b03873839a" target="_top" xlink:title=" ">
<polygon fill="white" stroke="#666666" points="503.12,-58 421.88,-58 421.88,-38 503.12,-38 503.12,-58"/>
<text xml:space="preserve" text-anchor="middle" x="462.5" y="-44.5" font-family="Helvetica,sans-Serif" font-size="10.00">_tcp_close_api</text>
</a>
</g>
</g>
<!-- Node6&#45;&gt;Node7 -->
<g id="edge6_Node000006_Node000007" class="edge">
<title>Node6&#45;&gt;Node7</title>
<g id="a_edge6_Node000006_Node000007"><a xlink:title=" ">
<path fill="none" stroke="#63b8ff" d="M351.64,-48C368.82,-48 390.65,-48 410.31,-48"/>
<polygon fill="#63b8ff" stroke="#63b8ff" points="410.07,-51.5 420.07,-48 410.07,-44.5 410.07,-51.5"/>
</a>
</g>
</g>
<!-- Node9 -->
<g id="Node000009" class="node">
<title>Node9</title>
<g id="a_Node000009"><a xlink:href="_async_t_c_p_8cpp.html#a3e2474b46f6a3f01db216511d2bcfc4c" target="_top" xlink:title=" ">
<polygon fill="#fff0f0" stroke="red" points="493.38,-20 431.62,-20 431.62,0 493.38,0 493.38,-20"/>
<text xml:space="preserve" text-anchor="middle" x="462.5" y="-6.5" font-family="Helvetica,sans-Serif" font-size="10.00">_tcp_abort</text>
</a>
</g>
</g>
<!-- Node8&#45;&gt;Node9 -->
<g id="edge8_Node000008_Node000009" class="edge">
<title>Node8&#45;&gt;Node9</title>
<g id="a_edge8_Node000008_Node000009"><a xlink:title=" ">
<path fill="none" stroke="#63b8ff" d="M368.4,-10C385.22,-10 403.97,-10 420.21,-10"/>
<polygon fill="#63b8ff" stroke="#63b8ff" points="420.02,-13.5 430.02,-10 420.02,-6.5 420.02,-13.5"/>
</a>
</g>
</g>
</g>
</svg>
