<?xml version="1.0" encoding="UTF-8" standalone="no"?>
<!DOCTYPE svg PUBLIC "-//W3C//DTD SVG 1.1//EN"
 "http://www.w3.org/Graphics/SVG/1.1/DTD/svg11.dtd">
<!-- Generated by graphviz version 14.1.2 (20260124.0452)
 -->
<!-- Title: AsyncClient::_s_error Pages: 1 -->
<!--zoomable 344 -->

<svg id="main" version="1.1" xmlns="http://www.w3.org/2000/svg" xmlns:xlink="http://www.w3.org/1999/xlink" xml:space="preserve" onload="init(evt)">

<style type="text/css"><![CDATA[
.node, .edge {opacity: 0.7;}
.node.selected, .edge.selected {opacity: 1;}
.edge:hover path { stroke: red; }
.edge:hover polygon { stroke: red; fill: red; }
]]></style>

<defs>
  <circle id="rim" cx="0" cy="0" r="7"/>
  <circle id="rim2" cx="0" cy="0" r="3.5"/>
  <g id="zoomPlus">
    <use xlink:href="#rim" fill="#404040"><set attributeName="fill" to="#808080" begin="zoomplus.mouseover" end="zoomplus.mouseout"/></use>
    <path d="M-4,0h8M0,-4v8" fill="none" stroke="white" stroke-width="1.5" pointer-events="none"/>
  </g>
  <g id="zoomMin">
    <use xlink:href="#rim" fill="#404040"><set attributeName="fill" to="#808080" begin="zoomminus.mouseover" end="zoomminus.mouseout"/></use>
    <path d="M-4,0h8" fill="none" stroke="white" stroke-width="1.5" pointer-events="none"/>
  </g>
  <g id="arrowUp" transform="translate(30 24)">
    <use xlink:href="#rim"/>
    <path pointer-events="none" fill="none" stroke="white" stroke-width="1.5" d="M0,-3.0v7 M-2.5,-0.5L0,-3.0L2.5,-0.5"/>
  </g>
  <g id="arrowRight" transform="rotate(90) translate(36 -43)">
    <use xlink:href="#rim"/>
    <path pointer-events="none" fill="none" stroke="white" stroke-width="1.5" d="M0,-3.0v7 M-2.5,-0.5L0,-3.0L2.5,-0.5"/>
  </g>
  <g id="arrowDown" transform="rotate(180) translate(-30 -48)">
    <use xlink:href="#rim"/>
    <path pointer-events="none" fill="none" stroke="white" stroke-width="1.5" d="M0,-3.0v7 M-2.5,-0.5L0,-3.0L2.5,-0.5"/>
  </g>
  <g id="arrowLeft" transform="rotate(270) translate(-36 17)">
    <use xlink:href="#rim"/>
    <path pointer-events="none" fill="none" stroke="white" stroke-width="1.5" d="M0,-3.0v7 M-2.5,-0.5L0,-3.0L2.5,-0.5"/>
  </g>
  <g id="resetDef">
    <use xlink:href="#rim2" fill="#404040"><set attributeName="fill" to="#808080" begin="reset.mouseover" end="reset.mouseout"/></use>
  </g>
</defs>
<script type="application/ecmascript">
var viewWidth = 720;
var viewHeight = 344;
var sectionId = 'dynsection-28';
</script>
<script type="application/ecmascript" xlink:href="svg.min.js"/>
<svg id="graph" class="graph">
<g id="viewport">
<title>AsyncClient::_s_error</title>
<!-- Node1 -->
<g id="Node000001" class="node">
<title>Node1</title>
<g id="a_Node000001"><a xlink:title=" ">
<polygon fill="#999999" stroke="#666666" points="110.5,-187.58 0,-187.58 0,-167.58 110.5,-167.58 110.5,-187.58"/>
<text xml:space="preserve" text-anchor="middle" x="55.25" y="-174.08" font-family="Helvetica,sans-Serif" font-size="10.00">AsyncClient::_s_error</text>
</a>
</g>
</g>
<!-- Node2 -->
<g id="Node000002" class="node">
<title>Node2</title>
<g id="a_Node000002"><a xlink:href="class_async_client.html#a5145b1cfe1a49ba9a066eee404013835" target="_top" xlink:title=" ">
<polygon fill="white" stroke="#666666" points="260.75,-269.58 160.75,-269.58 160.75,-249.58 260.75,-249.58 260.75,-269.58"/>
<text xml:space="preserve" text-anchor="middle" x="210.75" y="-256.08" font-family="Helvetica,sans-Serif" font-size="10.00">AsyncClient::_error</text>
</a>
</g>
</g>
<!-- Node1&#45;&gt;Node2 -->
<g id="edge1_Node000001_Node000002" class="edge">
<title>Node1&#45;&gt;Node2</title>
<g id="a_edge1_Node000001_Node000002"><a xlink:title=" ">
<path fill="none" stroke="#63b8ff" d="M75.69,-187.96C102.1,-202.07 149.55,-227.42 180.34,-243.87"/>
<polygon fill="#63b8ff" stroke="#63b8ff" points="178.66,-246.94 189.13,-248.56 181.96,-240.77 178.66,-246.94"/>
</a>
</g>
</g>
<!-- Node4 -->
<g id="Node000004" class="node">
<title>Node4</title>
<g id="a_Node000004"><a xlink:href="class_async_client.html#aefecfa0c75c8c1b32104115e93739087" target="_top" xlink:title=" ">
<polygon fill="white" stroke="#666666" points="275,-168.58 146.5,-168.58 146.5,-148.58 275,-148.58 275,-168.58"/>
<text xml:space="preserve" text-anchor="middle" x="210.75" y="-155.08" font-family="Helvetica,sans-Serif" font-size="10.00">AsyncClient::AsyncClient</text>
</a>
</g>
</g>
<!-- Node1&#45;&gt;Node4 -->
<g id="edge3_Node000001_Node000004" class="edge">
<title>Node1&#45;&gt;Node4</title>
<g id="a_edge3_Node000001_Node000004"><a xlink:title=" ">
<path fill="none" stroke="#63b8ff" d="M110.8,-170.83C118.59,-169.86 126.71,-168.86 134.81,-167.85"/>
<polygon fill="#63b8ff" stroke="#63b8ff" points="135.21,-171.33 144.7,-166.63 134.35,-164.39 135.21,-171.33"/>
</a>
</g>
</g>
<!-- Node3 -->
<g id="Node000003" class="node">
<title>Node3</title>
<g id="a_Node000003"><a xlink:href="class_async_client.html#aff6a2fbf261b25e1fcd35c11cce348a5" target="_top" xlink:title=" ">
<polygon fill="white" stroke="#666666" points="571.75,-335.58 474.75,-335.58 474.75,-303.58 571.75,-303.58 571.75,-335.58"/>
<text xml:space="preserve" text-anchor="start" x="482.75" y="-322.08" font-family="Helvetica,sans-Serif" font-size="10.00">AsyncClient::_free</text>
<text xml:space="preserve" text-anchor="middle" x="523.25" y="-310.08" font-family="Helvetica,sans-Serif" font-size="10.00">_closed_slot</text>
</a>
</g>
</g>
<!-- Node2&#45;&gt;Node3 -->
<g id="edge2_Node000002_Node000003" class="edge">
<title>Node2&#45;&gt;Node3</title>
<g id="a_edge2_Node000002_Node000003"><a xlink:title=" ">
<path fill="none" stroke="#63b8ff" d="M230.09,-270.01C249.51,-280.49 281.39,-296.13 311,-303.58 361.32,-316.24 420.33,-319.8 463.17,-320.45"/>
<polygon fill="#63b8ff" stroke="#63b8ff" points="462.98,-323.95 473.01,-320.55 463.05,-316.95 462.98,-323.95"/>
</a>
</g>
</g>
<!-- Node5 -->
<g id="Node000005" class="node">
<title>Node5</title>
<g id="a_Node000005"><a xlink:href="class_async_client.html#ab0422e5254ea4fbac9f87188a018ebc4" target="_top" xlink:title=" ">
<polygon fill="white" stroke="#666666" points="425.25,-294.58 311,-294.58 311,-262.58 425.25,-262.58 425.25,-294.58"/>
<text xml:space="preserve" text-anchor="start" x="319" y="-281.08" font-family="Helvetica,sans-Serif" font-size="10.00">AsyncClient::_allocate</text>
<text xml:space="preserve" text-anchor="middle" x="368.12" y="-269.08" font-family="Helvetica,sans-Serif" font-size="10.00">_closed_slot</text>
</a>
</g>
</g>
<!-- Node4&#45;&gt;Node5 -->
<g id="edge4_Node000004_Node000005" class="edge">
<title>Node4&#45;&gt;Node5</title>
<g id="a_edge4_Node000004_Node000005"><a xlink:title=" ">
<path fill="none" stroke="#63b8ff" d="M220.38,-168.93C236.54,-187.8 273.18,-228.18 311,-253.58 312.58,-254.64 314.22,-255.68 315.89,-256.69"/>
<polygon fill="#63b8ff" stroke="#63b8ff" points="314.01,-259.64 324.45,-261.41 317.39,-253.52 314.01,-259.64"/>
</a>
</g>
</g>
<!-- Node6 -->
<g id="Node000006" class="node">
<title>Node6</title>
<g id="a_Node000006"><a xlink:href="class_async_client.html#a98ff872bc84919f006f3bb8a249ed36d" target="_top" xlink:title=" ">
<polygon fill="white" stroke="#666666" points="420,-244.58 316.25,-244.58 316.25,-224.58 420,-224.58 420,-244.58"/>
<text xml:space="preserve" text-anchor="middle" x="368.12" y="-231.08" font-family="Helvetica,sans-Serif" font-size="10.00">AsyncClient::_close</text>
</a>
</g>
</g>
<!-- Node4&#45;&gt;Node6 -->
<g id="edge5_Node000004_Node000006" class="edge">
<title>Node4&#45;&gt;Node6</title>
<g id="a_edge5_Node000004_Node000006"><a xlink:title=" ">
<path fill="none" stroke="#63b8ff" d="M227.74,-169.07C246.94,-181.35 280.39,-201.77 311,-215.58 314.58,-217.19 318.34,-218.75 322.14,-220.23"/>
<polygon fill="#63b8ff" stroke="#63b8ff" points="320.86,-223.49 331.46,-223.65 323.28,-216.92 320.86,-223.49"/>
</a>
</g>
</g>
<!-- Node14 -->
<g id="Node000014" class="node">
<title>Node14</title>
<g id="a_Node000014"><a xlink:href="_async_t_c_p_8cpp.html#a61ff9f7f886bbbbcdc1daca453828934" target="_top" xlink:title=" ">
<polygon fill="white" stroke="#666666" points="397.88,-206.58 338.38,-206.58 338.38,-186.58 397.88,-186.58 397.88,-206.58"/>
<text xml:space="preserve" text-anchor="middle" x="368.12" y="-193.08" font-family="Helvetica,sans-Serif" font-size="10.00">_tcp_error</text>
</a>
</g>
</g>
<!-- Node4&#45;&gt;Node14 -->
<g id="edge10_Node000004_Node000014" class="edge">
<title>Node4&#45;&gt;Node14</title>
<g id="a_edge10_Node000004_Node000014"><a xlink:title=" ">
<path fill="none" stroke="#63b8ff" d="M254.62,-169.06C277.26,-174.6 304.88,-181.35 327.08,-186.79"/>
<polygon fill="#63b8ff" stroke="#63b8ff" points="326.13,-190.16 336.67,-189.13 327.79,-183.36 326.13,-190.16"/>
</a>
</g>
</g>
<!-- Node16 -->
<g id="Node000016" class="node">
<title>Node16</title>
<g id="a_Node000016"><a xlink:href="_async_t_c_p_8cpp.html#ad4b2c6c935c211eef5884f25a950e445" target="_top" xlink:title=" ">
<polygon fill="white" stroke="#666666" points="395.62,-168.58 340.62,-168.58 340.62,-148.58 395.62,-148.58 395.62,-168.58"/>
<text xml:space="preserve" text-anchor="middle" x="368.12" y="-155.08" font-family="Helvetica,sans-Serif" font-size="10.00">_tcp_poll</text>
</a>
</g>
</g>
<!-- Node4&#45;&gt;Node16 -->
<g id="edge12_Node000004_Node000016" class="edge">
<title>Node4&#45;&gt;Node16</title>
<g id="a_edge12_Node000004_Node000016"><a xlink:title=" ">
<path fill="none" stroke="#63b8ff" d="M275.4,-158.58C293.6,-158.58 312.88,-158.58 329.03,-158.58"/>
<polygon fill="#63b8ff" stroke="#63b8ff" points="328.67,-162.08 338.67,-158.58 328.67,-155.08 328.67,-162.08"/>
</a>
</g>
</g>
<!-- Node17 -->
<g id="Node000017" class="node">
<title>Node17</title>
<g id="a_Node000017"><a xlink:href="_async_t_c_p_8cpp.html#adf7826424bf5b1035c4850f6b3307686" target="_top" xlink:title=" ">
<polygon fill="white" stroke="#666666" points="397.5,-92.58 338.75,-92.58 338.75,-72.58 397.5,-72.58 397.5,-92.58"/>
<text xml:space="preserve" text-anchor="middle" x="368.12" y="-79.08" font-family="Helvetica,sans-Serif" font-size="10.00">_tcp_recv</text>
</a>
</g>
</g>
<!-- Node4&#45;&gt;Node17 -->
<g id="edge14_Node000004_Node000017" class="edge">
<title>Node4&#45;&gt;Node17</title>
<g id="a_edge14_Node000004_Node000017"><a xlink:title=" ">
<path fill="none" stroke="#63b8ff" d="M227.74,-148.09C246.94,-135.81 280.39,-115.39 311,-101.58 316.31,-99.18 322.03,-96.91 327.7,-94.84"/>
<polygon fill="#63b8ff" stroke="#63b8ff" points="328.72,-98.19 337.02,-91.59 326.42,-91.58 328.72,-98.19"/>
</a>
</g>
</g>
<!-- Node20 -->
<g id="Node000020" class="node">
<title>Node20</title>
<g id="a_Node000020"><a xlink:href="class_async_client.html#ac0c28dd08517243bc6d64d32f982a3cc" target="_top" xlink:title=" ">
<polygon fill="white" stroke="#666666" points="712.25,-35.58 621.25,-35.58 621.25,-15.58 712.25,-15.58 712.25,-35.58"/>
<text xml:space="preserve" text-anchor="middle" x="666.75" y="-22.08" font-family="Helvetica,sans-Serif" font-size="10.00">AsyncClient::pcb</text>
</a>
</g>
</g>
<!-- Node4&#45;&gt;Node20 -->
<g id="edge21_Node000004_Node000020" class="edge">
<title>Node4&#45;&gt;Node20</title>
<g id="a_edge21_Node000004_Node000020"><a xlink:title=" ">
<path fill="none" stroke="#63b8ff" d="M216.39,-148.25C228.13,-123.55 261.57,-61.26 311,-35.58 406.49,14.03 536.81,0.6 609.98,-12.94"/>
<polygon fill="#63b8ff" stroke="#63b8ff" points="609.26,-16.36 619.74,-14.82 610.58,-9.49 609.26,-16.36"/>
</a>
</g>
</g>
<!-- Node21 -->
<g id="Node000021" class="node">
<title>Node21</title>
<g id="a_Node000021"><a xlink:href="_async_t_c_p_8cpp.html#a0b47280aff638ec9b80f7a87dfe54ea6" target="_top" xlink:title=" ">
<polygon fill="white" stroke="#666666" points="397.5,-130.58 338.75,-130.58 338.75,-110.58 397.5,-110.58 397.5,-130.58"/>
<text xml:space="preserve" text-anchor="middle" x="368.12" y="-117.08" font-family="Helvetica,sans-Serif" font-size="10.00">_tcp_sent</text>
</a>
</g>
</g>
<!-- Node4&#45;&gt;Node21 -->
<g id="edge19_Node000004_Node000021" class="edge">
<title>Node4&#45;&gt;Node21</title>
<g id="a_edge19_Node000004_Node000021"><a xlink:title=" ">
<path fill="none" stroke="#63b8ff" d="M254.62,-148.09C277.41,-142.52 305.25,-135.71 327.53,-130.26"/>
<polygon fill="#63b8ff" stroke="#63b8ff" points="328.27,-133.69 337.15,-127.91 326.6,-126.89 328.27,-133.69"/>
</a>
</g>
</g>
<!-- Node6&#45;&gt;Node3 -->
<g id="edge6_Node000006_Node000003" class="edge">
<title>Node6&#45;&gt;Node3</title>
<g id="a_edge6_Node000006_Node000003"><a xlink:title=" ">
<path fill="none" stroke="#63b8ff" d="M408.01,-244.97C414.01,-247.35 419.96,-250.2 425.25,-253.58 444.84,-266.12 442.33,-278.04 461.25,-291.58 464.23,-293.72 467.41,-295.75 470.68,-297.68"/>
<polygon fill="#63b8ff" stroke="#63b8ff" points="468.91,-300.7 479.36,-302.4 472.25,-294.55 468.91,-300.7"/>
</a>
</g>
</g>
<!-- Node7 -->
<g id="Node000007" class="node">
<title>Node7</title>
<g id="a_Node000007"><a xlink:href="_async_t_c_p_8cpp.html#ab053d5adb5be879f37181af512213bb6" target="_top" xlink:title=" ">
<polygon fill="#fff0f0" stroke="red" points="571,-282.58 475.5,-282.58 475.5,-262.58 571,-262.58 571,-282.58"/>
<text xml:space="preserve" text-anchor="middle" x="523.25" y="-269.08" font-family="Helvetica,sans-Serif" font-size="10.00">_tcp_clear_events</text>
</a>
</g>
</g>
<!-- Node6&#45;&gt;Node7 -->
<g id="edge7_Node000006_Node000007" class="edge">
<title>Node6&#45;&gt;Node7</title>
<g id="a_edge7_Node000006_Node000007"><a xlink:title=" ">
<path fill="none" stroke="#63b8ff" d="M411.37,-245.06C429.2,-249.49 450.15,-254.69 469.01,-259.37"/>
<polygon fill="#63b8ff" stroke="#63b8ff" points="468.12,-262.75 478.67,-261.76 469.81,-255.96 468.12,-262.75"/>
</a>
</g>
</g>
<!-- Node9 -->
<g id="Node000009" class="node">
<title>Node9</title>
<g id="a_Node000009"><a xlink:href="_async_t_c_p_8cpp.html#a3602c1ebfae2fb2ff64a0e3d7b0568ce" target="_top" xlink:title=" ">
<polygon fill="#fff0f0" stroke="red" points="554.88,-244.58 491.62,-244.58 491.62,-224.58 554.88,-224.58 554.88,-244.58"/>
<text xml:space="preserve" text-anchor="middle" x="523.25" y="-231.08" font-family="Helvetica,sans-Serif" font-size="10.00">_tcp_close</text>
</a>
</g>
</g>
<!-- Node6&#45;&gt;Node9 -->
<g id="edge8_Node000006_Node000009" class="edge">
<title>Node6&#45;&gt;Node9</title>
<g id="a_edge8_Node000006_Node000009"><a xlink:title=" ">
<path fill="none" stroke="#63b8ff" d="M420.11,-234.58C439.62,-234.58 461.62,-234.58 480.2,-234.58"/>
<polygon fill="#63b8ff" stroke="#63b8ff" points="480.05,-238.08 490.05,-234.58 480.05,-231.08 480.05,-238.08"/>
</a>
</g>
</g>
<!-- Node11 -->
<g id="Node000011" class="node">
<title>Node11</title>
<g id="a_Node000011"><a xlink:href="class_async_client.html#a09e777ff005d8e0f81166e704dc14979" target="_top" xlink:title=" ">
<polygon fill="#fff0f0" stroke="red" points="571.75,-206.58 474.75,-206.58 474.75,-186.58 571.75,-186.58 571.75,-206.58"/>
<text xml:space="preserve" text-anchor="middle" x="523.25" y="-193.08" font-family="Helvetica,sans-Serif" font-size="10.00">AsyncClient::abort</text>
</a>
</g>
</g>
<!-- Node6&#45;&gt;Node11 -->
<g id="edge9_Node000006_Node000011" class="edge">
<title>Node6&#45;&gt;Node11</title>
<g id="a_edge9_Node000006_Node000011"><a xlink:title=" ">
<path fill="none" stroke="#63b8ff" d="M411.37,-224.09C429.2,-219.67 450.15,-214.47 469.01,-209.79"/>
<polygon fill="#63b8ff" stroke="#63b8ff" points="469.81,-213.2 478.67,-207.39 468.12,-206.41 469.81,-213.2"/>
</a>
</g>
</g>
<!-- Node15 -->
<g id="Node000015" class="node">
<title>Node15</title>
<g id="a_Node000015"><a xlink:href="_async_t_c_p_8cpp.html#a796c13746a84a6b2e7370ddbec97ad5b" target="_top" xlink:title=" ">
<polygon fill="white" stroke="#666666" points="574.75,-149.58 471.75,-149.58 471.75,-129.58 574.75,-129.58 574.75,-149.58"/>
<text xml:space="preserve" text-anchor="middle" x="523.25" y="-136.08" font-family="Helvetica,sans-Serif" font-size="10.00">_send_async_event</text>
</a>
</g>
</g>
<!-- Node14&#45;&gt;Node15 -->
<g id="edge11_Node000014_Node000015" class="edge">
<title>Node14&#45;&gt;Node15</title>
<g id="a_edge11_Node000014_Node000015"><a xlink:title=" ">
<path fill="none" stroke="#63b8ff" d="M398.35,-186.98C407.03,-184.04 416.55,-180.75 425.25,-177.58 445.37,-170.24 467.63,-161.56 485.75,-154.35"/>
<polygon fill="#63b8ff" stroke="#63b8ff" points="487.05,-157.6 495.03,-150.63 484.45,-151.1 487.05,-157.6"/>
</a>
</g>
</g>
<!-- Node16&#45;&gt;Node15 -->
<g id="edge13_Node000016_Node000015" class="edge">
<title>Node16&#45;&gt;Node15</title>
<g id="a_edge13_Node000016_Node000015"><a xlink:title=" ">
<path fill="none" stroke="#63b8ff" d="M395.8,-155.27C413.61,-153.06 437.8,-150.06 460.26,-147.27"/>
<polygon fill="#63b8ff" stroke="#63b8ff" points="460.46,-150.77 469.95,-146.07 459.6,-143.83 460.46,-150.77"/>
</a>
</g>
</g>
<!-- Node17&#45;&gt;Node15 -->
<g id="edge18_Node000017_Node000015" class="edge">
<title>Node17&#45;&gt;Node15</title>
<g id="a_edge18_Node000017_Node000015"><a xlink:title=" ">
<path fill="none" stroke="#63b8ff" d="M397.77,-91.99C406.61,-94.97 416.36,-98.33 425.25,-101.58 445.37,-108.92 467.63,-117.6 485.75,-124.81"/>
<polygon fill="#63b8ff" stroke="#63b8ff" points="484.45,-128.06 495.03,-128.52 487.05,-121.56 484.45,-128.06"/>
</a>
</g>
</g>
<!-- Node18 -->
<g id="Node000018" class="node">
<title>Node18</title>
<g id="a_Node000018"><a xlink:href="class_async_client.html#a485b2be0c01d3172928c0ed9655edc2f" target="_top" xlink:title=" ">
<polygon fill="#fff0f0" stroke="red" points="585.25,-54.58 461.25,-54.58 461.25,-34.58 585.25,-34.58 585.25,-54.58"/>
<text xml:space="preserve" text-anchor="middle" x="523.25" y="-41.08" font-family="Helvetica,sans-Serif" font-size="10.00">AsyncClient::_s_lwip_fin</text>
</a>
</g>
</g>
<!-- Node17&#45;&gt;Node18 -->
<g id="edge15_Node000017_Node000018" class="edge">
<title>Node17&#45;&gt;Node18</title>
<g id="a_edge15_Node000017_Node000018"><a xlink:title=" ">
<path fill="none" stroke="#63b8ff" d="M397.93,-75.43C417.9,-70.48 445.08,-63.73 468.94,-57.81"/>
<polygon fill="#63b8ff" stroke="#63b8ff" points="469.65,-61.24 478.51,-55.43 467.96,-54.44 469.65,-61.24"/>
</a>
</g>
</g>
<!-- Node18&#45;&gt;Node4 -->
<g id="edge16_Node000018_Node000004" class="edge">
<title>Node18&#45;&gt;Node4</title>
<g id="a_edge16_Node000018_Node000004"><a xlink:title=" ">
<path fill="none" stroke="#63b8ff" d="M460.81,-39.62C417.13,-38.54 358.1,-42.17 311,-63.58 274.12,-80.34 242.48,-116.69 225.37,-139.24"/>
<polygon fill="#63b8ff" stroke="#63b8ff" points="222.75,-136.89 219.65,-147.03 228.39,-141.04 222.75,-136.89"/>
</a>
</g>
</g>
<!-- Node18&#45;&gt;Node20 -->
<g id="edge17_Node000018_Node000020" class="edge">
<title>Node18&#45;&gt;Node20</title>
<g id="a_edge17_Node000018_Node000020"><a xlink:title=" ">
<path fill="none" stroke="#63b8ff" d="M585.49,-36.36C593.52,-35.28 601.72,-34.18 609.65,-33.11"/>
<polygon fill="#63b8ff" stroke="#63b8ff" points="610.11,-36.58 619.55,-31.78 609.17,-29.64 610.11,-36.58"/>
</a>
</g>
</g>
<!-- Node21&#45;&gt;Node15 -->
<g id="edge20_Node000021_Node000015" class="edge">
<title>Node21&#45;&gt;Node15</title>
<g id="a_edge20_Node000021_Node000015"><a xlink:title=" ">
<path fill="none" stroke="#63b8ff" d="M397.93,-124.15C415.4,-126.32 438.41,-129.18 459.88,-131.84"/>
<polygon fill="#63b8ff" stroke="#63b8ff" points="459.4,-135.31 469.76,-133.07 460.26,-128.36 459.4,-135.31"/>
</a>
</g>
</g>
</g>
</svg>

<g id="navigator" transform="translate(0 0)" fill="#404254">
  <rect fill="#f2f5e9" fill-opacity="0.5" stroke="#606060" stroke-width=".5" x="0" y="0" width="60" height="60"/>
  <use id="zoomplus" xlink:href="#zoomPlus" x="17" y="9" onmousedown="handleZoom(evt,'in')"/>
  <use id="zoomminus" xlink:href="#zoomMin" x="42" y="9" onmousedown="handleZoom(evt,'out')"/>
  <use id="reset" xlink:href="#resetDef" x="30" y="36" onmousedown="handleReset()"/>
   <use id="arrowup" xlink:href="#arrowUp" x="0" y="0" onmousedown="handlePan(0,-1)"/>
  <use id="arrowright" xlink:href="#arrowRight" x="0" y="0" onmousedown="handlePan(1,0)"/>
  <use id="arrowdown" xlink:href="#arrowDown" x="0" y="0" onmousedown="handlePan(0,1)"/>
  <use id="arrowleft" xlink:href="#arrowLeft" x="0" y="0" onmousedown="handlePan(-1,0)"/>
</g>
<svg viewBox="0 0 15 15" width="100%" height="30px" preserveAspectRatio="xMaxYMin meet">
 <g id="arrow_out" transform="scale(0.3 0.3)">
  <a xlink:href="class_async_client_a9ff634e3b1237eab65178b007326367e_cgraph_org.svg" target="_base">
   <rect id="button" ry="5" rx="5" y="6" x="6" height="38" width="38"
        fill="#f2f5e9" fill-opacity="0.5" stroke="#606060" stroke-width="1.0"/>
   <path id="arrow"
     d="M 11.500037,31.436501 C 11.940474,20.09759 22.043105,11.32322 32.158766,21.979434 L 37.068811,17.246167 C 37.068811,17.246167 37.088388,32 37.088388,32 L 22.160133,31.978069 C 22.160133,31.978069 26.997745,27.140456 26.997745,27.140456 C 18.528582,18.264221 13.291696,25.230495 11.500037,31.436501 z"
     style="fill:#404040;"/>
  </a>
 </g>
</svg>

<style type='text/css'>
<![CDATA[
[data-mouse-over-selected='false'] { opacity: 0.7; }
[data-mouse-over-selected='true']  { opacity: 1.0; }
]]>
</style>
<script type="application/ecmascript"><![CDATA[
document.addEventListener('DOMContentLoaded', (event) => {
  highlightEdges();
  highlightAdjacentNodes();
});
]]></script>
</svg>
