<?xml version="1.0" encoding="UTF-8" standalone="no"?>
<!DOCTYPE svg PUBLIC "-//W3C//DTD SVG 1.1//EN"
 "http://www.w3.org/Graphics/SVG/1.1/DTD/svg11.dtd">
<!-- Generated by graphviz version 14.1.2 (20260124.0452)
 -->
<!-- Title: AsyncClient::close Pages: 1 -->
<svg width="379pt" height="104pt"
 viewBox="0.00 0.00 379.00 104.00" xmlns="http://www.w3.org/2000/svg" xmlns:xlink="http://www.w3.org/1999/xlink">

<svg id="main" version="1.1" xmlns="http://www.w3.org/2000/svg" xmlns:xlink="http://www.w3.org/1999/xlink" xml:space="preserve">

<style type="text/css"><![CDATA[
.node, .edge {opacity: 0.7;}
.node.selected, .edge.selected {opacity: 1;}
.edge:hover path { stroke: red; }
.edge:hover polygon { stroke: red; fill: red; }
]]></style>
<script type="application/ecmascript" xlink:href="svg.min.js"/>
<svg id="graph" class="graph">
<g id="graph0" class="graph" transform="scale(1 1) rotate(0) translate(4 100)">
<title>AsyncClient::close</title>
<!-- Node1 -->
<g id="Node000001" class="node">
<title>Node1</title>
<g id="a_Node000001"><a xlink:title="close connection">
<polygon fill="#999999" stroke="#666666" points="370.5,-58 272,-58 272,-38 370.5,-38 370.5,-58"/>
<text xml:space="preserve" text-anchor="middle" x="321.25" y="-44.5" font-family="Helvetica,sans-Serif" font-size="10.00">AsyncClient::close</text>
</a>
</g>
</g>
<!-- Node2 -->
<g id="Node000002" class="node">
<title>Node2</title>
<g id="a_Node000002"><a xlink:href="class_async_telnet.html#a77dcd8e31b8bfb8b3082de385c5e7792" target="_top" xlink:title=" ">
<polygon fill="white" stroke="#666666" points="236,-96 136.75,-96 136.75,-76 236,-76 236,-96"/>
<text xml:space="preserve" text-anchor="middle" x="186.38" y="-82.5" font-family="Helvetica,sans-Serif" font-size="10.00">AsyncTelnet::begin</text>
</a>
</g>
</g>
<!-- Node1&#45;&gt;Node2 -->
<g id="edge1_Node000001_Node000002" class="edge">
<title>Node1&#45;&gt;Node2</title>
<g id="a_edge1_Node000001_Node000002"><a xlink:title=" ">
<path fill="none" stroke="#63b8ff" d="M272.77,-61.58C256.7,-66.18 239.01,-71.23 223.92,-75.55"/>
<polygon fill="#63b8ff" stroke="#63b8ff" points="273.48,-65.02 282.13,-58.9 271.56,-58.29 273.48,-65.02"/>
</a>
</g>
</g>
<!-- Node3 -->
<g id="Node000003" class="node">
<title>Node3</title>
<g id="a_Node000003"><a xlink:href="class_async_telnet_serial.html#a6cf9d6cc49602ff5ac0ec2af846a0d7a" target="_top" xlink:title=" ">
<polygon fill="white" stroke="#666666" points="100.75,-83 0,-83 0,-51 100.75,-51 100.75,-83"/>
<text xml:space="preserve" text-anchor="start" x="8" y="-69.5" font-family="Helvetica,sans-Serif" font-size="10.00">AsyncTelnetSerial::</text>
<text xml:space="preserve" text-anchor="middle" x="50.38" y="-57.5" font-family="Helvetica,sans-Serif" font-size="10.00">begin</text>
</a>
</g>
</g>
<!-- Node1&#45;&gt;Node3 -->
<g id="edge3_Node000001_Node000003" class="edge">
<title>Node1&#45;&gt;Node3</title>
<g id="a_edge3_Node000001_Node000003"><a xlink:title=" ">
<path fill="none" stroke="#63b8ff" d="M260.11,-52.25C212.22,-55.63 145.99,-60.31 101.07,-63.49"/>
<polygon fill="#63b8ff" stroke="#63b8ff" points="260.32,-55.74 270.05,-51.55 259.83,-48.76 260.32,-55.74"/>
</a>
</g>
</g>
<!-- Node4 -->
<g id="Node000004" class="node">
<title>Node4</title>
<g id="a_Node000004"><a xlink:href="class_async_client.html#a4bed4e925817d1b918af2ce43fb0859e" target="_top" xlink:title=" ">
<polygon fill="white" stroke="#666666" points="233.38,-20 139.38,-20 139.38,0 233.38,0 233.38,-20"/>
<text xml:space="preserve" text-anchor="middle" x="186.38" y="-6.5" font-family="Helvetica,sans-Serif" font-size="10.00">AsyncClient::stop</text>
</a>
</g>
</g>
<!-- Node1&#45;&gt;Node4 -->
<g id="edge4_Node000001_Node000004" class="edge">
<title>Node1&#45;&gt;Node4</title>
<g id="a_edge4_Node000001_Node000004"><a xlink:title=" ">
<path fill="none" stroke="#63b8ff" d="M272.77,-34.42C256.7,-29.82 239.01,-24.77 223.92,-20.45"/>
<polygon fill="#63b8ff" stroke="#63b8ff" points="271.56,-37.71 282.13,-37.1 273.48,-30.98 271.56,-37.71"/>
</a>
</g>
</g>
<!-- Node2&#45;&gt;Node3 -->
<g id="edge2_Node000002_Node000003" class="edge">
<title>Node2&#45;&gt;Node3</title>
<g id="a_edge2_Node000002_Node000003"><a xlink:title=" ">
<path fill="none" stroke="#63b8ff" d="M125.35,-77.49C117.29,-76.35 109.08,-75.18 101.22,-74.07"/>
<polygon fill="#63b8ff" stroke="#63b8ff" points="124.73,-80.94 135.12,-78.87 125.71,-74.01 124.73,-80.94"/>
</a>
</g>
</g>
</g>
</svg>
</svg>

<style type='text/css'>
<![CDATA[
[data-mouse-over-selected='false'] { opacity: 0.7; }
[data-mouse-over-selected='true']  { opacity: 1.0; }
]]>
</style>
<script type="application/ecmascript"><![CDATA[
document.addEventListener('DOMContentLoaded', (event) => {
  highlightEdges();
  highlightAdjacentNodes();
});
]]></script>
</svg>
