<?xml version="1.0" encoding="UTF-8" standalone="no"?>
<!DOCTYPE svg PUBLIC "-//W3C//DTD SVG 1.1//EN"
 "http://www.w3.org/Graphics/SVG/1.1/DTD/svg11.dtd">
<!-- Generated by graphviz version 14.1.2 (20260124.0452)
 -->
<!-- Title: AsyncClient::connect Pages: 1 -->
<svg width="741pt" height="404pt"
 viewBox="0.00 0.00 741.00 404.00" xmlns="http://www.w3.org/2000/svg" xmlns:xlink="http://www.w3.org/1999/xlink">
<g id="graph0" class="graph" transform="scale(1 1) rotate(0) translate(4 400.02)">
<title>AsyncClient::connect</title>
<!-- Node1 -->
<g id="Node000001" class="node">
<title>Node1</title>
<g id="a_Node000001"><a xlink:title=" ">
<polygon fill="#999999" stroke="#666666" points="109.75,-194.02 0,-194.02 0,-174.02 109.75,-174.02 109.75,-194.02"/>
<text xml:space="preserve" text-anchor="middle" x="54.88" y="-180.52" font-family="Helvetica,sans-Serif" font-size="10.00">AsyncClient::connect</text>
</a>
</g>
</g>
<!-- Node2 -->
<g id="Node000002" class="node">
<title>Node2</title>
<g id="a_Node000002"><a xlink:href="class_async_client.html#a758eaca983e03027c99003a5808883f8" target="_top" xlink:title=" ">
<polygon fill="white" stroke="#666666" points="406.5,-194.02 291.5,-194.02 291.5,-174.02 406.5,-174.02 406.5,-194.02"/>
<text xml:space="preserve" text-anchor="middle" x="349" y="-180.52" font-family="Helvetica,sans-Serif" font-size="10.00">AsyncClient::_connect</text>
</a>
</g>
</g>
<!-- Node1&#45;&gt;Node2 -->
<g id="edge1_Node000001_Node000002" class="edge">
<title>Node1&#45;&gt;Node2</title>
<g id="a_edge1_Node000001_Node000002"><a xlink:title=" ">
<path fill="none" stroke="#63b8ff" d="M110.14,-184.02C158,-184.02 227.97,-184.02 279.64,-184.02"/>
<polygon fill="#63b8ff" stroke="#63b8ff" points="279.52,-187.52 289.52,-184.02 279.52,-180.52 279.52,-187.52"/>
</a>
</g>
</g>
<!-- Node4 -->
<g id="Node000004" class="node">
<title>Node4</title>
<g id="a_Node000004"><a xlink:href="_async_t_c_p_8cpp.html#a4d0de407bcfcc96b61af40aca3156708" target="_top" xlink:title=" ">
<polygon fill="white" stroke="#666666" points="547.75,-358.02 451.5,-358.02 451.5,-338.02 547.75,-338.02 547.75,-358.02"/>
<text xml:space="preserve" text-anchor="middle" x="499.62" y="-344.52" font-family="Helvetica,sans-Serif" font-size="10.00">_start_async_task</text>
</a>
</g>
</g>
<!-- Node1&#45;&gt;Node4 -->
<g id="edge20_Node000001_Node000004" class="edge">
<title>Node1&#45;&gt;Node4</title>
<g id="a_edge20_Node000001_Node000004"><a xlink:title=" ">
<path fill="none" stroke="#63b8ff" d="M82.95,-194.52C145.84,-218.83 306.78,-280.61 442.5,-329.02 446.97,-330.61 451.65,-332.25 456.32,-333.86"/>
<polygon fill="#63b8ff" stroke="#63b8ff" points="455.07,-337.13 465.67,-337.05 457.34,-330.51 455.07,-337.13"/>
</a>
</g>
</g>
<!-- Node52 -->
<g id="Node000052" class="node">
<title>Node52</title>
<g id="a_Node000052"><a xlink:href="_async_t_c_p_8cpp.html#a2dec6cedf1649c5b63519ccfd6f3a3fd" target="_top" xlink:title=" ">
<polygon fill="white" stroke="#666666" points="391.5,-32.02 306.5,-32.02 306.5,-12.02 391.5,-12.02 391.5,-32.02"/>
<text xml:space="preserve" text-anchor="middle" x="349" y="-18.52" font-family="Helvetica,sans-Serif" font-size="10.00">_tcp_dns_found</text>
</a>
</g>
</g>
<!-- Node1&#45;&gt;Node52 -->
<g id="edge21_Node000001_Node000052" class="edge">
<title>Node1&#45;&gt;Node52</title>
<g id="a_edge21_Node000001_Node000052"><a xlink:title=" ">
<path fill="none" stroke="#63b8ff" d="M74.59,-173.64C124.37,-146.03 260.24,-70.69 319.61,-37.76"/>
<polygon fill="#63b8ff" stroke="#63b8ff" points="321.07,-40.96 328.11,-33.05 317.67,-34.83 321.07,-40.96"/>
</a>
</g>
</g>
<!-- Node34 -->
<g id="Node000034" class="node">
<title>Node34</title>
<g id="a_Node000034"><a xlink:href="class_async_client.html#aaa5b952568c85d25c32d0dff8ec74794" target="_top" xlink:title=" ">
<polygon fill="white" stroke="#666666" points="255.5,-175.02 145.75,-175.02 145.75,-155.02 255.5,-155.02 255.5,-175.02"/>
<text xml:space="preserve" text-anchor="middle" x="200.62" y="-161.52" font-family="Helvetica,sans-Serif" font-size="10.00">AsyncClient::connect</text>
</a>
</g>
</g>
<!-- Node1&#45;&gt;Node34 -->
<g id="edge23_Node000001_Node000034" class="edge">
<title>Node1&#45;&gt;Node34</title>
<g id="a_edge23_Node000001_Node000034"><a xlink:title=" ">
<path fill="none" stroke="#63b8ff" d="M110.22,-176.83C118.11,-175.79 126.3,-174.71 134.38,-173.64"/>
<polygon fill="#63b8ff" stroke="#63b8ff" points="134.72,-177.13 144.18,-172.35 133.81,-170.19 134.72,-177.13"/>
</a>
</g>
</g>
<!-- Node3 -->
<g id="Node000003" class="node">
<title>Node3</title>
<g id="a_Node000003"><a xlink:href="class_async_client.html#ab0422e5254ea4fbac9f87188a018ebc4" target="_top" xlink:title=" ">
<polygon fill="white" stroke="#666666" points="556.75,-320.02 442.5,-320.02 442.5,-288.02 556.75,-288.02 556.75,-320.02"/>
<text xml:space="preserve" text-anchor="start" x="450.5" y="-306.52" font-family="Helvetica,sans-Serif" font-size="10.00">AsyncClient::_allocate</text>
<text xml:space="preserve" text-anchor="middle" x="499.62" y="-294.52" font-family="Helvetica,sans-Serif" font-size="10.00">_closed_slot</text>
</a>
</g>
</g>
<!-- Node2&#45;&gt;Node3 -->
<g id="edge2_Node000002_Node000003" class="edge">
<title>Node2&#45;&gt;Node3</title>
<g id="a_edge2_Node000002_Node000003"><a xlink:title=" ">
<path fill="none" stroke="#63b8ff" d="M357.89,-194.42C372.69,-213.36 406.43,-253.87 442.5,-279.02 444.03,-280.09 445.62,-281.13 447.25,-282.14"/>
<polygon fill="#63b8ff" stroke="#63b8ff" points="445.13,-284.96 455.56,-286.84 448.58,-278.87 445.13,-284.96"/>
</a>
</g>
</g>
<!-- Node2&#45;&gt;Node4 -->
<g id="edge3_Node000002_Node000004" class="edge">
<title>Node2&#45;&gt;Node4</title>
<g id="a_edge3_Node000002_Node000004"><a xlink:title=" ">
<path fill="none" stroke="#63b8ff" d="M355.89,-194.09C374.26,-225.34 429.98,-319.21 442.5,-329.02 444,-330.2 445.58,-331.3 447.22,-332.34"/>
<polygon fill="#63b8ff" stroke="#63b8ff" points="445.3,-335.28 455.77,-336.89 448.58,-329.1 445.3,-335.28"/>
</a>
</g>
</g>
<!-- Node49 -->
<g id="Node000049" class="node">
<title>Node49</title>
<g id="a_Node000049"><a xlink:href="_async_t_c_p_8cpp.html#a02f7e9cd68d729395c7794e07dfc1375" target="_top" xlink:title=" ">
<polygon fill="white" stroke="#666666" points="536.88,-270.02 462.38,-270.02 462.38,-250.02 536.88,-250.02 536.88,-270.02"/>
<text xml:space="preserve" text-anchor="middle" x="499.62" y="-256.52" font-family="Helvetica,sans-Serif" font-size="10.00">_tcp_connect</text>
</a>
</g>
</g>
<!-- Node2&#45;&gt;Node49 -->
<g id="edge7_Node000002_Node000049" class="edge">
<title>Node2&#45;&gt;Node49</title>
<g id="a_edge7_Node000002_Node000049"><a xlink:title=" ">
<path fill="none" stroke="#63b8ff" d="M364.48,-194.38C382.21,-206.72 413.48,-227.38 442.5,-241.02 445.85,-242.59 449.37,-244.1 452.94,-245.53"/>
<polygon fill="#63b8ff" stroke="#63b8ff" points="451.7,-248.8 462.29,-249.03 454.16,-242.25 451.7,-248.8"/>
</a>
</g>
</g>
<!-- Node51 -->
<g id="Node000051" class="node">
<title>Node51</title>
<g id="a_Node000051"><a xlink:href="_async_t_c_p_8cpp.html#aceddc1345284b96d9d3618c7b01ecede" target="_top" xlink:title=" ">
<polygon fill="white" stroke="#666666" points="542.12,-232.02 457.12,-232.02 457.12,-212.02 542.12,-212.02 542.12,-232.02"/>
<text xml:space="preserve" text-anchor="middle" x="499.62" y="-218.52" font-family="Helvetica,sans-Serif" font-size="10.00">_tcp_connected</text>
</a>
</g>
</g>
<!-- Node2&#45;&gt;Node51 -->
<g id="edge9_Node000002_Node000051" class="edge">
<title>Node2&#45;&gt;Node51</title>
<g id="a_edge9_Node000002_Node000051"><a xlink:title=" ">
<path fill="none" stroke="#63b8ff" d="M391.01,-194.5C408.23,-198.9 428.45,-204.08 446.7,-208.74"/>
<polygon fill="#63b8ff" stroke="#63b8ff" points="445.73,-212.11 456.29,-211.19 447.47,-205.32 445.73,-212.11"/>
</a>
</g>
</g>
<!-- Node25 -->
<g id="Node000025" class="node">
<title>Node25</title>
<g id="a_Node000025"><a xlink:href="_async_t_c_p_8cpp.html#a61ff9f7f886bbbbcdc1daca453828934" target="_top" xlink:title=" ">
<polygon fill="white" stroke="#666666" points="529.38,-194.02 469.88,-194.02 469.88,-174.02 529.38,-174.02 529.38,-194.02"/>
<text xml:space="preserve" text-anchor="middle" x="499.62" y="-180.52" font-family="Helvetica,sans-Serif" font-size="10.00">_tcp_error</text>
</a>
</g>
</g>
<!-- Node2&#45;&gt;Node25 -->
<g id="edge11_Node000002_Node000025" class="edge">
<title>Node2&#45;&gt;Node25</title>
<g id="a_edge11_Node000002_Node000025"><a xlink:title=" ">
<path fill="none" stroke="#63b8ff" d="M406.61,-184.02C423.91,-184.02 442.56,-184.02 458.52,-184.02"/>
<polygon fill="#63b8ff" stroke="#63b8ff" points="458.1,-187.52 468.1,-184.02 458.1,-180.52 458.1,-187.52"/>
</a>
</g>
</g>
<!-- Node27 -->
<g id="Node000027" class="node">
<title>Node27</title>
<g id="a_Node000027"><a xlink:href="_async_t_c_p_8cpp.html#ad4b2c6c935c211eef5884f25a950e445" target="_top" xlink:title=" ">
<polygon fill="white" stroke="#666666" points="527.12,-156.02 472.12,-156.02 472.12,-136.02 527.12,-136.02 527.12,-156.02"/>
<text xml:space="preserve" text-anchor="middle" x="499.62" y="-142.52" font-family="Helvetica,sans-Serif" font-size="10.00">_tcp_poll</text>
</a>
</g>
</g>
<!-- Node2&#45;&gt;Node27 -->
<g id="edge13_Node000002_Node000027" class="edge">
<title>Node2&#45;&gt;Node27</title>
<g id="a_edge13_Node000002_Node000027"><a xlink:title=" ">
<path fill="none" stroke="#63b8ff" d="M391.01,-173.53C412.86,-167.95 439.55,-161.12 460.88,-155.67"/>
<polygon fill="#63b8ff" stroke="#63b8ff" points="461.52,-159.12 470.34,-153.25 459.79,-152.33 461.52,-159.12"/>
</a>
</g>
</g>
<!-- Node28 -->
<g id="Node000028" class="node">
<title>Node28</title>
<g id="a_Node000028"><a xlink:href="_async_t_c_p_8cpp.html#adf7826424bf5b1035c4850f6b3307686" target="_top" xlink:title=" ">
<polygon fill="#fff0f0" stroke="red" points="529,-118.02 470.25,-118.02 470.25,-98.02 529,-98.02 529,-118.02"/>
<text xml:space="preserve" text-anchor="middle" x="499.62" y="-104.52" font-family="Helvetica,sans-Serif" font-size="10.00">_tcp_recv</text>
</a>
</g>
</g>
<!-- Node2&#45;&gt;Node28 -->
<g id="edge15_Node000002_Node000028" class="edge">
<title>Node2&#45;&gt;Node28</title>
<g id="a_edge15_Node000002_Node000028"><a xlink:title=" ">
<path fill="none" stroke="#63b8ff" d="M364.48,-173.66C382.21,-161.32 413.48,-140.66 442.5,-127.02 447.78,-124.54 453.47,-122.22 459.13,-120.13"/>
<polygon fill="#63b8ff" stroke="#63b8ff" points="460.16,-123.47 468.44,-116.87 457.85,-116.87 460.16,-123.47"/>
</a>
</g>
</g>
<!-- Node31 -->
<g id="Node000031" class="node">
<title>Node31</title>
<g id="a_Node000031"><a xlink:href="_async_t_c_p_8cpp.html#a0b47280aff638ec9b80f7a87dfe54ea6" target="_top" xlink:title=" ">
<polygon fill="white" stroke="#666666" points="529,-80.02 470.25,-80.02 470.25,-60.02 529,-60.02 529,-80.02"/>
<text xml:space="preserve" text-anchor="middle" x="499.62" y="-66.52" font-family="Helvetica,sans-Serif" font-size="10.00">_tcp_sent</text>
</a>
</g>
</g>
<!-- Node2&#45;&gt;Node31 -->
<g id="edge17_Node000002_Node000031" class="edge">
<title>Node2&#45;&gt;Node31</title>
<g id="a_edge17_Node000002_Node000031"><a xlink:title=" ">
<path fill="none" stroke="#63b8ff" d="M357.44,-173.59C371.78,-154.24 405.11,-112.59 442.5,-89.02 447.67,-85.76 453.46,-82.99 459.3,-80.66"/>
<polygon fill="#63b8ff" stroke="#63b8ff" points="460.09,-84.09 468.33,-77.43 457.74,-77.5 460.09,-84.09"/>
</a>
</g>
</g>
<!-- Node14 -->
<g id="Node000014" class="node">
<title>Node14</title>
<g id="a_Node000014"><a xlink:href="class_async_client.html#ac0c28dd08517243bc6d64d32f982a3cc" target="_top" xlink:title=" ">
<polygon fill="white" stroke="#666666" points="545.12,-42.02 454.12,-42.02 454.12,-22.02 545.12,-22.02 545.12,-42.02"/>
<text xml:space="preserve" text-anchor="middle" x="499.62" y="-28.52" font-family="Helvetica,sans-Serif" font-size="10.00">AsyncClient::pcb</text>
</a>
</g>
</g>
<!-- Node2&#45;&gt;Node14 -->
<g id="edge19_Node000002_Node000014" class="edge">
<title>Node2&#45;&gt;Node14</title>
<g id="a_edge19_Node000002_Node000014"><a xlink:title=" ">
<path fill="none" stroke="#63b8ff" d="M354.38,-173.69C365.44,-148.86 396.87,-85.33 442.5,-51.02 444.05,-49.85 445.69,-48.75 447.37,-47.71"/>
<polygon fill="#63b8ff" stroke="#63b8ff" points="448.9,-50.87 456.18,-43.17 445.69,-44.65 448.9,-50.87"/>
</a>
</g>
</g>
<!-- Node5 -->
<g id="Node000005" class="node">
<title>Node5</title>
<g id="a_Node000005"><a xlink:href="_async_t_c_p_8cpp.html#a87baf4ac2987dd94502c4586a97e552f" target="_top" xlink:title=" ">
<polygon fill="#fff0f0" stroke="red" points="716.75,-396.02 608.5,-396.02 608.5,-376.02 716.75,-376.02 716.75,-396.02"/>
<text xml:space="preserve" text-anchor="middle" x="662.62" y="-382.52" font-family="Helvetica,sans-Serif" font-size="10.00">_async_service_task</text>
</a>
</g>
</g>
<!-- Node4&#45;&gt;Node5 -->
<g id="edge4_Node000004_Node000005" class="edge">
<title>Node4&#45;&gt;Node5</title>
<g id="a_edge4_Node000004_Node000005"><a xlink:title=" ">
<path fill="none" stroke="#63b8ff" d="M545.05,-358.5C563.96,-362.97 586.23,-368.22 606.21,-372.94"/>
<polygon fill="#63b8ff" stroke="#63b8ff" points="605.34,-376.33 615.88,-375.22 606.95,-369.52 605.34,-376.33"/>
</a>
</g>
</g>
<!-- Node47 -->
<g id="Node000047" class="node">
<title>Node47</title>
<g id="a_Node000047"><a xlink:href="_async_t_c_p_8cpp.html#a3aed34b06f9d10bb1cc4ce3d74cb5565" target="_top" xlink:title=" ">
<polygon fill="white" stroke="#666666" points="725.75,-358.02 599.5,-358.02 599.5,-338.02 725.75,-338.02 725.75,-358.02"/>
<text xml:space="preserve" text-anchor="middle" x="662.62" y="-344.52" font-family="Helvetica,sans-Serif" font-size="10.00">_init_async_event_queue</text>
</a>
</g>
</g>
<!-- Node4&#45;&gt;Node47 -->
<g id="edge5_Node000004_Node000047" class="edge">
<title>Node4&#45;&gt;Node47</title>
<g id="a_edge5_Node000004_Node000047"><a xlink:title=" ">
<path fill="none" stroke="#63b8ff" d="M548.06,-348.02C560.52,-348.02 574.27,-348.02 587.76,-348.02"/>
<polygon fill="#63b8ff" stroke="#63b8ff" points="587.49,-351.52 597.49,-348.02 587.49,-344.52 587.49,-351.52"/>
</a>
</g>
</g>
<!-- Node48 -->
<g id="Node000048" class="node">
<title>Node48</title>
<g id="a_Node000048"><a xlink:href="_async_t_c_p_8cpp.html#a8fedef252807f247ae1b933ac0bcc234" target="_top" xlink:title=" ">
<polygon fill="white" stroke="#666666" points="732.5,-320.02 592.75,-320.02 592.75,-300.02 732.5,-300.02 732.5,-320.02"/>
<text xml:space="preserve" text-anchor="middle" x="662.62" y="-306.52" font-family="Helvetica,sans-Serif" font-size="10.00">customTaskCreateUniversal</text>
</a>
</g>
</g>
<!-- Node4&#45;&gt;Node48 -->
<g id="edge6_Node000004_Node000048" class="edge">
<title>Node4&#45;&gt;Node48</title>
<g id="a_edge6_Node000004_Node000048"><a xlink:title=" ">
<path fill="none" stroke="#63b8ff" d="M545.05,-337.53C563.96,-333.07 586.23,-327.81 606.21,-323.1"/>
<polygon fill="#63b8ff" stroke="#63b8ff" points="606.95,-326.52 615.88,-320.81 605.34,-319.71 606.95,-326.52"/>
</a>
</g>
</g>
<!-- Node50 -->
<g id="Node000050" class="node">
<title>Node50</title>
<g id="a_Node000050"><a xlink:href="_async_t_c_p_8cpp.html#a6c3a1f5e3365fd25233a4ca083b400af" target="_top" xlink:title=" ">
<polygon fill="white" stroke="#666666" points="708.88,-270.02 616.38,-270.02 616.38,-250.02 708.88,-250.02 708.88,-270.02"/>
<text xml:space="preserve" text-anchor="middle" x="662.62" y="-256.52" font-family="Helvetica,sans-Serif" font-size="10.00">_tcp_connect_api</text>
</a>
</g>
</g>
<!-- Node49&#45;&gt;Node50 -->
<g id="edge8_Node000049_Node000050" class="edge">
<title>Node49&#45;&gt;Node50</title>
<g id="a_edge8_Node000049_Node000050"><a xlink:title=" ">
<path fill="none" stroke="#63b8ff" d="M537.16,-260.02C557.07,-260.02 582.15,-260.02 604.58,-260.02"/>
<polygon fill="#63b8ff" stroke="#63b8ff" points="604.51,-263.52 614.51,-260.02 604.51,-256.52 604.51,-263.52"/>
</a>
</g>
</g>
<!-- Node19 -->
<g id="Node000019" class="node">
<title>Node19</title>
<g id="a_Node000019"><a xlink:href="_async_t_c_p_8cpp.html#a42bebdded16714188a8e554237aad2f3" target="_top" xlink:title=" ">
<polygon fill="white" stroke="#666666" points="720.88,-232.02 604.38,-232.02 604.38,-212.02 720.88,-212.02 720.88,-232.02"/>
<text xml:space="preserve" text-anchor="middle" x="662.62" y="-218.52" font-family="Helvetica,sans-Serif" font-size="10.00">_prepend_async_event</text>
</a>
</g>
</g>
<!-- Node51&#45;&gt;Node19 -->
<g id="edge10_Node000051_Node000019" class="edge">
<title>Node51&#45;&gt;Node19</title>
<g id="a_edge10_Node000051_Node000019"><a xlink:title=" ">
<path fill="none" stroke="#63b8ff" d="M542.51,-222.02C557.87,-222.02 575.69,-222.02 592.79,-222.02"/>
<polygon fill="#63b8ff" stroke="#63b8ff" points="592.38,-225.52 602.38,-222.02 592.38,-218.52 592.38,-225.52"/>
</a>
</g>
</g>
<!-- Node26 -->
<g id="Node000026" class="node">
<title>Node26</title>
<g id="a_Node000026"><a xlink:href="_async_t_c_p_8cpp.html#a796c13746a84a6b2e7370ddbec97ad5b" target="_top" xlink:title=" ">
<polygon fill="white" stroke="#666666" points="714.12,-118.02 611.12,-118.02 611.12,-98.02 714.12,-98.02 714.12,-118.02"/>
<text xml:space="preserve" text-anchor="middle" x="662.62" y="-104.52" font-family="Helvetica,sans-Serif" font-size="10.00">_send_async_event</text>
</a>
</g>
</g>
<!-- Node25&#45;&gt;Node26 -->
<g id="edge12_Node000025_Node000026" class="edge">
<title>Node25&#45;&gt;Node26</title>
<g id="a_edge12_Node000025_Node000026"><a xlink:title=" ">
<path fill="none" stroke="#63b8ff" d="M529.83,-175.19C538.6,-172.25 548.17,-168.77 556.75,-165.02 584.2,-153.02 614.1,-136.39 634.92,-124.19"/>
<polygon fill="#63b8ff" stroke="#63b8ff" points="636.52,-127.31 643.34,-119.2 632.95,-121.29 636.52,-127.31"/>
</a>
</g>
</g>
<!-- Node27&#45;&gt;Node26 -->
<g id="edge14_Node000027_Node000026" class="edge">
<title>Node27&#45;&gt;Node26</title>
<g id="a_edge14_Node000027_Node000026"><a xlink:title=" ">
<path fill="none" stroke="#63b8ff" d="M527.57,-139.66C548.96,-134.61 579.57,-127.39 606.14,-121.11"/>
<polygon fill="#63b8ff" stroke="#63b8ff" points="606.84,-124.54 615.77,-118.84 605.23,-117.73 606.84,-124.54"/>
</a>
</g>
</g>
<!-- Node28&#45;&gt;Node26 -->
<g id="edge16_Node000028_Node000026" class="edge">
<title>Node28&#45;&gt;Node26</title>
<g id="a_edge16_Node000028_Node000026"><a xlink:title=" ">
<path fill="none" stroke="#63b8ff" d="M529.41,-108.02C548.85,-108.02 575.27,-108.02 599.39,-108.02"/>
<polygon fill="#63b8ff" stroke="#63b8ff" points="599.12,-111.52 609.12,-108.02 599.12,-104.52 599.12,-111.52"/>
</a>
</g>
</g>
<!-- Node31&#45;&gt;Node26 -->
<g id="edge18_Node000031_Node000026" class="edge">
<title>Node31&#45;&gt;Node26</title>
<g id="a_edge18_Node000031_Node000026"><a xlink:title=" ">
<path fill="none" stroke="#63b8ff" d="M529.41,-76.81C550.68,-81.83 580.31,-88.82 606.13,-94.92"/>
<polygon fill="#63b8ff" stroke="#63b8ff" points="605.29,-98.32 615.83,-97.21 606.9,-91.5 605.29,-98.32"/>
</a>
</g>
</g>
<!-- Node52&#45;&gt;Node26 -->
<g id="edge22_Node000052_Node000026" class="edge">
<title>Node52&#45;&gt;Node26</title>
<g id="a_edge22_Node000052_Node000026"><a xlink:title=" ">
<path fill="none" stroke="#63b8ff" d="M387.68,-11.59C430.27,-1.78 500.94,8.5 556.75,-13.02 596.06,-28.17 629.77,-65.66 647.74,-88.75"/>
<polygon fill="#63b8ff" stroke="#63b8ff" points="644.72,-90.57 653.54,-96.45 650.32,-86.36 644.72,-90.57"/>
</a>
</g>
</g>
<!-- Node34&#45;&gt;Node2 -->
<g id="edge24_Node000034_Node000002" class="edge">
<title>Node34&#45;&gt;Node2</title>
<g id="a_edge24_Node000034_Node000002"><a xlink:title=" ">
<path fill="none" stroke="#63b8ff" d="M255.71,-172.04C263.57,-173.06 271.75,-174.12 279.84,-175.17"/>
<polygon fill="#63b8ff" stroke="#63b8ff" points="279.32,-178.63 289.69,-176.45 280.22,-171.69 279.32,-178.63"/>
</a>
</g>
</g>
</g>
</svg>
