<?xml version="1.0" encoding="UTF-8" standalone="no"?>
<!DOCTYPE svg PUBLIC "-//W3C//DTD SVG 1.1//EN"
 "http://www.w3.org/Graphics/SVG/1.1/DTD/svg11.dtd">
<!-- Generated by graphviz version 14.1.2 (20260124.0452)
 -->
<!-- Title: AuthSync::isAuthorized Pages: 1 -->
<svg width="673pt" height="116pt"
 viewBox="0.00 0.00 673.00 116.00" xmlns="http://www.w3.org/2000/svg" xmlns:xlink="http://www.w3.org/1999/xlink">
<g id="graph0" class="graph" transform="scale(1 1) rotate(0) translate(4 112)">
<title>AuthSync::isAuthorized</title>
<!-- Node1 -->
<g id="Node000001" class="node">
<title>Node1</title>
<g id="a_Node000001"><a xlink:title=" ">
<polygon fill="#999999" stroke="#666666" points="118.75,-70 0,-70 0,-50 118.75,-50 118.75,-70"/>
<text xml:space="preserve" text-anchor="middle" x="59.38" y="-56.5" font-family="Helvetica,sans-Serif" font-size="10.00">AuthSync::isAuthorized</text>
</a>
</g>
</g>
<!-- Node2 -->
<g id="Node000002" class="node">
<title>Node2</title>
<g id="a_Node000002"><a xlink:href="class_auth_sync.html#a4e7f7720c3b9e51ceb1ab4d911f03e23" target="_top" xlink:title=" ">
<polygon fill="white" stroke="#666666" points="291.12,-70 160.38,-70 160.38,-50 291.12,-50 291.12,-70"/>
<text xml:space="preserve" text-anchor="middle" x="225.75" y="-56.5" font-family="Helvetica,sans-Serif" font-size="10.00">AuthSync::addKnownAuth</text>
</a>
</g>
</g>
<!-- Node1&#45;&gt;Node2 -->
<g id="edge1_Node000001_Node000002" class="edge">
<title>Node1&#45;&gt;Node2</title>
<g id="a_edge1_Node000001_Node000002"><a xlink:title=" ">
<path fill="none" stroke="#63b8ff" d="M118.79,-60C128.51,-60 138.72,-60 148.8,-60"/>
<polygon fill="#63b8ff" stroke="#63b8ff" points="148.58,-63.5 158.58,-60 148.58,-56.5 148.58,-63.5"/>
</a>
</g>
</g>
<!-- Node3 -->
<g id="Node000003" class="node">
<title>Node3</title>
<g id="a_Node000003"><a xlink:href="class_auth_sync.html#afea91831a16e241cc5db5163299fc900" target="_top" xlink:title=" ">
<polygon fill="white" stroke="#666666" points="453,-108 352.25,-108 352.25,-88 453,-88 453,-108"/>
<text xml:space="preserve" text-anchor="middle" x="402.62" y="-94.5" font-family="Helvetica,sans-Serif" font-size="10.00">AuthSync::hashUid</text>
</a>
</g>
</g>
<!-- Node1&#45;&gt;Node3 -->
<g id="edge7_Node000001_Node000003" class="edge">
<title>Node1&#45;&gt;Node3</title>
<g id="a_edge7_Node000001_Node000003"><a xlink:title=" ">
<path fill="none" stroke="#63b8ff" d="M106.26,-70.41C121.61,-73.57 138.86,-76.8 154.75,-79 217.76,-87.73 290.41,-92.72 340.5,-95.37"/>
<polygon fill="#63b8ff" stroke="#63b8ff" points="340.11,-98.86 350.27,-95.87 340.46,-91.86 340.11,-98.86"/>
</a>
</g>
</g>
<!-- Node8 -->
<g id="Node000008" class="node">
<title>Node8</title>
<g id="a_Node000008"><a xlink:href="class_auth_sync.html#a30cbd10c13742a6ab7bafc4011480fec" target="_top" xlink:title=" ">
<polygon fill="white" stroke="#666666" points="296.75,-32 154.75,-32 154.75,0 296.75,0 296.75,-32"/>
<text xml:space="preserve" text-anchor="start" x="162.75" y="-18.5" font-family="Helvetica,sans-Serif" font-size="10.00">AuthSync::getCardAuthFrom</text>
<text xml:space="preserve" text-anchor="middle" x="225.75" y="-6.5" font-family="Helvetica,sans-Serif" font-size="10.00">Server</text>
</a>
</g>
</g>
<!-- Node1&#45;&gt;Node8 -->
<g id="edge6_Node000001_Node000008" class="edge">
<title>Node1&#45;&gt;Node8</title>
<g id="a_edge6_Node000001_Node000008"><a xlink:title=" ">
<path fill="none" stroke="#63b8ff" d="M99.33,-49.57C115.21,-45.32 134.09,-40.27 152.33,-35.39"/>
<polygon fill="#63b8ff" stroke="#63b8ff" points="153.05,-38.82 161.8,-32.85 151.24,-32.06 153.05,-38.82"/>
</a>
</g>
</g>
<!-- Node2&#45;&gt;Node3 -->
<g id="edge2_Node000002_Node000003" class="edge">
<title>Node2&#45;&gt;Node3</title>
<g id="a_edge2_Node000002_Node000003"><a xlink:title=" ">
<path fill="none" stroke="#63b8ff" d="M275,-70.48C295.83,-75.01 320.41,-80.35 342.34,-85.12"/>
<polygon fill="#63b8ff" stroke="#63b8ff" points="341.54,-88.53 352.06,-87.23 343.03,-81.68 341.54,-88.53"/>
</a>
</g>
</g>
<!-- Node6 -->
<g id="Node000006" class="node">
<title>Node6</title>
<g id="a_Node000006"><a xlink:href="class_auth_sync.html#a96c599b762bdafa672930dfa6f07ff13" target="_top" xlink:title=" ">
<polygon fill="white" stroke="#666666" points="472.5,-70 332.75,-70 332.75,-50 472.5,-50 472.5,-70"/>
<text xml:space="preserve" text-anchor="middle" x="402.62" y="-56.5" font-family="Helvetica,sans-Serif" font-size="10.00">AuthSync::saveETagToNVS</text>
</a>
</g>
</g>
<!-- Node2&#45;&gt;Node6 -->
<g id="edge4_Node000002_Node000006" class="edge">
<title>Node2&#45;&gt;Node6</title>
<g id="a_edge4_Node000002_Node000006"><a xlink:title=" ">
<path fill="none" stroke="#63b8ff" d="M291.37,-60C300.95,-60 310.92,-60 320.79,-60"/>
<polygon fill="#63b8ff" stroke="#63b8ff" points="320.77,-63.5 330.77,-60 320.77,-56.5 320.77,-63.5"/>
</a>
</g>
</g>
<!-- Node4 -->
<g id="Node000004" class="node">
<title>Node4</title>
<g id="a_Node000004"><a xlink:href="namespace_hash_utils.html#a3432774829b6752dc346491bc5dd5eec" target="_top" xlink:title=" ">
<polygon fill="#fff0f0" stroke="red" points="637.38,-108 535.88,-108 535.88,-88 637.38,-88 637.38,-108"/>
<text xml:space="preserve" text-anchor="middle" x="586.62" y="-94.5" font-family="Helvetica,sans-Serif" font-size="10.00">HashUtils::hashUid</text>
</a>
</g>
</g>
<!-- Node3&#45;&gt;Node4 -->
<g id="edge3_Node000003_Node000004" class="edge">
<title>Node3&#45;&gt;Node4</title>
<g id="a_edge3_Node000003_Node000004"><a xlink:title=" ">
<path fill="none" stroke="#63b8ff" d="M453.36,-98C475.24,-98 501.15,-98 524.22,-98"/>
<polygon fill="#63b8ff" stroke="#63b8ff" points="524.12,-101.5 534.12,-98 524.12,-94.5 524.12,-101.5"/>
</a>
</g>
</g>
<!-- Node7 -->
<g id="Node000007" class="node">
<title>Node7</title>
<g id="a_Node000007"><a xlink:href="class_auth_sync.html#ad84e54dba300b040ae8655c915d5313f" target="_top" xlink:title=" ">
<polygon fill="white" stroke="#666666" points="664.75,-70 508.5,-70 508.5,-50 664.75,-50 664.75,-70"/>
<text xml:space="preserve" text-anchor="middle" x="586.62" y="-56.5" font-family="Helvetica,sans-Serif" font-size="10.00">AuthSync::saveAllowDenyToFS</text>
</a>
</g>
</g>
<!-- Node6&#45;&gt;Node7 -->
<g id="edge5_Node000006_Node000007" class="edge">
<title>Node6&#45;&gt;Node7</title>
<g id="a_edge5_Node000006_Node000007"><a xlink:title=" ">
<path fill="none" stroke="#63b8ff" d="M472.95,-60C480.8,-60 488.88,-60 496.94,-60"/>
<polygon fill="#63b8ff" stroke="#63b8ff" points="496.77,-63.5 506.77,-60 496.77,-56.5 496.77,-63.5"/>
</a>
</g>
</g>
</g>
</svg>
