<?xml version="1.0" encoding="UTF-8" standalone="no"?>
<!DOCTYPE svg PUBLIC "-//W3C//DTD SVG 1.1//EN"
 "http://www.w3.org/Graphics/SVG/1.1/DTD/svg11.dtd">
<!-- Generated by graphviz version 14.1.2 (20260124.0452)
 -->
<!-- Title: AsyncServer::_s_accept Pages: 1 -->
<svg width="597pt" height="268pt"
 viewBox="0.00 0.00 597.00 268.00" xmlns="http://www.w3.org/2000/svg" xmlns:xlink="http://www.w3.org/1999/xlink">
<g id="graph0" class="graph" transform="scale(1 1) rotate(0) translate(4 264)">
<title>AsyncServer::_s_accept</title>
<!-- Node1 -->
<g id="Node000001" class="node">
<title>Node1</title>
<g id="a_Node000001"><a xlink:title=" ">
<polygon fill="#999999" stroke="#666666" points="123.25,-134 0,-134 0,-114 123.25,-114 123.25,-134"/>
<text xml:space="preserve" text-anchor="middle" x="61.62" y="-120.5" font-family="Helvetica,sans-Serif" font-size="10.00">AsyncServer::_s_accept</text>
</a>
</g>
</g>
<!-- Node2 -->
<g id="Node000002" class="node">
<title>Node2</title>
<g id="a_Node000002"><a xlink:href="class_async_server.html#a51e55999b79eec50bd68e899b8ddd4e4" target="_top" xlink:title=" ">
<polygon fill="white" stroke="#666666" points="272,-134 159.25,-134 159.25,-114 272,-114 272,-134"/>
<text xml:space="preserve" text-anchor="middle" x="215.62" y="-120.5" font-family="Helvetica,sans-Serif" font-size="10.00">AsyncServer::_accept</text>
</a>
</g>
</g>
<!-- Node1&#45;&gt;Node2 -->
<g id="edge1_Node000001_Node000002" class="edge">
<title>Node1&#45;&gt;Node2</title>
<g id="a_edge1_Node000001_Node000002"><a xlink:title=" ">
<path fill="none" stroke="#63b8ff" d="M123.57,-124C131.54,-124 139.75,-124 147.81,-124"/>
<polygon fill="#63b8ff" stroke="#63b8ff" points="147.56,-127.5 157.56,-124 147.56,-120.5 147.56,-127.5"/>
</a>
</g>
</g>
<!-- Node3 -->
<g id="Node000003" class="node">
<title>Node3</title>
<g id="a_Node000003"><a xlink:href="_async_t_c_p_8cpp.html#ab02a78d0cd56732252f0c2c27f286369" target="_top" xlink:title=" ">
<polygon fill="white" stroke="#666666" points="406.88,-225 337.62,-225 337.62,-205 406.88,-205 406.88,-225"/>
<text xml:space="preserve" text-anchor="middle" x="372.25" y="-211.5" font-family="Helvetica,sans-Serif" font-size="10.00">_tcp_accept</text>
</a>
</g>
</g>
<!-- Node2&#45;&gt;Node3 -->
<g id="edge2_Node000002_Node000003" class="edge">
<title>Node2&#45;&gt;Node3</title>
<g id="a_edge2_Node000002_Node000003"><a xlink:title=" ">
<path fill="none" stroke="#63b8ff" d="M234.36,-134.44C261.16,-150.21 312.19,-180.24 343.8,-198.85"/>
<polygon fill="#63b8ff" stroke="#63b8ff" points="342.02,-201.86 352.41,-203.92 345.57,-195.83 342.02,-201.86"/>
</a>
</g>
</g>
<!-- Node5 -->
<g id="Node000005" class="node">
<title>Node5</title>
<g id="a_Node000005"><a xlink:href="class_async_client.html#aefecfa0c75c8c1b32104115e93739087" target="_top" xlink:title=" ">
<polygon fill="white" stroke="#666666" points="436.5,-134 308,-134 308,-114 436.5,-114 436.5,-134"/>
<text xml:space="preserve" text-anchor="middle" x="372.25" y="-120.5" font-family="Helvetica,sans-Serif" font-size="10.00">AsyncClient::AsyncClient</text>
</a>
</g>
</g>
<!-- Node2&#45;&gt;Node5 -->
<g id="edge4_Node000002_Node000005" class="edge">
<title>Node2&#45;&gt;Node5</title>
<g id="a_edge4_Node000002_Node000005"><a xlink:title=" ">
<path fill="none" stroke="#63b8ff" d="M272.45,-124C280.21,-124 288.28,-124 296.32,-124"/>
<polygon fill="#63b8ff" stroke="#63b8ff" points="296.12,-127.5 306.12,-124 296.12,-120.5 296.12,-127.5"/>
</a>
</g>
</g>
<!-- Node22 -->
<g id="Node000022" class="node">
<title>Node22</title>
<g id="a_Node000022"><a xlink:href="class_async_client.html#af1819edd57b1ce0666a6cd390bcaf587" target="_top" xlink:title=" ">
<polygon fill="white" stroke="#666666" points="435.75,-96 308.75,-96 308.75,-76 435.75,-76 435.75,-96"/>
<text xml:space="preserve" text-anchor="middle" x="372.25" y="-82.5" font-family="Helvetica,sans-Serif" font-size="10.00">AsyncClient::setNoDelay</text>
</a>
</g>
</g>
<!-- Node2&#45;&gt;Node22 -->
<g id="edge12_Node000002_Node000022" class="edge">
<title>Node2&#45;&gt;Node22</title>
<g id="a_edge12_Node000002_Node000022"><a xlink:title=" ">
<path fill="none" stroke="#63b8ff" d="M259.29,-113.52C277.37,-109.07 298.64,-103.84 317.76,-99.15"/>
<polygon fill="#63b8ff" stroke="#63b8ff" points="318.38,-102.6 327.26,-96.81 316.71,-95.8 318.38,-102.6"/>
</a>
</g>
</g>
<!-- Node4 -->
<g id="Node000004" class="node">
<title>Node4</title>
<g id="a_Node000004"><a xlink:href="_async_t_c_p_8cpp.html#a42bebdded16714188a8e554237aad2f3" target="_top" xlink:title=" ">
<polygon fill="white" stroke="#666666" points="589,-260 472.5,-260 472.5,-240 589,-240 589,-260"/>
<text xml:space="preserve" text-anchor="middle" x="530.75" y="-246.5" font-family="Helvetica,sans-Serif" font-size="10.00">_prepend_async_event</text>
</a>
</g>
</g>
<!-- Node3&#45;&gt;Node4 -->
<g id="edge3_Node000003_Node000004" class="edge">
<title>Node3&#45;&gt;Node4</title>
<g id="a_edge3_Node000003_Node000004"><a xlink:title=" ">
<path fill="none" stroke="#63b8ff" d="M407.21,-222.59C426.12,-226.82 450.17,-232.2 471.95,-237.07"/>
<polygon fill="#63b8ff" stroke="#63b8ff" points="471.09,-240.47 481.62,-239.24 472.62,-233.64 471.09,-240.47"/>
</a>
</g>
</g>
<!-- Node5&#45;&gt;Node5 -->
<g id="edge11_Node000005_Node000005" class="edge">
<title>Node5&#45;&gt;Node5</title>
<g id="a_edge11_Node000005_Node000005"><a xlink:title=" ">
<path fill="none" stroke="#63b8ff" d="M347.36,-134.34C336.73,-142.98 345.02,-152 372.25,-152 387.14,-152 396.37,-149.3 399.93,-145.44"/>
<polygon fill="#63b8ff" stroke="#63b8ff" points="403.34,-144.65 397.51,-135.81 396.55,-146.36 403.34,-144.65"/>
</a>
</g>
</g>
<!-- Node6 -->
<g id="Node000006" class="node">
<title>Node6</title>
<g id="a_Node000006"><a xlink:href="class_async_client.html#ab0422e5254ea4fbac9f87188a018ebc4" target="_top" xlink:title=" ">
<polygon fill="white" stroke="#666666" points="587.88,-222 473.62,-222 473.62,-190 587.88,-190 587.88,-222"/>
<text xml:space="preserve" text-anchor="start" x="481.62" y="-208.5" font-family="Helvetica,sans-Serif" font-size="10.00">AsyncClient::_allocate</text>
<text xml:space="preserve" text-anchor="middle" x="530.75" y="-196.5" font-family="Helvetica,sans-Serif" font-size="10.00">_closed_slot</text>
</a>
</g>
</g>
<!-- Node5&#45;&gt;Node6 -->
<g id="edge5_Node000005_Node000006" class="edge">
<title>Node5&#45;&gt;Node6</title>
<g id="a_edge5_Node000005_Node000006"><a xlink:title=" ">
<path fill="none" stroke="#63b8ff" d="M390.15,-134.47C409.66,-146.37 442.86,-166.07 472.5,-181 475.04,-182.28 477.67,-183.56 480.33,-184.83"/>
<polygon fill="#63b8ff" stroke="#63b8ff" points="478.76,-187.96 489.31,-188.99 481.7,-181.61 478.76,-187.96"/>
</a>
</g>
</g>
<!-- Node7 -->
<g id="Node000007" class="node">
<title>Node7</title>
<g id="a_Node000007"><a xlink:href="class_async_client.html#a98ff872bc84919f006f3bb8a249ed36d" target="_top" xlink:title=" ">
<polygon fill="#fff0f0" stroke="red" points="582.62,-172 478.88,-172 478.88,-152 582.62,-152 582.62,-172"/>
<text xml:space="preserve" text-anchor="middle" x="530.75" y="-158.5" font-family="Helvetica,sans-Serif" font-size="10.00">AsyncClient::_close</text>
</a>
</g>
</g>
<!-- Node5&#45;&gt;Node7 -->
<g id="edge6_Node000005_Node000007" class="edge">
<title>Node5&#45;&gt;Node7</title>
<g id="a_edge6_Node000005_Node000007"><a xlink:title=" ">
<path fill="none" stroke="#63b8ff" d="M416.43,-134.48C434.73,-138.93 456.26,-144.16 475.61,-148.85"/>
<polygon fill="#63b8ff" stroke="#63b8ff" points="474.7,-152.23 485.24,-151.19 476.35,-145.43 474.7,-152.23"/>
</a>
</g>
</g>
<!-- Node15 -->
<g id="Node000015" class="node">
<title>Node15</title>
<g id="a_Node000015"><a xlink:href="_async_t_c_p_8cpp.html#a61ff9f7f886bbbbcdc1daca453828934" target="_top" xlink:title=" ">
<polygon fill="#fff0f0" stroke="red" points="560.5,-134 501,-134 501,-114 560.5,-114 560.5,-134"/>
<text xml:space="preserve" text-anchor="middle" x="530.75" y="-120.5" font-family="Helvetica,sans-Serif" font-size="10.00">_tcp_error</text>
</a>
</g>
</g>
<!-- Node5&#45;&gt;Node15 -->
<g id="edge7_Node000005_Node000015" class="edge">
<title>Node5&#45;&gt;Node15</title>
<g id="a_edge7_Node000005_Node000015"><a xlink:title=" ">
<path fill="none" stroke="#63b8ff" d="M436.9,-124C454.75,-124 473.64,-124 489.69,-124"/>
<polygon fill="#63b8ff" stroke="#63b8ff" points="489.3,-127.5 499.3,-124 489.3,-120.5 489.3,-127.5"/>
</a>
</g>
</g>
<!-- Node17 -->
<g id="Node000017" class="node">
<title>Node17</title>
<g id="a_Node000017"><a xlink:href="_async_t_c_p_8cpp.html#ad4b2c6c935c211eef5884f25a950e445" target="_top" xlink:title=" ">
<polygon fill="#fff0f0" stroke="red" points="558.25,-96 503.25,-96 503.25,-76 558.25,-76 558.25,-96"/>
<text xml:space="preserve" text-anchor="middle" x="530.75" y="-82.5" font-family="Helvetica,sans-Serif" font-size="10.00">_tcp_poll</text>
</a>
</g>
</g>
<!-- Node5&#45;&gt;Node17 -->
<g id="edge8_Node000005_Node000017" class="edge">
<title>Node5&#45;&gt;Node17</title>
<g id="a_edge8_Node000005_Node000017"><a xlink:title=" ">
<path fill="none" stroke="#63b8ff" d="M416.43,-113.52C440.11,-107.77 469.2,-100.7 491.98,-95.17"/>
<polygon fill="#63b8ff" stroke="#63b8ff" points="492.56,-98.63 501.45,-92.87 490.91,-91.83 492.56,-98.63"/>
</a>
</g>
</g>
<!-- Node18 -->
<g id="Node000018" class="node">
<title>Node18</title>
<g id="a_Node000018"><a xlink:href="_async_t_c_p_8cpp.html#adf7826424bf5b1035c4850f6b3307686" target="_top" xlink:title=" ">
<polygon fill="#fff0f0" stroke="red" points="560.12,-58 501.38,-58 501.38,-38 560.12,-38 560.12,-58"/>
<text xml:space="preserve" text-anchor="middle" x="530.75" y="-44.5" font-family="Helvetica,sans-Serif" font-size="10.00">_tcp_recv</text>
</a>
</g>
</g>
<!-- Node5&#45;&gt;Node18 -->
<g id="edge9_Node000005_Node000018" class="edge">
<title>Node5&#45;&gt;Node18</title>
<g id="a_edge9_Node000005_Node000018"><a xlink:title=" ">
<path fill="none" stroke="#63b8ff" d="M418.4,-113.62C424.71,-111.27 430.94,-108.43 436.5,-105 456.31,-92.8 452.87,-79.48 472.5,-67 478.05,-63.47 484.32,-60.53 490.62,-58.1"/>
<polygon fill="#63b8ff" stroke="#63b8ff" points="491.39,-61.54 499.71,-54.98 489.12,-54.92 491.39,-61.54"/>
</a>
</g>
</g>
<!-- Node21 -->
<g id="Node000021" class="node">
<title>Node21</title>
<g id="a_Node000021"><a xlink:href="_async_t_c_p_8cpp.html#a0b47280aff638ec9b80f7a87dfe54ea6" target="_top" xlink:title=" ">
<polygon fill="#fff0f0" stroke="red" points="560.12,-20 501.38,-20 501.38,0 560.12,0 560.12,-20"/>
<text xml:space="preserve" text-anchor="middle" x="530.75" y="-6.5" font-family="Helvetica,sans-Serif" font-size="10.00">_tcp_sent</text>
</a>
</g>
</g>
<!-- Node5&#45;&gt;Node21 -->
<g id="edge10_Node000005_Node000021" class="edge">
<title>Node5&#45;&gt;Node21</title>
<g id="a_edge10_Node000005_Node000021"><a xlink:title=" ">
<path fill="none" stroke="#63b8ff" d="M423.03,-113.56C427.9,-111.25 432.5,-108.44 436.5,-105 464.84,-80.63 444.51,-53.77 472.5,-29 477.57,-24.51 483.74,-21.08 490.12,-18.45"/>
<polygon fill="#63b8ff" stroke="#63b8ff" points="491.16,-21.8 499.48,-15.24 488.89,-15.17 491.16,-21.8"/>
</a>
</g>
</g>
</g>
</svg>
