<?xml version="1.0" encoding="UTF-8" standalone="no"?>
<!DOCTYPE svg PUBLIC "-//W3C//DTD SVG 1.1//EN"
 "http://www.w3.org/Graphics/SVG/1.1/DTD/svg11.dtd">
<!-- Generated by graphviz version 14.1.2 (20260124.0452)
 -->
<!-- Title: AsyncClient::_allocate_closed_slot Pages: 1 -->
<svg width="597pt" height="113pt"
 viewBox="0.00 0.00 597.00 113.00" xmlns="http://www.w3.org/2000/svg" xmlns:xlink="http://www.w3.org/1999/xlink">
<g id="graph0" class="graph" transform="scale(1 1) rotate(0) translate(4 109)">
<title>AsyncClient::_allocate_closed_slot</title>
<!-- Node1 -->
<g id="Node000001" class="node">
<title>Node1</title>
<g id="a_Node000001"><a xlink:title=" ">
<polygon fill="#999999" stroke="#666666" points="589,-54 474.75,-54 474.75,-22 589,-22 589,-54"/>
<text xml:space="preserve" text-anchor="start" x="482.75" y="-40.5" font-family="Helvetica,sans-Serif" font-size="10.00">AsyncClient::_allocate</text>
<text xml:space="preserve" text-anchor="middle" x="531.88" y="-28.5" font-family="Helvetica,sans-Serif" font-size="10.00">_closed_slot</text>
</a>
</g>
</g>
<!-- Node2 -->
<g id="Node000002" class="node">
<title>Node2</title>
<g id="a_Node000002"><a xlink:href="class_async_client.html#a758eaca983e03027c99003a5808883f8" target="_top" xlink:title=" ">
<polygon fill="white" stroke="#666666" points="432,-76 317,-76 317,-56 432,-56 432,-76"/>
<text xml:space="preserve" text-anchor="middle" x="374.5" y="-62.5" font-family="Helvetica,sans-Serif" font-size="10.00">AsyncClient::_connect</text>
</a>
</g>
</g>
<!-- Node1&#45;&gt;Node2 -->
<g id="edge1_Node000001_Node000002" class="edge">
<title>Node1&#45;&gt;Node2</title>
<g id="a_edge1_Node000001_Node000002"><a xlink:title=" ">
<path fill="none" stroke="#63b8ff" d="M463.25,-50.19C452.91,-52.05 442.33,-53.96 432.25,-55.77"/>
<polygon fill="#63b8ff" stroke="#63b8ff" points="463.63,-53.67 472.85,-48.46 462.39,-46.79 463.63,-53.67"/>
</a>
</g>
</g>
<!-- Node11 -->
<g id="Node000011" class="node">
<title>Node11</title>
<g id="a_Node000011"><a xlink:href="class_async_client.html#aefecfa0c75c8c1b32104115e93739087" target="_top" xlink:title=" ">
<polygon fill="white" stroke="#666666" points="438.75,-20 310.25,-20 310.25,0 438.75,0 438.75,-20"/>
<text xml:space="preserve" text-anchor="middle" x="374.5" y="-6.5" font-family="Helvetica,sans-Serif" font-size="10.00">AsyncClient::AsyncClient</text>
</a>
</g>
</g>
<!-- Node1&#45;&gt;Node11 -->
<g id="edge5_Node000001_Node000011" class="edge">
<title>Node1&#45;&gt;Node11</title>
<g id="a_edge5_Node000001_Node000011"><a xlink:title=" ">
<path fill="none" stroke="#63b8ff" d="M463.29,-25.82C453.38,-24.03 443.25,-22.21 433.56,-20.46"/>
<polygon fill="#63b8ff" stroke="#63b8ff" points="462.39,-29.21 472.85,-27.54 463.63,-22.33 462.39,-29.21"/>
</a>
</g>
</g>
<!-- Node3 -->
<g id="Node000003" class="node">
<title>Node3</title>
<g id="a_Node000003"><a xlink:href="class_async_client.html#a260e075caca9a58241f2fad754cc412b" target="_top" xlink:title=" ">
<polygon fill="white" stroke="#666666" points="272.75,-105 163,-105 163,-85 272.75,-85 272.75,-105"/>
<text xml:space="preserve" text-anchor="middle" x="217.88" y="-91.5" font-family="Helvetica,sans-Serif" font-size="10.00">AsyncClient::connect</text>
</a>
</g>
</g>
<!-- Node2&#45;&gt;Node3 -->
<g id="edge2_Node000002_Node000003" class="edge">
<title>Node2&#45;&gt;Node3</title>
<g id="a_edge2_Node000002_Node000003"><a xlink:title=" ">
<path fill="none" stroke="#63b8ff" d="M306.61,-78.55C295.4,-80.65 283.9,-82.8 273.06,-84.84"/>
<polygon fill="#63b8ff" stroke="#63b8ff" points="307.01,-82.03 316.19,-76.75 305.72,-75.15 307.01,-82.03"/>
</a>
</g>
</g>
<!-- Node4 -->
<g id="Node000004" class="node">
<title>Node4</title>
<g id="a_Node000004"><a xlink:href="class_async_client.html#aaa5b952568c85d25c32d0dff8ec74794" target="_top" xlink:title=" ">
<polygon fill="white" stroke="#666666" points="272.75,-67 163,-67 163,-47 272.75,-47 272.75,-67"/>
<text xml:space="preserve" text-anchor="middle" x="217.88" y="-53.5" font-family="Helvetica,sans-Serif" font-size="10.00">AsyncClient::connect</text>
</a>
</g>
</g>
<!-- Node2&#45;&gt;Node4 -->
<g id="edge3_Node000002_Node000004" class="edge">
<title>Node2&#45;&gt;Node4</title>
<g id="a_edge3_Node000002_Node000004"><a xlink:title=" ">
<path fill="none" stroke="#63b8ff" d="M305.64,-62.05C294.8,-61.42 283.72,-60.77 273.25,-60.16"/>
<polygon fill="#63b8ff" stroke="#63b8ff" points="305.1,-65.52 315.29,-62.61 305.51,-58.54 305.1,-65.52"/>
</a>
</g>
</g>
<!-- Node5 -->
<g id="Node000005" class="node">
<title>Node5</title>
<g id="a_Node000005"><a xlink:href="class_async_client.html#a19dc40652b5b003288e10529ee169b65" target="_top" xlink:title=" ">
<polygon fill="#fff0f0" stroke="red" points="125.5,-67 0,-67 0,-47 125.5,-47 125.5,-67"/>
<text xml:space="preserve" text-anchor="middle" x="62.75" y="-53.5" font-family="Helvetica,sans-Serif" font-size="10.00">AsyncClient::_dns_found</text>
</a>
</g>
</g>
<!-- Node4&#45;&gt;Node5 -->
<g id="edge4_Node000004_Node000005" class="edge">
<title>Node4&#45;&gt;Node5</title>
<g id="a_edge4_Node000004_Node000005"><a xlink:title=" ">
<path fill="none" stroke="#63b8ff" d="M151.47,-57C142.98,-57 134.31,-57 125.88,-57"/>
<polygon fill="#63b8ff" stroke="#63b8ff" points="151.38,-60.5 161.38,-57 151.38,-53.5 151.38,-60.5"/>
</a>
</g>
</g>
<!-- Node11&#45;&gt;Node11 -->
<g id="edge8_Node000011_Node000011" class="edge">
<title>Node11&#45;&gt;Node11</title>
<g id="a_edge8_Node000011_Node000011"><a xlink:title=" ">
<path fill="none" stroke="#63b8ff" d="M402.18,-31.44C398.62,-35.3 389.39,-38 374.5,-38 347.27,-38 338.98,-28.98 349.61,-20.34"/>
<polygon fill="#63b8ff" stroke="#63b8ff" points="405.59,-30.65 399.76,-21.81 398.8,-32.36 405.59,-30.65"/>
</a>
</g>
</g>
<!-- Node12 -->
<g id="Node000012" class="node">
<title>Node12</title>
<g id="a_Node000012"><a xlink:href="class_async_server.html#a51e55999b79eec50bd68e899b8ddd4e4" target="_top" xlink:title=" ">
<polygon fill="white" stroke="#666666" points="274.25,-20 161.5,-20 161.5,0 274.25,0 274.25,-20"/>
<text xml:space="preserve" text-anchor="middle" x="217.88" y="-6.5" font-family="Helvetica,sans-Serif" font-size="10.00">AsyncServer::_accept</text>
</a>
</g>
</g>
<!-- Node11&#45;&gt;Node12 -->
<g id="edge6_Node000011_Node000012" class="edge">
<title>Node11&#45;&gt;Node12</title>
<g id="a_edge6_Node000011_Node000012"><a xlink:title=" ">
<path fill="none" stroke="#63b8ff" d="M298.68,-10C290.51,-10 282.31,-10 274.44,-10"/>
<polygon fill="#63b8ff" stroke="#63b8ff" points="298.65,-13.5 308.65,-10 298.65,-6.5 298.65,-13.5"/>
</a>
</g>
</g>
<!-- Node13 -->
<g id="Node000013" class="node">
<title>Node13</title>
<g id="a_Node000013"><a xlink:href="class_async_server.html#a9cfd997e84bd4ba394f3225863536d5e" target="_top" xlink:title=" ">
<polygon fill="#fff0f0" stroke="red" points="124.38,-20 1.12,-20 1.12,0 124.38,0 124.38,-20"/>
<text xml:space="preserve" text-anchor="middle" x="62.75" y="-6.5" font-family="Helvetica,sans-Serif" font-size="10.00">AsyncServer::_s_accept</text>
</a>
</g>
</g>
<!-- Node12&#45;&gt;Node13 -->
<g id="edge7_Node000012_Node000013" class="edge">
<title>Node12&#45;&gt;Node13</title>
<g id="a_edge7_Node000012_Node000013"><a xlink:title=" ">
<path fill="none" stroke="#63b8ff" d="M149.93,-10C141.59,-10 133.1,-10 124.86,-10"/>
<polygon fill="#63b8ff" stroke="#63b8ff" points="149.65,-13.5 159.65,-10 149.65,-6.5 149.65,-13.5"/>
</a>
</g>
</g>
</g>
</svg>
