<?xml version="1.0" encoding="UTF-8" standalone="no"?>
<!DOCTYPE svg PUBLIC "-//W3C//DTD SVG 1.1//EN"
 "http://www.w3.org/Graphics/SVG/1.1/DTD/svg11.dtd">
<!-- Generated by graphviz version 14.1.2 (20260124.0452)
 -->
<!-- Title: AsyncServer::AsyncServer Pages: 1 -->
<svg width="603pt" height="66pt"
 viewBox="0.00 0.00 603.00 66.00" xmlns="http://www.w3.org/2000/svg" xmlns:xlink="http://www.w3.org/1999/xlink">
<g id="graph0" class="graph" transform="scale(1 1) rotate(0) translate(4 62)">
<title>AsyncServer::AsyncServer</title>
<!-- Node1 -->
<g id="Node000001" class="node">
<title>Node1</title>
<g id="a_Node000001"><a xlink:title=" ">
<polygon fill="#999999" stroke="#666666" points="595,-39 460.5,-39 460.5,-19 595,-19 595,-39"/>
<text xml:space="preserve" text-anchor="middle" x="527.75" y="-25.5" font-family="Helvetica,sans-Serif" font-size="10.00">AsyncServer::AsyncServer</text>
</a>
</g>
</g>
<!-- Node2 -->
<g id="Node000002" class="node">
<title>Node2</title>
<g id="a_Node000002"><a xlink:href="class_async_server.html#a9cfd997e84bd4ba394f3225863536d5e" target="_top" xlink:title=" ">
<polygon fill="white" stroke="#666666" points="419.25,-58 296,-58 296,-38 419.25,-38 419.25,-58"/>
<text xml:space="preserve" text-anchor="middle" x="357.62" y="-44.5" font-family="Helvetica,sans-Serif" font-size="10.00">AsyncServer::_s_accept</text>
</a>
</g>
</g>
<!-- Node1&#45;&gt;Node2 -->
<g id="edge1_Node000001_Node000002" class="edge">
<title>Node1&#45;&gt;Node2</title>
<g id="a_edge1_Node000001_Node000002"><a xlink:title=" ">
<path fill="none" stroke="#63b8ff" d="M448.88,-37.8C439.08,-38.91 429.16,-40.03 419.67,-41.1"/>
<polygon fill="#63b8ff" stroke="#63b8ff" points="449.25,-41.28 458.8,-36.68 448.47,-34.32 449.25,-41.28"/>
</a>
</g>
</g>
<!-- Node4 -->
<g id="Node000004" class="node">
<title>Node4</title>
<g id="a_Node000004"><a xlink:href="class_async_server.html#a68b4c50c0bf8f5109b9981a87d5d34e5" target="_top" xlink:title=" ">
<polygon fill="white" stroke="#666666" points="424.5,-20 290.75,-20 290.75,0 424.5,0 424.5,-20"/>
<text xml:space="preserve" text-anchor="middle" x="357.62" y="-6.5" font-family="Helvetica,sans-Serif" font-size="10.00">AsyncServer::_s_accepted</text>
</a>
</g>
</g>
<!-- Node1&#45;&gt;Node4 -->
<g id="edge3_Node000001_Node000004" class="edge">
<title>Node1&#45;&gt;Node4</title>
<g id="a_edge3_Node000001_Node000004"><a xlink:title=" ">
<path fill="none" stroke="#63b8ff" d="M448.99,-20.21C440.92,-19.3 432.78,-18.38 424.87,-17.49"/>
<polygon fill="#63b8ff" stroke="#63b8ff" points="448.47,-23.68 458.8,-21.32 449.25,-16.72 448.47,-23.68"/>
</a>
</g>
</g>
<!-- Node3 -->
<g id="Node000003" class="node">
<title>Node3</title>
<g id="a_Node000003"><a xlink:href="class_async_server.html#a7e9ce55e4e1d0fab5531bac98ebfb3f9" target="_top" xlink:title=" ">
<polygon fill="white" stroke="#666666" points="250.25,-58 148.75,-58 148.75,-38 250.25,-38 250.25,-58"/>
<text xml:space="preserve" text-anchor="middle" x="199.5" y="-44.5" font-family="Helvetica,sans-Serif" font-size="10.00">AsyncServer::begin</text>
</a>
</g>
</g>
<!-- Node2&#45;&gt;Node3 -->
<g id="edge2_Node000002_Node000003" class="edge">
<title>Node2&#45;&gt;Node3</title>
<g id="a_edge2_Node000002_Node000003"><a xlink:title=" ">
<path fill="none" stroke="#63b8ff" d="M284.38,-48C272.85,-48 261.16,-48 250.3,-48"/>
<polygon fill="#63b8ff" stroke="#63b8ff" points="284.3,-51.5 294.3,-48 284.3,-44.5 284.3,-51.5"/>
</a>
</g>
</g>
<!-- Node5 -->
<g id="Node000005" class="node">
<title>Node5</title>
<g id="a_Node000005"><a xlink:href="_async_t_c_p_8cpp.html#ac4030e968c0e4c0fcbe7a9b4502854c1" target="_top" xlink:title=" ">
<polygon fill="white" stroke="#666666" points="254.75,-20 144.25,-20 144.25,0 254.75,0 254.75,-20"/>
<text xml:space="preserve" text-anchor="middle" x="199.5" y="-6.5" font-family="Helvetica,sans-Serif" font-size="10.00">_handle_async_event</text>
</a>
</g>
</g>
<!-- Node4&#45;&gt;Node5 -->
<g id="edge4_Node000004_Node000005" class="edge">
<title>Node4&#45;&gt;Node5</title>
<g id="a_edge4_Node000004_Node000005"><a xlink:title=" ">
<path fill="none" stroke="#63b8ff" d="M279,-10C270.89,-10 262.78,-10 255.01,-10"/>
<polygon fill="#63b8ff" stroke="#63b8ff" points="278.9,-13.5 288.9,-10 278.9,-6.5 278.9,-13.5"/>
</a>
</g>
</g>
<!-- Node6 -->
<g id="Node000006" class="node">
<title>Node6</title>
<g id="a_Node000006"><a xlink:href="_async_t_c_p_8cpp.html#a87baf4ac2987dd94502c4586a97e552f" target="_top" xlink:title=" ">
<polygon fill="#fff0f0" stroke="red" points="108.25,-20 0,-20 0,0 108.25,0 108.25,-20"/>
<text xml:space="preserve" text-anchor="middle" x="54.12" y="-6.5" font-family="Helvetica,sans-Serif" font-size="10.00">_async_service_task</text>
</a>
</g>
</g>
<!-- Node5&#45;&gt;Node6 -->
<g id="edge5_Node000005_Node000006" class="edge">
<title>Node5&#45;&gt;Node6</title>
<g id="a_edge5_Node000005_Node000006"><a xlink:title=" ">
<path fill="none" stroke="#63b8ff" d="M132.63,-10C124.6,-10 116.46,-10 108.64,-10"/>
<polygon fill="#63b8ff" stroke="#63b8ff" points="132.37,-13.5 142.37,-10 132.37,-6.5 132.37,-13.5"/>
</a>
</g>
</g>
</g>
</svg>
