<?xml version="1.0" encoding="UTF-8" standalone="no"?>
<!DOCTYPE svg PUBLIC "-//W3C//DTD SVG 1.1//EN"
 "http://www.w3.org/Graphics/SVG/1.1/DTD/svg11.dtd">
<!-- Generated by graphviz version 14.1.2 (20260124.0452)
 -->
<!-- Title: AsyncTelnetSerial Pages: 1 -->
<svg width="211pt" height="173pt"
 viewBox="0.00 0.00 211.00 173.00" xmlns="http://www.w3.org/2000/svg" xmlns:xlink="http://www.w3.org/1999/xlink">

<svg id="main" version="1.1" xmlns="http://www.w3.org/2000/svg" xmlns:xlink="http://www.w3.org/1999/xlink" xml:space="preserve">

<style type="text/css"><![CDATA[
.node, .edge {opacity: 0.7;}
.node.selected, .edge.selected {opacity: 1;}
.edge:hover path { stroke: red; }
.edge:hover polygon { stroke: red; fill: red; }
]]></style>
<script type="application/ecmascript" xlink:href="svg.min.js"/>
<svg id="graph" class="graph">
<g id="graph0" class="graph" transform="scale(1 1) rotate(0) translate(4 169)">
<title>AsyncTelnetSerial</title>
<!-- Node1 -->
<g id="Node000001" class="node">
<title>Node1</title>
<g id="a_Node000001"><a xlink:title=" ">
<polygon fill="#999999" stroke="#666666" points="111.5,-20 16.75,-20 16.75,0 111.5,0 111.5,-20"/>
<text xml:space="preserve" text-anchor="middle" x="64.12" y="-6.5" font-family="Helvetica,sans-Serif" font-size="10.00">AsyncTelnetSerial</text>
</a>
</g>
</g>
<!-- Node2 -->
<g id="Node000002" class="node">
<title>Node2</title>
<g id="a_Node000002"><a xlink:href="class_async_telnet.html" target="_top" xlink:title=" ">
<polygon fill="white" stroke="#666666" points="99.12,-77 29.12,-77 29.12,-57 99.12,-57 99.12,-77"/>
<text xml:space="preserve" text-anchor="middle" x="64.12" y="-63.5" font-family="Helvetica,sans-Serif" font-size="10.00">AsyncTelnet</text>
</a>
</g>
</g>
<!-- Node2&#45;&gt;Node1 -->
<g id="edge1_Node000001_Node000002" class="edge">
<title>Node2&#45;&gt;Node1</title>
<g id="a_edge1_Node000001_Node000002"><a xlink:title=" ">
<path fill="none" stroke="#63b8ff" d="M64.12,-45.69C64.12,-36.97 64.12,-27.22 64.12,-20.28"/>
<polygon fill="#63b8ff" stroke="#63b8ff" points="60.63,-45.4 64.13,-55.4 67.63,-45.4 60.63,-45.4"/>
</a>
</g>
</g>
<!-- Node3 -->
<g id="Node000003" class="node">
<title>Node3</title>
<g id="a_Node000003"><a xlink:href="class_async_server.html" target="_top" xlink:title=" ">
<polygon fill="white" stroke="#666666" points="72.25,-158 0,-158 0,-138 72.25,-138 72.25,-158"/>
<text xml:space="preserve" text-anchor="middle" x="36.12" y="-144.5" font-family="Helvetica,sans-Serif" font-size="10.00">AsyncServer</text>
</a>
</g>
</g>
<!-- Node3&#45;&gt;Node2 -->
<g id="edge2_Node000002_Node000003" class="edge">
<title>Node3&#45;&gt;Node2</title>
<g id="a_edge2_Node000002_Node000003"><a xlink:title=" ">
<path fill="none" stroke="#9a32cd" stroke-dasharray="5,2" d="M42.36,-126.81C45.44,-117.14 49.31,-105.41 53.12,-95 55.29,-89.11 57.93,-82.59 60.09,-77.43"/>
<polygon fill="#9a32cd" stroke="#9a32cd" points="39.04,-125.69 39.39,-136.28 45.72,-127.79 39.04,-125.69"/>
</a>
</g>
<text xml:space="preserve" text-anchor="start" x="56.12" y="-100.5" font-family="Helvetica,sans-Serif" font-size="10.00" fill="grey">server</text>
</g>
<!-- Node4 -->
<g id="Node000004" class="node">
<title>Node4</title>
<g id="a_Node000004"><a xlink:href="class_async_client.html" target="_top" xlink:title=" ">
<polygon fill="white" stroke="#666666" points="159.75,-158 90.5,-158 90.5,-138 159.75,-138 159.75,-158"/>
<text xml:space="preserve" text-anchor="middle" x="125.12" y="-144.5" font-family="Helvetica,sans-Serif" font-size="10.00">AsyncClient</text>
</a>
</g>
</g>
<!-- Node4&#45;&gt;Node2 -->
<g id="edge3_Node000002_Node000004" class="edge">
<title>Node4&#45;&gt;Node2</title>
<g id="a_edge3_Node000002_Node000004"><a xlink:title=" ">
<path fill="none" stroke="#9a32cd" stroke-dasharray="5,2" d="M111.68,-128.69C104.24,-118.67 94.78,-106.07 86.12,-95 81.51,-89.09 76.2,-82.57 71.96,-77.42"/>
<polygon fill="#9a32cd" stroke="#9a32cd" points="108.68,-130.53 117.43,-136.49 114.31,-126.37 108.68,-130.53"/>
</a>
</g>
<text xml:space="preserve" text-anchor="start" x="102.19" y="-100.5" font-family="Helvetica,sans-Serif" font-size="10.00" fill="grey">client</text>
</g>
<!-- Node4&#45;&gt;Node4 -->
<g id="edge4_Node000004_Node000004" class="edge">
<title>Node4&#45;&gt;Node4</title>
<g id="a_edge4_Node000004_Node000004"><a xlink:title=" ">
<path fill="none" stroke="#9a32cd" stroke-dasharray="5,2" d="M171.4,-154.41C175.31,-153.04 177.75,-150.9 177.75,-148 177.75,-142.84 170.04,-140.1 160.04,-139.78"/>
<polygon fill="#9a32cd" stroke="#9a32cd" points="170.86,-150.95 161.54,-155.98 171.97,-157.86 170.86,-150.95"/>
</a>
</g>
<text xml:space="preserve" text-anchor="start" x="180.75" y="-152.5" font-family="Helvetica,sans-Serif" font-size="10.00" fill="grey">next</text>
<text xml:space="preserve" text-anchor="start" x="180.75" y="-136.5" font-family="Helvetica,sans-Serif" font-size="10.00" fill="grey">prev</text>
</g>
</g>
</svg>
</svg>

<style type='text/css'>
<![CDATA[
[data-mouse-over-selected='false'] { opacity: 0.7; }
[data-mouse-over-selected='true']  { opacity: 1.0; }
]]>
</style>
<script type="application/ecmascript"><![CDATA[
document.addEventListener('DOMContentLoaded', (event) => {
  highlightEdges();
  highlightAdjacentNodes();
});
]]></script>
</svg>
