<?xml version="1.0" encoding="UTF-8" standalone="no"?>
<!DOCTYPE svg PUBLIC "-//W3C//DTD SVG 1.1//EN"
 "http://www.w3.org/Graphics/SVG/1.1/DTD/svg11.dtd">
<!-- Generated by graphviz version 14.1.2 (20260124.0452)
 -->
<!-- Title: AsyncServer::_accept Pages: 1 -->
<svg width="748pt" height="249pt"
 viewBox="0.00 0.00 748.00 249.00" xmlns="http://www.w3.org/2000/svg" xmlns:xlink="http://www.w3.org/1999/xlink">
<g id="graph0" class="graph" transform="scale(1 1) rotate(0) translate(4 245)">
<title>AsyncServer::_accept</title>
<!-- Node1 -->
<g id="Node000001" class="node">
<title>Node1</title>
<g id="a_Node000001"><a xlink:title=" ">
<polygon fill="#999999" stroke="#666666" points="112.75,-134 0,-134 0,-114 112.75,-114 112.75,-134"/>
<text xml:space="preserve" text-anchor="middle" x="56.38" y="-120.5" font-family="Helvetica,sans-Serif" font-size="10.00">AsyncServer::_accept</text>
</a>
</g>
</g>
<!-- Node2 -->
<g id="Node000002" class="node">
<title>Node2</title>
<g id="a_Node000002"><a xlink:href="_async_t_c_p_8cpp.html#ab02a78d0cd56732252f0c2c27f286369" target="_top" xlink:title=" ">
<polygon fill="white" stroke="#666666" points="247.62,-225 178.38,-225 178.38,-205 247.62,-205 247.62,-225"/>
<text xml:space="preserve" text-anchor="middle" x="213" y="-211.5" font-family="Helvetica,sans-Serif" font-size="10.00">_tcp_accept</text>
</a>
</g>
</g>
<!-- Node1&#45;&gt;Node2 -->
<g id="edge1_Node000001_Node000002" class="edge">
<title>Node1&#45;&gt;Node2</title>
<g id="a_edge1_Node000001_Node000002"><a xlink:title=" ">
<path fill="none" stroke="#63b8ff" d="M75.11,-134.44C101.91,-150.21 152.94,-180.24 184.55,-198.85"/>
<polygon fill="#63b8ff" stroke="#63b8ff" points="182.77,-201.86 193.16,-203.92 186.32,-195.83 182.77,-201.86"/>
</a>
</g>
</g>
<!-- Node4 -->
<g id="Node000004" class="node">
<title>Node4</title>
<g id="a_Node000004"><a xlink:href="class_async_client.html#aefecfa0c75c8c1b32104115e93739087" target="_top" xlink:title=" ">
<polygon fill="white" stroke="#666666" points="277.25,-134 148.75,-134 148.75,-114 277.25,-114 277.25,-134"/>
<text xml:space="preserve" text-anchor="middle" x="213" y="-120.5" font-family="Helvetica,sans-Serif" font-size="10.00">AsyncClient::AsyncClient</text>
</a>
</g>
</g>
<!-- Node1&#45;&gt;Node4 -->
<g id="edge3_Node000001_Node000004" class="edge">
<title>Node1&#45;&gt;Node4</title>
<g id="a_edge3_Node000001_Node000004"><a xlink:title=" ">
<path fill="none" stroke="#63b8ff" d="M113.2,-124C120.96,-124 129.03,-124 137.07,-124"/>
<polygon fill="#63b8ff" stroke="#63b8ff" points="136.87,-127.5 146.87,-124 136.87,-120.5 136.87,-127.5"/>
</a>
</g>
</g>
<!-- Node21 -->
<g id="Node000021" class="node">
<title>Node21</title>
<g id="a_Node000021"><a xlink:href="class_async_client.html#af1819edd57b1ce0666a6cd390bcaf587" target="_top" xlink:title=" ">
<polygon fill="white" stroke="#666666" points="276.5,-96 149.5,-96 149.5,-76 276.5,-76 276.5,-96"/>
<text xml:space="preserve" text-anchor="middle" x="213" y="-82.5" font-family="Helvetica,sans-Serif" font-size="10.00">AsyncClient::setNoDelay</text>
</a>
</g>
</g>
<!-- Node1&#45;&gt;Node21 -->
<g id="edge21_Node000001_Node000021" class="edge">
<title>Node1&#45;&gt;Node21</title>
<g id="a_edge21_Node000001_Node000021"><a xlink:title=" ">
<path fill="none" stroke="#63b8ff" d="M100.04,-113.52C118.12,-109.07 139.39,-103.84 158.51,-99.15"/>
<polygon fill="#63b8ff" stroke="#63b8ff" points="159.13,-102.6 168.01,-96.81 157.46,-95.8 159.13,-102.6"/>
</a>
</g>
</g>
<!-- Node3 -->
<g id="Node000003" class="node">
<title>Node3</title>
<g id="a_Node000003"><a xlink:href="_async_t_c_p_8cpp.html#a42bebdded16714188a8e554237aad2f3" target="_top" xlink:title=" ">
<polygon fill="white" stroke="#666666" points="740,-216 623.5,-216 623.5,-196 740,-196 740,-216"/>
<text xml:space="preserve" text-anchor="middle" x="681.75" y="-202.5" font-family="Helvetica,sans-Serif" font-size="10.00">_prepend_async_event</text>
</a>
</g>
</g>
<!-- Node2&#45;&gt;Node3 -->
<g id="edge2_Node000002_Node000003" class="edge">
<title>Node2&#45;&gt;Node3</title>
<g id="a_edge2_Node000002_Node000003"><a xlink:title=" ">
<path fill="none" stroke="#63b8ff" d="M247.83,-221.83C266.94,-225.34 291.33,-229.24 313.25,-231 434.75,-240.73 466.65,-246.92 587.5,-231 604.78,-228.72 623.41,-224.17 639.44,-219.57"/>
<polygon fill="#63b8ff" stroke="#63b8ff" points="640.04,-223.04 648.63,-216.83 638.04,-216.33 640.04,-223.04"/>
</a>
</g>
</g>
<!-- Node4&#45;&gt;Node4 -->
<g id="edge20_Node000004_Node000004" class="edge">
<title>Node4&#45;&gt;Node4</title>
<g id="a_edge20_Node000004_Node000004"><a xlink:title=" ">
<path fill="none" stroke="#63b8ff" d="M188.11,-134.34C177.48,-142.98 185.77,-152 213,-152 227.89,-152 237.12,-149.3 240.68,-145.44"/>
<polygon fill="#63b8ff" stroke="#63b8ff" points="244.09,-144.65 238.26,-135.81 237.3,-146.36 244.09,-144.65"/>
</a>
</g>
</g>
<!-- Node5 -->
<g id="Node000005" class="node">
<title>Node5</title>
<g id="a_Node000005"><a xlink:href="class_async_client.html#ab0422e5254ea4fbac9f87188a018ebc4" target="_top" xlink:title=" ">
<polygon fill="white" stroke="#666666" points="427.5,-222 313.25,-222 313.25,-190 427.5,-190 427.5,-222"/>
<text xml:space="preserve" text-anchor="start" x="321.25" y="-208.5" font-family="Helvetica,sans-Serif" font-size="10.00">AsyncClient::_allocate</text>
<text xml:space="preserve" text-anchor="middle" x="370.38" y="-196.5" font-family="Helvetica,sans-Serif" font-size="10.00">_closed_slot</text>
</a>
</g>
</g>
<!-- Node4&#45;&gt;Node5 -->
<g id="edge4_Node000004_Node000005" class="edge">
<title>Node4&#45;&gt;Node5</title>
<g id="a_edge4_Node000004_Node000005"><a xlink:title=" ">
<path fill="none" stroke="#63b8ff" d="M230.92,-134.43C250.44,-146.29 283.67,-165.97 313.25,-181 315.75,-182.27 318.32,-183.54 320.93,-184.8"/>
<polygon fill="#63b8ff" stroke="#63b8ff" points="319.18,-187.84 329.72,-188.93 322.16,-181.51 319.18,-187.84"/>
</a>
</g>
</g>
<!-- Node6 -->
<g id="Node000006" class="node">
<title>Node6</title>
<g id="a_Node000006"><a xlink:href="class_async_client.html#a98ff872bc84919f006f3bb8a249ed36d" target="_top" xlink:title=" ">
<polygon fill="white" stroke="#666666" points="422.25,-172 318.5,-172 318.5,-152 422.25,-152 422.25,-172"/>
<text xml:space="preserve" text-anchor="middle" x="370.38" y="-158.5" font-family="Helvetica,sans-Serif" font-size="10.00">AsyncClient::_close</text>
</a>
</g>
</g>
<!-- Node4&#45;&gt;Node6 -->
<g id="edge5_Node000004_Node000006" class="edge">
<title>Node4&#45;&gt;Node6</title>
<g id="a_edge5_Node000004_Node000006"><a xlink:title=" ">
<path fill="none" stroke="#63b8ff" d="M256.87,-134.48C275.04,-138.93 296.42,-144.16 315.63,-148.85"/>
<polygon fill="#63b8ff" stroke="#63b8ff" points="314.63,-152.21 325.18,-151.19 316.29,-145.41 314.63,-152.21"/>
</a>
</g>
</g>
<!-- Node14 -->
<g id="Node000014" class="node">
<title>Node14</title>
<g id="a_Node000014"><a xlink:href="_async_t_c_p_8cpp.html#a61ff9f7f886bbbbcdc1daca453828934" target="_top" xlink:title=" ">
<polygon fill="white" stroke="#666666" points="400.12,-134 340.62,-134 340.62,-114 400.12,-114 400.12,-134"/>
<text xml:space="preserve" text-anchor="middle" x="370.38" y="-120.5" font-family="Helvetica,sans-Serif" font-size="10.00">_tcp_error</text>
</a>
</g>
</g>
<!-- Node4&#45;&gt;Node14 -->
<g id="edge11_Node000004_Node000014" class="edge">
<title>Node4&#45;&gt;Node14</title>
<g id="a_edge11_Node000004_Node000014"><a xlink:title=" ">
<path fill="none" stroke="#63b8ff" d="M277.65,-124C295.01,-124 313.34,-124 329.01,-124"/>
<polygon fill="#63b8ff" stroke="#63b8ff" points="328.91,-127.5 338.91,-124 328.91,-120.5 328.91,-127.5"/>
</a>
</g>
</g>
<!-- Node16 -->
<g id="Node000016" class="node">
<title>Node16</title>
<g id="a_Node000016"><a xlink:href="_async_t_c_p_8cpp.html#ad4b2c6c935c211eef5884f25a950e445" target="_top" xlink:title=" ">
<polygon fill="white" stroke="#666666" points="397.88,-96 342.88,-96 342.88,-76 397.88,-76 397.88,-96"/>
<text xml:space="preserve" text-anchor="middle" x="370.38" y="-82.5" font-family="Helvetica,sans-Serif" font-size="10.00">_tcp_poll</text>
</a>
</g>
</g>
<!-- Node4&#45;&gt;Node16 -->
<g id="edge13_Node000004_Node000016" class="edge">
<title>Node4&#45;&gt;Node16</title>
<g id="a_edge13_Node000004_Node000016"><a xlink:title=" ">
<path fill="none" stroke="#63b8ff" d="M256.87,-113.52C280.27,-107.79 309,-100.77 331.56,-95.25"/>
<polygon fill="#63b8ff" stroke="#63b8ff" points="332.39,-98.65 341.27,-92.87 330.73,-91.85 332.39,-98.65"/>
</a>
</g>
</g>
<!-- Node17 -->
<g id="Node000017" class="node">
<title>Node17</title>
<g id="a_Node000017"><a xlink:href="_async_t_c_p_8cpp.html#adf7826424bf5b1035c4850f6b3307686" target="_top" xlink:title=" ">
<polygon fill="white" stroke="#666666" points="399.75,-20 341,-20 341,0 399.75,0 399.75,-20"/>
<text xml:space="preserve" text-anchor="middle" x="370.38" y="-6.5" font-family="Helvetica,sans-Serif" font-size="10.00">_tcp_recv</text>
</a>
</g>
</g>
<!-- Node4&#45;&gt;Node17 -->
<g id="edge15_Node000004_Node000017" class="edge">
<title>Node4&#45;&gt;Node17</title>
<g id="a_edge15_Node000004_Node000017"><a xlink:title=" ">
<path fill="none" stroke="#63b8ff" d="M263.78,-113.56C268.65,-111.25 273.25,-108.44 277.25,-105 305.59,-80.63 285.33,-53.85 313.25,-29 318,-24.77 323.74,-21.47 329.7,-18.91"/>
<polygon fill="#63b8ff" stroke="#63b8ff" points="330.86,-22.21 339.1,-15.54 328.5,-15.62 330.86,-22.21"/>
</a>
</g>
</g>
<!-- Node20 -->
<g id="Node000020" class="node">
<title>Node20</title>
<g id="a_Node000020"><a xlink:href="_async_t_c_p_8cpp.html#a0b47280aff638ec9b80f7a87dfe54ea6" target="_top" xlink:title=" ">
<polygon fill="white" stroke="#666666" points="399.75,-58 341,-58 341,-38 399.75,-38 399.75,-58"/>
<text xml:space="preserve" text-anchor="middle" x="370.38" y="-44.5" font-family="Helvetica,sans-Serif" font-size="10.00">_tcp_sent</text>
</a>
</g>
</g>
<!-- Node4&#45;&gt;Node20 -->
<g id="edge18_Node000004_Node000020" class="edge">
<title>Node4&#45;&gt;Node20</title>
<g id="a_edge18_Node000004_Node000020"><a xlink:title=" ">
<path fill="none" stroke="#63b8ff" d="M259.15,-113.62C265.46,-111.27 271.69,-108.43 277.25,-105 297.06,-92.8 293.66,-79.54 313.25,-67 318.45,-63.67 324.29,-60.86 330.2,-58.51"/>
<polygon fill="#63b8ff" stroke="#63b8ff" points="331.08,-61.91 339.33,-55.26 328.73,-55.31 331.08,-61.91"/>
</a>
</g>
</g>
<!-- Node7 -->
<g id="Node000007" class="node">
<title>Node7</title>
<g id="a_Node000007"><a xlink:href="class_async_client.html#aff6a2fbf261b25e1fcd35c11cce348a5" target="_top" xlink:title=" ">
<polygon fill="white" stroke="#666666" points="574,-222 477,-222 477,-190 574,-190 574,-222"/>
<text xml:space="preserve" text-anchor="start" x="485" y="-208.5" font-family="Helvetica,sans-Serif" font-size="10.00">AsyncClient::_free</text>
<text xml:space="preserve" text-anchor="middle" x="525.5" y="-196.5" font-family="Helvetica,sans-Serif" font-size="10.00">_closed_slot</text>
</a>
</g>
</g>
<!-- Node6&#45;&gt;Node7 -->
<g id="edge6_Node000006_Node000007" class="edge">
<title>Node6&#45;&gt;Node7</title>
<g id="a_edge6_Node000006_Node000007"><a xlink:title=" ">
<path fill="none" stroke="#63b8ff" d="M407.66,-172.43C424.97,-177.4 446.11,-183.48 465.63,-189.09"/>
<polygon fill="#63b8ff" stroke="#63b8ff" points="464.55,-192.42 475.13,-191.81 466.49,-185.69 464.55,-192.42"/>
</a>
</g>
</g>
<!-- Node8 -->
<g id="Node000008" class="node">
<title>Node8</title>
<g id="a_Node000008"><a xlink:href="_async_t_c_p_8cpp.html#ab053d5adb5be879f37181af512213bb6" target="_top" xlink:title=" ">
<polygon fill="white" stroke="#666666" points="573.25,-172 477.75,-172 477.75,-152 573.25,-152 573.25,-172"/>
<text xml:space="preserve" text-anchor="middle" x="525.5" y="-158.5" font-family="Helvetica,sans-Serif" font-size="10.00">_tcp_clear_events</text>
</a>
</g>
</g>
<!-- Node6&#45;&gt;Node8 -->
<g id="edge7_Node000006_Node000008" class="edge">
<title>Node6&#45;&gt;Node8</title>
<g id="a_edge7_Node000006_Node000008"><a xlink:title=" ">
<path fill="none" stroke="#63b8ff" d="M422.36,-162C436.37,-162 451.66,-162 466.05,-162"/>
<polygon fill="#63b8ff" stroke="#63b8ff" points="465.84,-165.5 475.84,-162 465.84,-158.5 465.84,-165.5"/>
</a>
</g>
</g>
<!-- Node9 -->
<g id="Node000009" class="node">
<title>Node9</title>
<g id="a_Node000009"><a xlink:href="_async_t_c_p_8cpp.html#a3602c1ebfae2fb2ff64a0e3d7b0568ce" target="_top" xlink:title=" ">
<polygon fill="#fff0f0" stroke="red" points="557.12,-134 493.88,-134 493.88,-114 557.12,-114 557.12,-134"/>
<text xml:space="preserve" text-anchor="middle" x="525.5" y="-120.5" font-family="Helvetica,sans-Serif" font-size="10.00">_tcp_close</text>
</a>
</g>
</g>
<!-- Node6&#45;&gt;Node9 -->
<g id="edge9_Node000006_Node000009" class="edge">
<title>Node6&#45;&gt;Node9</title>
<g id="a_edge9_Node000006_Node000009"><a xlink:title=" ">
<path fill="none" stroke="#63b8ff" d="M413.62,-151.52C435.08,-146.19 461.08,-139.74 482.5,-134.42"/>
<polygon fill="#63b8ff" stroke="#63b8ff" points="483.23,-137.85 492.09,-132.04 481.54,-131.05 483.23,-137.85"/>
</a>
</g>
</g>
<!-- Node11 -->
<g id="Node000011" class="node">
<title>Node11</title>
<g id="a_Node000011"><a xlink:href="class_async_client.html#a09e777ff005d8e0f81166e704dc14979" target="_top" xlink:title=" ">
<polygon fill="#fff0f0" stroke="red" points="574,-96 477,-96 477,-76 574,-76 574,-96"/>
<text xml:space="preserve" text-anchor="middle" x="525.5" y="-82.5" font-family="Helvetica,sans-Serif" font-size="10.00">AsyncClient::abort</text>
</a>
</g>
</g>
<!-- Node6&#45;&gt;Node11 -->
<g id="edge10_Node000006_Node000011" class="edge">
<title>Node6&#45;&gt;Node11</title>
<g id="a_edge10_Node000006_Node000011"><a xlink:title=" ">
<path fill="none" stroke="#63b8ff" d="M410.26,-151.61C416.26,-149.23 422.21,-146.38 427.5,-143 447.09,-130.46 443.75,-117.3 463.5,-105 465.8,-103.56 468.22,-102.23 470.72,-100.99"/>
<polygon fill="#63b8ff" stroke="#63b8ff" points="472.1,-104.2 479.89,-97.01 469.32,-97.78 472.1,-104.2"/>
</a>
</g>
</g>
<!-- Node8&#45;&gt;Node3 -->
<g id="edge8_Node000008_Node000003" class="edge">
<title>Node8&#45;&gt;Node3</title>
<g id="a_edge8_Node000008_Node000003"><a xlink:title=" ">
<path fill="none" stroke="#63b8ff" d="M563.06,-172.43C584.01,-178.41 610.56,-185.98 633.13,-192.42"/>
<polygon fill="#63b8ff" stroke="#63b8ff" points="632.16,-195.78 642.73,-195.16 634.08,-189.05 632.16,-195.78"/>
</a>
</g>
</g>
<!-- Node15 -->
<g id="Node000015" class="node">
<title>Node15</title>
<g id="a_Node000015"><a xlink:href="_async_t_c_p_8cpp.html#a796c13746a84a6b2e7370ddbec97ad5b" target="_top" xlink:title=" ">
<polygon fill="white" stroke="#666666" points="577,-58 474,-58 474,-38 577,-38 577,-58"/>
<text xml:space="preserve" text-anchor="middle" x="525.5" y="-44.5" font-family="Helvetica,sans-Serif" font-size="10.00">_send_async_event</text>
</a>
</g>
</g>
<!-- Node14&#45;&gt;Node15 -->
<g id="edge12_Node000014_Node000015" class="edge">
<title>Node14&#45;&gt;Node15</title>
<g id="a_edge12_Node000014_Node000015"><a xlink:title=" ">
<path fill="none" stroke="#63b8ff" d="M400.57,-117.07C409.63,-114.16 419.36,-110.21 427.5,-105 447.09,-92.46 443.75,-79.3 463.5,-67 465.8,-65.56 468.22,-64.23 470.72,-62.99"/>
<polygon fill="#63b8ff" stroke="#63b8ff" points="472.1,-66.2 479.89,-59.01 469.32,-59.78 472.1,-66.2"/>
</a>
</g>
</g>
<!-- Node16&#45;&gt;Node15 -->
<g id="edge14_Node000016_Node000015" class="edge">
<title>Node16&#45;&gt;Node15</title>
<g id="a_edge14_Node000016_Node000015"><a xlink:title=" ">
<path fill="none" stroke="#63b8ff" d="M398.05,-79.38C418.18,-74.38 446.48,-67.36 471.2,-61.23"/>
<polygon fill="#63b8ff" stroke="#63b8ff" points="471.93,-64.65 480.79,-58.85 470.24,-57.86 471.93,-64.65"/>
</a>
</g>
</g>
<!-- Node17&#45;&gt;Node15 -->
<g id="edge17_Node000017_Node000015" class="edge">
<title>Node17&#45;&gt;Node15</title>
<g id="a_edge17_Node000017_Node000015"><a xlink:title=" ">
<path fill="none" stroke="#63b8ff" d="M400.18,-17.15C420.15,-22.1 447.33,-28.85 471.19,-34.77"/>
<polygon fill="#63b8ff" stroke="#63b8ff" points="470.21,-38.13 480.76,-37.15 471.9,-31.34 470.21,-38.13"/>
</a>
</g>
</g>
<!-- Node18 -->
<g id="Node000018" class="node">
<title>Node18</title>
<g id="a_Node000018"><a xlink:href="class_async_client.html#a485b2be0c01d3172928c0ed9655edc2f" target="_top" xlink:title=" ">
<polygon fill="#fff0f0" stroke="red" points="587.5,-20 463.5,-20 463.5,0 587.5,0 587.5,-20"/>
<text xml:space="preserve" text-anchor="middle" x="525.5" y="-6.5" font-family="Helvetica,sans-Serif" font-size="10.00">AsyncClient::_s_lwip_fin</text>
</a>
</g>
</g>
<!-- Node17&#45;&gt;Node18 -->
<g id="edge16_Node000017_Node000018" class="edge">
<title>Node17&#45;&gt;Node18</title>
<g id="a_edge16_Node000017_Node000018"><a xlink:title=" ">
<path fill="none" stroke="#63b8ff" d="M400.18,-10C414.88,-10 433.51,-10 451.83,-10"/>
<polygon fill="#63b8ff" stroke="#63b8ff" points="451.65,-13.5 461.65,-10 451.65,-6.5 451.65,-13.5"/>
</a>
</g>
</g>
<!-- Node20&#45;&gt;Node15 -->
<g id="edge19_Node000020_Node000015" class="edge">
<title>Node20&#45;&gt;Node15</title>
<g id="a_edge19_Node000020_Node000015"><a xlink:title=" ">
<path fill="none" stroke="#63b8ff" d="M400.18,-48C417.65,-48 440.66,-48 462.13,-48"/>
<polygon fill="#63b8ff" stroke="#63b8ff" points="461.99,-51.5 471.99,-48 461.99,-44.5 461.99,-51.5"/>
</a>
</g>
</g>
</g>
</svg>
