<?xml version="1.0" encoding="UTF-8" standalone="no"?>
<!DOCTYPE svg PUBLIC "-//W3C//DTD SVG 1.1//EN"
 "http://www.w3.org/Graphics/SVG/1.1/DTD/svg11.dtd">
<!-- Generated by graphviz version 14.1.2 (20260124.0452)
 -->
<!-- Title: AsyncClient::operator!= Pages: 1 -->
<!--zoomable 317 -->

<svg id="main" version="1.1" xmlns="http://www.w3.org/2000/svg" xmlns:xlink="http://www.w3.org/1999/xlink" xml:space="preserve" onload="init(evt)">

<style type="text/css"><![CDATA[
.node, .edge {opacity: 0.7;}
.node.selected, .edge.selected {opacity: 1;}
.edge:hover path { stroke: red; }
.edge:hover polygon { stroke: red; fill: red; }
]]></style>

<defs>
  <circle id="rim" cx="0" cy="0" r="7"/>
  <circle id="rim2" cx="0" cy="0" r="3.5"/>
  <g id="zoomPlus">
    <use xlink:href="#rim" fill="#404040"><set attributeName="fill" to="#808080" begin="zoomplus.mouseover" end="zoomplus.mouseout"/></use>
    <path d="M-4,0h8M0,-4v8" fill="none" stroke="white" stroke-width="1.5" pointer-events="none"/>
  </g>
  <g id="zoomMin">
    <use xlink:href="#rim" fill="#404040"><set attributeName="fill" to="#808080" begin="zoomminus.mouseover" end="zoomminus.mouseout"/></use>
    <path d="M-4,0h8" fill="none" stroke="white" stroke-width="1.5" pointer-events="none"/>
  </g>
  <g id="arrowUp" transform="translate(30 24)">
    <use xlink:href="#rim"/>
    <path pointer-events="none" fill="none" stroke="white" stroke-width="1.5" d="M0,-3.0v7 M-2.5,-0.5L0,-3.0L2.5,-0.5"/>
  </g>
  <g id="arrowRight" transform="rotate(90) translate(36 -43)">
    <use xlink:href="#rim"/>
    <path pointer-events="none" fill="none" stroke="white" stroke-width="1.5" d="M0,-3.0v7 M-2.5,-0.5L0,-3.0L2.5,-0.5"/>
  </g>
  <g id="arrowDown" transform="rotate(180) translate(-30 -48)">
    <use xlink:href="#rim"/>
    <path pointer-events="none" fill="none" stroke="white" stroke-width="1.5" d="M0,-3.0v7 M-2.5,-0.5L0,-3.0L2.5,-0.5"/>
  </g>
  <g id="arrowLeft" transform="rotate(270) translate(-36 17)">
    <use xlink:href="#rim"/>
    <path pointer-events="none" fill="none" stroke="white" stroke-width="1.5" d="M0,-3.0v7 M-2.5,-0.5L0,-3.0L2.5,-0.5"/>
  </g>
  <g id="resetDef">
    <use xlink:href="#rim2" fill="#404040"><set attributeName="fill" to="#808080" begin="reset.mouseover" end="reset.mouseout"/></use>
  </g>
</defs>
<script type="application/ecmascript">
var viewWidth = 729;
var viewHeight = 317;
var sectionId = 'dynsection-64';
</script>
<script type="application/ecmascript" xlink:href="svg.min.js"/>
<svg id="graph" class="graph">
<g id="viewport">
<title>AsyncClient::operator!=</title>
<!-- Node1 -->
<g id="Node000001" class="node">
<title>Node1</title>
<g id="a_Node000001"><a xlink:title=" ">
<polygon fill="#999999" stroke="#666666" points="119.5,-145.2 0,-145.2 0,-125.2 119.5,-125.2 119.5,-145.2"/>
<text xml:space="preserve" text-anchor="middle" x="59.75" y="-131.7" font-family="Helvetica,sans-Serif" font-size="10.00">AsyncClient::operator!=</text>
</a>
</g>
</g>
<!-- Node2 -->
<g id="Node000002" class="node">
<title>Node2</title>
<g id="a_Node000002"><a xlink:href="class_async_client.html#aefecfa0c75c8c1b32104115e93739087" target="_top" xlink:title=" ">
<polygon fill="white" stroke="#666666" points="284,-145.2 155.5,-145.2 155.5,-125.2 284,-125.2 284,-145.2"/>
<text xml:space="preserve" text-anchor="middle" x="219.75" y="-131.7" font-family="Helvetica,sans-Serif" font-size="10.00">AsyncClient::AsyncClient</text>
</a>
</g>
</g>
<!-- Node1&#45;&gt;Node2 -->
<g id="edge1_Node000001_Node000002" class="edge">
<title>Node1&#45;&gt;Node2</title>
<g id="a_edge1_Node000001_Node000002"><a xlink:title=" ">
<path fill="none" stroke="#63b8ff" d="M119.58,-135.2C127.46,-135.2 135.61,-135.2 143.72,-135.2"/>
<polygon fill="#63b8ff" stroke="#63b8ff" points="143.58,-138.7 153.58,-135.2 143.58,-131.7 143.58,-138.7"/>
</a>
</g>
</g>
<!-- Node3 -->
<g id="Node000003" class="node">
<title>Node3</title>
<g id="a_Node000003"><a xlink:href="class_async_client.html#ab0422e5254ea4fbac9f87188a018ebc4" target="_top" xlink:title=" ">
<polygon fill="white" stroke="#666666" points="434.25,-290.2 320,-290.2 320,-258.2 434.25,-258.2 434.25,-290.2"/>
<text xml:space="preserve" text-anchor="start" x="328" y="-276.7" font-family="Helvetica,sans-Serif" font-size="10.00">AsyncClient::_allocate</text>
<text xml:space="preserve" text-anchor="middle" x="377.12" y="-264.7" font-family="Helvetica,sans-Serif" font-size="10.00">_closed_slot</text>
</a>
</g>
</g>
<!-- Node2&#45;&gt;Node3 -->
<g id="edge2_Node000002_Node000003" class="edge">
<title>Node2&#45;&gt;Node3</title>
<g id="a_edge2_Node000002_Node000003"><a xlink:title=" ">
<path fill="none" stroke="#63b8ff" d="M227.51,-145.68C242.07,-167.52 278.44,-218.46 320,-249.2 321.34,-250.19 322.73,-251.16 324.15,-252.09"/>
<polygon fill="#63b8ff" stroke="#63b8ff" points="322.22,-255.02 332.61,-257.08 325.78,-248.99 322.22,-255.02"/>
</a>
</g>
</g>
<!-- Node4 -->
<g id="Node000004" class="node">
<title>Node4</title>
<g id="a_Node000004"><a xlink:href="class_async_client.html#a98ff872bc84919f006f3bb8a249ed36d" target="_top" xlink:title=" ">
<polygon fill="white" stroke="#666666" points="429,-240.2 325.25,-240.2 325.25,-220.2 429,-220.2 429,-240.2"/>
<text xml:space="preserve" text-anchor="middle" x="377.12" y="-226.7" font-family="Helvetica,sans-Serif" font-size="10.00">AsyncClient::_close</text>
</a>
</g>
</g>
<!-- Node2&#45;&gt;Node4 -->
<g id="edge3_Node000002_Node000004" class="edge">
<title>Node2&#45;&gt;Node4</title>
<g id="a_edge3_Node000002_Node000004"><a xlink:title=" ">
<path fill="none" stroke="#63b8ff" d="M231.81,-145.66C249.3,-161.71 284.96,-192.51 320,-211.2 322.85,-212.72 325.85,-214.15 328.91,-215.5"/>
<polygon fill="#63b8ff" stroke="#63b8ff" points="327.48,-218.7 338.06,-219.16 330.08,-212.2 327.48,-218.7"/>
</a>
</g>
</g>
<!-- Node13 -->
<g id="Node000013" class="node">
<title>Node13</title>
<g id="a_Node000013"><a xlink:href="_async_t_c_p_8cpp.html#a61ff9f7f886bbbbcdc1daca453828934" target="_top" xlink:title=" ">
<polygon fill="white" stroke="#666666" points="406.88,-202.2 347.38,-202.2 347.38,-182.2 406.88,-182.2 406.88,-202.2"/>
<text xml:space="preserve" text-anchor="middle" x="377.12" y="-188.7" font-family="Helvetica,sans-Serif" font-size="10.00">_tcp_error</text>
</a>
</g>
</g>
<!-- Node2&#45;&gt;Node13 -->
<g id="edge8_Node000002_Node000013" class="edge">
<title>Node2&#45;&gt;Node13</title>
<g id="a_edge8_Node000002_Node000013"><a xlink:title=" ">
<path fill="none" stroke="#63b8ff" d="M247.18,-145.65C267.12,-153.44 295.18,-164.25 320,-173.2 325.17,-175.07 330.63,-176.98 336.03,-178.84"/>
<polygon fill="#63b8ff" stroke="#63b8ff" points="334.89,-182.15 345.49,-182.07 337.15,-175.53 334.89,-182.15"/>
</a>
</g>
</g>
<!-- Node15 -->
<g id="Node000015" class="node">
<title>Node15</title>
<g id="a_Node000015"><a xlink:href="_async_t_c_p_8cpp.html#ad4b2c6c935c211eef5884f25a950e445" target="_top" xlink:title=" ">
<polygon fill="white" stroke="#666666" points="404.62,-164.2 349.62,-164.2 349.62,-144.2 404.62,-144.2 404.62,-164.2"/>
<text xml:space="preserve" text-anchor="middle" x="377.12" y="-150.7" font-family="Helvetica,sans-Serif" font-size="10.00">_tcp_poll</text>
</a>
</g>
</g>
<!-- Node2&#45;&gt;Node15 -->
<g id="edge10_Node000002_Node000015" class="edge">
<title>Node2&#45;&gt;Node15</title>
<g id="a_edge10_Node000002_Node000015"><a xlink:title=" ">
<path fill="none" stroke="#63b8ff" d="M284.4,-142.98C302.6,-145.21 321.88,-147.57 338.03,-149.54"/>
<polygon fill="#63b8ff" stroke="#63b8ff" points="337.33,-152.98 347.68,-150.72 338.18,-146.03 337.33,-152.98"/>
</a>
</g>
</g>
<!-- Node16 -->
<g id="Node000016" class="node">
<title>Node16</title>
<g id="a_Node000016"><a xlink:href="_async_t_c_p_8cpp.html#adf7826424bf5b1035c4850f6b3307686" target="_top" xlink:title=" ">
<polygon fill="white" stroke="#666666" points="406.5,-88.2 347.75,-88.2 347.75,-68.2 406.5,-68.2 406.5,-88.2"/>
<text xml:space="preserve" text-anchor="middle" x="377.12" y="-74.7" font-family="Helvetica,sans-Serif" font-size="10.00">_tcp_recv</text>
</a>
</g>
</g>
<!-- Node2&#45;&gt;Node16 -->
<g id="edge12_Node000002_Node000016" class="edge">
<title>Node2&#45;&gt;Node16</title>
<g id="a_edge12_Node000002_Node000016"><a xlink:title=" ">
<path fill="none" stroke="#63b8ff" d="M247.18,-124.76C267.12,-116.96 295.18,-106.15 320,-97.2 325.43,-95.24 331.17,-93.23 336.82,-91.29"/>
<polygon fill="#63b8ff" stroke="#63b8ff" points="337.73,-94.68 346.06,-88.14 335.47,-88.05 337.73,-94.68"/>
</a>
</g>
</g>
<!-- Node19 -->
<g id="Node000019" class="node">
<title>Node19</title>
<g id="a_Node000019"><a xlink:href="class_async_client.html#ac0c28dd08517243bc6d64d32f982a3cc" target="_top" xlink:title=" ">
<polygon fill="white" stroke="#666666" points="721.25,-31.2 630.25,-31.2 630.25,-11.2 721.25,-11.2 721.25,-31.2"/>
<text xml:space="preserve" text-anchor="middle" x="675.75" y="-17.7" font-family="Helvetica,sans-Serif" font-size="10.00">AsyncClient::pcb</text>
</a>
</g>
</g>
<!-- Node2&#45;&gt;Node19 -->
<g id="edge19_Node000002_Node000019" class="edge">
<title>Node2&#45;&gt;Node19</title>
<g id="a_edge19_Node000002_Node000019"><a xlink:title=" ">
<path fill="none" stroke="#63b8ff" d="M227.15,-124.87C241.03,-103.52 276.19,-54.84 320,-34.2 416.98,11.48 545.95,1.09 618.67,-10.27"/>
<polygon fill="#63b8ff" stroke="#63b8ff" points="617.91,-13.69 628.35,-11.85 619.04,-6.79 617.91,-13.69"/>
</a>
</g>
</g>
<!-- Node20 -->
<g id="Node000020" class="node">
<title>Node20</title>
<g id="a_Node000020"><a xlink:href="_async_t_c_p_8cpp.html#a0b47280aff638ec9b80f7a87dfe54ea6" target="_top" xlink:title=" ">
<polygon fill="white" stroke="#666666" points="406.5,-126.2 347.75,-126.2 347.75,-106.2 406.5,-106.2 406.5,-126.2"/>
<text xml:space="preserve" text-anchor="middle" x="377.12" y="-112.7" font-family="Helvetica,sans-Serif" font-size="10.00">_tcp_sent</text>
</a>
</g>
</g>
<!-- Node2&#45;&gt;Node20 -->
<g id="edge17_Node000002_Node000020" class="edge">
<title>Node2&#45;&gt;Node20</title>
<g id="a_edge17_Node000002_Node000020"><a xlink:title=" ">
<path fill="none" stroke="#63b8ff" d="M284.4,-127.42C302.06,-125.26 320.74,-122.97 336.59,-121.04"/>
<polygon fill="#63b8ff" stroke="#63b8ff" points="336.57,-124.56 346.08,-119.88 335.72,-117.62 336.57,-124.56"/>
</a>
</g>
</g>
<!-- Node5 -->
<g id="Node000005" class="node">
<title>Node5</title>
<g id="a_Node000005"><a xlink:href="class_async_client.html#aff6a2fbf261b25e1fcd35c11cce348a5" target="_top" xlink:title=" ">
<polygon fill="white" stroke="#666666" points="580.75,-309.2 483.75,-309.2 483.75,-277.2 580.75,-277.2 580.75,-309.2"/>
<text xml:space="preserve" text-anchor="start" x="491.75" y="-295.7" font-family="Helvetica,sans-Serif" font-size="10.00">AsyncClient::_free</text>
<text xml:space="preserve" text-anchor="middle" x="532.25" y="-283.7" font-family="Helvetica,sans-Serif" font-size="10.00">_closed_slot</text>
</a>
</g>
</g>
<!-- Node4&#45;&gt;Node5 -->
<g id="edge4_Node000004_Node000005" class="edge">
<title>Node4&#45;&gt;Node5</title>
<g id="a_edge4_Node000004_Node000005"><a xlink:title=" ">
<path fill="none" stroke="#63b8ff" d="M411.99,-240.69C419.41,-243.26 427.16,-246.15 434.25,-249.2 450.87,-256.35 453.86,-260.54 470.25,-268.2 473.17,-269.56 476.18,-270.93 479.23,-272.28"/>
<polygon fill="#63b8ff" stroke="#63b8ff" points="477.71,-275.44 488.28,-276.19 480.49,-269.01 477.71,-275.44"/>
</a>
</g>
</g>
<!-- Node6 -->
<g id="Node000006" class="node">
<title>Node6</title>
<g id="a_Node000006"><a xlink:href="_async_t_c_p_8cpp.html#ab053d5adb5be879f37181af512213bb6" target="_top" xlink:title=" ">
<polygon fill="#fff0f0" stroke="red" points="580,-259.2 484.5,-259.2 484.5,-239.2 580,-239.2 580,-259.2"/>
<text xml:space="preserve" text-anchor="middle" x="532.25" y="-245.7" font-family="Helvetica,sans-Serif" font-size="10.00">_tcp_clear_events</text>
</a>
</g>
</g>
<!-- Node4&#45;&gt;Node6 -->
<g id="edge5_Node000004_Node000006" class="edge">
<title>Node4&#45;&gt;Node6</title>
<g id="a_edge5_Node000004_Node000006"><a xlink:title=" ">
<path fill="none" stroke="#63b8ff" d="M429.11,-236.53C443.12,-238.27 458.41,-240.16 472.8,-241.95"/>
<polygon fill="#63b8ff" stroke="#63b8ff" points="472.25,-245.41 482.6,-243.16 473.11,-238.46 472.25,-245.41"/>
</a>
</g>
</g>
<!-- Node8 -->
<g id="Node000008" class="node">
<title>Node8</title>
<g id="a_Node000008"><a xlink:href="_async_t_c_p_8cpp.html#a3602c1ebfae2fb2ff64a0e3d7b0568ce" target="_top" xlink:title=" ">
<polygon fill="#fff0f0" stroke="red" points="563.88,-221.2 500.62,-221.2 500.62,-201.2 563.88,-201.2 563.88,-221.2"/>
<text xml:space="preserve" text-anchor="middle" x="532.25" y="-207.7" font-family="Helvetica,sans-Serif" font-size="10.00">_tcp_close</text>
</a>
</g>
</g>
<!-- Node4&#45;&gt;Node8 -->
<g id="edge6_Node000004_Node000008" class="edge">
<title>Node4&#45;&gt;Node8</title>
<g id="a_edge6_Node000004_Node000008"><a xlink:title=" ">
<path fill="none" stroke="#63b8ff" d="M429.11,-223.87C448.62,-221.45 470.62,-218.72 489.2,-216.42"/>
<polygon fill="#63b8ff" stroke="#63b8ff" points="489.57,-219.9 499.06,-215.2 488.71,-212.95 489.57,-219.9"/>
</a>
</g>
</g>
<!-- Node10 -->
<g id="Node000010" class="node">
<title>Node10</title>
<g id="a_Node000010"><a xlink:href="class_async_client.html#a09e777ff005d8e0f81166e704dc14979" target="_top" xlink:title=" ">
<polygon fill="#fff0f0" stroke="red" points="580.75,-183.2 483.75,-183.2 483.75,-163.2 580.75,-163.2 580.75,-183.2"/>
<text xml:space="preserve" text-anchor="middle" x="532.25" y="-169.7" font-family="Helvetica,sans-Serif" font-size="10.00">AsyncClient::abort</text>
</a>
</g>
</g>
<!-- Node4&#45;&gt;Node10 -->
<g id="edge7_Node000004_Node000010" class="edge">
<title>Node4&#45;&gt;Node10</title>
<g id="a_edge7_Node000004_Node000010"><a xlink:title=" ">
<path fill="none" stroke="#63b8ff" d="M411.99,-219.71C419.41,-217.14 427.16,-214.25 434.25,-211.2 450.87,-204.06 453.54,-199.14 470.25,-192.2 474.34,-190.5 478.64,-188.87 482.98,-187.33"/>
<polygon fill="#63b8ff" stroke="#63b8ff" points="483.98,-190.68 492.33,-184.17 481.74,-184.05 483.98,-190.68"/>
</a>
</g>
</g>
<!-- Node14 -->
<g id="Node000014" class="node">
<title>Node14</title>
<g id="a_Node000014"><a xlink:href="_async_t_c_p_8cpp.html#a796c13746a84a6b2e7370ddbec97ad5b" target="_top" xlink:title=" ">
<polygon fill="white" stroke="#666666" points="583.75,-145.2 480.75,-145.2 480.75,-125.2 583.75,-125.2 583.75,-145.2"/>
<text xml:space="preserve" text-anchor="middle" x="532.25" y="-131.7" font-family="Helvetica,sans-Serif" font-size="10.00">_send_async_event</text>
</a>
</g>
</g>
<!-- Node13&#45;&gt;Node14 -->
<g id="edge9_Node000013_Node000014" class="edge">
<title>Node13&#45;&gt;Node14</title>
<g id="a_edge9_Node000013_Node000014"><a xlink:title=" ">
<path fill="none" stroke="#63b8ff" d="M407.3,-183.3C416.07,-180.37 425.65,-176.9 434.25,-173.2 450.87,-166.06 453.54,-161.14 470.25,-154.2 474.34,-152.5 478.64,-150.87 482.98,-149.33"/>
<polygon fill="#63b8ff" stroke="#63b8ff" points="483.98,-152.68 492.33,-146.17 481.74,-146.05 483.98,-152.68"/>
</a>
</g>
</g>
<!-- Node15&#45;&gt;Node14 -->
<g id="edge11_Node000015_Node000014" class="edge">
<title>Node15&#45;&gt;Node14</title>
<g id="a_edge11_Node000015_Node000014"><a xlink:title=" ">
<path fill="none" stroke="#63b8ff" d="M404.8,-150.89C422.61,-148.68 446.8,-145.68 469.26,-142.89"/>
<polygon fill="#63b8ff" stroke="#63b8ff" points="469.46,-146.39 478.95,-141.69 468.6,-139.45 469.46,-146.39"/>
</a>
</g>
</g>
<!-- Node16&#45;&gt;Node14 -->
<g id="edge16_Node000016_Node000014" class="edge">
<title>Node16&#45;&gt;Node14</title>
<g id="a_edge16_Node000016_Node000014"><a xlink:title=" ">
<path fill="none" stroke="#63b8ff" d="M406.77,-87.61C415.61,-90.59 425.36,-93.96 434.25,-97.2 454.37,-104.54 476.63,-113.22 494.75,-120.43"/>
<polygon fill="#63b8ff" stroke="#63b8ff" points="493.45,-123.68 504.03,-124.15 496.05,-117.18 493.45,-123.68"/>
</a>
</g>
</g>
<!-- Node17 -->
<g id="Node000017" class="node">
<title>Node17</title>
<g id="a_Node000017"><a xlink:href="class_async_client.html#a485b2be0c01d3172928c0ed9655edc2f" target="_top" xlink:title=" ">
<polygon fill="#fff0f0" stroke="red" points="594.25,-50.2 470.25,-50.2 470.25,-30.2 594.25,-30.2 594.25,-50.2"/>
<text xml:space="preserve" text-anchor="middle" x="532.25" y="-36.7" font-family="Helvetica,sans-Serif" font-size="10.00">AsyncClient::_s_lwip_fin</text>
</a>
</g>
</g>
<!-- Node16&#45;&gt;Node17 -->
<g id="edge13_Node000016_Node000017" class="edge">
<title>Node16&#45;&gt;Node17</title>
<g id="a_edge13_Node000016_Node000017"><a xlink:title=" ">
<path fill="none" stroke="#63b8ff" d="M406.93,-71.05C426.9,-66.1 454.08,-59.35 477.94,-53.43"/>
<polygon fill="#63b8ff" stroke="#63b8ff" points="478.65,-56.86 487.51,-51.05 476.96,-50.07 478.65,-56.86"/>
</a>
</g>
</g>
<!-- Node17&#45;&gt;Node2 -->
<g id="edge14_Node000017_Node000002" class="edge">
<title>Node17&#45;&gt;Node2</title>
<g id="a_edge14_Node000017_Node000002"><a xlink:title=" ">
<path fill="none" stroke="#63b8ff" d="M470.02,-36.84C426.71,-36.55 368.03,-40.48 320,-59.2 287.5,-71.86 256.7,-98.58 238.26,-116.71"/>
<polygon fill="#63b8ff" stroke="#63b8ff" points="235.85,-114.17 231.32,-123.75 240.83,-119.09 235.85,-114.17"/>
</a>
</g>
</g>
<!-- Node17&#45;&gt;Node19 -->
<g id="edge15_Node000017_Node000019" class="edge">
<title>Node17&#45;&gt;Node19</title>
<g id="a_edge15_Node000017_Node000019"><a xlink:title=" ">
<path fill="none" stroke="#63b8ff" d="M594.49,-31.98C602.52,-30.9 610.72,-29.8 618.65,-28.73"/>
<polygon fill="#63b8ff" stroke="#63b8ff" points="619.11,-32.2 628.55,-27.4 618.17,-25.27 619.11,-32.2"/>
</a>
</g>
</g>
<!-- Node20&#45;&gt;Node14 -->
<g id="edge18_Node000020_Node000014" class="edge">
<title>Node20&#45;&gt;Node14</title>
<g id="a_edge18_Node000020_Node000014"><a xlink:title=" ">
<path fill="none" stroke="#63b8ff" d="M406.93,-119.77C424.4,-121.94 447.41,-124.8 468.88,-127.46"/>
<polygon fill="#63b8ff" stroke="#63b8ff" points="468.4,-130.93 478.76,-128.69 469.26,-123.98 468.4,-130.93"/>
</a>
</g>
</g>
</g>
</svg>

<g id="navigator" transform="translate(0 0)" fill="#404254">
  <rect fill="#f2f5e9" fill-opacity="0.5" stroke="#606060" stroke-width=".5" x="0" y="0" width="60" height="60"/>
  <use id="zoomplus" xlink:href="#zoomPlus" x="17" y="9" onmousedown="handleZoom(evt,'in')"/>
  <use id="zoomminus" xlink:href="#zoomMin" x="42" y="9" onmousedown="handleZoom(evt,'out')"/>
  <use id="reset" xlink:href="#resetDef" x="30" y="36" onmousedown="handleReset()"/>
   <use id="arrowup" xlink:href="#arrowUp" x="0" y="0" onmousedown="handlePan(0,-1)"/>
  <use id="arrowright" xlink:href="#arrowRight" x="0" y="0" onmousedown="handlePan(1,0)"/>
  <use id="arrowdown" xlink:href="#arrowDown" x="0" y="0" onmousedown="handlePan(0,1)"/>
  <use id="arrowleft" xlink:href="#arrowLeft" x="0" y="0" onmousedown="handlePan(-1,0)"/>
</g>
<svg viewBox="0 0 15 15" width="100%" height="30px" preserveAspectRatio="xMaxYMin meet">
 <g id="arrow_out" transform="scale(0.3 0.3)">
  <a xlink:href="class_async_client_a44e3b77c5567dbfeb25c50cfddf61653_cgraph_org.svg" target="_base">
   <rect id="button" ry="5" rx="5" y="6" x="6" height="38" width="38"
        fill="#f2f5e9" fill-opacity="0.5" stroke="#606060" stroke-width="1.0"/>
   <path id="arrow"
     d="M 11.500037,31.436501 C 11.940474,20.09759 22.043105,11.32322 32.158766,21.979434 L 37.068811,17.246167 C 37.068811,17.246167 37.088388,32 37.088388,32 L 22.160133,31.978069 C 22.160133,31.978069 26.997745,27.140456 26.997745,27.140456 C 18.528582,18.264221 13.291696,25.230495 11.500037,31.436501 z"
     style="fill:#404040;"/>
  </a>
 </g>
</svg>

<style type='text/css'>
<![CDATA[
[data-mouse-over-selected='false'] { opacity: 0.7; }
[data-mouse-over-selected='true']  { opacity: 1.0; }
]]>
</style>
<script type="application/ecmascript"><![CDATA[
document.addEventListener('DOMContentLoaded', (event) => {
  highlightEdges();
  highlightAdjacentNodes();
});
]]></script>
</svg>
