<?xml version="1.0" encoding="UTF-8" standalone="no"?>
<!DOCTYPE svg PUBLIC "-//W3C//DTD SVG 1.1//EN"
 "http://www.w3.org/Graphics/SVG/1.1/DTD/svg11.dtd">
<!-- Generated by graphviz version 14.1.2 (20260124.0452)
 -->
<!-- Title: AsyncClient::close Pages: 1 -->
<!--zoomable 192 -->

<svg id="main" version="1.1" xmlns="http://www.w3.org/2000/svg" xmlns:xlink="http://www.w3.org/1999/xlink" xml:space="preserve" onload="init(evt)">

<style type="text/css"><![CDATA[
.node, .edge {opacity: 0.7;}
.node.selected, .edge.selected {opacity: 1;}
.edge:hover path { stroke: red; }
.edge:hover polygon { stroke: red; fill: red; }
]]></style>

<defs>
  <circle id="rim" cx="0" cy="0" r="7"/>
  <circle id="rim2" cx="0" cy="0" r="3.5"/>
  <g id="zoomPlus">
    <use xlink:href="#rim" fill="#404040"><set attributeName="fill" to="#808080" begin="zoomplus.mouseover" end="zoomplus.mouseout"/></use>
    <path d="M-4,0h8M0,-4v8" fill="none" stroke="white" stroke-width="1.5" pointer-events="none"/>
  </g>
  <g id="zoomMin">
    <use xlink:href="#rim" fill="#404040"><set attributeName="fill" to="#808080" begin="zoomminus.mouseover" end="zoomminus.mouseout"/></use>
    <path d="M-4,0h8" fill="none" stroke="white" stroke-width="1.5" pointer-events="none"/>
  </g>
  <g id="arrowUp" transform="translate(30 24)">
    <use xlink:href="#rim"/>
    <path pointer-events="none" fill="none" stroke="white" stroke-width="1.5" d="M0,-3.0v7 M-2.5,-0.5L0,-3.0L2.5,-0.5"/>
  </g>
  <g id="arrowRight" transform="rotate(90) translate(36 -43)">
    <use xlink:href="#rim"/>
    <path pointer-events="none" fill="none" stroke="white" stroke-width="1.5" d="M0,-3.0v7 M-2.5,-0.5L0,-3.0L2.5,-0.5"/>
  </g>
  <g id="arrowDown" transform="rotate(180) translate(-30 -48)">
    <use xlink:href="#rim"/>
    <path pointer-events="none" fill="none" stroke="white" stroke-width="1.5" d="M0,-3.0v7 M-2.5,-0.5L0,-3.0L2.5,-0.5"/>
  </g>
  <g id="arrowLeft" transform="rotate(270) translate(-36 17)">
    <use xlink:href="#rim"/>
    <path pointer-events="none" fill="none" stroke="white" stroke-width="1.5" d="M0,-3.0v7 M-2.5,-0.5L0,-3.0L2.5,-0.5"/>
  </g>
  <g id="resetDef">
    <use xlink:href="#rim2" fill="#404040"><set attributeName="fill" to="#808080" begin="reset.mouseover" end="reset.mouseout"/></use>
  </g>
</defs>
<script type="application/ecmascript">
var viewWidth = 532;
var viewHeight = 192;
var sectionId = 'dynsection-49';
</script>
<script type="application/ecmascript" xlink:href="svg.min.js"/>
<svg id="graph" class="graph">
<g id="viewport">
<title>AsyncClient::close</title>
<!-- Node1 -->
<g id="Node000001" class="node">
<title>Node1</title>
<g id="a_Node000001"><a xlink:title="close connection">
<polygon fill="#999999" stroke="#666666" points="98.5,-58 0,-58 0,-38 98.5,-38 98.5,-58"/>
<text xml:space="preserve" text-anchor="middle" x="49.25" y="-44.5" font-family="Helvetica,sans-Serif" font-size="10.00">AsyncClient::close</text>
</a>
</g>
</g>
<!-- Node2 -->
<g id="Node000002" class="node">
<title>Node2</title>
<g id="a_Node000002"><a xlink:href="class_async_client.html#a98ff872bc84919f006f3bb8a249ed36d" target="_top" xlink:title=" ">
<polygon fill="white" stroke="#666666" points="238.25,-96 134.5,-96 134.5,-76 238.25,-76 238.25,-96"/>
<text xml:space="preserve" text-anchor="middle" x="186.38" y="-82.5" font-family="Helvetica,sans-Serif" font-size="10.00">AsyncClient::_close</text>
</a>
</g>
</g>
<!-- Node1&#45;&gt;Node2 -->
<g id="edge1_Node000001_Node000002" class="edge">
<title>Node1&#45;&gt;Node2</title>
<g id="a_edge1_Node000001_Node000002"><a xlink:title=" ">
<path fill="none" stroke="#63b8ff" d="M87.53,-58.48C102.89,-62.8 120.88,-67.86 137.22,-72.46"/>
<polygon fill="#63b8ff" stroke="#63b8ff" points="136.18,-75.8 146.76,-75.14 138.08,-69.06 136.18,-75.8"/>
</a>
</g>
</g>
<!-- Node11 -->
<g id="Node000011" class="node">
<title>Node11</title>
<g id="a_Node000011"><a xlink:href="_async_t_c_p_8cpp.html#acfb3f5bacaaabd2c616896510fd1f10b" target="_top" xlink:title=" ">
<polygon fill="white" stroke="#666666" points="221,-39 151.75,-39 151.75,-19 221,-19 221,-39"/>
<text xml:space="preserve" text-anchor="middle" x="186.38" y="-25.5" font-family="Helvetica,sans-Serif" font-size="10.00">_tcp_recved</text>
</a>
</g>
</g>
<!-- Node1&#45;&gt;Node11 -->
<g id="edge9_Node000001_Node000011" class="edge">
<title>Node1&#45;&gt;Node11</title>
<g id="a_edge9_Node000001_Node000011"><a xlink:title=" ">
<path fill="none" stroke="#63b8ff" d="M98.65,-41.19C112.12,-39.3 126.7,-37.25 139.99,-35.38"/>
<polygon fill="#63b8ff" stroke="#63b8ff" points="140.37,-38.86 149.78,-34 139.39,-31.93 140.37,-38.86"/>
</a>
</g>
</g>
<!-- Node3 -->
<g id="Node000003" class="node">
<title>Node3</title>
<g id="a_Node000003"><a xlink:href="class_async_client.html#aff6a2fbf261b25e1fcd35c11cce348a5" target="_top" xlink:title=" ">
<polygon fill="white" stroke="#666666" points="371.25,-184 274.25,-184 274.25,-152 371.25,-152 371.25,-184"/>
<text xml:space="preserve" text-anchor="start" x="282.25" y="-170.5" font-family="Helvetica,sans-Serif" font-size="10.00">AsyncClient::_free</text>
<text xml:space="preserve" text-anchor="middle" x="322.75" y="-158.5" font-family="Helvetica,sans-Serif" font-size="10.00">_closed_slot</text>
</a>
</g>
</g>
<!-- Node2&#45;&gt;Node3 -->
<g id="edge2_Node000002_Node000003" class="edge">
<title>Node2&#45;&gt;Node3</title>
<g id="a_edge2_Node000002_Node000003"><a xlink:title=" ">
<path fill="none" stroke="#63b8ff" d="M202.16,-96.33C219.23,-108.11 248.3,-127.7 274.25,-143 276.09,-144.08 277.97,-145.17 279.89,-146.26"/>
<polygon fill="#63b8ff" stroke="#63b8ff" points="277.81,-149.11 288.26,-150.87 281.19,-142.98 277.81,-149.11"/>
</a>
</g>
</g>
<!-- Node4 -->
<g id="Node000004" class="node">
<title>Node4</title>
<g id="a_Node000004"><a xlink:href="_async_t_c_p_8cpp.html#ab053d5adb5be879f37181af512213bb6" target="_top" xlink:title=" ">
<polygon fill="white" stroke="#666666" points="370.5,-134 275,-134 275,-114 370.5,-114 370.5,-134"/>
<text xml:space="preserve" text-anchor="middle" x="322.75" y="-120.5" font-family="Helvetica,sans-Serif" font-size="10.00">_tcp_clear_events</text>
</a>
</g>
</g>
<!-- Node2&#45;&gt;Node4 -->
<g id="edge3_Node000002_Node000004" class="edge">
<title>Node2&#45;&gt;Node4</title>
<g id="a_edge3_Node000002_Node000004"><a xlink:title=" ">
<path fill="none" stroke="#63b8ff" d="M224.45,-96.48C239.72,-100.8 257.62,-105.86 273.86,-110.46"/>
<polygon fill="#63b8ff" stroke="#63b8ff" points="272.77,-113.78 283.34,-113.14 274.67,-107.05 272.77,-113.78"/>
</a>
</g>
</g>
<!-- Node6 -->
<g id="Node000006" class="node">
<title>Node6</title>
<g id="a_Node000006"><a xlink:href="_async_t_c_p_8cpp.html#a3602c1ebfae2fb2ff64a0e3d7b0568ce" target="_top" xlink:title=" ">
<polygon fill="white" stroke="#666666" points="354.38,-96 291.12,-96 291.12,-76 354.38,-76 354.38,-96"/>
<text xml:space="preserve" text-anchor="middle" x="322.75" y="-82.5" font-family="Helvetica,sans-Serif" font-size="10.00">_tcp_close</text>
</a>
</g>
</g>
<!-- Node2&#45;&gt;Node6 -->
<g id="edge5_Node000002_Node000006" class="edge">
<title>Node2&#45;&gt;Node6</title>
<g id="a_edge5_Node000002_Node000006"><a xlink:title=" ">
<path fill="none" stroke="#63b8ff" d="M238.56,-86C252.07,-86 266.51,-86 279.49,-86"/>
<polygon fill="#63b8ff" stroke="#63b8ff" points="279.43,-89.5 289.43,-86 279.43,-82.5 279.43,-89.5"/>
</a>
</g>
</g>
<!-- Node8 -->
<g id="Node000008" class="node">
<title>Node8</title>
<g id="a_Node000008"><a xlink:href="class_async_client.html#a09e777ff005d8e0f81166e704dc14979" target="_top" xlink:title=" ">
<polygon fill="white" stroke="#666666" points="371.25,-58 274.25,-58 274.25,-38 371.25,-38 371.25,-58"/>
<text xml:space="preserve" text-anchor="middle" x="322.75" y="-44.5" font-family="Helvetica,sans-Serif" font-size="10.00">AsyncClient::abort</text>
</a>
</g>
</g>
<!-- Node2&#45;&gt;Node8 -->
<g id="edge7_Node000002_Node000008" class="edge">
<title>Node2&#45;&gt;Node8</title>
<g id="a_edge7_Node000002_Node000008"><a xlink:title=" ">
<path fill="none" stroke="#63b8ff" d="M224.45,-75.52C239.72,-71.2 257.62,-66.14 273.86,-61.54"/>
<polygon fill="#63b8ff" stroke="#63b8ff" points="274.67,-64.95 283.34,-58.86 272.77,-58.22 274.67,-64.95"/>
</a>
</g>
</g>
<!-- Node5 -->
<g id="Node000005" class="node">
<title>Node5</title>
<g id="a_Node000005"><a xlink:href="_async_t_c_p_8cpp.html#a42bebdded16714188a8e554237aad2f3" target="_top" xlink:title=" ">
<polygon fill="white" stroke="#666666" points="523.75,-134 407.25,-134 407.25,-114 523.75,-114 523.75,-134"/>
<text xml:space="preserve" text-anchor="middle" x="465.5" y="-120.5" font-family="Helvetica,sans-Serif" font-size="10.00">_prepend_async_event</text>
</a>
</g>
</g>
<!-- Node4&#45;&gt;Node5 -->
<g id="edge4_Node000004_Node000005" class="edge">
<title>Node4&#45;&gt;Node5</title>
<g id="a_edge4_Node000004_Node000005"><a xlink:title=" ">
<path fill="none" stroke="#63b8ff" d="M370.62,-124C378.64,-124 387.13,-124 395.59,-124"/>
<polygon fill="#63b8ff" stroke="#63b8ff" points="395.55,-127.5 405.55,-124 395.55,-120.5 395.55,-127.5"/>
</a>
</g>
</g>
<!-- Node7 -->
<g id="Node000007" class="node">
<title>Node7</title>
<g id="a_Node000007"><a xlink:href="_async_t_c_p_8cpp.html#a7c4346c7dec98a175f7b96b03873839a" target="_top" xlink:title=" ">
<polygon fill="white" stroke="#666666" points="506.12,-96 424.88,-96 424.88,-76 506.12,-76 506.12,-96"/>
<text xml:space="preserve" text-anchor="middle" x="465.5" y="-82.5" font-family="Helvetica,sans-Serif" font-size="10.00">_tcp_close_api</text>
</a>
</g>
</g>
<!-- Node6&#45;&gt;Node7 -->
<g id="edge6_Node000006_Node000007" class="edge">
<title>Node6&#45;&gt;Node7</title>
<g id="a_edge6_Node000006_Node000007"><a xlink:title=" ">
<path fill="none" stroke="#63b8ff" d="M354.64,-86C371.82,-86 393.65,-86 413.31,-86"/>
<polygon fill="#63b8ff" stroke="#63b8ff" points="413.07,-89.5 423.07,-86 413.07,-82.5 413.07,-89.5"/>
</a>
</g>
</g>
<!-- Node9 -->
<g id="Node000009" class="node">
<title>Node9</title>
<g id="a_Node000009"><a xlink:href="_async_t_c_p_8cpp.html#a3e2474b46f6a3f01db216511d2bcfc4c" target="_top" xlink:title=" ">
<polygon fill="#fff0f0" stroke="red" points="496.38,-58 434.62,-58 434.62,-38 496.38,-38 496.38,-58"/>
<text xml:space="preserve" text-anchor="middle" x="465.5" y="-44.5" font-family="Helvetica,sans-Serif" font-size="10.00">_tcp_abort</text>
</a>
</g>
</g>
<!-- Node8&#45;&gt;Node9 -->
<g id="edge8_Node000008_Node000009" class="edge">
<title>Node8&#45;&gt;Node9</title>
<g id="a_edge8_Node000008_Node000009"><a xlink:title=" ">
<path fill="none" stroke="#63b8ff" d="M371.4,-48C388.22,-48 406.97,-48 423.21,-48"/>
<polygon fill="#63b8ff" stroke="#63b8ff" points="423.02,-51.5 433.02,-48 423.02,-44.5 423.02,-51.5"/>
</a>
</g>
</g>
<!-- Node12 -->
<g id="Node000012" class="node">
<title>Node12</title>
<g id="a_Node000012"><a xlink:href="_async_t_c_p_8cpp.html#ac6939df8a76eab232541be004e935be2" target="_top" xlink:title=" ">
<polygon fill="white" stroke="#666666" points="366.38,-20 279.12,-20 279.12,0 366.38,0 366.38,-20"/>
<text xml:space="preserve" text-anchor="middle" x="322.75" y="-6.5" font-family="Helvetica,sans-Serif" font-size="10.00">_tcp_recved_api</text>
</a>
</g>
</g>
<!-- Node11&#45;&gt;Node12 -->
<g id="edge10_Node000011_Node000012" class="edge">
<title>Node11&#45;&gt;Node12</title>
<g id="a_edge10_Node000011_Node000012"><a xlink:title=" ">
<path fill="none" stroke="#63b8ff" d="M221.28,-24.21C235.3,-22.22 251.9,-19.88 267.52,-17.67"/>
<polygon fill="#63b8ff" stroke="#63b8ff" points="267.77,-21.17 277.18,-16.3 266.79,-14.24 267.77,-21.17"/>
</a>
</g>
</g>
</g>
</svg>

<g id="navigator" transform="translate(0 0)" fill="#404254">
  <rect fill="#f2f5e9" fill-opacity="0.5" stroke="#606060" stroke-width=".5" x="0" y="0" width="60" height="60"/>
  <use id="zoomplus" xlink:href="#zoomPlus" x="17" y="9" onmousedown="handleZoom(evt,'in')"/>
  <use id="zoomminus" xlink:href="#zoomMin" x="42" y="9" onmousedown="handleZoom(evt,'out')"/>
  <use id="reset" xlink:href="#resetDef" x="30" y="36" onmousedown="handleReset()"/>
   <use id="arrowup" xlink:href="#arrowUp" x="0" y="0" onmousedown="handlePan(0,-1)"/>
  <use id="arrowright" xlink:href="#arrowRight" x="0" y="0" onmousedown="handlePan(1,0)"/>
  <use id="arrowdown" xlink:href="#arrowDown" x="0" y="0" onmousedown="handlePan(0,1)"/>
  <use id="arrowleft" xlink:href="#arrowLeft" x="0" y="0" onmousedown="handlePan(-1,0)"/>
</g>
<svg viewBox="0 0 15 15" width="100%" height="30px" preserveAspectRatio="xMaxYMin meet">
 <g id="arrow_out" transform="scale(0.3 0.3)">
  <a xlink:href="class_async_client_a0305fe0b036257c03829ceaa5cc43361_cgraph_org.svg" target="_base">
   <rect id="button" ry="5" rx="5" y="6" x="6" height="38" width="38"
        fill="#f2f5e9" fill-opacity="0.5" stroke="#606060" stroke-width="1.0"/>
   <path id="arrow"
     d="M 11.500037,31.436501 C 11.940474,20.09759 22.043105,11.32322 32.158766,21.979434 L 37.068811,17.246167 C 37.068811,17.246167 37.088388,32 37.088388,32 L 22.160133,31.978069 C 22.160133,31.978069 26.997745,27.140456 26.997745,27.140456 C 18.528582,18.264221 13.291696,25.230495 11.500037,31.436501 z"
     style="fill:#404040;"/>
  </a>
 </g>
</svg>

<style type='text/css'>
<![CDATA[
[data-mouse-over-selected='false'] { opacity: 0.7; }
[data-mouse-over-selected='true']  { opacity: 1.0; }
]]>
</style>
<script type="application/ecmascript"><![CDATA[
document.addEventListener('DOMContentLoaded', (event) => {
  highlightEdges();
  highlightAdjacentNodes();
});
]]></script>
</svg>
