<?xml version="1.0" encoding="UTF-8" standalone="no"?>
<!DOCTYPE svg PUBLIC "-//W3C//DTD SVG 1.1//EN"
 "http://www.w3.org/Graphics/SVG/1.1/DTD/svg11.dtd">
<!-- Generated by graphviz version 14.1.2 (20260124.0452)
 -->
<!-- Title: AuthSync::calcBitsetBytes Pages: 1 -->
<!--zoomable 180 -->

<svg id="main" version="1.1" xmlns="http://www.w3.org/2000/svg" xmlns:xlink="http://www.w3.org/1999/xlink" xml:space="preserve" onload="init(evt)">

<style type="text/css"><![CDATA[
.node, .edge {opacity: 0.7;}
.node.selected, .edge.selected {opacity: 1;}
.edge:hover path { stroke: red; }
.edge:hover polygon { stroke: red; fill: red; }
]]></style>

<defs>
  <circle id="rim" cx="0" cy="0" r="7"/>
  <circle id="rim2" cx="0" cy="0" r="3.5"/>
  <g id="zoomPlus">
    <use xlink:href="#rim" fill="#404040"><set attributeName="fill" to="#808080" begin="zoomplus.mouseover" end="zoomplus.mouseout"/></use>
    <path d="M-4,0h8M0,-4v8" fill="none" stroke="white" stroke-width="1.5" pointer-events="none"/>
  </g>
  <g id="zoomMin">
    <use xlink:href="#rim" fill="#404040"><set attributeName="fill" to="#808080" begin="zoomminus.mouseover" end="zoomminus.mouseout"/></use>
    <path d="M-4,0h8" fill="none" stroke="white" stroke-width="1.5" pointer-events="none"/>
  </g>
  <g id="arrowUp" transform="translate(30 24)">
    <use xlink:href="#rim"/>
    <path pointer-events="none" fill="none" stroke="white" stroke-width="1.5" d="M0,-3.0v7 M-2.5,-0.5L0,-3.0L2.5,-0.5"/>
  </g>
  <g id="arrowRight" transform="rotate(90) translate(36 -43)">
    <use xlink:href="#rim"/>
    <path pointer-events="none" fill="none" stroke="white" stroke-width="1.5" d="M0,-3.0v7 M-2.5,-0.5L0,-3.0L2.5,-0.5"/>
  </g>
  <g id="arrowDown" transform="rotate(180) translate(-30 -48)">
    <use xlink:href="#rim"/>
    <path pointer-events="none" fill="none" stroke="white" stroke-width="1.5" d="M0,-3.0v7 M-2.5,-0.5L0,-3.0L2.5,-0.5"/>
  </g>
  <g id="arrowLeft" transform="rotate(270) translate(-36 17)">
    <use xlink:href="#rim"/>
    <path pointer-events="none" fill="none" stroke="white" stroke-width="1.5" d="M0,-3.0v7 M-2.5,-0.5L0,-3.0L2.5,-0.5"/>
  </g>
  <g id="resetDef">
    <use xlink:href="#rim2" fill="#404040"><set attributeName="fill" to="#808080" begin="reset.mouseover" end="reset.mouseout"/></use>
  </g>
</defs>
<script type="application/ecmascript">
var viewWidth = 628;
var viewHeight = 180;
var sectionId = 'dynsection-3';
</script>
<script type="application/ecmascript" xlink:href="svg.min.js"/>
<svg id="graph" class="graph">
<g id="viewport">
<title>AuthSync::calcBitsetBytes</title>
<!-- Node1 -->
<g id="Node000001" class="node">
<title>Node1</title>
<g id="a_Node000001"><a xlink:title=" ">
<polygon fill="#999999" stroke="#666666" points="619.75,-96 486,-96 486,-76 619.75,-76 619.75,-96"/>
<text xml:space="preserve" text-anchor="middle" x="552.88" y="-82.5" font-family="Helvetica,sans-Serif" font-size="10.00">AuthSync::calcBitsetBytes</text>
</a>
</g>
</g>
<!-- Node2 -->
<g id="Node000002" class="node">
<title>Node2</title>
<g id="a_Node000002"><a xlink:href="class_auth_sync.html#a70491cf68689f4d6dc2e34ecdb385e26" target="_top" xlink:title=" ">
<polygon fill="white" stroke="#666666" points="450,-172 302.75,-172 302.75,-152 450,-152 450,-172"/>
<text xml:space="preserve" text-anchor="middle" x="376.38" y="-158.5" font-family="Helvetica,sans-Serif" font-size="10.00">AuthSync::dumpMemoryStats</text>
</a>
</g>
</g>
<!-- Node1&#45;&gt;Node2 -->
<g id="edge1_Node000001_Node000002" class="edge">
<title>Node1&#45;&gt;Node2</title>
<g id="a_edge1_Node000001_Node000002"><a xlink:title=" ">
<path fill="none" stroke="#63b8ff" d="M526.66,-102.5C506.57,-115.05 477.37,-131.97 450,-143 441.9,-146.26 433.07,-149.12 424.44,-151.56"/>
<polygon fill="#63b8ff" stroke="#63b8ff" points="528.43,-105.52 534.99,-97.21 524.68,-99.61 528.43,-105.52"/>
</a>
</g>
</g>
<!-- Node3 -->
<g id="Node000003" class="node">
<title>Node3</title>
<g id="a_Node000003"><a xlink:href="class_auth_sync.html#a4e08ccddae724260659933a380255ddb" target="_top" xlink:title=" ">
<polygon fill="white" stroke="#666666" points="444.75,-134 308,-134 308,-114 444.75,-114 444.75,-134"/>
<text xml:space="preserve" text-anchor="middle" x="376.38" y="-120.5" font-family="Helvetica,sans-Serif" font-size="10.00">AuthSync::getMemoryUsed</text>
</a>
</g>
</g>
<!-- Node1&#45;&gt;Node3 -->
<g id="edge2_Node000001_Node000003" class="edge">
<title>Node1&#45;&gt;Node3</title>
<g id="a_edge2_Node000001_Node000003"><a xlink:title=" ">
<path fill="none" stroke="#63b8ff" d="M492.55,-98.92C470.65,-103.69 446.13,-109.03 425.36,-113.55"/>
<polygon fill="#63b8ff" stroke="#63b8ff" points="493.23,-102.35 502.25,-96.81 491.74,-95.51 493.23,-102.35"/>
</a>
</g>
</g>
<!-- Node4 -->
<g id="Node000004" class="node">
<title>Node4</title>
<g id="a_Node000004"><a xlink:href="class_auth_sync.html#ad506895350cf1efcf89c0b72a7fe0a67" target="_top" xlink:title=" ">
<polygon fill="white" stroke="#666666" points="433.12,-96 319.62,-96 319.62,-76 433.12,-76 433.12,-96"/>
<text xml:space="preserve" text-anchor="middle" x="376.38" y="-82.5" font-family="Helvetica,sans-Serif" font-size="10.00">AuthSync::readByteAt</text>
</a>
</g>
</g>
<!-- Node1&#45;&gt;Node4 -->
<g id="edge3_Node000001_Node000004" class="edge">
<title>Node1&#45;&gt;Node4</title>
<g id="a_edge3_Node000001_Node000004"><a xlink:title=" ">
<path fill="none" stroke="#63b8ff" d="M474.43,-86C460.64,-86 446.51,-86 433.46,-86"/>
<polygon fill="#63b8ff" stroke="#63b8ff" points="474.39,-89.5 484.39,-86 474.39,-82.5 474.39,-89.5"/>
</a>
</g>
</g>
<!-- Node5 -->
<g id="Node000005" class="node">
<title>Node5</title>
<g id="a_Node000005"><a xlink:href="class_auth_sync.html#ab2999f3e828083471d482f9bde0d72f2" target="_top" xlink:title=" ">
<polygon fill="white" stroke="#666666" points="266.75,-39 130,-39 130,-19 266.75,-19 266.75,-39"/>
<text xml:space="preserve" text-anchor="middle" x="198.38" y="-25.5" font-family="Helvetica,sans-Serif" font-size="10.00">AuthSync::syncFromServer</text>
</a>
</g>
</g>
<!-- Node1&#45;&gt;Node5 -->
<g id="edge4_Node000001_Node000005" class="edge">
<title>Node1&#45;&gt;Node5</title>
<g id="a_edge4_Node000001_Node000005"><a xlink:title=" ">
<path fill="none" stroke="#63b8ff" d="M486.5,-73.47C474.38,-71.24 461.82,-69 450,-67 388.16,-56.55 317.51,-45.96 267.02,-38.62"/>
<polygon fill="#63b8ff" stroke="#63b8ff" points="485.52,-76.85 495.99,-75.23 486.8,-69.96 485.52,-76.85"/>
</a>
</g>
</g>
<!-- Node8 -->
<g id="Node000008" class="node">
<title>Node8</title>
<g id="a_Node000008"><a xlink:href="class_auth_sync.html#a756e144d847c736d9932311d101a8a8f" target="_top" xlink:title=" ">
<polygon fill="white" stroke="#666666" points="434.25,-20 318.5,-20 318.5,0 434.25,0 434.25,-20"/>
<text xml:space="preserve" text-anchor="middle" x="376.38" y="-6.5" font-family="Helvetica,sans-Serif" font-size="10.00">AuthSync::writeByteAt</text>
</a>
</g>
</g>
<!-- Node1&#45;&gt;Node8 -->
<g id="edge7_Node000001_Node000008" class="edge">
<title>Node1&#45;&gt;Node8</title>
<g id="a_edge7_Node000001_Node000008"><a xlink:title=" ">
<path fill="none" stroke="#63b8ff" d="M523.45,-70.01C503.32,-59.06 475.47,-44.64 450,-34 437.99,-28.99 424.53,-24.29 412.5,-20.41"/>
<polygon fill="#63b8ff" stroke="#63b8ff" points="521.73,-73.06 532.18,-74.81 525.1,-66.92 521.73,-73.06"/>
</a>
</g>
</g>
<!-- Node6 -->
<g id="Node000006" class="node">
<title>Node6</title>
<g id="a_Node000006"><a xlink:href="class_auth_sync.html#a6834600967f5b023e9810fc2293d2c51" target="_top" xlink:title=" ">
<polygon fill="white" stroke="#666666" points="91,-58 3,-58 3,-38 91,-38 91,-58"/>
<text xml:space="preserve" text-anchor="middle" x="47" y="-44.5" font-family="Helvetica,sans-Serif" font-size="10.00">AuthSync::begin</text>
</a>
</g>
</g>
<!-- Node5&#45;&gt;Node6 -->
<g id="edge5_Node000005_Node000006" class="edge">
<title>Node5&#45;&gt;Node6</title>
<g id="a_edge5_Node000005_Node000006"><a xlink:title=" ">
<path fill="none" stroke="#63b8ff" d="M118.27,-39.06C108.92,-40.25 99.66,-41.43 91.08,-42.52"/>
<polygon fill="#63b8ff" stroke="#63b8ff" points="118.7,-42.54 128.18,-37.8 117.82,-35.59 118.7,-42.54"/>
</a>
</g>
</g>
<!-- Node7 -->
<g id="Node000007" class="node">
<title>Node7</title>
<g id="a_Node000007"><a xlink:href="class_auth_sync.html#a19dac50eb59905f92b7da75d12f5f309" target="_top" xlink:title=" ">
<polygon fill="white" stroke="#666666" points="94,-20 0,-20 0,0 94,0 94,-20"/>
<text xml:space="preserve" text-anchor="middle" x="47" y="-6.5" font-family="Helvetica,sans-Serif" font-size="10.00">AuthSync::update</text>
</a>
</g>
</g>
<!-- Node5&#45;&gt;Node7 -->
<g id="edge6_Node000005_Node000007" class="edge">
<title>Node5&#45;&gt;Node7</title>
<g id="a_edge6_Node000005_Node000007"><a xlink:title=" ">
<path fill="none" stroke="#63b8ff" d="M118.36,-18.95C110.06,-17.89 101.83,-16.85 94.09,-15.86"/>
<polygon fill="#63b8ff" stroke="#63b8ff" points="117.82,-22.41 128.18,-20.2 118.7,-15.46 117.82,-22.41"/>
</a>
</g>
</g>
<!-- Node8&#45;&gt;Node5 -->
<g id="edge8_Node000008_Node000005" class="edge">
<title>Node8&#45;&gt;Node5</title>
<g id="a_edge8_Node000008_Node000005"><a xlink:title=" ">
<path fill="none" stroke="#63b8ff" d="M306.89,-17.39C293.78,-18.81 280.05,-20.29 266.96,-21.7"/>
<polygon fill="#63b8ff" stroke="#63b8ff" points="307.16,-20.88 316.73,-16.33 306.41,-13.92 307.16,-20.88"/>
</a>
</g>
</g>
</g>
</svg>

<g id="navigator" transform="translate(0 0)" fill="#404254">
  <rect fill="#f2f5e9" fill-opacity="0.5" stroke="#606060" stroke-width=".5" x="0" y="0" width="60" height="60"/>
  <use id="zoomplus" xlink:href="#zoomPlus" x="17" y="9" onmousedown="handleZoom(evt,'in')"/>
  <use id="zoomminus" xlink:href="#zoomMin" x="42" y="9" onmousedown="handleZoom(evt,'out')"/>
  <use id="reset" xlink:href="#resetDef" x="30" y="36" onmousedown="handleReset()"/>
   <use id="arrowup" xlink:href="#arrowUp" x="0" y="0" onmousedown="handlePan(0,-1)"/>
  <use id="arrowright" xlink:href="#arrowRight" x="0" y="0" onmousedown="handlePan(1,0)"/>
  <use id="arrowdown" xlink:href="#arrowDown" x="0" y="0" onmousedown="handlePan(0,1)"/>
  <use id="arrowleft" xlink:href="#arrowLeft" x="0" y="0" onmousedown="handlePan(-1,0)"/>
</g>
<svg viewBox="0 0 15 15" width="100%" height="30px" preserveAspectRatio="xMaxYMin meet">
 <g id="arrow_out" transform="scale(0.3 0.3)">
  <a xlink:href="class_auth_sync_aab1e2b7beebdab60e16d9b3a50678efd_icgraph_org.svg" target="_base">
   <rect id="button" ry="5" rx="5" y="6" x="6" height="38" width="38"
        fill="#f2f5e9" fill-opacity="0.5" stroke="#606060" stroke-width="1.0"/>
   <path id="arrow"
     d="M 11.500037,31.436501 C 11.940474,20.09759 22.043105,11.32322 32.158766,21.979434 L 37.068811,17.246167 C 37.068811,17.246167 37.088388,32 37.088388,32 L 22.160133,31.978069 C 22.160133,31.978069 26.997745,27.140456 26.997745,27.140456 C 18.528582,18.264221 13.291696,25.230495 11.500037,31.436501 z"
     style="fill:#404040;"/>
  </a>
 </g>
</svg>

<style type='text/css'>
<![CDATA[
[data-mouse-over-selected='false'] { opacity: 0.7; }
[data-mouse-over-selected='true']  { opacity: 1.0; }
]]>
</style>
<script type="application/ecmascript"><![CDATA[
document.addEventListener('DOMContentLoaded', (event) => {
  highlightEdges();
  highlightAdjacentNodes();
});
]]></script>
</svg>
