<?xml version="1.0" encoding="UTF-8" standalone="no"?>
<!DOCTYPE svg PUBLIC "-//W3C//DTD SVG 1.1//EN"
 "http://www.w3.org/Graphics/SVG/1.1/DTD/svg11.dtd">
<!-- Generated by graphviz version 14.1.2 (20260124.0452)
 -->
<!-- Title: AsyncClient::_close Pages: 1 -->
<!--zoomable 637 -->

<svg id="main" version="1.1" xmlns="http://www.w3.org/2000/svg" xmlns:xlink="http://www.w3.org/1999/xlink" xml:space="preserve" onload="init(evt)">

<style type="text/css"><![CDATA[
.node, .edge {opacity: 0.7;}
.node.selected, .edge.selected {opacity: 1;}
.edge:hover path { stroke: red; }
.edge:hover polygon { stroke: red; fill: red; }
]]></style>

<defs>
  <circle id="rim" cx="0" cy="0" r="7"/>
  <circle id="rim2" cx="0" cy="0" r="3.5"/>
  <g id="zoomPlus">
    <use xlink:href="#rim" fill="#404040"><set attributeName="fill" to="#808080" begin="zoomplus.mouseover" end="zoomplus.mouseout"/></use>
    <path d="M-4,0h8M0,-4v8" fill="none" stroke="white" stroke-width="1.5" pointer-events="none"/>
  </g>
  <g id="zoomMin">
    <use xlink:href="#rim" fill="#404040"><set attributeName="fill" to="#808080" begin="zoomminus.mouseover" end="zoomminus.mouseout"/></use>
    <path d="M-4,0h8" fill="none" stroke="white" stroke-width="1.5" pointer-events="none"/>
  </g>
  <g id="arrowUp" transform="translate(30 24)">
    <use xlink:href="#rim"/>
    <path pointer-events="none" fill="none" stroke="white" stroke-width="1.5" d="M0,-3.0v7 M-2.5,-0.5L0,-3.0L2.5,-0.5"/>
  </g>
  <g id="arrowRight" transform="rotate(90) translate(36 -43)">
    <use xlink:href="#rim"/>
    <path pointer-events="none" fill="none" stroke="white" stroke-width="1.5" d="M0,-3.0v7 M-2.5,-0.5L0,-3.0L2.5,-0.5"/>
  </g>
  <g id="arrowDown" transform="rotate(180) translate(-30 -48)">
    <use xlink:href="#rim"/>
    <path pointer-events="none" fill="none" stroke="white" stroke-width="1.5" d="M0,-3.0v7 M-2.5,-0.5L0,-3.0L2.5,-0.5"/>
  </g>
  <g id="arrowLeft" transform="rotate(270) translate(-36 17)">
    <use xlink:href="#rim"/>
    <path pointer-events="none" fill="none" stroke="white" stroke-width="1.5" d="M0,-3.0v7 M-2.5,-0.5L0,-3.0L2.5,-0.5"/>
  </g>
  <g id="resetDef">
    <use xlink:href="#rim2" fill="#404040"><set attributeName="fill" to="#808080" begin="reset.mouseover" end="reset.mouseout"/></use>
  </g>
</defs>
<script type="application/ecmascript">
var viewWidth = 753;
var viewHeight = 637;
var sectionId = 'dynsection-6';
</script>
<script type="application/ecmascript" xlink:href="svg.min.js"/>
<svg id="graph" class="graph">
<g id="viewport">
<title>AsyncClient::_close</title>
<!-- Node1 -->
<g id="Node000001" class="node">
<title>Node1</title>
<g id="a_Node000001"><a xlink:title=" ">
<polygon fill="#999999" stroke="#666666" points="745.25,-122.9 641.5,-122.9 641.5,-102.9 745.25,-102.9 745.25,-122.9"/>
<text xml:space="preserve" text-anchor="middle" x="693.38" y="-109.4" font-family="Helvetica,sans-Serif" font-size="10.00">AsyncClient::_close</text>
</a>
</g>
</g>
<!-- Node2 -->
<g id="Node000002" class="node">
<title>Node2</title>
<g id="a_Node000002"><a xlink:href="class_async_client.html#a383d1cb7d684d328362caa5eafc92ca2" target="_top" xlink:title=" ">
<polygon fill="white" stroke="#666666" points="586,-517.9 490.5,-517.9 490.5,-497.9 586,-497.9 586,-517.9"/>
<text xml:space="preserve" text-anchor="middle" x="538.25" y="-504.4" font-family="Helvetica,sans-Serif" font-size="10.00">AsyncClient::_poll</text>
</a>
</g>
</g>
<!-- Node1&#45;&gt;Node2 -->
<g id="edge1_Node000001_Node000002" class="edge">
<title>Node1&#45;&gt;Node2</title>
<g id="a_edge1_Node000001_Node000002"><a xlink:title=" ">
<path fill="none" stroke="#63b8ff" d="M686.69,-134.1C674.2,-179.71 642.49,-290.19 605.5,-378.9 586.51,-424.45 557.76,-475.87 545.33,-497.47"/>
<polygon fill="#63b8ff" stroke="#63b8ff" points="690,-135.29 689.24,-124.72 683.24,-133.46 690,-135.29"/>
</a>
</g>
</g>
<!-- Node13 -->
<g id="Node000013" class="node">
<title>Node13</title>
<g id="a_Node000013"><a xlink:href="class_async_client.html#aefecfa0c75c8c1b32104115e93739087" target="_top" xlink:title=" ">
<polygon fill="white" stroke="#666666" points="602.5,-369.9 474,-369.9 474,-349.9 602.5,-349.9 602.5,-369.9"/>
<text xml:space="preserve" text-anchor="middle" x="538.25" y="-356.4" font-family="Helvetica,sans-Serif" font-size="10.00">AsyncClient::AsyncClient</text>
</a>
</g>
</g>
<!-- Node1&#45;&gt;Node13 -->
<g id="edge4_Node000001_Node000013" class="edge">
<title>Node1&#45;&gt;Node13</title>
<g id="a_edge4_Node000001_Node000013"><a xlink:title=" ">
<path fill="none" stroke="#63b8ff" d="M680.01,-132.86C649.02,-182.83 568.91,-312.06 545.66,-349.56"/>
<polygon fill="#63b8ff" stroke="#63b8ff" points="682.9,-134.83 685.19,-124.49 676.95,-131.14 682.9,-134.83"/>
</a>
</g>
</g>
<!-- Node19 -->
<g id="Node000019" class="node">
<title>Node19</title>
<g id="a_Node000019"><a xlink:href="class_async_client.html#a575c12664279634155259e007c6a104f" target="_top" xlink:title=" ">
<polygon fill="white" stroke="#666666" points="116.5,-160.9 0,-160.9 0,-140.9 116.5,-140.9 116.5,-160.9"/>
<text xml:space="preserve" text-anchor="middle" x="58.25" y="-147.4" font-family="Helvetica,sans-Serif" font-size="10.00">AsyncClient::operator=</text>
</a>
</g>
</g>
<!-- Node1&#45;&gt;Node19 -->
<g id="edge31_Node000001_Node000019" class="edge">
<title>Node1&#45;&gt;Node19</title>
<g id="a_edge31_Node000001_Node000019"><a xlink:title=" ">
<path fill="none" stroke="#63b8ff" d="M629.87,-109.97C528.91,-106.26 323.95,-102.93 152.5,-126.9 132.14,-129.75 109.81,-135.4 92.12,-140.51"/>
<polygon fill="#63b8ff" stroke="#63b8ff" points="629.43,-113.46 639.56,-110.35 629.7,-106.46 629.43,-113.46"/>
</a>
</g>
</g>
<!-- Node25 -->
<g id="Node000025" class="node">
<title>Node25</title>
<g id="a_Node000025"><a xlink:href="class_async_client.html#a0305fe0b036257c03829ceaa5cc43361" target="_top" xlink:title="close connection">
<polygon fill="white" stroke="#666666" points="587.5,-84.9 489,-84.9 489,-64.9 587.5,-64.9 587.5,-84.9"/>
<text xml:space="preserve" text-anchor="middle" x="538.25" y="-71.4" font-family="Helvetica,sans-Serif" font-size="10.00">AsyncClient::close</text>
</a>
</g>
</g>
<!-- Node1&#45;&gt;Node25 -->
<g id="edge26_Node000001_Node000025" class="edge">
<title>Node1&#45;&gt;Node25</title>
<g id="a_edge26_Node000001_Node000025"><a xlink:title=" ">
<path fill="none" stroke="#63b8ff" d="M638.99,-99.66C620.12,-94.97 599.17,-89.77 581.36,-85.35"/>
<polygon fill="#63b8ff" stroke="#63b8ff" points="638.11,-103.04 648.66,-102.06 639.8,-96.25 638.11,-103.04"/>
</a>
</g>
</g>
<!-- Node29 -->
<g id="Node000029" class="node">
<title>Node29</title>
<g id="a_Node000029"><a xlink:href="class_async_client.html#a4044bdcfd2ca6197f75200644685c5f0" target="_top" xlink:title=" ">
<polygon fill="white" stroke="#666666" points="605.5,-46.9 471,-46.9 471,-26.9 605.5,-26.9 605.5,-46.9"/>
<text xml:space="preserve" text-anchor="middle" x="538.25" y="-33.4" font-family="Helvetica,sans-Serif" font-size="10.00">AsyncClient::~AsyncClient</text>
</a>
</g>
</g>
<!-- Node1&#45;&gt;Node29 -->
<g id="edge32_Node000001_Node000029" class="edge">
<title>Node1&#45;&gt;Node29</title>
<g id="a_edge32_Node000001_Node000029"><a xlink:title=" ">
<path fill="none" stroke="#63b8ff" d="M670.22,-95.66C653.29,-83.17 628.94,-66.65 605.5,-55.9 598.32,-52.61 590.44,-49.76 582.7,-47.33"/>
<polygon fill="#63b8ff" stroke="#63b8ff" points="667.97,-98.35 678.07,-101.57 672.18,-92.76 667.97,-98.35"/>
</a>
</g>
</g>
<!-- Node3 -->
<g id="Node000003" class="node">
<title>Node3</title>
<g id="a_Node000003"><a xlink:href="class_async_client.html#abe187c005c73fe6c0c94e1b3b20b55de" target="_top" xlink:title=" ">
<polygon fill="white" stroke="#666666" points="420,-628.9 314,-628.9 314,-608.9 420,-608.9 420,-628.9"/>
<text xml:space="preserve" text-anchor="middle" x="367" y="-615.4" font-family="Helvetica,sans-Serif" font-size="10.00">AsyncClient::_s_poll</text>
</a>
</g>
</g>
<!-- Node2&#45;&gt;Node3 -->
<g id="edge2_Node000002_Node000003" class="edge">
<title>Node2&#45;&gt;Node3</title>
<g id="a_edge2_Node000002_Node000003"><a xlink:title=" ">
<path fill="none" stroke="#63b8ff" d="M521.26,-526.73C502.59,-547.55 469.81,-580.69 435,-599.9 428.86,-603.29 422.06,-606.12 415.22,-608.47"/>
<polygon fill="#63b8ff" stroke="#63b8ff" points="523.84,-529.09 527.8,-519.26 518.58,-524.48 523.84,-529.09"/>
</a>
</g>
</g>
<!-- Node4 -->
<g id="Node000004" class="node">
<title>Node4</title>
<g id="a_Node000004"><a xlink:href="_async_t_c_p_8cpp.html#ac4030e968c0e4c0fcbe7a9b4502854c1" target="_top" xlink:title=" ">
<polygon fill="#fff0f0" stroke="red" points="263,-508.9 152.5,-508.9 152.5,-488.9 263,-488.9 263,-508.9"/>
<text xml:space="preserve" text-anchor="middle" x="207.75" y="-495.4" font-family="Helvetica,sans-Serif" font-size="10.00">_handle_async_event</text>
</a>
</g>
</g>
<!-- Node3&#45;&gt;Node4 -->
<g id="edge3_Node000003_Node000004" class="edge">
<title>Node3&#45;&gt;Node4</title>
<g id="a_edge3_Node000003_Node000004"><a xlink:title=" ">
<path fill="none" stroke="#63b8ff" d="M306.17,-603.9C303.69,-602.67 301.29,-601.34 299,-599.9 260.12,-575.59 228.11,-529.71 215.06,-509.23"/>
<polygon fill="#63b8ff" stroke="#63b8ff" points="304.72,-607.08 315.28,-607.82 307.49,-600.65 304.72,-607.08"/>
</a>
</g>
</g>
<!-- Node13&#45;&gt;Node3 -->
<g id="edge17_Node000013_Node000003" class="edge">
<title>Node13&#45;&gt;Node3</title>
<g id="a_edge17_Node000013_Node000003"><a xlink:title=" ">
<path fill="none" stroke="#63b8ff" d="M525.59,-380.09C511.46,-405.09 487.5,-449.21 471,-488.9 451.09,-536.79 472.35,-563.92 435,-599.9 430.73,-604.01 425.65,-607.25 420.21,-609.79"/>
<polygon fill="#63b8ff" stroke="#63b8ff" points="528.49,-382.07 530.41,-371.65 522.41,-378.6 528.49,-382.07"/>
</a>
</g>
</g>
<!-- Node14 -->
<g id="Node000014" class="node">
<title>Node14</title>
<g id="a_Node000014"><a xlink:href="class_async_client.html#ac4cdb0990fa85f03da98d1c98b1f8611" target="_top" xlink:title=" ">
<polygon fill="white" stroke="#666666" points="435,-552.9 299,-552.9 299,-532.9 435,-532.9 435,-552.9"/>
<text xml:space="preserve" text-anchor="middle" x="367" y="-539.4" font-family="Helvetica,sans-Serif" font-size="10.00">AsyncClient::_s_connected</text>
</a>
</g>
</g>
<!-- Node13&#45;&gt;Node14 -->
<g id="edge5_Node000013_Node000014" class="edge">
<title>Node13&#45;&gt;Node14</title>
<g id="a_edge5_Node000013_Node000014"><a xlink:title=" ">
<path fill="none" stroke="#63b8ff" d="M530.06,-380.57C516.85,-415.49 485.35,-486.04 435,-523.9 430.46,-527.32 425.33,-530.12 419.97,-532.42"/>
<polygon fill="#63b8ff" stroke="#63b8ff" points="533.19,-382.21 533.33,-371.62 526.61,-379.82 533.19,-382.21"/>
</a>
</g>
</g>
<!-- Node11 -->
<g id="Node000011" class="node">
<title>Node11</title>
<g id="a_Node000011"><a xlink:href="class_async_client.html#a3f629c9072da183879a9c67878b374cc" target="_top" xlink:title=" ">
<polygon fill="white" stroke="#666666" points="420.38,-514.9 313.62,-514.9 313.62,-482.9 420.38,-482.9 420.38,-514.9"/>
<text xml:space="preserve" text-anchor="start" x="321.62" y="-501.4" font-family="Helvetica,sans-Serif" font-size="10.00">AsyncClient::_s_dns</text>
<text xml:space="preserve" text-anchor="middle" x="367" y="-489.4" font-family="Helvetica,sans-Serif" font-size="10.00">_found</text>
</a>
</g>
</g>
<!-- Node13&#45;&gt;Node11 -->
<g id="edge7_Node000013_Node000011" class="edge">
<title>Node13&#45;&gt;Node11</title>
<g id="a_edge7_Node000013_Node000011"><a xlink:title=" ">
<path fill="none" stroke="#63b8ff" d="M524.27,-379.47C506.73,-404.53 473.23,-447.84 435,-473.9 430.28,-477.12 425.1,-479.99 419.76,-482.53"/>
<polygon fill="#63b8ff" stroke="#63b8ff" points="526.97,-381.72 529.73,-371.49 521.19,-377.77 526.97,-381.72"/>
</a>
</g>
</g>
<!-- Node15 -->
<g id="Node000015" class="node">
<title>Node15</title>
<g id="a_Node000015"><a xlink:href="class_async_client.html#a9ff634e3b1237eab65178b007326367e" target="_top" xlink:title=" ">
<polygon fill="white" stroke="#666666" points="422.25,-464.9 311.75,-464.9 311.75,-444.9 422.25,-444.9 422.25,-464.9"/>
<text xml:space="preserve" text-anchor="middle" x="367" y="-451.4" font-family="Helvetica,sans-Serif" font-size="10.00">AsyncClient::_s_error</text>
</a>
</g>
</g>
<!-- Node13&#45;&gt;Node15 -->
<g id="edge9_Node000013_Node000015" class="edge">
<title>Node13&#45;&gt;Node15</title>
<g id="a_edge9_Node000013_Node000015"><a xlink:title=" ">
<path fill="none" stroke="#63b8ff" d="M517.86,-377.73C498.29,-394.86 466.52,-420.38 435,-435.9 428.28,-439.22 420.88,-442.04 413.53,-444.42"/>
<polygon fill="#63b8ff" stroke="#63b8ff" points="519.94,-380.57 525.07,-371.3 515.28,-375.34 519.94,-380.57"/>
</a>
</g>
</g>
<!-- Node16 -->
<g id="Node000016" class="node">
<title>Node16</title>
<g id="a_Node000016"><a xlink:href="class_async_client.html#a6a69c67e1a22660766affb64700c2276" target="_top" xlink:title=" ">
<polygon fill="white" stroke="#666666" points="417.75,-426.9 316.25,-426.9 316.25,-406.9 417.75,-406.9 417.75,-426.9"/>
<text xml:space="preserve" text-anchor="middle" x="367" y="-413.4" font-family="Helvetica,sans-Serif" font-size="10.00">AsyncClient::_s_fin</text>
</a>
</g>
</g>
<!-- Node13&#45;&gt;Node16 -->
<g id="edge11_Node000013_Node000016" class="edge">
<title>Node13&#45;&gt;Node16</title>
<g id="a_edge11_Node000013_Node000016"><a xlink:title=" ">
<path fill="none" stroke="#63b8ff" d="M500.48,-374.38C481.12,-381.79 456.92,-390.74 435,-397.9 425.92,-400.87 416.07,-403.82 406.78,-406.47"/>
<polygon fill="#63b8ff" stroke="#63b8ff" points="501.49,-377.74 509.56,-370.87 498.97,-371.21 501.49,-377.74"/>
</a>
</g>
</g>
<!-- Node17 -->
<g id="Node000017" class="node">
<title>Node17</title>
<g id="a_Node000017"><a xlink:href="class_async_client.html#a485b2be0c01d3172928c0ed9655edc2f" target="_top" xlink:title=" ">
<polygon fill="white" stroke="#666666" points="429,-236.9 305,-236.9 305,-216.9 429,-216.9 429,-236.9"/>
<text xml:space="preserve" text-anchor="middle" x="367" y="-223.4" font-family="Helvetica,sans-Serif" font-size="10.00">AsyncClient::_s_lwip_fin</text>
</a>
</g>
</g>
<!-- Node13&#45;&gt;Node17 -->
<g id="edge13_Node000013_Node000017" class="edge">
<title>Node13&#45;&gt;Node17</title>
<g id="a_edge13_Node000013_Node000017"><a xlink:title=" ">
<path fill="none" stroke="#63b8ff" d="M524.84,-340.24C507.72,-314.72 474.45,-270.53 435,-245.9 429.56,-242.51 423.51,-239.71 417.32,-237.4"/>
<polygon fill="#63b8ff" stroke="#63b8ff" points="521.75,-341.91 530.15,-348.37 527.61,-338.08 521.75,-341.91"/>
</a>
</g>
</g>
<!-- Node13&#45;&gt;Node19 -->
<g id="edge24_Node000013_Node000019" class="edge">
<title>Node13&#45;&gt;Node19</title>
<g id="a_edge24_Node000013_Node000019"><a xlink:title=" ">
<path fill="none" stroke="#63b8ff" d="M532.53,-338.46C522.45,-298.37 494.71,-212.74 435,-174.9 332.99,-110.26 182.52,-126.42 106.66,-140.42"/>
<polygon fill="#63b8ff" stroke="#63b8ff" points="529.1,-339.14 534.8,-348.07 535.91,-337.53 529.1,-339.14"/>
</a>
</g>
</g>
<!-- Node20 -->
<g id="Node000020" class="node">
<title>Node20</title>
<g id="a_Node000020"><a xlink:href="class_async_client.html#af8136d3085c8948078a131bfb9430ec6" target="_top" xlink:title=" ">
<polygon fill="white" stroke="#666666" points="421.88,-388.9 312.12,-388.9 312.12,-368.9 421.88,-368.9 421.88,-388.9"/>
<text xml:space="preserve" text-anchor="middle" x="367" y="-375.4" font-family="Helvetica,sans-Serif" font-size="10.00">AsyncClient::_s_recv</text>
</a>
</g>
</g>
<!-- Node13&#45;&gt;Node20 -->
<g id="edge18_Node000013_Node000020" class="edge">
<title>Node13&#45;&gt;Node20</title>
<g id="a_edge18_Node000013_Node000020"><a xlink:title=" ">
<path fill="none" stroke="#63b8ff" d="M462.46,-368.3C448.89,-369.82 434.99,-371.38 422.16,-372.82"/>
<polygon fill="#63b8ff" stroke="#63b8ff" points="462.69,-371.8 472.24,-367.2 461.91,-364.84 462.69,-371.8"/>
</a>
</g>
</g>
<!-- Node21 -->
<g id="Node000021" class="node">
<title>Node21</title>
<g id="a_Node000021"><a xlink:href="class_async_client.html#a8e507d50b4cc3ae8e90f2e1c1ebf5f61" target="_top" xlink:title=" ">
<polygon fill="white" stroke="#666666" points="421.88,-590.9 312.12,-590.9 312.12,-570.9 421.88,-570.9 421.88,-590.9"/>
<text xml:space="preserve" text-anchor="middle" x="367" y="-577.4" font-family="Helvetica,sans-Serif" font-size="10.00">AsyncClient::_s_sent</text>
</a>
</g>
</g>
<!-- Node13&#45;&gt;Node21 -->
<g id="edge20_Node000013_Node000021" class="edge">
<title>Node13&#45;&gt;Node21</title>
<g id="a_edge20_Node000013_Node000021"><a xlink:title=" ">
<path fill="none" stroke="#63b8ff" d="M526.73,-380.14C513.58,-405.49 490.42,-450.31 471,-488.9 454.74,-521.22 462.8,-538.75 435,-561.9 430.82,-565.39 426.04,-568.23 421,-570.56"/>
<polygon fill="#63b8ff" stroke="#63b8ff" points="529.67,-382.07 531.17,-371.59 523.46,-378.85 529.67,-382.07"/>
</a>
</g>
</g>
<!-- Node22 -->
<g id="Node000022" class="node">
<title>Node22</title>
<g id="a_Node000022"><a xlink:href="class_async_client.html#a44e3b77c5567dbfeb25c50cfddf61653" target="_top" xlink:title=" ">
<polygon fill="white" stroke="#666666" points="426.75,-350.9 307.25,-350.9 307.25,-330.9 426.75,-330.9 426.75,-350.9"/>
<text xml:space="preserve" text-anchor="middle" x="367" y="-337.4" font-family="Helvetica,sans-Serif" font-size="10.00">AsyncClient::operator!=</text>
</a>
</g>
</g>
<!-- Node13&#45;&gt;Node22 -->
<g id="edge22_Node000013_Node000022" class="edge">
<title>Node13&#45;&gt;Node22</title>
<g id="a_edge22_Node000013_Node000022"><a xlink:title=" ">
<path fill="none" stroke="#63b8ff" d="M462.5,-351.51C450.64,-350.18 438.53,-348.82 427.11,-347.54"/>
<polygon fill="#63b8ff" stroke="#63b8ff" points="461.91,-354.97 472.24,-352.61 462.69,-348.01 461.91,-354.97"/>
</a>
</g>
</g>
<!-- Node23 -->
<g id="Node000023" class="node">
<title>Node23</title>
<g id="a_Node000023"><a xlink:href="class_async_client.html#afaedf716feb9b363fe9b1ee7d82fbe9f" target="_top" xlink:title=" ">
<polygon fill="white" stroke="#666666" points="428.25,-312.9 305.75,-312.9 305.75,-292.9 428.25,-292.9 428.25,-312.9"/>
<text xml:space="preserve" text-anchor="middle" x="367" y="-299.4" font-family="Helvetica,sans-Serif" font-size="10.00">AsyncClient::operator+=</text>
</a>
</g>
</g>
<!-- Node13&#45;&gt;Node23 -->
<g id="edge23_Node000013_Node000023" class="edge">
<title>Node13&#45;&gt;Node23</title>
<g id="a_edge23_Node000013_Node000023"><a xlink:title=" ">
<path fill="none" stroke="#63b8ff" d="M500.48,-345.43C481.12,-338.02 456.92,-329.07 435,-321.9 425.92,-318.94 416.07,-315.99 406.78,-313.34"/>
<polygon fill="#63b8ff" stroke="#63b8ff" points="498.97,-348.6 509.56,-348.94 501.49,-342.07 498.97,-348.6"/>
</a>
</g>
</g>
<!-- Node24 -->
<g id="Node000024" class="node">
<title>Node24</title>
<g id="a_Node000024"><a xlink:href="class_async_client.html#a40d147dfec9bbc2e8891273be25c5f39" target="_top" xlink:title=" ">
<polygon fill="white" stroke="#666666" points="428.25,-274.9 305.75,-274.9 305.75,-254.9 428.25,-254.9 428.25,-274.9"/>
<text xml:space="preserve" text-anchor="middle" x="367" y="-261.4" font-family="Helvetica,sans-Serif" font-size="10.00">AsyncClient::operator==</text>
</a>
</g>
</g>
<!-- Node13&#45;&gt;Node24 -->
<g id="edge25_Node000013_Node000024" class="edge">
<title>Node13&#45;&gt;Node24</title>
<g id="a_edge25_Node000013_Node000024"><a xlink:title=" ">
<path fill="none" stroke="#63b8ff" d="M517.86,-342.08C498.29,-324.95 466.52,-299.43 435,-283.9 428.28,-280.59 420.88,-277.77 413.53,-275.39"/>
<polygon fill="#63b8ff" stroke="#63b8ff" points="515.28,-344.47 525.07,-348.51 519.94,-339.24 515.28,-344.47"/>
</a>
</g>
</g>
<!-- Node14&#45;&gt;Node4 -->
<g id="edge6_Node000014_Node000004" class="edge">
<title>Node14&#45;&gt;Node4</title>
<g id="a_edge6_Node000014_Node000004"><a xlink:title=" ">
<path fill="none" stroke="#63b8ff" d="M317.78,-529.41C294.7,-522.95 267.49,-515.34 246.02,-509.33"/>
<polygon fill="#63b8ff" stroke="#63b8ff" points="316.7,-532.75 327.28,-532.07 318.59,-526 316.7,-532.75"/>
</a>
</g>
</g>
<!-- Node11&#45;&gt;Node4 -->
<g id="edge8_Node000011_Node000004" class="edge">
<title>Node11&#45;&gt;Node4</title>
<g id="a_edge8_Node000011_Node000004"><a xlink:title=" ">
<path fill="none" stroke="#63b8ff" d="M302.07,-498.9C289.21,-498.9 275.8,-498.9 263.29,-498.9"/>
<polygon fill="#63b8ff" stroke="#63b8ff" points="301.69,-502.4 311.69,-498.9 301.69,-495.4 301.69,-502.4"/>
</a>
</g>
</g>
<!-- Node15&#45;&gt;Node4 -->
<g id="edge10_Node000015_Node000004" class="edge">
<title>Node15&#45;&gt;Node4</title>
<g id="a_edge10_Node000015_Node000004"><a xlink:title=" ">
<path fill="none" stroke="#63b8ff" d="M317.78,-468.4C294.7,-474.86 267.49,-482.47 246.02,-488.48"/>
<polygon fill="#63b8ff" stroke="#63b8ff" points="318.59,-471.8 327.28,-465.74 316.7,-465.06 318.59,-471.8"/>
</a>
</g>
</g>
<!-- Node16&#45;&gt;Node4 -->
<g id="edge12_Node000016_Node000004" class="edge">
<title>Node16&#45;&gt;Node4</title>
<g id="a_edge12_Node000016_Node000004"><a xlink:title=" ">
<path fill="none" stroke="#63b8ff" d="M310.61,-431.01C306.62,-432.51 302.71,-434.14 299,-435.9 268.61,-450.32 237.35,-474.69 220.78,-488.51"/>
<polygon fill="#63b8ff" stroke="#63b8ff" points="311.52,-434.4 319.84,-427.83 309.24,-427.78 311.52,-434.4"/>
</a>
</g>
</g>
<!-- Node18 -->
<g id="Node000018" class="node">
<title>Node18</title>
<g id="a_Node000018"><a xlink:href="_async_t_c_p_8cpp.html#adf7826424bf5b1035c4850f6b3307686" target="_top" xlink:title=" ">
<polygon fill="#fff0f0" stroke="red" points="237.12,-198.9 178.38,-198.9 178.38,-178.9 237.12,-178.9 237.12,-198.9"/>
<text xml:space="preserve" text-anchor="middle" x="207.75" y="-185.4" font-family="Helvetica,sans-Serif" font-size="10.00">_tcp_recv</text>
</a>
</g>
</g>
<!-- Node17&#45;&gt;Node18 -->
<g id="edge14_Node000017_Node000018" class="edge">
<title>Node17&#45;&gt;Node18</title>
<g id="a_edge14_Node000017_Node000018"><a xlink:title=" ">
<path fill="none" stroke="#63b8ff" d="M311.49,-213.73C286.64,-207.73 258.24,-200.86 237.6,-195.88"/>
<polygon fill="#63b8ff" stroke="#63b8ff" points="310.6,-217.12 321.14,-216.06 312.25,-210.31 310.6,-217.12"/>
</a>
</g>
</g>
<!-- Node18&#45;&gt;Node13 -->
<g id="edge15_Node000018_Node000013" class="edge">
<title>Node18&#45;&gt;Node13</title>
<g id="a_edge15_Node000018_Node000013"><a xlink:title=" ">
<path fill="none" stroke="#63b8ff" d="M248.95,-182.37C296.77,-176.71 377.35,-174.03 435,-207.9 492.04,-241.42 523.89,-320.81 533.83,-349.41"/>
<polygon fill="#63b8ff" stroke="#63b8ff" points="248.5,-178.9 239.03,-183.65 249.4,-185.84 248.5,-178.9"/>
</a>
</g>
</g>
<!-- Node18&#45;&gt;Node19 -->
<g id="edge16_Node000018_Node000019" class="edge">
<title>Node18&#45;&gt;Node19</title>
<g id="a_edge16_Node000018_Node000019"><a xlink:title=" ">
<path fill="none" stroke="#63b8ff" d="M166.96,-178.65C146.2,-173.31 120.85,-166.78 99.96,-161.39"/>
<polygon fill="#63b8ff" stroke="#63b8ff" points="165.94,-182 176.49,-181.11 167.68,-175.23 165.94,-182"/>
</a>
</g>
</g>
<!-- Node20&#45;&gt;Node4 -->
<g id="edge19_Node000020_Node000004" class="edge">
<title>Node20&#45;&gt;Node4</title>
<g id="a_edge19_Node000020_Node000004"><a xlink:title=" ">
<path fill="none" stroke="#63b8ff" d="M306.17,-393.91C303.69,-395.14 301.29,-396.47 299,-397.9 260.12,-422.22 228.11,-468.09 215.06,-488.58"/>
<polygon fill="#63b8ff" stroke="#63b8ff" points="307.49,-397.16 315.28,-389.99 304.72,-390.73 307.49,-397.16"/>
</a>
</g>
</g>
<!-- Node21&#45;&gt;Node4 -->
<g id="edge21_Node000021_Node000004" class="edge">
<title>Node21&#45;&gt;Node4</title>
<g id="a_edge21_Node000021_Node000004"><a xlink:title=" ">
<path fill="none" stroke="#63b8ff" d="M310.61,-566.8C306.62,-565.29 302.71,-563.67 299,-561.9 268.61,-547.49 237.35,-523.12 220.78,-509.29"/>
<polygon fill="#63b8ff" stroke="#63b8ff" points="309.24,-570.03 319.84,-569.98 311.52,-563.41 309.24,-570.03"/>
</a>
</g>
</g>
<!-- Node26 -->
<g id="Node000026" class="node">
<title>Node26</title>
<g id="a_Node000026"><a xlink:href="class_async_telnet.html#a77dcd8e31b8bfb8b3082de385c5e7792" target="_top" xlink:title=" ">
<polygon fill="white" stroke="#666666" points="416.62,-46.9 317.38,-46.9 317.38,-26.9 416.62,-26.9 416.62,-46.9"/>
<text xml:space="preserve" text-anchor="middle" x="367" y="-33.4" font-family="Helvetica,sans-Serif" font-size="10.00">AsyncTelnet::begin</text>
</a>
</g>
</g>
<!-- Node25&#45;&gt;Node26 -->
<g id="edge27_Node000025_Node000026" class="edge">
<title>Node25&#45;&gt;Node26</title>
<g id="a_edge27_Node000025_Node000026"><a xlink:title=" ">
<path fill="none" stroke="#63b8ff" d="M479.42,-61.92C458.25,-57.17 434.6,-51.86 414.54,-47.35"/>
<polygon fill="#63b8ff" stroke="#63b8ff" points="478.55,-65.31 489.08,-64.09 480.09,-58.48 478.55,-65.31"/>
</a>
</g>
</g>
<!-- Node27 -->
<g id="Node000027" class="node">
<title>Node27</title>
<g id="a_Node000027"><a xlink:href="class_async_telnet_serial.html#a6cf9d6cc49602ff5ac0ec2af846a0d7a" target="_top" xlink:title=" ">
<polygon fill="white" stroke="#666666" points="258.12,-33.9 157.38,-33.9 157.38,-1.9 258.12,-1.9 258.12,-33.9"/>
<text xml:space="preserve" text-anchor="start" x="165.38" y="-20.4" font-family="Helvetica,sans-Serif" font-size="10.00">AsyncTelnetSerial::</text>
<text xml:space="preserve" text-anchor="middle" x="207.75" y="-8.4" font-family="Helvetica,sans-Serif" font-size="10.00">begin</text>
</a>
</g>
</g>
<!-- Node25&#45;&gt;Node27 -->
<g id="edge29_Node000025_Node000027" class="edge">
<title>Node25&#45;&gt;Node27</title>
<g id="a_edge29_Node000025_Node000027"><a xlink:title=" ">
<path fill="none" stroke="#63b8ff" d="M478.71,-60.06C476.04,-58.78 473.46,-57.4 471,-55.9 451.12,-43.83 456.37,-27.1 435,-17.9 378.17,6.54 305.63,0.91 258.22,-7.05"/>
<polygon fill="#63b8ff" stroke="#63b8ff" points="477.29,-63.26 487.87,-63.89 479.99,-56.8 477.29,-63.26"/>
</a>
</g>
</g>
<!-- Node28 -->
<g id="Node000028" class="node">
<title>Node28</title>
<g id="a_Node000028"><a xlink:href="class_async_client.html#a4bed4e925817d1b918af2ce43fb0859e" target="_top" xlink:title=" ">
<polygon fill="white" stroke="#666666" points="414,-84.9 320,-84.9 320,-64.9 414,-64.9 414,-84.9"/>
<text xml:space="preserve" text-anchor="middle" x="367" y="-71.4" font-family="Helvetica,sans-Serif" font-size="10.00">AsyncClient::stop</text>
</a>
</g>
</g>
<!-- Node25&#45;&gt;Node28 -->
<g id="edge30_Node000025_Node000028" class="edge">
<title>Node25&#45;&gt;Node28</title>
<g id="a_edge30_Node000025_Node000028"><a xlink:title=" ">
<path fill="none" stroke="#63b8ff" d="M477.51,-74.9C456.81,-74.9 433.94,-74.9 414.47,-74.9"/>
<polygon fill="#63b8ff" stroke="#63b8ff" points="477.24,-78.4 487.24,-74.9 477.24,-71.4 477.24,-78.4"/>
</a>
</g>
</g>
<!-- Node26&#45;&gt;Node27 -->
<g id="edge28_Node000026_Node000027" class="edge">
<title>Node26&#45;&gt;Node27</title>
<g id="a_edge28_Node000026_Node000027"><a xlink:title=" ">
<path fill="none" stroke="#63b8ff" d="M305.91,-29.64C290.23,-27.75 273.5,-25.73 258.43,-23.91"/>
<polygon fill="#63b8ff" stroke="#63b8ff" points="305.26,-33.09 315.6,-30.82 306.1,-26.14 305.26,-33.09"/>
</a>
</g>
</g>
</g>
</svg>

<g id="navigator" transform="translate(0 0)" fill="#404254">
  <rect fill="#f2f5e9" fill-opacity="0.5" stroke="#606060" stroke-width=".5" x="0" y="0" width="60" height="60"/>
  <use id="zoomplus" xlink:href="#zoomPlus" x="17" y="9" onmousedown="handleZoom(evt,'in')"/>
  <use id="zoomminus" xlink:href="#zoomMin" x="42" y="9" onmousedown="handleZoom(evt,'out')"/>
  <use id="reset" xlink:href="#resetDef" x="30" y="36" onmousedown="handleReset()"/>
   <use id="arrowup" xlink:href="#arrowUp" x="0" y="0" onmousedown="handlePan(0,-1)"/>
  <use id="arrowright" xlink:href="#arrowRight" x="0" y="0" onmousedown="handlePan(1,0)"/>
  <use id="arrowdown" xlink:href="#arrowDown" x="0" y="0" onmousedown="handlePan(0,1)"/>
  <use id="arrowleft" xlink:href="#arrowLeft" x="0" y="0" onmousedown="handlePan(-1,0)"/>
</g>
<svg viewBox="0 0 15 15" width="100%" height="30px" preserveAspectRatio="xMaxYMin meet">
 <g id="arrow_out" transform="scale(0.3 0.3)">
  <a xlink:href="class_async_client_a98ff872bc84919f006f3bb8a249ed36d_icgraph_org.svg" target="_base">
   <rect id="button" ry="5" rx="5" y="6" x="6" height="38" width="38"
        fill="#f2f5e9" fill-opacity="0.5" stroke="#606060" stroke-width="1.0"/>
   <path id="arrow"
     d="M 11.500037,31.436501 C 11.940474,20.09759 22.043105,11.32322 32.158766,21.979434 L 37.068811,17.246167 C 37.068811,17.246167 37.088388,32 37.088388,32 L 22.160133,31.978069 C 22.160133,31.978069 26.997745,27.140456 26.997745,27.140456 C 18.528582,18.264221 13.291696,25.230495 11.500037,31.436501 z"
     style="fill:#404040;"/>
  </a>
 </g>
</svg>

<style type='text/css'>
<![CDATA[
[data-mouse-over-selected='false'] { opacity: 0.7; }
[data-mouse-over-selected='true']  { opacity: 1.0; }
]]>
</style>
<script type="application/ecmascript"><![CDATA[
document.addEventListener('DOMContentLoaded', (event) => {
  highlightEdges();
  highlightAdjacentNodes();
});
]]></script>
</svg>
