<?xml version="1.0" encoding="UTF-8" standalone="no"?>
<!DOCTYPE svg PUBLIC "-//W3C//DTD SVG 1.1//EN"
 "http://www.w3.org/Graphics/SVG/1.1/DTD/svg11.dtd">
<!-- Generated by graphviz version 14.1.2 (20260124.0452)
 -->
<!-- Title: drawEnrollIndicator Pages: 1 -->
<svg width="292pt" height="47pt"
 viewBox="0.00 0.00 292.00 47.00" xmlns="http://www.w3.org/2000/svg" xmlns:xlink="http://www.w3.org/1999/xlink">
<g id="graph0" class="graph" transform="scale(1 1) rotate(0) translate(4 43)">
<title>drawEnrollIndicator</title>
<!-- Node1 -->
<g id="Node000001" class="node">
<title>Node1</title>
<g id="a_Node000001"><a xlink:title=" ">
<polygon fill="#999999" stroke="#666666" points="283.5,-39 184.25,-39 184.25,-19 283.5,-19 283.5,-39"/>
<text xml:space="preserve" text-anchor="middle" x="233.88" y="-25.5" font-family="Helvetica,sans-Serif" font-size="10.00">drawEnrollIndicator</text>
</a>
</g>
</g>
<!-- Node2 -->
<g id="Node000002" class="node">
<title>Node2</title>
<g id="a_Node000002"><a xlink:href="main_8cpp.html#afe461d27b9c48d5921c00d521181f12f" target="_top" xlink:title=" ">
<polygon fill="white" stroke="#666666" points="34,-39 0,-39 0,-19 34,-19 34,-39"/>
<text xml:space="preserve" text-anchor="middle" x="17" y="-25.5" font-family="Helvetica,sans-Serif" font-size="10.00">loop</text>
</a>
</g>
</g>
<!-- Node1&#45;&gt;Node2 -->
<g id="edge1_Node000001_Node000002" class="edge">
<title>Node1&#45;&gt;Node2</title>
<g id="a_edge1_Node000001_Node000002"><a xlink:title=" ">
<path fill="none" stroke="#63b8ff" d="M172.5,-29C125.28,-29 62.94,-29 34.01,-29"/>
<polygon fill="#63b8ff" stroke="#63b8ff" points="172.33,-32.5 182.33,-29 172.33,-25.5 172.33,-32.5"/>
</a>
</g>
</g>
<!-- Node3 -->
<g id="Node000003" class="node">
<title>Node3</title>
<g id="a_Node000003"><a xlink:href="main_8cpp.html#ab7eb3c8c2e8604801ee00f11d3af8c3f" target="_top" xlink:title=" ">
<polygon fill="white" stroke="#666666" points="148.25,-20 70,-20 70,0 148.25,0 148.25,-20"/>
<text xml:space="preserve" text-anchor="middle" x="109.12" y="-6.5" font-family="Helvetica,sans-Serif" font-size="10.00">updateDisplay</text>
</a>
</g>
</g>
<!-- Node1&#45;&gt;Node3 -->
<g id="edge2_Node000001_Node000003" class="edge">
<title>Node1&#45;&gt;Node3</title>
<g id="a_edge2_Node000001_Node000003"><a xlink:title=" ">
<path fill="none" stroke="#63b8ff" d="M172.84,-19.71C164.6,-18.43 156.33,-17.15 148.62,-15.96"/>
<polygon fill="#63b8ff" stroke="#63b8ff" points="172.09,-23.13 182.51,-21.2 173.17,-16.22 172.09,-23.13"/>
</a>
</g>
</g>
<!-- Node3&#45;&gt;Node2 -->
<g id="edge3_Node000003_Node000002" class="edge">
<title>Node3&#45;&gt;Node2</title>
<g id="a_edge3_Node000003_Node000002"><a xlink:title=" ">
<path fill="none" stroke="#63b8ff" d="M58.49,-20.46C49.7,-22.32 41.14,-24.12 34.18,-25.59"/>
<polygon fill="#63b8ff" stroke="#63b8ff" points="59.1,-23.91 68.16,-18.43 57.65,-17.06 59.1,-23.91"/>
</a>
</g>
</g>
</g>
</svg>
