<?xml version="1.0" encoding="UTF-8" standalone="no"?>
<!DOCTYPE svg PUBLIC "-//W3C//DTD SVG 1.1//EN"
 "http://www.w3.org/Graphics/SVG/1.1/DTD/svg11.dtd">
<!-- Generated by graphviz version 14.1.2 (20260124.0452)
 -->
<!-- Title: rfid Pages: 1 -->
<svg width="214pt" height="104pt"
 viewBox="0.00 0.00 214.00 104.00" xmlns="http://www.w3.org/2000/svg" xmlns:xlink="http://www.w3.org/1999/xlink">
<g id="graph0" class="graph" transform="scale(1 1) rotate(0) translate(4 100)">
<title>rfid</title>
<!-- Node1 -->
<g id="Node000001" class="node">
<title>Node1</title>
<g id="a_Node000001"><a xlink:title=" ">
<polygon fill="#999999" stroke="#666666" points="205.5,-58 176,-58 176,-38 205.5,-38 205.5,-58"/>
<text xml:space="preserve" text-anchor="middle" x="190.75" y="-44.5" font-family="Helvetica,sans-Serif" font-size="10.00">rfid</text>
</a>
</g>
</g>
<!-- Node2 -->
<g id="Node000002" class="node">
<title>Node2</title>
<g id="a_Node000002"><a xlink:href="main_8cpp.html#aac0054c88d779a4bafdea4137ee49ea1" target="_top" xlink:title=" ">
<polygon fill="white" stroke="#666666" points="140,-96 70,-96 70,-76 140,-76 140,-96"/>
<text xml:space="preserve" text-anchor="middle" x="105" y="-82.5" font-family="Helvetica,sans-Serif" font-size="10.00">getUidString</text>
</a>
</g>
</g>
<!-- Node1&#45;&gt;Node2 -->
<g id="edge1_Node000001_Node000002" class="edge">
<title>Node1&#45;&gt;Node2</title>
<g id="a_edge1_Node000001_Node000002"><a xlink:title=" ">
<path fill="none" stroke="#63b8ff" d="M165.3,-59.09C153.78,-64.32 140.13,-70.52 128.82,-75.65"/>
<polygon fill="#63b8ff" stroke="#63b8ff" points="166.5,-62.39 174.16,-55.07 163.61,-56.02 166.5,-62.39"/>
</a>
</g>
</g>
<!-- Node3 -->
<g id="Node000003" class="node">
<title>Node3</title>
<g id="a_Node000003"><a xlink:href="main_8cpp.html#afe461d27b9c48d5921c00d521181f12f" target="_top" xlink:title=" ">
<polygon fill="white" stroke="#666666" points="34,-77 0,-77 0,-57 34,-57 34,-77"/>
<text xml:space="preserve" text-anchor="middle" x="17" y="-63.5" font-family="Helvetica,sans-Serif" font-size="10.00">loop</text>
</a>
</g>
</g>
<!-- Node1&#45;&gt;Node3 -->
<g id="edge3_Node000001_Node000003" class="edge">
<title>Node1&#45;&gt;Node3</title>
<g id="a_edge3_Node000001_Node000003"><a xlink:title=" ">
<path fill="none" stroke="#63b8ff" d="M164.35,-50.81C128.64,-54.76 64.6,-61.84 34.49,-65.18"/>
<polygon fill="#63b8ff" stroke="#63b8ff" points="164.64,-54.3 174.19,-49.72 163.87,-47.34 164.64,-54.3"/>
</a>
</g>
</g>
<!-- Node4 -->
<g id="Node000004" class="node">
<title>Node4</title>
<g id="a_Node000004"><a xlink:href="main_8cpp.html#a4fc01d736fe50cf5b977f755b675f11d" target="_top" xlink:title=" ">
<polygon fill="white" stroke="#666666" points="125,-20 85,-20 85,0 125,0 125,-20"/>
<text xml:space="preserve" text-anchor="middle" x="105" y="-6.5" font-family="Helvetica,sans-Serif" font-size="10.00">setup</text>
</a>
</g>
</g>
<!-- Node1&#45;&gt;Node4 -->
<g id="edge4_Node000001_Node000004" class="edge">
<title>Node1&#45;&gt;Node4</title>
<g id="a_edge4_Node000001_Node000004"><a xlink:title=" ">
<path fill="none" stroke="#63b8ff" d="M165.19,-36.85C152.47,-31.09 137.17,-24.14 125.31,-18.76"/>
<polygon fill="#63b8ff" stroke="#63b8ff" points="163.61,-39.98 174.16,-40.93 166.5,-33.61 163.61,-39.98"/>
</a>
</g>
</g>
<!-- Node2&#45;&gt;Node3 -->
<g id="edge2_Node000002_Node000003" class="edge">
<title>Node2&#45;&gt;Node3</title>
<g id="a_edge2_Node000002_Node000003"><a xlink:title=" ">
<path fill="none" stroke="#63b8ff" d="M58.55,-75.96C49.87,-74.04 41.32,-72.15 34.32,-70.61"/>
<polygon fill="#63b8ff" stroke="#63b8ff" points="57.52,-79.32 68.04,-78.05 59.03,-72.48 57.52,-79.32"/>
</a>
</g>
</g>
</g>
</svg>
