<?xml version="1.0" encoding="UTF-8" standalone="no"?>
<!DOCTYPE svg PUBLIC "-//W3C//DTD SVG 1.1//EN"
 "http://www.w3.org/Graphics/SVG/1.1/DTD/svg11.dtd">
<!-- Generated by graphviz version 14.1.2 (20260124.0452)
 -->
<!-- Title: NetworkTask Pages: 1 -->
<!--zoomable 279 -->

<svg id="main" version="1.1" xmlns="http://www.w3.org/2000/svg" xmlns:xlink="http://www.w3.org/1999/xlink" xml:space="preserve" onload="init(evt)">

<style type="text/css"><![CDATA[
.node, .edge {opacity: 0.7;}
.node.selected, .edge.selected {opacity: 1;}
.edge:hover path { stroke: red; }
.edge:hover polygon { stroke: red; fill: red; }
]]></style>

<defs>
  <circle id="rim" cx="0" cy="0" r="7"/>
  <circle id="rim2" cx="0" cy="0" r="3.5"/>
  <g id="zoomPlus">
    <use xlink:href="#rim" fill="#404040"><set attributeName="fill" to="#808080" begin="zoomplus.mouseover" end="zoomplus.mouseout"/></use>
    <path d="M-4,0h8M0,-4v8" fill="none" stroke="white" stroke-width="1.5" pointer-events="none"/>
  </g>
  <g id="zoomMin">
    <use xlink:href="#rim" fill="#404040"><set attributeName="fill" to="#808080" begin="zoomminus.mouseover" end="zoomminus.mouseout"/></use>
    <path d="M-4,0h8" fill="none" stroke="white" stroke-width="1.5" pointer-events="none"/>
  </g>
  <g id="arrowUp" transform="translate(30 24)">
    <use xlink:href="#rim"/>
    <path pointer-events="none" fill="none" stroke="white" stroke-width="1.5" d="M0,-3.0v7 M-2.5,-0.5L0,-3.0L2.5,-0.5"/>
  </g>
  <g id="arrowRight" transform="rotate(90) translate(36 -43)">
    <use xlink:href="#rim"/>
    <path pointer-events="none" fill="none" stroke="white" stroke-width="1.5" d="M0,-3.0v7 M-2.5,-0.5L0,-3.0L2.5,-0.5"/>
  </g>
  <g id="arrowDown" transform="rotate(180) translate(-30 -48)">
    <use xlink:href="#rim"/>
    <path pointer-events="none" fill="none" stroke="white" stroke-width="1.5" d="M0,-3.0v7 M-2.5,-0.5L0,-3.0L2.5,-0.5"/>
  </g>
  <g id="arrowLeft" transform="rotate(270) translate(-36 17)">
    <use xlink:href="#rim"/>
    <path pointer-events="none" fill="none" stroke="white" stroke-width="1.5" d="M0,-3.0v7 M-2.5,-0.5L0,-3.0L2.5,-0.5"/>
  </g>
  <g id="resetDef">
    <use xlink:href="#rim2" fill="#404040"><set attributeName="fill" to="#808080" begin="reset.mouseover" end="reset.mouseout"/></use>
  </g>
</defs>
<script type="application/ecmascript">
var viewWidth = 771;
var viewHeight = 279;
var sectionId = 'dynsection-10';
</script>
<script type="application/ecmascript" xlink:href="svg.min.js"/>
<svg id="graph" class="graph">
<g id="viewport">
<title>NetworkTask</title>
<!-- Node1 -->
<g id="Node000001" class="node">
<title>Node1</title>
<g id="a_Node000001"><a xlink:title=" ">
<polygon fill="#999999" stroke="#666666" points="73.75,-176 0,-176 0,-156 73.75,-156 73.75,-176"/>
<text xml:space="preserve" text-anchor="middle" x="36.88" y="-162.5" font-family="Helvetica,sans-Serif" font-size="10.00">NetworkTask</text>
</a>
</g>
</g>
<!-- Node2 -->
<g id="Node000002" class="node">
<title>Node2</title>
<g id="a_Node000002"><a xlink:href="main_8cpp.html#a9c13549d7021c392f62e99ca431ed68f" target="_top" xlink:title=" ">
<polygon fill="white" stroke="#666666" points="237.12,-271 116.88,-271 116.88,-251 237.12,-251 237.12,-271"/>
<text xml:space="preserve" text-anchor="middle" x="177" y="-257.5" font-family="Helvetica,sans-Serif" font-size="10.00">authSyncTimerCallback</text>
</a>
</g>
</g>
<!-- Node1&#45;&gt;Node2 -->
<g id="edge1_Node000001_Node000002" class="edge">
<title>Node1&#45;&gt;Node2</title>
<g id="a_edge1_Node000001_Node000002"><a xlink:title=" ">
<path fill="none" stroke="#63b8ff" d="M44.77,-176.27C56.29,-192.63 81.04,-224.55 109.75,-242 112.21,-243.5 114.79,-244.88 117.45,-246.16"/>
<polygon fill="#63b8ff" stroke="#63b8ff" points="116.04,-249.36 126.61,-249.99 118.74,-242.9 116.04,-249.36"/>
</a>
</g>
</g>
<!-- Node3 -->
<g id="Node000003" class="node">
<title>Node3</title>
<g id="a_Node000003"><a xlink:href="_timer_handle_8cpp.html#adf4efc0096d384fe387c6115d85ef108" target="_top" xlink:title=" ">
<polygon fill="white" stroke="#666666" points="232.25,-233 121.75,-233 121.75,-213 232.25,-213 232.25,-233"/>
<text xml:space="preserve" text-anchor="middle" x="177" y="-219.5" font-family="Helvetica,sans-Serif" font-size="10.00">createAuthSyncTimer</text>
</a>
</g>
</g>
<!-- Node1&#45;&gt;Node3 -->
<g id="edge2_Node000001_Node000003" class="edge">
<title>Node1&#45;&gt;Node3</title>
<g id="a_edge2_Node000001_Node000003"><a xlink:title=" ">
<path fill="none" stroke="#63b8ff" d="M55.11,-176.42C69.38,-184.72 90.37,-196.2 109.75,-204 114.31,-205.83 119.1,-207.57 123.95,-209.19"/>
<polygon fill="#63b8ff" stroke="#63b8ff" points="122.52,-212.41 133.11,-212.09 124.64,-205.74 122.52,-212.41"/>
</a>
</g>
</g>
<!-- Node4 -->
<g id="Node000004" class="node">
<title>Node4</title>
<g id="a_Node000004"><a xlink:href="_timer_handle_8cpp.html#a4e74ed1d9d446cd1faab3eb16c156507" target="_top" xlink:title=" ">
<polygon fill="white" stroke="#666666" points="239.38,-195 114.62,-195 114.62,-175 239.38,-175 239.38,-195"/>
<text xml:space="preserve" text-anchor="middle" x="177" y="-181.5" font-family="Helvetica,sans-Serif" font-size="10.00">createServerCheckTimer</text>
</a>
</g>
</g>
<!-- Node1&#45;&gt;Node4 -->
<g id="edge3_Node000001_Node000004" class="edge">
<title>Node1&#45;&gt;Node4</title>
<g id="a_edge3_Node000001_Node000004"><a xlink:title=" ">
<path fill="none" stroke="#63b8ff" d="M74.17,-170.99C83.11,-172.22 93.01,-173.58 103.02,-174.96"/>
<polygon fill="#63b8ff" stroke="#63b8ff" points="102.43,-178.41 112.82,-176.31 103.39,-171.48 102.43,-178.41"/>
</a>
</g>
</g>
<!-- Node5 -->
<g id="Node000005" class="node">
<title>Node5</title>
<g id="a_Node000005"><a xlink:href="main_8cpp.html#a2102e26d185797e237136e53b01c9601" target="_top" xlink:title=" ">
<polygon fill="white" stroke="#666666" points="215,-157 139,-157 139,-137 215,-137 215,-157"/>
<text xml:space="preserve" text-anchor="middle" x="177" y="-143.5" font-family="Helvetica,sans-Serif" font-size="10.00">postLastScan</text>
</a>
</g>
</g>
<!-- Node1&#45;&gt;Node5 -->
<g id="edge4_Node000001_Node000005" class="edge">
<title>Node1&#45;&gt;Node5</title>
<g id="a_edge4_Node000001_Node000005"><a xlink:title=" ">
<path fill="none" stroke="#63b8ff" d="M74.17,-161.01C90.43,-158.77 109.84,-156.1 127.34,-153.69"/>
<polygon fill="#63b8ff" stroke="#63b8ff" points="127.58,-157.19 137.01,-152.36 126.62,-150.26 127.58,-157.19"/>
</a>
</g>
</g>
<!-- Node6 -->
<g id="Node000006" class="node">
<title>Node6</title>
<g id="a_Node000006"><a xlink:href="main_8cpp.html#aa0e2758845b7d1fb9e42b73c5a160462" target="_top" xlink:title=" ">
<polygon fill="white" stroke="#666666" points="244.25,-119 109.75,-119 109.75,-99 244.25,-99 244.25,-119"/>
<text xml:space="preserve" text-anchor="middle" x="177" y="-105.5" font-family="Helvetica,sans-Serif" font-size="10.00">serverCheckTimerCallback</text>
</a>
</g>
</g>
<!-- Node1&#45;&gt;Node6 -->
<g id="edge5_Node000001_Node000006" class="edge">
<title>Node1&#45;&gt;Node6</title>
<g id="a_edge5_Node000001_Node000006"><a xlink:title=" ">
<path fill="none" stroke="#63b8ff" d="M55.11,-155.58C69.38,-147.28 90.37,-135.8 109.75,-128 114.31,-126.17 119.1,-124.43 123.95,-122.81"/>
<polygon fill="#63b8ff" stroke="#63b8ff" points="124.64,-126.26 133.11,-119.91 122.52,-119.59 124.64,-126.26"/>
</a>
</g>
</g>
<!-- Node8 -->
<g id="Node000008" class="node">
<title>Node8</title>
<g id="a_Node000008"><a xlink:href="class_auth_sync.html#a19dac50eb59905f92b7da75d12f5f309" target="_top" xlink:title=" ">
<polygon fill="white" stroke="#666666" points="224,-80 130,-80 130,-60 224,-60 224,-80"/>
<text xml:space="preserve" text-anchor="middle" x="177" y="-66.5" font-family="Helvetica,sans-Serif" font-size="10.00">AuthSync::update</text>
</a>
</g>
</g>
<!-- Node1&#45;&gt;Node8 -->
<g id="edge7_Node000001_Node000008" class="edge">
<title>Node1&#45;&gt;Node8</title>
<g id="a_edge7_Node000001_Node000008"><a xlink:title=" ">
<path fill="none" stroke="#63b8ff" d="M44.99,-155.51C56.63,-139.14 81.32,-107.56 109.75,-90 112.87,-88.07 116.18,-86.32 119.6,-84.73"/>
<polygon fill="#63b8ff" stroke="#63b8ff" points="120.77,-88.04 128.7,-81.01 118.12,-81.56 120.77,-88.04"/>
</a>
</g>
</g>
<!-- Node7 -->
<g id="Node000007" class="node">
<title>Node7</title>
<g id="a_Node000007"><a xlink:href="class_auth_sync.html#a668053bb8f705b94855d748e8705e903" target="_top" xlink:title=" ">
<polygon fill="white" stroke="#666666" points="414.75,-127 282.5,-127 282.5,-95 414.75,-95 414.75,-127"/>
<text xml:space="preserve" text-anchor="start" x="290.5" y="-113.5" font-family="Helvetica,sans-Serif" font-size="10.00">AuthSync::setServerProbe</text>
<text xml:space="preserve" text-anchor="middle" x="348.62" y="-101.5" font-family="Helvetica,sans-Serif" font-size="10.00">Result</text>
</a>
</g>
</g>
<!-- Node6&#45;&gt;Node7 -->
<g id="edge6_Node000006_Node000007" class="edge">
<title>Node6&#45;&gt;Node7</title>
<g id="a_edge6_Node000006_Node000007"><a xlink:title=" ">
<path fill="none" stroke="#63b8ff" d="M244.55,-109.78C253.14,-109.89 261.98,-109.99 270.71,-110.09"/>
<polygon fill="#63b8ff" stroke="#63b8ff" points="270.54,-113.59 280.58,-110.21 270.63,-106.59 270.54,-113.59"/>
</a>
</g>
</g>
<!-- Node9 -->
<g id="Node000009" class="node">
<title>Node9</title>
<g id="a_Node000009"><a xlink:href="class_auth_sync.html#ab2999f3e828083471d482f9bde0d72f2" target="_top" xlink:title=" ">
<polygon fill="white" stroke="#666666" points="417,-77 280.25,-77 280.25,-57 417,-57 417,-77"/>
<text xml:space="preserve" text-anchor="middle" x="348.62" y="-63.5" font-family="Helvetica,sans-Serif" font-size="10.00">AuthSync::syncFromServer</text>
</a>
</g>
</g>
<!-- Node8&#45;&gt;Node9 -->
<g id="edge8_Node000008_Node000009" class="edge">
<title>Node8&#45;&gt;Node9</title>
<g id="a_edge8_Node000008_Node000009"><a xlink:title=" ">
<path fill="none" stroke="#63b8ff" d="M224.35,-69.18C238.03,-68.94 253.4,-68.67 268.53,-68.4"/>
<polygon fill="#63b8ff" stroke="#63b8ff" points="268.57,-71.9 278.51,-68.22 268.45,-64.9 268.57,-71.9"/>
</a>
</g>
</g>
<!-- Node10 -->
<g id="Node000010" class="node">
<title>Node10</title>
<g id="a_Node000010"><a xlink:href="class_auth_sync.html#aab1e2b7beebdab60e16d9b3a50678efd" target="_top" xlink:title=" ">
<polygon fill="white" stroke="#666666" points="762.5,-77 628.75,-77 628.75,-57 762.5,-57 762.5,-77"/>
<text xml:space="preserve" text-anchor="middle" x="695.62" y="-63.5" font-family="Helvetica,sans-Serif" font-size="10.00">AuthSync::calcBitsetBytes</text>
</a>
</g>
</g>
<!-- Node9&#45;&gt;Node10 -->
<g id="edge9_Node000009_Node000010" class="edge">
<title>Node9&#45;&gt;Node10</title>
<g id="a_edge9_Node000009_Node000010"><a xlink:title=" ">
<path fill="none" stroke="#63b8ff" d="M391.77,-77.41C400.24,-79.91 408.99,-82.8 417,-86 433.8,-92.71 435.44,-100.65 453,-105 513.29,-119.93 531.63,-116.03 592.75,-105 617.2,-100.59 643.44,-90.67 663.17,-82.07"/>
<polygon fill="#63b8ff" stroke="#63b8ff" points="664.33,-85.38 672.02,-78.09 661.46,-79 664.33,-85.38"/>
</a>
</g>
</g>
<!-- Node11 -->
<g id="Node000011" class="node">
<title>Node11</title>
<g id="a_Node000011"><a xlink:href="class_auth_sync.html#a4a8d3b99ed3bfb87ab36b2abbcce0594" target="_top" xlink:title=" ">
<polygon fill="white" stroke="#666666" points="590.12,-96 455.62,-96 455.62,-76 590.12,-76 590.12,-96"/>
<text xml:space="preserve" text-anchor="middle" x="522.88" y="-82.5" font-family="Helvetica,sans-Serif" font-size="10.00">AuthSync::saveBitsetToFS</text>
</a>
</g>
</g>
<!-- Node9&#45;&gt;Node11 -->
<g id="edge10_Node000009_Node000011" class="edge">
<title>Node9&#45;&gt;Node11</title>
<g id="a_edge10_Node000009_Node000011"><a xlink:title=" ">
<path fill="none" stroke="#63b8ff" d="M417.21,-74.45C426.02,-75.43 435.11,-76.43 444.07,-77.42"/>
<polygon fill="#63b8ff" stroke="#63b8ff" points="443.51,-80.88 453.83,-78.49 444.27,-73.92 443.51,-80.88"/>
</a>
</g>
</g>
<!-- Node12 -->
<g id="Node000012" class="node">
<title>Node12</title>
<g id="a_Node000012"><a xlink:href="class_auth_sync.html#a96c599b762bdafa672930dfa6f07ff13" target="_top" xlink:title=" ">
<polygon fill="#fff0f0" stroke="red" points="592.75,-58 453,-58 453,-38 592.75,-38 592.75,-58"/>
<text xml:space="preserve" text-anchor="middle" x="522.88" y="-44.5" font-family="Helvetica,sans-Serif" font-size="10.00">AuthSync::saveETagToNVS</text>
</a>
</g>
</g>
<!-- Node9&#45;&gt;Node12 -->
<g id="edge11_Node000009_Node000012" class="edge">
<title>Node9&#45;&gt;Node12</title>
<g id="a_edge11_Node000009_Node000012"><a xlink:title=" ">
<path fill="none" stroke="#63b8ff" d="M417.21,-59.55C425.09,-58.68 433.18,-57.78 441.22,-56.9"/>
<polygon fill="#63b8ff" stroke="#63b8ff" points="441.44,-60.39 451,-55.82 440.68,-53.44 441.44,-60.39"/>
</a>
</g>
</g>
<!-- Node14 -->
<g id="Node000014" class="node">
<title>Node14</title>
<g id="a_Node000014"><a xlink:href="class_auth_sync.html#a756e144d847c736d9932311d101a8a8f" target="_top" xlink:title=" ">
<polygon fill="white" stroke="#666666" points="580.75,-20 465,-20 465,0 580.75,0 580.75,-20"/>
<text xml:space="preserve" text-anchor="middle" x="522.88" y="-6.5" font-family="Helvetica,sans-Serif" font-size="10.00">AuthSync::writeByteAt</text>
</a>
</g>
</g>
<!-- Node9&#45;&gt;Node14 -->
<g id="edge12_Node000009_Node000014" class="edge">
<title>Node9&#45;&gt;Node14</title>
<g id="a_edge12_Node000009_Node000014"><a xlink:title=" ">
<path fill="none" stroke="#63b8ff" d="M376.19,-56.54C396.94,-48.54 426.6,-37.48 453,-29 458.76,-27.15 464.82,-25.32 470.86,-23.56"/>
<polygon fill="#63b8ff" stroke="#63b8ff" points="471.53,-27.01 480.19,-20.91 469.61,-20.28 471.53,-27.01"/>
</a>
</g>
</g>
<!-- Node14&#45;&gt;Node10 -->
<g id="edge13_Node000014_Node000010" class="edge">
<title>Node14&#45;&gt;Node10</title>
<g id="a_edge13_Node000014_Node000010"><a xlink:title=" ">
<path fill="none" stroke="#63b8ff" d="M564.11,-20.46C573.56,-23.09 583.55,-26.02 592.75,-29 614.52,-36.05 638.51,-44.94 657.74,-52.35"/>
<polygon fill="#63b8ff" stroke="#63b8ff" points="656.46,-55.61 667.05,-55.97 659,-49.08 656.46,-55.61"/>
</a>
</g>
</g>
</g>
</svg>

<g id="navigator" transform="translate(0 0)" fill="#404254">
  <rect fill="#f2f5e9" fill-opacity="0.5" stroke="#606060" stroke-width=".5" x="0" y="0" width="60" height="60"/>
  <use id="zoomplus" xlink:href="#zoomPlus" x="17" y="9" onmousedown="handleZoom(evt,'in')"/>
  <use id="zoomminus" xlink:href="#zoomMin" x="42" y="9" onmousedown="handleZoom(evt,'out')"/>
  <use id="reset" xlink:href="#resetDef" x="30" y="36" onmousedown="handleReset()"/>
   <use id="arrowup" xlink:href="#arrowUp" x="0" y="0" onmousedown="handlePan(0,-1)"/>
  <use id="arrowright" xlink:href="#arrowRight" x="0" y="0" onmousedown="handlePan(1,0)"/>
  <use id="arrowdown" xlink:href="#arrowDown" x="0" y="0" onmousedown="handlePan(0,1)"/>
  <use id="arrowleft" xlink:href="#arrowLeft" x="0" y="0" onmousedown="handlePan(-1,0)"/>
</g>
<svg viewBox="0 0 15 15" width="100%" height="30px" preserveAspectRatio="xMaxYMin meet">
 <g id="arrow_out" transform="scale(0.3 0.3)">
  <a xlink:href="main_8cpp_a1752872dd104f06716cb944c1922de40_cgraph_org.svg" target="_base">
   <rect id="button" ry="5" rx="5" y="6" x="6" height="38" width="38"
        fill="#f2f5e9" fill-opacity="0.5" stroke="#606060" stroke-width="1.0"/>
   <path id="arrow"
     d="M 11.500037,31.436501 C 11.940474,20.09759 22.043105,11.32322 32.158766,21.979434 L 37.068811,17.246167 C 37.068811,17.246167 37.088388,32 37.088388,32 L 22.160133,31.978069 C 22.160133,31.978069 26.997745,27.140456 26.997745,27.140456 C 18.528582,18.264221 13.291696,25.230495 11.500037,31.436501 z"
     style="fill:#404040;"/>
  </a>
 </g>
</svg>

<style type='text/css'>
<![CDATA[
[data-mouse-over-selected='false'] { opacity: 0.7; }
[data-mouse-over-selected='true']  { opacity: 1.0; }
]]>
</style>
<script type="application/ecmascript"><![CDATA[
document.addEventListener('DOMContentLoaded', (event) => {
  highlightEdges();
  highlightAdjacentNodes();
});
]]></script>
</svg>
