<?xml version="1.0" encoding="UTF-8" standalone="no"?>
<!DOCTYPE svg PUBLIC "-//W3C//DTD SVG 1.1//EN"
 "http://www.w3.org/Graphics/SVG/1.1/DTD/svg11.dtd">
<!-- Generated by graphviz version 14.1.2 (20260124.0452)
 -->
<!-- Title: setup Pages: 1 -->
<svg width="958pt" height="560pt"
 viewBox="0.00 0.00 958.00 560.00" xmlns="http://www.w3.org/2000/svg" xmlns:xlink="http://www.w3.org/1999/xlink">
<g id="graph0" class="graph" transform="scale(1 1) rotate(0) translate(4 556)">
<title>setup</title>
<!-- Node1 -->
<g id="Node000001" class="node">
<title>Node1</title>
<g id="a_Node000001"><a xlink:title=" ">
<polygon fill="#999999" stroke="#666666" points="40,-362 0,-362 0,-342 40,-342 40,-362"/>
<text xml:space="preserve" text-anchor="middle" x="20" y="-348.5" font-family="Helvetica,sans-Serif" font-size="10.00">setup</text>
</a>
</g>
</g>
<!-- Node2 -->
<g id="Node000002" class="node">
<title>Node2</title>
<g id="a_Node000002"><a xlink:href="class_auth_sync.html#aec04aa99037a9c07ddd7603471e3ec4f" target="_top" xlink:title=" ">
<polygon fill="white" stroke="#666666" points="197,-552 89.5,-552 89.5,-532 197,-532 197,-552"/>
<text xml:space="preserve" text-anchor="middle" x="143.25" y="-538.5" font-family="Helvetica,sans-Serif" font-size="10.00">AuthSync::AuthSync</text>
</a>
</g>
</g>
<!-- Node1&#45;&gt;Node2 -->
<g id="edge1_Node000001_Node000002" class="edge">
<title>Node1&#45;&gt;Node2</title>
<g id="a_edge1_Node000001_Node000002"><a xlink:title=" ">
<path fill="none" stroke="#63b8ff" d="M21.13,-362.17C22.08,-391.56 28.96,-477.44 76,-523 77.21,-524.17 78.48,-525.27 79.82,-526.3"/>
<polygon fill="#63b8ff" stroke="#63b8ff" points="77.68,-529.09 88.02,-531.39 81.37,-523.14 77.68,-529.09"/>
</a>
</g>
</g>
<!-- Node3 -->
<g id="Node000003" class="node">
<title>Node3</title>
<g id="a_Node000003"><a xlink:href="class_auth_sync.html#a6834600967f5b023e9810fc2293d2c51" target="_top" xlink:title=" ">
<polygon fill="white" stroke="#666666" points="187.25,-400 99.25,-400 99.25,-380 187.25,-380 187.25,-400"/>
<text xml:space="preserve" text-anchor="middle" x="143.25" y="-386.5" font-family="Helvetica,sans-Serif" font-size="10.00">AuthSync::begin</text>
</a>
</g>
</g>
<!-- Node1&#45;&gt;Node3 -->
<g id="edge2_Node000001_Node000003" class="edge">
<title>Node1&#45;&gt;Node3</title>
<g id="a_edge2_Node000001_Node000003"><a xlink:title=" ">
<path fill="none" stroke="#63b8ff" d="M40.48,-358.11C56,-362.97 78.32,-369.97 98.11,-376.17"/>
<polygon fill="#63b8ff" stroke="#63b8ff" points="97.06,-379.51 107.65,-379.16 99.15,-372.83 97.06,-379.51"/>
</a>
</g>
</g>
<!-- Node13 -->
<g id="Node000013" class="node">
<title>Node13</title>
<g id="a_Node000013"><a xlink:href="_timer_handle_8cpp.html#a76a4d620939b74245f3cbeb810033714" target="_top" xlink:title=" ">
<polygon fill="white" stroke="#666666" points="193.62,-476 92.88,-476 92.88,-456 193.62,-456 193.62,-476"/>
<text xml:space="preserve" text-anchor="middle" x="143.25" y="-462.5" font-family="Helvetica,sans-Serif" font-size="10.00">createDisplayTimer</text>
</a>
</g>
</g>
<!-- Node1&#45;&gt;Node13 -->
<g id="edge12_Node000001_Node000013" class="edge">
<title>Node1&#45;&gt;Node13</title>
<g id="a_edge12_Node000001_Node000013"><a xlink:title=" ">
<path fill="none" stroke="#63b8ff" d="M24.08,-362.32C30.47,-381.87 47,-424.37 76,-447 77.99,-448.56 80.11,-449.98 82.31,-451.29"/>
<polygon fill="#63b8ff" stroke="#63b8ff" points="80.57,-454.34 91.08,-455.65 83.68,-448.07 80.57,-454.34"/>
</a>
</g>
</g>
<!-- Node14 -->
<g id="Node000014" class="node">
<title>Node14</title>
<g id="a_Node000014"><a xlink:href="main_8cpp.html#a9c6adceab3b46443902cf2a5b0796a7c" target="_top" xlink:title=" ">
<polygon fill="white" stroke="#666666" points="198.12,-438 88.38,-438 88.38,-418 198.12,-418 198.12,-438"/>
<text xml:space="preserve" text-anchor="middle" x="143.25" y="-424.5" font-family="Helvetica,sans-Serif" font-size="10.00">displayTimerCallback</text>
</a>
</g>
</g>
<!-- Node1&#45;&gt;Node14 -->
<g id="edge13_Node000001_Node000014" class="edge">
<title>Node1&#45;&gt;Node14</title>
<g id="a_edge13_Node000001_Node000014"><a xlink:title=" ">
<path fill="none" stroke="#63b8ff" d="M28.33,-362.45C37.87,-375.27 55.73,-396.81 76,-409 78.47,-410.48 81.06,-411.86 83.72,-413.13"/>
<polygon fill="#63b8ff" stroke="#63b8ff" points="82.32,-416.33 92.89,-416.94 85.01,-409.87 82.32,-416.33"/>
</a>
</g>
</g>
<!-- Node15 -->
<g id="Node000015" class="node">
<title>Node15</title>
<g id="a_Node000015"><a xlink:href="main_8cpp.html#acd554cb2efdf9d085573f58441f9431a" target="_top" xlink:title=" ">
<polygon fill="white" stroke="#666666" points="177.5,-324 109,-324 109,-304 177.5,-304 177.5,-324"/>
<text xml:space="preserve" text-anchor="middle" x="143.25" y="-310.5" font-family="Helvetica,sans-Serif" font-size="10.00">drawHeader</text>
</a>
</g>
</g>
<!-- Node1&#45;&gt;Node15 -->
<g id="edge14_Node000001_Node000015" class="edge">
<title>Node1&#45;&gt;Node15</title>
<g id="a_edge14_Node000001_Node000015"><a xlink:title=" ">
<path fill="none" stroke="#63b8ff" d="M40.48,-345.89C56,-341.03 78.32,-334.03 98.11,-327.83"/>
<polygon fill="#63b8ff" stroke="#63b8ff" points="99.15,-331.17 107.65,-324.84 97.06,-324.49 99.15,-331.17"/>
</a>
</g>
</g>
<!-- Node16 -->
<g id="Node000016" class="node">
<title>Node16</title>
<g id="a_Node000016"><a xlink:href="main_8cpp.html#a5bfb006b7c98d41a337e56d0f4a5619f" target="_top" xlink:title=" ">
<polygon fill="white" stroke="#666666" points="343.12,-362 306.12,-362 306.12,-342 343.12,-342 343.12,-362"/>
<text xml:space="preserve" text-anchor="middle" x="324.62" y="-348.5" font-family="Helvetica,sans-Serif" font-size="10.00">u8x8</text>
</a>
</g>
</g>
<!-- Node1&#45;&gt;Node16 -->
<g id="edge33_Node000001_Node000016" class="edge">
<title>Node1&#45;&gt;Node16</title>
<g id="a_edge33_Node000001_Node000016"><a xlink:title=" ">
<path fill="none" stroke="#63b8ff" d="M40.39,-352C92.02,-352 233.04,-352 294.43,-352"/>
<polygon fill="#63b8ff" stroke="#63b8ff" points="294.41,-355.5 304.41,-352 294.41,-348.5 294.41,-355.5"/>
</a>
</g>
</g>
<!-- Node17 -->
<g id="Node000017" class="node">
<title>Node17</title>
<g id="a_Node000017"><a xlink:href="class_auth_sync.html#a70491cf68689f4d6dc2e34ecdb385e26" target="_top" xlink:title=" ">
<polygon fill="white" stroke="#666666" points="595,-58 447.75,-58 447.75,-38 595,-38 595,-58"/>
<text xml:space="preserve" text-anchor="middle" x="521.38" y="-44.5" font-family="Helvetica,sans-Serif" font-size="10.00">AuthSync::dumpMemoryStats</text>
</a>
</g>
</g>
<!-- Node1&#45;&gt;Node17 -->
<g id="edge16_Node000001_Node000017" class="edge">
<title>Node1&#45;&gt;Node17</title>
<g id="a_edge16_Node000001_Node000017"><a xlink:title=" ">
<path fill="none" stroke="#63b8ff" d="M21.96,-341.68C25.04,-313.31 36.93,-232.78 76,-181 130.9,-108.23 160.24,-96.48 246.5,-67 307.68,-46.09 380.93,-42.01 436.27,-42.79"/>
<polygon fill="#63b8ff" stroke="#63b8ff" points="435.86,-46.28 445.93,-42.98 436,-39.28 435.86,-46.28"/>
</a>
</g>
</g>
<!-- Node18 -->
<g id="Node000018" class="node">
<title>Node18</title>
<g id="a_Node000018"><a xlink:href="class_config_manager.html#a7bfca5cc9eec8e5fd51e0cc91f1f4b26" target="_top" xlink:title=" ">
<polygon fill="white" stroke="#666666" points="210.5,-286 76,-286 76,-266 210.5,-266 210.5,-286"/>
<text xml:space="preserve" text-anchor="middle" x="143.25" y="-272.5" font-family="Helvetica,sans-Serif" font-size="10.00">ConfigManager::loadConfig</text>
</a>
</g>
</g>
<!-- Node1&#45;&gt;Node18 -->
<g id="edge18_Node000001_Node000018" class="edge">
<title>Node1&#45;&gt;Node18</title>
<g id="a_edge18_Node000001_Node000018"><a xlink:title=" ">
<path fill="none" stroke="#63b8ff" d="M28.33,-341.55C37.87,-328.73 55.73,-307.19 76,-295 78.47,-293.52 81.06,-292.14 83.72,-290.87"/>
<polygon fill="#63b8ff" stroke="#63b8ff" points="85.01,-294.13 92.89,-287.06 82.32,-287.67 85.01,-294.13"/>
</a>
</g>
</g>
<!-- Node20 -->
<g id="Node000020" class="node">
<title>Node20</title>
<g id="a_Node000020"><a xlink:href="main_8cpp.html#a1752872dd104f06716cb944c1922de40" target="_top" xlink:title=" ">
<polygon fill="white" stroke="#666666" points="180.12,-210 106.38,-210 106.38,-190 180.12,-190 180.12,-210"/>
<text xml:space="preserve" text-anchor="middle" x="143.25" y="-196.5" font-family="Helvetica,sans-Serif" font-size="10.00">NetworkTask</text>
</a>
</g>
</g>
<!-- Node1&#45;&gt;Node20 -->
<g id="edge20_Node000001_Node000020" class="edge">
<title>Node1&#45;&gt;Node20</title>
<g id="a_edge20_Node000001_Node000020"><a xlink:title=" ">
<path fill="none" stroke="#63b8ff" d="M25.6,-341.58C33.98,-323.29 53,-284.72 76,-257 88.4,-242.06 104.95,-227.82 118.41,-217.3"/>
<polygon fill="#63b8ff" stroke="#63b8ff" points="120.51,-220.1 126.35,-211.27 116.27,-214.53 120.51,-220.1"/>
</a>
</g>
</g>
<!-- Node28 -->
<g id="Node000028" class="node">
<title>Node28</title>
<g id="a_Node000028"><a xlink:href="class_auth_sync.html#a6b5eb87b981c15a7ed816bd5e133546c" target="_top" xlink:title=" ">
<polygon fill="white" stroke="#666666" points="205.25,-514 81.25,-514 81.25,-494 205.25,-494 205.25,-514"/>
<text xml:space="preserve" text-anchor="middle" x="143.25" y="-500.5" font-family="Helvetica,sans-Serif" font-size="10.00">AuthSync::preloadOffline</text>
</a>
</g>
</g>
<!-- Node1&#45;&gt;Node28 -->
<g id="edge29_Node000001_Node000028" class="edge">
<title>Node1&#45;&gt;Node28</title>
<g id="a_edge29_Node000001_Node000028"><a xlink:title=" ">
<path fill="none" stroke="#63b8ff" d="M22.23,-362.4C25.75,-387.38 38.17,-451.21 76,-485 77.08,-485.96 78.2,-486.88 79.37,-487.75"/>
<polygon fill="#63b8ff" stroke="#63b8ff" points="77.29,-490.58 87.65,-492.76 80.91,-484.59 77.29,-490.58"/>
</a>
</g>
</g>
<!-- Node29 -->
<g id="Node000029" class="node">
<title>Node29</title>
<g id="a_Node000029"><a xlink:href="main_8cpp.html#a7cc33c6b9b1bd83e02864b1eb0530a63" target="_top" xlink:title=" ">
<polygon fill="white" stroke="#666666" points="158,-20 128.5,-20 128.5,0 158,0 158,-20"/>
<text xml:space="preserve" text-anchor="middle" x="143.25" y="-6.5" font-family="Helvetica,sans-Serif" font-size="10.00">rfid</text>
</a>
</g>
</g>
<!-- Node1&#45;&gt;Node29 -->
<g id="edge32_Node000001_Node000029" class="edge">
<title>Node1&#45;&gt;Node29</title>
<g id="a_edge32_Node000001_Node000029"><a xlink:title=" ">
<path fill="none" stroke="#63b8ff" d="M21.43,-341.6C23.66,-292.28 35.44,-82.43 76,-34 86.13,-21.91 102.85,-15.91 116.96,-12.93"/>
<polygon fill="#63b8ff" stroke="#63b8ff" points="117.23,-16.44 126.51,-11.33 116.07,-9.54 117.23,-16.44"/>
</a>
</g>
</g>
<!-- Node4 -->
<g id="Node000004" class="node">
<title>Node4</title>
<g id="a_Node000004"><a xlink:href="class_auth_sync.html#ac017101fb171c69cdf5449a54b9832ac" target="_top" xlink:title=" ">
<polygon fill="white" stroke="#666666" points="396.38,-457 252.88,-457 252.88,-437 396.38,-437 396.38,-457"/>
<text xml:space="preserve" text-anchor="middle" x="324.62" y="-443.5" font-family="Helvetica,sans-Serif" font-size="10.00">AuthSync::loadBitsetFromFS</text>
</a>
</g>
</g>
<!-- Node3&#45;&gt;Node4 -->
<g id="edge3_Node000003_Node000004" class="edge">
<title>Node3&#45;&gt;Node4</title>
<g id="a_edge3_Node000003_Node000004"><a xlink:title=" ">
<path fill="none" stroke="#63b8ff" d="M181.83,-400.46C191.22,-403.16 201.25,-406.12 210.5,-409 234.76,-416.55 261.73,-425.58 283.26,-432.95"/>
<polygon fill="#63b8ff" stroke="#63b8ff" points="281.94,-436.2 292.54,-436.14 284.22,-429.58 281.94,-436.2"/>
</a>
</g>
</g>
<!-- Node5 -->
<g id="Node000005" class="node">
<title>Node5</title>
<g id="a_Node000005"><a xlink:href="class_auth_sync.html#a068f973556d6acd59bf12b10220d26b0" target="_top" xlink:title=" ">
<polygon fill="white" stroke="#666666" points="399,-504 250.25,-504 250.25,-484 399,-484 399,-504"/>
<text xml:space="preserve" text-anchor="middle" x="324.62" y="-490.5" font-family="Helvetica,sans-Serif" font-size="10.00">AuthSync::loadETagFromNVS</text>
</a>
</g>
</g>
<!-- Node3&#45;&gt;Node5 -->
<g id="edge4_Node000003_Node000005" class="edge">
<title>Node3&#45;&gt;Node5</title>
<g id="a_edge4_Node000003_Node000005"><a xlink:title=" ">
<path fill="none" stroke="#63b8ff" d="M187.74,-397.56C195.81,-400.28 203.8,-403.98 210.5,-409 234.47,-426.98 223.16,-447.21 246.5,-466 253.13,-471.34 260.88,-475.72 268.85,-479.28"/>
<polygon fill="#63b8ff" stroke="#63b8ff" points="267.4,-482.47 277.98,-482.96 270.01,-475.98 267.4,-482.47"/>
</a>
</g>
</g>
<!-- Node7 -->
<g id="Node000007" class="node">
<title>Node7</title>
<g id="a_Node000007"><a xlink:href="class_auth_sync.html#ab2999f3e828083471d482f9bde0d72f2" target="_top" xlink:title=" ">
<polygon fill="white" stroke="#666666" points="589.75,-286 453,-286 453,-266 589.75,-266 589.75,-286"/>
<text xml:space="preserve" text-anchor="middle" x="521.38" y="-272.5" font-family="Helvetica,sans-Serif" font-size="10.00">AuthSync::syncFromServer</text>
</a>
</g>
</g>
<!-- Node3&#45;&gt;Node7 -->
<g id="edge6_Node000003_Node000007" class="edge">
<title>Node3&#45;&gt;Node7</title>
<g id="a_edge6_Node000003_Node000007"><a xlink:title=" ">
<path fill="none" stroke="#63b8ff" d="M187.62,-394.49C240.42,-398.26 331.4,-399.2 402.75,-371 444.59,-354.46 483.13,-317.49 504.03,-294.85"/>
<polygon fill="#63b8ff" stroke="#63b8ff" points="506.53,-297.31 510.62,-287.53 501.33,-292.63 506.53,-297.31"/>
</a>
</g>
</g>
<!-- Node6 -->
<g id="Node000006" class="node">
<title>Node6</title>
<g id="a_Node000006"><a xlink:href="class_auth_sync.html#a15f7b64e6f52b59c941b3d0077947d0a" target="_top" xlink:title=" ">
<polygon fill="white" stroke="#666666" points="604,-504 438.75,-504 438.75,-484 604,-484 604,-504"/>
<text xml:space="preserve" text-anchor="middle" x="521.38" y="-490.5" font-family="Helvetica,sans-Serif" font-size="10.00">AuthSync::loadAllowDenyFromFS</text>
</a>
</g>
</g>
<!-- Node5&#45;&gt;Node6 -->
<g id="edge5_Node000005_Node000006" class="edge">
<title>Node5&#45;&gt;Node6</title>
<g id="a_edge5_Node000005_Node000006"><a xlink:title=" ">
<path fill="none" stroke="#63b8ff" d="M399.25,-494C408.36,-494 417.77,-494 427.13,-494"/>
<polygon fill="#63b8ff" stroke="#63b8ff" points="426.98,-497.5 436.98,-494 426.98,-490.5 426.98,-497.5"/>
</a>
</g>
</g>
<!-- Node8 -->
<g id="Node000008" class="node">
<title>Node8</title>
<g id="a_Node000008"><a xlink:href="class_auth_sync.html#aab1e2b7beebdab60e16d9b3a50678efd" target="_top" xlink:title=" ">
<polygon fill="white" stroke="#666666" points="949.5,-210 815.75,-210 815.75,-190 949.5,-190 949.5,-210"/>
<text xml:space="preserve" text-anchor="middle" x="882.62" y="-196.5" font-family="Helvetica,sans-Serif" font-size="10.00">AuthSync::calcBitsetBytes</text>
</a>
</g>
</g>
<!-- Node7&#45;&gt;Node8 -->
<g id="edge7_Node000007_Node000008" class="edge">
<title>Node7&#45;&gt;Node8</title>
<g id="a_edge7_Node000007_Node000008"><a xlink:title=" ">
<path fill="none" stroke="#63b8ff" d="M538.74,-265.61C560.78,-252.21 601.67,-229.4 640,-219 693.58,-204.47 756.1,-199.87 804.12,-198.82"/>
<polygon fill="#63b8ff" stroke="#63b8ff" points="803.93,-202.33 813.87,-198.66 803.81,-195.33 803.93,-202.33"/>
</a>
</g>
</g>
<!-- Node9 -->
<g id="Node000009" class="node">
<title>Node9</title>
<g id="a_Node000009"><a xlink:href="class_auth_sync.html#a4a8d3b99ed3bfb87ab36b2abbcce0594" target="_top" xlink:title=" ">
<polygon fill="white" stroke="#666666" points="777.12,-248 642.62,-248 642.62,-228 777.12,-228 777.12,-248"/>
<text xml:space="preserve" text-anchor="middle" x="709.88" y="-234.5" font-family="Helvetica,sans-Serif" font-size="10.00">AuthSync::saveBitsetToFS</text>
</a>
</g>
</g>
<!-- Node7&#45;&gt;Node9 -->
<g id="edge8_Node000007_Node000009" class="edge">
<title>Node7&#45;&gt;Node9</title>
<g id="a_edge8_Node000007_Node000009"><a xlink:title=" ">
<path fill="none" stroke="#63b8ff" d="M573.83,-265.52C596.36,-260.93 622.98,-255.5 646.61,-250.69"/>
<polygon fill="#63b8ff" stroke="#63b8ff" points="647,-254.18 656.1,-248.75 645.61,-247.32 647,-254.18"/>
</a>
</g>
</g>
<!-- Node10 -->
<g id="Node000010" class="node">
<title>Node10</title>
<g id="a_Node000010"><a xlink:href="class_auth_sync.html#a96c599b762bdafa672930dfa6f07ff13" target="_top" xlink:title=" ">
<polygon fill="#fff0f0" stroke="red" points="779.75,-286 640,-286 640,-266 779.75,-266 779.75,-286"/>
<text xml:space="preserve" text-anchor="middle" x="709.88" y="-272.5" font-family="Helvetica,sans-Serif" font-size="10.00">AuthSync::saveETagToNVS</text>
</a>
</g>
</g>
<!-- Node7&#45;&gt;Node10 -->
<g id="edge9_Node000007_Node000010" class="edge">
<title>Node7&#45;&gt;Node10</title>
<g id="a_edge9_Node000007_Node000010"><a xlink:title=" ">
<path fill="none" stroke="#63b8ff" d="M590.23,-276C602.51,-276 615.43,-276 628.04,-276"/>
<polygon fill="#63b8ff" stroke="#63b8ff" points="627.99,-279.5 637.99,-276 627.99,-272.5 627.99,-279.5"/>
</a>
</g>
</g>
<!-- Node12 -->
<g id="Node000012" class="node">
<title>Node12</title>
<g id="a_Node000012"><a xlink:href="class_auth_sync.html#a756e144d847c736d9932311d101a8a8f" target="_top" xlink:title=" ">
<polygon fill="white" stroke="#666666" points="767.75,-324 652,-324 652,-304 767.75,-304 767.75,-324"/>
<text xml:space="preserve" text-anchor="middle" x="709.88" y="-310.5" font-family="Helvetica,sans-Serif" font-size="10.00">AuthSync::writeByteAt</text>
</a>
</g>
</g>
<!-- Node7&#45;&gt;Node12 -->
<g id="edge10_Node000007_Node000012" class="edge">
<title>Node7&#45;&gt;Node12</title>
<g id="a_edge10_Node000007_Node000012"><a xlink:title=" ">
<path fill="none" stroke="#63b8ff" d="M573.83,-286.48C596.36,-291.07 622.98,-296.5 646.61,-301.31"/>
<polygon fill="#63b8ff" stroke="#63b8ff" points="645.61,-304.68 656.1,-303.25 647,-297.82 645.61,-304.68"/>
</a>
</g>
</g>
<!-- Node12&#45;&gt;Node8 -->
<g id="edge11_Node000012_Node000008" class="edge">
<title>Node12&#45;&gt;Node8</title>
<g id="a_edge11_Node000012_Node000008"><a xlink:title=" ">
<path fill="none" stroke="#63b8ff" d="M760.2,-303.54C766.98,-301.21 773.69,-298.39 779.75,-295 815.24,-275.16 848.05,-240.41 866.4,-218.88"/>
<polygon fill="#63b8ff" stroke="#63b8ff" points="868.88,-221.38 872.59,-211.45 863.5,-216.9 868.88,-221.38"/>
</a>
</g>
</g>
<!-- Node15&#45;&gt;Node16 -->
<g id="edge15_Node000015_Node000016" class="edge">
<title>Node15&#45;&gt;Node16</title>
<g id="a_edge15_Node000015_Node000016"><a xlink:title=" ">
<path fill="none" stroke="#63b8ff" d="M177.99,-321.15C211.64,-328.28 262.8,-339.11 294.67,-345.87"/>
<polygon fill="#63b8ff" stroke="#63b8ff" points="293.87,-349.27 304.38,-347.92 295.32,-342.43 293.87,-349.27"/>
</a>
</g>
</g>
<!-- Node17&#45;&gt;Node8 -->
<g id="edge17_Node000017_Node000008" class="edge">
<title>Node17&#45;&gt;Node8</title>
<g id="a_edge17_Node000017_Node000008"><a xlink:title=" ">
<path fill="none" stroke="#63b8ff" d="M575.11,-58.5C584.83,-60.93 594.8,-63.77 604,-67 698.9,-100.33 804.3,-156.53 853.48,-183.96"/>
<polygon fill="#63b8ff" stroke="#63b8ff" points="851.62,-186.93 862.05,-188.78 855.05,-180.83 851.62,-186.93"/>
</a>
</g>
</g>
<!-- Node19 -->
<g id="Node000019" class="node">
<title>Node19</title>
<g id="a_Node000019"><a xlink:href="class_config_manager.html#a0fb1a41701933f36e9f63ef3d2efe092" target="_top" xlink:title=" ">
<polygon fill="white" stroke="#666666" points="402.75,-324 246.5,-324 246.5,-304 402.75,-304 402.75,-324"/>
<text xml:space="preserve" text-anchor="middle" x="324.62" y="-310.5" font-family="Helvetica,sans-Serif" font-size="10.00">ConfigManager::readConfigJson</text>
</a>
</g>
</g>
<!-- Node18&#45;&gt;Node19 -->
<g id="edge19_Node000018_Node000019" class="edge">
<title>Node18&#45;&gt;Node19</title>
<g id="a_edge19_Node000018_Node000019"><a xlink:title=" ">
<path fill="none" stroke="#63b8ff" d="M193.74,-286.48C215.21,-291.03 240.55,-296.4 263.12,-301.18"/>
<polygon fill="#63b8ff" stroke="#63b8ff" points="262.31,-304.59 272.82,-303.24 263.76,-297.74 262.31,-304.59"/>
</a>
</g>
</g>
<!-- Node21 -->
<g id="Node000021" class="node">
<title>Node21</title>
<g id="a_Node000021"><a xlink:href="main_8cpp.html#a9c13549d7021c392f62e99ca431ed68f" target="_top" xlink:title=" ">
<polygon fill="white" stroke="#666666" points="384.75,-248 264.5,-248 264.5,-228 384.75,-228 384.75,-248"/>
<text xml:space="preserve" text-anchor="middle" x="324.62" y="-234.5" font-family="Helvetica,sans-Serif" font-size="10.00">authSyncTimerCallback</text>
</a>
</g>
</g>
<!-- Node20&#45;&gt;Node21 -->
<g id="edge21_Node000020_Node000021" class="edge">
<title>Node20&#45;&gt;Node21</title>
<g id="a_edge21_Node000020_Node000021"><a xlink:title=" ">
<path fill="none" stroke="#63b8ff" d="M180.55,-207.69C204.21,-212.7 235.67,-219.37 263.06,-225.17"/>
<polygon fill="#63b8ff" stroke="#63b8ff" points="262.14,-228.55 272.64,-227.2 263.59,-221.7 262.14,-228.55"/>
</a>
</g>
</g>
<!-- Node22 -->
<g id="Node000022" class="node">
<title>Node22</title>
<g id="a_Node000022"><a xlink:href="_timer_handle_8cpp.html#adf4efc0096d384fe387c6115d85ef108" target="_top" xlink:title=" ">
<polygon fill="white" stroke="#666666" points="379.88,-210 269.38,-210 269.38,-190 379.88,-190 379.88,-210"/>
<text xml:space="preserve" text-anchor="middle" x="324.62" y="-196.5" font-family="Helvetica,sans-Serif" font-size="10.00">createAuthSyncTimer</text>
</a>
</g>
</g>
<!-- Node20&#45;&gt;Node22 -->
<g id="edge22_Node000020_Node000022" class="edge">
<title>Node20&#45;&gt;Node22</title>
<g id="a_edge22_Node000020_Node000022"><a xlink:title=" ">
<path fill="none" stroke="#63b8ff" d="M180.55,-200C202.66,-200 231.59,-200 257.64,-200"/>
<polygon fill="#63b8ff" stroke="#63b8ff" points="257.47,-203.5 267.47,-200 257.47,-196.5 257.47,-203.5"/>
</a>
</g>
</g>
<!-- Node23 -->
<g id="Node000023" class="node">
<title>Node23</title>
<g id="a_Node000023"><a xlink:href="_timer_handle_8cpp.html#a4e74ed1d9d446cd1faab3eb16c156507" target="_top" xlink:title=" ">
<polygon fill="white" stroke="#666666" points="387,-172 262.25,-172 262.25,-152 387,-152 387,-172"/>
<text xml:space="preserve" text-anchor="middle" x="324.62" y="-158.5" font-family="Helvetica,sans-Serif" font-size="10.00">createServerCheckTimer</text>
</a>
</g>
</g>
<!-- Node20&#45;&gt;Node23 -->
<g id="edge23_Node000020_Node000023" class="edge">
<title>Node20&#45;&gt;Node23</title>
<g id="a_edge23_Node000020_Node000023"><a xlink:title=" ">
<path fill="none" stroke="#63b8ff" d="M180.55,-192.31C204.21,-187.3 235.67,-180.63 263.06,-174.83"/>
<polygon fill="#63b8ff" stroke="#63b8ff" points="263.59,-178.3 272.64,-172.8 262.14,-171.45 263.59,-178.3"/>
</a>
</g>
</g>
<!-- Node24 -->
<g id="Node000024" class="node">
<title>Node24</title>
<g id="a_Node000024"><a xlink:href="main_8cpp.html#a2102e26d185797e237136e53b01c9601" target="_top" xlink:title=" ">
<polygon fill="white" stroke="#666666" points="362.62,-134 286.62,-134 286.62,-114 362.62,-114 362.62,-134"/>
<text xml:space="preserve" text-anchor="middle" x="324.62" y="-120.5" font-family="Helvetica,sans-Serif" font-size="10.00">postLastScan</text>
</a>
</g>
</g>
<!-- Node20&#45;&gt;Node24 -->
<g id="edge24_Node000020_Node000024" class="edge">
<title>Node20&#45;&gt;Node24</title>
<g id="a_edge24_Node000020_Node000024"><a xlink:title=" ">
<path fill="none" stroke="#63b8ff" d="M159.89,-189.53C179.4,-176.89 214.16,-155.73 246.5,-143 255.63,-139.41 265.64,-136.34 275.34,-133.79"/>
<polygon fill="#63b8ff" stroke="#63b8ff" points="276.18,-137.19 285.05,-131.39 274.5,-130.39 276.18,-137.19"/>
</a>
</g>
</g>
<!-- Node25 -->
<g id="Node000025" class="node">
<title>Node25</title>
<g id="a_Node000025"><a xlink:href="main_8cpp.html#aa0e2758845b7d1fb9e42b73c5a160462" target="_top" xlink:title=" ">
<polygon fill="white" stroke="#666666" points="391.88,-96 257.38,-96 257.38,-76 391.88,-76 391.88,-96"/>
<text xml:space="preserve" text-anchor="middle" x="324.62" y="-82.5" font-family="Helvetica,sans-Serif" font-size="10.00">serverCheckTimerCallback</text>
</a>
</g>
</g>
<!-- Node20&#45;&gt;Node25 -->
<g id="edge25_Node000020_Node000025" class="edge">
<title>Node20&#45;&gt;Node25</title>
<g id="a_edge25_Node000020_Node000025"><a xlink:title=" ">
<path fill="none" stroke="#63b8ff" d="M152.3,-189.61C168.13,-169.93 205.35,-127.22 246.5,-105 249.56,-103.35 252.76,-101.84 256.05,-100.46"/>
<polygon fill="#63b8ff" stroke="#63b8ff" points="257.2,-103.77 265.36,-97 254.76,-97.2 257.2,-103.77"/>
</a>
</g>
</g>
<!-- Node27 -->
<g id="Node000027" class="node">
<title>Node27</title>
<g id="a_Node000027"><a xlink:href="class_auth_sync.html#a19dac50eb59905f92b7da75d12f5f309" target="_top" xlink:title=" ">
<polygon fill="white" stroke="#666666" points="371.62,-286 277.62,-286 277.62,-266 371.62,-266 371.62,-286"/>
<text xml:space="preserve" text-anchor="middle" x="324.62" y="-272.5" font-family="Helvetica,sans-Serif" font-size="10.00">AuthSync::update</text>
</a>
</g>
</g>
<!-- Node20&#45;&gt;Node27 -->
<g id="edge27_Node000020_Node000027" class="edge">
<title>Node20&#45;&gt;Node27</title>
<g id="a_edge27_Node000020_Node000027"><a xlink:title=" ">
<path fill="none" stroke="#63b8ff" d="M159.89,-210.47C179.4,-223.11 214.16,-244.27 246.5,-257 252.9,-259.52 259.73,-261.78 266.59,-263.78"/>
<polygon fill="#63b8ff" stroke="#63b8ff" points="265.29,-267.06 275.86,-266.32 267.14,-260.3 265.29,-267.06"/>
</a>
</g>
</g>
<!-- Node26 -->
<g id="Node000026" class="node">
<title>Node26</title>
<g id="a_Node000026"><a xlink:href="class_auth_sync.html#a668053bb8f705b94855d748e8705e903" target="_top" xlink:title=" ">
<polygon fill="white" stroke="#666666" points="587.5,-108 455.25,-108 455.25,-76 587.5,-76 587.5,-108"/>
<text xml:space="preserve" text-anchor="start" x="463.25" y="-94.5" font-family="Helvetica,sans-Serif" font-size="10.00">AuthSync::setServerProbe</text>
<text xml:space="preserve" text-anchor="middle" x="521.38" y="-82.5" font-family="Helvetica,sans-Serif" font-size="10.00">Result</text>
</a>
</g>
</g>
<!-- Node25&#45;&gt;Node26 -->
<g id="edge26_Node000025_Node000026" class="edge">
<title>Node25&#45;&gt;Node26</title>
<g id="a_edge26_Node000025_Node000026"><a xlink:title=" ">
<path fill="none" stroke="#63b8ff" d="M392.37,-88.06C408.99,-88.57 426.94,-89.12 443.98,-89.65"/>
<polygon fill="#63b8ff" stroke="#63b8ff" points="443.42,-93.13 453.52,-89.94 443.63,-86.13 443.42,-93.13"/>
</a>
</g>
</g>
<!-- Node27&#45;&gt;Node7 -->
<g id="edge28_Node000027_Node000007" class="edge">
<title>Node27&#45;&gt;Node7</title>
<g id="a_edge28_Node000027_Node000007"><a xlink:title=" ">
<path fill="none" stroke="#63b8ff" d="M371.78,-276C392.56,-276 417.69,-276 441.33,-276"/>
<polygon fill="#63b8ff" stroke="#63b8ff" points="441.28,-279.5 451.28,-276 441.28,-272.5 441.28,-279.5"/>
</a>
</g>
</g>
<!-- Node28&#45;&gt;Node4 -->
<g id="edge30_Node000028_Node000004" class="edge">
<title>Node28&#45;&gt;Node4</title>
<g id="a_edge30_Node000028_Node000004"><a xlink:title=" ">
<path fill="none" stroke="#63b8ff" d="M181.83,-493.54C191.22,-490.84 201.25,-487.88 210.5,-485 234.76,-477.45 261.73,-468.42 283.26,-461.05"/>
<polygon fill="#63b8ff" stroke="#63b8ff" points="284.22,-464.42 292.54,-457.86 281.94,-457.8 284.22,-464.42"/>
</a>
</g>
</g>
<!-- Node28&#45;&gt;Node5 -->
<g id="edge31_Node000028_Node000005" class="edge">
<title>Node28&#45;&gt;Node5</title>
<g id="a_edge31_Node000028_Node000005"><a xlink:title=" ">
<path fill="none" stroke="#63b8ff" d="M205.73,-500.57C216.27,-499.99 227.38,-499.37 238.41,-498.75"/>
<polygon fill="#63b8ff" stroke="#63b8ff" points="238.54,-502.25 248.33,-498.2 238.15,-495.26 238.54,-502.25"/>
</a>
</g>
</g>
</g>
</svg>
