<?xml version="1.0" encoding="UTF-8" standalone="no"?>
<!DOCTYPE svg PUBLIC "-//W3C//DTD SVG 1.1//EN"
 "http://www.w3.org/Graphics/SVG/1.1/DTD/svg11.dtd">
<!-- Generated by graphviz version 14.1.2 (20260124.0452)
 -->
<!-- Title: u8x8 Pages: 1 -->
<svg width="365pt" height="124pt"
 viewBox="0.00 0.00 365.00 124.00" xmlns="http://www.w3.org/2000/svg" xmlns:xlink="http://www.w3.org/1999/xlink">

<svg id="main" version="1.1" xmlns="http://www.w3.org/2000/svg" xmlns:xlink="http://www.w3.org/1999/xlink" xml:space="preserve">

<style type="text/css"><![CDATA[
.node, .edge {opacity: 0.7;}
.node.selected, .edge.selected {opacity: 1;}
.edge:hover path { stroke: red; }
.edge:hover polygon { stroke: red; fill: red; }
]]></style>
<script type="application/ecmascript" xlink:href="svg.min.js"/>
<svg id="graph" class="graph">
<g id="graph0" class="graph" transform="scale(1 1) rotate(0) translate(4 119.6)">
<title>u8x8</title>
<!-- Node1 -->
<g id="Node000001" class="node">
<title>Node1</title>
<g id="a_Node000001"><a xlink:title=" ">
<polygon fill="#999999" stroke="#666666" points="356.5,-58.6 319.5,-58.6 319.5,-38.6 356.5,-38.6 356.5,-58.6"/>
<text xml:space="preserve" text-anchor="middle" x="338" y="-45.1" font-family="Helvetica,sans-Serif" font-size="10.00">u8x8</text>
</a>
</g>
</g>
<!-- Node2 -->
<g id="Node000002" class="node">
<title>Node2</title>
<g id="a_Node000002"><a xlink:href="main_8cpp.html#a8af6ba2d85e09ba5109484b26b338541" target="_top" xlink:title=" ">
<polygon fill="white" stroke="#666666" points="283.5,-115.6 184.25,-115.6 184.25,-95.6 283.5,-95.6 283.5,-115.6"/>
<text xml:space="preserve" text-anchor="middle" x="233.88" y="-102.1" font-family="Helvetica,sans-Serif" font-size="10.00">drawEnrollIndicator</text>
</a>
</g>
</g>
<!-- Node1&#45;&gt;Node2 -->
<g id="edge1_Node000001_Node000002" class="edge">
<title>Node1&#45;&gt;Node2</title>
<g id="a_edge1_Node000001_Node000002"><a xlink:title=" ">
<path fill="none" stroke="#63b8ff" d="M311.64,-64.92C302.84,-70.4 292.83,-76.43 283.5,-81.6 274.93,-86.34 265.3,-91.19 256.89,-95.28"/>
<polygon fill="#63b8ff" stroke="#63b8ff" points="313.44,-67.92 320.03,-59.62 309.71,-62 313.44,-67.92"/>
</a>
</g>
</g>
<!-- Node4 -->
<g id="Node000004" class="node">
<title>Node4</title>
<g id="a_Node000004"><a xlink:href="main_8cpp.html#ab7eb3c8c2e8604801ee00f11d3af8c3f" target="_top" xlink:title=" ">
<polygon fill="white" stroke="#666666" points="148.25,-77.6 70,-77.6 70,-57.6 148.25,-57.6 148.25,-77.6"/>
<text xml:space="preserve" text-anchor="middle" x="109.12" y="-64.1" font-family="Helvetica,sans-Serif" font-size="10.00">updateDisplay</text>
</a>
</g>
</g>
<!-- Node1&#45;&gt;Node4 -->
<g id="edge9_Node000001_Node000004" class="edge">
<title>Node1&#45;&gt;Node4</title>
<g id="a_edge9_Node000001_Node000004"><a xlink:title=" ">
<path fill="none" stroke="#63b8ff" d="M307.72,-51.05C267.14,-54.45 193.7,-60.6 148.69,-64.37"/>
<polygon fill="#63b8ff" stroke="#63b8ff" points="308.02,-54.54 317.69,-50.22 307.43,-47.56 308.02,-54.54"/>
</a>
</g>
</g>
<!-- Node5 -->
<g id="Node000005" class="node">
<title>Node5</title>
<g id="a_Node000005"><a xlink:href="main_8cpp.html#acd554cb2efdf9d085573f58441f9431a" target="_top" xlink:title=" ">
<polygon fill="white" stroke="#666666" points="268.12,-39.6 199.62,-39.6 199.62,-19.6 268.12,-19.6 268.12,-39.6"/>
<text xml:space="preserve" text-anchor="middle" x="233.88" y="-26.1" font-family="Helvetica,sans-Serif" font-size="10.00">drawHeader</text>
</a>
</g>
</g>
<!-- Node1&#45;&gt;Node5 -->
<g id="edge5_Node000001_Node000005" class="edge">
<title>Node1&#45;&gt;Node5</title>
<g id="a_edge5_Node000001_Node000005"><a xlink:title=" ">
<path fill="none" stroke="#63b8ff" d="M308.17,-43.24C295.84,-40.94 281.36,-38.25 268.54,-35.86"/>
<polygon fill="#63b8ff" stroke="#63b8ff" points="307.25,-46.62 317.72,-45.01 308.53,-39.74 307.25,-46.62"/>
</a>
</g>
</g>
<!-- Node6 -->
<g id="Node000006" class="node">
<title>Node6</title>
<g id="a_Node000006"><a xlink:href="main_8cpp.html#a4fc01d736fe50cf5b977f755b675f11d" target="_top" xlink:title=" ">
<polygon fill="white" stroke="#666666" points="129.12,-20.6 89.12,-20.6 89.12,-0.6 129.12,-0.6 129.12,-20.6"/>
<text xml:space="preserve" text-anchor="middle" x="109.12" y="-7.1" font-family="Helvetica,sans-Serif" font-size="10.00">setup</text>
</a>
</g>
</g>
<!-- Node1&#45;&gt;Node6 -->
<g id="edge8_Node000001_Node000006" class="edge">
<title>Node1&#45;&gt;Node6</title>
<g id="a_edge8_Node000001_Node000006"><a xlink:title=" ">
<path fill="none" stroke="#63b8ff" d="M318.04,-30.74C308.47,-22.94 296.2,-14.65 283.5,-10.6 229.88,6.51 162.08,-1.38 129.43,-6.87"/>
<polygon fill="#63b8ff" stroke="#63b8ff" points="315.65,-33.3 325.5,-37.21 320.24,-28.01 315.65,-33.3"/>
</a>
</g>
</g>
<!-- Node3 -->
<g id="Node000003" class="node">
<title>Node3</title>
<g id="a_Node000003"><a xlink:href="main_8cpp.html#afe461d27b9c48d5921c00d521181f12f" target="_top" xlink:title=" ">
<polygon fill="white" stroke="#666666" points="34,-96.6 0,-96.6 0,-76.6 34,-76.6 34,-96.6"/>
<text xml:space="preserve" text-anchor="middle" x="17" y="-83.1" font-family="Helvetica,sans-Serif" font-size="10.00">loop</text>
</a>
</g>
</g>
<!-- Node2&#45;&gt;Node3 -->
<g id="edge2_Node000002_Node000003" class="edge">
<title>Node2&#45;&gt;Node3</title>
<g id="a_edge2_Node000002_Node000003"><a xlink:title=" ">
<path fill="none" stroke="#63b8ff" d="M172.5,-100.26C125.28,-96.08 62.94,-90.57 34.01,-88.01"/>
<polygon fill="#63b8ff" stroke="#63b8ff" points="172.07,-103.74 182.34,-101.13 172.69,-96.76 172.07,-103.74"/>
</a>
</g>
</g>
<!-- Node2&#45;&gt;Node4 -->
<g id="edge3_Node000002_Node000004" class="edge">
<title>Node2&#45;&gt;Node4</title>
<g id="a_edge3_Node000002_Node000004"><a xlink:title=" ">
<path fill="none" stroke="#63b8ff" d="M188.16,-91.75C173.54,-87.23 157.55,-82.28 143.88,-78.05"/>
<polygon fill="#63b8ff" stroke="#63b8ff" points="186.97,-95.05 197.56,-94.67 189.04,-88.37 186.97,-95.05"/>
</a>
</g>
</g>
<!-- Node4&#45;&gt;Node3 -->
<g id="edge4_Node000004_Node000003" class="edge">
<title>Node4&#45;&gt;Node3</title>
<g id="a_edge4_Node000004_Node000003"><a xlink:title=" ">
<path fill="none" stroke="#63b8ff" d="M58.49,-78.06C49.7,-79.92 41.14,-81.72 34.18,-83.19"/>
<polygon fill="#63b8ff" stroke="#63b8ff" points="59.1,-81.51 68.16,-76.02 57.65,-74.66 59.1,-81.51"/>
</a>
</g>
</g>
<!-- Node5&#45;&gt;Node4 -->
<g id="edge7_Node000005_Node000004" class="edge">
<title>Node5&#45;&gt;Node4</title>
<g id="a_edge7_Node000005_Node000004"><a xlink:title=" ">
<path fill="none" stroke="#63b8ff" d="M188.38,-43.37C173.61,-47.95 157.42,-52.96 143.63,-57.23"/>
<polygon fill="#63b8ff" stroke="#63b8ff" points="189.37,-46.73 197.89,-40.43 187.3,-40.04 189.37,-46.73"/>
</a>
</g>
</g>
<!-- Node5&#45;&gt;Node6 -->
<g id="edge6_Node000005_Node000006" class="edge">
<title>Node5&#45;&gt;Node6</title>
<g id="a_edge6_Node000005_Node000006"><a xlink:title=" ">
<path fill="none" stroke="#63b8ff" d="M188.14,-22.67C167.96,-19.55 145.18,-16.03 129.47,-13.59"/>
<polygon fill="#63b8ff" stroke="#63b8ff" points="187.42,-26.1 197.84,-24.18 188.49,-19.19 187.42,-26.1"/>
</a>
</g>
</g>
</g>
</svg>
</svg>

<style type='text/css'>
<![CDATA[
[data-mouse-over-selected='false'] { opacity: 0.7; }
[data-mouse-over-selected='true']  { opacity: 1.0; }
]]>
</style>
<script type="application/ecmascript"><![CDATA[
document.addEventListener('DOMContentLoaded', (event) => {
  highlightEdges();
  highlightAdjacentNodes();
});
]]></script>
</svg>
