<?xml version="1.0" encoding="UTF-8" standalone="no"?>
<!DOCTYPE svg PUBLIC "-//W3C//DTD SVG 1.1//EN"
 "http://www.w3.org/Graphics/SVG/1.1/DTD/svg11.dtd">
<!-- Generated by graphviz version 14.1.2 (20260124.0452)
 -->
<!-- Title: main.cpp Pages: 1 -->
<svg width="1163pt" height="140pt"
 viewBox="0.00 0.00 1163.00 140.00" xmlns="http://www.w3.org/2000/svg" xmlns:xlink="http://www.w3.org/1999/xlink">
<g id="graph0" class="graph" transform="scale(1 1) rotate(0) translate(4 136)">
<title>main.cpp</title>
<!-- Node1 -->
<g id="Node000001" class="node">
<title>Node1</title>
<g id="a_Node000001"><a xlink:title=" ">
<polygon fill="#999999" stroke="#666666" points="656.25,-132 600.5,-132 600.5,-112 656.25,-112 656.25,-132"/>
<text xml:space="preserve" text-anchor="middle" x="628.38" y="-118.5" font-family="Helvetica,sans-Serif" font-size="10.00">main.cpp</text>
</a>
</g>
</g>
<!-- Node2 -->
<g id="Node000002" class="node">
<title>Node2</title>
<g id="a_Node000002"><a xlink:title=" ">
<polygon fill="#e0e0e0" stroke="#999999" points="126.62,-76 40.12,-76 40.12,-56 126.62,-56 126.62,-76"/>
<text xml:space="preserve" text-anchor="middle" x="83.38" y="-62.5" font-family="Helvetica,sans-Serif" font-size="10.00">freertos/queue.h</text>
</a>
</g>
</g>
<!-- Node1&#45;&gt;Node2 -->
<g id="edge1_Node000001_Node000002" class="edge">
<title>Node1&#45;&gt;Node2</title>
<g id="a_edge1_Node000001_Node000002"><a xlink:title=" ">
<path fill="none" stroke="#63b8ff" d="M600.22,-119.23C526.26,-114.4 320.23,-99.86 138.42,-76.31"/>
<polygon fill="#63b8ff" stroke="#63b8ff" points="138.9,-72.84 128.53,-75.01 137.99,-79.78 138.9,-72.84"/>
</a>
</g>
</g>
<!-- Node3 -->
<g id="Node000003" class="node">
<title>Node3</title>
<g id="a_Node000003"><a xlink:href="_timer_handle_8h.html" target="_top" xlink:title=" ">
<polygon fill="white" stroke="#666666" points="224.25,-76 144.5,-76 144.5,-56 224.25,-56 224.25,-76"/>
<text xml:space="preserve" text-anchor="middle" x="184.38" y="-62.5" font-family="Helvetica,sans-Serif" font-size="10.00">TimerHandle.h</text>
</a>
</g>
</g>
<!-- Node1&#45;&gt;Node3 -->
<g id="edge2_Node000001_Node000003" class="edge">
<title>Node1&#45;&gt;Node3</title>
<g id="a_edge2_Node000001_Node000003"><a xlink:title=" ">
<path fill="none" stroke="#63b8ff" d="M600.37,-117.65C538.38,-110.23 384.86,-91.8 256.38,-76 249.81,-75.19 242.9,-74.34 236.08,-73.49"/>
<polygon fill="#63b8ff" stroke="#63b8ff" points="236.59,-70.03 226.24,-72.26 235.73,-76.97 236.59,-70.03"/>
</a>
</g>
</g>
<!-- Node6 -->
<g id="Node000006" class="node">
<title>Node6</title>
<g id="a_Node000006"><a xlink:href="_auth_sync_8h.html" target="_top" xlink:title=" ">
<polygon fill="white" stroke="#666666" points="369.88,-76 302.88,-76 302.88,-56 369.88,-56 369.88,-76"/>
<text xml:space="preserve" text-anchor="middle" x="336.38" y="-62.5" font-family="Helvetica,sans-Serif" font-size="10.00">AuthSync.h</text>
</a>
</g>
</g>
<!-- Node1&#45;&gt;Node6 -->
<g id="edge5_Node000001_Node000006" class="edge">
<title>Node1&#45;&gt;Node6</title>
<g id="a_edge5_Node000001_Node000006"><a xlink:title=" ">
<path fill="none" stroke="#63b8ff" d="M600.32,-116.19C556.11,-108.55 467.23,-92.98 381.42,-76.35"/>
<polygon fill="#63b8ff" stroke="#63b8ff" points="382.13,-72.93 371.64,-74.45 380.79,-79.8 382.13,-72.93"/>
</a>
</g>
</g>
<!-- Node7 -->
<g id="Node000007" class="node">
<title>Node7</title>
<g id="a_Node000007"><a xlink:title=" ">
<polygon fill="#e0e0e0" stroke="#999999" points="306.38,-20 230.38,-20 230.38,0 306.38,0 306.38,-20"/>
<text xml:space="preserve" text-anchor="middle" x="268.38" y="-6.5" font-family="Helvetica,sans-Serif" font-size="10.00">HTTPClient.h</text>
</a>
</g>
</g>
<!-- Node1&#45;&gt;Node7 -->
<g id="edge14_Node000001_Node000007" class="edge">
<title>Node1&#45;&gt;Node7</title>
<g id="a_edge14_Node000001_Node000007"><a xlink:title=" ">
<path fill="none" stroke="#63b8ff" d="M600.05,-120.75C528.31,-119.58 341.79,-112.96 294.38,-76 280.6,-65.26 274.09,-46.09 271.04,-31.34"/>
<polygon fill="#63b8ff" stroke="#63b8ff" points="274.54,-31.05 269.45,-21.76 267.64,-32.2 274.54,-31.05"/>
</a>
</g>
</g>
<!-- Node10 -->
<g id="Node000010" class="node">
<title>Node10</title>
<g id="a_Node000010"><a xlink:href="_config_manager_8h.html" target="_top" xlink:title=" ">
<polygon fill="white" stroke="#666666" points="478.5,-76 388.25,-76 388.25,-56 478.5,-56 478.5,-76"/>
<text xml:space="preserve" text-anchor="middle" x="433.38" y="-62.5" font-family="Helvetica,sans-Serif" font-size="10.00">ConfigManager.h</text>
</a>
</g>
</g>
<!-- Node1&#45;&gt;Node10 -->
<g id="edge9_Node000001_Node000010" class="edge">
<title>Node1&#45;&gt;Node10</title>
<g id="a_edge9_Node000001_Node000010"><a xlink:title=" ">
<path fill="none" stroke="#63b8ff" d="M600.02,-113.15C568.1,-104.31 515.81,-89.83 478.32,-79.45"/>
<polygon fill="#63b8ff" stroke="#63b8ff" points="479.71,-76.2 469.14,-76.9 477.84,-82.95 479.71,-76.2"/>
</a>
</g>
</g>
<!-- Node11 -->
<g id="Node000011" class="node">
<title>Node11</title>
<g id="a_Node000011"><a xlink:title=" ">
<polygon fill="#e0e0e0" stroke="#999999" points="538.38,-20 480.38,-20 480.38,0 538.38,0 538.38,-20"/>
<text xml:space="preserve" text-anchor="middle" x="509.38" y="-6.5" font-family="Helvetica,sans-Serif" font-size="10.00">LittleFS.h</text>
</a>
</g>
</g>
<!-- Node1&#45;&gt;Node11 -->
<g id="edge15_Node000001_Node000011" class="edge">
<title>Node1&#45;&gt;Node11</title>
<g id="a_edge15_Node000001_Node000011"><a xlink:title=" ">
<path fill="none" stroke="#63b8ff" d="M600.08,-115.61C576.98,-109.75 545.2,-98.1 526.38,-76 515.84,-63.63 511.73,-45.47 510.18,-31.48"/>
<polygon fill="#63b8ff" stroke="#63b8ff" points="513.68,-31.34 509.47,-21.61 506.7,-31.84 513.68,-31.34"/>
</a>
</g>
</g>
<!-- Node12 -->
<g id="Node000012" class="node">
<title>Node12</title>
<g id="a_Node000012"><a xlink:title=" ">
<polygon fill="#e0e0e0" stroke="#999999" points="625.88,-76 534.88,-76 534.88,-56 625.88,-56 625.88,-76"/>
<text xml:space="preserve" text-anchor="middle" x="580.38" y="-62.5" font-family="Helvetica,sans-Serif" font-size="10.00">HardwareSerial.h</text>
</a>
</g>
</g>
<!-- Node1&#45;&gt;Node12 -->
<g id="edge11_Node000001_Node000012" class="edge">
<title>Node1&#45;&gt;Node12</title>
<g id="a_edge11_Node000001_Node000012"><a xlink:title=" ">
<path fill="none" stroke="#63b8ff" d="M620.01,-111.59C613.48,-104.24 604.19,-93.8 596.26,-84.87"/>
<polygon fill="#63b8ff" stroke="#63b8ff" points="598.91,-82.58 589.65,-77.43 593.67,-87.23 598.91,-82.58"/>
</a>
</g>
</g>
<!-- Node13 -->
<g id="Node000013" class="node">
<title>Node13</title>
<g id="a_Node000013"><a xlink:href="_hash_utils_8h.html" target="_top" xlink:title=" ">
<polygon fill="white" stroke="#666666" points="711.25,-76 643.5,-76 643.5,-56 711.25,-56 711.25,-76"/>
<text xml:space="preserve" text-anchor="middle" x="677.38" y="-62.5" font-family="Helvetica,sans-Serif" font-size="10.00">HashUtils.h</text>
</a>
</g>
</g>
<!-- Node1&#45;&gt;Node13 -->
<g id="edge12_Node000001_Node000013" class="edge">
<title>Node1&#45;&gt;Node13</title>
<g id="a_edge12_Node000001_Node000013"><a xlink:title=" ">
<path fill="none" stroke="#63b8ff" d="M636.91,-111.59C643.66,-104.16 653.26,-93.58 661.42,-84.58"/>
<polygon fill="#63b8ff" stroke="#63b8ff" points="663.79,-87.18 667.92,-77.42 658.61,-82.47 663.79,-87.18"/>
</a>
</g>
</g>
<!-- Node14 -->
<g id="Node000014" class="node">
<title>Node14</title>
<g id="a_Node000014"><a xlink:title=" ">
<polygon fill="#e0e0e0" stroke="#999999" points="807.5,-76 729.25,-76 729.25,-56 807.5,-56 807.5,-76"/>
<text xml:space="preserve" text-anchor="middle" x="768.38" y="-62.5" font-family="Helvetica,sans-Serif" font-size="10.00">ArduinoJson.h</text>
</a>
</g>
</g>
<!-- Node1&#45;&gt;Node14 -->
<g id="edge13_Node000001_Node000014" class="edge">
<title>Node1&#45;&gt;Node14</title>
<g id="a_edge13_Node000001_Node000014"><a xlink:title=" ">
<path fill="none" stroke="#63b8ff" d="M652.76,-111.59C675.01,-103.01 708.14,-90.23 733.24,-80.55"/>
<polygon fill="#63b8ff" stroke="#63b8ff" points="734.32,-83.89 742.39,-77.02 731.8,-77.36 734.32,-83.89"/>
</a>
</g>
</g>
<!-- Node15 -->
<g id="Node000015" class="node">
<title>Node15</title>
<g id="a_Node000015"><a xlink:title=" ">
<polygon fill="#e0e0e0" stroke="#999999" points="895,-76 825.75,-76 825.75,-56 895,-56 895,-76"/>
<text xml:space="preserve" text-anchor="middle" x="860.38" y="-62.5" font-family="Helvetica,sans-Serif" font-size="10.00">MFRC522.h</text>
</a>
</g>
</g>
<!-- Node1&#45;&gt;Node15 -->
<g id="edge16_Node000001_Node000015" class="edge">
<title>Node1&#45;&gt;Node15</title>
<g id="a_edge16_Node000001_Node000015"><a xlink:title=" ">
<path fill="none" stroke="#63b8ff" d="M656.36,-114.49C695.55,-105.36 767.26,-88.67 814.37,-77.71"/>
<polygon fill="#63b8ff" stroke="#63b8ff" points="815.07,-81.14 824.01,-75.46 813.48,-74.32 815.07,-81.14"/>
</a>
</g>
</g>
<!-- Node16 -->
<g id="Node000016" class="node">
<title>Node16</title>
<g id="a_Node000016"><a xlink:title=" ">
<polygon fill="#e0e0e0" stroke="#999999" points="953.75,-76 913,-76 913,-56 953.75,-56 953.75,-76"/>
<text xml:space="preserve" text-anchor="middle" x="933.38" y="-62.5" font-family="Helvetica,sans-Serif" font-size="10.00">SPI.h</text>
</a>
</g>
</g>
<!-- Node1&#45;&gt;Node16 -->
<g id="edge17_Node000001_Node000016" class="edge">
<title>Node1&#45;&gt;Node16</title>
<g id="a_edge17_Node000001_Node000016"><a xlink:title=" ">
<path fill="none" stroke="#63b8ff" d="M656.44,-117.74C704.71,-111.85 806.67,-98.18 901.35,-76.46"/>
<polygon fill="#63b8ff" stroke="#63b8ff" points="902.15,-79.87 911.09,-74.18 900.55,-73.05 902.15,-79.87"/>
</a>
</g>
</g>
<!-- Node17 -->
<g id="Node000017" class="node">
<title>Node17</title>
<g id="a_Node000017"><a xlink:title=" ">
<polygon fill="#e0e0e0" stroke="#999999" points="1029,-76 971.75,-76 971.75,-56 1029,-56 1029,-76"/>
<text xml:space="preserve" text-anchor="middle" x="1000.38" y="-62.5" font-family="Helvetica,sans-Serif" font-size="10.00">U8x8lib.h</text>
</a>
</g>
</g>
<!-- Node1&#45;&gt;Node17 -->
<g id="edge18_Node000001_Node000017" class="edge">
<title>Node1&#45;&gt;Node17</title>
<g id="a_edge18_Node000001_Node000017"><a xlink:title=" ">
<path fill="none" stroke="#63b8ff" d="M656.68,-118.14C712.68,-112.28 841.77,-97.76 960.32,-76.21"/>
<polygon fill="#63b8ff" stroke="#63b8ff" points="960.7,-79.7 969.9,-74.45 959.43,-72.82 960.7,-79.7"/>
</a>
</g>
</g>
<!-- Node18 -->
<g id="Node000018" class="node">
<title>Node18</title>
<g id="a_Node000018"><a xlink:title=" ">
<polygon fill="#e0e0e0" stroke="#999999" points="1091.62,-76 1047.12,-76 1047.12,-56 1091.62,-56 1091.62,-76"/>
<text xml:space="preserve" text-anchor="middle" x="1069.38" y="-62.5" font-family="Helvetica,sans-Serif" font-size="10.00">WiFi.h</text>
</a>
</g>
</g>
<!-- Node1&#45;&gt;Node18 -->
<g id="edge19_Node000001_Node000018" class="edge">
<title>Node1&#45;&gt;Node18</title>
<g id="a_edge19_Node000001_Node000018"><a xlink:title=" ">
<path fill="none" stroke="#63b8ff" d="M656.72,-119.58C722.04,-115.96 888.29,-104.69 1035.76,-76.22"/>
<polygon fill="#63b8ff" stroke="#63b8ff" points="1036.18,-79.7 1045.31,-74.34 1034.83,-72.83 1036.18,-79.7"/>
</a>
</g>
</g>
<!-- Node19 -->
<g id="Node000019" class="node">
<title>Node19</title>
<g id="a_Node000019"><a xlink:title=" ">
<polygon fill="#e0e0e0" stroke="#999999" points="1154.62,-76 1110.12,-76 1110.12,-56 1154.62,-56 1154.62,-76"/>
<text xml:space="preserve" text-anchor="middle" x="1132.38" y="-62.5" font-family="Helvetica,sans-Serif" font-size="10.00">Wire.h</text>
</a>
</g>
</g>
<!-- Node1&#45;&gt;Node19 -->
<g id="edge20_Node000001_Node000019" class="edge">
<title>Node1&#45;&gt;Node19</title>
<g id="a_edge20_Node000001_Node000019"><a xlink:title=" ">
<path fill="none" stroke="#63b8ff" d="M656.55,-120.07C728.58,-117.33 925.39,-107.51 1098.65,-75.96"/>
<polygon fill="#63b8ff" stroke="#63b8ff" points="1099.09,-79.44 1108.28,-74.17 1097.81,-72.56 1099.09,-79.44"/>
</a>
</g>
</g>
<!-- Node4 -->
<g id="Node000004" class="node">
<title>Node4</title>
<g id="a_Node000004"><a xlink:title=" ">
<polygon fill="#e0e0e0" stroke="#999999" points="106.75,-20 0,-20 0,0 106.75,0 106.75,-20"/>
<text xml:space="preserve" text-anchor="middle" x="53.38" y="-6.5" font-family="Helvetica,sans-Serif" font-size="10.00">freertos/FreeRTOS.h</text>
</a>
</g>
</g>
<!-- Node3&#45;&gt;Node4 -->
<g id="edge3_Node000003_Node000004" class="edge">
<title>Node3&#45;&gt;Node4</title>
<g id="a_edge3_Node000003_Node000004"><a xlink:title=" ">
<path fill="none" stroke="#63b8ff" d="M161.56,-55.59C140.93,-47.09 110.29,-34.46 86.88,-24.81"/>
<polygon fill="#63b8ff" stroke="#63b8ff" points="88.35,-21.63 77.77,-21.06 85.68,-28.1 88.35,-21.63"/>
</a>
</g>
</g>
<!-- Node5 -->
<g id="Node000005" class="node">
<title>Node5</title>
<g id="a_Node000005"><a xlink:title=" ">
<polygon fill="#e0e0e0" stroke="#999999" points="212,-20 124.75,-20 124.75,0 212,0 212,-20"/>
<text xml:space="preserve" text-anchor="middle" x="168.38" y="-6.5" font-family="Helvetica,sans-Serif" font-size="10.00">freertos/timers.h</text>
</a>
</g>
</g>
<!-- Node3&#45;&gt;Node5 -->
<g id="edge4_Node000003_Node000005" class="edge">
<title>Node3&#45;&gt;Node5</title>
<g id="a_edge4_Node000003_Node000005"><a xlink:title=" ">
<path fill="none" stroke="#63b8ff" d="M181.59,-55.59C179.59,-48.86 176.83,-39.53 174.35,-31.15"/>
<polygon fill="#63b8ff" stroke="#63b8ff" points="177.76,-30.34 171.56,-21.75 171.05,-32.33 177.76,-30.34"/>
</a>
</g>
</g>
<!-- Node6&#45;&gt;Node7 -->
<g id="edge6_Node000006_Node000007" class="edge">
<title>Node6&#45;&gt;Node7</title>
<g id="a_edge6_Node000006_Node000007"><a xlink:title=" ">
<path fill="none" stroke="#63b8ff" d="M324.53,-55.59C314.68,-47.77 300.44,-36.46 288.77,-27.19"/>
<polygon fill="#63b8ff" stroke="#63b8ff" points="291.28,-24.72 281.27,-21.24 286.92,-30.2 291.28,-24.72"/>
</a>
</g>
</g>
<!-- Node8 -->
<g id="Node000008" class="node">
<title>Node8</title>
<g id="a_Node000008"><a xlink:title=" ">
<polygon fill="#e0e0e0" stroke="#999999" points="400.75,-20 324,-20 324,0 400.75,0 400.75,-20"/>
<text xml:space="preserve" text-anchor="middle" x="362.38" y="-6.5" font-family="Helvetica,sans-Serif" font-size="10.00">Preferences.h</text>
</a>
</g>
</g>
<!-- Node6&#45;&gt;Node8 -->
<g id="edge7_Node000006_Node000008" class="edge">
<title>Node6&#45;&gt;Node8</title>
<g id="a_edge7_Node000006_Node000008"><a xlink:title=" ">
<path fill="none" stroke="#63b8ff" d="M340.9,-55.59C344.22,-48.7 348.84,-39.1 352.95,-30.57"/>
<polygon fill="#63b8ff" stroke="#63b8ff" points="356.06,-32.19 357.24,-21.66 349.75,-29.15 356.06,-32.19"/>
</a>
</g>
</g>
<!-- Node9 -->
<g id="Node000009" class="node">
<title>Node9</title>
<g id="a_Node000009"><a xlink:title=" ">
<polygon fill="#e0e0e0" stroke="#999999" points="461.88,-20 418.88,-20 418.88,0 461.88,0 461.88,-20"/>
<text xml:space="preserve" text-anchor="middle" x="440.38" y="-6.5" font-family="Helvetica,sans-Serif" font-size="10.00">vector</text>
</a>
</g>
</g>
<!-- Node6&#45;&gt;Node9 -->
<g id="edge8_Node000006_Node000009" class="edge">
<title>Node6&#45;&gt;Node9</title>
<g id="a_edge8_Node000006_Node000009"><a xlink:title=" ">
<path fill="none" stroke="#63b8ff" d="M354.49,-55.59C370.35,-47.36 393.66,-35.26 411.99,-25.74"/>
<polygon fill="#63b8ff" stroke="#63b8ff" points="413.51,-28.89 420.77,-21.18 410.29,-22.68 413.51,-28.89"/>
</a>
</g>
</g>
<!-- Node10&#45;&gt;Node11 -->
<g id="edge10_Node000010_Node000011" class="edge">
<title>Node10&#45;&gt;Node11</title>
<g id="a_edge10_Node000010_Node000011"><a xlink:title=" ">
<path fill="none" stroke="#63b8ff" d="M446.61,-55.59C457.66,-47.74 473.66,-36.38 486.73,-27.09"/>
<polygon fill="#63b8ff" stroke="#63b8ff" points="488.68,-30 494.8,-21.36 484.62,-24.3 488.68,-30"/>
</a>
</g>
</g>
</g>
</svg>
