<?xml version="1.0" encoding="UTF-8" standalone="no"?>
<!DOCTYPE svg PUBLIC "-//W3C//DTD SVG 1.1//EN"
 "http://www.w3.org/Graphics/SVG/1.1/DTD/svg11.dtd">
<!-- Generated by graphviz version 14.1.2 (20260124.0452)
 -->
<!-- Title: loop Pages: 1 -->
<svg width="388pt" height="218pt"
 viewBox="0.00 0.00 388.00 218.00" xmlns="http://www.w3.org/2000/svg" xmlns:xlink="http://www.w3.org/1999/xlink">

<svg id="main" version="1.1" xmlns="http://www.w3.org/2000/svg" xmlns:xlink="http://www.w3.org/1999/xlink" xml:space="preserve">

<style type="text/css"><![CDATA[
.node, .edge {opacity: 0.7;}
.node.selected, .edge.selected {opacity: 1;}
.edge:hover path { stroke: red; }
.edge:hover polygon { stroke: red; fill: red; }
]]></style>
<script type="application/ecmascript" xlink:href="svg.min.js"/>
<svg id="graph" class="graph">
<g id="graph0" class="graph" transform="scale(1 1) rotate(0) translate(4 214)">
<title>loop</title>
<!-- Node1 -->
<g id="Node000001" class="node">
<title>Node1</title>
<g id="a_Node000001"><a xlink:title=" ">
<polygon fill="#999999" stroke="#666666" points="34,-115 0,-115 0,-95 34,-95 34,-115"/>
<text xml:space="preserve" text-anchor="middle" x="17" y="-101.5" font-family="Helvetica,sans-Serif" font-size="10.00">loop</text>
</a>
</g>
</g>
<!-- Node2 -->
<g id="Node000002" class="node">
<title>Node2</title>
<g id="a_Node000002"><a xlink:href="main_8cpp.html#a8af6ba2d85e09ba5109484b26b338541" target="_top" xlink:title=" ">
<polygon fill="white" stroke="#666666" points="306.75,-58 207.5,-58 207.5,-38 306.75,-38 306.75,-58"/>
<text xml:space="preserve" text-anchor="middle" x="257.12" y="-44.5" font-family="Helvetica,sans-Serif" font-size="10.00">drawEnrollIndicator</text>
</a>
</g>
</g>
<!-- Node1&#45;&gt;Node2 -->
<g id="edge1_Node000001_Node000002" class="edge">
<title>Node1&#45;&gt;Node2</title>
<g id="a_edge1_Node000001_Node000002"><a xlink:title=" ">
<path fill="none" stroke="#63b8ff" d="M28.53,-94.65C38.37,-85.67 53.92,-73.17 70,-67 110.12,-51.6 158.49,-47.05 195.86,-46.24"/>
<polygon fill="#63b8ff" stroke="#63b8ff" points="195.62,-49.74 205.57,-46.12 195.53,-42.74 195.62,-49.74"/>
</a>
</g>
</g>
<!-- Node4 -->
<g id="Node000004" class="node">
<title>Node4</title>
<g id="a_Node000004"><a xlink:href="main_8cpp.html#aac0054c88d779a4bafdea4137ee49ea1" target="_top" xlink:title=" ">
<polygon fill="white" stroke="#666666" points="155.75,-210 85.75,-210 85.75,-190 155.75,-190 155.75,-210"/>
<text xml:space="preserve" text-anchor="middle" x="120.75" y="-196.5" font-family="Helvetica,sans-Serif" font-size="10.00">getUidString</text>
</a>
</g>
</g>
<!-- Node1&#45;&gt;Node4 -->
<g id="edge3_Node000001_Node000004" class="edge">
<title>Node1&#45;&gt;Node4</title>
<g id="a_edge3_Node000001_Node000004"><a xlink:title=" ">
<path fill="none" stroke="#63b8ff" d="M23.44,-115.41C31.74,-130.45 48.86,-158.41 70,-176 73.65,-179.04 77.75,-181.8 81.98,-184.27"/>
<polygon fill="#63b8ff" stroke="#63b8ff" points="80.16,-187.27 90.64,-188.83 83.42,-181.07 80.16,-187.27"/>
</a>
</g>
</g>
<!-- Node5 -->
<g id="Node000005" class="node">
<title>Node5</title>
<g id="a_Node000005"><a xlink:href="main_8cpp.html#a7cc33c6b9b1bd83e02864b1eb0530a63" target="_top" xlink:title=" ">
<polygon fill="white" stroke="#666666" points="271.88,-210 242.38,-210 242.38,-190 271.88,-190 271.88,-210"/>
<text xml:space="preserve" text-anchor="middle" x="257.12" y="-196.5" font-family="Helvetica,sans-Serif" font-size="10.00">rfid</text>
</a>
</g>
</g>
<!-- Node1&#45;&gt;Node5 -->
<g id="edge7_Node000001_Node000005" class="edge">
<title>Node1&#45;&gt;Node5</title>
<g id="a_edge7_Node000001_Node000005"><a xlink:title=" ">
<path fill="none" stroke="#63b8ff" d="M29.65,-115.29C39.73,-123.74 55,-135.49 70,-143 124.3,-170.18 194.07,-187.29 230.84,-195.07"/>
<polygon fill="#63b8ff" stroke="#63b8ff" points="230,-198.47 240.5,-197.05 231.4,-191.61 230,-198.47"/>
</a>
</g>
</g>
<!-- Node6 -->
<g id="Node000006" class="node">
<title>Node6</title>
<g id="a_Node000006"><a xlink:href="namespace_hash_utils.html#a3432774829b6752dc346491bc5dd5eec" target="_top" xlink:title=" ">
<polygon fill="white" stroke="#666666" points="171.5,-134 70,-134 70,-114 171.5,-114 171.5,-134"/>
<text xml:space="preserve" text-anchor="middle" x="120.75" y="-120.5" font-family="Helvetica,sans-Serif" font-size="10.00">HashUtils::hashUid</text>
</a>
</g>
</g>
<!-- Node1&#45;&gt;Node6 -->
<g id="edge5_Node000001_Node000006" class="edge">
<title>Node1&#45;&gt;Node6</title>
<g id="a_edge5_Node000001_Node000006"><a xlink:title=" ">
<path fill="none" stroke="#63b8ff" d="M34.35,-108.05C41.14,-109.32 49.49,-110.88 58.28,-112.52"/>
<polygon fill="#63b8ff" stroke="#63b8ff" points="57.61,-115.96 68.08,-114.35 58.89,-109.08 57.61,-115.96"/>
</a>
</g>
</g>
<!-- Node8 -->
<g id="Node000008" class="node">
<title>Node8</title>
<g id="a_Node000008"><a xlink:href="main_8cpp.html#ab7eb3c8c2e8604801ee00f11d3af8c3f" target="_top" xlink:title=" ">
<polygon fill="white" stroke="#666666" points="159.88,-96 81.62,-96 81.62,-76 159.88,-76 159.88,-96"/>
<text xml:space="preserve" text-anchor="middle" x="120.75" y="-82.5" font-family="Helvetica,sans-Serif" font-size="10.00">updateDisplay</text>
</a>
</g>
</g>
<!-- Node1&#45;&gt;Node8 -->
<g id="edge8_Node000001_Node000008" class="edge">
<title>Node1&#45;&gt;Node8</title>
<g id="a_edge8_Node000001_Node000008"><a xlink:title=" ">
<path fill="none" stroke="#63b8ff" d="M34.35,-101.95C44.17,-100.11 57.24,-97.67 70.19,-95.25"/>
<polygon fill="#63b8ff" stroke="#63b8ff" points="70.79,-98.7 79.97,-93.43 69.5,-91.82 70.79,-98.7"/>
</a>
</g>
</g>
<!-- Node10 -->
<g id="Node000010" class="node">
<title>Node10</title>
<g id="a_Node000010"><a xlink:href="main_8cpp.html#a9af1835ca07f33a8aaafdb3668a7b08a" target="_top" xlink:title=" ">
<polygon fill="white" stroke="#666666" points="170,-20 71.5,-20 71.5,0 170,0 170,-20"/>
<text xml:space="preserve" text-anchor="middle" x="120.75" y="-6.5" font-family="Helvetica,sans-Serif" font-size="10.00">updateEnrollStatus</text>
</a>
</g>
</g>
<!-- Node1&#45;&gt;Node10 -->
<g id="edge13_Node000001_Node000010" class="edge">
<title>Node1&#45;&gt;Node10</title>
<g id="a_edge13_Node000001_Node000010"><a xlink:title=" ">
<path fill="none" stroke="#63b8ff" d="M23.44,-94.59C31.74,-79.55 48.86,-51.59 70,-34 73.65,-30.96 77.75,-28.2 81.98,-25.73"/>
<polygon fill="#63b8ff" stroke="#63b8ff" points="83.42,-28.93 90.64,-21.17 80.16,-22.73 83.42,-28.93"/>
</a>
</g>
</g>
<!-- Node3 -->
<g id="Node000003" class="node">
<title>Node3</title>
<g id="a_Node000003"><a xlink:href="main_8cpp.html#a5bfb006b7c98d41a337e56d0f4a5619f" target="_top" xlink:title=" ">
<polygon fill="white" stroke="#666666" points="379.75,-96 342.75,-96 342.75,-76 379.75,-76 379.75,-96"/>
<text xml:space="preserve" text-anchor="middle" x="361.25" y="-82.5" font-family="Helvetica,sans-Serif" font-size="10.00">u8x8</text>
</a>
</g>
</g>
<!-- Node2&#45;&gt;Node3 -->
<g id="edge2_Node000002_Node000003" class="edge">
<title>Node2&#45;&gt;Node3</title>
<g id="a_edge2_Node000002_Node000003"><a xlink:title=" ">
<path fill="none" stroke="#63b8ff" d="M286.3,-58.48C300.46,-63.75 317.59,-70.13 331.79,-75.41"/>
<polygon fill="#63b8ff" stroke="#63b8ff" points="330.43,-78.64 341.02,-78.84 332.87,-72.08 330.43,-78.64"/>
</a>
</g>
</g>
<!-- Node4&#45;&gt;Node5 -->
<g id="edge4_Node000004_Node000005" class="edge">
<title>Node4&#45;&gt;Node5</title>
<g id="a_edge4_Node000004_Node000005"><a xlink:title=" ">
<path fill="none" stroke="#63b8ff" d="M156.01,-200C179.28,-200 209.55,-200 230.69,-200"/>
<polygon fill="#63b8ff" stroke="#63b8ff" points="230.44,-203.5 240.44,-200 230.44,-196.5 230.44,-203.5"/>
</a>
</g>
</g>
<!-- Node7 -->
<g id="Node000007" class="node">
<title>Node7</title>
<g id="a_Node000007"><a xlink:href="_hash_utils_8cpp.html#a857c40dca22894a62e01dd957349bc76" target="_top" xlink:title=" ">
<polygon fill="white" stroke="#666666" points="297,-172 217.25,-172 217.25,-152 297,-152 297,-172"/>
<text xml:space="preserve" text-anchor="middle" x="257.12" y="-158.5" font-family="Helvetica,sans-Serif" font-size="10.00">fnv1a64_bytes</text>
</a>
</g>
</g>
<!-- Node6&#45;&gt;Node7 -->
<g id="edge6_Node000006_Node000007" class="edge">
<title>Node6&#45;&gt;Node7</title>
<g id="a_edge6_Node000006_Node000007"><a xlink:title=" ">
<path fill="none" stroke="#63b8ff" d="M158.82,-134.48C174.1,-138.8 191.99,-143.86 208.24,-148.46"/>
<polygon fill="#63b8ff" stroke="#63b8ff" points="207.14,-151.78 217.72,-151.14 209.05,-145.05 207.14,-151.78"/>
</a>
</g>
</g>
<!-- Node8&#45;&gt;Node2 -->
<g id="edge9_Node000008_Node000002" class="edge">
<title>Node8&#45;&gt;Node2</title>
<g id="a_edge9_Node000008_Node000002"><a xlink:title=" ">
<path fill="none" stroke="#63b8ff" d="M158.82,-75.52C174.1,-71.2 191.99,-66.14 208.24,-61.54"/>
<polygon fill="#63b8ff" stroke="#63b8ff" points="209.05,-64.95 217.72,-58.86 207.14,-58.22 209.05,-64.95"/>
</a>
</g>
</g>
<!-- Node8&#45;&gt;Node3 -->
<g id="edge12_Node000008_Node000003" class="edge">
<title>Node8&#45;&gt;Node3</title>
<g id="a_edge12_Node000008_Node000003"><a xlink:title=" ">
<path fill="none" stroke="#63b8ff" d="M160.33,-86C208.07,-86 288.28,-86 331.15,-86"/>
<polygon fill="#63b8ff" stroke="#63b8ff" points="330.93,-89.5 340.93,-86 330.93,-82.5 330.93,-89.5"/>
</a>
</g>
</g>
<!-- Node9 -->
<g id="Node000009" class="node">
<title>Node9</title>
<g id="a_Node000009"><a xlink:href="main_8cpp.html#acd554cb2efdf9d085573f58441f9431a" target="_top" xlink:title=" ">
<polygon fill="white" stroke="#666666" points="291.38,-134 222.88,-134 222.88,-114 291.38,-114 291.38,-134"/>
<text xml:space="preserve" text-anchor="middle" x="257.12" y="-120.5" font-family="Helvetica,sans-Serif" font-size="10.00">drawHeader</text>
</a>
</g>
</g>
<!-- Node8&#45;&gt;Node9 -->
<g id="edge10_Node000008_Node000009" class="edge">
<title>Node8&#45;&gt;Node9</title>
<g id="a_edge10_Node000008_Node000009"><a xlink:title=" ">
<path fill="none" stroke="#63b8ff" d="M158.82,-96.48C175.14,-101.1 194.44,-106.56 211.53,-111.39"/>
<polygon fill="#63b8ff" stroke="#63b8ff" points="210.36,-114.69 220.93,-114.05 212.26,-107.96 210.36,-114.69"/>
</a>
</g>
</g>
<!-- Node9&#45;&gt;Node3 -->
<g id="edge11_Node000009_Node000003" class="edge">
<title>Node9&#45;&gt;Node3</title>
<g id="a_edge11_Node000009_Node000003"><a xlink:title=" ">
<path fill="none" stroke="#63b8ff" d="M286.3,-113.52C300.46,-108.25 317.59,-101.87 331.79,-96.59"/>
<polygon fill="#63b8ff" stroke="#63b8ff" points="332.87,-99.92 341.02,-93.16 330.43,-93.36 332.87,-99.92"/>
</a>
</g>
</g>
</g>
</svg>
</svg>

<style type='text/css'>
<![CDATA[
[data-mouse-over-selected='false'] { opacity: 0.7; }
[data-mouse-over-selected='true']  { opacity: 1.0; }
]]>
</style>
<script type="application/ecmascript"><![CDATA[
document.addEventListener('DOMContentLoaded', (event) => {
  highlightEdges();
  highlightAdjacentNodes();
});
]]></script>
</svg>
