<?xml version="1.0" encoding="UTF-8" standalone="no"?>
<!DOCTYPE svg PUBLIC "-//W3C//DTD SVG 1.1//EN"
 "http://www.w3.org/Graphics/SVG/1.1/DTD/svg11.dtd">
<!-- Generated by graphviz version 14.1.2 (20260124.0452)
 -->
<!-- Title: loop Pages: 1 -->
<!--zoomable 340 -->

<svg id="main" version="1.1" xmlns="http://www.w3.org/2000/svg" xmlns:xlink="http://www.w3.org/1999/xlink" xml:space="preserve" onload="init(evt)">

<style type="text/css"><![CDATA[
.node, .edge {opacity: 0.7;}
.node.selected, .edge.selected {opacity: 1;}
.edge:hover path { stroke: red; }
.edge:hover polygon { stroke: red; fill: red; }
]]></style>

<defs>
  <circle id="rim" cx="0" cy="0" r="7"/>
  <circle id="rim2" cx="0" cy="0" r="3.5"/>
  <g id="zoomPlus">
    <use xlink:href="#rim" fill="#404040"><set attributeName="fill" to="#808080" begin="zoomplus.mouseover" end="zoomplus.mouseout"/></use>
    <path d="M-4,0h8M0,-4v8" fill="none" stroke="white" stroke-width="1.5" pointer-events="none"/>
  </g>
  <g id="zoomMin">
    <use xlink:href="#rim" fill="#404040"><set attributeName="fill" to="#808080" begin="zoomminus.mouseover" end="zoomminus.mouseout"/></use>
    <path d="M-4,0h8" fill="none" stroke="white" stroke-width="1.5" pointer-events="none"/>
  </g>
  <g id="arrowUp" transform="translate(30 24)">
    <use xlink:href="#rim"/>
    <path pointer-events="none" fill="none" stroke="white" stroke-width="1.5" d="M0,-3.0v7 M-2.5,-0.5L0,-3.0L2.5,-0.5"/>
  </g>
  <g id="arrowRight" transform="rotate(90) translate(36 -43)">
    <use xlink:href="#rim"/>
    <path pointer-events="none" fill="none" stroke="white" stroke-width="1.5" d="M0,-3.0v7 M-2.5,-0.5L0,-3.0L2.5,-0.5"/>
  </g>
  <g id="arrowDown" transform="rotate(180) translate(-30 -48)">
    <use xlink:href="#rim"/>
    <path pointer-events="none" fill="none" stroke="white" stroke-width="1.5" d="M0,-3.0v7 M-2.5,-0.5L0,-3.0L2.5,-0.5"/>
  </g>
  <g id="arrowLeft" transform="rotate(270) translate(-36 17)">
    <use xlink:href="#rim"/>
    <path pointer-events="none" fill="none" stroke="white" stroke-width="1.5" d="M0,-3.0v7 M-2.5,-0.5L0,-3.0L2.5,-0.5"/>
  </g>
  <g id="resetDef">
    <use xlink:href="#rim2" fill="#404040"><set attributeName="fill" to="#808080" begin="reset.mouseover" end="reset.mouseout"/></use>
  </g>
</defs>
<script type="application/ecmascript">
var viewWidth = 804;
var viewHeight = 340;
var sectionId = 'dynsection-9';
</script>
<script type="application/ecmascript" xlink:href="svg.min.js"/>
<svg id="graph" class="graph">
<g id="viewport">
<title>loop</title>
<!-- Node1 -->
<g id="Node000001" class="node">
<title>Node1</title>
<g id="a_Node000001"><a xlink:title=" ">
<polygon fill="#999999" stroke="#666666" points="34,-184 0,-184 0,-164 34,-164 34,-184"/>
<text xml:space="preserve" text-anchor="middle" x="17" y="-170.5" font-family="Helvetica,sans-Serif" font-size="10.00">loop</text>
</a>
</g>
</g>
<!-- Node2 -->
<g id="Node000002" class="node">
<title>Node2</title>
<g id="a_Node000002"><a xlink:href="main_8cpp.html#a8af6ba2d85e09ba5109484b26b338541" target="_top" xlink:title=" ">
<polygon fill="white" stroke="#666666" points="345.38,-96 246.12,-96 246.12,-76 345.38,-76 345.38,-96"/>
<text xml:space="preserve" text-anchor="middle" x="295.75" y="-82.5" font-family="Helvetica,sans-Serif" font-size="10.00">drawEnrollIndicator</text>
</a>
</g>
</g>
<!-- Node1&#45;&gt;Node2 -->
<g id="edge1_Node000001_Node000002" class="edge">
<title>Node1&#45;&gt;Node2</title>
<g id="a_edge1_Node000001_Node000002"><a xlink:title=" ">
<path fill="none" stroke="#63b8ff" d="M34.34,-167.85C44.55,-164.05 58,-159.13 70,-155 138.35,-131.48 155.46,-125.58 224.75,-105 231.01,-103.14 237.61,-101.25 244.16,-99.43"/>
<polygon fill="#63b8ff" stroke="#63b8ff" points="244.88,-102.86 253.59,-96.83 243.02,-96.11 244.88,-102.86"/>
</a>
</g>
</g>
<!-- Node4 -->
<g id="Node000004" class="node">
<title>Node4</title>
<g id="a_Node000004"><a xlink:href="main_8cpp.html#aac0054c88d779a4bafdea4137ee49ea1" target="_top" xlink:title=" ">
<polygon fill="white" stroke="#666666" points="164.38,-298 94.38,-298 94.38,-278 164.38,-278 164.38,-298"/>
<text xml:space="preserve" text-anchor="middle" x="129.38" y="-284.5" font-family="Helvetica,sans-Serif" font-size="10.00">getUidString</text>
</a>
</g>
</g>
<!-- Node1&#45;&gt;Node4 -->
<g id="edge3_Node000001_Node000004" class="edge">
<title>Node1&#45;&gt;Node4</title>
<g id="a_edge3_Node000001_Node000004"><a xlink:title=" ">
<path fill="none" stroke="#63b8ff" d="M21.44,-184.36C28.05,-202.79 44.19,-241.43 70,-264 74.11,-267.6 78.84,-270.7 83.79,-273.37"/>
<polygon fill="#63b8ff" stroke="#63b8ff" points="82.21,-276.5 92.75,-277.61 85.2,-270.17 82.21,-276.5"/>
</a>
</g>
</g>
<!-- Node5 -->
<g id="Node000005" class="node">
<title>Node5</title>
<g id="a_Node000005"><a xlink:href="main_8cpp.html#a7cc33c6b9b1bd83e02864b1eb0530a63" target="_top" xlink:title=" ">
<polygon fill="white" stroke="#666666" points="310.5,-317 281,-317 281,-297 310.5,-297 310.5,-317"/>
<text xml:space="preserve" text-anchor="middle" x="295.75" y="-303.5" font-family="Helvetica,sans-Serif" font-size="10.00">rfid</text>
</a>
</g>
</g>
<!-- Node1&#45;&gt;Node5 -->
<g id="edge14_Node000001_Node000005" class="edge">
<title>Node1&#45;&gt;Node5</title>
<g id="a_edge14_Node000001_Node000005"><a xlink:title=" ">
<path fill="none" stroke="#63b8ff" d="M18.37,-184.32C19.93,-210.3 28.03,-278.34 70,-307 131.1,-348.72 224.99,-328.64 269.58,-315.42"/>
<polygon fill="#63b8ff" stroke="#63b8ff" points="270.58,-318.77 279.09,-312.46 268.5,-312.09 270.58,-318.77"/>
</a>
</g>
</g>
<!-- Node6 -->
<g id="Node000006" class="node">
<title>Node6</title>
<g id="a_Node000006"><a xlink:href="namespace_hash_utils.html#a3432774829b6752dc346491bc5dd5eec" target="_top" xlink:title=" ">
<polygon fill="white" stroke="#666666" points="680,-222 578.5,-222 578.5,-202 680,-202 680,-222"/>
<text xml:space="preserve" text-anchor="middle" x="629.25" y="-208.5" font-family="Helvetica,sans-Serif" font-size="10.00">HashUtils::hashUid</text>
</a>
</g>
</g>
<!-- Node1&#45;&gt;Node6 -->
<g id="edge5_Node000001_Node000006" class="edge">
<title>Node1&#45;&gt;Node6</title>
<g id="a_edge5_Node000001_Node000006"><a xlink:title=" ">
<path fill="none" stroke="#63b8ff" d="M34.24,-180.45C44.42,-184.37 57.86,-189.3 70,-193 137.75,-213.63 154.44,-222.49 224.75,-231 364.95,-247.96 402.12,-246.37 542.5,-231 554.33,-229.7 566.92,-227.43 578.7,-224.9"/>
<polygon fill="#63b8ff" stroke="#63b8ff" points="579.24,-228.37 588.23,-222.75 577.7,-221.54 579.24,-228.37"/>
</a>
</g>
</g>
<!-- Node8 -->
<g id="Node000008" class="node">
<title>Node8</title>
<g id="a_Node000008"><a xlink:href="class_auth_sync.html#aeb16a776532ee69ba1ca44b11904a2c2" target="_top" xlink:title=" ">
<polygon fill="white" stroke="#666666" points="188.75,-184 70,-184 70,-164 188.75,-164 188.75,-184"/>
<text xml:space="preserve" text-anchor="middle" x="129.38" y="-170.5" font-family="Helvetica,sans-Serif" font-size="10.00">AuthSync::isAuthorized</text>
</a>
</g>
</g>
<!-- Node1&#45;&gt;Node8 -->
<g id="edge7_Node000001_Node000008" class="edge">
<title>Node1&#45;&gt;Node8</title>
<g id="a_edge7_Node000001_Node000008"><a xlink:title=" ">
<path fill="none" stroke="#63b8ff" d="M34.29,-174C41.03,-174 49.36,-174 58.24,-174"/>
<polygon fill="#63b8ff" stroke="#63b8ff" points="58.2,-177.5 68.2,-174 58.2,-170.5 58.2,-177.5"/>
</a>
</g>
</g>
<!-- Node14 -->
<g id="Node000014" class="node">
<title>Node14</title>
<g id="a_Node000014"><a xlink:href="main_8cpp.html#ab7eb3c8c2e8604801ee00f11d3af8c3f" target="_top" xlink:title=" ">
<polygon fill="white" stroke="#666666" points="168.5,-96 90.25,-96 90.25,-76 168.5,-76 168.5,-96"/>
<text xml:space="preserve" text-anchor="middle" x="129.38" y="-82.5" font-family="Helvetica,sans-Serif" font-size="10.00">updateDisplay</text>
</a>
</g>
</g>
<!-- Node1&#45;&gt;Node14 -->
<g id="edge15_Node000001_Node000014" class="edge">
<title>Node1&#45;&gt;Node14</title>
<g id="a_edge15_Node000001_Node000014"><a xlink:title=" ">
<path fill="none" stroke="#63b8ff" d="M25.5,-163.52C34.84,-151.01 51.8,-130.05 70,-116 77.02,-110.58 85.18,-105.68 93.12,-101.49"/>
<polygon fill="#63b8ff" stroke="#63b8ff" points="94.59,-104.67 101.98,-97.07 91.47,-98.4 94.59,-104.67"/>
</a>
</g>
</g>
<!-- Node16 -->
<g id="Node000016" class="node">
<title>Node16</title>
<g id="a_Node000016"><a xlink:href="main_8cpp.html#a9af1835ca07f33a8aaafdb3668a7b08a" target="_top" xlink:title=" ">
<polygon fill="white" stroke="#666666" points="178.62,-58 80.12,-58 80.12,-38 178.62,-38 178.62,-58"/>
<text xml:space="preserve" text-anchor="middle" x="129.38" y="-44.5" font-family="Helvetica,sans-Serif" font-size="10.00">updateEnrollStatus</text>
</a>
</g>
</g>
<!-- Node1&#45;&gt;Node16 -->
<g id="edge20_Node000001_Node000016" class="edge">
<title>Node1&#45;&gt;Node16</title>
<g id="a_edge20_Node000001_Node000016"><a xlink:title=" ">
<path fill="none" stroke="#63b8ff" d="M20.2,-163.5C25.21,-142.18 39.47,-93.59 70,-67 71.11,-66.04 72.27,-65.12 73.46,-64.25"/>
<polygon fill="#63b8ff" stroke="#63b8ff" points="75.17,-67.31 82.02,-59.22 71.62,-61.27 75.17,-67.31"/>
</a>
</g>
</g>
<!-- Node3 -->
<g id="Node000003" class="node">
<title>Node3</title>
<g id="a_Node000003"><a xlink:href="main_8cpp.html#a5bfb006b7c98d41a337e56d0f4a5619f" target="_top" xlink:title=" ">
<polygon fill="white" stroke="#666666" points="491.12,-58 454.12,-58 454.12,-38 491.12,-38 491.12,-58"/>
<text xml:space="preserve" text-anchor="middle" x="472.62" y="-44.5" font-family="Helvetica,sans-Serif" font-size="10.00">u8x8</text>
</a>
</g>
</g>
<!-- Node2&#45;&gt;Node3 -->
<g id="edge2_Node000002_Node000003" class="edge">
<title>Node2&#45;&gt;Node3</title>
<g id="a_edge2_Node000002_Node000003"><a xlink:title=" ">
<path fill="none" stroke="#63b8ff" d="M345,-75.52C376.38,-68.7 416.26,-60.03 442.8,-54.26"/>
<polygon fill="#63b8ff" stroke="#63b8ff" points="443.46,-57.7 452.49,-52.16 441.98,-50.86 443.46,-57.7"/>
</a>
</g>
</g>
<!-- Node4&#45;&gt;Node5 -->
<g id="edge4_Node000004_Node000005" class="edge">
<title>Node4&#45;&gt;Node5</title>
<g id="a_edge4_Node000004_Node000005"><a xlink:title=" ">
<path fill="none" stroke="#63b8ff" d="M164.83,-291.98C196.16,-295.6 241.64,-300.86 269.65,-304.1"/>
<polygon fill="#63b8ff" stroke="#63b8ff" points="268.99,-307.55 279.33,-305.22 269.8,-300.59 268.99,-307.55"/>
</a>
</g>
</g>
<!-- Node7 -->
<g id="Node000007" class="node">
<title>Node7</title>
<g id="a_Node000007"><a xlink:href="_hash_utils_8cpp.html#a857c40dca22894a62e01dd957349bc76" target="_top" xlink:title=" ">
<polygon fill="white" stroke="#666666" points="795.75,-222 716,-222 716,-202 795.75,-202 795.75,-222"/>
<text xml:space="preserve" text-anchor="middle" x="755.88" y="-208.5" font-family="Helvetica,sans-Serif" font-size="10.00">fnv1a64_bytes</text>
</a>
</g>
</g>
<!-- Node6&#45;&gt;Node7 -->
<g id="edge6_Node000006_Node000007" class="edge">
<title>Node6&#45;&gt;Node7</title>
<g id="a_edge6_Node000006_Node000007"><a xlink:title=" ">
<path fill="none" stroke="#63b8ff" d="M680.22,-212C688.14,-212 696.33,-212 704.26,-212"/>
<polygon fill="#63b8ff" stroke="#63b8ff" points="704.12,-215.5 714.12,-212 704.12,-208.5 704.12,-215.5"/>
</a>
</g>
</g>
<!-- Node9 -->
<g id="Node000009" class="node">
<title>Node9</title>
<g id="a_Node000009"><a xlink:href="class_auth_sync.html#a4e7f7720c3b9e51ceb1ab4d911f03e23" target="_top" xlink:title=" ">
<polygon fill="white" stroke="#666666" points="361.12,-222 230.38,-222 230.38,-202 361.12,-202 361.12,-222"/>
<text xml:space="preserve" text-anchor="middle" x="295.75" y="-208.5" font-family="Helvetica,sans-Serif" font-size="10.00">AuthSync::addKnownAuth</text>
</a>
</g>
</g>
<!-- Node8&#45;&gt;Node9 -->
<g id="edge8_Node000008_Node000009" class="edge">
<title>Node8&#45;&gt;Node9</title>
<g id="a_edge8_Node000008_Node000009"><a xlink:title=" ">
<path fill="none" stroke="#63b8ff" d="M175.73,-184.48C195.13,-188.97 217.99,-194.25 238.46,-198.99"/>
<polygon fill="#63b8ff" stroke="#63b8ff" points="237.54,-202.37 248.07,-201.21 239.12,-195.55 237.54,-202.37"/>
</a>
</g>
</g>
<!-- Node10 -->
<g id="Node000010" class="node">
<title>Node10</title>
<g id="a_Node000010"><a xlink:href="class_auth_sync.html#afea91831a16e241cc5db5163299fc900" target="_top" xlink:title=" ">
<polygon fill="white" stroke="#666666" points="523,-184 422.25,-184 422.25,-164 523,-164 523,-184"/>
<text xml:space="preserve" text-anchor="middle" x="472.62" y="-170.5" font-family="Helvetica,sans-Serif" font-size="10.00">AuthSync::hashUid</text>
</a>
</g>
</g>
<!-- Node8&#45;&gt;Node10 -->
<g id="edge13_Node000008_Node000010" class="edge">
<title>Node8&#45;&gt;Node10</title>
<g id="a_edge13_Node000008_Node000010"><a xlink:title=" ">
<path fill="none" stroke="#63b8ff" d="M189.04,-174C250.84,-174 347.73,-174 410.46,-174"/>
<polygon fill="#63b8ff" stroke="#63b8ff" points="410.25,-177.5 420.25,-174 410.25,-170.5 410.25,-177.5"/>
</a>
</g>
</g>
<!-- Node13 -->
<g id="Node000013" class="node">
<title>Node13</title>
<g id="a_Node000013"><a xlink:href="class_auth_sync.html#a30cbd10c13742a6ab7bafc4011480fec" target="_top" xlink:title=" ">
<polygon fill="white" stroke="#666666" points="366.75,-146 224.75,-146 224.75,-114 366.75,-114 366.75,-146"/>
<text xml:space="preserve" text-anchor="start" x="232.75" y="-132.5" font-family="Helvetica,sans-Serif" font-size="10.00">AuthSync::getCardAuthFrom</text>
<text xml:space="preserve" text-anchor="middle" x="295.75" y="-120.5" font-family="Helvetica,sans-Serif" font-size="10.00">Server</text>
</a>
</g>
</g>
<!-- Node8&#45;&gt;Node13 -->
<g id="edge12_Node000008_Node000013" class="edge">
<title>Node8&#45;&gt;Node13</title>
<g id="a_edge12_Node000008_Node000013"><a xlink:title=" ">
<path fill="none" stroke="#63b8ff" d="M169.33,-163.57C185.21,-159.32 204.09,-154.27 222.33,-149.39"/>
<polygon fill="#63b8ff" stroke="#63b8ff" points="223.05,-152.82 231.8,-146.85 221.24,-146.06 223.05,-152.82"/>
</a>
</g>
</g>
<!-- Node9&#45;&gt;Node10 -->
<g id="edge9_Node000009_Node000010" class="edge">
<title>Node9&#45;&gt;Node10</title>
<g id="a_edge9_Node000009_Node000010"><a xlink:title=" ">
<path fill="none" stroke="#63b8ff" d="M345,-201.52C365.83,-196.99 390.41,-191.65 412.34,-186.88"/>
<polygon fill="#63b8ff" stroke="#63b8ff" points="413.03,-190.32 422.06,-184.77 411.54,-183.47 413.03,-190.32"/>
</a>
</g>
</g>
<!-- Node11 -->
<g id="Node000011" class="node">
<title>Node11</title>
<g id="a_Node000011"><a xlink:href="class_auth_sync.html#a96c599b762bdafa672930dfa6f07ff13" target="_top" xlink:title=" ">
<polygon fill="#fff0f0" stroke="red" points="542.5,-222 402.75,-222 402.75,-202 542.5,-202 542.5,-222"/>
<text xml:space="preserve" text-anchor="middle" x="472.62" y="-208.5" font-family="Helvetica,sans-Serif" font-size="10.00">AuthSync::saveETagToNVS</text>
</a>
</g>
</g>
<!-- Node9&#45;&gt;Node11 -->
<g id="edge11_Node000009_Node000011" class="edge">
<title>Node9&#45;&gt;Node11</title>
<g id="a_edge11_Node000009_Node000011"><a xlink:title=" ">
<path fill="none" stroke="#63b8ff" d="M361.37,-212C370.95,-212 380.92,-212 390.79,-212"/>
<polygon fill="#63b8ff" stroke="#63b8ff" points="390.77,-215.5 400.77,-212 390.77,-208.5 390.77,-215.5"/>
</a>
</g>
</g>
<!-- Node10&#45;&gt;Node6 -->
<g id="edge10_Node000010_Node000006" class="edge">
<title>Node10&#45;&gt;Node6</title>
<g id="a_edge10_Node000010_Node000006"><a xlink:title=" ">
<path fill="none" stroke="#63b8ff" d="M516.29,-184.48C534.37,-188.93 555.64,-194.16 574.76,-198.85"/>
<polygon fill="#63b8ff" stroke="#63b8ff" points="573.71,-202.2 584.26,-201.19 575.38,-195.4 573.71,-202.2"/>
</a>
</g>
</g>
<!-- Node14&#45;&gt;Node2 -->
<g id="edge16_Node000014_Node000002" class="edge">
<title>Node14&#45;&gt;Node2</title>
<g id="a_edge16_Node000014_Node000002"><a xlink:title=" ">
<path fill="none" stroke="#63b8ff" d="M168.91,-86C188.47,-86 212.67,-86 234.6,-86"/>
<polygon fill="#63b8ff" stroke="#63b8ff" points="234.32,-89.5 244.32,-86 234.32,-82.5 234.32,-89.5"/>
</a>
</g>
</g>
<!-- Node14&#45;&gt;Node3 -->
<g id="edge19_Node000014_Node000003" class="edge">
<title>Node14&#45;&gt;Node3</title>
<g id="a_edge19_Node000014_Node000003"><a xlink:title=" ">
<path fill="none" stroke="#63b8ff" d="M168.76,-77.17C185.83,-73.53 206.21,-69.57 224.75,-67 303.12,-56.14 396.41,-51.07 442.66,-49.08"/>
<polygon fill="#63b8ff" stroke="#63b8ff" points="442.52,-52.59 452.37,-48.69 442.24,-45.6 442.52,-52.59"/>
</a>
</g>
</g>
<!-- Node15 -->
<g id="Node000015" class="node">
<title>Node15</title>
<g id="a_Node000015"><a xlink:href="main_8cpp.html#acd554cb2efdf9d085573f58441f9431a" target="_top" xlink:title=" ">
<polygon fill="white" stroke="#666666" points="330,-20 261.5,-20 261.5,0 330,0 330,-20"/>
<text xml:space="preserve" text-anchor="middle" x="295.75" y="-6.5" font-family="Helvetica,sans-Serif" font-size="10.00">drawHeader</text>
</a>
</g>
</g>
<!-- Node14&#45;&gt;Node15 -->
<g id="edge17_Node000014_Node000015" class="edge">
<title>Node14&#45;&gt;Node15</title>
<g id="a_edge17_Node000014_Node000015"><a xlink:title=" ">
<path fill="none" stroke="#63b8ff" d="M168.76,-76.11C175.65,-73.62 182.58,-70.6 188.75,-67 207.5,-56.06 206.09,-45.09 224.75,-34 232.68,-29.29 241.67,-25.33 250.5,-22.08"/>
<polygon fill="#63b8ff" stroke="#63b8ff" points="251.34,-25.49 259.68,-18.94 249.08,-18.86 251.34,-25.49"/>
</a>
</g>
</g>
<!-- Node15&#45;&gt;Node3 -->
<g id="edge18_Node000015_Node000003" class="edge">
<title>Node15&#45;&gt;Node3</title>
<g id="a_edge18_Node000015_Node000003"><a xlink:title=" ">
<path fill="none" stroke="#63b8ff" d="M330.47,-17.33C363.21,-24.44 412.35,-35.12 443.17,-41.82"/>
<polygon fill="#63b8ff" stroke="#63b8ff" points="442.02,-45.15 452.54,-43.85 443.51,-38.31 442.02,-45.15"/>
</a>
</g>
</g>
</g>
</svg>

<g id="navigator" transform="translate(0 0)" fill="#404254">
  <rect fill="#f2f5e9" fill-opacity="0.5" stroke="#606060" stroke-width=".5" x="0" y="0" width="60" height="60"/>
  <use id="zoomplus" xlink:href="#zoomPlus" x="17" y="9" onmousedown="handleZoom(evt,'in')"/>
  <use id="zoomminus" xlink:href="#zoomMin" x="42" y="9" onmousedown="handleZoom(evt,'out')"/>
  <use id="reset" xlink:href="#resetDef" x="30" y="36" onmousedown="handleReset()"/>
   <use id="arrowup" xlink:href="#arrowUp" x="0" y="0" onmousedown="handlePan(0,-1)"/>
  <use id="arrowright" xlink:href="#arrowRight" x="0" y="0" onmousedown="handlePan(1,0)"/>
  <use id="arrowdown" xlink:href="#arrowDown" x="0" y="0" onmousedown="handlePan(0,1)"/>
  <use id="arrowleft" xlink:href="#arrowLeft" x="0" y="0" onmousedown="handlePan(-1,0)"/>
</g>
<svg viewBox="0 0 15 15" width="100%" height="30px" preserveAspectRatio="xMaxYMin meet">
 <g id="arrow_out" transform="scale(0.3 0.3)">
  <a xlink:href="main_8cpp_afe461d27b9c48d5921c00d521181f12f_cgraph_org.svg" target="_base">
   <rect id="button" ry="5" rx="5" y="6" x="6" height="38" width="38"
        fill="#f2f5e9" fill-opacity="0.5" stroke="#606060" stroke-width="1.0"/>
   <path id="arrow"
     d="M 11.500037,31.436501 C 11.940474,20.09759 22.043105,11.32322 32.158766,21.979434 L 37.068811,17.246167 C 37.068811,17.246167 37.088388,32 37.088388,32 L 22.160133,31.978069 C 22.160133,31.978069 26.997745,27.140456 26.997745,27.140456 C 18.528582,18.264221 13.291696,25.230495 11.500037,31.436501 z"
     style="fill:#404040;"/>
  </a>
 </g>
</svg>

<style type='text/css'>
<![CDATA[
[data-mouse-over-selected='false'] { opacity: 0.7; }
[data-mouse-over-selected='true']  { opacity: 1.0; }
]]>
</style>
<script type="application/ecmascript"><![CDATA[
document.addEventListener('DOMContentLoaded', (event) => {
  highlightEdges();
  highlightAdjacentNodes();
});
]]></script>
</svg>
