<?xml version="1.0" encoding="UTF-8" standalone="no"?>
<!DOCTYPE svg PUBLIC "-//W3C//DTD SVG 1.1//EN"
 "http://www.w3.org/Graphics/SVG/1.1/DTD/svg11.dtd">
<!-- Generated by graphviz version 14.1.2 (20260124.0452)
 -->
<!-- Title: updateDisplay Pages: 1 -->
<svg width="295pt" height="104pt"
 viewBox="0.00 0.00 295.00 104.00" xmlns="http://www.w3.org/2000/svg" xmlns:xlink="http://www.w3.org/1999/xlink">
<g id="graph0" class="graph" transform="scale(1 1) rotate(0) translate(4 100)">
<title>updateDisplay</title>
<!-- Node1 -->
<g id="Node000001" class="node">
<title>Node1</title>
<g id="a_Node000001"><a xlink:title=" ">
<polygon fill="#999999" stroke="#666666" points="78.25,-58 0,-58 0,-38 78.25,-38 78.25,-58"/>
<text xml:space="preserve" text-anchor="middle" x="39.12" y="-44.5" font-family="Helvetica,sans-Serif" font-size="10.00">updateDisplay</text>
</a>
</g>
</g>
<!-- Node2 -->
<g id="Node000002" class="node">
<title>Node2</title>
<g id="a_Node000002"><a xlink:href="main_8cpp.html#a8af6ba2d85e09ba5109484b26b338541" target="_top" xlink:title=" ">
<polygon fill="white" stroke="#666666" points="213.5,-96 114.25,-96 114.25,-76 213.5,-76 213.5,-96"/>
<text xml:space="preserve" text-anchor="middle" x="163.88" y="-82.5" font-family="Helvetica,sans-Serif" font-size="10.00">drawEnrollIndicator</text>
</a>
</g>
</g>
<!-- Node1&#45;&gt;Node2 -->
<g id="edge1_Node000001_Node000002" class="edge">
<title>Node1&#45;&gt;Node2</title>
<g id="a_edge1_Node000001_Node000002"><a xlink:title=" ">
<path fill="none" stroke="#63b8ff" d="M73.99,-58.48C87.68,-62.72 103.66,-67.67 118.27,-72.19"/>
<polygon fill="#63b8ff" stroke="#63b8ff" points="117.08,-75.49 127.67,-75.1 119.16,-68.8 117.08,-75.49"/>
</a>
</g>
</g>
<!-- Node3 -->
<g id="Node000003" class="node">
<title>Node3</title>
<g id="a_Node000003"><a xlink:href="main_8cpp.html#a5bfb006b7c98d41a337e56d0f4a5619f" target="_top" xlink:title=" ">
<polygon fill="white" stroke="#666666" points="286.5,-58 249.5,-58 249.5,-38 286.5,-38 286.5,-58"/>
<text xml:space="preserve" text-anchor="middle" x="268" y="-44.5" font-family="Helvetica,sans-Serif" font-size="10.00">u8x8</text>
</a>
</g>
</g>
<!-- Node1&#45;&gt;Node3 -->
<g id="edge5_Node000001_Node000003" class="edge">
<title>Node1&#45;&gt;Node3</title>
<g id="a_edge5_Node000001_Node000003"><a xlink:title=" ">
<path fill="none" stroke="#63b8ff" d="M78.61,-48C123.64,-48 197.18,-48 237.78,-48"/>
<polygon fill="#63b8ff" stroke="#63b8ff" points="237.74,-51.5 247.74,-48 237.74,-44.5 237.74,-51.5"/>
</a>
</g>
</g>
<!-- Node4 -->
<g id="Node000004" class="node">
<title>Node4</title>
<g id="a_Node000004"><a xlink:href="main_8cpp.html#acd554cb2efdf9d085573f58441f9431a" target="_top" xlink:title=" ">
<polygon fill="white" stroke="#666666" points="198.12,-20 129.62,-20 129.62,0 198.12,0 198.12,-20"/>
<text xml:space="preserve" text-anchor="middle" x="163.88" y="-6.5" font-family="Helvetica,sans-Serif" font-size="10.00">drawHeader</text>
</a>
</g>
</g>
<!-- Node1&#45;&gt;Node4 -->
<g id="edge3_Node000001_Node000004" class="edge">
<title>Node1&#45;&gt;Node4</title>
<g id="a_edge3_Node000001_Node000004"><a xlink:title=" ">
<path fill="none" stroke="#63b8ff" d="M73.99,-37.52C87.79,-33.24 103.93,-28.25 118.64,-23.7"/>
<polygon fill="#63b8ff" stroke="#63b8ff" points="119.58,-27.07 128.1,-20.77 117.51,-20.38 119.58,-27.07"/>
</a>
</g>
</g>
<!-- Node2&#45;&gt;Node3 -->
<g id="edge2_Node000002_Node000003" class="edge">
<title>Node2&#45;&gt;Node3</title>
<g id="a_edge2_Node000002_Node000003"><a xlink:title=" ">
<path fill="none" stroke="#63b8ff" d="M193.05,-75.52C207.21,-70.25 224.34,-63.87 238.54,-58.59"/>
<polygon fill="#63b8ff" stroke="#63b8ff" points="239.62,-61.92 247.77,-55.16 237.18,-55.36 239.62,-61.92"/>
</a>
</g>
</g>
<!-- Node4&#45;&gt;Node3 -->
<g id="edge4_Node000004_Node000003" class="edge">
<title>Node4&#45;&gt;Node3</title>
<g id="a_edge4_Node000004_Node000003"><a xlink:title=" ">
<path fill="none" stroke="#63b8ff" d="M193.05,-20.48C207.21,-25.75 224.34,-32.13 238.54,-37.41"/>
<polygon fill="#63b8ff" stroke="#63b8ff" points="237.18,-40.64 247.77,-40.84 239.62,-34.08 237.18,-40.64"/>
</a>
</g>
</g>
</g>
</svg>
