<?xml version="1.0" encoding="UTF-8" standalone="no"?>
<!DOCTYPE svg PUBLIC "-//W3C//DTD SVG 1.1//EN"
 "http://www.w3.org/Graphics/SVG/1.1/DTD/svg11.dtd">
<!-- Generated by graphviz version 14.1.2 (20260124.0452)
 -->
<!-- Title: drawHeader Pages: 1 -->
<svg width="261pt" height="66pt"
 viewBox="0.00 0.00 261.00 66.00" xmlns="http://www.w3.org/2000/svg" xmlns:xlink="http://www.w3.org/1999/xlink">
<g id="graph0" class="graph" transform="scale(1 1) rotate(0) translate(4 62)">
<title>drawHeader</title>
<!-- Node1 -->
<g id="Node000001" class="node">
<title>Node1</title>
<g id="a_Node000001"><a xlink:title=" ">
<polygon fill="#999999" stroke="#666666" points="252.75,-39 184.25,-39 184.25,-19 252.75,-19 252.75,-39"/>
<text xml:space="preserve" text-anchor="middle" x="218.5" y="-25.5" font-family="Helvetica,sans-Serif" font-size="10.00">drawHeader</text>
</a>
</g>
</g>
<!-- Node2 -->
<g id="Node000002" class="node">
<title>Node2</title>
<g id="a_Node000002"><a xlink:href="main_8cpp.html#a4fc01d736fe50cf5b977f755b675f11d" target="_top" xlink:title=" ">
<polygon fill="white" stroke="#666666" points="129.12,-58 89.12,-58 89.12,-38 129.12,-38 129.12,-58"/>
<text xml:space="preserve" text-anchor="middle" x="109.12" y="-44.5" font-family="Helvetica,sans-Serif" font-size="10.00">setup</text>
</a>
</g>
</g>
<!-- Node1&#45;&gt;Node2 -->
<g id="edge1_Node000001_Node000002" class="edge">
<title>Node1&#45;&gt;Node2</title>
<g id="a_edge1_Node000001_Node000002"><a xlink:title=" ">
<path fill="none" stroke="#63b8ff" d="M172.61,-36.94C157.6,-39.6 141.64,-42.42 129.62,-44.55"/>
<polygon fill="#63b8ff" stroke="#63b8ff" points="173.09,-40.41 182.33,-35.22 171.87,-33.52 173.09,-40.41"/>
</a>
</g>
</g>
<!-- Node3 -->
<g id="Node000003" class="node">
<title>Node3</title>
<g id="a_Node000003"><a xlink:href="main_8cpp.html#ab7eb3c8c2e8604801ee00f11d3af8c3f" target="_top" xlink:title=" ">
<polygon fill="white" stroke="#666666" points="148.25,-20 70,-20 70,0 148.25,0 148.25,-20"/>
<text xml:space="preserve" text-anchor="middle" x="109.12" y="-6.5" font-family="Helvetica,sans-Serif" font-size="10.00">updateDisplay</text>
</a>
</g>
</g>
<!-- Node1&#45;&gt;Node3 -->
<g id="edge2_Node000001_Node000003" class="edge">
<title>Node1&#45;&gt;Node3</title>
<g id="a_edge2_Node000001_Node000003"><a xlink:title=" ">
<path fill="none" stroke="#63b8ff" d="M172.73,-21.08C164.69,-19.66 156.39,-18.19 148.55,-16.8"/>
<polygon fill="#63b8ff" stroke="#63b8ff" points="171.87,-24.48 182.33,-22.78 173.09,-17.59 171.87,-24.48"/>
</a>
</g>
</g>
<!-- Node4 -->
<g id="Node000004" class="node">
<title>Node4</title>
<g id="a_Node000004"><a xlink:href="main_8cpp.html#afe461d27b9c48d5921c00d521181f12f" target="_top" xlink:title=" ">
<polygon fill="white" stroke="#666666" points="34,-20 0,-20 0,0 34,0 34,-20"/>
<text xml:space="preserve" text-anchor="middle" x="17" y="-6.5" font-family="Helvetica,sans-Serif" font-size="10.00">loop</text>
</a>
</g>
</g>
<!-- Node3&#45;&gt;Node4 -->
<g id="edge3_Node000003_Node000004" class="edge">
<title>Node3&#45;&gt;Node4</title>
<g id="a_edge3_Node000003_Node000004"><a xlink:title=" ">
<path fill="none" stroke="#63b8ff" d="M58.19,-10C49.51,-10 41.06,-10 34.18,-10"/>
<polygon fill="#63b8ff" stroke="#63b8ff" points="58.13,-13.5 68.13,-10 58.13,-6.5 58.13,-13.5"/>
</a>
</g>
</g>
</g>
</svg>
