<?xml version="1.0" encoding="UTF-8" standalone="no"?>
<!DOCTYPE svg PUBLIC "-//W3C//DTD SVG 1.1//EN"
 "http://www.w3.org/Graphics/SVG/1.1/DTD/svg11.dtd">
<!-- Generated by graphviz version 14.1.2 (20260124.0452)
 -->
<!-- Title: setup Pages: 1 -->
<svg width="411pt" height="332pt"
 viewBox="0.00 0.00 411.00 332.00" xmlns="http://www.w3.org/2000/svg" xmlns:xlink="http://www.w3.org/1999/xlink">
<g id="graph0" class="graph" transform="scale(1 1) rotate(0) translate(4 328)">
<title>setup</title>
<!-- Node1 -->
<g id="Node000001" class="node">
<title>Node1</title>
<g id="a_Node000001"><a xlink:title=" ">
<polygon fill="#999999" stroke="#666666" points="40,-210 0,-210 0,-190 40,-190 40,-210"/>
<text xml:space="preserve" text-anchor="middle" x="20" y="-196.5" font-family="Helvetica,sans-Serif" font-size="10.00">setup</text>
</a>
</g>
</g>
<!-- Node2 -->
<g id="Node000002" class="node">
<title>Node2</title>
<g id="a_Node000002"><a xlink:href="_timer_handle_8cpp.html#a76a4d620939b74245f3cbeb810033714" target="_top" xlink:title=" ">
<polygon fill="white" stroke="#666666" points="193.62,-324 92.88,-324 92.88,-304 193.62,-304 193.62,-324"/>
<text xml:space="preserve" text-anchor="middle" x="143.25" y="-310.5" font-family="Helvetica,sans-Serif" font-size="10.00">createDisplayTimer</text>
</a>
</g>
</g>
<!-- Node1&#45;&gt;Node2 -->
<g id="edge1_Node000001_Node000002" class="edge">
<title>Node1&#45;&gt;Node2</title>
<g id="a_edge1_Node000001_Node000002"><a xlink:title=" ">
<path fill="none" stroke="#63b8ff" d="M24.08,-210.32C30.47,-229.87 47,-272.37 76,-295 77.99,-296.56 80.11,-297.98 82.31,-299.29"/>
<polygon fill="#63b8ff" stroke="#63b8ff" points="80.57,-302.34 91.08,-303.65 83.68,-296.07 80.57,-302.34"/>
</a>
</g>
</g>
<!-- Node3 -->
<g id="Node000003" class="node">
<title>Node3</title>
<g id="a_Node000003"><a xlink:href="main_8cpp.html#a9c6adceab3b46443902cf2a5b0796a7c" target="_top" xlink:title=" ">
<polygon fill="white" stroke="#666666" points="198.12,-286 88.38,-286 88.38,-266 198.12,-266 198.12,-286"/>
<text xml:space="preserve" text-anchor="middle" x="143.25" y="-272.5" font-family="Helvetica,sans-Serif" font-size="10.00">displayTimerCallback</text>
</a>
</g>
</g>
<!-- Node1&#45;&gt;Node3 -->
<g id="edge2_Node000001_Node000003" class="edge">
<title>Node1&#45;&gt;Node3</title>
<g id="a_edge2_Node000001_Node000003"><a xlink:title=" ">
<path fill="none" stroke="#63b8ff" d="M28.33,-210.45C37.87,-223.27 55.73,-244.81 76,-257 78.47,-258.48 81.06,-259.86 83.72,-261.13"/>
<polygon fill="#63b8ff" stroke="#63b8ff" points="82.32,-264.33 92.89,-264.94 85.01,-257.87 82.32,-264.33"/>
</a>
</g>
</g>
<!-- Node4 -->
<g id="Node000004" class="node">
<title>Node4</title>
<g id="a_Node000004"><a xlink:href="main_8cpp.html#acd554cb2efdf9d085573f58441f9431a" target="_top" xlink:title=" ">
<polygon fill="white" stroke="#666666" points="177.5,-248 109,-248 109,-228 177.5,-228 177.5,-248"/>
<text xml:space="preserve" text-anchor="middle" x="143.25" y="-234.5" font-family="Helvetica,sans-Serif" font-size="10.00">drawHeader</text>
</a>
</g>
</g>
<!-- Node1&#45;&gt;Node4 -->
<g id="edge3_Node000001_Node000004" class="edge">
<title>Node1&#45;&gt;Node4</title>
<g id="a_edge3_Node000001_Node000004"><a xlink:title=" ">
<path fill="none" stroke="#63b8ff" d="M40.48,-206.11C56,-210.97 78.32,-217.97 98.11,-224.17"/>
<polygon fill="#63b8ff" stroke="#63b8ff" points="97.06,-227.51 107.65,-227.16 99.15,-220.83 97.06,-227.51"/>
</a>
</g>
</g>
<!-- Node5 -->
<g id="Node000005" class="node">
<title>Node5</title>
<g id="a_Node000005"><a xlink:href="main_8cpp.html#a5bfb006b7c98d41a337e56d0f4a5619f" target="_top" xlink:title=" ">
<polygon fill="white" stroke="#666666" points="343.12,-248 306.12,-248 306.12,-228 343.12,-228 343.12,-248"/>
<text xml:space="preserve" text-anchor="middle" x="324.62" y="-234.5" font-family="Helvetica,sans-Serif" font-size="10.00">u8x8</text>
</a>
</g>
</g>
<!-- Node1&#45;&gt;Node5 -->
<g id="edge14_Node000001_Node000005" class="edge">
<title>Node1&#45;&gt;Node5</title>
<g id="a_edge14_Node000001_Node000005"><a xlink:title=" ">
<path fill="none" stroke="#63b8ff" d="M40.42,-201.52C74.79,-204.3 148.56,-210.7 210.5,-219 239.11,-222.83 271.59,-228.42 294.38,-232.54"/>
<polygon fill="#63b8ff" stroke="#63b8ff" points="293.7,-235.97 304.17,-234.33 294.96,-229.09 293.7,-235.97"/>
</a>
</g>
</g>
<!-- Node6 -->
<g id="Node000006" class="node">
<title>Node6</title>
<g id="a_Node000006"><a xlink:href="class_config_manager.html#a7bfca5cc9eec8e5fd51e0cc91f1f4b26" target="_top" xlink:title=" ">
<polygon fill="white" stroke="#666666" points="210.5,-172 76,-172 76,-152 210.5,-152 210.5,-172"/>
<text xml:space="preserve" text-anchor="middle" x="143.25" y="-158.5" font-family="Helvetica,sans-Serif" font-size="10.00">ConfigManager::loadConfig</text>
</a>
</g>
</g>
<!-- Node1&#45;&gt;Node6 -->
<g id="edge5_Node000001_Node000006" class="edge">
<title>Node1&#45;&gt;Node6</title>
<g id="a_edge5_Node000001_Node000006"><a xlink:title=" ">
<path fill="none" stroke="#63b8ff" d="M40.48,-193.89C56,-189.03 78.32,-182.03 98.11,-175.83"/>
<polygon fill="#63b8ff" stroke="#63b8ff" points="99.15,-179.17 107.65,-172.84 97.06,-172.49 99.15,-179.17"/>
</a>
</g>
</g>
<!-- Node8 -->
<g id="Node000008" class="node">
<title>Node8</title>
<g id="a_Node000008"><a xlink:href="main_8cpp.html#a1752872dd104f06716cb944c1922de40" target="_top" xlink:title=" ">
<polygon fill="white" stroke="#666666" points="180.12,-134 106.38,-134 106.38,-114 180.12,-114 180.12,-134"/>
<text xml:space="preserve" text-anchor="middle" x="143.25" y="-120.5" font-family="Helvetica,sans-Serif" font-size="10.00">NetworkTask</text>
</a>
</g>
</g>
<!-- Node1&#45;&gt;Node8 -->
<g id="edge7_Node000001_Node000008" class="edge">
<title>Node1&#45;&gt;Node8</title>
<g id="a_edge7_Node000001_Node000008"><a xlink:title=" ">
<path fill="none" stroke="#63b8ff" d="M28.33,-189.55C37.87,-176.73 55.73,-155.19 76,-143 81.99,-139.4 88.69,-136.45 95.48,-134.05"/>
<polygon fill="#63b8ff" stroke="#63b8ff" points="96.18,-137.5 104.66,-131.16 94.07,-130.82 96.18,-137.5"/>
</a>
</g>
</g>
<!-- Node14 -->
<g id="Node000014" class="node">
<title>Node14</title>
<g id="a_Node000014"><a xlink:href="main_8cpp.html#a7cc33c6b9b1bd83e02864b1eb0530a63" target="_top" xlink:title=" ">
<polygon fill="white" stroke="#666666" points="158,-96 128.5,-96 128.5,-76 158,-76 158,-96"/>
<text xml:space="preserve" text-anchor="middle" x="143.25" y="-82.5" font-family="Helvetica,sans-Serif" font-size="10.00">rfid</text>
</a>
</g>
</g>
<!-- Node1&#45;&gt;Node14 -->
<g id="edge13_Node000001_Node000014" class="edge">
<title>Node1&#45;&gt;Node14</title>
<g id="a_edge13_Node000001_Node000014"><a xlink:title=" ">
<path fill="none" stroke="#63b8ff" d="M24.08,-189.68C30.47,-170.13 47,-127.63 76,-105 87.7,-95.87 103.61,-91.13 116.91,-88.66"/>
<polygon fill="#63b8ff" stroke="#63b8ff" points="117.32,-92.14 126.7,-87.2 116.29,-85.22 117.32,-92.14"/>
</a>
</g>
</g>
<!-- Node4&#45;&gt;Node5 -->
<g id="edge4_Node000004_Node000005" class="edge">
<title>Node4&#45;&gt;Node5</title>
<g id="a_edge4_Node000004_Node000005"><a xlink:title=" ">
<path fill="none" stroke="#63b8ff" d="M177.99,-238C211.64,-238 262.8,-238 294.67,-238"/>
<polygon fill="#63b8ff" stroke="#63b8ff" points="294.35,-241.5 304.35,-238 294.35,-234.5 294.35,-241.5"/>
</a>
</g>
</g>
<!-- Node7 -->
<g id="Node000007" class="node">
<title>Node7</title>
<g id="a_Node000007"><a xlink:href="class_config_manager.html#a0fb1a41701933f36e9f63ef3d2efe092" target="_top" xlink:title=" ">
<polygon fill="white" stroke="#666666" points="402.75,-210 246.5,-210 246.5,-190 402.75,-190 402.75,-210"/>
<text xml:space="preserve" text-anchor="middle" x="324.62" y="-196.5" font-family="Helvetica,sans-Serif" font-size="10.00">ConfigManager::readConfigJson</text>
</a>
</g>
</g>
<!-- Node6&#45;&gt;Node7 -->
<g id="edge6_Node000006_Node000007" class="edge">
<title>Node6&#45;&gt;Node7</title>
<g id="a_edge6_Node000006_Node000007"><a xlink:title=" ">
<path fill="none" stroke="#63b8ff" d="M193.74,-172.48C215.21,-177.03 240.55,-182.4 263.12,-187.18"/>
<polygon fill="#63b8ff" stroke="#63b8ff" points="262.31,-190.59 272.82,-189.24 263.76,-183.74 262.31,-190.59"/>
</a>
</g>
</g>
<!-- Node9 -->
<g id="Node000009" class="node">
<title>Node9</title>
<g id="a_Node000009"><a xlink:href="main_8cpp.html#a9c13549d7021c392f62e99ca431ed68f" target="_top" xlink:title=" ">
<polygon fill="white" stroke="#666666" points="384.75,-172 264.5,-172 264.5,-152 384.75,-152 384.75,-172"/>
<text xml:space="preserve" text-anchor="middle" x="324.62" y="-158.5" font-family="Helvetica,sans-Serif" font-size="10.00">authSyncTimerCallback</text>
</a>
</g>
</g>
<!-- Node8&#45;&gt;Node9 -->
<g id="edge8_Node000008_Node000009" class="edge">
<title>Node8&#45;&gt;Node9</title>
<g id="a_edge8_Node000008_Node000009"><a xlink:title=" ">
<path fill="none" stroke="#63b8ff" d="M180.55,-131.69C204.21,-136.7 235.67,-143.37 263.06,-149.17"/>
<polygon fill="#63b8ff" stroke="#63b8ff" points="262.14,-152.55 272.64,-151.2 263.59,-145.7 262.14,-152.55"/>
</a>
</g>
</g>
<!-- Node10 -->
<g id="Node000010" class="node">
<title>Node10</title>
<g id="a_Node000010"><a xlink:href="_timer_handle_8cpp.html#adf4efc0096d384fe387c6115d85ef108" target="_top" xlink:title=" ">
<polygon fill="white" stroke="#666666" points="379.88,-134 269.38,-134 269.38,-114 379.88,-114 379.88,-134"/>
<text xml:space="preserve" text-anchor="middle" x="324.62" y="-120.5" font-family="Helvetica,sans-Serif" font-size="10.00">createAuthSyncTimer</text>
</a>
</g>
</g>
<!-- Node8&#45;&gt;Node10 -->
<g id="edge9_Node000008_Node000010" class="edge">
<title>Node8&#45;&gt;Node10</title>
<g id="a_edge9_Node000008_Node000010"><a xlink:title=" ">
<path fill="none" stroke="#63b8ff" d="M180.55,-124C202.66,-124 231.59,-124 257.64,-124"/>
<polygon fill="#63b8ff" stroke="#63b8ff" points="257.47,-127.5 267.47,-124 257.47,-120.5 257.47,-127.5"/>
</a>
</g>
</g>
<!-- Node11 -->
<g id="Node000011" class="node">
<title>Node11</title>
<g id="a_Node000011"><a xlink:href="_timer_handle_8cpp.html#a4e74ed1d9d446cd1faab3eb16c156507" target="_top" xlink:title=" ">
<polygon fill="white" stroke="#666666" points="387,-96 262.25,-96 262.25,-76 387,-76 387,-96"/>
<text xml:space="preserve" text-anchor="middle" x="324.62" y="-82.5" font-family="Helvetica,sans-Serif" font-size="10.00">createServerCheckTimer</text>
</a>
</g>
</g>
<!-- Node8&#45;&gt;Node11 -->
<g id="edge10_Node000008_Node000011" class="edge">
<title>Node8&#45;&gt;Node11</title>
<g id="a_edge10_Node000008_Node000011"><a xlink:title=" ">
<path fill="none" stroke="#63b8ff" d="M180.55,-116.31C204.21,-111.3 235.67,-104.63 263.06,-98.83"/>
<polygon fill="#63b8ff" stroke="#63b8ff" points="263.59,-102.3 272.64,-96.8 262.14,-95.45 263.59,-102.3"/>
</a>
</g>
</g>
<!-- Node12 -->
<g id="Node000012" class="node">
<title>Node12</title>
<g id="a_Node000012"><a xlink:href="main_8cpp.html#a2102e26d185797e237136e53b01c9601" target="_top" xlink:title=" ">
<polygon fill="white" stroke="#666666" points="362.62,-58 286.62,-58 286.62,-38 362.62,-38 362.62,-58"/>
<text xml:space="preserve" text-anchor="middle" x="324.62" y="-44.5" font-family="Helvetica,sans-Serif" font-size="10.00">postLastScan</text>
</a>
</g>
</g>
<!-- Node8&#45;&gt;Node12 -->
<g id="edge11_Node000008_Node000012" class="edge">
<title>Node8&#45;&gt;Node12</title>
<g id="a_edge11_Node000008_Node000012"><a xlink:title=" ">
<path fill="none" stroke="#63b8ff" d="M180.43,-117.35C190.62,-114.51 201.4,-110.53 210.5,-105 230.38,-92.92 226.39,-78.7 246.5,-67 255.25,-61.91 265.32,-58.18 275.23,-55.44"/>
<polygon fill="#63b8ff" stroke="#63b8ff" points="275.92,-58.88 284.81,-53.11 274.27,-52.07 275.92,-58.88"/>
</a>
</g>
</g>
<!-- Node13 -->
<g id="Node000013" class="node">
<title>Node13</title>
<g id="a_Node000013"><a xlink:href="main_8cpp.html#aa0e2758845b7d1fb9e42b73c5a160462" target="_top" xlink:title=" ">
<polygon fill="white" stroke="#666666" points="391.88,-20 257.38,-20 257.38,0 391.88,0 391.88,-20"/>
<text xml:space="preserve" text-anchor="middle" x="324.62" y="-6.5" font-family="Helvetica,sans-Serif" font-size="10.00">serverCheckTimerCallback</text>
</a>
</g>
</g>
<!-- Node8&#45;&gt;Node13 -->
<g id="edge12_Node000008_Node000013" class="edge">
<title>Node8&#45;&gt;Node13</title>
<g id="a_edge12_Node000008_Node000013"><a xlink:title=" ">
<path fill="none" stroke="#63b8ff" d="M180.31,-119.46C190.95,-116.68 202.02,-112.2 210.5,-105 238.99,-80.81 217.56,-52.65 246.5,-29 247.8,-27.94 249.15,-26.93 250.55,-25.98"/>
<polygon fill="#63b8ff" stroke="#63b8ff" points="252,-29.18 258.98,-21.22 248.56,-23.09 252,-29.18"/>
</a>
</g>
</g>
</g>
</svg>
