<?xml version="1.0" encoding="UTF-8" standalone="no"?>
<!DOCTYPE svg PUBLIC "-//W3C//DTD SVG 1.1//EN"
 "http://www.w3.org/Graphics/SVG/1.1/DTD/svg11.dtd">
<!-- Generated by graphviz version 14.1.2 (20260124.0452)
 -->
<!-- Title: NetworkTask Pages: 1 -->
<svg width="252pt" height="180pt"
 viewBox="0.00 0.00 252.00 180.00" xmlns="http://www.w3.org/2000/svg" xmlns:xlink="http://www.w3.org/1999/xlink">

<svg id="main" version="1.1" xmlns="http://www.w3.org/2000/svg" xmlns:xlink="http://www.w3.org/1999/xlink" xml:space="preserve">

<style type="text/css"><![CDATA[
.node, .edge {opacity: 0.7;}
.node.selected, .edge.selected {opacity: 1;}
.edge:hover path { stroke: red; }
.edge:hover polygon { stroke: red; fill: red; }
]]></style>
<script type="application/ecmascript" xlink:href="svg.min.js"/>
<svg id="graph" class="graph">
<g id="graph0" class="graph" transform="scale(1 1) rotate(0) translate(4 176)">
<title>NetworkTask</title>
<!-- Node1 -->
<g id="Node000001" class="node">
<title>Node1</title>
<g id="a_Node000001"><a xlink:title=" ">
<polygon fill="#999999" stroke="#666666" points="73.75,-96 0,-96 0,-76 73.75,-76 73.75,-96"/>
<text xml:space="preserve" text-anchor="middle" x="36.88" y="-82.5" font-family="Helvetica,sans-Serif" font-size="10.00">NetworkTask</text>
</a>
</g>
</g>
<!-- Node2 -->
<g id="Node000002" class="node">
<title>Node2</title>
<g id="a_Node000002"><a xlink:href="main_8cpp.html#a9c13549d7021c392f62e99ca431ed68f" target="_top" xlink:title=" ">
<polygon fill="white" stroke="#666666" points="237.12,-172 116.88,-172 116.88,-152 237.12,-152 237.12,-172"/>
<text xml:space="preserve" text-anchor="middle" x="177" y="-158.5" font-family="Helvetica,sans-Serif" font-size="10.00">authSyncTimerCallback</text>
</a>
</g>
</g>
<!-- Node1&#45;&gt;Node2 -->
<g id="edge1_Node000001_Node000002" class="edge">
<title>Node1&#45;&gt;Node2</title>
<g id="a_edge1_Node000001_Node000002"><a xlink:title=" ">
<path fill="none" stroke="#63b8ff" d="M48.14,-96.34C61.32,-109.05 85.39,-130.47 109.75,-143 113,-144.67 116.41,-146.21 119.9,-147.63"/>
<polygon fill="#63b8ff" stroke="#63b8ff" points="118.53,-150.85 129.12,-151.01 120.94,-144.28 118.53,-150.85"/>
</a>
</g>
</g>
<!-- Node3 -->
<g id="Node000003" class="node">
<title>Node3</title>
<g id="a_Node000003"><a xlink:href="_timer_handle_8cpp.html#adf4efc0096d384fe387c6115d85ef108" target="_top" xlink:title=" ">
<polygon fill="white" stroke="#666666" points="232.25,-134 121.75,-134 121.75,-114 232.25,-114 232.25,-134"/>
<text xml:space="preserve" text-anchor="middle" x="177" y="-120.5" font-family="Helvetica,sans-Serif" font-size="10.00">createAuthSyncTimer</text>
</a>
</g>
</g>
<!-- Node1&#45;&gt;Node3 -->
<g id="edge2_Node000001_Node000003" class="edge">
<title>Node1&#45;&gt;Node3</title>
<g id="a_edge2_Node000001_Node000003"><a xlink:title=" ">
<path fill="none" stroke="#63b8ff" d="M74.17,-95.98C90.45,-100.46 109.9,-105.81 127.41,-110.63"/>
<polygon fill="#63b8ff" stroke="#63b8ff" points="125.99,-113.87 136.56,-113.15 127.85,-107.12 125.99,-113.87"/>
</a>
</g>
</g>
<!-- Node4 -->
<g id="Node000004" class="node">
<title>Node4</title>
<g id="a_Node000004"><a xlink:href="_timer_handle_8cpp.html#a4e74ed1d9d446cd1faab3eb16c156507" target="_top" xlink:title=" ">
<polygon fill="white" stroke="#666666" points="239.38,-96 114.62,-96 114.62,-76 239.38,-76 239.38,-96"/>
<text xml:space="preserve" text-anchor="middle" x="177" y="-82.5" font-family="Helvetica,sans-Serif" font-size="10.00">createServerCheckTimer</text>
</a>
</g>
</g>
<!-- Node1&#45;&gt;Node4 -->
<g id="edge3_Node000001_Node000004" class="edge">
<title>Node1&#45;&gt;Node4</title>
<g id="a_edge3_Node000001_Node000004"><a xlink:title=" ">
<path fill="none" stroke="#63b8ff" d="M74.17,-86C83.11,-86 93.01,-86 103.02,-86"/>
<polygon fill="#63b8ff" stroke="#63b8ff" points="102.8,-89.5 112.8,-86 102.8,-82.5 102.8,-89.5"/>
</a>
</g>
</g>
<!-- Node5 -->
<g id="Node000005" class="node">
<title>Node5</title>
<g id="a_Node000005"><a xlink:href="main_8cpp.html#a2102e26d185797e237136e53b01c9601" target="_top" xlink:title=" ">
<polygon fill="white" stroke="#666666" points="215,-58 139,-58 139,-38 215,-38 215,-58"/>
<text xml:space="preserve" text-anchor="middle" x="177" y="-44.5" font-family="Helvetica,sans-Serif" font-size="10.00">postLastScan</text>
</a>
</g>
</g>
<!-- Node1&#45;&gt;Node5 -->
<g id="edge4_Node000001_Node000005" class="edge">
<title>Node1&#45;&gt;Node5</title>
<g id="a_edge4_Node000001_Node000005"><a xlink:title=" ">
<path fill="none" stroke="#63b8ff" d="M74.17,-76.02C90.58,-71.5 110.21,-66.1 127.84,-61.25"/>
<polygon fill="#63b8ff" stroke="#63b8ff" points="128.33,-64.74 137.05,-58.72 126.48,-57.99 128.33,-64.74"/>
</a>
</g>
</g>
<!-- Node6 -->
<g id="Node000006" class="node">
<title>Node6</title>
<g id="a_Node000006"><a xlink:href="main_8cpp.html#aa0e2758845b7d1fb9e42b73c5a160462" target="_top" xlink:title=" ">
<polygon fill="white" stroke="#666666" points="244.25,-20 109.75,-20 109.75,0 244.25,0 244.25,-20"/>
<text xml:space="preserve" text-anchor="middle" x="177" y="-6.5" font-family="Helvetica,sans-Serif" font-size="10.00">serverCheckTimerCallback</text>
</a>
</g>
</g>
<!-- Node1&#45;&gt;Node6 -->
<g id="edge5_Node000001_Node000006" class="edge">
<title>Node1&#45;&gt;Node6</title>
<g id="a_edge5_Node000001_Node000006"><a xlink:title=" ">
<path fill="none" stroke="#63b8ff" d="M48.14,-75.66C61.32,-62.95 85.39,-41.53 109.75,-29 113,-27.33 116.41,-25.79 119.9,-24.37"/>
<polygon fill="#63b8ff" stroke="#63b8ff" points="120.94,-27.72 129.12,-20.99 118.53,-21.15 120.94,-27.72"/>
</a>
</g>
</g>
</g>
</svg>
</svg>

<style type='text/css'>
<![CDATA[
[data-mouse-over-selected='false'] { opacity: 0.7; }
[data-mouse-over-selected='true']  { opacity: 1.0; }
]]>
</style>
<script type="application/ecmascript"><![CDATA[
document.addEventListener('DOMContentLoaded', (event) => {
  highlightEdges();
  highlightAdjacentNodes();
});
]]></script>
</svg>
