<?xml version="1.0" encoding="UTF-8" standalone="no"?>
<!DOCTYPE svg PUBLIC "-//W3C//DTD SVG 1.1//EN"
 "http://www.w3.org/Graphics/SVG/1.1/DTD/svg11.dtd">
<!-- Generated by graphviz version 14.1.2 (20260124.0452)
 -->
<!-- Title: lwip_event_packet_t Pages: 1 -->
<svg width="138pt" height="116pt"
 viewBox="0.00 0.00 138.00 116.00" xmlns="http://www.w3.org/2000/svg" xmlns:xlink="http://www.w3.org/1999/xlink">
<g id="graph0" class="graph" transform="scale(1 1) rotate(0) translate(4 112)">
<title>lwip_event_packet_t</title>
<!-- Node1 -->
<g id="Node000001" class="node">
<title>Node1</title>
<g id="a_Node000001"><a xlink:title=" ">
<polygon fill="#999999" stroke="#666666" points="105.25,-20 0,-20 0,0 105.25,0 105.25,-20"/>
<text xml:space="preserve" text-anchor="middle" x="52.62" y="-6.5" font-family="Helvetica,sans-Serif" font-size="10.00">lwip_event_packet_t</text>
</a>
</g>
</g>
<!-- Node2 -->
<g id="Node000002" class="node">
<title>Node2</title>
<g id="a_Node000002"><a xlink:href="class_async_client.html" target="_top" xlink:title=" ">
<polygon fill="white" stroke="#666666" points="87.25,-101 18,-101 18,-81 87.25,-81 87.25,-101"/>
<text xml:space="preserve" text-anchor="middle" x="52.62" y="-87.5" font-family="Helvetica,sans-Serif" font-size="10.00">AsyncClient</text>
</a>
</g>
</g>
<!-- Node2&#45;&gt;Node1 -->
<g id="edge1_Node000001_Node000002" class="edge">
<title>Node2&#45;&gt;Node1</title>
<g id="a_edge1_Node000001_Node000002"><a xlink:title=" ">
<path fill="none" stroke="#9a32cd" stroke-dasharray="5,2" d="M52.62,-69.32C52.62,-53.48 52.62,-32.35 52.62,-20.36"/>
<polygon fill="#9a32cd" stroke="#9a32cd" points="49.13,-69.11 52.63,-79.11 56.13,-69.11 49.13,-69.11"/>
</a>
</g>
<text xml:space="preserve" text-anchor="start" x="55.62" y="-43.5" font-family="Helvetica,sans-Serif" font-size="10.00" fill="grey">client</text>
</g>
<!-- Node2&#45;&gt;Node2 -->
<g id="edge2_Node000002_Node000002" class="edge">
<title>Node2&#45;&gt;Node2</title>
<g id="a_edge2_Node000002_Node000002"><a xlink:title=" ">
<path fill="none" stroke="#9a32cd" stroke-dasharray="5,2" d="M98.9,-97.41C102.81,-96.04 105.25,-93.9 105.25,-91 105.25,-85.84 97.54,-83.1 87.54,-82.78"/>
<polygon fill="#9a32cd" stroke="#9a32cd" points="98.36,-93.95 89.04,-98.98 99.47,-100.86 98.36,-93.95"/>
</a>
</g>
<text xml:space="preserve" text-anchor="start" x="108.25" y="-95.5" font-family="Helvetica,sans-Serif" font-size="10.00" fill="grey">next</text>
<text xml:space="preserve" text-anchor="start" x="108.25" y="-79.5" font-family="Helvetica,sans-Serif" font-size="10.00" fill="grey">prev</text>
</g>
</g>
</svg>
